<?xml version="1.0" encoding="UTF-8" standalone="no"?>
<svg width="50px" height="58px" viewBox="0 0 50 58" version="1.1" xmlns="http://www.w3.org/2000/svg" xmlns:xlink="http://www.w3.org/1999/xlink" xmlns:sketch="http://www.bohemiancoding.com/sketch/ns">
    <!-- Generator: Sketch 3.0.4 (8053) - http://www.bohemiancoding.com/sketch -->
    <title>1121-dress-shirt@2x</title>
    <desc>Created with Sketch.</desc>
    <defs></defs>
    <g id="Page-1" stroke="none" stroke-width="1" fill="none" fill-rule="evenodd" sketch:type="MSPage">
        <g id="Glyphish-8-Icons" sketch:type="MSArtboardGroup" transform="translate(-24.000000, -211.000000)" fill="#000000">
            <g id="1121-dress-shirt@2x" sketch:type="MSLayerGroup" transform="translate(24.036996, 211.860499)">
                <g id="_x31_121-dress-shirt_x40_2x.png" sketch:type="MSShapeGroup">
                    <path d="M24,46 C23.448,46 23,46.448 23,47 C23,47.553 23.448,48 24,48 C24.552,48 25,47.553 25,47 C25,46.448 24.552,46 24,46 L24,46 Z M24,38 C23.448,38 23,38.448 23,39 C23,39.553 23.448,40 24,40 C24.552,40 25,39.553 25,39 C25,38.448 24.552,38 24,38 L24,38 Z M36,4.05 L36,4 C36,1.791 30.627,0 24,0 C17.373,0 12,1.791 12,4 L12,4.05 C1.222,4.567 0,13.209 0,17 L0,47 L0,48 C0,49.104 0.896,50 2,50 L3,50 L8,50 L8,53 L8,54 C8,55.104 8.896,56 10,56 L11,56 L37,56 L38,56 C39.104,56 40,55.104 40,54 L40,53 L40,50 L45,50 L46,50 C47.104,50 48,49.104 48,48 L48,47 L48,17 C48,13.209 46.779,4.567 36,4.05 L36,4.05 Z M24,2 C29.523,2 34,2.896 34,4 C34,5.104 29.523,6 24,6 C18.477,6 14,5.104 14,4 C14,2.896 18.477,2 24,2 L24,2 Z M34,6.209 L34,6.711 L30.779,11.543 L26.539,7.908 C29.643,7.686 32.299,7.062 34,6.209 L34,6.209 Z M14,6.209 C15.701,7.063 18.357,7.686 21.461,7.908 L17.225,11.539 L14,6.702 L14,6.209 L14,6.209 Z M46,47 L46,48 L45,48 L40,48 L40,17 C40,16.448 39.552,16 39,16 C38.448,16 38,16.448 38,17 L38,53 L38,54 L37,54 L11,54 L10,54 L10,53 L10,17 C10,16.448 9.552,16 9,16 C8.448,16 8,16.448 8,17 L8,48 L3,48 L2,48 L2,47 L2,17 C2,12.176 3.784,6.476 12,6.042 L12,7 C12,7.182 12.062,7.342 12.146,7.488 L12.132,7.496 L16.132,13.496 L16.146,13.488 C16.318,13.789 16.629,14 17,14 C17.347,14 17.637,13.812 17.817,13.545 L17.832,13.555 L24,8.268 L30.168,13.555 L30.184,13.545 C30.363,13.812 30.653,14 31,14 C31.391,14 31.721,13.77 31.885,13.443 L31.894,13.447 L35.894,7.447 L35.885,7.443 C35.953,7.308 36,7.161 36,7 L36,6.042 C44.217,6.476 46,12.176 46,17 L46,47 L46,47 Z M24,14 C23.448,14 23,14.448 23,15 C23,15.553 23.448,16 24,16 C24.552,16 25,15.553 25,15 C25,14.448 24.552,14 24,14 L24,14 Z M24,22 C23.448,22 23,22.448 23,23 C23,23.553 23.448,24 24,24 C24.552,24 25,23.553 25,23 C25,22.448 24.552,22 24,22 L24,22 Z M24,30 C23.448,30 23,30.447 23,31 C23,31.553 23.448,32 24,32 C24.552,32 25,31.553 25,31 C25,30.447 24.552,30 24,30 L24,30 Z" id="Shape"></path>
                </g>
            </g>
        </g>
    </g>
</svg>