<?xml version="1.0" encoding="UTF-8" standalone="no"?>
<svg width="50px" height="58px" viewBox="0 0 50 58" version="1.1" xmlns="http://www.w3.org/2000/svg" xmlns:xlink="http://www.w3.org/1999/xlink" xmlns:sketch="http://www.bohemiancoding.com/sketch/ns">
    <!-- Generator: Sketch 3.0.4 (8053) - http://www.bohemiancoding.com/sketch -->
    <title>1122-suit@2x</title>
    <desc>Created with Sketch.</desc>
    <defs></defs>
    <g id="Page-1" stroke="none" stroke-width="1" fill="none" fill-rule="evenodd" sketch:type="MSPage">
        <g id="Glyphish-8-Icons" sketch:type="MSArtboardGroup" transform="translate(-120.000000, -211.000000)" fill="#000000">
            <g id="1122-suit@2x" sketch:type="MSLayerGroup" transform="translate(120.036996, 211.860499)">
                <g id="_x31_122-suit_x40_2x.png" sketch:type="MSShapeGroup">
                    <path d="M36,4.05 L36,3 C36,2.579 35.738,2.223 35.37,2.075 L35.371,2.071 L30.39,0.079 L30.39,0.079 L30.372,0.071 L30.37,0.075 C30.255,0.029 30.131,0 30,0 L18,0 C17.869,0 17.745,0.029 17.63,0.075 L17.629,0.071 L17.612,0.078 C17.612,0.079 17.612,0.079 17.611,0.079 L12.629,2.071 L12.63,2.075 C12.262,2.223 12,2.579 12,3 L12,4.05 C1.221,4.567 0,13.209 0,17 L0,47 L0,48 C0,49.104 0.896,50 2,50 L3,50 L8,50 L8,53 L8,54 C8,55.104 8.896,56 10,56 L11,56 L22,56 L26,56 L37,56 L38,56 C39.104,56 40,55.104 40,54 L40,53 L40,50 L45,50 L46,50 C47.104,50 48,49.104 48,48 L48,47 L48,17 C48,13.209 46.779,4.567 36,4.05 L36,4.05 Z M35.945,7.211 L35.965,7.231 L35.942,7.225 C35.943,7.22 35.944,7.215 35.945,7.211 L35.945,7.211 Z M35.971,7.236 L39.817,11.083 L29.033,30.114 L28.748,28.407 L35.971,7.236 L35.971,7.236 Z M21,9 C21,8.906 21.019,8.817 21.028,8.726 L24,6.248 L26.972,8.726 C26.981,8.817 27,8.906 27,9 C27,10.657 25.657,12 24,12 C22.343,12 21,10.657 21,9 L21,9 Z M21.747,13.435 L19.942,24.265 L14.759,9.072 L17.132,10.496 L17.146,10.488 C17.318,10.789 17.629,11 18,11 C18.347,11 18.637,10.812 18.817,10.545 L18.832,10.555 L19.184,10.262 C19.546,11.655 20.495,12.797 21.747,13.435 L21.747,13.435 Z M28.816,10.262 L29.168,10.555 L29.184,10.545 C29.363,10.812 29.653,11 30,11 C30.391,11 30.721,10.77 30.885,10.443 L30.894,10.447 L33.255,9.031 L28.058,24.264 L26.253,13.434 C27.505,12.797 28.454,11.655 28.816,10.262 L28.816,10.262 Z M14,3.678 L18.193,2 L29.808,2 L34,3.678 L34,6.616 L30.185,8.906 L24.832,4.445 L24.817,4.456 C24.638,4.188 24.347,4 24,4 C23.653,4 23.363,4.188 23.183,4.456 L23.168,4.445 L17.839,8.886 L14,6.583 L14,3.678 L14,3.678 Z M12.037,7.229 L12.037,7.229 L12.035,7.23 L12.037,7.229 L12.037,7.229 Z M12.029,7.236 L19.252,28.407 L18.967,30.114 L8.183,11.083 L12.029,7.236 L12.029,7.236 Z M23,54 L22,54 L11,54 L10,54 L10,53 L10,23 C10,22.448 9.552,22 9,22 C8.448,22 8,22.448 8,23 L8,48 L3,48 L2,48 L2,47 L2,17 C2,12.473 3.571,7.176 10.553,6.182 L6.668,10.068 C6.385,10.169 6.167,10.386 6.066,10.669 L6.05,10.685 L6.062,10.689 C6.03,10.787 6,10.89 6,11 C6,11.126 6.029,11.243 6.071,11.354 L6.065,11.357 L6.075,11.374 C6.085,11.399 6.103,11.42 6.115,11.444 L18.45,33.214 L18.014,35.827 L18.033,35.831 C18.024,35.887 18,35.939 18,36 C18,36.276 18.112,36.526 18.293,36.707 L23,41.414 L23,54 L23,54 Z M20.071,35.657 L23.847,13 L24.153,13 L27.929,35.657 L24,39.586 L20.071,35.657 L20.071,35.657 Z M46,47 L46,48 L45,48 L40,48 L40,23 C40,22.448 39.552,22 39,22 C38.448,22 38,22.448 38,23 L38,53 L38,54 L37,54 L26,54 L25,54 L25,41.414 L29.707,36.707 C29.888,36.526 30,36.276 30,36 C30,35.939 29.976,35.887 29.966,35.83 L29.985,35.826 L29.549,33.213 L41.885,11.443 C41.897,11.419 41.914,11.398 41.925,11.374 L41.935,11.356 L41.929,11.353 C41.971,11.243 42,11.126 42,11 C42,10.89 41.97,10.787 41.937,10.688 L41.949,10.684 L41.933,10.668 C41.832,10.386 41.614,10.168 41.332,10.067 L37.447,6.181 C44.429,7.176 46,12.473 46,17 L46,47 L46,47 Z" id="Shape"></path>
                </g>
            </g>
        </g>
    </g>
</svg>