<?xml version="1.0" encoding="UTF-8" standalone="no"?>
<svg width="50px" height="58px" viewBox="0 0 50 58" version="1.1" xmlns="http://www.w3.org/2000/svg" xmlns:xlink="http://www.w3.org/1999/xlink" xmlns:sketch="http://www.bohemiancoding.com/sketch/ns">
    <!-- Generator: Sketch 3.0.4 (8053) - http://www.bohemiancoding.com/sketch -->
    <title>1123-jacket@2x</title>
    <desc>Created with Sketch.</desc>
    <defs></defs>
    <g id="Page-1" stroke="none" stroke-width="1" fill="none" fill-rule="evenodd" sketch:type="MSPage">
        <g id="Glyphish-8-Icons" sketch:type="MSArtboardGroup" transform="translate(-216.000000, -211.000000)" fill="#000000">
            <g id="1123-jacket@2x" sketch:type="MSLayerGroup" transform="translate(216.036996, 211.860499)">
                <g id="_x31_123-jacket_x40_2x.png" sketch:type="MSShapeGroup">
                    <path d="M37,16 L33,16 C32.448,16 32,16.448 32,17 C32,17.553 32.448,18 33,18 L37,18 C37.552,18 38,17.553 38,17 C38,16.448 37.552,16 37,16 L37,16 Z M35,4 L34,4 L34,3 C34,2.579 33.738,2.223 33.37,2.075 L33.371,2.071 L28.39,0.079 L28.39,0.079 L28.372,0.071 L28.37,0.075 C28.255,0.029 28.131,0 28,0 L20,0 C19.869,0 19.745,0.029 19.63,0.075 L19.629,0.071 L19.612,0.078 C19.612,0.079 19.612,0.079 19.611,0.079 L14.629,2.071 L14.63,2.075 C14.262,2.223 14,2.579 14,3 L14,4 L13,4 C1.267,4 0,13.092 0,17 L0,47 L0,48 C0,49.104 0.896,50 2,50 L3,50 L8,50 L8,53 L8,54 C8,55.104 8.896,56 10,56 L11,56 L19,56 C19.552,56 20,55.553 20,55 L20,54 L28,54 L28,55 C28,55.553 28.448,56 29,56 L37,56 L38,56 C39.104,56 40,55.104 40,54 L40,53 L40,50 L45,50 L46,50 C47.104,50 48,49.104 48,48 L48,47 L48,17 C48,13.092 46.733,4 35,4 L35,4 Z M18,54 L11,54 L10,54 L10,53 L10,21 C10,20.447 9.552,20 9,20 C8.448,20 8,20.447 8,21 L8,48 L3,48 L2,48 L2,47 L2,17 C2,11.982 3.908,6 13,6 L14,6 L14,7 C14,7.182 14.062,7.342 14.146,7.488 L14.132,7.496 L14.191,7.555 C14.26,7.657 14.344,7.741 14.446,7.81 L17.133,10.497 L17.147,10.489 C17.318,10.789 17.629,11 18,11 L18,54 L18,54 Z M28,10 L28,52 L20,52 L20,10 C20,9.873 19.971,9.754 19.928,9.642 L24,6.248 L28.072,9.642 C28.029,9.754 28,9.873 28,10 L28,10 Z M24.832,4.445 L24.817,4.456 C24.638,4.188 24.347,4 24,4 C23.653,4 23.362,4.188 23.183,4.456 L23.168,4.445 L18.064,8.699 L16,6.636 L16,3.678 L20.193,2 L27.808,2 L32,3.678 L32,6.658 L29.949,8.71 L24.832,4.445 L24.832,4.445 Z M46,47 L46,48 L45,48 L40,48 L40,21 C40,20.447 39.552,20 39,20 C38.448,20 38,20.447 38,21 L38,53 L38,54 L37,54 L30,54 L30,11 C30.391,11 30.721,10.77 30.885,10.443 L30.894,10.447 L33.484,7.857 C33.641,7.767 33.767,7.641 33.856,7.485 L33.894,7.447 L33.885,7.443 C33.953,7.308 34,7.161 34,7 L34,6 L35,6 C44.092,6 46,11.982 46,17 L46,47 L46,47 Z" id="Shape"></path>
                </g>
            </g>
        </g>
    </g>
</svg>