<?xml version="1.0" encoding="UTF-8" standalone="no"?>
<svg width="34px" height="58px" viewBox="0 0 34 58" version="1.1" xmlns="http://www.w3.org/2000/svg" xmlns:xlink="http://www.w3.org/1999/xlink" xmlns:sketch="http://www.bohemiancoding.com/sketch/ns">
    <!-- Generator: Sketch 3.0.4 (8053) - http://www.bohemiancoding.com/sketch -->
    <title>1124-pants@2x</title>
    <desc>Created with Sketch.</desc>
    <defs></defs>
    <g id="Page-1" stroke="none" stroke-width="1" fill="none" fill-rule="evenodd" sketch:type="MSPage">
        <g id="Glyphish-8-Icons" sketch:type="MSArtboardGroup" transform="translate(-320.000000, -211.000000)" fill="#000000">
            <g id="1124-pants@2x" sketch:type="MSLayerGroup" transform="translate(320.036996, 211.860499)">
                <g id="_x31_124-pants_x40_2x.png" sketch:type="MSShapeGroup">
                    <path d="M30,0 L29,0 L3,0 L2,0 C0.896,0 0,0.896 0,2 L0,3 L0,13 L0,15 L0,53 L0,54 C0,55.104 0.896,56 2,56 L3,56 L11,56 C11.504,56 11.904,55.621 11.973,55.136 L11.991,55.138 L16,26.27 L20.01,55.138 L20.028,55.136 C20.096,55.621 20.496,56 21,56 L29,56 L30,56 C31.104,56 32,55.104 32,54 L32,53 L32,15 L32,13 L32,3 L32,2 C32,0.896 31.104,0 30,0 L30,0 Z M2,6 L8.77,6 C8.005,9.362 5.362,12.006 2,12.77 L2,6 L2,6 Z M30,53 L30,54 L29,54 L21.871,54 L16.991,18.862 L16.973,18.865 C16.904,18.38 16.504,18 16,18 C15.496,18 15.096,18.38 15.027,18.865 L15.009,18.862 L10.129,54 L3,54 L2,54 L2,53 L2,14.81 C6.469,13.988 9.987,10.47 10.81,6 L21.19,6 C22.012,10.47 25.53,13.987 30,14.81 L30,53 L30,53 Z M30,12.77 C26.638,12.006 23.995,9.363 23.231,6 L30,6 L30,12.77 L30,12.77 Z M30,3 L30,4 L23,4 L21,4 L11,4 L9,4 L2,4 L2,3 L2,2 L3,2 L29,2 L30,2 L30,3 L30,3 Z" id="Shape"></path>
                </g>
            </g>
        </g>
    </g>
</svg>