<?xml version="1.0" encoding="UTF-8" standalone="no"?>
<svg width="50px" height="50px" viewBox="0 0 50 50" version="1.1" xmlns="http://www.w3.org/2000/svg" xmlns:xlink="http://www.w3.org/1999/xlink" xmlns:sketch="http://www.bohemiancoding.com/sketch/ns">
    <!-- Generator: Sketch 3.0.4 (8053) - http://www.bohemiancoding.com/sketch -->
    <title>1125-shorts@2x</title>
    <desc>Created with Sketch.</desc>
    <defs></defs>
    <g id="Page-1" stroke="none" stroke-width="1" fill="none" fill-rule="evenodd" sketch:type="MSPage">
        <g id="Glyphish-8-Icons" sketch:type="MSArtboardGroup" transform="translate(-408.000000, -215.000000)" fill="#000000">
            <g id="1125-shorts@2x" sketch:type="MSLayerGroup" transform="translate(408.036996, 215.860499)">
                <g id="_x31_125-shorts_x40_2x.png" sketch:type="MSShapeGroup">
                    <path d="M46,0 L2,0 C0.896,0 0,0.896 0,2 L0,46 C0,47.104 0.896,48 2,48 L19,48 C19.462,48 19.833,47.681 19.948,47.256 L19.966,47.26 L24,26.281 L28.034,47.26 L28.052,47.256 C28.167,47.681 28.539,48 29,48 L46,48 C47.104,48 48,47.104 48,46 L48,2 C48,0.896 47.104,0 46,0 L46,0 Z M2,7.993 L11.375,7.993 C10.031,12.496 6.501,16.021 2,17.368 L2,7.993 L2,7.993 Z M46,46 L29.823,46 L24.966,20.74 L24.949,20.745 C24.833,20.319 24.462,20 24,20 C23.538,20 23.167,20.319 23.052,20.745 L23.034,20.74 L18.177,46 L2,46 L2,19.483 C7.619,18.035 12.035,13.614 13.481,7.993 L34.515,7.993 C35.962,13.613 40.38,18.031 46,19.479 L46,46 L46,46 Z M46,17.374 C41.499,16.027 37.975,12.495 36.63,7.993 L46,7.993 L46,17.374 L46,17.374 Z M46,6.003 L2,6.003 L2,2 L46,2 L46,6.003 L46,6.003 Z" id="Shape"></path>
                </g>
            </g>
        </g>
    </g>
</svg>