<?xml version="1.0" encoding="UTF-8" standalone="no"?>
<svg width="58px" height="30px" viewBox="0 0 58 30" version="1.1" xmlns="http://www.w3.org/2000/svg" xmlns:xlink="http://www.w3.org/1999/xlink" xmlns:sketch="http://www.bohemiancoding.com/sketch/ns">
    <!-- Generator: Sketch 3.0.4 (8053) - http://www.bohemiancoding.com/sketch -->
    <title>1126-bowtie@2x</title>
    <desc>Created with Sketch.</desc>
    <defs></defs>
    <g id="Page-1" stroke="none" stroke-width="1" fill="none" fill-rule="evenodd" sketch:type="MSPage">
        <g id="Glyphish-8-Icons" sketch:type="MSArtboardGroup" transform="translate(-500.000000, -225.000000)" fill="#000000">
            <g id="1126-bowtie@2x" sketch:type="MSLayerGroup" transform="translate(500.036996, 225.860499)">
                <g id="_x31_126-bowtie_x40_2x.png" sketch:type="MSShapeGroup">
                    <path d="M17.009,17.001 C16.834,17.001 16.657,17.047 16.497,17.144 C16.449,17.172 11.662,20.001 7.007,20.001 C6.454,20.001 6.006,20.449 6.006,21.001 C6.006,21.554 6.454,22.001 7.007,22.001 C12.226,22.001 17.312,18.987 17.526,18.858 C18,18.575 18.153,17.961 17.869,17.487 C17.682,17.175 17.35,17.001 17.009,17.001 L17.009,17.001 Z M17.525,10.144 C17.311,10.016 12.225,7.001 7.006,7.001 C6.453,7.001 6.005,7.449 6.005,8.001 C6.005,8.554 6.453,9.001 7.006,9.001 C11.661,9.001 16.448,11.83 16.496,11.859 C16.656,11.955 16.833,12.001 17.008,12.001 C17.349,12.001 17.681,11.828 17.867,11.515 C18.152,11.041 17.999,10.428 17.525,10.144 L17.525,10.144 Z M51.833,0.446 C51.631,0.143 51.284,-0.033 50.917,0.005 C50.436,0.045 39.612,1.016 33.226,6.437 C31.824,4.923 30.001,4.001 28.003,4.001 C25.986,4.001 24.149,4.941 22.742,6.48 C16.375,1.049 5.556,0.076 5.076,0.036 C4.709,-0.001 4.363,0.175 4.162,0.478 C3.992,0.732 0,6.806 0,14.018 C0,21.229 3.992,27.303 4.162,27.557 C4.34,27.825 4.636,27.991 4.957,28.001 C4.969,28.002 5.027,28.002 5.039,28.002 C5.543,28.002 16.829,27.912 22.847,21.642 C24.241,23.112 26.037,24.001 28.003,24.001 C29.956,24.001 31.743,23.124 33.132,21.672 C39.174,27.914 50.449,28.002 50.953,28.002 C50.965,28.002 51.023,28.002 51.035,28.001 C51.357,27.99 51.654,27.824 51.833,27.557 C52.003,27.302 56.006,21.222 56.006,14.002 C56.006,6.782 52.003,0.702 51.833,0.446 L51.833,0.446 Z M5.543,25.994 C4.659,24.507 1.997,19.56 1.997,14.017 C1.997,8.551 4.601,3.643 5.514,2.091 C7.852,2.372 16.493,3.733 21.562,8.088 C20.586,9.745 20.003,11.785 20.003,14 C20.003,16.272 20.616,18.361 21.638,20.041 C16.863,25.232 7.794,25.92 5.543,25.994 L5.543,25.994 Z M28.003,22.001 C24.69,22.001 22.003,18.419 22.003,14.001 C22.003,9.583 24.69,6.001 28.003,6.001 C31.316,6.001 34.003,9.583 34.003,14.001 C34.003,18.419 31.316,22.001 28.003,22.001 L28.003,22.001 Z M50.448,25.992 C48.197,25.918 39.147,25.231 34.35,20.071 C35.382,18.386 36.002,16.287 36.002,14.001 C36.002,11.766 35.408,9.709 34.416,8.044 C39.502,3.702 48.137,2.344 50.478,2.063 C51.392,3.617 54.002,8.531 54.002,14.002 C54.003,19.552 51.334,24.503 50.448,25.992 L50.448,25.992 Z M48.999,7.001 C43.78,7.001 38.694,10.016 38.48,10.144 C38.006,10.428 37.853,11.041 38.137,11.515 C38.324,11.828 38.656,12.001 38.996,12.001 C39.171,12.001 39.348,11.955 39.508,11.859 C39.556,11.83 44.343,9.001 48.998,9.001 C49.551,9.001 49.999,8.554 49.999,8.001 C50,7.449 49.552,7.001 48.999,7.001 L48.999,7.001 Z M48.999,20.001 C44.344,20.001 39.557,17.172 39.509,17.144 C39.349,17.047 39.172,17.001 38.997,17.001 C38.656,17.001 38.324,17.175 38.138,17.487 C37.854,17.961 38.007,18.575 38.481,18.858 C38.695,18.987 43.781,22.001 49,22.001 C49.553,22.001 50.001,21.554 50.001,21.001 C50,20.449 49.552,20.001 48.999,20.001 L48.999,20.001 Z" id="Shape"></path>
                </g>
            </g>
        </g>
    </g>
</svg>