<?xml version="1.0" encoding="UTF-8" standalone="no"?>
<svg width="50px" height="58px" viewBox="0 0 50 58" version="1.1" xmlns="http://www.w3.org/2000/svg" xmlns:xlink="http://www.w3.org/1999/xlink" xmlns:sketch="http://www.bohemiancoding.com/sketch/ns">
    <!-- Generator: Sketch 3.0.4 (8053) - http://www.bohemiancoding.com/sketch -->
    <title>1127-purse@2x</title>
    <desc>Created with Sketch.</desc>
    <defs></defs>
    <g id="Page-1" stroke="none" stroke-width="1" fill="none" fill-rule="evenodd" sketch:type="MSPage">
        <g id="Glyphish-8-Icons" sketch:type="MSArtboardGroup" transform="translate(-600.000000, -211.000000)" fill="#000000">
            <g id="1127-purse@2x" sketch:type="MSLayerGroup" transform="translate(600.036996, 211.860499)">
                <g id="_x31_127-purse_x40_2x.png" sketch:type="MSShapeGroup">
                    <path d="M44,23.9 C43.451,22.799 42.603,22 41.451,22.001 C40.505,22.001 39.353,22.542 38,23.9 C37.979,23.922 37.95,23.942 37.928,23.963 C37.365,10.563 31.36,0 24,0 C16.64,0 10.635,10.563 10.072,23.964 C10.05,23.942 10.022,23.923 10,23.9 C8.646,22.541 7.495,22.001 6.549,22.001 C5.399,22.001 4.549,22.8 4,23.9 C3,25.907 0,43.958 0,47.971 C4.4408921e-16,47.972 4.4408921e-16,56 8,56 L40,56 C48,56 48,47.972 48,47.972 C48,43.958 45,25.907 44,23.9 L44,23.9 Z M24,2 C30.513,2 35.802,12.384 35.982,25.321 C35.371,25.644 34.703,25.936 33.995,26.194 C33.996,26.129 34,26.065 34,26 C34,13.85 29.522,4 24,4 C18.478,4 14,13.85 14,26 C14,26.065 14.004,26.129 14.005,26.194 C13.297,25.936 12.629,25.644 12.018,25.321 C12.198,12.384 17.487,2 24,2 L24,2 Z M32,26 C32,26.279 31.988,26.55 31.983,26.825 C28.925,27.651 25.68,27.99 24,27.99 C22.321,27.99 19.075,27.651 16.017,26.825 C16.012,26.55 16,26.279 16,26 C16,14.954 19.582,6 24,6 C28.418,6 32,14.954 32,26 L32,26 Z M5.79,24.793 C5.883,24.607 6.211,24.001 6.549,24.001 C6.67,24.001 7.34,24.064 8.584,25.313 C12.454,29.196 21.729,29.99 24,29.99 C26.271,29.99 35.546,29.196 39.416,25.313 C40.66,24.065 41.33,24.001 41.452,24.001 C41.789,24.002 42.117,24.607 42.205,24.782 C42.384,25.178 42.665,26.312 42.994,27.885 C42.595,29.093 39.682,36.362 27.974,37.746 C27.849,36.763 27.018,36 26,36 L22,36 C20.982,36 20.152,36.763 20.025,37.746 C8.31,36.36 5.4,29.081 5.005,27.882 C5.333,26.315 5.612,25.186 5.79,24.793 L5.79,24.793 Z M26,38 L26,40 L22,40 L22,38 L26,38 L26,38 Z M45.21,51.094 C44.236,53.049 42.531,53.999 40,53.999 L8,53.999 C5.512,53.999 3.824,53.082 2.842,51.194 C2.028,49.633 2,47.978 2,47.972 C2,45.388 3.264,37.089 4.37,31.124 C6.279,34.194 10.647,38.744 20,39.775 L20,40 C20,41.104 20.896,42 22,42 L26,42 C27.104,42 28,41.104 28,40 L28,39.775 C37.351,38.744 41.72,34.195 43.63,31.125 C44.737,37.093 46,45.389 46,47.972 C46,47.987 45.966,49.576 45.21,51.094 L45.21,51.094 Z" id="Shape"></path>
                </g>
            </g>
        </g>
    </g>
</svg>