<?xml version="1.0" encoding="UTF-8" standalone="no"?>
<svg width="38px" height="58px" viewBox="0 0 38 58" version="1.1" xmlns="http://www.w3.org/2000/svg" xmlns:xlink="http://www.w3.org/1999/xlink" xmlns:sketch="http://www.bohemiancoding.com/sketch/ns">
    <!-- Generator: Sketch 3.0.4 (8053) - http://www.bohemiancoding.com/sketch -->
    <title>1128-necklace-1@2x</title>
    <desc>Created with Sketch.</desc>
    <defs></defs>
    <g id="Page-1" stroke="none" stroke-width="1" fill="none" fill-rule="evenodd" sketch:type="MSPage">
        <g id="Glyphish-8-Icons" sketch:type="MSArtboardGroup" transform="translate(-702.000000, -211.000000)" fill="#000000">
            <g id="1128-necklace-1@2x" sketch:type="MSLayerGroup" transform="translate(702.036996, 211.860499)">
                <g id="_x31_128-necklace-1_x40_2x.png" sketch:type="MSShapeGroup">
                    <path d="M32.154,28.231 C34.452,23.909 36,19.39 36,16 C36,4.955 25.18,0 18,0 C10.82,0 0,4.955 0,16 C0,19.39 1.548,23.909 3.846,28.231 C2.762,28.684 2,29.753 2,31 C2,32.366 2.92,33.507 4.169,33.869 C4.062,34.228 4,34.605 4,35 C4,36.867 5.284,38.422 7.014,38.863 C7.013,38.909 7,38.953 7,39 C7,41.762 9.238,44 12,44 C12.886,44 13.715,43.768 14.434,43.363 L12.106,47.552 L12.115,47.557 C12.047,47.692 12,47.839 12,48 C12,48.206 12.077,48.386 12.184,48.545 L12.168,48.555 L17.168,55.555 L17.184,55.545 C17.362,55.812 17.653,56 18,56 C18.347,56 18.638,55.812 18.816,55.545 L18.832,55.555 L23.832,48.555 L23.816,48.545 C23.923,48.386 24,48.206 24,48 C24,47.839 23.953,47.692 23.886,47.558 L23.895,47.553 L21.567,43.364 C22.285,43.768 23.114,44 24,44 C26.762,44 29,41.762 29,39 C29,38.953 28.987,38.909 28.986,38.863 C30.716,38.422 32,36.867 32,35 C32,34.605 31.938,34.228 31.831,33.869 C33.081,33.507 34,32.366 34,31 C34,29.753 33.238,28.684 32.154,28.231 L32.154,28.231 Z M2,16 C2,6.06 11.777,2 18,2 C24.223,2 34,6.06 34,16 C34,19.273 32.351,23.88 29.99,28.187 C28.833,28.603 28,29.699 28,31 C26.133,31 24.578,32.284 24.137,34.014 C24.091,34.013 24.047,34 24,34 C21.313,34 19.139,36.124 19.021,38.783 L18.894,38.553 L18.885,38.558 C18.721,38.23 18.391,38 18,38 C17.609,38 17.279,38.23 17.114,38.558 L17.105,38.553 L16.978,38.782 C16.861,36.124 14.687,34 12,34 C11.953,34 11.909,34.013 11.863,34.014 C11.422,32.284 9.867,31 8,31 C8,29.699 7.167,28.603 6.01,28.187 C3.649,23.88 2,19.273 2,16 L2,16 Z M5,32 C4.447,32 4,31.553 4,31 C4,30.447 4.447,30 5,30 C5.553,30 6,30.447 6,31 C6,31.553 5.553,32 5,32 L5,32 Z M7.466,36.919 C6.623,36.684 6,35.919 6,35 C6,33.896 6.896,33 8,33 C8.918,33 9.684,33.623 9.919,34.466 C8.835,34.965 7.965,35.835 7.466,36.919 L7.466,36.919 Z M12,42 C10.343,42 9,40.657 9,39 C9,37.343 10.343,36 12,36 C13.657,36 15,37.343 15,39 C15,40.657 13.657,42 12,42 L12,42 Z M21.819,47.933 L18,53.28 L14.181,47.932 L17.502,41.953 C17.669,41.971 17.837,42 18,42 C18.163,42 18.331,41.971 18.498,41.953 L21.819,47.933 L21.819,47.933 Z M24,42 C22.343,42 21,40.657 21,39 C21,37.343 22.343,36 24,36 C25.657,36 27,37.343 27,39 C27,40.657 25.657,42 24,42 L24,42 Z M28.534,36.919 C28.035,35.835 27.165,34.965 26.081,34.466 C26.316,33.623 27.082,33 28,33 C29.104,33 30,33.896 30,35 C30,35.919 29.377,36.684 28.534,36.919 L28.534,36.919 Z M31,32 C30.447,32 30,31.553 30,31 C30,30.447 30.447,30 31,30 C31.553,30 32,30.447 32,31 C32,31.553 31.553,32 31,32 L31,32 Z" id="Shape"></path>
                </g>
            </g>
        </g>
    </g>
</svg>