<?xml version="1.0" encoding="UTF-8" standalone="no"?>
<svg width="50px" height="58px" viewBox="0 0 50 58" version="1.1" xmlns="http://www.w3.org/2000/svg" xmlns:xlink="http://www.w3.org/1999/xlink" xmlns:sketch="http://www.bohemiancoding.com/sketch/ns">
    <!-- Generator: Sketch 3.0.4 (8053) - http://www.bohemiancoding.com/sketch -->
    <title>1129-necklace-2@2x</title>
    <desc>Created with Sketch.</desc>
    <defs></defs>
    <g id="Page-1" stroke="none" stroke-width="1" fill="none" fill-rule="evenodd" sketch:type="MSPage">
        <g id="Glyphish-8-Icons" sketch:type="MSArtboardGroup" transform="translate(-792.000000, -211.000000)" fill="#000000">
            <g id="1129-necklace-2@2x" sketch:type="MSLayerGroup" transform="translate(792.036996, 211.860499)">
                <g id="_x31_129-necklace-2_x40_2x.png" sketch:type="MSShapeGroup">
                    <path d="M48,25 C48,22.997 46.814,21.281 45.113,20.483 C45.659,19.8 46,18.944 46,18 C46,16.062 44.621,14.447 42.792,14.08 C42.922,13.744 43,13.382 43,13 C43,11.445 41.812,10.182 40.297,10.03 C40.312,9.91 40.333,9.791 40.333,9.667 C40.333,8.01 38.99,6.667 37.333,6.667 C37.209,6.667 37.091,6.688 36.97,6.703 C36.819,5.188 35.555,4 34,4 C33.605,4 33.229,4.081 32.885,4.22 C32.539,2.944 31.385,2 30,2 C29.605,2 29.229,2.081 28.885,2.22 C28.539,0.944 27.385,0 26,0 C25.229,0 24.531,0.3 24,0.779 C23.469,0.3 22.771,0 22,0 C20.615,0 19.461,0.944 19.115,2.22 C18.771,2.081 18.395,2 18,2 C16.615,2 15.461,2.944 15.115,4.22 C14.771,4.081 14.396,4 14,4 C12.428,4 11.151,5.215 11.024,6.755 C10.801,6.702 10.572,6.667 10.333,6.667 C8.677,6.667 7.333,8.01 7.333,9.667 C7.333,9.805 7.355,9.936 7.374,10.068 C6.018,10.356 5,11.559 5,13 C5,13.382 5.078,13.744 5.208,14.08 C3.379,14.447 2,16.062 2,18 C2,18.944 2.341,19.8 2.887,20.483 C1.186,21.281 0,22.997 0,25 C0,27.157 1.373,28.979 3.287,29.68 C2.495,30.564 2,31.72 2,33 C2,35.762 4.238,38 7,38 C7.208,38 7.406,37.964 7.607,37.939 C6.618,39.009 6,40.428 6,42 C6,45.314 8.687,48 12,48 C13.632,48 15.106,47.345 16.188,46.288 C16.067,46.84 16,47.412 16,48 C16,52.419 19.582,56 24,56 C28.418,56 32,52.419 32,48 C32,47.412 31.933,46.84 31.812,46.288 C32.894,47.345 34.368,48 36,48 C39.313,48 42,45.314 42,42 C42,40.428 41.382,39.009 40.393,37.939 C40.594,37.964 40.792,38 41,38 C43.762,38 46,35.762 46,33 C46,31.72 45.505,30.564 44.713,29.68 C46.627,28.979 48,27.157 48,25 L48,25 Z M44,18 C44,19.104 43.104,20 42,20 C40.896,20 40,19.104 40,18 C40,16.896 40.896,16 42,16 C43.104,16 44,16.896 44,18 L44,18 Z M40,12 C40.553,12 41,12.448 41,13 C41,13.553 40.553,14 40,14 C39.447,14 39,13.553 39,13 C39,12.448 39.447,12 40,12 L40,12 Z M37.333,8.667 C37.886,8.667 38.333,9.114 38.333,9.667 C38.333,10.219 37.886,10.667 37.333,10.667 C36.781,10.667 36.333,10.219 36.333,9.667 C36.333,9.114 36.781,8.667 37.333,8.667 L37.333,8.667 Z M34,6 C34.553,6 35,6.448 35,7 C35,7.553 34.553,8 34,8 C33.447,8 33,7.553 33,7 C33,6.448 33.447,6 34,6 L34,6 Z M30,4 C30.553,4 31,4.448 31,5 C31,5.553 30.553,6 30,6 C29.447,6 29,5.553 29,5 C29,4.448 29.447,4 30,4 L30,4 Z M26,2 C26.553,2 27,2.448 27,3 C27,3.553 26.553,4 26,4 C25.447,4 25,3.553 25,3 C25,2.448 25.447,2 26,2 L26,2 Z M22,2 C22.553,2 23,2.448 23,3 C23,3.553 22.553,4 22,4 C21.447,4 21,3.553 21,3 C21,2.448 21.447,2 22,2 L22,2 Z M18,4 C18.553,4 19,4.448 19,5 C19,5.553 18.553,6 18,6 C17.447,6 17,5.553 17,5 C17,4.448 17.447,4 18,4 L18,4 Z M14,6 C14.553,6 15,6.448 15,7 C15,7.553 14.553,8 14,8 C13.447,8 13,7.553 13,7 C13,6.448 13.447,6 14,6 L14,6 Z M10.333,8.667 C10.886,8.667 11.333,9.114 11.333,9.667 C11.333,10.219 10.886,10.667 10.333,10.667 C9.781,10.667 9.333,10.219 9.333,9.667 C9.333,9.114 9.781,8.667 10.333,8.667 L10.333,8.667 Z M8,12 C8.553,12 9,12.448 9,13 C9,13.553 8.553,14 8,14 C7.447,14 7,13.553 7,13 C7,12.448 7.447,12 8,12 L8,12 Z M6,16 C7.104,16 8,16.896 8,18 C8,19.104 7.104,20 6,20 C4.896,20 4,19.104 4,18 C4,16.896 4.896,16 6,16 L6,16 Z M2,25 C2,23.344 3.343,22 5,22 C6.657,22 8,23.344 8,25 C8,26.657 6.657,28 5,28 C3.343,28 2,26.657 2,25 L2,25 Z M7,36 C5.343,36 4,34.657 4,33 C4,31.344 5.343,30 7,30 C8.657,30 10,31.344 10,33 C10,34.657 8.657,36 7,36 L7,36 Z M12,46 C9.791,46 8,44.209 8,42 C8,39.791 9.791,38 12,38 C14.209,38 16,39.791 16,42 C16,44.209 14.209,46 12,46 L12,46 Z M24,54 C20.687,54 18,51.313 18,48 C18,44.687 20.687,42 24,42 C27.313,42 30,44.687 30,48 C30,51.313 27.313,54 24,54 L24,54 Z M30,42 C30,42.278 30.045,42.543 30.082,42.811 C28.614,41.093 26.437,40 24,40 C21.563,40 19.386,41.093 17.918,42.811 C17.955,42.543 18,42.278 18,42 C18,38.687 15.313,36 12,36 C11.618,36 11.247,36.045 10.885,36.112 C11.571,35.256 12,34.184 12,33 C12,30.844 10.627,29.022 8.713,28.32 C9.505,27.437 10,26.28 10,25 C10,23.508 9.333,22.184 8.297,21.268 C9.324,20.544 10,19.353 10,18 C10,17.146 9.728,16.358 9.271,15.708 C10.29,15.229 11,14.201 11,13 C11,12.862 10.978,12.729 10.959,12.597 C12.232,12.324 13.199,11.242 13.309,9.912 C13.531,9.965 13.761,10 14,10 C15.385,10 16.539,9.057 16.885,7.78 C17.229,7.92 17.605,8 18,8 C19.385,8 20.539,7.057 20.885,5.78 C21.229,5.92 21.605,6 22,6 C22.771,6 23.469,5.7 24,5.222 C24.531,5.7 25.229,6 26,6 C26.395,6 26.771,5.92 27.115,5.78 C27.461,7.057 28.615,8 30,8 C30.395,8 30.771,7.92 31.115,7.78 C31.461,9.057 32.615,10 34,10 C34.124,10 34.243,9.979 34.363,9.964 C34.504,11.38 35.622,12.497 37.036,12.639 C37.021,12.759 37,12.877 37,13 C37,14.201 37.71,15.229 38.729,15.708 C38.272,16.358 38,17.146 38,18 C38,19.353 38.676,20.544 39.703,21.268 C38.667,22.184 38,23.508 38,25 C38,26.28 38.495,27.437 39.287,28.32 C37.373,29.022 36,30.844 36,33 C36,34.184 36.428,35.256 37.115,36.112 C36.753,36.045 36.382,36 36,36 C32.687,36 30,38.687 30,42 L30,42 Z M36,46 C33.791,46 32,44.209 32,42 C32,39.791 33.791,38 36,38 C38.209,38 40,39.791 40,42 C40,44.209 38.209,46 36,46 L36,46 Z M41,36 C39.343,36 38,34.657 38,33 C38,31.344 39.343,30 41,30 C42.657,30 44,31.344 44,33 C44,34.657 42.657,36 41,36 L41,36 Z M43,28 C41.343,28 40,26.657 40,25 C40,23.344 41.343,22 43,22 C44.657,22 46,23.344 46,25 C46,26.657 44.657,28 43,28 L43,28 Z M24,44 L23.998,44 C21.79,44.002 20,45.792 20,48 C20,48.553 20.448,49 21,49 C21.553,49 22,48.553 22,48 C22,46.896 22.896,46 24,46 C24.553,46 25,45.553 25,45 C25,44.448 24.553,44 24,44 L24,44 Z M36,40 L36,40 C34.895,40.001 34,40.896 34,42 C34,42.276 34.224,42.5 34.5,42.5 C34.776,42.5 35,42.276 35,42 C35,41.448 35.447,41 36,41 C36.276,41 36.5,40.776 36.5,40.5 C36.5,40.224 36.276,40 36,40 L36,40 Z M12,40 L12,40 C10.895,40.001 10,40.896 10,42 C10,42.276 10.224,42.5 10.5,42.5 C10.776,42.5 11,42.276 11,42 C11,41.448 11.447,41 12,41 C12.276,41 12.5,40.776 12.5,40.5 C12.5,40.224 12.276,40 12,40 L12,40 Z" id="Shape"></path>
                </g>
            </g>
        </g>
    </g>
</svg>