<?xml version="1.0" encoding="UTF-8" standalone="no"?>
<svg width="37px" height="58px" viewBox="0 0 37 58" version="1.1" xmlns="http://www.w3.org/2000/svg" xmlns:xlink="http://www.w3.org/1999/xlink" xmlns:sketch="http://www.bohemiancoding.com/sketch/ns">
    <!-- Generator: Sketch 3.0.4 (8053) - http://www.bohemiancoding.com/sketch -->
    <title>1130-dress@2x</title>
    <desc>Created with Sketch.</desc>
    <defs></defs>
    <g id="Page-1" stroke="none" stroke-width="1" fill="none" fill-rule="evenodd" sketch:type="MSPage">
        <g id="Glyphish-8-Icons" sketch:type="MSArtboardGroup" transform="translate(-894.000000, -211.000000)" fill="#000000">
            <g id="1130-dress@2x" sketch:type="MSLayerGroup" transform="translate(894.036996, 211.860499)">
                <g id="_x31_130-dress_x40_2x.png" sketch:type="MSShapeGroup">
                    <path d="M35.985,48.879 C33.184,26.035 28.023,20.896 27.27,20.257 C26.948,19.921 23.868,16.581 25.404,13.447 C27.454,9.269 27.953,1.304 27.943,0.968 C27.932,0.601 27.723,0.268 27.4,0.105 C27.077,-0.059 26.692,-0.03 26.396,0.183 L17.934,5.772 L9.526,0.183 C9.232,-0.03 8.851,-0.059 8.529,0.105 C8.209,0.268 8.001,0.601 7.99,0.968 C7.98,1.305 8.481,9.27 10.517,13.448 C12.043,16.582 8.984,19.922 8.664,20.258 C7.916,20.897 2.79,26.036 0.008,48.88 C-0.013,49.05 0.009,49.222 0.072,49.38 C0.176,49.645 2.76,55.723 16.997,55.99 L16.997,56.004 L18.997,56.004 L18.997,55.988 C33.229,55.69 35.816,49.643 35.922,49.38 C35.985,49.221 36.007,49.049 35.985,48.879 L35.985,48.879 Z M9.901,21.801 C9.929,21.78 9.971,21.744 9.996,21.719 C10.181,21.535 14.501,17.156 12.26,12.553 C11.001,9.97 9.997,5.477 9.941,2.932 L17.402,7.817 C17.544,7.919 17.77,8.013 17.934,8.031 L17.935,8.031 C18.1,8.013 18.328,7.919 18.47,7.817 L25.978,2.932 C25.922,5.477 24.916,9.97 23.649,12.553 C21.391,17.156 25.743,21.535 25.928,21.719 C25.953,21.744 25.995,21.78 26.023,21.801 C26.07,21.839 30.391,25.492 33.28,43.721 C32.449,45.041 28.647,50.003 17.997,50.003 C7.379,50.003 3.524,44.974 2.7,43.691 C5.569,25.489 9.855,21.839 9.901,21.801 L9.901,21.801 Z M17.997,54.002 L17.873,54.003 L17.873,54.002 C5.829,53.98 2.559,49.76 1.98,48.813 C2.083,47.983 2.189,47.185 2.297,46.404 C4.353,48.631 8.935,52.004 17.996,52.004 C27.041,52.004 31.62,48.645 33.681,46.417 C33.789,47.194 33.897,47.988 33.999,48.813 C33.418,49.76 30.124,53.98 17.997,54.002 L17.997,54.002 Z" id="Shape"></path>
                </g>
            </g>
        </g>
    </g>
</svg>