<?xml version="1.0" encoding="UTF-8" standalone="no"?>
<svg width="54px" height="58px" viewBox="0 0 54 58" version="1.1" xmlns="http://www.w3.org/2000/svg" xmlns:xlink="http://www.w3.org/1999/xlink" xmlns:sketch="http://www.bohemiancoding.com/sketch/ns">
    <!-- Generator: Sketch 3.0.4 (8053) - http://www.bohemiancoding.com/sketch -->
    <title>1131-skirt-1@2x</title>
    <desc>Created with Sketch.</desc>
    <defs></defs>
    <g id="Page-1" stroke="none" stroke-width="1" fill="none" fill-rule="evenodd" sketch:type="MSPage">
        <g id="Glyphish-8-Icons" sketch:type="MSArtboardGroup" transform="translate(-22.000000, -307.000000)" fill="#000000">
            <g id="1131-skirt-1@2x" sketch:type="MSLayerGroup" transform="translate(22.036996, 307.860499)">
                <g id="_x31_131-skirt-1_x40_2x.png" sketch:type="MSShapeGroup">
                    <path d="M46,5 C46,1.25 38,0 26,0 C14,0 6,1.25 6,5 L0,49 C0,50.657 2.687,52 6,52 C7.563,52 8.974,51.694 10.042,51.205 C10.255,52.765 12.826,54 16,54 C17.567,54 18.979,53.695 20.041,53.202 C20.252,54.763 22.825,56 26,56 C29.175,56 31.748,54.763 31.959,53.202 C33.021,53.695 34.433,54 36,54 C39.167,54 41.732,52.77 41.957,51.215 C43.023,51.702 44.441,52 46,52 C49.314,52 52,50.657 52,49 L46,5 L46,5 Z M26,2 C35.941,2 44,3.344 44,5 C44,6.657 35.941,8 26,8 C16.059,8 8,6.657 8,5 C8,3.344 16.059,2 26,2 L26,2 Z M10.134,48.037 L10,49 C10,49.553 8.209,50 6,50 C3.791,50 2,49.553 2,49 L7.192,11.162 C8.3,12.037 10.151,12.68 12.628,13.128 L10.134,48.037 L10.134,48.037 Z M20,50.268 L19.928,51.273 L19.834,51.269 C19.362,51.689 17.833,52 16,52 C13.791,52 12,51.553 12,51 L14.619,13.433 C16.227,13.637 18.03,13.781 20,13.872 L20,50.268 L20,50.268 Z M30,53 C30,53.553 28.209,54 26,54 C23.791,54 22,53.553 22,53 L22,13.946 C23.277,13.981 24.609,14 26,14 C27.391,14 28.723,13.981 30,13.946 L30,53 L30,53 Z M26,12 C16.059,12 8,10.657 8,9 L8,7.692 C11.082,9.373 17.538,10 26,10 C34.462,10 40.919,9.373 44,7.692 L44,9 C44,10.657 35.941,12 26,12 L26,12 Z M36,52 C34.164,52 32.633,51.688 32.164,51.267 L32.01,51.273 L32,51.143 L32,13.872 C33.949,13.781 35.731,13.64 37.326,13.438 L40,51 C40,51.553 38.209,52 36,52 L36,52 Z M46,50 C43.791,50 42,49.553 42,49 L41.74,47.151 L39.311,13.14 C41.782,12.699 43.636,12.065 44.759,11.202 L50,49 C50,49.553 48.209,50 46,50 L46,50 Z" id="Shape"></path>
                </g>
            </g>
        </g>
    </g>
</svg>