<?xml version="1.0" encoding="UTF-8" standalone="no"?>
<svg width="58px" height="54px" viewBox="0 0 58 54" version="1.1" xmlns="http://www.w3.org/2000/svg" xmlns:xlink="http://www.w3.org/1999/xlink" xmlns:sketch="http://www.bohemiancoding.com/sketch/ns">
    <!-- Generator: Sketch 3.0.4 (8053) - http://www.bohemiancoding.com/sketch -->
    <title>1132-skirt-2@2x</title>
    <desc>Created with Sketch.</desc>
    <defs></defs>
    <g id="Page-1" stroke="none" stroke-width="1" fill="none" fill-rule="evenodd" sketch:type="MSPage">
        <g id="Glyphish-8-Icons" sketch:type="MSArtboardGroup" transform="translate(-116.000000, -309.000000)" fill="#000000">
            <g id="1132-skirt-2@2x" sketch:type="MSLayerGroup" transform="translate(116.036996, 309.860499)">
                <g id="_x31_132-skirt-2_x40_2x.png" sketch:type="MSShapeGroup">
                    <path d="M14.272,19.111 C13.737,18.994 13.204,19.329 13.084,19.868 L9.114,40.794 C8.995,41.332 9.334,41.864 9.87,41.984 C9.943,42 10.015,42.007 10.087,42.007 C10.543,42.007 10.955,41.691 11.058,41.226 L15.029,20.3 C15.147,19.763 14.809,19.23 14.272,19.111 L14.272,19.111 Z M40.717,19.112 C40.181,19.236 39.847,19.771 39.97,20.308 L44.941,40.237 C45.047,40.699 45.457,41.01 45.91,41.01 C45.984,41.01 46.059,41.002 46.135,40.985 C46.67,40.861 47.005,40.326 46.881,39.789 L41.91,19.859 C41.786,19.323 41.252,18.991 40.717,19.112 L40.717,19.112 Z M46.003,7 L46.003,3 C46.003,1.344 44.66,0 43.003,0 C39.003,0 34.003,1.974 27.968,1.974 C22.003,1.974 17.003,0 13.003,0 C11.346,0 10.003,1.344 10.003,3 L10.003,7 C7.891,13.978 -0.004,38.228 2.48689955e-14,45 C0.003,51 24.003,52 28.003,52 C32.003,52 56.004,51 56.004,45 C56.004,38.228 48.308,13.978 46.003,7 L46.003,7 Z M46.229,13.854 C45.82,13.937 45.406,14 44.972,14 C41.857,14 39.242,11.955 38.334,9.141 C41.117,8.739 43.343,8.298 44.367,8.082 C44.916,9.724 45.551,11.692 46.229,13.854 L46.229,13.854 Z M12.003,3 C12.003,2.448 12.451,2 13.003,2 C16.988,2 21.966,3.982 27.901,3.979 C27.937,3.983 27.967,4 28.003,4 C28.045,4 28.082,3.981 28.122,3.977 C34.087,3.942 39.038,2 43.003,2 C43.555,2 44.003,2.448 44.003,3 L44.003,6.107 C41.982,6.529 34.585,7.974 27.968,7.974 C21.427,7.974 14.116,6.56 12.003,6.121 L12.003,3 L12.003,3 Z M11.659,8.101 C12.721,8.323 14.916,8.753 17.64,9.147 C16.73,11.957 14.117,14 11.003,14 C10.611,14 10.235,13.949 9.864,13.879 C10.507,11.789 11.117,9.831 11.659,8.101 L11.659,8.101 Z M54.004,44.997 C49.987,49 32.002,50 28.003,50 C24.003,50 6.349,49.212 1.997,44.808 C2.089,40.166 5.967,26.651 9.274,15.807 C9.836,15.92 10.409,16 11.003,16 C15.132,16 18.579,13.205 19.639,9.414 C22.223,9.732 25.11,9.977 27.908,9.981 C27.941,9.984 27.97,10 28.003,10 C28.039,10 28.069,9.983 28.104,9.98 C30.891,9.972 33.763,9.725 36.334,9.408 C37.393,13.203 40.841,16 44.972,16 C45.612,16 46.227,15.91 46.827,15.781 C50.091,26.371 53.996,40.442 54.009,44.97 C54.009,44.979 54.004,44.988 54.004,44.997 L54.004,44.997 Z M22.129,15.093 C21.587,15.027 21.094,15.435 21.037,15.982 L18.052,42.904 C17.996,43.451 18.393,43.941 18.94,43.998 C18.974,44.001 19.009,44.003 19.043,44.003 C19.546,44.003 19.979,43.622 20.032,43.108 L23.018,16.187 C23.074,15.639 22.677,15.148 22.129,15.093 L22.129,15.093 Z M33.868,15.093 C33.321,15.149 32.923,15.639 32.98,16.187 L35.965,43.108 C36.018,43.622 36.451,44.003 36.954,44.003 C36.988,44.003 37.023,44.001 37.057,43.998 C37.604,43.941 38.002,43.451 37.945,42.904 L34.96,15.981 C34.902,15.435 34.404,15.028 33.868,15.093 L33.868,15.093 Z M27.999,15.087 C27.449,15.087 27.004,15.533 27.004,16.084 L27.004,44.999 C27.004,45.551 27.449,45.997 27.999,45.997 C28.549,45.997 28.994,45.551 28.994,44.999 L28.994,16.084 C28.994,15.533 28.548,15.087 27.999,15.087 L27.999,15.087 Z" id="Shape"></path>
                </g>
            </g>
        </g>
    </g>
</svg>