<?xml version="1.0" encoding="UTF-8" standalone="no"?>
<svg width="58px" height="46px" viewBox="0 0 58 46" version="1.1" xmlns="http://www.w3.org/2000/svg" xmlns:xlink="http://www.w3.org/1999/xlink" xmlns:sketch="http://www.bohemiancoding.com/sketch/ns">
    <!-- Generator: Sketch 3.0.4 (8053) - http://www.bohemiancoding.com/sketch -->
    <title>1133-tophat@2x</title>
    <desc>Created with Sketch.</desc>
    <defs></defs>
    <g id="Page-1" stroke="none" stroke-width="1" fill="none" fill-rule="evenodd" sketch:type="MSPage">
        <g id="Glyphish-8-Icons" sketch:type="MSArtboardGroup" transform="translate(-212.000000, -313.000000)" fill="#000000">
            <g id="1133-tophat@2x" sketch:type="MSLayerGroup" transform="translate(212.036996, 313.860499)">
                <g id="_x31_133-tophat_x40_2x.png" sketch:type="MSShapeGroup">
                    <path d="M45.806,24.529 L47.994,4.106 L47.973,4.104 C47.978,4.069 48,4.035 48,4 C48,1.791 39.046,0 28,0 C16.954,0 8,1.791 8,4 C8,4.035 8.022,4.069 8.026,4.104 L8.006,4.106 L10.194,24.529 C3.979,26.546 0,29.586 0,33 C0,39.075 12.536,44 28,44 C43.464,44 56,39.075 56,33 C56,29.586 52.021,26.546 45.806,24.529 L45.806,24.529 Z M10.006,4.002 L10.006,3.998 C12.454,3.102 19.288,2 28,2 C36.712,2 43.546,3.102 45.995,3.998 L45.995,4.002 C43.545,4.899 36.712,6 28,6 C19.289,6 12.455,4.899 10.006,4.002 L10.006,4.002 Z M45.8,5.818 L43.617,26.232 C42.218,27.249 36.951,29 28,29 C19.049,29 13.782,27.249 12.383,26.232 L10.2,5.818 C13.512,7.112 20.231,8 28,8 C35.769,8 42.488,7.112 45.8,5.818 L45.8,5.818 Z M28,42 C13.641,42 2,37.971 2,33 C2,30.385 5.248,28.04 10.394,26.396 L11.006,32.107 L11.018,32.107 C11.212,34.818 18.733,37 28,37 C37.267,37 44.788,34.818 44.982,32.106 L44.994,32.106 L45.606,26.395 C50.752,28.04 54,30.385 54,33 C54,37.971 42.359,42 28,42 L28,42 Z" id="Shape"></path>
                </g>
            </g>
        </g>
    </g>
</svg>