<?xml version="1.0" encoding="UTF-8" standalone="no"?>
<svg width="49px" height="58px" viewBox="0 0 49 58" version="1.1" xmlns="http://www.w3.org/2000/svg" xmlns:xlink="http://www.w3.org/1999/xlink" xmlns:sketch="http://www.bohemiancoding.com/sketch/ns">
    <!-- Generator: Sketch 3.0.4 (8053) - http://www.bohemiancoding.com/sketch -->
    <title>1134-scarf@2x</title>
    <desc>Created with Sketch.</desc>
    <defs></defs>
    <g id="Page-1" stroke="none" stroke-width="1" fill="none" fill-rule="evenodd" sketch:type="MSPage">
        <g id="Glyphish-8-Icons" sketch:type="MSArtboardGroup" transform="translate(-312.000000, -307.000000)" fill="#000000">
            <g id="1134-scarf@2x" sketch:type="MSLayerGroup" transform="translate(312.036996, 307.860499)">
                <g id="_x31_134-scarf_x40_2x.png" sketch:type="MSShapeGroup">
                    <path d="M47.813,41.512 C47.743,41.407 46.209,39.114 44.153,37.091 L43.548,36.474 C43.304,36.225 38.889,31.835 27.982,27.15 C28.305,26.735 28.623,26.317 28.964,25.912 C34.495,19.361 36.447,11.719 33.939,6.44 C32.539,3.495 29.144,0 20.915,0 C20.856,0 20.797,0 20.738,0.001 C14.386,0.039 9.463,3.104 6.876,8.631 C3.762,15.283 4.807,23.654 7.749,27.879 C2.037,36.825 0.711,46.506 0.617,47.25 C0.101,50.148 0.004,53.601 4.31675095e-14,53.746 C-0.016,54.315 0.438,54.789 1.012,54.804 C1.022,54.805 1.031,54.805 1.04,54.805 C1.602,54.805 2.065,54.361 2.08,53.801 C2.081,53.77 2.163,50.948 2.546,48.368 C2.935,48.341 3.448,48.311 4.07,48.291 C3.698,50.916 3.621,53.617 3.618,53.746 C3.603,54.315 4.056,54.789 4.63,54.804 C4.639,54.805 4.649,54.805 4.658,54.805 C5.22,54.805 5.682,54.361 5.697,53.801 C5.698,53.77 5.784,50.875 6.179,48.273 C6.658,48.279 7.16,48.294 7.683,48.319 C7.314,50.935 7.239,53.619 7.236,53.747 C7.22,54.316 7.674,54.79 8.248,54.805 C8.257,54.806 8.267,54.806 8.276,54.806 C8.838,54.806 9.301,54.362 9.316,53.802 C9.317,53.771 9.397,51.024 9.766,48.476 C10.374,48.538 10.991,48.612 11.612,48.711 C11.23,51.386 11.255,54.063 11.257,54.187 C11.265,54.751 11.729,55.204 12.297,55.204 L12.311,55.204 C12.885,55.196 13.345,54.729 13.337,54.16 C13.337,54.132 13.311,51.612 13.653,49.126 C14.351,49.296 15.034,49.497 15.696,49.734 C15.353,52.279 15.28,54.818 15.277,54.943 C15.261,55.512 15.715,55.985 16.289,56.001 L16.317,56.001 C16.879,56.001 17.342,55.558 17.357,54.997 C17.358,54.969 17.429,52.512 17.749,50.089 L17.907,49.272 C17.921,49.198 18.741,45.093 20.887,39.762 C26.697,43.204 30.573,46.325 31.5,47.095 C33.367,49.135 35.228,51.846 35.247,51.874 C35.448,52.168 35.776,52.327 36.11,52.327 C36.311,52.327 36.513,52.269 36.692,52.149 C37.168,51.83 37.293,51.189 36.97,50.718 C36.899,50.614 35.421,48.458 33.721,46.475 C33.943,46.185 34.241,45.812 34.641,45.35 C36.485,47.194 37.894,49.3 37.91,49.324 C38.109,49.626 38.442,49.79 38.781,49.79 C38.976,49.79 39.175,49.734 39.35,49.62 C39.83,49.308 39.965,48.67 39.65,48.194 C39.581,48.09 38.077,45.84 36.051,43.833 C36.382,43.498 36.733,43.152 37.126,42.787 C39.025,44.656 40.493,46.848 40.508,46.871 C40.708,47.173 41.04,47.337 41.379,47.337 C41.575,47.337 41.773,47.282 41.948,47.168 C42.428,46.856 42.563,46.218 42.248,45.741 C42.18,45.638 40.696,43.418 38.691,41.42 C39.063,41.111 39.433,40.803 39.845,40.486 C41.699,42.336 43.121,44.458 43.136,44.481 C43.336,44.783 43.668,44.947 44.007,44.947 C44.203,44.947 44.401,44.892 44.576,44.778 C45.056,44.466 45.191,43.827 44.876,43.351 C44.811,43.251 43.436,41.185 41.543,39.248 C41.899,39.004 42.266,38.76 42.647,38.516 C44.567,40.395 46.057,42.619 46.072,42.643 C46.272,42.944 46.605,43.109 46.944,43.109 C47.139,43.109 47.338,43.054 47.513,42.939 C47.994,42.626 48.128,41.987 47.813,41.512 L47.813,41.512 Z M17.189,2.471 C18.257,2.217 19.439,2.071 20.75,2.063 L20.911,2.063 C23.998,2.063 26.546,2.603 28.492,3.653 L28.429,3.685 C28.447,3.722 29.647,6.381 25.786,10.906 C21.922,8.37 17.348,9.052 14.992,9.676 C15.601,6.212 16.796,3.352 17.189,2.471 L17.189,2.471 Z M14.697,11.914 C16.148,11.44 20.666,10.264 24.343,12.446 C22.779,13.973 20.66,15.674 17.801,17.523 C17.066,17.999 16.381,18.516 15.706,19.041 C15.664,18.949 15.61,18.867 15.571,18.772 C14.685,16.612 14.513,14.208 14.697,11.914 L14.697,11.914 Z M8.764,9.498 C9.78,7.327 11.545,4.89 14.554,3.415 C13.259,6.853 11.283,13.779 13.64,19.541 C13.765,19.848 13.906,20.145 14.056,20.433 C12.132,22.154 10.443,24.036 9.018,26.01 C6.805,22.148 6.157,15.067 8.764,9.498 L8.764,9.498 Z M16.126,47.686 C12.575,46.472 8.545,46.196 5.618,46.196 C4.526,46.196 3.587,46.234 2.885,46.277 C3.003,45.641 3.186,44.768 3.433,43.75 C4.969,43.59 11.547,43.108 16.7,45.506 C16.453,46.378 16.259,47.128 16.126,47.686 L16.126,47.686 Z M17.285,43.562 C12.321,41.297 6.519,41.444 3.985,41.664 C5.823,35.221 10.003,25.029 18.938,19.25 C28.478,13.08 30.505,8.142 30.691,5.318 C31.247,5.908 31.703,6.575 32.056,7.317 C34.187,11.801 32.304,18.743 27.368,24.588 C21.942,31.016 18.867,38.594 17.285,43.562 L17.285,43.562 Z M21.696,37.844 C22.973,34.952 24.634,31.827 26.733,28.839 C31.65,30.901 35.156,32.858 37.596,34.454 C33.425,36.652 29.98,40.546 28.601,42.247 C26.808,40.988 24.529,39.502 21.696,37.844 L21.696,37.844 Z M32.231,44.992 C31.711,44.557 31.03,44.021 30.219,43.416 C31.619,41.701 35.278,37.588 39.442,35.733 C40.117,36.232 40.67,36.675 41.101,37.045 C36.294,40.192 33.449,43.427 32.231,44.992 L32.231,44.992 Z" id="Shape"></path>
                </g>
            </g>
        </g>
    </g>
</svg>