<?xml version="1.0" encoding="UTF-8" standalone="no"?>
<svg width="50px" height="58px" viewBox="0 0 50 58" version="1.1" xmlns="http://www.w3.org/2000/svg" xmlns:xlink="http://www.w3.org/1999/xlink" xmlns:sketch="http://www.bohemiancoding.com/sketch/ns">
    <!-- Generator: Sketch 3.0.4 (8053) - http://www.bohemiancoding.com/sketch -->
    <title>1135-sweater@2x</title>
    <desc>Created with Sketch.</desc>
    <defs></defs>
    <g id="Page-1" stroke="none" stroke-width="1" fill="none" fill-rule="evenodd" sketch:type="MSPage">
        <g id="Glyphish-8-Icons" sketch:type="MSArtboardGroup" transform="translate(-408.000000, -307.000000)" fill="#000000">
            <g id="1135-sweater@2x" sketch:type="MSLayerGroup" transform="translate(408.036996, 307.860499)">
                <g id="_x31_135-sweater_x40_2x.png" sketch:type="MSShapeGroup">
                    <path d="M17.878,35.456 L17.888,35.445 L16.555,32.445 L16.545,32.456 C16.425,32.188 16.231,32 16,32 C15.769,32 15.575,32.188 15.456,32.456 L15.446,32.445 L14.113,35.445 L14.123,35.456 C14.051,35.614 14,35.795 14,36 C14,36.206 14.051,36.386 14.122,36.545 L14.112,36.555 L15.445,39.555 L15.455,39.545 C15.575,39.812 15.769,40 16,40 C16.231,40 16.425,39.812 16.544,39.545 L16.554,39.555 L17.887,36.555 L17.877,36.545 C17.949,36.386 18,36.206 18,36 C18,35.795 17.949,35.614 17.878,35.456 L17.878,35.456 Z M17.888,25.445 L16.555,22.445 L16.545,22.456 C16.425,22.188 16.231,22 16,22 C15.769,22 15.575,22.188 15.456,22.456 L15.446,22.445 L14.113,25.445 L14.123,25.456 C14.051,25.614 14,25.795 14,26 C14,26.206 14.051,26.386 14.122,26.545 L14.112,26.555 L15.445,29.555 L15.455,29.545 C15.575,29.812 15.769,30 16,30 C16.231,30 16.425,29.812 16.544,29.545 L16.554,29.555 L17.887,26.555 L17.877,26.545 C17.949,26.386 18,26.206 18,26 C18,25.795 17.949,25.614 17.878,25.456 L17.888,25.445 L17.888,25.445 Z M25.878,33.456 L25.888,33.445 L24.555,30.445 L24.545,30.456 C24.425,30.188 24.231,30 24,30 C23.769,30 23.575,30.188 23.456,30.456 L23.446,30.445 L22.113,33.445 L22.123,33.456 C22.051,33.614 22,33.795 22,34 C22,34.206 22.051,34.386 22.122,34.545 L22.112,34.555 L23.445,37.555 L23.455,37.545 C23.575,37.812 23.769,38 24,38 C24.231,38 24.425,37.812 24.544,37.545 L24.554,37.555 L25.887,34.555 L25.877,34.545 C25.949,34.386 26,34.206 26,34 C26,33.795 25.949,33.614 25.878,33.456 L25.878,33.456 Z M35.829,2.042 C35.428,0.857 34.319,0 33,0 L15,0 C13.681,0 12.573,0.857 12.171,2.042 C1.233,2.475 0,11.189 0,15 L0,48 C0,49.104 0.896,50 2,50 L8,50 L8,54 C8,55.104 8.896,56 10,56 L38,56 C39.104,56 40,55.104 40,54 L40,50 L46,50 C47.104,50 48,49.104 48,48 L48,15 C48,11.189 46.767,2.475 35.829,2.042 L35.829,2.042 Z M15,2 L33,2 C33.552,2 34,2.448 34,3 C34,5.762 29.523,8 24,8 C18.477,8 14,5.762 14,3 C14,2.448 14.448,2 15,2 L15,2 Z M8,48 L2,48 L2,46 L8,46 L8,48 L8,48 Z M46,48 L40,48 L40,46 L46,46 L46,48 L46,48 Z M46,44 L40,44 L40,15 C40,14.447 39.552,14 39,14 C38.448,14 38,14.447 38,15 L38,54 L10,54 L10,15 C10,14.447 9.552,14 9,14 C8.448,14 8,14.447 8,15 L8,44 L2,44 L2,15 C2,10.147 3.805,4.41 12.146,4.036 C13.006,7.409 17.978,10 24,10 C30.022,10 34.994,7.409 35.854,4.036 C44.195,4.41 46,10.147 46,15 L46,44 L46,44 Z M33.888,21.445 L32.555,18.445 L32.545,18.456 C32.425,18.188 32.231,18 32,18 C31.769,18 31.575,18.188 31.456,18.456 L31.446,18.445 L30.113,21.445 L30.123,21.456 C30.051,21.614 30,21.795 30,22 C30,22.206 30.051,22.386 30.122,22.545 L30.112,22.555 L31.445,25.555 L31.455,25.545 C31.575,25.812 31.769,26 32,26 C32.231,26 32.425,25.812 32.544,25.545 L32.554,25.555 L33.887,22.555 L33.877,22.545 C33.949,22.386 34,22.206 34,22 C34,21.795 33.949,21.614 33.878,21.456 L33.888,21.445 L33.888,21.445 Z M33.878,31.455 L33.888,31.445 L32.555,28.445 L32.545,28.456 C32.425,28.188 32.231,28 32,28 C31.769,28 31.575,28.188 31.456,28.456 L31.446,28.445 L30.113,31.445 L30.123,31.455 C30.051,31.614 30,31.795 30,32 C30,32.206 30.051,32.386 30.122,32.545 L30.112,32.555 L31.445,35.555 L31.455,35.545 C31.575,35.812 31.769,36 32,36 C32.231,36 32.425,35.812 32.544,35.545 L32.554,35.555 L33.887,32.555 L33.877,32.545 C33.949,32.386 34,32.206 34,32 C34,31.795 33.949,31.614 33.878,31.455 L33.878,31.455 Z M25.888,23.445 L24.555,20.445 L24.545,20.456 C24.425,20.188 24.231,20 24,20 C23.769,20 23.575,20.188 23.456,20.456 L23.446,20.445 L22.113,23.445 L22.123,23.456 C22.051,23.614 22,23.795 22,24 C22,24.206 22.051,24.386 22.122,24.545 L22.112,24.555 L23.445,27.555 L23.455,27.545 C23.575,27.812 23.769,28 24,28 C24.231,28 24.425,27.812 24.544,27.545 L24.554,27.555 L25.887,24.555 L25.877,24.545 C25.949,24.386 26,24.206 26,24 C26,23.795 25.949,23.614 25.878,23.456 L25.888,23.445 L25.888,23.445 Z" id="Shape"></path>
                </g>
            </g>
        </g>
    </g>
</svg>