<?xml version="1.0" encoding="UTF-8" standalone="no"?>
<svg width="57px" height="58px" viewBox="0 0 57 58" version="1.1" xmlns="http://www.w3.org/2000/svg" xmlns:xlink="http://www.w3.org/1999/xlink" xmlns:sketch="http://www.bohemiancoding.com/sketch/ns">
    <!-- Generator: Sketch 3.0.4 (8053) - http://www.bohemiancoding.com/sketch -->
    <title>1136-gloves@2x</title>
    <desc>Created with Sketch.</desc>
    <defs></defs>
    <g id="Page-1" stroke="none" stroke-width="1" fill="none" fill-rule="evenodd" sketch:type="MSPage">
        <g id="Glyphish-8-Icons" sketch:type="MSArtboardGroup" transform="translate(-500.000000, -307.000000)" fill="#000000">
            <g id="1136-gloves@2x" sketch:type="MSLayerGroup" transform="translate(500.036996, 307.860499)">
                <g id="_x31_136-gloves_x40_2x.png" sketch:type="MSShapeGroup">
                    <path d="M55.446,27.835 L54.437,26.083 C53.935,25.212 52.887,24.863 51.978,25.208 L51.978,9.015 L51.939,9.015 C51.94,8.166 51.746,7.307 51.293,6.519 C49.917,4.13 46.869,3.312 44.485,4.691 C43.025,5.536 42.162,7.01 42.021,8.574 L40.58,6.07 C37.236,0.265 29.83,-1.724 24.038,1.628 C19.352,4.339 17.162,9.715 18.265,14.742 C17.144,15.651 16.161,16.767 15.396,18.094 L13.956,20.592 C13.815,19.031 12.953,17.559 11.494,16.716 C9.113,15.338 6.067,16.155 4.692,18.541 C4.239,19.328 4.046,20.186 4.046,21.033 L4.007,21.033 L4.007,37.203 C3.099,36.858 2.051,37.207 1.55,38.077 L0.541,39.826 C-0.572,41.759 0.089,44.229 2.018,45.346 L19.483,55.447 C21.412,56.562 23.879,55.9 24.992,53.968 L26,52.218 C26.557,51.252 26.226,50.016 25.262,49.458 L30.27,40.769 L30.977,41.996 C32.091,43.932 34.56,44.595 36.491,43.477 L53.97,33.362 C55.899,32.244 56.562,29.77 55.446,27.835 L55.446,27.835 Z M25.047,3.38 C29.874,0.587 36.046,2.244 38.832,7.082 L41.978,12.545 L41.978,19.015 L41.99,19.015 C41.988,19.191 42.014,19.369 42.108,19.533 C42.387,20.016 43.004,20.182 43.487,19.903 C43.813,19.714 43.979,19.368 43.976,19.015 L43.978,19.015 L43.978,18.986 C43.977,18.952 43.983,18.919 43.978,18.884 L43.978,9.015 L43.993,9.015 C43.995,7.979 44.519,6.971 45.478,6.416 C46.912,5.587 48.744,6.079 49.572,7.515 C49.841,7.982 49.955,8.491 49.958,8.994 L49.998,8.994 L49.979,26.327 L48.397,27.243 L32.895,36.214 L36.352,30.215 C39.694,24.418 37.71,17.005 31.923,13.658 C28.141,11.47 23.675,11.573 20.098,13.518 C19.558,9.565 21.388,5.498 25.047,3.38 L25.047,3.38 Z M23.245,52.957 C22.688,53.924 21.455,54.255 20.49,53.696 L3.026,43.596 C2.061,43.038 1.73,41.803 2.288,40.837 L3.296,39.087 L24.253,51.208 L23.245,52.957 L23.245,52.957 Z M23.516,48.448 L6.004,38.32 L5.985,21.012 L6.025,21.012 C6.028,20.51 6.142,20.002 6.411,19.535 C7.238,18.101 9.069,17.61 10.501,18.437 C11.46,18.992 11.983,19.999 11.985,21.033 L12,21.033 L12,30.887 C11.995,30.921 12.001,30.954 12,30.989 L12,31.019 L12.002,31.019 C11.999,31.371 12.164,31.716 12.49,31.905 C12.972,32.184 13.59,32.018 13.868,31.535 C13.962,31.372 13.988,31.195 13.986,31.019 L13.998,31.019 L13.998,24.558 L17.143,19.103 C19.927,14.272 26.093,12.617 30.916,15.406 C35.738,18.195 37.391,24.373 34.606,29.204 L23.516,48.448 L23.516,48.448 Z M52.96,31.609 L35.481,41.725 C34.515,42.284 33.281,41.953 32.724,40.985 L31.714,39.233 L52.689,27.094 L53.698,28.847 C54.256,29.813 53.925,31.051 52.96,31.609 L52.96,31.609 Z" id="Shape"></path>
                </g>
            </g>
        </g>
    </g>
</svg>