<?xml version="1.0" encoding="UTF-8" standalone="no"?>
<svg width="50px" height="58px" viewBox="0 0 50 58" version="1.1" xmlns="http://www.w3.org/2000/svg" xmlns:xlink="http://www.w3.org/1999/xlink" xmlns:sketch="http://www.bohemiancoding.com/sketch/ns">
    <!-- Generator: Sketch 3.0.4 (8053) - http://www.bohemiancoding.com/sketch -->
    <title>1137-tshirt@2x</title>
    <desc>Created with Sketch.</desc>
    <defs></defs>
    <g id="Page-1" stroke="none" stroke-width="1" fill="none" fill-rule="evenodd" sketch:type="MSPage">
        <g id="Glyphish-8-Icons" sketch:type="MSArtboardGroup" transform="translate(-600.000000, -307.000000)" fill="#000000">
            <g id="1137-tshirt@2x" sketch:type="MSLayerGroup" transform="translate(600.036996, 307.860499)">
                <g id="_x31_137-tshirt_x40_2x.png" sketch:type="MSShapeGroup">
                    <path d="M35,0 L33.001,0 L33,0 C32.673,0 32.396,0.168 32.214,0.41 L32.2,0.4 L24,11.334 L15.8,0.4 L15.786,0.41 C15.604,0.168 15.327,0 15,0 L14.999,0 L13,0 C1.267,0 0,9.092 0,13 L0,25 L0,26 C0,27.104 0.896,28 2,28 L3,28 L8,28 L8,53 L8,54 C8,55.104 8.896,56 10,56 L11,56 L37,56 L38,56 C39.104,56 40,55.104 40,54 L40,53 L40,28 L45,28 L46,28 C47.104,28 48,27.104 48,26 L48,25 L48,13 C48,9.092 46.733,0 35,0 L35,0 Z M46,25 L46,26 L45,26 L40,26 L40,13 C40,12.447 39.553,12 39,12 C38.447,12 38,12.447 38,13 L38,53 L38,54 L37,54 L11,54 L10,54 L10,53 L10,13 C10,12.447 9.553,12 9,12 C8.447,12 8,12.447 8,13 L8,26 L3,26 L2,26 L2,25 L2,13 C2,7.982 3.908,2 13,2 L14.5,2 L23.2,13.601 L23.214,13.59 C23.396,13.833 23.673,14 24,14 C24.327,14 24.604,13.833 24.786,13.59 L24.8,13.601 L33.5,2 L35,2 C44.092,2 46,7.982 46,13 L46,25 L46,25 Z" id="Shape"></path>
                </g>
            </g>
        </g>
    </g>
</svg>