<?xml version="1.0" encoding="UTF-8" standalone="no"?>
<svg width="58px" height="38px" viewBox="0 0 58 38" version="1.1" xmlns="http://www.w3.org/2000/svg" xmlns:xlink="http://www.w3.org/1999/xlink" xmlns:sketch="http://www.bohemiancoding.com/sketch/ns">
    <!-- Generator: Sketch 3.0.4 (8053) - http://www.bohemiancoding.com/sketch -->
    <title>1138-shoes@2x</title>
    <desc>Created with Sketch.</desc>
    <defs></defs>
    <g id="Page-1" stroke="none" stroke-width="1" fill="none" fill-rule="evenodd" sketch:type="MSPage">
        <g id="Glyphish-8-Icons" sketch:type="MSArtboardGroup" transform="translate(-692.000000, -317.000000)" fill="#000000">
            <g id="1138-shoes@2x" sketch:type="MSLayerGroup" transform="translate(692.036996, 317.860499)">
                <g id="_x31_138-shoes_x40_2x.png" sketch:type="MSShapeGroup">
                    <path d="M48.164,23.014 C34.389,20.718 29.8,15.012 23.448,7.115 C21.703,4.945 19.898,2.702 17.74,0.327 C17.551,0.119 17.281,0 17,0 L1,0 C0.448,0 0,0.448 0,1 L0,33 L0,34 C0,35.104 0.896,36 2,36 L3,36 L50,36 C52.075,36 56,34.955 56,31 C56,26.998 53.39,24.316 48.164,23.014 L48.164,23.014 Z M50,34 L3,34 C3,34 3,34 2.999,34 L2,34 L2,33 L2,32 L53.822,32 C53.068,33.955 50.141,33.999 50,34 L50,34 Z M2,30 L2,2 L16.557,2 C18.545,4.211 20.245,6.323 21.89,8.369 C22.393,8.994 22.887,9.604 23.378,10.208 L20.293,13.293 C20.112,13.474 20,13.724 20,14 C20,14.553 20.447,15 21,15 C21.276,15 21.526,14.888 21.707,14.707 L24.659,11.756 C25.456,12.703 26.262,13.618 27.09,14.496 L24.293,17.293 C24.112,17.474 24,17.724 24,18 C24,18.553 24.447,19 25,19 C25.276,19 25.526,18.888 25.707,18.707 L28.496,15.919 C29.369,16.763 30.286,17.565 31.264,18.322 L28.293,21.293 C28.112,21.474 28,21.724 28,22 C28,22.553 28.447,23 29,23 C29.276,23 29.526,22.888 29.707,22.707 L32.904,19.51 C36.591,21.987 41.2,23.879 47.758,24.97 C51.529,25.913 53.509,27.528 53.914,30 L2,30 L2,30 Z M10,12 C7.791,12 6,13.791 6,16 C6,18.209 7.791,20 10,20 C12.209,20 14,18.209 14,16 C14,13.791 12.209,12 10,12 L10,12 Z" id="Shape"></path>
                </g>
            </g>
        </g>
    </g>
</svg>