<?xml version="1.0" encoding="UTF-8" standalone="no"?>
<svg width="38px" height="58px" viewBox="0 0 38 58" version="1.1" xmlns="http://www.w3.org/2000/svg" xmlns:xlink="http://www.w3.org/1999/xlink" xmlns:sketch="http://www.bohemiancoding.com/sketch/ns">
    <!-- Generator: Sketch 3.0.4 (8053) - http://www.bohemiancoding.com/sketch -->
    <title>1139-sock@2x</title>
    <desc>Created with Sketch.</desc>
    <defs></defs>
    <g id="Page-1" stroke="none" stroke-width="1" fill="none" fill-rule="evenodd" sketch:type="MSPage">
        <g id="Glyphish-8-Icons" sketch:type="MSArtboardGroup" transform="translate(-798.000000, -307.000000)" fill="#000000">
            <g id="1139-sock@2x" sketch:type="MSLayerGroup" transform="translate(798.036996, 307.860499)">
                <g id="_x31_139-sock_x40_2x.png" sketch:type="MSShapeGroup">
                    <path d="M31.295,37.528 L31.3,37.52 L20,30.458 L20,3 L20,2 C20,0.896 19.104,0 18,0 L17,0 L3,0 L2,0 C0.896,0 0,0.896 0,2 L0,3 L0,36 C0,39.576 1.883,42.704 4.705,44.472 L4.7,44.48 L20.7,54.48 L20.705,54.472 C22.242,55.435 24.053,56 26,56 C31.522,56 36,51.522 36,46 C36,42.424 34.117,39.296 31.295,37.528 L31.295,37.528 Z M2,3 L2,2 L3,2 L17,2 L18,2 L18,3 L18,6 L2,6 L2,3 L2,3 Z M2,8 L18,8 L18,10 L2,10 L2,8 L2,8 Z M9.391,45.053 L5.76,42.784 L5.764,42.777 C3.506,41.363 2,38.86 2,36 L2,34 C6.418,34 10,37.582 10,42 C10,43.082 9.781,44.112 9.391,45.053 L9.391,45.053 Z M26,54 C24.442,54 22.993,53.548 21.764,52.777 L21.76,52.784 L11.092,46.116 C11.664,44.859 12,43.472 12,42 C12,36.478 7.522,32 2,32 L2,30.019 L2,12 L18,12 L18,29.208 L18,31.566 L30.24,39.215 L26,46 L30.236,39.223 C32.494,40.637 34,43.14 34,46 C34,50.418 30.418,54 26,54 L26,54 Z" id="Shape"></path>
                </g>
            </g>
        </g>
    </g>
</svg>