<?xml version="1.0" encoding="UTF-8" standalone="no"?>
<svg width="58px" height="30px" viewBox="0 0 58 30" version="1.1" xmlns="http://www.w3.org/2000/svg" xmlns:xlink="http://www.w3.org/1999/xlink" xmlns:sketch="http://www.bohemiancoding.com/sketch/ns">
    <!-- Generator: Sketch 3.0.4 (8053) - http://www.bohemiancoding.com/sketch -->
    <title>1140-underwear@2x</title>
    <desc>Created with Sketch.</desc>
    <defs></defs>
    <g id="Page-1" stroke="none" stroke-width="1" fill="none" fill-rule="evenodd" sketch:type="MSPage">
        <g id="Glyphish-8-Icons" sketch:type="MSArtboardGroup" transform="translate(-884.000000, -321.000000)" fill="#000000">
            <g id="1140-underwear@2x" sketch:type="MSLayerGroup" transform="translate(884.036996, 321.860499)">
                <g id="_x31_140-underwear_x40_2x.png" sketch:type="MSShapeGroup">
                    <path d="M54.895,0.553 C54.725,0.214 54.379,0 54,0 L2,0 C1.621,0 1.275,0.214 1.105,0.553 C1.061,0.644 0,2.789 0,4.984 C0,7.176 1.058,9.35 1.104,9.441 C1.271,9.783 1.619,10 2,10 C13.822,10 20.285,20.019 22.052,25.316 C22.067,25.361 22.084,25.405 22.106,25.447 C22.236,25.709 23.512,28 28,28 C32.488,28 33.764,25.709 33.895,25.447 C33.916,25.405 33.934,25.361 33.949,25.316 C35.715,20.019 42.178,10 54,10 C54.379,10 54.725,9.786 54.895,9.447 C54.939,9.356 56,7.211 56,5 C56,2.789 54.939,0.644 54.895,0.553 L54.895,0.553 Z M53.341,8.01 C40.877,8.369 34.028,18.879 32.087,24.577 C31.911,24.834 30.945,26 28,26 C25.015,26 24.063,24.802 23.916,24.585 C21.979,18.89 15.131,8.369 2.66,8.01 C2.372,7.271 2,6.072 2,4.984 C2,3.847 2.391,2.669 2.655,2 L53.344,2 C53.609,2.67 54,3.852 54,5 C54,6.153 53.606,7.341 53.341,8.01 L53.341,8.01 Z" id="Shape"></path>
                </g>
            </g>
        </g>
    </g>
</svg>