<?xml version="1.0" encoding="UTF-8" standalone="no"?>
<!-- Created with Inkscape (http://www.inkscape.org/) -->

<svg
   xmlns:dc="http://purl.org/dc/elements/1.1/"
   xmlns:cc="http://creativecommons.org/ns#"
   xmlns:rdf="http://www.w3.org/1999/02/22-rdf-syntax-ns#"
   xmlns:svg="http://www.w3.org/2000/svg"
   xmlns="http://www.w3.org/2000/svg"
   xmlns:sodipodi="http://sodipodi.sourceforge.net/DTD/sodipodi-0.dtd"
   xmlns:inkscape="http://www.inkscape.org/namespaces/inkscape"
   width="44mm"
   height="40mm"
   viewBox="0 0 155.90551 141.73229"
   id="svg4842"
   version="1.1"
   inkscape:version="0.91 r13725"
   sodipodi:docname="Fish.svg">
  <defs
     id="defs4844" />
  <sodipodi:namedview
     id="base"
     pagecolor="#ffffff"
     bordercolor="#666666"
     borderopacity="1.0"
     inkscape:pageopacity="0.0"
     inkscape:pageshadow="2"
     inkscape:zoom="0.7"
     inkscape:cx="733.18788"
     inkscape:cy="252.98488"
     inkscape:document-units="px"
     inkscape:current-layer="svg4842"
     showgrid="false"
     inkscape:window-width="1920"
     inkscape:window-height="1017"
     inkscape:window-x="1912"
     inkscape:window-y="-8"
     inkscape:window-maximized="1"
     fit-margin-top="0"
     fit-margin-left="0"
     fit-margin-right="0"
     fit-margin-bottom="0" />
  <metadata
     id="metadata4847">
    <rdf:RDF>
      <cc:Work
         rdf:about="">
        <dc:format>image/svg+xml</dc:format>
        <dc:type
           rdf:resource="http://purl.org/dc/dcmitype/StillImage" />
        <dc:title></dc:title>
      </cc:Work>
    </rdf:RDF>
  </metadata>
  <path
     inkscape:connector-curvature="0"
     d="m 124.52986,128.95495 c -4.14427,-5.22 -37.402529,-6.78267 -43.641599,-1.292 -4.46253,3.92933 -1.288,12.52 16.5104,12.52 13.451599,0 31.973999,-5.13333 27.131199,-11.228"
     style="fill:#6bb2ba;fill-opacity:1;fill-rule:nonzero;stroke:none"
     id="path128" />
  <path
     sodipodi:nodetypes="cccccccccccccccccccccccc"
     inkscape:connector-curvature="0"
     d="m 125.74346,127.99095 c -0.46613,-0.58267 -1.05213,-1.02533 -1.724,-1.42267 -1.17653,-0.688 -2.65,-1.232 -4.38067,-1.71066 -5.17613,-1.41867 -12.69639,-2.18 -19.908389,-2.18534 -9.29305,3.24535 -28.81353,0.96203 -20.9172,12.72534 1.2756,1.85466 3.42506,3.42533 6.47613,4.544 3.0572,1.11733 7.03907,1.79066 12.10933,1.79066 6.152139,-0.003 13.227599,-1.02933 18.892669,-2.74133 2.83493,-0.86267 5.31306,-1.884 7.198,-3.12133 0.9416,-0.62267 1.7432,-1.30134 2.35413,-2.10267 0.6068,-0.79467 1.02547,-1.76533 1.024,-2.82133 0.004,-1.056 -0.42453,-2.08267 -1.124,-2.95467 -0.80903,0.64243 -1.61777,1.28523 -2.42653,1.928 0.37706,0.48267 0.44786,0.788 0.45146,1.02667 -10e-4,0.24 -0.0817,0.52933 -0.3948,0.94933 -0.5348,0.728 -1.80093,1.65467 -3.564,2.47467 -2.64266,1.24933 -6.35413,2.33466 -10.34013,3.08533 -3.98746,0.752 -8.262,1.18 -12.070799,1.17867 -6.39426,0.004 -10.724,-1.15334 -13.32346,-2.64667 -2.7494,-1.40789 -4.34489,-5.05739 -2.16307,-7.16133 11.09575,-3.37918 23.210479,-3.4859 33.120399,-1.81867 2.21667,0.396 4.15773,0.88133 5.62186,1.41867 0.7312,0.26666 1.3416,0.548 1.7964,0.81466 0.45574,0.26534 0.74627,0.52267 0.86614,0.67867"
     style="fill:#ffffff;fill-opacity:1;fill-rule:nonzero;stroke:none"
     id="path130" />
  <path
     inkscape:connector-curvature="0"
     d="m 19.651201,122.59895 c 2.29387,-4.076 20.06093,-27.13467 46.712,-32.86267 0.95626,-7.13733 1.6532,-11.77333 2.55733,-14.40533 1.9672,-5.74133 19.97813,4.05867 39.446929,-3.056 2.578,-0.94267 0.41974,5.536 1.65574,6.48667 6.27653,-2.94 22.20613,-7.69067 19.64373,-26.356 10.04226,25.56933 -6.70734,58.21333 -64.305199,60.68533 2.3968,7.29467 0.0791,22.42 -7.1256,23.78667 -15.99786,1.792 -38.75106,-0.88267 -37.5656,-3.532 0.6844,-1.53334 11.93907,-2.28134 14.612,-5.83334 1.19067,-1.57866 -18.086,-0.55333 -15.63133,-4.91333"
     style="fill:#6bb2ba;fill-opacity:1;fill-rule:nonzero;stroke:none"
     id="path132" />
  <path
     inkscape:connector-curvature="0"
     d="m 59.308001,137.82295 c 6.9152,-5.39333 9.28906,-15.02 6.05373,-24.732 28.75667,-0.36 66.356129,-19.04267 68.775999,-48.79733 5.3448,28.91866 -11.14787,68.18666 -74.829729,73.52933"
     style="fill:#498ea4;fill-opacity:1;fill-rule:nonzero;stroke:none"
     id="path134" />
  <path
     inkscape:connector-curvature="0"
     d="m 59.308001,137.82295 0.85786,1.1 c 5.23334,-4.07733 8.02294,-10.412 8.01667,-17.316 0,-2.916 -0.49267,-5.93867 -1.498,-8.95733 l -1.3228,0.44133 0.0171,1.39467 c 14.6688,-0.19067 31.45107,-5.01067 44.994399,-13.59334 6.76867,-4.29466 12.72759,-9.53733 17.16973,-15.652 4.44066,-6.112 7.35786,-13.112 7.9844,-20.83333 l -1.3896,-0.11333 -1.37134,0.25333 c 0.59787,3.23467 0.9156,6.60533 0.9156,10.04267 -0.005,13.268 -4.7188,27.50666 -16.33172,39.04933 -11.61614,11.53867 -30.206269,20.44533 -58.158939,22.79467 l 0.11667,1.38933 0.85786,1.1 -0.85786,-1.1 0.11666,1.38933 c 28.4224,-2.38133 47.716669,-11.49733 59.891199,-23.59466 12.17707,-12.09467 17.16,-27.10934 17.15467,-41.028 0,-3.60934 -0.33334,-7.148 -0.962,-10.54934 l -1.90934,-10.33066 -0.8516,10.472 c -0.58333,7.156 -3.27293,13.648 -7.46146,19.42 -6.2776,8.652 -15.95413,15.63733 -26.734399,20.464 -10.77493,4.83066 -22.6432,7.50133 -33.20773,7.63066 l -1.90894,0.024 0.6032,1.812 c 0.9156,2.74667 1.3552,5.47334 1.3552,8.07467 -0.006,6.172 -2.45053,11.60933 -6.94266,15.116 l -3.6948,2.88133 4.66866,-0.392 -0.11666,-1.38933"
     style="fill:#ffffff;fill-opacity:1;fill-rule:nonzero;stroke:none"
     id="path136" />
  <path
     inkscape:connector-curvature="0"
     d="m 127.61533,55.71362 c -2.55987,-21.37867 -26.03853,-20.03467 -52.328129,-30 3.6916,3.624 11.84013,10.596 17.45733,15.56666 -2.64587,3.616 -3.48653,7.42534 -3.788,10.74 16.383729,-4.23333 28.873329,-7.79333 38.658799,3.69334"
     style="fill:#498ea4;fill-opacity:1;fill-rule:nonzero;stroke:none"
     id="path138" />
  <path
     inkscape:connector-curvature="0"
     d="m 39.463731,115.12562 c -0.0473,1.92133 -1.65,3.44 -3.57026,3.39066 -1.9224,-0.0467 -3.44174,-1.64533 -3.3948,-3.56933 0.0511,-1.92267 1.64893,-3.44267 3.57186,-3.392 1.9208,0.0493 3.4416,1.64533 3.3932,3.57067"
     style="fill:#ffffff;fill-opacity:1;fill-rule:nonzero;stroke:none"
     id="path140" />
</svg>
