<?xml version="1.0" encoding="UTF-8" standalone="no"?>
<!-- Created with Inkscape (http://www.inkscape.org/) -->

<svg
   xmlns:dc="http://purl.org/dc/elements/1.1/"
   xmlns:cc="http://creativecommons.org/ns#"
   xmlns:rdf="http://www.w3.org/1999/02/22-rdf-syntax-ns#"
   xmlns:svg="http://www.w3.org/2000/svg"
   xmlns="http://www.w3.org/2000/svg"
   xmlns:sodipodi="http://sodipodi.sourceforge.net/DTD/sodipodi-0.dtd"
   xmlns:inkscape="http://www.inkscape.org/namespaces/inkscape"
   width="44mm"
   height="40mm"
   viewBox="0 0 155.90552 141.73229"
   id="svg4948"
   version="1.1"
   inkscape:version="0.91 r13725"
   sodipodi:docname="Indian.svg">
  <defs
     id="defs4950" />
  <sodipodi:namedview
     id="base"
     pagecolor="#ffffff"
     bordercolor="#666666"
     borderopacity="1.0"
     inkscape:pageopacity="0.0"
     inkscape:pageshadow="2"
     inkscape:zoom="0.35"
     inkscape:cx="-15.197621"
     inkscape:cy="-335.64132"
     inkscape:document-units="px"
     inkscape:current-layer="svg4948"
     showgrid="false"
     fit-margin-top="0"
     fit-margin-left="0"
     fit-margin-right="0"
     fit-margin-bottom="0"
     inkscape:window-width="1920"
     inkscape:window-height="1017"
     inkscape:window-x="1912"
     inkscape:window-y="-8"
     inkscape:window-maximized="1" />
  <metadata
     id="metadata4953">
    <rdf:RDF>
      <cc:Work
         rdf:about="">
        <dc:format>image/svg+xml</dc:format>
        <dc:type
           rdf:resource="http://purl.org/dc/dcmitype/StillImage" />
        <dc:title></dc:title>
      </cc:Work>
    </rdf:RDF>
  </metadata>
  <path
     inkscape:connector-curvature="0"
     d="m 142.85609,86.692266 c -5.124,31.219994 -32.23067,55.040014 -64.902674,55.040014 -32.62,0 -59.696,-23.74402 -64.88,-54.892014"
     style="fill:#b21d25;fill-opacity:1;fill-rule:nonzero;stroke:none"
     id="path72" />
  <path
     inkscape:connector-curvature="0"
     d="m 142.91876,85.136266 c 0,13.94667 -29.088,25.261334 -64.965344,25.261334 -35.88,0 -64.96666,-11.314664 -64.96666,-25.261334 0,-13.955999 29.08666,-25.269332 64.96666,-25.269332 35.877344,0 64.965344,11.313333 64.965344,25.269332"
     style="fill:#de1d26;fill-opacity:1;fill-rule:nonzero;stroke:none"
     id="path74" />
  <path
     inkscape:connector-curvature="0"
     d="m 126.81476,85.145606 c 0,10.652 -21.872,19.289324 -48.861344,19.289324 -26.98533,0 -48.86266,-8.637324 -48.86266,-19.289324 0,-10.67334 21.87733,-19.314672 48.86266,-19.314672 26.989344,0 48.861344,8.641332 48.861344,19.314672"
     style="fill:#ffffff;fill-opacity:1;fill-rule:nonzero;stroke:none"
     id="path76" />
  <path
     inkscape:connector-curvature="0"
     d="m 69.436086,100.29626 c 0,-5.177324 13.812,-8.357324 19.812,-16.343994 6.95467,-9.25733 1.272,-21.247999 8.85867,-28.629332 6.750664,-6.567999 12.788004,-3.530667 15.585334,-1.24 2.8,2.289333 4.22267,11.748 2.54533,19.522672 -1.908,8.83866 -4.83866,14.51333 -13.656,22.18 -6.204004,5.395994 -33.145334,10.843994 -33.145334,4.510654"
     style="fill:#b21d25;fill-opacity:1;fill-rule:nonzero;stroke:none"
     id="path78" />
  <path
     sodipodi:nodetypes="cccccccccccccccccccccccccccccccscccccccccccc"
     inkscape:connector-curvature="0"
     d="m 70.769416,100.29626 c 0.003,-0.345324 0.10534,-0.691994 0.38934,-1.133324 0.488,-0.76933 1.57466,-1.704 3.03333,-2.664 2.18533,-1.45333 5.15867,-3.00933 8.104,-4.87067 2.94533,-1.86533 5.88533,-4.04266 8.01867,-6.876 1.87733,-2.49466 2.896,-5.184 3.48666,-7.852 0.88267,-4.00533 0.856,-7.990666 1.32534,-11.543999 0.23066,-1.776 0.57866,-3.438666 1.18,-4.950666 0.604,-1.513334 1.45066,-2.88 2.72933,-4.126667 2.869334,-2.776 5.392004,-3.588 7.554674,-3.597333 2.61866,-0.0093 4.86933,1.292 6.25733,2.432 0.28133,0.224 0.65333,0.701333 0.99333,1.394666 0.51867,1.036 0.97867,2.528 1.29067,4.261334 0.316,1.733333 0.492,3.710666 0.49067,5.749333 0.001,2.272 -0.21734,4.622666 -0.68934,6.805332 -0.93866,4.344 -2.1,7.804 -4.07866,11.128 -1.98,3.324 -4.80534,6.54934 -9.148,10.32667 -0.868,0.76267 -2.430674,1.652 -4.373344,2.47733 -5.83733,2.50667 -15.14133,4.567994 -21.172,4.554664 -1.88533,0.005 -3.44933,-0.21067 -4.36666,-0.57333 -0.46134,-0.17734 -0.74134,-0.38 -0.86667,-0.52534 -0.124,-0.15333 -0.14933,-0.21466 -0.15867,-0.416 l -2.66666,0 c -0.009,0.812 0.31066,1.61334 0.82933,2.18534 0.784,0.864 1.848,1.30133 3.05467,1.59466 1.216,0.284 2.62,0.4 4.17466,0.40134 4.39067,-0.004 10.008,-0.94667 15.13467,-2.352 2.56133,-0.704 4.99467,-1.524 7.084,-2.417334 2.093334,-0.89733 3.836004,-1.84533 5.077334,-2.91733 4.47334,-3.88933 7.52134,-7.33467 9.688,-10.97333 2.16934,-3.63867 3.42534,-7.436 4.39467,-11.93067 0.51733,-2.400002 0.74933,-4.925336 0.74933,-7.368002 0,-2.922667 -0.33066,-5.722667 -0.93333,-8.061333 -0.30267,-1.170667 -0.67333,-2.226667 -1.12667,-3.137334 -0.456,-0.910666 -0.98533,-1.686666 -1.692,-2.269333 -1.68,-1.370667 -4.44,-3.028 -7.94666,-3.036 -2.89067,-0.01067 -6.18,1.190667 -9.413344,4.352 -2.092,2.030667 -3.27866,4.417333 -3.96133,6.884 -1.024,3.706666 -1.01733,7.616 -1.43467,11.377332 -0.412,3.76934 -1.20266,7.332 -3.59866,10.52267 -2.74534,3.67867 -7.544,6.43867 -11.76,8.87333 -2.108,1.22667 -4.06534,2.37467 -5.58534,3.63067 -0.76,0.63067 -1.41733,1.292 -1.91333,2.052 -0.49467,0.75467 -0.824,1.63867 -0.82133,2.589324"
     style="fill:#ffffff;fill-opacity:1;fill-rule:nonzero;stroke:none"
     id="path80" />
  <path
     inkscape:connector-curvature="0"
     d="m 108.66542,43.041601 c 0.424,0.310667 0.848,0.829334 1.15334,1.509334 0.308,0.678666 0.496,1.508 0.496,2.390666 -0.003,1.306667 -0.396,2.716 -1.38,4.045333 -0.65867,0.886667 -0.47334,2.138667 0.41333,2.797333 0.88667,0.658667 2.14,0.473334 2.79867,-0.413333 1.504,-2.024 2.17066,-4.305333 2.168,-6.429333 -0.001,-1.442666 -0.3,-2.818666 -0.85067,-4.038666 -0.55333,-1.218667 -1.36,-2.292 -2.424,-3.08 -0.888,-0.656 -2.14,-0.466667 -2.796,0.421333 -0.656,0.889334 -0.468,2.141333 0.42133,2.797333"
     style="fill:#619d30;fill-opacity:1;fill-rule:nonzero;stroke:none"
     id="path82" />
  <path
     inkscape:connector-curvature="0"
     d="m 81.221416,88.596266 c -1.12133,-2.67733 -9.01733,-3.024 -13.38,-6.31066 -12.752,-9.604 -14,-22.028005 -21.33466,-25.032005 -8.716,-3.569334 -12.13467,1.598666 -13.83067,4.792 -1.69733,3.195999 0.72,12.761335 4.94267,17.828005 5.556,6.66666 12.25866,11.09066 22.22,13.884 6.12666,1.71333 23.252,-0.69867 21.38266,-5.16134"
     style="fill:#aad91b;fill-opacity:1;fill-rule:nonzero;stroke:none"
     id="path84" />
  <path
     sodipodi:nodetypes="ccccccccccccccccccccccccccccccccccccccccc"
     inkscape:connector-curvature="0"
     d="m 82.450756,88.081606 c -0.248,-0.59067 -0.65334,-1.05334 -1.10134,-1.42134 -0.792,-0.64133 -1.744,-1.064 -2.80133,-1.46266 -1.58533,-0.588 -3.42533,-1.08667 -5.2,-1.7 -7.76227,-2.76452 -13.23891,-10.57515 -17.064,-16.892006 -1.40667,-2.329333 -2.66267,-4.498666 -4.08933,-6.341333 -1.42267,-1.836 -3.05467,-3.372 -5.18267,-4.244 -2.21333,-0.906666 -4.168,-1.308 -5.904,-1.308 -2.76133,-0.01067 -4.91867,1.053334 -6.44133,2.428 -1.532,1.370667 -2.49467,3.016 -3.168,4.28 -0.532,1.021334 -0.69734,2.209333 -0.704,3.54 0.005,2.357333 0.58666,5.2 1.58666,8.021339 1.00534,2.81866 2.42534,5.596 4.21334,7.74533 5.7,6.86 12.72266,11.47733 22.884,14.31467 1.54666,0.42933 3.50533,0.6 5.67466,0.604 3.592,-0.003 7.71867,-0.496 11.05867,-1.40934 1.672,-0.46266 3.144,-1.01866 4.30533,-1.748 0.58,-0.36933 1.09067,-0.78266 1.49334,-1.30666 0.4,-0.516 0.688,-1.18667 0.68533,-1.91467 0.001,-0.40667 -0.088,-0.812 -0.24533,-1.18533 -0.81991,0.34272 -1.63927,0.68673 -2.45867,1.03066 l 0.0373,0.15467 c -0.003,0.0453 -0.004,0.11333 -0.13733,0.296 -0.22534,0.31333 -0.89734,0.81067 -1.884,1.23733 -1.47734,0.656 -3.608,1.21867 -5.9,1.59467 -2.29467,0.38 -4.76134,0.584 -6.95467,0.584 -2.012,0.003 -3.80933,-0.18 -4.956,-0.50533 -9.76,-2.75067 -16.144,-6.98 -21.55467,-13.45334 -1.508,-1.804 -2.832,-4.348 -3.748,-6.931999 -0.92133,-2.58 -1.43733,-5.216 -1.43333,-7.128 -0.007,-1.073333 0.17733,-1.906666 0.392,-2.289333 0.616,-1.165333 1.44133,-2.52 2.58933,-3.541333 1.15734,-1.02 2.57067,-1.741334 4.66534,-1.750667 1.32133,0 2.932,0.305333 4.89333,1.109333 1.53867,0.629334 2.81333,1.772 4.08667,3.410667 1.90666,2.448 3.70266,5.950666 6.22,9.772 2.52,3.821332 5.79466,7.962672 10.73066,11.680002 2.476,1.848 5.66134,2.752 8.30934,3.59067 1.32133,0.412 2.50933,0.80266 3.34933,1.20533 0.42,0.19867 0.748,0.4 0.96,0.576 0.216,0.176 0.30133,0.31067 0.33333,0.38933"
     style="fill:#ffffff;fill-opacity:1;fill-rule:nonzero;stroke:none"
     id="path86" />
  <path
     inkscape:connector-curvature="0"
     d="m 30.164086,46.432268 c -0.28933,1.522667 -0.508,2.997333 -0.50933,4.487999 -0.003,1.557334 0.25333,3.142667 0.93333,4.677334 0.67733,1.536 1.75733,2.985333 3.26533,4.361333 0.81467,0.745333 2.08,0.689333 2.82534,-0.126667 0.74533,-0.814666 0.68933,-2.08 -0.12667,-2.825333 -1.188,-1.089333 -1.88267,-2.072 -2.30533,-3.025333 -0.41867,-0.956 -0.58934,-1.917334 -0.592,-3.061334 -10e-4,-1.086666 0.168,-2.326666 0.43866,-3.739999 0.20667,-1.084 -0.50533,-2.132 -1.59066,-2.338667 -1.084,-0.206666 -2.132,0.505334 -2.33867,1.590667"
     style="fill:#619d30;fill-opacity:1;fill-rule:nonzero;stroke:none"
     id="path88" />
</svg>
