<?xml version="1.0" encoding="UTF-8" standalone="no"?>
<!-- Created with Inkscape (http://www.inkscape.org/) -->

<svg
   xmlns:dc="http://purl.org/dc/elements/1.1/"
   xmlns:cc="http://creativecommons.org/ns#"
   xmlns:rdf="http://www.w3.org/1999/02/22-rdf-syntax-ns#"
   xmlns:svg="http://www.w3.org/2000/svg"
   xmlns="http://www.w3.org/2000/svg"
   xmlns:sodipodi="http://sodipodi.sourceforge.net/DTD/sodipodi-0.dtd"
   xmlns:inkscape="http://www.inkscape.org/namespaces/inkscape"
   width="44mm"
   height="40mm"
   viewBox="0 0 155.90552 141.73229"
   id="svg5033"
   version="1.1"
   inkscape:version="0.91 r13725"
   sodipodi:docname="Lebanese.svg">
  <defs
     id="defs5035" />
  <sodipodi:namedview
     id="base"
     pagecolor="#ffffff"
     bordercolor="#666666"
     borderopacity="1.0"
     inkscape:pageopacity="0.0"
     inkscape:pageshadow="2"
     inkscape:zoom="0.49497475"
     inkscape:cx="-10.956391"
     inkscape:cy="221.64992"
     inkscape:document-units="px"
     inkscape:current-layer="svg5033"
     showgrid="false"
     fit-margin-top="0"
     fit-margin-left="0"
     fit-margin-right="0"
     fit-margin-bottom="0"
     inkscape:window-width="1920"
     inkscape:window-height="1017"
     inkscape:window-x="1912"
     inkscape:window-y="-8"
     inkscape:window-maximized="1" />
  <metadata
     id="metadata5038">
    <rdf:RDF>
      <cc:Work
         rdf:about="">
        <dc:format>image/svg+xml</dc:format>
        <dc:type
           rdf:resource="http://purl.org/dc/dcmitype/StillImage" />
        <dc:title></dc:title>
      </cc:Work>
    </rdf:RDF>
  </metadata>
  <path
     inkscape:connector-curvature="0"
     d="m 76.478096,89.365623 c -2.88934,17.602667 -18.17467,31.034667 -36.596,31.034667 -18.39067,0 -33.6560001,-13.38934 -36.5813401,-30.950667"
     style="fill:#d26721;fill-opacity:1;fill-rule:nonzero;stroke:none"
     id="path434" />
  <path
     inkscape:connector-curvature="0"
     d="m 76.512756,88.488293 c 0,7.86666 -16.40133,14.242657 -36.63066,14.242657 -20.23067,0 -36.6293401,-6.375997 -36.6293401,-14.242657 0,-7.87067 16.3986701,-14.248 36.6293401,-14.248 20.22933,0 36.63066,6.37733 36.63066,14.248"
     style="fill:#ed8224;fill-opacity:1;fill-rule:nonzero;stroke:none"
     id="path436" />
  <path
     inkscape:connector-curvature="0"
     d="m 67.432756,88.492293 c 0,6.00533 -12.32933,10.87866 -27.55066,10.87866 -15.21067,0 -27.548,-4.87333 -27.548,-10.87866 0,-6.01867 12.33733,-10.888 27.548,-10.888 15.22133,0 27.55066,4.86933 27.55066,10.888"
     style="fill:#ffffff;fill-opacity:1;fill-rule:nonzero;stroke:none"
     id="path438" />
  <path
     inkscape:connector-curvature="0"
     d="m 152.61676,82.276293 c -2.88934,17.60533 -18.176,31.034657 -36.59467,31.034657 -18.394664,0 -33.659994,-13.389327 -36.582664,-30.951997"
     style="fill:#d26721;fill-opacity:1;fill-rule:nonzero;stroke:none"
     id="path440" />
  <path
     inkscape:connector-curvature="0"
     d="m 152.65276,81.401623 c 0,7.86267 -16.40534,14.24133 -36.63067,14.24133 -20.233334,0 -36.630664,-6.37866 -36.630664,-14.24133 0,-7.872 16.39733,-14.25067 36.630664,-14.25067 20.22533,0 36.63067,6.37867 36.63067,14.25067"
     style="fill:#ed8224;fill-opacity:1;fill-rule:nonzero;stroke:none"
     id="path442" />
  <path
     inkscape:connector-curvature="0"
     d="m 143.57009,81.405623 c 0,6.00533 -12.33067,10.87467 -27.548,10.87467 -15.21466,0 -27.551994,-4.86934 -27.551994,-10.87467 0,-6.02267 12.337334,-10.89067 27.551994,-10.89067 15.21733,0 27.548,4.868 27.548,10.89067"
     style="fill:#ffffff;fill-opacity:1;fill-rule:nonzero;stroke:none"
     id="path444" />
  <path
     inkscape:connector-curvature="0"
     d="m 125.06609,110.69495 c -2.88933,17.60667 -18.172,31.03733 -36.595994,31.03733 -18.392,0 -33.656,-13.38933 -36.58,-30.95333"
     style="fill:#d26721;fill-opacity:1;fill-rule:nonzero;stroke:none"
     id="path446" />
  <path
     inkscape:connector-curvature="0"
     d="m 125.10209,109.81895 c 0,7.86534 -16.40267,14.244 -36.631994,14.244 -20.23067,0 -36.628,-6.37866 -36.628,-14.244 0,-7.87066 16.39733,-14.247997 36.628,-14.247997 20.229324,0 36.631994,6.377337 36.631994,14.247997"
     style="fill:#ed8224;fill-opacity:1;fill-rule:nonzero;stroke:none"
     id="path448" />
  <path
     inkscape:connector-curvature="0"
     d="m 116.02209,109.82429 c 0,6.00533 -12.33067,10.87466 -27.551994,10.87466 -15.212,0 -27.548,-4.86933 -27.548,-10.87466 0,-6.02267 12.336,-10.889337 27.548,-10.889337 15.221324,0 27.551994,4.866667 27.551994,10.889337"
     style="fill:#ffffff;fill-opacity:1;fill-rule:nonzero;stroke:none"
     id="path450" />
  <path
     inkscape:connector-curvature="0"
     d="m 111.98209,80.694953 c 0,1.664 -1.352,3.01734 -3.01867,3.01734 -1.66666,0 -3.02,-1.35334 -3.02,-3.01734 0,-1.668 1.35334,-3.02 3.02,-3.02 1.66667,0 3.01867,1.352 3.01867,3.02"
     style="fill:#ed8224;fill-opacity:1;fill-rule:nonzero;stroke:none"
     id="path452" />
  <path
     inkscape:connector-curvature="0"
     d="m 119.04609,75.509623 c 0,1.66933 -1.35067,3.01867 -3.01733,3.01867 -1.66667,0 -3.01867,-1.34934 -3.01867,-3.01867 0,-1.66667 1.352,-3.01867 3.01867,-3.01867 1.66666,0 3.01733,1.352 3.01733,3.01867"
     style="fill:#ed8224;fill-opacity:1;fill-rule:nonzero;stroke:none"
     id="path454" />
  <path
     inkscape:connector-curvature="0"
     d="m 119.04609,85.604293 c 0,1.67066 -1.35067,3.024 -3.01733,3.024 -1.66667,0 -3.01867,-1.35334 -3.01867,-3.024 0,-1.66267 1.352,-3.01734 3.01867,-3.01734 1.66666,0 3.01733,1.35467 3.01733,3.01734"
     style="fill:#ed8224;fill-opacity:1;fill-rule:nonzero;stroke:none"
     id="path456" />
  <path
     inkscape:connector-curvature="0"
     d="m 126.11409,80.693623 c 0,1.66533 -1.34933,3.01867 -3.01733,3.01867 -1.67067,0 -3.02267,-1.35334 -3.02267,-3.01867 0,-1.66667 1.352,-3.01867 3.02267,-3.01867 1.668,0 3.01733,1.352 3.01733,3.01867"
     style="fill:#ed8224;fill-opacity:1;fill-rule:nonzero;stroke:none"
     id="path458" />
  <path
     sodipodi:nodetypes="ccccccccc"
     inkscape:connector-curvature="0"
     d="m 21.016756,88.361623 c 6.38884,8.21951 35.46616,7.32489 36.79334,0 0.37466,-3.504 1.72733,-6.163 -0.772,-8.66533 -1.752,-0.90726 0.67816,-7.15458 -2.888,-6.972 -3.35008,-0.0987 -7.38267,2.604 -11.264,2.87866 -3.87867,0.276 -2.85008,-1.62008 -8.63467,-2.87866 -1.25067,-0.47734 -8.336,-3.15067 -8.36,-0.87334 -0.0253,2.27467 0.72459,5.34467 -2.05733,7.84534 -0.75067,2.25333 -3.81867,4.66133 -2.81734,8.66533"
     style="fill:#ffffff;fill-opacity:1;fill-rule:nonzero;stroke:none"
     id="path460" />
  <path
     sodipodi:nodetypes="cccccccccccccccccccccccc"
     inkscape:connector-curvature="0"
     id="path462"
     d="m 29.907236,72.492893 c -1.21507,-0.0436 -2.50155,0.65361 -2.68555,1.84961 0.0569,0.92484 0.25273,2.51441 -0.32813,3.65821 -0.83867,0.85324 -2.52015,2.62016 -2.21484,4.91211 0.11867,0.61066 -2.11014,1.76539 -2.63281,3.52539 -0.0189,5.16366 9.33158,6.00006 13.95312,6.75976 0.83959,-1.18263 -0.84401,-4.1218 -2.02539,-5.33008 -1.14339,-1.11356 -3.52091,-2.93568 -4.36523,-3.36328 0.0263,-0.35148 0.0593,-0.59678 0.12109,-0.54101 1.3343,0.79561 2.98065,1.64892 4.20117,2.83789 -1.13394,-2.30835 -1.94165,-4.43503 -3.13671,-6.74219 -0.62,-0.74267 -1.89413,-1.05693 -2.57813,-1.68359 0.75895,0.12921 1.95002,0.54557 2.82594,1.00893 0.0267,-0.67067 -0.13269,-1.35669 -0.0447,-1.99135 0.74751,1.73377 1.29807,3.38985 2.19727,5.14843 0.96421,-1.19737 1.54677,-2.5412 3.02148,-3.13672 -0.94935,1.38034 -1.94324,2.62298 -2.71875,3.91797 0.45937,2.23158 2.2008,4.05249 2.91406,6.17188 0.232,-0.74534 0.0331,-3.91515 0.6211,-4.89649 1.38285,-1.76239 4.02607,-4.13753 3.9414,-5.31054 -0.041,-0.58419 -1.14292,-0.83331 -1.375,-0.85157 -0.336,-1.10266 -0.20002,-1.6593 -1.55468,-2.91796 -1.292,-1.20134 -2.99719,-0.51852 -4.47852,-0.97852 -1.60604,-0.78447 -2.06755,-1.72907 -3.65819,-2.04688 z"
     style="fill:#89c126;fill-opacity:1;fill-rule:nonzero;stroke:none" />
  <path
     sodipodi:nodetypes="cccccccccccccccccc"
     inkscape:connector-curvature="0"
     d="m 37.670096,86.032293 c 0.2639,-1.18214 3.50638,-4.02562 4.14632,-5.98228 1.72752,-4.5292 6.07509,-2.54211 9.20834,-5.26439 0.83334,-0.32933 1.65334,-0.25067 2.36534,0.0947 1.36533,0.66266 1.324,2.00666 1.39333,3.44666 0.11467,2.432 0.25733,1.77067 1.76267,3.46134 2.65645,5.51038 -5.3968,10.20222 -9.50534,10.89333 -0.808,0.11333 -1.34933,0.43867 -1.39866,-0.556 -0.20554,-4.43804 3.33477,-7.92945 4.53466,-10.95867 0.18134,-0.472 0.9,-1.288 1.01734,-2.86266 -0.38534,0.69733 -0.96134,1.92133 -1.47467,2.40666 -0.14267,-0.532 -0.456,-1.87866 -0.92,-2.53733 -0.11067,0.832 0.35467,2.38133 0.308,3.17333 -0.0907,1.46934 -2.87733,5.136 -3.45333,5.69867 0.13573,-2.07196 -0.23902,-4.31233 -1.224,-5.852 0.30336,4.70595 1.05482,7.67831 -0.53734,11.84533 -2.03828,0.47055 -5.09678,0.63243 -5.84466,-1.78 -0.40467,-1.83066 -0.57134,-4.664 -0.378,-5.22666 z"
     style="fill:#89c126;fill-opacity:1;fill-rule:nonzero;stroke:none"
     id="path466" />
  <path
     inkscape:connector-curvature="0"
     d="m 104.96876,113.07895 c -0.40667,-5.35333 -2.12533,-15.471997 -18.074664,-14.735997 -4.356,0.20134 -3.988,3.814667 -3.73334,6.243997 0.38934,3.77067 2.59867,10.83867 16.49334,12.34667 5.138664,0.552 5.603994,-0.10933 5.314664,-3.85467"
     style="fill:#ab4929;fill-opacity:1;fill-rule:nonzero;stroke:none"
     id="path468" />
  <path
     inkscape:connector-curvature="0"
     d="m 104.96876,113.07895 0.76933,-0.0587 c -0.204,-2.62666 -0.704,-6.47466 -3.10799,-9.72533 -1.20134,-1.62267 -2.885344,-3.08 -5.193344,-4.111997 -2.30933,-1.03467 -5.23333,-1.64933 -8.93066,-1.64933 -0.53334,0 -1.08267,0.012 -1.648,0.0387 -0.892,0.0413 -1.644,0.21466 -2.272,0.51333 -0.94534,0.444 -1.572,1.19067 -1.90534,1.999997 -0.33866,0.81067 -0.42666,1.67467 -0.428,2.49733 0,0.74667 0.076,1.46667 0.14134,2.08534 0.20133,1.97866 0.9,4.88933 3.39333,7.476 2.492,2.588 6.71733,4.792 13.78267,5.556 1.030664,0.11066 1.884004,0.17466 2.610664,0.17466 0.61067,0 1.13066,-0.044 1.59866,-0.16133 0.696,-0.164 1.312,-0.57733 1.632,-1.18533 0.32134,-0.60267 0.392,-1.272 0.39467,-2.04934 0,-0.44133 -0.0267,-0.924 -0.068,-1.46 l -0.76933,0.06 -0.768,0.0587 c 0.0387,0.516 0.064,0.964 0.064,1.34134 0,0.44533 -0.036,0.79066 -0.1,1.028 -0.11067,0.35866 -0.19067,0.452 -0.43067,0.59066 -0.24667,0.13334 -0.75333,0.23867 -1.55333,0.236 -0.63333,0 -1.444,-0.0587 -2.444004,-0.16666 -6.828,-0.744 -10.65466,-2.828 -12.83866,-5.09334 -2.18267,-2.268 -2.78267,-4.776 -2.97067,-6.56533 -0.0653,-0.61733 -0.132,-1.284 -0.132,-1.92533 -0.004,-0.948 0.156,-1.808 0.572,-2.38134 0.20933,-0.290657 0.48,-0.530657 0.88267,-0.723997 0.40133,-0.19066 0.94533,-0.33066 1.67866,-0.36533 0.54267,-0.024 1.068,-0.036 1.57734,-0.036 3.52933,0 6.228,0.58533 8.3,1.513327 3.10266,1.396 4.838664,3.548 5.889334,5.86134 1.04533,2.31066 1.36133,4.78266 1.50533,6.68533 l 0.768,-0.0573"
     style="fill:#ffffff;fill-opacity:1;fill-rule:nonzero;stroke:none"
     id="path470" />
  <path
     inkscape:connector-curvature="0"
     d="m 91.203426,116.08295 c -0.40667,-5.35466 -2.128,-15.472 -18.07867,-14.736 -4.35333,0.19867 -3.98533,3.816 -3.72933,6.24534 0.38933,3.76666 2.59733,10.83866 16.492,12.344 5.13867,0.55066 5.60267,-0.10667 5.316,-3.85334"
     style="fill:#ab4929;fill-opacity:1;fill-rule:nonzero;stroke:none"
     id="path472" />
  <path
     inkscape:connector-curvature="0"
     d="m 91.203426,116.08295 0.76933,-0.0573 c -0.204,-2.628 -0.704,-6.47733 -3.10933,-9.728 -1.20133,-1.62133 -2.88533,-3.07866 -5.19467,-4.11066 -2.30933,-1.03467 -5.232,-1.64934 -8.93066,-1.64934 -0.53334,0 -1.08267,0.012 -1.648,0.0387 -0.89067,0.0413 -1.64267,0.21334 -2.27067,0.512 -0.94533,0.44267 -1.572,1.18934 -1.90533,1.99867 -0.33867,0.81067 -0.42667,1.67467 -0.428,2.49733 10e-4,0.748 0.0773,1.46934 0.14133,2.08934 0.20267,1.97733 0.9,4.888 3.39333,7.47333 2.492,2.58933 6.71734,4.79333 13.78267,5.556 1.03067,0.11067 1.88533,0.17467 2.612,0.17467 0.60933,0 1.13067,-0.044 1.59867,-0.16267 0.696,-0.164 1.312,-0.576 1.63066,-1.18533 0.32134,-0.60267 0.392,-1.272 0.39467,-2.05067 0,-0.44 -0.0267,-0.92 -0.0667,-1.45467 l -0.76934,0.0587 -0.76933,0.0587 c 0.04,0.51467 0.064,0.96134 0.064,1.33734 0,0.44533 -0.036,0.792 -0.1,1.02933 -0.10933,0.36 -0.19067,0.45333 -0.42933,0.592 -0.24667,0.132 -0.75333,0.23867 -1.55333,0.236 -0.63467,0 -1.44534,-0.0587 -2.44667,-0.16667 -6.828,-0.74266 -10.65333,-2.82666 -12.83733,-5.092 -2.18134,-2.268 -2.78267,-4.776 -2.96934,-6.564 -0.0653,-0.61866 -0.13333,-1.28666 -0.13333,-1.92933 -0.003,-0.948 0.156,-1.808 0.57333,-2.38 0.20934,-0.29067 0.47867,-0.53067 0.88,-0.724 0.40267,-0.19067 0.94534,-0.32933 1.67867,-0.364 0.54267,-0.024 1.068,-0.0373 1.57733,-0.0373 3.52934,10e-4 6.22934,0.58667 8.30134,1.51467 3.10266,1.396 4.84,3.548 5.89066,5.86 1.04533,2.312 1.36133,4.784 1.504,6.688 l 0.76933,-0.0587"
     style="fill:#ffffff;fill-opacity:1;fill-rule:nonzero;stroke:none"
     id="path474" />
</svg>
