<?xml version="1.0" encoding="UTF-8" standalone="no"?>
<!-- Created with Inkscape (http://www.inkscape.org/) -->

<svg
   xmlns:dc="http://purl.org/dc/elements/1.1/"
   xmlns:cc="http://creativecommons.org/ns#"
   xmlns:rdf="http://www.w3.org/1999/02/22-rdf-syntax-ns#"
   xmlns:svg="http://www.w3.org/2000/svg"
   xmlns="http://www.w3.org/2000/svg"
   xmlns:sodipodi="http://sodipodi.sourceforge.net/DTD/sodipodi-0.dtd"
   xmlns:inkscape="http://www.inkscape.org/namespaces/inkscape"
   width="44mm"
   height="40mm"
   viewBox="0 0 155.90551 141.73228"
   id="svg4687"
   version="1.1"
   inkscape:version="0.91 r13725"
   sodipodi:docname="Meat.svg">
  <defs
     id="defs4689" />
  <sodipodi:namedview
     id="base"
     pagecolor="#ffffff"
     bordercolor="#666666"
     borderopacity="1.0"
     inkscape:pageopacity="0.0"
     inkscape:pageshadow="2"
     inkscape:zoom="0.98994949"
     inkscape:cx="214.4622"
     inkscape:cy="404.47772"
     inkscape:document-units="px"
     inkscape:current-layer="svg4687"
     showgrid="false"
     fit-margin-top="0"
     fit-margin-left="0"
     fit-margin-right="0"
     fit-margin-bottom="0"
     inkscape:window-width="1920"
     inkscape:window-height="1017"
     inkscape:window-x="1912"
     inkscape:window-y="-8"
     inkscape:window-maximized="1" />
  <metadata
     id="metadata4692">
    <rdf:RDF>
      <cc:Work
         rdf:about="">
        <dc:format>image/svg+xml</dc:format>
        <dc:type
           rdf:resource="http://purl.org/dc/dcmitype/StillImage" />
        <dc:title></dc:title>
      </cc:Work>
    </rdf:RDF>
  </metadata>
  <path
     inkscape:connector-curvature="0"
     d="m 20.132431,103.72004 c -3.95573,5.21466 1.62507,19.62266 5.31667,26.40266 6.122399,11.23734 44.546929,15.148 74.372399,8.024 24.93333,-5.956 37.44479,-25.02133 37.30879,-35.28933 -0.072,-5.388003 -2.24,-17.124003 -3.80266,-25.565333 -1.84987,-9.992 -14.5624,-25.63734 -47.1988,-21.73067 -31.3792,3.75467 -38.236,23.35067 -42.77346,28.848 -11.46614,13.896 -15.979199,9.76667 -23.222939,19.310673"
     style="fill:#b21d25;fill-opacity:1;fill-rule:nonzero;stroke:none"
     id="path120" />
  <path
     inkscape:connector-curvature="0"
     d="m 24.671501,111.0187 c 3.4792,9.808 39.216129,13.56667 61.949459,8.93867 29.78654,-6.06267 50.04133,-32.585333 36.38027,-50.081333 -10.24893,-13.128 -37.15,-11.69867 -51.74893,-5.61867 -14.59747,6.08133 -20.50107,20.91467 -26.798,27.328 C 35.86057,100.34004 21.394431,101.7867 24.671501,111.0187"
     style="fill:#de1d26;fill-opacity:1;fill-rule:nonzero;stroke:none"
     id="path122" />
  <path
     sodipodi:nodetypes="cccccccccccccccccccccccccccccccccccccccccccc"
     inkscape:connector-curvature="0"
     d="m 23.145501,111.56137 c 0.412,1.15733 1.1348,2.18267 2.0568,3.088 1.6192,1.584 3.855729,2.856 6.559329,3.95467 4.05574,1.63866 9.18854,2.86 14.88854,3.688 5.69733,0.82666 11.95626,1.252 18.21879,1.252 7.69947,-10e-4 15.4,-0.64267 22.07494,-2 11.93693,-2.432 22.37346,-8.052 29.88226,-15.12667 3.75373,-3.53867 6.77707,-7.446673 8.8756,-11.526673 2.0968,-4.07866 3.26973,-8.34 3.27027,-12.556 0.006,-4.716 -1.49174,-9.36266 -4.6948,-13.45466 -3.10107,-3.97067 -7.53693,-6.644 -12.55107,-8.32667 -5.0208,-1.684 -10.64946,-2.39467 -16.29626,-2.396 -9.01574,0.005 -18.07187,1.80933 -24.8,4.60533 -7.66827,3.19467 -13.00213,8.66934 -17.1688,14.04134 -2.08547,2.68933 -3.88693,5.36133 -5.54373,7.73333 -1.65374,2.372 -3.17134,4.44267 -4.6188,5.91467 -3.60774,3.688 -8.51147,6.10266 -12.68494,8.49333 -2.085859,1.205333 -3.997329,2.402673 -5.487999,3.893333 -0.7432,0.74667 -1.3812,1.576 -1.83586,2.524 -0.45574,0.94534 -0.71414,2.00934 -0.712,3.132 0,0.98534 0.19213,2.00934 0.56773,3.06667 l -0.004,-0.0107 0.004,0.0107 c 1.01702,-0.3622 2.03453,-0.72307 3.052,-1.084 -0.2724,-0.768 -0.38067,-1.41867 -0.3812,-1.98267 0.002,-0.644 0.13493,-1.18666 0.39373,-1.732 0.44747,-0.94533 1.35734,-1.912 2.684399,-2.88933 1.98014,-1.47333 4.81254,-2.92267 7.814,-4.645333 3.00214,-1.728 6.18814,-3.748 8.90107,-6.508 1.7016,-1.736 3.2828,-3.92534 4.9636,-6.328 2.514,-3.604 5.23853,-7.69467 8.64053,-11.41334 3.40373,-3.72133 7.46093,-7.06 12.66147,-9.22666 6.2308,-2.6 14.9808,-4.36134 23.5548,-4.356 5.37333,-10e-4 10.68066,0.68666 15.2656,2.228 4.59106,1.54133 8.43066,3.91733 11.02919,7.24933 2.7692,3.55467 4.00254,7.41867 4.0088,11.46133 5.4e-4,3.61067 -1.0084,7.37334 -2.912,11.076 -2.8516,5.55334 -7.71919,10.945343 -14.01453,15.362673 -6.29373,4.42 -14.00466,7.86667 -22.50893,9.59733 -6.39427,1.30267 -13.912,1.936 -21.42907,1.93467 -9.31626,0.003 -18.64746,-0.97333 -25.84746,-2.784 -3.59787,-0.9 -6.66147,-2.016 -8.8844,-3.26267 -1.11147,-0.62133 -2.009869,-1.27466 -2.665069,-1.92 -0.65786,-0.64666 -1.06613,-1.272 -1.27453,-1.86"
     style="fill:#ffffff;fill-opacity:1;fill-rule:nonzero;stroke:none"
     id="path124" />
  <path
     inkscape:connector-curvature="0"
     d="m 97.18603,83.794697 c 1.5948,4.02134 -2.48947,8.88267 -9.11453,10.85867 -6.624,1.97733 -13.2864,0.31733 -14.8792,-3.70267 -1.5896,-4.02266 2.49226,-8.884 9.11466,-10.86133 6.62654,-1.976 13.2916,-0.31733 14.87907,3.70533"
     style="fill:#ffffff;fill-opacity:1;fill-rule:nonzero;stroke:none"
     id="path126" />
</svg>
