<?xml version="1.0" encoding="UTF-8" standalone="no"?>
<!-- Created with Inkscape (http://www.inkscape.org/) -->

<svg
   xmlns:dc="http://purl.org/dc/elements/1.1/"
   xmlns:cc="http://creativecommons.org/ns#"
   xmlns:rdf="http://www.w3.org/1999/02/22-rdf-syntax-ns#"
   xmlns:svg="http://www.w3.org/2000/svg"
   xmlns="http://www.w3.org/2000/svg"
   xmlns:sodipodi="http://sodipodi.sourceforge.net/DTD/sodipodi-0.dtd"
   xmlns:inkscape="http://www.inkscape.org/namespaces/inkscape"
   width="44mm"
   height="40mm"
   viewBox="0 0 155.90551 141.73228"
   id="svg5247"
   version="1.1"
   inkscape:version="0.91 r13725"
   sodipodi:docname="Pasta (NOT FINAL).svg">
  <defs
     id="defs5249" />
  <sodipodi:namedview
     id="base"
     pagecolor="#ffffff"
     bordercolor="#666666"
     borderopacity="1.0"
     inkscape:pageopacity="0.0"
     inkscape:pageshadow="2"
     inkscape:zoom="3.959798"
     inkscape:cx="174.72259"
     inkscape:cy="181.82586"
     inkscape:document-units="px"
     inkscape:current-layer="svg5247"
     showgrid="false"
     fit-margin-top="0"
     fit-margin-left="0"
     fit-margin-right="0"
     fit-margin-bottom="0"
     inkscape:window-width="1920"
     inkscape:window-height="1017"
     inkscape:window-x="1912"
     inkscape:window-y="-8"
     inkscape:window-maximized="1" />
  <metadata
     id="metadata5252">
    <rdf:RDF>
      <cc:Work
         rdf:about="">
        <dc:format>image/svg+xml</dc:format>
        <dc:type
           rdf:resource="http://purl.org/dc/dcmitype/StillImage" />
        <dc:title></dc:title>
      </cc:Work>
    </rdf:RDF>
  </metadata>
  <path
     inkscape:connector-curvature="0"
     d="m 12.533068,65.045342 c 8.96266,-8.30133 48.41466,-35.34266 51.04666,-42.06133 -1.62666,-3.27466 -0.46533,-6.004 2.41734,-8.42266 1.704,-1.42934 14.542657,-12.2000018 16.238657,-13.62400193 2.06534,-1.73066696 5.05067,0.96533313 2.56134,3.05333313 -2.48667,2.088 -11.083997,9.2986688 -11.083997,9.2986688 l 2.27733,2.71466 c 0,0 9.386667,-7.8719958 11.198667,-9.3933288 2.205329,-1.850667 4.903996,1.281333 2.654663,3.168 -2.034663,1.7053288 -11.23733,9.4239988 -11.23733,9.4239988 l 2.371997,2.832 11.011999,-9.23867 c 1.897333,-1.592 4.362667,1.34934 2.578667,2.84534 -1.696,1.42266 -12.435996,10.18133 -15.402663,12.38133 -2.26533,1.68 -5.884,4.28533 -10.21067,1.62667 -6.30266,1.34533 -43.42533,38.14133 -50.196,42.70666 -6.768,4.56533 -12.5693303,-1.43333 -6.22666,-7.31067"
     style="fill:#100f0d;fill-opacity:1;fill-rule:nonzero;stroke:none"
     id="path328" />
  <path
     inkscape:connector-curvature="0"
     id="path98-6"
     style="fill:#aad91b;fill-opacity:1;fill-rule:nonzero;stroke:none"
     d="m 146.04142,86.690952 c -5.12533,31.219998 -32.23332,55.041328 -64.905325,55.041328 -32.619997,0 -59.693337,-23.744 -64.879997,-54.893328" />
  <path
     inkscape:connector-curvature="0"
     id="path100-2"
     style="fill:#619d30;fill-opacity:1;fill-rule:nonzero;stroke:none"
     d="m 146.10409,85.134952 c 0,13.948 -29.08933,25.261328 -64.967995,25.261328 -35.879997,0 -64.965337,-11.313328 -64.965337,-25.261328 0,-13.95466 29.08534,-25.268 64.965337,-25.268 35.878665,0 64.967995,11.31334 64.967995,25.268" />
  <path
     inkscape:connector-curvature="0"
     id="path102-5"
     style="fill:#ffffff;fill-opacity:1;fill-rule:nonzero;stroke:none"
     d="m 130.00009,85.145622 c 0,10.65066 -21.87333,19.289328 -48.862665,19.289328 -26.983997,0 -48.861327,-8.638668 -48.861327,-19.289328 0,-10.67333 21.87733,-19.31467 48.861327,-19.31467 26.989335,0 48.862665,8.64134 48.862665,19.31467" />
</svg>
