<?xml version="1.0" encoding="UTF-8" standalone="no"?>
<!-- Created with Inkscape (http://www.inkscape.org/) -->

<svg
   xmlns:dc="http://purl.org/dc/elements/1.1/"
   xmlns:cc="http://creativecommons.org/ns#"
   xmlns:rdf="http://www.w3.org/1999/02/22-rdf-syntax-ns#"
   xmlns:svg="http://www.w3.org/2000/svg"
   xmlns="http://www.w3.org/2000/svg"
   xmlns:sodipodi="http://sodipodi.sourceforge.net/DTD/sodipodi-0.dtd"
   xmlns:inkscape="http://www.inkscape.org/namespaces/inkscape"
   width="44mm"
   height="40mm"
   viewBox="0 0 155.90551 141.73228"
   id="svg5247"
   version="1.1"
   inkscape:version="0.91 r13725"
   sodipodi:docname="Pasta.svg">
  <defs
     id="defs5249">
    <pattern
       y="0"
       x="0"
       height="6"
       width="6"
       patternUnits="userSpaceOnUse"
       id="EMFhbasepattern" />
    <pattern
       y="0"
       x="0"
       height="6"
       width="6"
       patternUnits="userSpaceOnUse"
       id="EMFhbasepattern-2" />
  </defs>
  <sodipodi:namedview
     id="base"
     pagecolor="#ffffff"
     bordercolor="#666666"
     borderopacity="1.0"
     inkscape:pageopacity="0.0"
     inkscape:pageshadow="2"
     inkscape:zoom="3.959798"
     inkscape:cx="120.36935"
     inkscape:cy="86.119931"
     inkscape:document-units="px"
     inkscape:current-layer="svg5247"
     showgrid="false"
     fit-margin-top="0"
     fit-margin-left="0"
     fit-margin-right="0"
     fit-margin-bottom="0"
     inkscape:window-width="1920"
     inkscape:window-height="1017"
     inkscape:window-x="1912"
     inkscape:window-y="-8"
     inkscape:window-maximized="1" />
  <metadata
     id="metadata5252">
    <rdf:RDF>
      <cc:Work
         rdf:about="">
        <dc:format>image/svg+xml</dc:format>
        <dc:type
           rdf:resource="http://purl.org/dc/dcmitype/StillImage" />
        <dc:title />
      </cc:Work>
    </rdf:RDF>
  </metadata>
  <path
     inkscape:connector-curvature="0"
     d="m 12.533068,65.045342 c 8.96266,-8.30133 48.41466,-35.34266 51.04666,-42.06133 -1.62666,-3.27466 -0.46533,-6.004 2.41734,-8.42266 1.704,-1.42934 14.542657,-12.2000018 16.238657,-13.62400193 2.06534,-1.73066696 5.05067,0.96533313 2.56134,3.05333313 -2.48667,2.088 -11.083997,9.2986688 -11.083997,9.2986688 l 2.27733,2.71466 c 0,0 9.386667,-7.8719958 11.198667,-9.3933288 2.205329,-1.850667 4.903996,1.281333 2.654663,3.168 -2.034663,1.7053288 -11.23733,9.4239988 -11.23733,9.4239988 l 2.371997,2.832 11.011999,-9.23867 c 1.897333,-1.592 4.362667,1.34934 2.578667,2.84534 -1.696,1.42266 -12.435996,10.18133 -15.402663,12.38133 -2.26533,1.68 -5.884,4.28533 -10.21067,1.62667 -6.30266,1.34533 -43.42533,38.14133 -50.196,42.70666 -6.768,4.56533 -12.5693303,-1.43333 -6.22666,-7.31067"
     style="fill:#100f0d;fill-opacity:1;fill-rule:nonzero;stroke:none"
     id="path328" />
  <path
     inkscape:connector-curvature="0"
     id="path98-6"
     style="fill:#aad91b;fill-opacity:1;fill-rule:nonzero;stroke:none"
     d="m 146.04142,86.690952 c -5.12533,31.219998 -32.23332,55.041328 -64.905325,55.041328 -32.619997,0 -59.693337,-23.744 -64.879997,-54.893328" />
  <path
     inkscape:connector-curvature="0"
     id="path100-2"
     style="fill:#619d30;fill-opacity:1;fill-rule:nonzero;stroke:none"
     d="m 146.10409,85.134952 c 0,13.948 -29.08933,25.261328 -64.967995,25.261328 -35.879997,0 -64.965337,-11.313328 -64.965337,-25.261328 0,-13.95466 29.08534,-25.268 64.965337,-25.268 35.878665,0 64.967995,11.31334 64.967995,25.268" />
  <path
     inkscape:connector-curvature="0"
     id="path102-5"
     style="fill:#ffffff;fill-opacity:1;fill-rule:nonzero;stroke:none"
     d="m 130.00009,85.145622 c 0,10.65066 -21.87333,19.289328 -48.862665,19.289328 -26.983997,0 -48.861327,-8.638668 -48.861327,-19.289328 0,-10.67333 21.87733,-19.31467 48.861327,-19.31467 26.989335,0 48.862665,8.64134 48.862665,19.31467" />
  <rect
     style="fill:#ffffff;fill-opacity:1"
     id="rect3363"
     width="22.856211"
     height="17.85915"
     x="51.43919"
     y="-59.615841"
     transform="matrix(0.64541468,0.76383237,-0.76643577,0.64232095,0,0)" />
  <path
     inkscape:connector-curvature="0"
     id="path3349"
     d="m 68.038619,13.555153 c -1.17886,-2.16711 0.886113,-4.1912175 2.743904,-2.87033 3.975261,4.580276 7.656795,9.399886 11.549341,13.998596 5.691682,7.522991 3.036646,10.866703 -3.580416,17.38054 -4.201927,5.279642 6.399141,10.375524 1.936546,12.935573 -3.233135,1.069936 -10.140018,-11.188696 -4.155168,-16.259093 10.97715,-8.376415 0.767038,-11.532997 -8.494207,-25.185286 z"
     style="fill:#f1a041;fill-opacity:1;fill-rule:nonzero;stroke:none"
     sodipodi:nodetypes="ccccccc" />
  <path
     inkscape:connector-curvature="0"
     id="path3351"
     d="m 72.517049,9.8260518 c -1.582517,-1.6428385 0.968793,-4.2096985 2.826574,-2.8888089 3.892563,4.5987851 7.574102,9.4183451 11.466718,14.0171531 1.75762,2.037756 -1.620507,4.789323 -3.130066,2.696235 C 79.134061,18.069415 76.815227,15.462643 72.517049,9.8260518 Z"
     style="fill:#f1a041;fill-opacity:1;fill-rule:nonzero;stroke:none" />
  <path
     inkscape:connector-curvature="0"
     id="path3353"
     d="m 76.963022,6.2395773 c -1.683675,-1.7070327 0.886094,-4.1912039 2.743894,-2.8703217 3.892612,4.5987689 7.638331,9.3171494 11.466756,14.0171164 1.757511,2.03778 -1.638965,4.706753 -3.148545,2.61356 C 83.561554,14.40024 81.160043,11.811994 76.963022,6.2395773 Z"
     style="fill:#f1a041;fill-opacity:1;fill-rule:nonzero;stroke:none" />
  <path
     style="fill:#ffffff;fill-opacity:1;fill-rule:nonzero;stroke:none"
     d="m 85.912109,57.476562 c -9.997396,-0.66705 -17.729603,3.204855 -24.175781,6.978516 -6.446177,3.773661 -10.936844,8.002409 -15.756692,7.45034 -1.089101,-0.125844 -1.895595,1.070066 -0.954345,1.632227 1.895528,1.135775 3.484064,1.071234 5.429787,0.892043 1.945723,-0.179192 3.867893,-0.879441 5.861328,-1.81836 3.986871,-1.877838 8.624038,-3.725596 13.911376,-5.857034 10.574677,-4.262878 23.901249,-5.899583 47.098588,9.464208 1.06908,0.704696 2.95275,-1.752182 1.97246,-2.575924 C 105.86051,62.42335 95.000619,58.082969 85.912109,57.476562 Z"
     id="path4244"
     inkscape:connector-curvature="0"
     sodipodi:nodetypes="ssccsssccs" />
  <path
     inkscape:connector-curvature="0"
     id="path4170"
     d="M 118.64702,74.424611 C 75.989065,38.810828 60.766184,74.008928 45.16903,72.222418 c 13.771944,8.251967 26.700104,-28.779189 73.47799,2.202193 z"
     style="fill:#f1a041;fill-opacity:1;fill-rule:nonzero;stroke:none"
     sodipodi:nodetypes="ccc" />
  <path
     inkscape:connector-curvature="0"
     id="path4172"
     d="M 115.85816,76.276415 C 73.059356,51.344133 65.909966,81.665281 43.509747,76.476009 62.42547,78.602807 75.483105,45.427689 115.85816,76.276415 Z"
     style="fill:#f1a041;fill-opacity:1;fill-rule:nonzero;stroke:none"
     sodipodi:nodetypes="ccc" />
  <path
     inkscape:connector-curvature="0"
     id="path4174"
     d="m 95.901199,82.930051 c 0.466185,-5.903553 5.302491,-7.40131 6.049171,-8.052389 -3.962417,-0.633439 -7.963671,3.26069 -7.209886,7.963104"
     style="fill:#f1a041;fill-opacity:1;fill-rule:nonzero;stroke:none"
     sodipodi:nodetypes="ccc" />
  <path
     inkscape:connector-curvature="0"
     id="path4176"
     d="M 69.311496,78.262519 C 68.896676,81.580208 103.82427,92.29926 110.79326,80.304243 98.514666,89.151601 70.472883,77.922229 69.311496,78.262519 Z"
     style="fill:#f1a041;fill-opacity:1;fill-rule:nonzero;stroke:none" />
  <path
     inkscape:connector-curvature="0"
     id="path4178"
     d="m 66.075893,80.899634 c 1.742248,4.168519 34.429807,16.078462 46.625537,1.531294 -21.736504,11.739915 -36.255126,0.08509 -46.625537,-1.531294 z"
     style="fill:#f1a041;fill-opacity:1;fill-rule:nonzero;stroke:none" />
  <path
     inkscape:connector-curvature="0"
     id="path4180"
     d="M 41.601616,78.858022 C 59.85358,94.000696 75.227361,57.082424 113.35509,78.060247 75.112028,52.364983 67.652214,85.663656 41.601616,78.858022 Z"
     style="fill:#f1a041;fill-opacity:1;fill-rule:nonzero;stroke:none"
     sodipodi:nodetypes="ccc" />
  <path
     inkscape:connector-curvature="0"
     id="path4182"
     d="m 82.322963,80.895927 c -0.286639,-4.379045 1.495413,-7.59244 7.411636,-7.926604 -4.559682,2.539887 -4.827611,2.115641 -6.116993,8.283747"
     style="fill:#f1a041;fill-opacity:1;fill-rule:nonzero;stroke:none"
     sodipodi:nodetypes="ccc" />
  <path
     inkscape:connector-curvature="0"
     id="path4184"
     d="m 88.667054,81.981955 c 0.02411,-4.53238 1.465713,-9.135458 8.019883,-8.114595 -4.645999,0.255215 -5.908242,4.890295 -6.903812,8.293166"
     style="fill:#f1a041;fill-opacity:1;fill-rule:nonzero;stroke:none"
     sodipodi:nodetypes="ccc" />
  <path
     inkscape:connector-curvature="0"
     id="path4186"
     d="M 34.355066,80.523505 C 35.433597,98.303406 61.101688,99.798859 62.34615,101.75551 47.744566,101.16 28.132796,93.539498 34.355066,80.523505 Z"
     style="fill:#f1a041;fill-opacity:1;fill-rule:nonzero;stroke:none"
     sodipodi:nodetypes="ccc" />
  <path
     inkscape:connector-curvature="0"
     id="path4188"
     d="m 37.421073,80.734842 c 4.447664,7.48097 2.474783,9.287254 24.809745,19.012101 C 46.961876,96.753485 34.102528,89.242029 37.421073,80.734842 Z"
     style="fill:#f1a041;fill-opacity:1;fill-rule:nonzero;stroke:none"
     sodipodi:nodetypes="ccc" />
  <path
     inkscape:connector-curvature="0"
     id="path4190"
     d="M 86.401896,99.955612 C 107.70536,94.162809 116.57467,90.159077 118.79328,76.607633 128.85735,90.919368 95.610914,101.40183 86.401896,99.955612 Z"
     style="fill:#f1a041;fill-opacity:1;fill-rule:nonzero;stroke:none"
     sodipodi:nodetypes="ccc" />
  <path
     inkscape:connector-curvature="0"
     id="path4192"
     d="M 87.231541,103.18835 C 100.58866,98.509393 130.0763,96.092687 122.0544,76.372194 139.74024,95.244644 97.933913,104.03906 87.231541,103.18835 Z"
     style="fill:#f1a041;fill-opacity:1;fill-rule:nonzero;stroke:none"
     sodipodi:nodetypes="ccc" />
  <path
     inkscape:connector-curvature="0"
     id="path4194"
     d="m 62.176578,82.856286 c 6.720098,5.019236 35.591411,21.182774 52.018212,1.95665 -21.072801,13.951675 -37.001809,2.63723 -52.018212,-1.95665 z"
     style="fill:#f1a041;fill-opacity:1;fill-rule:nonzero;stroke:none" />
  <path
     inkscape:connector-curvature="0"
     id="path4196"
     d="m 73.995702,90.127819 c -3.050319,5.316594 -6.611345,4.326023 -8.129989,4.864244 2.820783,1.020749 6.892631,1.249999 9.379989,-4.194601"
     style="fill:#f1a041;fill-opacity:1;fill-rule:nonzero;stroke:none"
     sodipodi:nodetypes="ccc" />
  <path
     inkscape:connector-curvature="0"
     id="path4198"
     d="m 85.047729,93.798552 c -2.232142,3.758194 -3.846791,7.155148 -10.886491,5.776349 5.558598,-1.19101 7.210384,-2.10246 9.502563,-6.178134"
     style="fill:#f1a041;fill-opacity:1;fill-rule:nonzero;stroke:none"
     sodipodi:nodetypes="ccc" />
  <path
     inkscape:connector-curvature="0"
     id="path4200"
     d="m 80.17259,92.337185 c -2.244391,4.912986 -5.385568,7.533351 -11.441844,4.811058 4.562921,0.93579 7.926521,-1.833546 9.923986,-5.257486"
     style="fill:#f1a041;fill-opacity:1;fill-rule:nonzero;stroke:none"
     sodipodi:nodetypes="ccc" />
  <path
     inkscape:connector-curvature="0"
     id="path4202"
     d="M 62.093612,85.323368 C 55.954265,93.74548 71.883277,101.57198 84.49383,103.27342 60.268399,104.20921 51.391342,88.385953 62.093612,85.323368 Z"
     style="fill:#f1a041;fill-opacity:1;fill-rule:nonzero;stroke:none" />
  <path
     inkscape:connector-curvature="0"
     id="path4204"
     d="m 54.543986,93.490265 c -0.165917,-5.359527 2.405848,-6.125173 3.982166,-7.826609 -5.724415,-1.276078 -5.724415,6.635604 -3.982166,7.826609 z"
     style="fill:#f1a041;fill-opacity:1;fill-rule:nonzero;stroke:none" />
</svg>
