<?xml version="1.0" encoding="UTF-8" standalone="no"?>
<!-- Created with Inkscape (http://www.inkscape.org/) -->

<svg
   xmlns:dc="http://purl.org/dc/elements/1.1/"
   xmlns:cc="http://creativecommons.org/ns#"
   xmlns:rdf="http://www.w3.org/1999/02/22-rdf-syntax-ns#"
   xmlns:svg="http://www.w3.org/2000/svg"
   xmlns="http://www.w3.org/2000/svg"
   xmlns:sodipodi="http://sodipodi.sourceforge.net/DTD/sodipodi-0.dtd"
   xmlns:inkscape="http://www.inkscape.org/namespaces/inkscape"
   width="44mm"
   height="40mm"
   viewBox="0 0 155.9055 141.73229"
   id="svg4771"
   version="1.1"
   inkscape:version="0.91 r13725"
   sodipodi:docname="Pizza.svg">
  <defs
     id="defs4773" />
  <sodipodi:namedview
     id="base"
     pagecolor="#ffffff"
     bordercolor="#666666"
     borderopacity="1.0"
     inkscape:pageopacity="0.0"
     inkscape:pageshadow="2"
     inkscape:zoom="2.8"
     inkscape:cx="97.463486"
     inkscape:cy="22.982056"
     inkscape:document-units="px"
     inkscape:current-layer="svg4771"
     showgrid="false"
     fit-margin-top="0"
     fit-margin-left="0"
     fit-margin-right="0"
     fit-margin-bottom="0"
     inkscape:window-width="1920"
     inkscape:window-height="1017"
     inkscape:window-x="1912"
     inkscape:window-y="-8"
     inkscape:window-maximized="1" />
  <metadata
     id="metadata4776">
    <rdf:RDF>
      <cc:Work
         rdf:about="">
        <dc:format>image/svg+xml</dc:format>
        <dc:type
           rdf:resource="http://purl.org/dc/dcmitype/StillImage" />
        <dc:title></dc:title>
      </cc:Work>
    </rdf:RDF>
  </metadata>
  <path
     inkscape:connector-curvature="0"
     d="m 46.417349,141.73228 c -17.3813,-4.28533 -30.7293,-13.24133 -35.6906,-24.268 l 58.856,-9.54133 -23.1654,33.80933"
     style="fill:#ab4929;fill-opacity:1;fill-rule:nonzero;stroke:none"
     id="path164" />
  <path
     inkscape:connector-curvature="0"
     d="m 61.049349,133.99362 c 7.1467,1.76133 14.9707,2.73333 23.176,2.73333 33.660001,0 60.953401,-16.364 60.953401,-36.53733 0,-20.183995 -27.2934,-36.542665 -60.953401,-36.542665 -33.6706,0 -60.9613,16.35867 -60.9613,36.542665 0,3.3 0.732,6.49866 2.1027,9.53866 l 58.8573,-9.544 -23.1747,33.80934"
     style="fill:#ab4929;fill-opacity:1;fill-rule:nonzero;stroke:none"
     id="path166" />
  <path
     inkscape:connector-curvature="0"
     d="m 49.469349,137.25095 c -15.0733,-3.71733 -26.644,-11.488 -30.948,-21.044 l 51.0587,-8.284 -20.1107,29.328"
     style="fill:#ffffff;fill-opacity:1;fill-rule:nonzero;stroke:none"
     id="path172" />
  <path
     inkscape:connector-curvature="0"
     d="m 64.106749,129.51095 c 6.2026,1.53067 12.9986,2.376 20.1186,2.376 29.202701,0 52.876001,-14.19067 52.876001,-31.69733 0,-17.509335 -23.6733,-31.702665 -52.876001,-31.702665 -29.2066,0 -52.884,14.19333 -52.884,31.702665 0,2.864 0.632,5.63466 1.8174,8.27466 l 51.0653,-8.27733 -20.1173,29.324"
     style="fill:#ffffff;fill-opacity:1;fill-rule:nonzero;stroke:none"
     id="path174" />
  <path
     inkscape:connector-curvature="0"
     d="m 27.034749,114.82295 c 3.5866,7.97067 13.2346,14.44667 25.8,17.54267 l 16.7453,-24.44 -42.5453,6.89733"
     style="fill:#de1d26;fill-opacity:1;fill-rule:nonzero;stroke:none"
     id="path176" />
  <path
     inkscape:connector-curvature="0"
     d="m 41.674749,107.08428 c -0.9907,-2.2 -1.52,-4.50933 -1.52,-6.89466 0,-14.587995 19.7293,-26.419995 44.0706,-26.419995 24.336001,0 44.061401,11.832 44.061401,26.419995 0,14.58533 -19.7254,26.416 -44.061401,26.416 -5.9333,0 -11.5853,-0.70534 -16.7493,-1.97867 l 16.7493,-24.43733 -42.5506,6.89466"
     style="fill:#de1d26;fill-opacity:1;fill-rule:nonzero;stroke:none"
     id="path178" />
  <path
     inkscape:connector-curvature="0"
     d="m 59.741349,95.833625 c 0,2.432 -3.1733,4.399995 -7.0906,4.399995 -3.9134,0 -7.0867,-1.967995 -7.0867,-4.399995 0,-2.43067 3.1733,-4.4 7.0867,-4.4 3.9173,0 7.0906,1.96933 7.0906,4.4"
     style="fill:#ffffff;fill-opacity:1;fill-rule:nonzero;stroke:none"
     id="path180" />
  <path
     inkscape:connector-curvature="0"
     d="m 91.309349,82.634955 c 0,2.42933 -3.1733,4.4 -7.0893,4.4 -3.9147,0 -7.088,-1.97067 -7.088,-4.4 0,-2.43067 3.1733,-4.40133 7.088,-4.40133 3.916,0 7.0893,1.97066 7.0893,4.40133"
     style="fill:#ffffff;fill-opacity:1;fill-rule:nonzero;stroke:none"
     id="path182" />
  <path
     inkscape:connector-curvature="0"
     d="m 122.09605,97.190955 c 0,2.42933 -3.1733,4.399995 -7.0893,4.399995 -3.9147,0 -7.088,-1.970665 -7.088,-4.399995 0,-2.43067 3.1733,-4.40133 7.088,-4.40133 3.916,0 7.0893,1.97066 7.0893,4.40133"
     style="fill:#ffffff;fill-opacity:1;fill-rule:nonzero;stroke:none"
     id="path184" />
  <path
     inkscape:connector-curvature="0"
     d="m 82.774749,94.790955 c 0,1.32533 -1.7307,2.39867 -3.8667,2.39867 -2.1347,0 -3.8667,-1.07334 -3.8667,-2.39867 0,-1.32533 1.732,-2.40133 3.8667,-2.40133 2.136,0 3.8667,1.076 3.8667,2.40133"
     style="fill:#ffffff;fill-opacity:1;fill-rule:nonzero;stroke:none"
     id="path186" />
  <path
     inkscape:connector-curvature="0"
     d="m 54.301349,117.61095 c 0,2.43067 -3.1746,4.4 -7.0906,4.4 -3.9147,0 -7.088,-1.96933 -7.088,-4.4 0,-2.43067 3.1733,-4.39867 7.088,-4.39867 3.916,0 7.0906,1.968 7.0906,4.39867"
     style="fill:#ffffff;fill-opacity:1;fill-rule:nonzero;stroke:none"
     id="path188" />
  <path
     inkscape:connector-curvature="0"
     d="m 69.620049,82.790955 c 0,1.32533 -1.732,2.4 -3.8667,2.4 -2.136,0 -3.868,-1.07467 -3.868,-2.4 0,-1.32533 1.732,-2.40133 3.868,-2.40133 2.1347,0 3.8667,1.076 3.8667,2.40133"
     style="fill:#ffffff;fill-opacity:1;fill-rule:nonzero;stroke:none"
     id="path192" />
  <path
     inkscape:connector-curvature="0"
     d="m 104.36275,89.436285 c 0,1.32534 -1.7307,2.39734 -3.868,2.39734 -2.133401,0 -3.865401,-1.072 -3.865401,-2.39734 0,-1.32533 1.732,-2.40133 3.865401,-2.40133 2.1373,0 3.868,1.076 3.868,2.40133"
     style="fill:#ffffff;fill-opacity:1;fill-rule:nonzero;stroke:none"
     id="path194" />
  <path
     inkscape:connector-curvature="0"
     d="m 116.29475,110.52562 c 0,1.32533 -1.7307,2.39866 -3.868,2.39866 -2.1334,0 -3.8654,-1.07333 -3.8654,-2.39866 0,-1.32534 1.732,-2.40134 3.8654,-2.40134 2.1373,0 3.868,1.076 3.868,2.40134"
     style="fill:#ffffff;fill-opacity:1;fill-rule:nonzero;stroke:none"
     id="path196" />
  <path
     inkscape:connector-curvature="0"
     id="path180-0"
     style="fill:#ffffff;fill-opacity:1;fill-rule:nonzero;stroke:none"
     d="m 98.488949,116.2962 c -1.9999,1.75892 -6.2892,0.77305 -9.5864,-2.201 -3.2937,-2.97103 -4.3462,-6.80355 -2.3462,-8.56245 1.9989,-1.75795 6.2893,-0.77304 9.583,2.19797 3.2971,2.97406 4.348501,6.80754 2.3496,8.56548" />
</svg>
