<?xml version="1.0" encoding="UTF-8" standalone="no"?>
<!-- Created with Inkscape (http://www.inkscape.org/) -->

<svg
   xmlns:dc="http://purl.org/dc/elements/1.1/"
   xmlns:cc="http://creativecommons.org/ns#"
   xmlns:rdf="http://www.w3.org/1999/02/22-rdf-syntax-ns#"
   xmlns:svg="http://www.w3.org/2000/svg"
   xmlns="http://www.w3.org/2000/svg"
   xmlns:sodipodi="http://sodipodi.sourceforge.net/DTD/sodipodi-0.dtd"
   xmlns:inkscape="http://www.inkscape.org/namespaces/inkscape"
   width="44mm"
   height="40mm"
   viewBox="0 0 155.9055 141.73229"
   id="svg4901"
   version="1.1"
   inkscape:version="0.91 r13725"
   sodipodi:docname="Poultry.svg">
  <defs
     id="defs4903" />
  <sodipodi:namedview
     id="base"
     pagecolor="#ffffff"
     bordercolor="#666666"
     borderopacity="1.0"
     inkscape:pageopacity="0.0"
     inkscape:pageshadow="2"
     inkscape:zoom="1.4"
     inkscape:cx="37.132529"
     inkscape:cy="84.993705"
     inkscape:document-units="px"
     inkscape:current-layer="svg4901"
     showgrid="false"
     fit-margin-top="0"
     fit-margin-left="0"
     fit-margin-right="0"
     fit-margin-bottom="0"
     inkscape:window-width="1920"
     inkscape:window-height="1017"
     inkscape:window-x="1912"
     inkscape:window-y="-8"
     inkscape:window-maximized="1" />
  <metadata
     id="metadata4906">
    <rdf:RDF>
      <cc:Work
         rdf:about="">
        <dc:format>image/svg+xml</dc:format>
        <dc:type
           rdf:resource="http://purl.org/dc/dcmitype/StillImage" />
        <dc:title></dc:title>
      </cc:Work>
    </rdf:RDF>
  </metadata>
  <path
     sodipodi:nodetypes="ccscccc"
     inkscape:connector-curvature="0"
     d="m 92.007748,74.404245 c 5.58173,-1.73733 13.520802,-3.45067 16.874392,-4.66267 0.30267,-4.31733 1.42507,-9.36666 6.75414,-9.36666 5.85679,0 9.41146,6.40533 6.39226,10.47733 4.46293,1.96 6.83853,9.06133 1.2604,12.26133 -3.44693,1.98 -7.65266,2.13734 -9.53546,-1.24933 -8.52866,0.53333 -19.356662,7.52667 -24.734392,12.664"
     style="fill:#ee8124;fill-opacity:1;fill-rule:nonzero;stroke:none"
     id="path142" />
  <path
     inkscape:connector-curvature="0"
     d="m 33.292548,108.85757 1.44067,-0.18 c -0.16933,-1.35466 -0.26667,-2.744 -0.26667,-4.14666 5.4e-4,-3.67467 0.66774,-7.427995 2.45734,-10.943995 1.79266,-3.51467 4.7036,-6.82534 9.34946,-9.62667 6.86614,-4.148 15.7088,-5.44 24.1724,-6.01867 4.23014,-0.292 8.3588,-0.41466 12.10667,-0.66666 3.75053,-0.25467 7.11413,-0.624 9.88707,-1.484 l -5.4e-4,0 c 2.73587,-0.852 6.10107,-1.712 9.202532,-2.50934 3.11054,-0.8 5.9324,-1.52533 7.73386,-2.17333 0.5396,-0.196 0.91574,-0.692 0.95574,-1.26533 0.13706,-2.072 0.50573,-4.24534 1.3172,-5.708 0.40373,-0.73467 0.88906,-1.28934 1.5,-1.67467 0.61413,-0.38267 1.38226,-0.62933 2.488,-0.63333 1.79279,0.003 3.28239,0.724 4.35946,1.80933 1.07493,1.08533 1.6844,2.53067 1.67907,3.86133 -0.003,0.892 -0.25147,1.72934 -0.81294,2.49067 -0.26253,0.35333 -0.35,0.81067 -0.23706,1.23733 0.11306,0.42667 0.41626,0.78 0.81986,0.95734 1.012,0.44133 1.94534,1.26666 2.60574,2.28266 0.664,1.01467 1.04373,2.204 1.04106,3.312 -0.001,0.784 -0.18013,1.52534 -0.5692,2.20667 -0.39213,0.68 -1,1.31867 -1.95626,1.86933 l -0.001,0 c -1.3588,0.78534 -2.84107,1.22134 -4.0916,1.21734 -0.7724,-0.001 -1.44853,-0.15734 -2.01306,-0.45867 -0.56454,-0.304 -1.0412,-0.74667 -1.43747,-1.45333 -0.2724,-0.48934 -0.80053,-0.77867 -1.35987,-0.744 -4.61666,0.29866 -9.59532,2.268 -14.160392,4.784 -4.562,2.524 -8.68546,5.60666 -11.48653,8.28 l 5.3e-4,-0.001 c -3.30413,3.16133 -7.17186,8.251995 -11.33853,13.203995 -4.14587,4.94666 -8.60107,9.72666 -12.68173,12.12 -3.4604,2.048 -8.2548,3.38933 -12.90627,3.384 -3.9396,10e-4 -7.748,-0.948 -10.66413,-3.064 -2.91147,-2.124 -5.04374,-5.376 -5.69267,-10.444 l -1.44067,0.18 -1.44053,0.18133 c 0.70253,5.732 3.30467,9.86933 6.87133,12.43467 3.5624,2.57333 7.97707,3.61333 12.36667,3.616 5.19893,-0.007 10.40307,-1.44667 14.38173,-3.78667 4.67654,-2.77333 9.20307,-7.73867 13.42974,-12.75333 4.20573,-5.00934 8.10146,-10.098665 11.12026,-12.970665 l 5.4e-4,0 c 2.57653,-2.46533 6.55626,-5.448 10.884932,-7.83867 4.32493,-2.39866 9.02492,-4.192 12.93692,-4.42666 l -0.0907,-1.44934 -1.2692,0.70534 c 0.64213,1.16133 1.55773,2.048 2.60986,2.60533 1.0516,0.56133 2.21613,0.8 3.3792,0.8 1.89427,-0.004 3.80773,-0.612 5.53853,-1.60267 l -5.3e-4,0 c 1.35213,-0.77333 2.37187,-1.792 3.03013,-2.944 0.66054,-1.15066 0.95534,-2.416 0.95427,-3.65066 -0.003,-1.75334 -0.5724,-3.452 -1.51253,-4.89734 -0.94267,-1.44266 -2.26667,-2.64933 -3.87134,-3.35733 l -0.58333,1.32933 1.16613,0.86534 c 0.94787,-1.27467 1.38694,-2.76534 1.3844,-4.22 -0.005,-2.188 -0.9448,-4.304 -2.51666,-5.90134 -1.5704,-1.596 -3.82614,-2.676 -6.42613,-2.67333 -1.55883,-0.004 -2.92963,0.37997 -4.0343,1.07997 -1.66827,1.052 -2.64387,2.70133 -3.22813,4.40533 -0.5876,1.716 -0.8204,3.548 -0.9396,5.232 l 1.44786,0.10133 -0.49266,-1.36533 c -1.55266,0.56267 -4.37706,1.3 -7.4704,2.09333 -3.101462,0.79734 -6.496792,1.66267 -9.343192,2.54934 l -5.4e-4,0 c -2.34946,0.736 -5.55053,1.116 -9.2172,1.35866 -5.50573,0.37067 -12.06453,0.46 -18.6552,1.284 -6.58946,0.82934 -13.23746,2.388 -18.9276,5.81067 -5.0604,3.04267 -8.40466,6.79067 -10.44,10.79867 -2.03906,4.00533 -2.77346,8.238655 -2.77293,12.259995 0,1.53866 0.1068,3.04666 0.2896,4.50666 l 1.44053,-0.18"
     style="fill:#ffffff;fill-opacity:1;fill-rule:nonzero;stroke:none"
     id="path144" />
  <path
     inkscape:connector-curvature="0"
     d="m 100.45148,72.088245 8.43066,-2.34667 c 0.30267,-4.31733 1.42507,-9.36666 6.75414,-9.36666 5.85679,0 9.41146,6.40533 6.39226,10.47733 4.46293,1.96 6.83853,9.06133 1.2604,12.26133 -3.44693,1.98 -7.65266,2.13734 -9.53546,-1.24933 -1.5052,0.0933 -0.87334,0.10933 -2.50774,0.58533"
     style="fill:#d8d6af;fill-opacity:1;fill-rule:nonzero;stroke:none"
     id="path146" />
  <path
     inkscape:connector-curvature="0"
     d="m 10.636338,109.07491 c 0.70155,-13.723995 11.51461,-40.415995 45.51048,-41.777335 33.99213,-1.36 63.825452,24.96534 66.171852,52.030665 2.0416,23.56933 -37.960922,21.684 -62.139052,20.684 -12.64747,-0.524 -35.09013,-0.37467 -44.42867,-15.8 -7.7630497,-1.53467 -9.7906498,-9.83733 -5.11461,-15.13733"
     style="fill:#d36622;fill-opacity:1;fill-rule:evenodd;stroke:none"
     id="path150" />
  <path
     inkscape:connector-curvature="0"
     d="m 10.636338,109.07491 1.20835,0.0627 c 0.33066,-6.60134 3.14733,-16.506665 9.99586,-24.818665 6.8572,-8.31467 17.67134,-15.13067 34.35467,-15.812 0.8292,-0.0333 1.65627,-0.0493 2.48013,-0.0493 16.14694,-0.003 31.2256,6.30534 42.531872,15.85734 11.31146,9.54933 18.80412,22.322655 19.90572,35.117325 0.0479,0.54933 0.0708,1.08133 0.0708,1.596 -0.0104,3.88 -1.276,6.81733 -3.51667,9.228 -3.35626,3.608 -9.10626,5.94 -16.03385,7.29067 -6.920272,1.36 -14.971332,1.76666 -22.853072,1.76533 -6.53546,0 -12.95733,-0.27733 -18.55106,-0.508 -6.34947,-0.26133 -15.04014,-0.36267 -23.22867,-2.28267 -4.0932,-0.95733 -8.0516,-2.36533 -11.52507,-4.44533 -3.47493,-2.08133 -6.46613,-4.82133 -8.6896,-8.49067 -0.17653,-0.292 -0.46506,-0.49466 -0.8,-0.56 -2.2432,-0.44666 -3.8708,-1.48666 -4.96813,-2.82533 -1.0948297,-1.34133 -1.6593997,-3.00133 -1.6599197,-4.72667 5.2e-4,-1.92266 0.7031197,-3.916 2.1859197,-5.59733 0.18173,-0.20667 0.28693,-0.46533 0.30107,-0.73867 l -1.20835,-0.0627 -0.9072897,-0.8 c -1.8651101,2.11201 -2.7927101,4.68401 -2.7916701,7.19867 -0.001,2.25334 0.7448,4.46934 2.2057301,6.25734 1.4583397,1.78933 3.6322397,3.12933 6.3729097,3.668 l 0.23493,-1.18667 -1.03493,0.62667 c 2.44587,4.04266 5.762,7.06933 9.51667,9.31466 5.636,3.36934 12.2484,5.016 18.6292,5.896 6.3796,0.87467 12.5468,0.976 17.2672,1.172 5.59106,0.23067 12.04786,0.51067 18.65106,0.51067 10.6244,-0.004 21.614532,-0.70933 30.119192,-3.58133 4.25054,-1.44134 7.9032,-3.432 10.53547,-6.24267 2.6348,-2.80133 4.1796,-6.45333 4.16866,-10.88 0,-0.588 -0.026,-1.18933 -0.0791,-1.80533 -1.1865,-13.59734 -9.04996,-26.863995 -20.75569,-36.755995 -11.710532,-9.89067 -27.309462,-16.42667 -44.093332,-16.42934 -0.85626,0 -1.7156,0.0173 -2.57706,0.052 -17.31294,0.67867 -28.90307,7.88934 -36.12654,16.692 -7.23173,8.80667 -10.1728997,19.109335 -10.5437397,26.231995 l 1.2083297,0.0613 -0.9072897,-0.8 0.9072897,0.8"
     style="fill:#ffffff;fill-opacity:1;fill-rule:nonzero;stroke:none"
     id="path152" />
  <path
     inkscape:connector-curvature="0"
     d="m 54.263888,121.48157 c -1.09627,-8.77066 0.672,-19.17866 12.23186,-26.138655 14.45827,-8.70667 36.238532,-5.116 46.484392,-8.31067 5.58067,-1.74133 13.5208,-3.452 16.87333,-4.664 0.30267,-4.316 1.42667,-9.36667 6.75467,-9.36667 5.85733,0 9.41067,6.40534 6.39467,10.476 4.46,1.96267 6.836,9.06 1.26,12.26267 -3.44934,1.98 -7.65467,2.13733 -9.53734,-1.25067 -8.5292,0.53467 -19.35733,7.526665 -24.73493,12.666665 -6.32132,6.032 -15.527052,20.356 -24.284922,25.52133 -10.0084,5.90534 -29.29067,5.992 -31.44173,-11.196"
     style="fill:#ee8124;fill-opacity:1;fill-rule:nonzero;stroke:none"
     id="path154" />
  <path
     inkscape:connector-curvature="0"
     d="m 54.263888,121.48157 1.44066,-0.18 c -0.16866,-1.35333 -0.26666,-2.74133 -0.26666,-4.14266 10e-4,-3.67467 0.66826,-7.428 2.4568,-10.944 1.7932,-3.516 4.7036,-6.826665 9.35,-9.629335 6.86666,-4.14666 15.70933,-5.43866 24.17293,-6.016 4.23013,-0.29333 8.3588,-0.416 12.107202,-0.66666 3.75052,-0.25467 7.11412,-0.624 9.88759,-1.484 l 5.3e-4,0 c 2.73427,-0.85467 6.09893,-1.71467 9.20053,-2.51067 3.1104,-0.8 5.93227,-1.52533 7.73374,-2.17467 0.5396,-0.19466 0.9156,-0.692 0.9556,-1.264 0.136,-2.072 0.50533,-4.244 1.31733,-5.70666 0.404,-0.736 0.88933,-1.29067 1.5,-1.676 0.61467,-0.38267 1.38267,-0.63067 2.488,-0.63334 1.79333,0.001 3.28267,0.724 4.36,1.80934 1.076,1.08533 1.684,2.532 1.68,3.86266 -0.004,0.89067 -0.252,1.72667 -0.812,2.488 -0.26267,0.35334 -0.35067,0.81067 -0.23733,1.236 0.11333,0.42667 0.41466,0.78 0.81866,0.95734 1.012,0.44266 1.94534,1.268 2.60534,2.28533 0.664,1.01467 1.044,2.204 1.04133,3.312 -0.001,0.784 -0.18,1.52533 -0.56933,2.20667 -0.392,0.68 -1,1.32 -1.956,1.87066 l 10e-4,0 c -1.36,0.784 -2.84267,1.22 -4.09333,1.21467 -0.77334,0 -1.44934,-0.156 -2.01467,-0.45733 -0.564,-0.30534 -1.04133,-0.748 -1.43867,-1.45467 -0.272,-0.48933 -0.8,-0.77867 -1.36,-0.744 -4.61586,0.29867 -9.59453,2.26933 -14.1596,4.78533 -4.56199,2.523995 -8.68599,5.606665 -11.48653,8.281335 l 5.4e-4,-0.001 c -3.3036,3.16133 -7.1708,8.24933 -11.338002,13.20133 -4.14639,4.94667 -8.60106,9.72667 -12.68226,12.12 -3.45947,2.048 -8.2532,3.38933 -12.90413,3.384 -3.94014,0.001 -7.74854,-0.948 -10.6652,-3.064 -2.912,-2.12533 -5.0448,-5.37733 -5.69374,-10.44533 l -1.44066,0.18 -1.44054,0.18 c 0.70307,5.73333 3.30467,9.872 6.8724,12.43733 3.5624,2.57333 7.9776,3.61333 12.36774,3.616 5.1984,-0.007 10.402,-1.44667 14.3796,-3.788 4.67653,-2.772 9.20373,-7.736 13.42973,-12.75067 4.206592,-5.00936 8.102852,-10.09736 11.120592,-12.96936 l 5.3e-4,-0.001 c 2.57653,-2.46534 6.55626,-5.448 10.88493,-7.83867 4.32493,-2.398665 9.02493,-4.191995 12.9376,-4.427995 l -0.0907,-1.44933 -1.26933,0.70533 c 0.64133,1.16133 1.55733,2.04933 2.60933,2.60667 1.052,0.56133 2.21734,0.8 3.38134,0.79866 1.89333,-0.004 3.80666,-0.61066 5.53866,-1.6 l 0,0 c 1.352,-0.77466 2.37067,-1.79466 3.02934,-2.94533 0.66,-1.15067 0.95466,-2.416 0.95333,-3.65067 -0.003,-1.75333 -0.572,-3.452 -1.512,-4.89733 -0.94267,-1.444 -2.26533,-2.65067 -3.86933,-3.35867 l -0.584,1.32934 1.16533,0.86533 c 0.948,-1.27467 1.38667,-2.76267 1.384,-4.21733 -0.005,-2.188 -0.94533,-4.30534 -2.51733,-5.90134 -1.57067,-1.59733 -3.82667,-2.67733 -6.42667,-2.67466 -1.55867,-0.004 -2.92933,0.38 -4.03467,1.08 -1.66786,1.052 -2.64333,2.70133 -3.22773,4.40533 -0.5876,1.716 -0.82093,3.548 -0.94013,5.232 l 1.44786,0.10133 -0.49373,-1.36533 c -1.55053,0.56267 -4.37493,1.29867 -7.46867,2.092 -3.1016,0.79733 -6.49746,1.66267 -9.34386,2.552 l 5.3e-4,-10e-4 c -2.35,0.73733 -5.55053,1.11733 -9.21719,1.36 -5.506132,0.37067 -12.065062,0.45867 -18.655202,1.28267 -6.5896,0.82933 -13.238,2.388 -18.92853,5.81066 -5.06107,3.04267 -8.4048,6.791995 -10.44013,10.798665 -2.03907,4.00667 -2.77294,8.24 -2.7724,12.26133 0,1.536 0.1068,3.044 0.28906,4.50267 l 1.44054,-0.18"
     style="fill:#ffffff;fill-opacity:1;fill-rule:nonzero;stroke:none"
     id="path156" />
  <path
     inkscape:connector-curvature="0"
     d="m 128.86921,82.658915 0.98426,-0.29067 c 0.30267,-4.316 1.42667,-9.36667 6.75467,-9.36667 5.85733,0 9.41067,6.40534 6.39467,10.476 4.46,1.96267 6.836,9.06 1.26,12.26267 -3.44934,1.98 -7.65467,2.13733 -9.53734,-1.25067 -1.50533,0.0907 -6.54746,1.848 -8.18186,2.32267"
     style="fill:#d8d6af;fill-opacity:1;fill-rule:nonzero;stroke:none"
     id="path158" />
  <path
     inkscape:connector-curvature="0"
     d="m 61.064418,117.50024 c 1.33333,-12.868 8.44853,-18.667995 27.7412,-20.687995 -15.71987,6.699995 -20.3568,10.343995 -27.7412,20.687995"
     style="fill:#ffffff;fill-opacity:1;fill-rule:nonzero;stroke:none"
     id="path162" />
</svg>
