<?xml version="1.0" encoding="UTF-8" standalone="no"?>
<!-- Created with Inkscape (http://www.inkscape.org/) -->

<svg
   xmlns:dc="http://purl.org/dc/elements/1.1/"
   xmlns:cc="http://creativecommons.org/ns#"
   xmlns:rdf="http://www.w3.org/1999/02/22-rdf-syntax-ns#"
   xmlns:svg="http://www.w3.org/2000/svg"
   xmlns="http://www.w3.org/2000/svg"
   xmlns:sodipodi="http://sodipodi.sourceforge.net/DTD/sodipodi-0.dtd"
   xmlns:inkscape="http://www.inkscape.org/namespaces/inkscape"
   width="44mm"
   height="40mm"
   viewBox="0 0 155.90551 141.73228"
   id="svg4722"
   version="1.1"
   inkscape:version="0.91 r13725"
   sodipodi:docname="Thai.svg">
  <defs
     id="defs4724" />
  <sodipodi:namedview
     id="base"
     pagecolor="#ffffff"
     bordercolor="#666666"
     borderopacity="1.0"
     inkscape:pageopacity="0.0"
     inkscape:pageshadow="2"
     inkscape:zoom="1.979899"
     inkscape:cx="132.13348"
     inkscape:cy="110.28112"
     inkscape:document-units="px"
     inkscape:current-layer="svg4722"
     showgrid="false"
     fit-margin-top="0"
     fit-margin-left="0"
     fit-margin-right="0"
     fit-margin-bottom="0"
     inkscape:window-width="1920"
     inkscape:window-height="1017"
     inkscape:window-x="1912"
     inkscape:window-y="-8"
     inkscape:window-maximized="1" />
  <metadata
     id="metadata4727">
    <rdf:RDF>
      <cc:Work
         rdf:about="">
        <dc:format>image/svg+xml</dc:format>
        <dc:type
           rdf:resource="http://purl.org/dc/dcmitype/StillImage" />
        <dc:title></dc:title>
      </cc:Work>
    </rdf:RDF>
  </metadata>
  <path
     inkscape:connector-curvature="0"
     d="m 135.87053,86.690954 c -5.12533,31.219996 -32.23333,55.041326 -64.905333,55.041326 -32.62,0 -59.69333,-23.744 -64.88,-54.893326"
     style="fill:#aad91b;fill-opacity:1;fill-rule:nonzero;stroke:none"
     id="path98" />
  <path
     inkscape:connector-curvature="0"
     d="m 135.9332,85.134954 c 0,13.948 -29.08933,25.261326 -64.968003,25.261326 -35.88,0 -64.96533,-11.313326 -64.96533,-25.261326 0,-13.95467 29.08533,-25.268 64.96533,-25.268 35.878673,0 64.968003,11.31333 64.968003,25.268"
     style="fill:#619d30;fill-opacity:1;fill-rule:nonzero;stroke:none"
     id="path100" />
  <path
     inkscape:connector-curvature="0"
     d="m 119.8292,85.145624 c 0,10.65066 -21.873333,19.289326 -48.862673,19.289326 -26.984,0 -48.86133,-8.638666 -48.86133,-19.289326 0,-10.67334 21.87733,-19.31467 48.86133,-19.31467 26.98934,0 48.862673,8.64133 48.862673,19.31467"
     style="fill:#ffffff;fill-opacity:1;fill-rule:nonzero;stroke:none"
     id="path102" />
  <path
     sodipodi:nodetypes="cccccccccsc"
     inkscape:connector-curvature="0"
     d="m 83.594527,97.766954 65.296003,-63.29333 c 1.32267,-1.28267 1.35734,-3.388 0.0773,-4.71067 l -2.64,-2.73067 c -0.62667,-0.64933 -1.49734,-1.01866 -2.4,-1.016 -0.90267,0 -1.772,0.37067 -2.39867,1.02134 l -63.078633,65.576 c -1.23466,1.28266 -1.24666,3.29466 -0.028,4.59333 l 0.42134,0.44933 c 0.61066,0.648 1.46133,1.028 2.352,1.04933 0.89066,0.0213 1.75866,-0.31866 2.39866,-0.93866"
     style="fill:#ffffff;fill-opacity:1;fill-rule:nonzero;stroke:none"
     id="path106" />
  <path
     sodipodi:nodetypes="ccccccccccc"
     inkscape:connector-curvature="0"
     d="m 80.333197,93.000284 47.470673,-77.56533 c 0.96133,-1.56933 0.46933,-3.616 -1.09867,-4.58 l -3.23467,-1.9866691 c -0.76933,-0.47333 -1.704,-0.61333 -2.57866,-0.388 -0.87467,0.22667 -1.624,0.80267 -2.068,1.5879991 l -44.756003,79.22267 c -0.876,1.55067 -0.38534,3.50533 1.12,4.45733 l 0.52,0.32934 c 0.75333,0.476 1.67066,0.63066 2.53866,0.42933 0.86667,-0.20267 1.62267,-0.74667 2.08667,-1.50667"
     style="fill:#ffffff;fill-opacity:1;fill-rule:nonzero;stroke:none"
     id="path110" />
  <path
     sodipodi:nodetypes="ccccccccccc"
     inkscape:connector-curvature="0"
     d="m 82.202527,96.330954 65.296003,-63.29467 c 0.52934,-0.512 0.54267,-1.35333 0.0307,-1.884 l -2.63867,-2.72933 c -0.25066,-0.26 -0.59866,-0.408 -0.96,-0.40667 -0.36133,0 -0.70933,0.148 -0.96,0.408 l -63.078693,65.576 c -0.49067,0.51067 -0.496,1.32 -0.012,1.83733 l 0.42266,0.44934 c 0.244,0.25866 0.584,0.41066 0.94,0.41866 0.356,0.009 0.704,-0.12666 0.96,-0.37466"
     style="fill:#100f0d;fill-opacity:1;fill-rule:nonzero;stroke:none"
     id="path114" />
  <path
     sodipodi:nodetypes="ccccccccccc"
     inkscape:connector-curvature="0"
     d="M 78.627867,91.956284 126.0972,14.390954 c 0.38533,-0.628 0.188,-1.44667 -0.43867,-1.832 l -3.23466,-1.98667 c -0.308,-0.18933 -0.68134,-0.24533 -1.032,-0.15466 -0.34934,0.0907 -0.64934,0.32 -0.82667,0.63466 l -44.756003,79.22267 c -0.35067,0.62 -0.15467,1.40267 0.448,1.78267 l 0.52,0.32933 c 0.30133,0.19067 0.668,0.252 1.016,0.172 0.34667,-0.0813 0.648,-0.29867 0.83467,-0.60267"
     style="fill:#100f0d;fill-opacity:1;fill-rule:nonzero;stroke:none"
     id="path118" />
</svg>
