<?xml version="1.0" encoding="UTF-8" standalone="no"?>
<!-- Created with Inkscape (http://www.inkscape.org/) -->

<svg
   xmlns:dc="http://purl.org/dc/elements/1.1/"
   xmlns:cc="http://creativecommons.org/ns#"
   xmlns:rdf="http://www.w3.org/1999/02/22-rdf-syntax-ns#"
   xmlns:svg="http://www.w3.org/2000/svg"
   xmlns="http://www.w3.org/2000/svg"
   xmlns:sodipodi="http://sodipodi.sourceforge.net/DTD/sodipodi-0.dtd"
   xmlns:inkscape="http://www.inkscape.org/namespaces/inkscape"
   width="44mm"
   height="40mm"
   viewBox="0 0 155.90551 141.7323"
   id="svg5209"
   version="1.1"
   inkscape:version="0.91 r13725"
   sodipodi:docname="Unknown.svg">
  <defs
     id="defs5211" />
  <sodipodi:namedview
     id="base"
     pagecolor="#ffffff"
     bordercolor="#666666"
     borderopacity="1.0"
     inkscape:pageopacity="0.0"
     inkscape:pageshadow="2"
     inkscape:zoom="0.7"
     inkscape:cx="67.064567"
     inkscape:cy="-100.45392"
     inkscape:document-units="px"
     inkscape:current-layer="svg5209"
     showgrid="false"
     inkscape:window-width="1920"
     inkscape:window-height="1017"
     inkscape:window-x="1912"
     inkscape:window-y="-8"
     inkscape:window-maximized="1"
     fit-margin-top="0"
     fit-margin-left="0"
     fit-margin-right="0"
     fit-margin-bottom="0" />
  <metadata
     id="metadata5214">
    <rdf:RDF>
      <cc:Work
         rdf:about="">
        <dc:format>image/svg+xml</dc:format>
        <dc:type
           rdf:resource="http://purl.org/dc/dcmitype/StillImage" />
        <dc:title></dc:title>
      </cc:Work>
    </rdf:RDF>
  </metadata>
  <path
     inkscape:connector-curvature="0"
     d="m 18.306755,112.1723 c 0,-16.325366 26.704,-29.562696 59.644,-29.562696 32.943995,0 59.647995,13.23733 59.647995,29.562696 0,16.3266 -26.704,29.56 -59.647995,29.56 -32.94,0 -59.644,-13.2334 -59.644,-29.56"
     style="fill:#616a6a;fill-opacity:1;fill-rule:nonzero;stroke:none"
     id="path476" />
  <path
     inkscape:connector-curvature="0"
     d="m 9.6467546,105.0069 c 0,-17.621306 30.5800004,-31.901296 68.3040004,-31.901296 37.722655,0 68.307995,14.27999 68.307995,31.901296 0,17.6187 -30.58534,31.9 -68.307995,31.9 -37.724,0 -68.3040004,-14.2813 -68.3040004,-31.9"
     style="fill:#8f9894;fill-opacity:1;fill-rule:nonzero;stroke:none"
     id="path478" />
  <path
     inkscape:connector-curvature="0"
     d="m 136.12941,99.240304 0,0 c 0,0 -8.71866,-51.11604 -58.178655,-51.11604 -50.612,0 -58.24533,51.41334 -58.24533,51.41334 -0.23467,0.967996 -0.35467,1.949296 -0.35467,2.939996 0,14.7507 26.23867,26.7133 58.6,26.7133 32.365325,0 58.602655,-11.9626 58.602655,-26.7133 0,-1.0933 -0.148,-2.1747 -0.424,-3.237296"
     style="fill:#d9dbd5;fill-opacity:1;fill-rule:nonzero;stroke:none"
     id="path480" />
  <path
     inkscape:connector-curvature="0"
     d="m 63.170755,53.748264 c 0,-4.14933 6.61734,-7.512 14.78,-7.512 8.16534,0 14.78267,3.36267 14.78267,7.512 0,4.14667 -6.61733,7.51067 -14.78267,7.51067 -8.16266,0 -14.78,-3.364 -14.78,-7.51067"
     style="fill:#8f9894;fill-opacity:1;fill-rule:nonzero;stroke:none"
     id="path482" />
  <path
     inkscape:connector-curvature="0"
     d="m 77.950755,40.905604 c -5.028,0 -9.108,2.07333 -9.108,4.63333 l 0,7.46133 c 0,2.55867 4.08,4.63067 9.108,4.63067 5.03067,0 9.10667,-2.072 9.10667,-4.63067 l 0,-7.46133 c 0,-2.56 -4.076,-4.63333 -9.10667,-4.63333"
     style="fill:#77807f;fill-opacity:1;fill-rule:nonzero;stroke:none"
     id="path484" />
  <path
     inkscape:connector-curvature="0"
     d="m 67.277425,44.340264 c 0,-2.99466 4.77867,-5.42133 10.67333,-5.42133 5.9,0 10.67867,2.42667 10.67867,5.42133 0,2.99734 -4.77867,5.42667 -10.67867,5.42667 -5.89466,0 -10.67333,-2.42933 -10.67333,-5.42667"
     style="fill:#8f9894;fill-opacity:1;fill-rule:nonzero;stroke:none"
     id="path486" />
  <path
     inkscape:connector-curvature="0"
     d="m 53.436095,58.296264 c -20.008,7.77867 -26.52934,30.33067 -27.61867,34.18933 0.7,6.24801 5.32667,9.832006 5.32667,9.832006 0,0 5.076,-27.918666 22.292,-44.021336"
     style="fill:#f9f9f9;fill-opacity:1;fill-rule:nonzero;stroke:none"
     id="path488" />
</svg>
