<?xml version="1.0" encoding="UTF-8" standalone="no"?>
<!-- Created with Inkscape (http://www.inkscape.org/) -->

<svg
   xmlns:dc="http://purl.org/dc/elements/1.1/"
   xmlns:cc="http://creativecommons.org/ns#"
   xmlns:rdf="http://www.w3.org/1999/02/22-rdf-syntax-ns#"
   xmlns:svg="http://www.w3.org/2000/svg"
   xmlns="http://www.w3.org/2000/svg"
   xmlns:sodipodi="http://sodipodi.sourceforge.net/DTD/sodipodi-0.dtd"
   xmlns:inkscape="http://www.inkscape.org/namespaces/inkscape"
   width="44mm"
   height="40mm"
   viewBox="0 0 155.90552 141.73229"
   id="svg5135"
   version="1.1"
   inkscape:version="0.91 r13725"
   sodipodi:docname="Vegetarian.svg">
  <defs
     id="defs5137" />
  <sodipodi:namedview
     id="base"
     pagecolor="#ffffff"
     bordercolor="#666666"
     borderopacity="1.0"
     inkscape:pageopacity="0.0"
     inkscape:pageshadow="2"
     inkscape:zoom="1.979899"
     inkscape:cx="93.879629"
     inkscape:cy="53.412436"
     inkscape:document-units="px"
     inkscape:current-layer="svg5135"
     showgrid="false"
     fit-margin-top="0"
     fit-margin-left="0"
     fit-margin-right="0"
     fit-margin-bottom="0"
     inkscape:window-width="1920"
     inkscape:window-height="1017"
     inkscape:window-x="1912"
     inkscape:window-y="-8"
     inkscape:window-maximized="1" />
  <metadata
     id="metadata5140">
    <rdf:RDF>
      <cc:Work
         rdf:about="">
        <dc:format>image/svg+xml</dc:format>
        <dc:type
           rdf:resource="http://purl.org/dc/dcmitype/StillImage" />
        <dc:title></dc:title>
      </cc:Work>
    </rdf:RDF>
  </metadata>
  <path
     inkscape:connector-curvature="0"
     d="m 145.58142,111.57095 c -15.33013,18.61466 -38.33013,30.16133 -67.627064,30.16133 -30.20307,0 -52.20307,-11.54667 -67.90364,-30.45733"
     style="fill:#aad91b;fill-opacity:1;fill-rule:nonzero;stroke:none"
     id="path198" />
  <path
     inkscape:connector-curvature="0"
     d="m 149.57876,102.33361 c 0,15.37734 -32.07227,27.852 -71.624404,27.852 -39.55987,0 -71.6276001,-12.47466 -71.6276001,-27.852 0,-15.386655 32.0677301,-27.858655 71.6276001,-27.858655 39.552134,0 71.624404,12.472 71.624404,27.858655"
     style="fill:#619d30;fill-opacity:1;fill-rule:nonzero;stroke:none"
     id="path200" />
  <path
     inkscape:connector-curvature="0"
     d="m 131.82409,102.34561 c 0,11.74267 -24.11453,21.26534 -53.869734,21.26534 -29.75,0 -53.8724,-9.52267 -53.8724,-21.26534 0,-11.767995 24.1224,-21.294655 53.8724,-21.294655 29.755204,0 53.869734,9.52666 53.869734,21.294655"
     style="fill:#ffffff;fill-opacity:1;fill-rule:nonzero;stroke:none"
     id="path202" />
  <path
     sodipodi:nodetypes="cccccccc"
     inkscape:connector-curvature="0"
     d="m 64.670486,107.92028 c -44.54576,-26.216565 -7.11402,-17.489755 -28.71666,-28.298665 -1.30075,-3.58538 -3.34908,-7.10168 -5.70254,-9.13466 -2.548,-2.17467 -8.75567,-6.36627 -12.00682,-6.46134 -2.18113,-0.44986 -3.22751,0.81804 -3.59271,2.604 -0.59758,1.94108 0.85469,8.83867 1.80573,11.80667 1.24618,4.56728 4.48833,7.69524 7.88074,10.41467 2.28681,3.04721 2.77488,6.99721 4.94066,9.91066"
     style="fill:#ffffff;fill-opacity:1;fill-rule:nonzero;stroke:none"
     id="path206" />
  <path
     sodipodi:nodetypes="ccccccccccc"
     inkscape:connector-curvature="0"
     id="path208"
     d="m 16.803316,65.816425 c -2.30223,1.84043 0.32121,8.75273 1.36133,12.07227 1.27681,4.11349 3.79596,6.907 6.98242,9.28125 2.48465,3.11093 3.16903,7.63475 5.47852,10.40825 2.94655,3.752315 7.34417,3.453015 11.05664,4.937495 3.14599,2.03462 4.6582,6.11558 7.70312,8.15039 4.74165,3.35986 15.83491,0.18177 16.00782,-3.23828 -6.42835,-8.998365 -15.47433,-13.033075 -21.75196,-20.667965 -2.75885,-3.48408 -6.22206,-3.84729 -9.02148,-5.94136 -1.45715,-2.91047 -2.68442,-6.19536 -4.60938,-8.12305 -4.08717,-2.48987 -10.11384,-8.47364 -13.20703,-6.879 z"
     style="fill:#aad91b;fill-opacity:1;fill-rule:nonzero;stroke:none" />
  <path
     sodipodi:nodetypes="ccccccccsccccc"
     inkscape:connector-curvature="0"
     d="m 74.539816,93.754955 c -3.09447,-2.65818 -6.43128,-4.36887 -9.56986,-5.064 -1.53836,-2.98208 -2.59463,-6.52148 -4.23494,-8.844 -2.39304,-2.77227 -4.93672,-4.85111 -7.538,-6.22534 -0.80329,-3.72845 -2.35591,-7.48996 -4.41239,-9.82266 -2.23027,-2.5 -5.63707,-5.144 -11.0224,-8.02934 -0.78654,-0.42 -1.73027,-0.42 -2.51667,0 -0.786,0.42134 -1.06,1.01916 -1.39587,2.09334 -0.7052,1.491 -0.54946,4.83917 -0.54946,6.56984 0,3.66933 0.6724,5.73549 1.36866,8.05416 1.03004,3.5046 3.14266,6.04493 5.59587,8.48933 2.00409,3.42516 2.04867,7.82379 3.72293,10.704 2.52121,4.41204 7.56687,5.16748 11.23027,7.18 2.30849,3.041925 5.35883,8.697885 8.151,10.887995"
     style="fill:#ffffff;fill-opacity:1;fill-rule:nonzero;stroke:none"
     id="path214" />
  <path
     sodipodi:nodetypes="cccccccccccc"
     inkscape:connector-curvature="0"
     id="path216"
     d="m 35.633396,58.037135 c -1.96964,2.67529 -0.41872,9.9403 0.75195,13.93554 0.93742,3.27346 2.99106,5.58647 5.21875,7.8125 1.65631,3.44958 1.87525,7.80875 3.87696,10.90625 2.41233,4.11645 6.80921,4.41783 10.28906,6.39063 3.01877,2.69617 4.10803,7.316675 7.28711,9.722655 11.24108,5.02799 15.98171,-3.08593 11.80469,-9.734375 -3.82605,-5.15215 -7.30937,-4.9201 -11.09766,-7.05469 -1.82807,-2.51731 -2.48583,-5.95747 -3.91797,-8.28125 -2.30281,-3.75747 -5.61257,-4.7538 -8.13281,-7.10937 -1.05011,-3.08026 -1.82089,-6.50009 -3.4668,-8.66992 -1.61789,-1.71037 -10.69443,-10.56724 -12.61328,-7.91797 z"
     style="fill:#aad91b;fill-opacity:1;fill-rule:nonzero;stroke:none" />
  <path
     sodipodi:nodetypes="cccccccccccccsccccccccccccccccccccccc"
     inkscape:connector-curvature="0"
     d="m 127.30702,94.352285 c -0.0745,-6.78753 -4.83208,3.03277 0.928,-1.404 1.21934,-1.024 2.2568,-2.36667 3.022,-3.93867 0.76094,-1.57066 1.2432,-3.38133 1.24427,-5.316 -0.81533,-10.31773 -7.37018,-7.026 -2.99853,-6.592 0.0344,-0.34666 0.0521,-0.688 0.0521,-1.024 5.3e-4,-1.12 -0.1964,-2.19066 -0.5984,-3.15866 -0.5964,-1.45467 -1.67293,-2.64 -2.97667,-3.384 -11.87386,-4.0222 1.45856,6.06202 -3.88906,-4.02934 -1.12334,-1.92 -2.814,-3.22933 -4.5452,-4.084 -4.86212,-3.01908 -7.42054,0.94576 -2.89534,1.14267 -0.14933,-2.84168 -1.25164,-5.77836 -2.9016,-7.39333 -0.99677,-0.94667 -2.24783,-1.71067 -3.70357,-2.22267 -1.45733,-0.51467 -3.1156,-0.78267 -4.9672,-0.78267 -11.004064,0.13192 -0.16236,4.89247 -3.830264,0.23067 -0.85774,-0.792 -1.85774,-1.25067 -2.93747,-1.572 -1.08173,-0.31333 -2.25987,-0.468 -3.4932,-0.46933 -2.4204,0.007 -5.08387,0.592 -7.39747,2.13466 -1.15,0.772 -2.20093,1.79734 -2.99946,3.08667 -3.57996,10.1868 5.61109,2.027 -1.96614,1.93867 -2.638,-0.004 -4.9672,1.14266 -6.55626,2.848 -1.59627,1.70666 -2.53227,3.97066 -2.5364,6.36666 -0.0104,2.24134 0.8744,4.60134 2.72133,6.44667 l 1.65573,-1.644 -2.30053,-0.388 c -0.13027,0.76933 -0.1948,1.51467 -0.1948,2.23333 -0.002,1.50934 0.28907,2.90667 0.8344,4.128 0.81507,1.83867 2.19267,3.23334 3.7536,4.128 -2.73051,4.87339 -2.20762,4.07856 -5.77907,10.276 l 0.0843,-0.004 c 2.96476,1.1885 1.81837,4.27606 0.7224,6.07067 l -5.3e-4,10e-4 c -0.33853,0.55067 -0.95053,1.27733 -1.70053,2.01467 -1.126,1.113325 -2.55307,2.273325 -3.8504,3.253325 -1.70753,1.19428 -3.4926,2.36373 -4.57294,4.06 -0.2896,0.668 -0.3948,1.34267 -0.39533,1.97733 0.0145,1.42934 0.48747,2.70134 1.24533,3.8"
     style="fill:#ffffff;fill-opacity:1;fill-rule:nonzero;stroke:none"
     id="path222" />
  <path
     inkscape:connector-curvature="0"
     id="path220"
     d="m 93.397066,52.703145 c -4.15749,-0.20548 -9.54558,1.7855 -10.17383,7.67383 -7.34373,-2.76933 -12.60944,5.99492 -7.48437,11.15625 -1.03653,6.13067 3.07478,9.0155 7.22851,9.1875 -0.20573,4.052 -1.25578,7.37132 -2.99804,10.83399 -0.94014,-3.94934 -6.86133,-3.74128 -8.07227,-1.97461 3.1172,-0.20667 6.65163,3.67024 2.94336,9.6289 -1.9688,3.166665 -7.5833,6.957605 -9.3125,8.210935 -1.96093,1.41333 -0.21485,5.47351 1.86328,5.57617 -1.526,2.56534 -0.034,5.9239 2.35938,4.22656 0.83066,3.016 3.55271,0.68838 4.53711,0.48438 1,-0.20533 1.24801,1.49102 2.59961,2.29101 4.2604,-5.78933 12.98645,-15.93826 27.853514,-17.18359 -2.70573,-1.94 -7.554084,-1.42296 -9.080084,-0.9043 3.60414,-3.945325 7.967444,-5.263795 9.628914,-5.369135 1.79947,0.488 3.03707,0.45605 4.38867,0.24805 0.36454,1.72933 2.33138,5.294915 7.28711,5.294915 5.5052,0 8.83528,-3.739345 7.83008,-9.804675 4.052,-1.31467 8.44997,-9.31283 2.38477,-15.41016 0.41666,-4.15867 -2.42385,-6.37779 -6.26758,-6.06445 0.58853,-5.64534 -5.09109,-8.31309 -8.59375,-8.34375 0.2136,-4.784 -3.8073,-9.66815 -14.062504,-7.38282 -0.3135,-1.3385 -2.36489,-2.25171 -4.85938,-2.375 z m -8.07031,32.17578 c 0.5208,0.88267 1.35228,1.84425 1.84961,2.15625 -0.8672,1.00534 -2.91469,3.03817 -3.69336,3.6875 0.80733,-1.636 1.41402,-4.07841 1.84375,-5.84375 z m 11.6543,5.46875 c 0,0.89867 0.68559,2.57854 1.79492,3.89454 -4.3124,0.65067 -7.35417,2.82652 -8.1875,3.17187 0.9896,-0.90935 4.75388,-5.09189 4.52734,-6.81055 0.66934,-0.076 1.32617,-0.12653 1.86524,-0.25586 z"
     style="fill:#619d30;fill-opacity:1;fill-rule:nonzero;stroke:none" />
</svg>
