<?xml version="1.0" encoding="iso-8859-1"?>
<!-- Generator: Adobe Illustrator 16.0.4, SVG Export Plug-In . SVG Version: 6.00 Build 0)  -->
<!DOCTYPE svg PUBLIC "-//W3C//DTD SVG 1.1//EN" "http://www.w3.org/Graphics/SVG/1.1/DTD/svg11.dtd">
<svg version="1.1" id="Layer_1" xmlns="http://www.w3.org/2000/svg" xmlns:xlink="http://www.w3.org/1999/xlink" x="0px" y="0px"
	 width="44px" height="44px" viewBox="0 0 44 44" style="enable-background:new 0 0 44 44;" xml:space="preserve">
<g id="_x37_01-location-toolbar-selected_x40_2x.png">
	<g>
		<path d="M22,0C9.85,0,0,9.85,0,22s9.85,22,22,22s22-9.85,22-22S34.15,0,22,0z M31.919,14.394l-8.997,20.995
			c-0.001,0-0.001,0.001-0.001,0.002l-0.002,0.003h-0.001C22.766,35.75,22.412,36,22,36c-0.552,0-1-0.447-1-1V24H10
			c-0.552,0-1-0.447-1-1c0-0.412,0.25-0.766,0.606-0.918l0-0.001l0.004-0.002c0,0,0.001,0,0.002-0.001l20.995-8.997v0.001
			C30.728,13.029,30.86,13,31,13c0.553,0,1,0.448,1,1c0,0.141-0.037,0.27-0.09,0.391L31.919,14.394z"/>
	</g>
</g>
<g>
</g>
<g>
</g>
<g>
</g>
<g>
</g>
<g>
</g>
<g>
</g>
<g>
</g>
<g>
</g>
<g>
</g>
<g>
</g>
<g>
</g>
<g>
</g>
<g>
</g>
<g>
</g>
<g>
</g>
</svg>
