<?xml version="1.0" encoding="iso-8859-1"?>
<!-- Generator: Adobe Illustrator 16.0.4, SVG Export Plug-In . SVG Version: 6.00 Build 0)  -->
<!DOCTYPE svg PUBLIC "-//W3C//DTD SVG 1.1//EN" "http://www.w3.org/Graphics/SVG/1.1/DTD/svg11.dtd">
<svg version="1.1" id="Layer_1" xmlns="http://www.w3.org/2000/svg" xmlns:xlink="http://www.w3.org/1999/xlink" x="0px" y="0px"
	 width="32px" height="44px" viewBox="0 0 32 44" style="enable-background:new 0 0 32 44;" xml:space="preserve">
<g id="_x37_03-download-toolbar-selected_x40_2x.png">
	<g>
		<path d="M17,1c0-0.553-0.447-1-1-1c-0.552,0-1,0.447-1,1v13h2V1z M30,14H17v16.586l4.293-4.293C21.474,26.112,21.724,26,22,26
			c0.553,0,1,0.447,1,1c0,0.276-0.112,0.526-0.293,0.707l-6,6C16.526,33.888,16.276,34,16,34s-0.526-0.112-0.707-0.293l-6-6
			C9.112,27.526,9,27.276,9,27c0-0.553,0.447-1,1-1c0.276,0,0.526,0.112,0.707,0.293L15,30.586V14H2c-1.104,0-2,0.896-2,2v26
			c0,1.104,0.896,2,2,2h28c1.104,0,2-0.896,2-2V16C32,14.896,31.104,14,30,14z"/>
	</g>
</g>
<g>
</g>
<g>
</g>
<g>
</g>
<g>
</g>
<g>
</g>
<g>
</g>
<g>
</g>
<g>
</g>
<g>
</g>
<g>
</g>
<g>
</g>
<g>
</g>
<g>
</g>
<g>
</g>
<g>
</g>
</svg>
