<?xml version="1.0" encoding="iso-8859-1"?>
<!-- Generator: Adobe Illustrator 16.0.4, SVG Export Plug-In . SVG Version: 6.00 Build 0)  -->
<!DOCTYPE svg PUBLIC "-//W3C//DTD SVG 1.1//EN" "http://www.w3.org/Graphics/SVG/1.1/DTD/svg11.dtd">
<svg version="1.1" id="Layer_1" xmlns="http://www.w3.org/2000/svg" xmlns:xlink="http://www.w3.org/1999/xlink" x="0px" y="0px"
	 width="44.006px" height="44.037px" viewBox="0 0 44.006 44.037" style="enable-background:new 0 0 44.006 44.037;"
	 xml:space="preserve">
<g id="_x37_04-compose-toolbar-selected_x40_2x.png">
	<g>
		<path d="M34.845,3.451L14.423,23.895l-1.429,7.148l7.142-1.43L40.739,8.989L40.558,9.17L34.845,3.451z M35,18.037
			c-0.276,0-0.526,0.112-0.707,0.293L21.496,31.128l-11.162,2.575l2.576-11.162L25.707,9.745C25.888,9.563,26,9.313,26,9.037
			c0-0.552-0.447-1-1-1H2c-1.104,0-2,0.896-2,2v32c0,1.104,0.896,2,2,2h32c1.104,0,2-0.896,2-2v-23
			C36,18.485,35.553,18.037,35,18.037z M43.414,3.451l-2.856-2.859c-0.789-0.789-2.067-0.789-2.856,0l-1.428,1.43l5.713,5.719
			l1.428-1.43C44.203,5.521,44.203,4.241,43.414,3.451z"/>
	</g>
</g>
<g>
</g>
<g>
</g>
<g>
</g>
<g>
</g>
<g>
</g>
<g>
</g>
<g>
</g>
<g>
</g>
<g>
</g>
<g>
</g>
<g>
</g>
<g>
</g>
<g>
</g>
<g>
</g>
<g>
</g>
</svg>
