<?xml version="1.0" encoding="iso-8859-1"?>
<!-- Generator: Adobe Illustrator 16.0.4, SVG Export Plug-In . SVG Version: 6.00 Build 0)  -->
<!DOCTYPE svg PUBLIC "-//W3C//DTD SVG 1.1//EN" "http://www.w3.org/Graphics/SVG/1.1/DTD/svg11.dtd">
<svg version="1.1" id="Layer_1" xmlns="http://www.w3.org/2000/svg" xmlns:xlink="http://www.w3.org/1999/xlink" x="0px" y="0px"
	 width="44px" height="28px" viewBox="0 0 44 28" style="enable-background:new 0 0 44 28;" xml:space="preserve">
<g id="_x37_06-cloud-toolbar-selected_x40_2x.png">
	<g>
		<path d="M36.938,12.066c0.033-0.352,0.054-0.708,0.054-1.068c0-6.074-4.925-10.998-11-10.998c-4.255,0-7.938,2.42-9.768,5.953
			c-0.932-0.594-2.03-0.949-3.217-0.949c-3.046,0-5.535,2.278-5.923,5.22C3.034,11.104,0,14.699,0,19.008
			c0,4.961,4.022,8.983,8.986,8.991V28H9c0.001,0,0.002,0,0.002,0c0.001,0,0.002,0,0.003,0h26.981v-0.001
			c0.006,0,0.011,0.001,0.016,0.001C40.419,28,44,24.42,44,20.004C44,15.904,40.913,12.53,36.938,12.066z"/>
	</g>
</g>
<g>
</g>
<g>
</g>
<g>
</g>
<g>
</g>
<g>
</g>
<g>
</g>
<g>
</g>
<g>
</g>
<g>
</g>
<g>
</g>
<g>
</g>
<g>
</g>
<g>
</g>
<g>
</g>
<g>
</g>
</svg>
