<?xml version="1.0" encoding="iso-8859-1"?>
<!-- Generator: Adobe Illustrator 16.0.4, SVG Export Plug-In . SVG Version: 6.00 Build 0)  -->
<!DOCTYPE svg PUBLIC "-//W3C//DTD SVG 1.1//EN" "http://www.w3.org/Graphics/SVG/1.1/DTD/svg11.dtd">
<svg version="1.1" id="Layer_1" xmlns="http://www.w3.org/2000/svg" xmlns:xlink="http://www.w3.org/1999/xlink" x="0px" y="0px"
	 width="36px" height="44px" viewBox="0 0 36 44" style="enable-background:new 0 0 36 44;" xml:space="preserve">
<g id="_x37_11-trash-toolbar-selected_x40_2x.png">
	<g>
		<path d="M35,6h-8V4c0-2.21-1.791-4-4-4H13c-2.209,0-4,1.79-4,4v2H1C0.448,6,0,6.447,0,7c0,0.552,0.448,1,1,1h1l2,32
			c0,2.209,1.791,4,4,4h20c2.209,0,4-1.791,4-4l2-32h1c0.553,0,1-0.448,1-1C36,6.447,35.553,6,35,6z M11,4c0-1.104,0.896-2,2-2h10
			c1.104,0,2,0.896,2,2v2h-0.232H11.232H11V4z M12.059,38.002c-0.551,0.032-1.024-0.39-1.057-0.941l-0.99-24.001
			c-0.032-0.552,0.389-1.026,0.94-1.059s1.024,0.389,1.057,0.941l0.99,24.001C13.031,37.495,12.61,37.969,12.059,38.002z M19,37
			c0,0.552-0.447,1-1,1c-0.552,0-1-0.448-1-1V13c0-0.553,0.448-1,1-1c0.553,0,1,0.447,1,1V37z M24.998,37.062
			c-0.032,0.551-0.506,0.972-1.057,0.939c-0.552-0.032-0.972-0.506-0.939-1.058l0.989-23.941c0.033-0.551,0.506-0.972,1.058-0.939
			c0.551,0.032,0.972,0.505,0.939,1.057L24.998,37.062z"/>
	</g>
</g>
<g>
</g>
<g>
</g>
<g>
</g>
<g>
</g>
<g>
</g>
<g>
</g>
<g>
</g>
<g>
</g>
<g>
</g>
<g>
</g>
<g>
</g>
<g>
</g>
<g>
</g>
<g>
</g>
<g>
</g>
</svg>
