<?xml version="1.0" encoding="iso-8859-1"?>
<!-- Generator: Adobe Illustrator 16.0.4, SVG Export Plug-In . SVG Version: 6.00 Build 0)  -->
<!DOCTYPE svg PUBLIC "-//W3C//DTD SVG 1.1//EN" "http://www.w3.org/Graphics/SVG/1.1/DTD/svg11.dtd">
<svg version="1.1" id="Layer_1" xmlns="http://www.w3.org/2000/svg" xmlns:xlink="http://www.w3.org/1999/xlink" x="0px" y="0px"
	 width="44px" height="32px" viewBox="0 0 44 32" style="enable-background:new 0 0 44 32;" xml:space="preserve">
<g id="_x37_12-reply-toolbar-selected_x40_2x.png">
	<g>
		<path d="M19.989,10.003V0.987h-0.004C19.977,0.441,19.542,0,19.003,0c-0.243,0-0.458,0.099-0.63,0.248l-0.014-0.017l-18,15
			l0.016,0.019C0.151,15.431,0,15.693,0,16s0.151,0.569,0.375,0.749l-0.016,0.02l18,15l0.014-0.017
			C18.544,31.901,18.76,32,19.003,32c0.539,0,0.974-0.441,0.982-0.987h0.004V22.01C35.136,22.323,44,29.594,44,29.594V27.98
			C44,27.803,43.704,10.479,19.989,10.003z"/>
	</g>
</g>
<g>
</g>
<g>
</g>
<g>
</g>
<g>
</g>
<g>
</g>
<g>
</g>
<g>
</g>
<g>
</g>
<g>
</g>
<g>
</g>
<g>
</g>
<g>
</g>
<g>
</g>
<g>
</g>
<g>
</g>
</svg>
