<?xml version="1.0" encoding="iso-8859-1"?>
<!-- Generator: Adobe Illustrator 16.0.4, SVG Export Plug-In . SVG Version: 6.00 Build 0)  -->
<!DOCTYPE svg PUBLIC "-//W3C//DTD SVG 1.1//EN" "http://www.w3.org/Graphics/SVG/1.1/DTD/svg11.dtd">
<svg version="1.1" id="Layer_1" xmlns="http://www.w3.org/2000/svg" xmlns:xlink="http://www.w3.org/1999/xlink" x="0px" y="0px"
	 width="44px" height="36px" viewBox="0 0 44 36" style="enable-background:new 0 0 44 36;" xml:space="preserve">
<g id="_x37_14-camera-toolbar-selected_x40_2x.png">
	<g>
		<path d="M22,14c-2.209,0-4,1.791-4,4s1.791,4,4,4s4-1.791,4-4S24.209,14,22,14z M40,4h-7c-2,0-4-4-6-4c-0.674,0-1.346,0-2,0
			c0,0-2.768,0-6,0c-0.654,0-1.326,0-2,0c-2,0-4,4-6,4H4C1.791,4,0,5.791,0,8v24c0,2.21,1.791,4,4,4h36c2.209,0,4-1.79,4-4V8
			C44,5.791,42.209,4,40,4z M22,28c-5.522,0-10-4.477-10-10c0-5.522,4.478-10,10-10s10,4.478,10,10C32,23.523,27.522,28,22,28z
			 M38,13c-1.104,0-2-0.896-2-2s0.896-2,2-2s2,0.896,2,2S39.104,13,38,13z M22,10c-4.418,0-8,3.582-8,8s3.582,8,8,8s8-3.582,8-8
			S26.418,10,22,10z M22,24c-3.313,0-6-2.687-6-6s2.687-6,6-6s6,2.687,6,6S25.313,24,22,24z"/>
	</g>
</g>
<g>
</g>
<g>
</g>
<g>
</g>
<g>
</g>
<g>
</g>
<g>
</g>
<g>
</g>
<g>
</g>
<g>
</g>
<g>
</g>
<g>
</g>
<g>
</g>
<g>
</g>
<g>
</g>
<g>
</g>
</svg>
