<?xml version="1.0" encoding="iso-8859-1"?>
<!-- Generator: Adobe Illustrator 16.0.4, SVG Export Plug-In . SVG Version: 6.00 Build 0)  -->
<!DOCTYPE svg PUBLIC "-//W3C//DTD SVG 1.1//EN" "http://www.w3.org/Graphics/SVG/1.1/DTD/svg11.dtd">
<svg version="1.1" id="Layer_1" xmlns="http://www.w3.org/2000/svg" xmlns:xlink="http://www.w3.org/1999/xlink" x="0px" y="0px"
	 width="44px" height="44px" viewBox="0 0 44 44" style="enable-background:new 0 0 44 44;" xml:space="preserve">
<g id="_x37_15-globe-toolbar-selected_x40_2x.png">
	<g>
		<path d="M12.025,21H21v-7.039c-2.766-0.091-5.401-0.538-7.81-1.305C12.522,15.171,12.1,17.987,12.025,21z M13.19,31.344
			c2.408-0.767,5.044-1.214,7.81-1.305V23h-8.975C12.1,26.013,12.522,28.829,13.19,31.344z M16.948,39.239
			c1.298,0.38,2.649,0.635,4.052,0.712v-7.913c-2.569,0.09-5.013,0.504-7.234,1.212C14.596,35.679,15.674,37.742,16.948,39.239z
			 M9.642,35.027c1.225,1.158,2.605,2.154,4.117,2.936c-0.694-1.205-1.298-2.573-1.818-4.049
			C11.133,34.245,10.372,34.623,9.642,35.027z M13.759,6.037c-1.512,0.782-2.893,1.777-4.117,2.936
			c0.73,0.404,1.491,0.782,2.299,1.113C12.461,8.61,13.064,7.242,13.759,6.037z M11.342,11.984
			c-1.099-0.444-2.132-0.958-3.104-1.528C5.812,13.338,4.271,16.987,4.051,21h5.977C10.107,17.757,10.579,14.711,11.342,11.984z
			 M33.973,21h5.977c-0.221-4.013-1.761-7.662-4.187-10.544c-0.973,0.57-2.006,1.084-3.104,1.528
			C33.421,14.711,33.893,17.757,33.973,21z M10.027,23H4.051c0.221,4.013,1.761,7.662,4.187,10.543
			c0.973-0.569,2.006-1.083,3.104-1.527C10.579,29.289,10.107,26.243,10.027,23z M13.766,10.75c2.222,0.708,4.665,1.122,7.234,1.212
			V4.049c-1.402,0.077-2.754,0.332-4.052,0.712C15.674,6.258,14.596,8.321,13.766,10.75z M34.358,8.973
			c-1.225-1.158-2.605-2.153-4.117-2.936c0.694,1.205,1.298,2.573,1.818,4.049C32.867,9.755,33.628,9.377,34.358,8.973z
			 M30.241,37.963c1.512-0.781,2.893-1.777,4.117-2.936c-0.73-0.404-1.491-0.782-2.299-1.113
			C31.539,35.39,30.936,36.758,30.241,37.963z M23,39.951c1.402-0.077,2.754-0.332,4.052-0.712c1.274-1.497,2.353-3.561,3.183-5.989
			c-2.221-0.708-4.665-1.122-7.234-1.212V39.951z M22,0C9.85,0,0,9.85,0,22s9.85,22,22,22s22-9.85,22-22S34.15,0,22,0z M22,42
			C10.954,42,2,33.046,2,22S10.954,2,22,2s20,8.954,20,20S33.046,42,22,42z M32.658,32.016c1.099,0.444,2.132,0.958,3.104,1.528
			c2.426-2.882,3.966-6.531,4.187-10.544h-5.977C33.893,26.243,33.421,29.289,32.658,32.016z M27.052,4.761
			C25.754,4.381,24.402,4.126,23,4.049v7.913c2.569-0.09,5.014-0.504,7.234-1.212C29.404,8.321,28.326,6.258,27.052,4.761z
			 M30.81,12.656c-2.408,0.767-5.044,1.214-7.81,1.305V21h8.975C31.9,17.987,31.478,15.171,30.81,12.656z M31.975,23H23v7.039
			c2.766,0.091,5.401,0.538,7.81,1.305C31.478,28.829,31.9,26.013,31.975,23z"/>
	</g>
</g>
<g>
</g>
<g>
</g>
<g>
</g>
<g>
</g>
<g>
</g>
<g>
</g>
<g>
</g>
<g>
</g>
<g>
</g>
<g>
</g>
<g>
</g>
<g>
</g>
<g>
</g>
<g>
</g>
<g>
</g>
</svg>
