<?xml version="1.0" encoding="iso-8859-1"?>
<!-- Generator: Adobe Illustrator 16.0.4, SVG Export Plug-In . SVG Version: 6.00 Build 0)  -->
<!DOCTYPE svg PUBLIC "-//W3C//DTD SVG 1.1//EN" "http://www.w3.org/Graphics/SVG/1.1/DTD/svg11.dtd">
<svg version="1.1" id="Layer_1" xmlns="http://www.w3.org/2000/svg" xmlns:xlink="http://www.w3.org/1999/xlink" x="0px" y="0px"
	 width="36px" height="44px" viewBox="0 0 36 44" style="enable-background:new 0 0 36 44;" xml:space="preserve">
<g id="_x37_17-flag-toolbar-selected_x40_2x.png">
	<g>
		<path d="M35.996,2.156l-1.547,1.009C34.421,3.184,31.571,5,26,5c-3.907,0-6.602-1.285-9.207-2.527C14.245,1.257,11.609,0,8,0
			C0.225,0,0,3.591,0,4v40h2V26.036C2.02,25.919,2.425,24,8,24c3.157,0,5.477,1.106,7.932,2.277C18.738,27.616,21.641,29,26,29
			c6.231,0,9.422-2.079,9.555-2.168L36,26.535V22L35.996,2.156z"/>
	</g>
</g>
<g>
</g>
<g>
</g>
<g>
</g>
<g>
</g>
<g>
</g>
<g>
</g>
<g>
</g>
<g>
</g>
<g>
</g>
<g>
</g>
<g>
</g>
<g>
</g>
<g>
</g>
<g>
</g>
<g>
</g>
</svg>
