<?xml version="1.0" encoding="iso-8859-1"?>
<!-- Generator: Adobe Illustrator 16.0.4, SVG Export Plug-In . SVG Version: 6.00 Build 0)  -->
<!DOCTYPE svg PUBLIC "-//W3C//DTD SVG 1.1//EN" "http://www.w3.org/Graphics/SVG/1.1/DTD/svg11.dtd">
<svg version="1.1" id="Layer_1" xmlns="http://www.w3.org/2000/svg" xmlns:xlink="http://www.w3.org/1999/xlink" x="0px" y="0px"
	 width="44px" height="44px" viewBox="0 0 44 44" style="enable-background:new 0 0 44 44;" xml:space="preserve">
<g id="_x37_18-timer-1-toolbar-selected_x40_2x.png">
	<g>
		<path d="M22,0C9.85,0,0,9.85,0,22s9.85,22,22,22s22-9.85,22-22S34.15,0,22,0z M22,40c-9.941,0-18-8.059-18-18
			c0-4.971,2.015-9.471,5.272-12.728l0.014,0.014C9.47,9.077,9.73,8.938,10.031,8.938c0.553,0,1,0.448,1,1
			c0,0.301-0.139,0.562-0.349,0.745l0.004,0.004C7.791,13.582,6,17.582,6,22c0,8.837,7.163,16,16,16s16-7.163,16-16
			c0-8.155-6.111-14.852-14-15.839V11c0,0.553-0.447,1-1,1s-1-0.447-1-1V5c0-0.552,0.447-1,1-1c0.147,0,0.285,0.036,0.411,0.094
			C32.688,4.817,40,12.537,40,22C40,31.941,31.941,40,22,40z M13.857,13.858c0,0,7.129,3.062,10.061,5.853
			c0.058,0.05,0.121,0.09,0.177,0.145c1.176,1.172,1.176,3.071,0,4.243c-1.177,1.171-3.084,1.171-4.26,0
			c-0.043-0.043-0.072-0.092-0.111-0.137C16.93,21.038,13.857,13.858,13.857,13.858z"/>
	</g>
</g>
<g>
</g>
<g>
</g>
<g>
</g>
<g>
</g>
<g>
</g>
<g>
</g>
<g>
</g>
<g>
</g>
<g>
</g>
<g>
</g>
<g>
</g>
<g>
</g>
<g>
</g>
<g>
</g>
<g>
</g>
</svg>
