<?xml version="1.0" encoding="iso-8859-1"?>
<!-- Generator: Adobe Illustrator 16.0.4, SVG Export Plug-In . SVG Version: 6.00 Build 0)  -->
<!DOCTYPE svg PUBLIC "-//W3C//DTD SVG 1.1//EN" "http://www.w3.org/Graphics/SVG/1.1/DTD/svg11.dtd">
<svg version="1.1" id="Layer_1" xmlns="http://www.w3.org/2000/svg" xmlns:xlink="http://www.w3.org/1999/xlink" x="0px" y="0px"
	 width="44px" height="44px" viewBox="0 0 44 44" style="enable-background:new 0 0 44 44;" xml:space="preserve">
<g id="_x37_24-info-toolbar-selected_x40_2x.png">
	<g>
		<path d="M22,0C9.85,0,0,9.85,0,22s9.85,22,22,22s22-9.85,22-22S34.15,0,22,0z M20.597,14.563c0.355-0.372,0.779-0.558,1.272-0.558
			c0.492,0,0.915,0.186,1.268,0.558s0.529,0.819,0.529,1.343s-0.179,0.97-0.534,1.338c-0.355,0.369-0.776,0.554-1.263,0.554
			c-0.493,0-0.917-0.185-1.272-0.554c-0.356-0.368-0.534-0.814-0.534-1.338S20.24,14.936,20.597,14.563z M24.997,30h-5.765v-0.754
			c0.158-0.014,0.313-0.031,0.465-0.052c0.152-0.021,0.283-0.055,0.393-0.104c0.194-0.083,0.331-0.201,0.41-0.356
			s0.119-0.359,0.119-0.615v-6.013c0-0.241-0.049-0.453-0.146-0.636c-0.097-0.183-0.219-0.329-0.364-0.439
			c-0.109-0.082-0.275-0.162-0.497-0.237c-0.223-0.076-0.425-0.124-0.606-0.145v-0.755l4.47-0.269l0.137,0.155v8.204
			c0,0.241,0.045,0.446,0.137,0.614c0.091,0.169,0.222,0.295,0.392,0.378c0.122,0.062,0.256,0.117,0.401,0.165
			c0.146,0.049,0.298,0.083,0.456,0.104V30z"/>
	</g>
</g>
<g>
</g>
<g>
</g>
<g>
</g>
<g>
</g>
<g>
</g>
<g>
</g>
<g>
</g>
<g>
</g>
<g>
</g>
<g>
</g>
<g>
</g>
<g>
</g>
<g>
</g>
<g>
</g>
<g>
</g>
</svg>
