<?xml version="1.0" encoding="iso-8859-1"?>
<!-- Generator: Adobe Illustrator 16.0.4, SVG Export Plug-In . SVG Version: 6.00 Build 0)  -->
<!DOCTYPE svg PUBLIC "-//W3C//DTD SVG 1.1//EN" "http://www.w3.org/Graphics/SVG/1.1/DTD/svg11.dtd">
<svg version="1.1" id="Layer_1" xmlns="http://www.w3.org/2000/svg" xmlns:xlink="http://www.w3.org/1999/xlink" x="0px" y="0px"
	 width="43.988px" height="12px" viewBox="0 0 43.988 12" style="enable-background:new 0 0 43.988 12;" xml:space="preserve">
<g id="_x37_27-more-toolbar-selected_x40_2x.png">
	<g>
		<path d="M5.994,0C2.684,0,0,2.687,0,6s2.684,6,5.994,6s5.994-2.687,5.994-6S9.305,0,5.994,0z M21.994,0C18.684,0,16,2.687,16,6
			s2.684,6,5.994,6s5.994-2.687,5.994-6S25.305,0,21.994,0z M37.994,0C34.684,0,32,2.687,32,6s2.684,6,5.994,6s5.994-2.687,5.994-6
			S41.305,0,37.994,0z"/>
	</g>
</g>
<g>
</g>
<g>
</g>
<g>
</g>
<g>
</g>
<g>
</g>
<g>
</g>
<g>
</g>
<g>
</g>
<g>
</g>
<g>
</g>
<g>
</g>
<g>
</g>
<g>
</g>
<g>
</g>
<g>
</g>
</svg>
