<?xml version="1.0" encoding="iso-8859-1"?>
<!-- Generator: Adobe Illustrator 16.0.4, SVG Export Plug-In . SVG Version: 6.00 Build 0)  -->
<!DOCTYPE svg PUBLIC "-//W3C//DTD SVG 1.1//EN" "http://www.w3.org/Graphics/SVG/1.1/DTD/svg11.dtd">
<svg version="1.1" id="Layer_1" xmlns="http://www.w3.org/2000/svg" xmlns:xlink="http://www.w3.org/1999/xlink" x="0px" y="0px"
	 width="44px" height="44px" viewBox="0 0 44 44" style="enable-background:new 0 0 44 44;" xml:space="preserve">
<g id="_x37_31-cloud-download-toolbar-selected_x40_2x.png">
	<g>
		<path d="M21,40.586l-4.293-4.293C16.526,36.112,16.276,36,16,36c-0.552,0-1,0.447-1,1c0,0.276,0.112,0.526,0.293,0.707l6,6
			C21.474,43.889,21.724,44,22,44s0.526-0.111,0.707-0.293l6-6C28.888,37.526,29,37.276,29,37c0-0.553-0.447-1-1-1
			c-0.276,0-0.526,0.112-0.707,0.293L23,40.586V28h-2V40.586z M36.938,12.066c0.033-0.352,0.054-0.707,0.054-1.068
			c0-6.074-4.925-10.998-11-10.998c-4.255,0-7.938,2.42-9.768,5.953c-0.932-0.594-2.03-0.949-3.217-0.949
			c-3.046,0-5.535,2.278-5.923,5.221C3.035,11.104,0,14.699,0,19.008c0,4.961,4.022,8.983,8.987,8.991V28h0.006
			C8.996,28,9,28,9.002,28s0.006,0,0.009,0H21V13c0-0.552,0.448-1,1-1c0.553,0,1,0.448,1,1v15h12.986v-0.001
			c0.006,0,0.011,0.001,0.016,0.001C40.419,28,44,24.42,44,20.004C44,15.904,40.913,12.53,36.938,12.066z"/>
	</g>
</g>
<g>
</g>
<g>
</g>
<g>
</g>
<g>
</g>
<g>
</g>
<g>
</g>
<g>
</g>
<g>
</g>
<g>
</g>
<g>
</g>
<g>
</g>
<g>
</g>
<g>
</g>
<g>
</g>
<g>
</g>
</svg>
