<?xml version="1.0" encoding="iso-8859-1"?>
<!-- Generator: Adobe Illustrator 16.0.4, SVG Export Plug-In . SVG Version: 6.00 Build 0)  -->
<!DOCTYPE svg PUBLIC "-//W3C//DTD SVG 1.1//EN" "http://www.w3.org/Graphics/SVG/1.1/DTD/svg11.dtd">
<svg version="1.1" id="Layer_1" xmlns="http://www.w3.org/2000/svg" xmlns:xlink="http://www.w3.org/1999/xlink" x="0px" y="0px"
	 width="44px" height="44px" viewBox="0 0 44 44" style="enable-background:new 0 0 44 44;" xml:space="preserve">
<g id="_x37_32-cloud-upload-toolbar-selected_x40_2x.png">
	<g>
		<path d="M21,43c0,0.552,0.447,1,1,1c0.552,0,1-0.448,1-1V28h-2V43z M36.938,12.066c0.033-0.352,0.054-0.707,0.054-1.068
			c0-6.074-4.925-10.998-11-10.998c-4.255,0-7.938,2.42-9.768,5.954c-0.932-0.595-2.03-0.95-3.217-0.95
			c-3.046,0-5.535,2.278-5.923,5.221C3.034,11.104,0,14.699,0,19.008c0,4.961,4.022,8.983,8.987,8.991V28H21V15.414l-4.293,4.293
			C16.526,19.888,16.276,20,16,20c-0.553,0-1-0.447-1-1c0-0.276,0.112-0.526,0.293-0.707l6-6C21.474,12.112,21.724,12,22,12
			s0.526,0.112,0.707,0.293l6,6C28.888,18.474,29,18.724,29,19c0,0.553-0.447,1-1,1c-0.276,0-0.526-0.112-0.707-0.293L23,15.414V28
			h12.987v-0.001c0.005,0,0.01,0.001,0.015,0.001C40.419,28,44,24.42,44,20.004C44,15.904,40.913,12.53,36.938,12.066z"/>
	</g>
</g>
<g>
</g>
<g>
</g>
<g>
</g>
<g>
</g>
<g>
</g>
<g>
</g>
<g>
</g>
<g>
</g>
<g>
</g>
<g>
</g>
<g>
</g>
<g>
</g>
<g>
</g>
<g>
</g>
<g>
</g>
</svg>
