<?xml version="1.0" encoding="iso-8859-1"?>
<!-- Generator: Adobe Illustrator 16.0.4, SVG Export Plug-In . SVG Version: 6.00 Build 0)  -->
<!DOCTYPE svg PUBLIC "-//W3C//DTD SVG 1.1//EN" "http://www.w3.org/Graphics/SVG/1.1/DTD/svg11.dtd">
<svg version="1.1" id="Layer_1" xmlns="http://www.w3.org/2000/svg" xmlns:xlink="http://www.w3.org/1999/xlink" x="0px" y="0px"
	 width="43.971px" height="43.982px" viewBox="0 0 43.971 43.982" style="enable-background:new 0 0 43.971 43.982;"
	 xml:space="preserve">
<g id="_x37_35-phone-toolbar-selected_x40_2x.png">
	<g>
		<path d="M43.921,35.951c-0.349-2.297-2.487-4.798-6.186-7.232c-2.615-1.722-4.303-2.37-5.581-2.37c-1.316,0-2.197,0.688-3.208,1.6
			c-0.161,0.146-0.328,0.298-0.506,0.45l-0.061,0.058c-0.223,0.237-1.008,0.917-1.676,0.938h-0.023
			c-0.238,0-0.437-0.085-0.633-0.271c-1.559-1.468-5.558-5.311-5.716-5.463l0.009-0.008c0,0-3.749-4.053-5.285-5.591
			c-0.26-0.26-0.276-0.46-0.266-0.589c0.046-0.54,0.721-1.144,0.951-1.31l0.071-0.058c0.202-0.184,0.404-0.353,0.601-0.516
			c2.105-1.76,3.124-3.229-0.472-8.8c-2.94-4.555-4.757-6.379-6.705-6.73C9.016,0.02,8.796,0,8.574,0
			c-0.99,0-1.999,0.403-3.172,1.255C2.913,2.973,0.45,4.923,0.055,8.189c-0.578,4.772,3.401,11.601,13.012,22.249l0.076,0.077
			c9.163,9.168,15.97,13.467,21.35,13.467c0.179,0,0.355-0.005,0.53-0.014c3.851-0.208,6.309-2.696,8.008-4.826
			C43.792,38.234,44.1,37.131,43.921,35.951z"/>
	</g>
</g>
<g>
</g>
<g>
</g>
<g>
</g>
<g>
</g>
<g>
</g>
<g>
</g>
<g>
</g>
<g>
</g>
<g>
</g>
<g>
</g>
<g>
</g>
<g>
</g>
<g>
</g>
<g>
</g>
<g>
</g>
</svg>
