<?xml version="1.0" encoding="iso-8859-1"?>
<!-- Generator: Adobe Illustrator 16.0.4, SVG Export Plug-In . SVG Version: 6.00 Build 0)  -->
<!DOCTYPE svg PUBLIC "-//W3C//DTD SVG 1.1//EN" "http://www.w3.org/Graphics/SVG/1.1/DTD/svg11.dtd">
<svg version="1.1" id="Layer_1" xmlns="http://www.w3.org/2000/svg" xmlns:xlink="http://www.w3.org/1999/xlink" x="0px" y="0px"
	 width="44px" height="44px" viewBox="0 0 44 44" style="enable-background:new 0 0 44 44;" xml:space="preserve">
<g id="_x37_39-question-toolbar-selected_x40_2x.png">
	<g>
		<path d="M22,0C9.85,0,0,9.85,0,22s9.85,22,22,22s22-9.85,22-22S34.15,0,22,0z M23.088,30.521c-0.31,0.319-0.679,0.479-1.107,0.479
			c-0.428,0-0.797-0.16-1.106-0.479s-0.464-0.7-0.464-1.144c0-0.442,0.154-0.823,0.464-1.144c0.31-0.319,0.679-0.479,1.106-0.479
			c0.429,0,0.798,0.16,1.107,0.479c0.309,0.32,0.464,0.701,0.464,1.144C23.552,29.821,23.396,30.202,23.088,30.521z M26.741,19.184
			c-0.175,0.468-0.421,0.906-0.738,1.316l-1.428,1.524l-0.238,0.222c-0.254,0.246-0.456,0.455-0.606,0.627
			c-0.151,0.172-0.271,0.353-0.357,0.541s-0.146,0.397-0.179,0.627s-0.048,0.517-0.048,0.861v1.082h-2.284v-1.501
			c0-0.442,0.031-0.812,0.095-1.106s0.158-0.562,0.286-0.799c0.127-0.237,0.297-0.468,0.512-0.688
			c0.214-0.222,0.479-0.488,0.797-0.8c0.254-0.246,0.508-0.496,0.762-0.75s0.484-0.517,0.69-0.787s0.377-0.557,0.512-0.86
			s0.202-0.644,0.202-1.021c0-0.378-0.067-0.726-0.202-1.046c-0.135-0.319-0.313-0.594-0.535-0.824
			c-0.223-0.229-0.488-0.409-0.798-0.541c-0.31-0.131-0.639-0.196-0.987-0.196c-0.778,0-1.409,0.254-1.893,0.763
			c-0.484,0.508-0.773,1.172-0.869,1.991l-2.428-0.245c0.206-1.427,0.781-2.546,1.726-3.357s2.114-1.218,3.511-1.218
			c0.667,0,1.289,0.104,1.869,0.308c0.578,0.205,1.083,0.501,1.511,0.886c0.429,0.386,0.766,0.86,1.012,1.427
			c0.246,0.565,0.369,1.209,0.369,1.931C27.003,18.172,26.915,18.717,26.741,19.184z"/>
	</g>
</g>
<g>
</g>
<g>
</g>
<g>
</g>
<g>
</g>
<g>
</g>
<g>
</g>
<g>
</g>
<g>
</g>
<g>
</g>
<g>
</g>
<g>
</g>
<g>
</g>
<g>
</g>
<g>
</g>
<g>
</g>
</svg>
