<?xml version="1.0" encoding="iso-8859-1"?>
<!-- Generator: Adobe Illustrator 16.0.4, SVG Export Plug-In . SVG Version: 6.00 Build 0)  -->
<!DOCTYPE svg PUBLIC "-//W3C//DTD SVG 1.1//EN" "http://www.w3.org/Graphics/SVG/1.1/DTD/svg11.dtd">
<svg version="1.1" id="Layer_1" xmlns="http://www.w3.org/2000/svg" xmlns:xlink="http://www.w3.org/1999/xlink" x="0px" y="0px"
	 width="40px" height="36px" viewBox="0 0 40 36" style="enable-background:new 0 0 40 36;" xml:space="preserve">
<g id="_x37_41-box-toolbar-selected_x40_2x.png">
	<g>
		<path d="M2,34c0,1.104,0.896,2,2,2h32c1.104,0,2-0.896,2-2V14H2V34z M16,18h8c1.104,0,2,0.896,2,2s-0.896,2-2,2h-8
			c-1.104,0-2-0.896-2-2S14.896,18,16,18z M38,0H2C0.896,0,0,0.896,0,2v8c0,1.104,0.896,2,2,2h36c1.104,0,2-0.896,2-2V2
			C40,0.896,39.104,0,38,0z"/>
	</g>
</g>
<g>
</g>
<g>
</g>
<g>
</g>
<g>
</g>
<g>
</g>
<g>
</g>
<g>
</g>
<g>
</g>
<g>
</g>
<g>
</g>
<g>
</g>
<g>
</g>
<g>
</g>
<g>
</g>
<g>
</g>
</svg>
