<?xml version="1.0" encoding="iso-8859-1"?>
<!-- Generator: Adobe Illustrator 16.0.4, SVG Export Plug-In . SVG Version: 6.00 Build 0)  -->
<!DOCTYPE svg PUBLIC "-//W3C//DTD SVG 1.1//EN" "http://www.w3.org/Graphics/SVG/1.1/DTD/svg11.dtd">
<svg version="1.1" id="Layer_1" xmlns="http://www.w3.org/2000/svg" xmlns:xlink="http://www.w3.org/1999/xlink" x="0px" y="0px"
	 width="44px" height="44.01px" viewBox="0 0 44 44.01" style="enable-background:new 0 0 44 44.01;" xml:space="preserve">
<g id="_x37_42-wrench-toolbar-selected_x40_2x.png">
	<g>
		<path d="M42.611,8.5l-1.06,1.061l-0.009-0.008l-5,5l0.008,0.008l-0.009-0.008l0,0l-0.011-0.01c-0.903,0.9-2.15,1.459-3.527,1.459
			c-2.759,0-4.995-2.237-4.995-4.996c0-1.377,0.558-2.623,1.459-3.526l-0.012-0.012l-0.008-0.008L28.051,6.06l1.406,1.407l5.001-5
			l-0.009-0.008l1.06-1.059C33.524,0.474,31.398,0,29.315,0c-0.001,0-0.001,0-0.001,0c-3.343,0-6.563,1.175-8.855,3.467
			c-4.807,4.808-4.699,13.691,0.847,19.238c2.901,2.901,6.715,4.314,10.382,4.314c3.343,0,6.563-1.175,8.855-3.467
			C44.265,19.83,45.025,13.669,42.611,8.5z M16.556,20.261L1.827,33.704C0.703,34.795,0,36.316,0,38.006
			c0,3.316,2.688,6.004,6.005,6.004c1.691,0,3.213-0.705,4.305-1.83l13.459-14.746c-1.529-0.802-2.945-1.828-4.179-3.062
			C18.351,23.133,17.343,21.74,16.556,20.261z M6.003,39.013c-0.555,0-1.006-0.45-1.006-1.006s0.451-1.006,1.006-1.006
			c0.556,0,1.006,0.45,1.006,1.006S6.559,39.013,6.003,39.013z"/>
	</g>
</g>
<g>
</g>
<g>
</g>
<g>
</g>
<g>
</g>
<g>
</g>
<g>
</g>
<g>
</g>
<g>
</g>
<g>
</g>
<g>
</g>
<g>
</g>
<g>
</g>
<g>
</g>
<g>
</g>
<g>
</g>
</svg>
