<?xml version="1.0" encoding="iso-8859-1"?>
<!-- Generator: Adobe Illustrator 16.0.4, SVG Export Plug-In . SVG Version: 6.00 Build 0)  -->
<!DOCTYPE svg PUBLIC "-//W3C//DTD SVG 1.1//EN" "http://www.w3.org/Graphics/SVG/1.1/DTD/svg11.dtd">
<svg version="1.1" id="Layer_1" xmlns="http://www.w3.org/2000/svg" xmlns:xlink="http://www.w3.org/1999/xlink" x="0px" y="0px"
	 width="44px" height="44px" viewBox="0 0 44 44" style="enable-background:new 0 0 44 44;" xml:space="preserve">
<g id="_x37_43-printer-toolbar-selected_x40_2x.png">
	<g>
		<path d="M34,24H10c-1.104,0-2,0.896-2,2v16c0,1.104,0.896,2,2,2h24c1.104,0,2-0.896,2-2V26C36,24.896,35.104,24,34,24z M25,38H15
			c-0.553,0-1-0.447-1-1c0-0.552,0.447-1,1-1h10c0.553,0,1,0.448,1,1C26,37.553,25.553,38,25,38z M29,32H15c-0.553,0-1-0.447-1-1
			c0-0.552,0.447-1,1-1h14c0.553,0,1,0.448,1,1C30,31.553,29.553,32,29,32z M36,2c0-1.104-0.896-2-2-2H10C8.896,0,8,0.896,8,2v8h28
			V2z M40,12H4c-2.209,0-4,1.791-4,4v18c0,2.21,1.791,4,4,4h2V26c0-2.209,1.791-4,4-4h24c2.209,0,4,1.791,4,4v12h2
			c2.209,0,4-1.79,4-4V16C44,13.791,42.209,12,40,12z M36,20c-1.104,0-2-0.896-2-1.999C34,16.896,34.896,16,36,16s2,0.896,2,2.001
			C38,19.104,37.104,20,36,20z"/>
	</g>
</g>
<g>
</g>
<g>
</g>
<g>
</g>
<g>
</g>
<g>
</g>
<g>
</g>
<g>
</g>
<g>
</g>
<g>
</g>
<g>
</g>
<g>
</g>
<g>
</g>
<g>
</g>
<g>
</g>
<g>
</g>
</svg>
