<?xml version="1.0" encoding="iso-8859-1"?>
<!-- Generator: Adobe Illustrator 16.0.4, SVG Export Plug-In . SVG Version: 6.00 Build 0)  -->
<!DOCTYPE svg PUBLIC "-//W3C//DTD SVG 1.1//EN" "http://www.w3.org/Graphics/SVG/1.1/DTD/svg11.dtd">
<svg version="1.1" id="Layer_1" xmlns="http://www.w3.org/2000/svg" xmlns:xlink="http://www.w3.org/1999/xlink" x="0px" y="0px"
	 width="34px" height="44px" viewBox="0 0 34 44" style="enable-background:new 0 0 34 44;" xml:space="preserve">
<g id="_x37_44-locked-toolbar-selected_x40_2x.png">
	<g>
		<path d="M30,16h-2.002v-5.004c0-0.001,0-0.001,0-0.001C27.998,4.923,23.074,0,17,0S6.002,4.923,6.002,10.995c0,0,0,0,0,0.001V16H4
			c-2.209,0-4,1.791-4,4v20c0,2.209,1.791,4,4,4h26c2.209,0,4-1.791,4-4V20C34,17.791,32.209,16,30,16z M18,30.816V34
			c0,0.553-0.447,1-1,1c-0.552,0-1-0.447-1-1v-3.184c-1.162-0.413-2-1.512-2-2.816c0-1.656,1.343-3,3-3s3,1.344,3,3
			C20,29.305,19.162,30.403,18,30.816z M26.007,16H7.994v-5.004C8.003,6.031,12.031,2.01,17,2.01s8.997,4.021,9.006,8.986h0.001V16z
			"/>
	</g>
</g>
<g>
</g>
<g>
</g>
<g>
</g>
<g>
</g>
<g>
</g>
<g>
</g>
<g>
</g>
<g>
</g>
<g>
</g>
<g>
</g>
<g>
</g>
<g>
</g>
<g>
</g>
<g>
</g>
<g>
</g>
</svg>
