<?xml version="1.0" encoding="iso-8859-1"?>
<!-- Generator: Adobe Illustrator 16.0.4, SVG Export Plug-In . SVG Version: 6.00 Build 0)  -->
<!DOCTYPE svg PUBLIC "-//W3C//DTD SVG 1.1//EN" "http://www.w3.org/Graphics/SVG/1.1/DTD/svg11.dtd">
<svg version="1.1" id="Layer_1" xmlns="http://www.w3.org/2000/svg" xmlns:xlink="http://www.w3.org/1999/xlink" x="0px" y="0px"
	 width="34px" height="44px" viewBox="0 0 34 44" style="enable-background:new 0 0 34 44;" xml:space="preserve">
<g id="_x37_45-unlocked-toolbar-selected_x40_2x.png">
	<g>
		<path d="M30,16h-2.002v-5.004c0-0.001,0-0.001,0-0.001C27.998,4.923,23.074,0,17,0C10.928,0,6.005,4.92,6.002,10.99
			C6.002,10.994,6,10.997,6,11c0,0.553,0.447,1,1,1s1-0.447,1-1c0-0.008-0.004-0.015-0.005-0.022C8.015,6.021,12.037,2.01,17,2.01
			c4.969,0,8.997,4.021,9.006,8.986h0.001V16H10H7.994H6.002H4c-2.209,0-4,1.791-4,4v20c0,2.209,1.791,4,4,4h26c2.209,0,4-1.791,4-4
			V20C34,17.791,32.209,16,30,16z M18,30.816V34c0,0.553-0.447,1-1,1s-1-0.447-1-1v-3.184c-1.162-0.413-2-1.512-2-2.816
			c0-1.656,1.343-3,3-3s3,1.344,3,3C20,29.305,19.163,30.403,18,30.816z"/>
	</g>
</g>
<g>
</g>
<g>
</g>
<g>
</g>
<g>
</g>
<g>
</g>
<g>
</g>
<g>
</g>
<g>
</g>
<g>
</g>
<g>
</g>
<g>
</g>
<g>
</g>
<g>
</g>
<g>
</g>
<g>
</g>
</svg>
