<?xml version="1.0" encoding="iso-8859-1"?>
<!-- Generator: Adobe Illustrator 16.0.4, SVG Export Plug-In . SVG Version: 6.00 Build 0)  -->
<!DOCTYPE svg PUBLIC "-//W3C//DTD SVG 1.1//EN" "http://www.w3.org/Graphics/SVG/1.1/DTD/svg11.dtd">
<svg version="1.1" id="Layer_1" xmlns="http://www.w3.org/2000/svg" xmlns:xlink="http://www.w3.org/1999/xlink" x="0px" y="0px"
	 width="44px" height="44px" viewBox="0 0 44 44" style="enable-background:new 0 0 44 44;" xml:space="preserve">
<g id="_x37_47-tag-toolbar-selected_x40_2x.png">
	<g>
		<path d="M41,0H25c-0.828,0-1.578,0.336-2.121,0.879l-22,22C0.336,23.422,0,24.172,0,25s0.336,1.578,0.879,2.121l16,16
			C17.422,43.664,18.172,44,19,44s1.578-0.336,2.121-0.879l22-22C43.664,20.578,44,19.828,44,19V3C44,1.344,42.657,0,41,0z
			 M35.008,10.995c-1.103,0-1.997-0.895-1.997-1.997s0.895-1.997,1.997-1.997c1.104,0,1.997,0.895,1.997,1.997
			S36.111,10.995,35.008,10.995z"/>
	</g>
</g>
<g>
</g>
<g>
</g>
<g>
</g>
<g>
</g>
<g>
</g>
<g>
</g>
<g>
</g>
<g>
</g>
<g>
</g>
<g>
</g>
<g>
</g>
<g>
</g>
<g>
</g>
<g>
</g>
<g>
</g>
</svg>
