<?xml version="1.0" encoding="iso-8859-1"?>
<!-- Generator: Adobe Illustrator 16.0.4, SVG Export Plug-In . SVG Version: 6.00 Build 0)  -->
<!DOCTYPE svg PUBLIC "-//W3C//DTD SVG 1.1//EN" "http://www.w3.org/Graphics/SVG/1.1/DTD/svg11.dtd">
<svg version="1.1" id="Layer_1" xmlns="http://www.w3.org/2000/svg" xmlns:xlink="http://www.w3.org/1999/xlink" x="0px" y="0px"
	 width="44px" height="24px" viewBox="0 0 44 24" style="enable-background:new 0 0 44 24;" xml:space="preserve">
<g id="_x37_51-eye-toolbar-selected_x40_2x.png">
	<g>
		<path d="M22,3.929c-2.204,0-3.991,1.791-3.991,4s1.787,4,3.991,4s3.991-1.791,3.991-4S24.204,3.929,22,3.929z M44,11.929
			c0-2.658-8.138-9.168-16.748-11.299c0.043,0.031,0.08,0.068,0.122,0.1C25.582,0.277,23.768,0,22,0
			c-1.768,0-3.582,0.277-5.375,0.729c0.042-0.031,0.08-0.068,0.123-0.1C8.138,2.761,0,9.27,0,11.929
			c0,0.011,0.007,0.025,0.007,0.036C0.007,11.976,0,11.989,0,12c0,3.2,11.786,12,22,12c10.215,0,22-8.8,22-12
			c0-0.011-0.007-0.024-0.007-0.035S44,11.939,44,11.929z M22,16.929c-4.971,0-9-4.029-9-9c0-1.566,0.409-3.032,1.114-4.313
			C16.668,2.649,19.379,2,22,2s5.332,0.649,7.886,1.615C30.591,4.896,31,6.362,31,7.929C31,12.899,26.971,16.929,22,16.929z"/>
	</g>
</g>
<g>
</g>
<g>
</g>
<g>
</g>
<g>
</g>
<g>
</g>
<g>
</g>
<g>
</g>
<g>
</g>
<g>
</g>
<g>
</g>
<g>
</g>
<g>
</g>
<g>
</g>
<g>
</g>
<g>
</g>
</svg>
