<?xml version="1.0" encoding="iso-8859-1"?>
<!-- Generator: Adobe Illustrator 16.0.4, SVG Export Plug-In . SVG Version: 6.00 Build 0)  -->
<!DOCTYPE svg PUBLIC "-//W3C//DTD SVG 1.1//EN" "http://www.w3.org/Graphics/SVG/1.1/DTD/svg11.dtd">
<svg version="1.1" id="Layer_1" xmlns="http://www.w3.org/2000/svg" xmlns:xlink="http://www.w3.org/1999/xlink" x="0px" y="0px"
	 width="44px" height="32px" viewBox="0 0 44 32" style="enable-background:new 0 0 44 32;" xml:space="preserve">
<g id="_x37_52-credit-card-toolbar-selected_x40_2x.png">
	<g>
		<path d="M0,28c0,2.21,1.791,4,4,4h36c2.209,0,4-1.79,4-4V12H0V28z M32,20h6v6h-6V20z M7,20h14c0.553,0,1,0.448,1,1
			c0,0.553-0.447,1-1,1H7c-0.553,0-1-0.447-1-1C6,20.448,6.447,20,7,20z M7,24h6c0.553,0,1,0.447,1,1s-0.447,1-1,1H7
			c-0.553,0-1-0.447-1-1S6.447,24,7,24z M40,0H4C1.791,0,0,1.791,0,4v2h44V4C44,1.791,42.209,0,40,0z"/>
	</g>
</g>
<g>
</g>
<g>
</g>
<g>
</g>
<g>
</g>
<g>
</g>
<g>
</g>
<g>
</g>
<g>
</g>
<g>
</g>
<g>
</g>
<g>
</g>
<g>
</g>
<g>
</g>
<g>
</g>
<g>
</g>
</svg>
