<?xml version="1.0" encoding="iso-8859-1"?>
<!-- Generator: Adobe Illustrator 16.0.4, SVG Export Plug-In . SVG Version: 6.00 Build 0)  -->
<!DOCTYPE svg PUBLIC "-//W3C//DTD SVG 1.1//EN" "http://www.w3.org/Graphics/SVG/1.1/DTD/svg11.dtd">
<svg version="1.1" id="Layer_1" xmlns="http://www.w3.org/2000/svg" xmlns:xlink="http://www.w3.org/1999/xlink" x="0px" y="0px"
	 width="40px" height="44px" viewBox="0 0 40 44" style="enable-background:new 0 0 40 44;" xml:space="preserve">
<g id="_x37_55-filing-cabinet-toolbar-selected_x40_2x.png">
	<g>
		<path d="M0,42c0,1.104,0.896,2,2,2h36c1.104,0,2-0.896,2-2V30H0V42z M14,35c0-0.552,0.448-1,1-1c0.553,0,1,0.448,1,1v1h8v-1
			c0-0.552,0.447-1,1-1s1,0.448,1,1v1c0,1.104-0.896,2-2,2h-8c-1.104,0-2-0.896-2-2V35z M0,28h40V16H0V28z M14,21
			c0-0.552,0.448-1,1-1c0.553,0,1,0.448,1,1v1h8v-1c0-0.552,0.447-1,1-1s1,0.448,1,1v1c0,1.104-0.896,2-2,2h-8c-1.104,0-2-0.896-2-2
			V21z M38,0H2C0.896,0,0,0.896,0,2v12h40V2C40,0.896,39.104,0,38,0z M26,8c0,1.105-0.896,2-2,2h-8c-1.104,0-2-0.895-2-2V7
			c0-0.552,0.448-1,1-1c0.553,0,1,0.448,1,1v1h8V7c0-0.552,0.447-1,1-1s1,0.448,1,1V8z"/>
	</g>
</g>
<g>
</g>
<g>
</g>
<g>
</g>
<g>
</g>
<g>
</g>
<g>
</g>
<g>
</g>
<g>
</g>
<g>
</g>
<g>
</g>
<g>
</g>
<g>
</g>
<g>
</g>
<g>
</g>
<g>
</g>
</svg>
