<?xml version="1.0" encoding="iso-8859-1"?>
<!-- Generator: Adobe Illustrator 16.0.4, SVG Export Plug-In . SVG Version: 6.00 Build 0)  -->
<!DOCTYPE svg PUBLIC "-//W3C//DTD SVG 1.1//EN" "http://www.w3.org/Graphics/SVG/1.1/DTD/svg11.dtd">
<svg version="1.1" id="Layer_1" xmlns="http://www.w3.org/2000/svg" xmlns:xlink="http://www.w3.org/1999/xlink" x="0px" y="0px"
	 width="36px" height="44px" viewBox="0 0 36 44" style="enable-background:new 0 0 36 44;" xml:space="preserve">
<g id="_x37_56-bell-toolbar-selected_x40_2x.png">
	<g>
		<path d="M12.236,39.653C12.954,42.162,15.261,44,18,44c2.74,0,5.046-1.838,5.764-4.347c-1.826,0.22-3.759,0.341-5.764,0.341
			S14.062,39.873,12.236,39.653z M29,15v-0.004c0-4.691-2.939-8.686-7.072-10.27C21.971,4.492,22,4.254,22,4.007
			C22,1.794,20.209,0,18,0s-4,1.794-4,4.007c0,0.247,0.03,0.485,0.072,0.72C9.939,6.311,7,10.305,7,14.996V15
			c0,17-6.999,11.329-7,16.995c0.001,3.314,8.06,6,18,6s17.999-2.686,18-6C36,26.329,29,32,29,15z"/>
	</g>
</g>
<g>
</g>
<g>
</g>
<g>
</g>
<g>
</g>
<g>
</g>
<g>
</g>
<g>
</g>
<g>
</g>
<g>
</g>
<g>
</g>
<g>
</g>
<g>
</g>
<g>
</g>
<g>
</g>
<g>
</g>
</svg>
