<?xml version="1.0" encoding="iso-8859-1"?>
<!-- Generator: Adobe Illustrator 16.0.4, SVG Export Plug-In . SVG Version: 6.00 Build 0)  -->
<!DOCTYPE svg PUBLIC "-//W3C//DTD SVG 1.1//EN" "http://www.w3.org/Graphics/SVG/1.1/DTD/svg11.dtd">
<svg version="1.1" id="Layer_1" xmlns="http://www.w3.org/2000/svg" xmlns:xlink="http://www.w3.org/1999/xlink" x="0px" y="0px"
	 width="44px" height="36px" viewBox="0 0 44 36" style="enable-background:new 0 0 44 36;" xml:space="preserve">
<g id="_x37_58-megaphone-toolbar-selected_x40_2x.png">
	<g>
		<path d="M4,10c-2.209,0-4,1.791-4,4v6c0,2.209,1.791,4,4,4c1.307,0,2.456-0.636,3.186-1.604L8,22.667v-11.2L7.239,11.67
			C6.513,10.662,5.337,10,4,10z M40,0c-2.209,0-4,1.791-4,4v28c0,2.21,1.791,4,4,4s4-1.79,4-4V4C44,1.791,42.209,0,40,0z M10,23.333
			l3.426,1.143l-0.23,0.691c-0.699,2.096,0.433,4.361,2.527,5.061l7.589,2.533c2.096,0.699,4.361-0.433,5.061-2.528l0.233-0.697
			L34,31.334V4.533l-24,6.4V23.333z M15.092,25.801l0.231-0.693l11.385,3.795L26.475,29.6c-0.35,1.048-1.482,1.613-2.53,1.264
			l-7.588-2.532C15.309,27.981,14.742,26.849,15.092,25.801z"/>
	</g>
</g>
<g>
</g>
<g>
</g>
<g>
</g>
<g>
</g>
<g>
</g>
<g>
</g>
<g>
</g>
<g>
</g>
<g>
</g>
<g>
</g>
<g>
</g>
<g>
</g>
<g>
</g>
<g>
</g>
<g>
</g>
</svg>
