<?xml version="1.0" encoding="iso-8859-1"?>
<!-- Generator: Adobe Illustrator 16.0.4, SVG Export Plug-In . SVG Version: 6.00 Build 0)  -->
<!DOCTYPE svg PUBLIC "-//W3C//DTD SVG 1.1//EN" "http://www.w3.org/Graphics/SVG/1.1/DTD/svg11.dtd">
<svg version="1.1" id="Layer_1" xmlns="http://www.w3.org/2000/svg" xmlns:xlink="http://www.w3.org/1999/xlink" x="0px" y="0px"
	 width="44px" height="44px" viewBox="0 0 44 44" style="enable-background:new 0 0 44 44;" xml:space="preserve">
<g id="_x37_61-gift-toolbar-selected_x40_2x.png">
	<g>
		<path d="M19.161,8c-0.064,0-0.119-0.006-0.182-0.007L19,8H19.161z M18,44h8V20h-8V44z M2,42c0,1.104,0.896,2,2,2h12V20H2V42z
			 M13.616,2c1.828,0,3.111,1.932,4.601,4.46c0.293,0.498,0.605,1.028,0.946,1.54h2.529c-0.587-0.628-1.172-1.57-1.752-2.555
			C18.511,3.02,16.734,0,13.616,0c-2.15,0-3.651,1.487-3.651,3.617c0,1.581,0.831,3.155,2.281,4.318
			c0.026,0.021,0.06,0.043,0.087,0.064H2c-1.104,0-2,0.896-2,2v8h16V7.596c-1.16-0.325-1.972-0.794-2.502-1.221
			c-0.974-0.781-1.532-1.786-1.532-2.758C11.965,2.59,12.567,2,13.616,2z M28,44h12c1.104,0,2-0.896,2-2V20H28V44z M42,8H31.636
			c0.027-0.021,0.061-0.043,0.087-0.064c1.449-1.163,2.281-2.737,2.281-4.318c0-2.13-1.502-3.617-3.651-3.617
			c-3.118,0-4.896,3.02-6.325,5.445C23.448,6.43,22.863,7.372,22.276,8h2.529c0.341-0.512,0.652-1.042,0.945-1.54
			C27.241,3.932,28.525,2,30.353,2c1.049,0,1.65,0.59,1.65,1.617c0,0.972-0.559,1.977-1.531,2.758
			C29.945,6.798,29.143,7.262,28,7.586V18h16v-8C44,8.896,43.104,8,42,8z M24.809,8H25l0.025-0.009C24.95,7.993,24.885,8,24.809,8z
			 M18,18h8v-8h-8V18z"/>
	</g>
</g>
<g>
</g>
<g>
</g>
<g>
</g>
<g>
</g>
<g>
</g>
<g>
</g>
<g>
</g>
<g>
</g>
<g>
</g>
<g>
</g>
<g>
</g>
<g>
</g>
<g>
</g>
<g>
</g>
<g>
</g>
</svg>
