<?xml version="1.0" encoding="iso-8859-1"?>
<!-- Generator: Adobe Illustrator 16.0.4, SVG Export Plug-In . SVG Version: 6.00 Build 0)  -->
<!DOCTYPE svg PUBLIC "-//W3C//DTD SVG 1.1//EN" "http://www.w3.org/Graphics/SVG/1.1/DTD/svg11.dtd">
<svg version="1.1" id="Layer_1" xmlns="http://www.w3.org/2000/svg" xmlns:xlink="http://www.w3.org/1999/xlink" x="0px" y="0px"
	 width="40px" height="44px" viewBox="0 0 40 44" style="enable-background:new 0 0 40 44;" xml:space="preserve">
<g id="_x37_62-shopping-bag-toolbar-selected_x40_2x.png">
	<g>
		<path d="M39.974,42.87l0.018-0.002l-4-32l-0.018,0.002C35.907,10.382,35.506,10,35,10h-6h-1.012V8.087
			c0-0.028,0.006-0.053,0.006-0.081C27.994,3.584,24.415,0,20,0s-7.994,3.584-7.994,8.006c0,0.02,0.003,0.037,0.003,0.057V10H14
			V8.072c0-0.024-0.007-0.042-0.007-0.067c0-3.312,2.689-5.998,6.007-5.998s6.008,2.686,6.008,5.998C26.008,8.03,26,8.048,26,8.072
			V10H14v4.171c1.168,0.412,2.009,1.511,2.009,2.815c0,1.655-1.346,2.997-3.007,2.997s-3.008-1.342-3.008-2.997
			c0-1.304,0.84-2.401,2.006-2.814V10h-1H5c-0.506,0-0.907,0.382-0.974,0.87l-0.018-0.002l-4,32l0.018,0.002
			C0.021,42.915,0,42.954,0,43c0,0.553,0.447,1,1,1h38c0.553,0,1-0.447,1-1C40,42.954,39.979,42.915,39.974,42.87z M27.002,19.983
			c-1.661,0-3.008-1.342-3.008-2.997c0-1.304,0.84-2.401,2.006-2.814V11h2v3.171c1.168,0.412,2.009,1.511,2.009,2.815
			C30.009,18.642,28.663,19.983,27.002,19.983z"/>
	</g>
</g>
<g>
</g>
<g>
</g>
<g>
</g>
<g>
</g>
<g>
</g>
<g>
</g>
<g>
</g>
<g>
</g>
<g>
</g>
<g>
</g>
<g>
</g>
<g>
</g>
<g>
</g>
<g>
</g>
<g>
</g>
</svg>
