<?xml version="1.0" encoding="iso-8859-1"?>
<!-- Generator: Adobe Illustrator 16.0.4, SVG Export Plug-In . SVG Version: 6.00 Build 0)  -->
<!DOCTYPE svg PUBLIC "-//W3C//DTD SVG 1.1//EN" "http://www.w3.org/Graphics/SVG/1.1/DTD/svg11.dtd">
<svg version="1.1" id="Layer_1" xmlns="http://www.w3.org/2000/svg" xmlns:xlink="http://www.w3.org/1999/xlink" x="0px" y="0px"
	 width="44px" height="36px" viewBox="0 0 44 36" style="enable-background:new 0 0 44 36;" xml:space="preserve">
<g id="_x37_67-photo-1-toolbar-selected_x40_2x.png">
	<g>
		<path d="M13.34,23c0.824,1.429,2.686,1.896,4.157,1.047c0.465-0.269,1.168-0.828,1.886-1.514c-0.234,0.965-0.368,1.854-0.368,2.39
			C19.015,26.622,20.351,28,22,28s2.985-1.378,2.985-3.077c0-0.537-0.137-1.429-0.372-2.394c0.72,0.688,1.424,1.249,1.89,1.518
			c1.472,0.85,3.333,0.382,4.157-1.047c0.824-1.428,0.3-3.274-1.172-4.124c-0.466-0.269-1.305-0.598-2.259-0.877
			c0.953-0.279,1.794-0.606,2.259-0.875c1.472-0.85,1.996-2.695,1.172-4.124c-0.824-1.428-2.686-1.896-4.157-1.047
			c-0.465,0.269-1.168,0.828-1.886,1.514c0.234-0.965,0.368-1.853,0.368-2.39C24.985,9.378,23.649,8,22,8s-2.985,1.378-2.985,3.077
			c0,0.537,0.137,1.429,0.372,2.394c-0.719-0.687-1.424-1.249-1.89-1.518c-1.472-0.85-3.333-0.381-4.157,1.047
			c-0.824,1.429-0.3,3.274,1.172,4.124c0.466,0.27,1.305,0.598,2.259,0.878c-0.953,0.278-1.793,0.605-2.259,0.874
			C13.04,19.726,12.516,21.572,13.34,23z M22,17c0.553,0,1,0.448,1,1c0,0.553-0.447,1-1,1s-1-0.447-1-1C21,17.448,21.447,17,22,17z
			 M42,0H2C0.896,0,0,0.896,0,2v32c0,1.104,0.896,2,2,2h40c1.104,0,2-0.896,2-2V2C44,0.896,43.104,0,42,0z M38,30H6V6h32V30z"/>
	</g>
</g>
<g>
</g>
<g>
</g>
<g>
</g>
<g>
</g>
<g>
</g>
<g>
</g>
<g>
</g>
<g>
</g>
<g>
</g>
<g>
</g>
<g>
</g>
<g>
</g>
<g>
</g>
<g>
</g>
<g>
</g>
</svg>
