<?xml version="1.0" encoding="iso-8859-1"?>
<!-- Generator: Adobe Illustrator 16.0.4, SVG Export Plug-In . SVG Version: 6.00 Build 0)  -->
<!DOCTYPE svg PUBLIC "-//W3C//DTD SVG 1.1//EN" "http://www.w3.org/Graphics/SVG/1.1/DTD/svg11.dtd">
<svg version="1.1" id="Layer_1" xmlns="http://www.w3.org/2000/svg" xmlns:xlink="http://www.w3.org/1999/xlink" x="0px" y="0px"
	 width="44px" height="44px" viewBox="0 0 44 44" style="enable-background:new 0 0 44 44;" xml:space="preserve">
<g id="_x37_68-female-toolbar-selected_x40_2x.png">
	<g>
		<path d="M22,0C9.85,0,0,9.85,0,22s9.85,22,22,22s22-9.85,22-22S34.15,0,22,0z M34.771,37.388c-0.032-0.033-0.064-0.066-0.097-0.1
			c-0.053,0.097-0.115,0.204-0.187,0.32C31.064,40.351,26.728,42,22,42c-5.457,0-10.398-2.191-14.007-5.734
			c2.751-2.805,3.175-3.047,8.106-5.233l0.482-0.214c0.198-0.105,0.501-0.336,0.513-0.726c-1.165,0.106-3.543,0.041-5.923-1.741
			l-0.694-0.519l0.613-0.612c1.284-1.28,1.284-6.006,1.284-11.478c0-6.018,3.747-9.757,9.778-9.757c2.939,0,9.777,0.951,9.777,9.757
			c0,6.267,0,10.794,1.089,11.337l1.225,0.611l-1.174,0.704c-0.145,0.087-3.123,1.855-6.095,1.756
			c0.321,0.44,0.775,0.681,0.783,0.684c0.245,0.111,5.126,2.364,8.116,5.55C35.518,36.73,35.154,37.07,34.771,37.388z"/>
	</g>
</g>
<g>
</g>
<g>
</g>
<g>
</g>
<g>
</g>
<g>
</g>
<g>
</g>
<g>
</g>
<g>
</g>
<g>
</g>
<g>
</g>
<g>
</g>
<g>
</g>
<g>
</g>
<g>
</g>
<g>
</g>
</svg>
