<?xml version="1.0" encoding="iso-8859-1"?>
<!-- Generator: Adobe Illustrator 16.0.4, SVG Export Plug-In . SVG Version: 6.00 Build 0)  -->
<!DOCTYPE svg PUBLIC "-//W3C//DTD SVG 1.1//EN" "http://www.w3.org/Graphics/SVG/1.1/DTD/svg11.dtd">
<svg version="1.1" id="Layer_1" xmlns="http://www.w3.org/2000/svg" xmlns:xlink="http://www.w3.org/1999/xlink" x="0px" y="0px"
	 width="44px" height="44px" viewBox="0 0 44 44" style="enable-background:new 0 0 44 44;" xml:space="preserve">
<g id="_x37_69-male-toolbar-selected_x40_2x.png">
	<g>
		<path d="M22,0C9.85,0,0,9.85,0,22s9.85,22,22,22s22-9.85,22-22S34.15,0,22,0z M22,42c-5.544,0-10.56-2.258-14.182-5.902
			c1.799-1.538,4.149-2.692,7.437-4.154l0.979-0.436c2.864-3.051-0.558-7.983-0.862-8.409c-0.271-0.297-1.557-1.858-0.926-4.114
			c-0.323-1.1-1.504-5.783,0.74-8.913c1.301-1.815,3.475-2.744,6.461-2.763c2.834-0.689,5.023-0.22,6.517,1.402
			c2.509,2.724,2.079,7.722,1.594,9.521c0.188,0.638,0.405,2.222-0.84,4.726c-0.217,0.436-0.465,0.888-0.72,1.351
			c-1.679,3.053-2.61,5.212-0.311,7.149c0.851,0.255,4.928,1.677,8.144,4.786C32.42,39.801,27.469,42,22,42z"/>
	</g>
</g>
<g>
</g>
<g>
</g>
<g>
</g>
<g>
</g>
<g>
</g>
<g>
</g>
<g>
</g>
<g>
</g>
<g>
</g>
<g>
</g>
<g>
</g>
<g>
</g>
<g>
</g>
<g>
</g>
<g>
</g>
</svg>
