<?xml version="1.0" encoding="iso-8859-1"?>
<!-- Generator: Adobe Illustrator 16.0.4, SVG Export Plug-In . SVG Version: 6.00 Build 0)  -->
<!DOCTYPE svg PUBLIC "-//W3C//DTD SVG 1.1//EN" "http://www.w3.org/Graphics/SVG/1.1/DTD/svg11.dtd">
<svg version="1.1" id="Layer_1" xmlns="http://www.w3.org/2000/svg" xmlns:xlink="http://www.w3.org/1999/xlink" x="0px" y="0px"
	 width="44.029px" height="40.031px" viewBox="0 0 44.029 40.031" style="enable-background:new 0 0 44.029 40.031;"
	 xml:space="preserve">
<g id="_x37_75-scissors-toolbar-selected_x40_2x.png">
	<g>
		<path d="M24.231,22.892c-1.37,1.073-2.579,2.024-3.661,2.877c8.78,7.729,17.502,14.655,22.643,9.52l0.816-0.816L26.404,21.263
			L24.231,22.892z M23.077,21.295L44.029,5.591l-0.816-0.816c-5.62-5.614-15.52,3.186-25.097,11.693l-0.311,0.276
			c-3.148,2.797-6.243,5.268-9.222,7.005c-1.736,1.013-3.746,2.258-5.309,3.367c-0.158,0.101-0.306,0.211-0.454,0.323
			c-0.06,0.043-0.134,0.092-0.191,0.135l0.01,0.014C1.043,28.872,0,30.817,0,33.026c0,3.868,3.139,7.005,7.01,7.005
			s7.01-3.137,7.01-7.005c0-1.364-0.406-2.627-1.081-3.703C14.166,28.338,17.251,25.86,23.077,21.295z M19.425,19.246
			c0.435,0,0.787,0.345,0.787,0.77c0,0.426-0.353,0.771-0.787,0.771s-0.787-0.345-0.787-0.771
			C18.638,19.591,18.99,19.246,19.425,19.246z M7.01,34.026c-0.553,0-1.001-0.448-1.001-1c0-0.553,0.448-1.001,1.001-1.001
			s1.001,0.448,1.001,1.001C8.011,33.578,7.562,34.026,7.01,34.026z M2.654,12.455L2.63,12.488c1.611,1.209,3.979,2.673,5.954,3.825
			c1.197,0.698,2.419,1.542,3.649,2.451c1.283-1.004,2.655-2.153,4.162-3.491l0.322-0.287c0.244-0.218,0.487-0.434,0.731-0.65
			c-2.35-1.861-3.781-3.011-4.522-3.605c0.683-1.081,1.093-2.353,1.093-3.725C14.02,3.137,10.881,0,7.01,0S0,3.137,0,7.006
			C0,9.221,1.049,11.172,2.654,12.455z M7.01,6.005c0.553,0,1.001,0.448,1.001,1.001s-0.448,1-1.001,1s-1.001-0.447-1.001-1
			S6.457,6.005,7.01,6.005z"/>
	</g>
</g>
<g>
</g>
<g>
</g>
<g>
</g>
<g>
</g>
<g>
</g>
<g>
</g>
<g>
</g>
<g>
</g>
<g>
</g>
<g>
</g>
<g>
</g>
<g>
</g>
<g>
</g>
<g>
</g>
<g>
</g>
</svg>
