<?xml version="1.0" encoding="iso-8859-1"?>
<!-- Generator: Adobe Illustrator 16.0.4, SVG Export Plug-In . SVG Version: 6.00 Build 0)  -->
<!DOCTYPE svg PUBLIC "-//W3C//DTD SVG 1.1//EN" "http://www.w3.org/Graphics/SVG/1.1/DTD/svg11.dtd">
<svg version="1.1" id="Layer_1" xmlns="http://www.w3.org/2000/svg" xmlns:xlink="http://www.w3.org/1999/xlink" x="0px" y="0px"
	 width="43.962px" height="43px" viewBox="0 0 43.962 43" style="enable-background:new 0 0 43.962 43;" xml:space="preserve">
<g id="_x37_76-recycle-toolbar-selected_x40_2x.png">
	<g>
		<path d="M11.438,25.44l1.497-2.432l1.055,2.342l0.015-0.007c0.084,0.194,0.213,0.371,0.41,0.485
			c0.484,0.279,1.102,0.116,1.379-0.364c0.166-0.287,0.156-0.616,0.032-0.899l0.003-0.001l-3.021-6.767l1.534,0.956l0.006-0.008
			c0.411,0.25,0.927,0.17,1.255-0.174l0.036,0.032l0.119-0.194l0.002,0.001l3.003-4.888l1.999-3.251l-5.97-9.719
			c-1.751,0.756-2.668,2.037-2.745,2.155l-5.778,9.633c-0.026,0.029-0.061,0.048-0.085,0.082c-0.313,0.454-0.203,1.078,0.247,1.395
			c0.014,0.01,0.029,0.01,0.043,0.019l-0.007,0.011l2.158,1.345l-7.691,0.772l0.003,0.024c-0.302,0.032-0.586,0.186-0.749,0.468
			c-0.272,0.472-0.108,1.075,0.366,1.35c0.194,0.112,0.408,0.135,0.615,0.109l0.004,0.034l2.225-0.216
			c-0.524,0.767-1.178,1.756-1.874,2.902c-1.73,2.85-2.032,4.732-0.664,7.375h-0.03l4.353,7.605l6.25-10.181L11.438,25.44z
			 M43.251,21.858l-4.317-8.206l-0.014,0.007c-0.013-0.031-0.012-0.064-0.027-0.096c-0.243-0.467-0.808-0.65-1.289-0.446
			l-0.014-0.031l-2.27,1.009l3.368-7.488l-0.022-0.009c0.122-0.278,0.131-0.601-0.031-0.883c-0.272-0.472-0.877-0.632-1.351-0.358
			c-0.194,0.112-0.32,0.286-0.401,0.478L36.851,5.82l-1.27,2.799c-0.736-1.16-1.733-2.797-2.511-4.337
			C31.439,1.066,29.674,0,26.082,0h-8.638c-0.218,0-0.408,0.036-0.612,0.055l6.867,11.18l-0.001,0.001l1.27,2.064l-0.912-0.093
			l-0.002,0.017c-0.21-0.025-0.427-0.002-0.624,0.112c-0.483,0.278-0.65,0.895-0.372,1.375c0.165,0.287,0.454,0.443,0.761,0.479
			v0.003l7.311,0.766l-2.539,1.128l0.008,0.017c-0.013,0.005-0.024,0.006-0.036,0.012c-0.486,0.247-0.681,0.844-0.436,1.333
			c0.008,0.017,0.023,0.025,0.032,0.041L32.777,26h11.091C44.256,23.643,43.321,21.995,43.251,21.858z M34.016,28.014h-6.237
			l1.018-1.414l-0.013-0.01c0.126-0.169,0.215-0.369,0.215-0.598c0-0.559-0.45-1.012-1.005-1.012c-0.331,0-0.611,0.172-0.795,0.422
			L27.196,25.4l-4.2,5.795V29c0-0.553-0.447-1-1-1c-0.021,0-0.037,0.011-0.058,0.012h-9.742l-5.833,9.502
			C8.253,39.965,10.996,40,10.996,40h11c0.553,0,1-0.447,1-1v-2.237l4.2,5.837l0.02-0.014C27.396,42.831,27.67,43,27.996,43
			c0.544,0,0.985-0.443,0.985-0.991c0-0.225-0.088-0.422-0.213-0.588l0.027-0.021l-1.009-1.412c1.615,0.003,3.737,0.006,3.737-0.005
			c3.708,0,5.837-0.793,7.664-4.134l-0.012-0.007l3.925-7.536c0.054-0.105,0.078-0.202,0.127-0.307h-9.221L34.016,28.014z"/>
	</g>
</g>
<g>
</g>
<g>
</g>
<g>
</g>
<g>
</g>
<g>
</g>
<g>
</g>
<g>
</g>
<g>
</g>
<g>
</g>
<g>
</g>
<g>
</g>
<g>
</g>
<g>
</g>
<g>
</g>
<g>
</g>
</svg>
