<?xml version="1.0" encoding="iso-8859-1"?>
<!-- Generator: Adobe Illustrator 16.0.4, SVG Export Plug-In . SVG Version: 6.00 Build 0)  -->
<!DOCTYPE svg PUBLIC "-//W3C//DTD SVG 1.1//EN" "http://www.w3.org/Graphics/SVG/1.1/DTD/svg11.dtd">
<svg version="1.1" id="Layer_1" xmlns="http://www.w3.org/2000/svg" xmlns:xlink="http://www.w3.org/1999/xlink" x="0px" y="0px"
	 width="39.992px" height="43.996px" viewBox="0 0 39.992 43.996" style="enable-background:new 0 0 39.992 43.996;"
	 xml:space="preserve">
<g id="_x37_77-thumbs-up-toolbar-selected_x40_2x.png">
	<g>
		<path d="M39.924,32.064c-0.22-1.021-0.676-1.916-1.165-2.378c1.192-1.374,1.233-3.085,1.233-4.114c0-1.916-0.74-3.44-2.293-4.344
			c0.564-2.166-0.075-3.787-1.236-4.392c-0.881-0.459-1.844-0.638-2.879-0.638c-1.176,0-2.447,0.231-3.801,0.546
			c-1.582,0.366-3.402,0.744-5.062,0.744c-0.496,0-0.979-0.034-1.434-0.112c-1.408-0.239-1.717-0.604-1.786-0.75
			c-0.224-0.479,0.448-1.686,1.096-2.852c1.048-1.883,2.35-4.57,2.35-7.385c0-4-2.399-6.391-4.722-6.391
			c-1.451,0-2.917,1.014-2.917,3.277c0,3.826-1.614,4.448-7.688,10.65c-2.549,2.601-3.577,4.551-4.258,5.84
			C4.42,21.553,3.322,21.99,1.08,22c-0.026-0.002-0.049-0.016-0.076-0.016C0.449,21.984,0,22.435,0,22.989
			c0,0.015,0.005,0.027,0.006,0.041v16.951C0.006,39.992,0,40.002,0,40.013c0,0.417,0.235,0.828,0.615,0.927
			c0.297,0.079,0.558,0.055,0.5,0.062c4.932,0.007,7.123,0.442,9.647,1.394c2.944,1.107,6.078,1.602,14.433,1.602
			c6.887,0,11.598-1.189,12.984-3.746c0.828-1.529-0.145-2.521-0.326-3.176C39.264,35.16,40.262,33.639,39.924,32.064z"/>
	</g>
</g>
<g>
</g>
<g>
</g>
<g>
</g>
<g>
</g>
<g>
</g>
<g>
</g>
<g>
</g>
<g>
</g>
<g>
</g>
<g>
</g>
<g>
</g>
<g>
</g>
<g>
</g>
<g>
</g>
<g>
</g>
</svg>
