<?xml version="1.0" encoding="iso-8859-1"?>
<!-- Generator: Adobe Illustrator 16.0.4, SVG Export Plug-In . SVG Version: 6.00 Build 0)  -->
<!DOCTYPE svg PUBLIC "-//W3C//DTD SVG 1.1//EN" "http://www.w3.org/Graphics/SVG/1.1/DTD/svg11.dtd">
<svg version="1.1" id="Layer_1" xmlns="http://www.w3.org/2000/svg" xmlns:xlink="http://www.w3.org/1999/xlink" x="0px" y="0px"
	 width="43.991px" height="40.008px" viewBox="0 0 43.991 40.008" style="enable-background:new 0 0 43.991 40.008;"
	 xml:space="preserve">
<g id="_x37_79-users-toolbar-selected_x40_2x.png">
	<g>
		<path d="M27.808,31.255c-1.178-0.612-2.145-1.181-3.156-1.854c-1.518-1.007-2.257-1.396-2.257-4.276
			c0-3.608,2.761-5.938,2.786-5.959c0,0,1.523-1.787,0.389-4.799c2.012-4.775-0.423-8.725-0.939-9.48
			C23.321,0.852,20.527,0,18.403,0c-2.518,0-4.754,1.182-4.789,1.204c-2.33,0.998-3.919,2.591-4.723,4.732
			c-1.297,3.46-0.264,7.322,0.307,8.427c-0.979,3.951,0.375,4.807,0.375,4.807c0.238,0.264,2.782,2.301,2.782,5.955
			c0,4.16-4.405,5.109-4.405,5.109C5.37,31.144,0,33.035,0,39.182v0.826h33.991l-0.014-0.842
			C33.896,34.205,30.341,32.572,27.808,31.255z M43.979,37.25c-0.072-4.465-3.209-5.935-5.444-7.12
			c-1.039-0.552-1.892-1.062-2.785-1.669c-1.339-0.905-1.991-1.256-1.991-3.848c0-3.248,2.436-5.344,2.459-5.363
			c0,0,1.344-1.608,0.342-4.319c1.775-4.298-0.373-7.853-0.828-8.532C34.577,2.767,32.111,2,30.237,2
			c-2.104,0-3.963,0.943-4.184,1.062c0.133,0.298,0.258,0.612,0.374,0.945c0.801,1.269,2.998,5.413,1.246,10.417
			c0.8,2.885-0.205,5.122-0.987,6.04l-0.11,0.126l-0.116,0.1c-0.021,0.018-2.082,1.827-2.082,4.436c0,1.709,0.046,1.739,1.21,2.509
			l0.154,0.102c0.951,0.633,1.867,1.171,2.972,1.745l0.303,0.157c2.392,1.235,6.287,3.251,6.87,8.37h8.104L43.979,37.25z"/>
	</g>
</g>
<g>
</g>
<g>
</g>
<g>
</g>
<g>
</g>
<g>
</g>
<g>
</g>
<g>
</g>
<g>
</g>
<g>
</g>
<g>
</g>
<g>
</g>
<g>
</g>
<g>
</g>
<g>
</g>
<g>
</g>
</svg>
