<?xml version="1.0" encoding="iso-8859-1"?>
<!-- Generator: Adobe Illustrator 16.0.4, SVG Export Plug-In . SVG Version: 6.00 Build 0)  -->
<!DOCTYPE svg PUBLIC "-//W3C//DTD SVG 1.1//EN" "http://www.w3.org/Graphics/SVG/1.1/DTD/svg11.dtd">
<svg version="1.1" id="Layer_1" xmlns="http://www.w3.org/2000/svg" xmlns:xlink="http://www.w3.org/1999/xlink" x="0px" y="0px"
	 width="40px" height="44px" viewBox="0 0 40 44" style="enable-background:new 0 0 40 44;" xml:space="preserve">
<g id="_x37_80-building-toolbar-selected_x40_2x.png">
	<g>
		<path d="M12,18H8v4h4V18z M22,8h-4v4h4V8z M32,28h-4v4h4V28z M12,28H8v4h4V28z M18,44h4V28h-4V44z M38,0H2C0.896,0,0,0.896,0,2v40
			c0,1.104,0.896,2,2,2h14V26h8v18h14c1.104,0,2-0.896,2-2V2C40,0.896,39.104,0,38,0z M14,34H6v-8h8V34z M14,24H6v-8h8V24z M14,14H6
			V6h8V14z M24,24h-8v-8h8V24z M24,14h-8V6h8V14z M34,34h-8v-8h8V34z M34,24h-8v-8h8V24z M34,14h-8V6h8V14z M32,8h-4v4h4V8z M22,18
			h-4v4h4V18z M32,18h-4v4h4V18z M12,8H8v4h4V8z"/>
	</g>
</g>
<g>
</g>
<g>
</g>
<g>
</g>
<g>
</g>
<g>
</g>
<g>
</g>
<g>
</g>
<g>
</g>
<g>
</g>
<g>
</g>
<g>
</g>
<g>
</g>
<g>
</g>
<g>
</g>
<g>
</g>
</svg>
