<?xml version="1.0" encoding="iso-8859-1"?>
<!-- Generator: Adobe Illustrator 16.0.4, SVG Export Plug-In . SVG Version: 6.00 Build 0)  -->
<!DOCTYPE svg PUBLIC "-//W3C//DTD SVG 1.1//EN" "http://www.w3.org/Graphics/SVG/1.1/DTD/svg11.dtd">
<svg version="1.1" id="Layer_1" xmlns="http://www.w3.org/2000/svg" xmlns:xlink="http://www.w3.org/1999/xlink" x="0px" y="0px"
	 width="44.021px" height="44.021px" viewBox="0 0 44.021 44.021" style="enable-background:new 0 0 44.021 44.021;"
	 xml:space="preserve">
<g id="_x37_82-compass-toolbar-selected_x40_2x.png">
	<g>
		<path d="M34.665,27.921c0.318-0.682,0.604-1.382,0.811-2.117l8.545-3.794l-8.545-3.793c-1.315-4.679-4.994-8.356-9.673-9.673
			L22.01,0l-3.793,8.544c-0.737,0.208-1.438,0.492-2.12,0.812l11.156,7.412L34.665,27.921z M9.353,16.104
			c-0.318,0.68-0.602,1.379-0.809,2.113L0,22.01l8.544,3.794c1.316,4.678,4.994,8.356,9.673,9.672l3.793,8.545l3.793-8.545
			c0.744-0.209,1.451-0.498,2.139-0.821l-11.219-7.451L9.353,16.104z M0.01,0.01l18.705,25.201l25.274,18.758L25.252,18.768
			L0.01,0.01z M22.01,24.01c-1.104,0-2-0.896-2-2s0.896-2,2-2s2,0.896,2,2S23.114,24.01,22.01,24.01z"/>
	</g>
</g>
<g>
</g>
<g>
</g>
<g>
</g>
<g>
</g>
<g>
</g>
<g>
</g>
<g>
</g>
<g>
</g>
<g>
</g>
<g>
</g>
<g>
</g>
<g>
</g>
<g>
</g>
<g>
</g>
<g>
</g>
</svg>
