<?xml version="1.0" encoding="iso-8859-1"?>
<!-- Generator: Adobe Illustrator 16.0.4, SVG Export Plug-In . SVG Version: 6.00 Build 0)  -->
<!DOCTYPE svg PUBLIC "-//W3C//DTD SVG 1.1//EN" "http://www.w3.org/Graphics/SVG/1.1/DTD/svg11.dtd">
<svg version="1.1" id="Layer_1" xmlns="http://www.w3.org/2000/svg" xmlns:xlink="http://www.w3.org/1999/xlink" x="0px" y="0px"
	 width="31.932px" height="43.951px" viewBox="0 0 31.932 43.951" style="enable-background:new 0 0 31.932 43.951;"
	 xml:space="preserve">
<g id="_x37_83-combination-lock-toolbar-selected_x40_2x.png">
	<g>
		<path d="M15.966,26c-1.104,0-2,0.896-2,2s0.896,2,2,2s2-0.896,2-2S17.07,26,15.966,26z M25.966,28c0-0.552,0.448-1,1-1h4.966
			c-0.227-3.664-1.708-6.974-3.994-9.558l-3.486,3.487c-0.391,0.39-1.024,0.39-1.414,0c-0.391-0.391-0.391-1.024,0-1.415
			l3.484-3.484c-0.792-0.698-1.636-1.34-2.556-1.872V8c0-4.418-3.582-8-8-8s-8,3.582-8,8v6.158c-0.92,0.533-1.764,1.174-2.556,1.872
			l3.484,3.484c0.391,0.391,0.391,1.024,0,1.415c-0.391,0.39-1.023,0.39-1.414-0.001l-3.486-3.486C1.708,20.026,0.227,23.336,0,27
			h4.966c0.553,0,1,0.448,1,1c0,0.553-0.447,1-1,1H0.017c0.227,3.663,1.692,6.98,3.972,9.563l3.492-3.492
			c0.391-0.391,1.023-0.391,1.414,0s0.391,1.023,0,1.414l-3.492,3.492c2.583,2.28,5.9,3.747,9.563,3.974V39c0-0.552,0.447-1,1-1
			s1,0.448,1,1v4.951c3.663-0.227,6.98-1.693,9.563-3.974l-3.492-3.492c-0.391-0.391-0.391-1.023,0-1.414s1.023-0.391,1.414,0
			l3.492,3.492c2.279-2.583,3.745-5.9,3.972-9.563h-4.949C26.414,29,25.966,28.553,25.966,28z M15.966,34c-3.313,0-6-2.687-6-6
			s2.687-6,6-6s6,2.687,6,6S19.279,34,15.966,34z M21.966,12.403v0.771c-1.56-0.632-3.242-1.013-5-1.124V17c0,0.553-0.447,1-1,1
			s-1-0.447-1-1v-4.95c-1.758,0.111-3.44,0.492-5,1.124v-0.771V8c0-3.313,2.687-6,6-6s6,2.687,6,6V12.403z"/>
	</g>
</g>
<g>
</g>
<g>
</g>
<g>
</g>
<g>
</g>
<g>
</g>
<g>
</g>
<g>
</g>
<g>
</g>
<g>
</g>
<g>
</g>
<g>
</g>
<g>
</g>
<g>
</g>
<g>
</g>
<g>
</g>
</svg>
