<?xml version="1.0" encoding="iso-8859-1"?>
<!-- Generator: Adobe Illustrator 16.0.4, SVG Export Plug-In . SVG Version: 6.00 Build 0)  -->
<!DOCTYPE svg PUBLIC "-//W3C//DTD SVG 1.1//EN" "http://www.w3.org/Graphics/SVG/1.1/DTD/svg11.dtd">
<svg version="1.1" id="Layer_1" xmlns="http://www.w3.org/2000/svg" xmlns:xlink="http://www.w3.org/1999/xlink" x="0px" y="0px"
	 width="44px" height="40px" viewBox="0 0 44 40" style="enable-background:new 0 0 44 40;" xml:space="preserve">
<g id="_x37_86-browser-toolbar-selected_x40_2x.png">
	<g>
		<path d="M40,0H4C1.791,0,0,1.791,0,4v6h44V4C44,1.791,42.209,0,40,0z M6,8C4.896,8,4,7.105,4,6c0-1.104,0.896-2,2-2s2,0.896,2,2
			C8,7.105,7.104,8,6,8z M12,8c-1.104,0-2-0.895-2-2c0-1.104,0.896-2,2-2s2,0.896,2,2C14,7.105,13.104,8,12,8z M18,8
			c-1.104,0-2-0.895-2-2c0-1.104,0.896-2,2-2s2,0.896,2,2C20,7.105,19.104,8,18,8z M0,36c0,2.209,1.791,4,4,4h36
			c2.209,0,4-1.791,4-4V12H0V36z M24,17c0-0.553,0.447-1,1-1h12c0.553,0,1,0.447,1,1v16c0,0.553-0.447,1-1,1H25
			c-0.553,0-1-0.447-1-1V17z M7,16h12c0.553,0,1,0.447,1,1s-0.447,1-1,1H7c-0.553,0-1-0.447-1-1S6.447,16,7,16z M7,24h12
			c0.553,0,1,0.448,1,1c0,0.553-0.447,1-1,1H7c-0.553,0-1-0.447-1-1C6,24.448,6.447,24,7,24z M7,32h12c0.553,0,1,0.448,1,1
			c0,0.553-0.447,1-1,1H7c-0.553,0-1-0.447-1-1C6,32.448,6.447,32,7,32z"/>
	</g>
</g>
<g>
</g>
<g>
</g>
<g>
</g>
<g>
</g>
<g>
</g>
<g>
</g>
<g>
</g>
<g>
</g>
<g>
</g>
<g>
</g>
<g>
</g>
<g>
</g>
<g>
</g>
<g>
</g>
<g>
</g>
</svg>
