<?xml version="1.0" encoding="iso-8859-1"?>
<!-- Generator: Adobe Illustrator 16.0.4, SVG Export Plug-In . SVG Version: 6.00 Build 0)  -->
<!DOCTYPE svg PUBLIC "-//W3C//DTD SVG 1.1//EN" "http://www.w3.org/Graphics/SVG/1.1/DTD/svg11.dtd">
<svg version="1.1" id="Layer_1" xmlns="http://www.w3.org/2000/svg" xmlns:xlink="http://www.w3.org/1999/xlink" x="0px" y="0px"
	 width="44px" height="40px" viewBox="0 0 44 40" style="enable-background:new 0 0 44 40;" xml:space="preserve">
<g id="_x37_87-browser-windows-toolbar-selected_x40_2x.png">
	<g>
		<path d="M34,26V12H0v14c0,2.209,1.791,4,4,4h26C32.209,30,34,28.209,34,26z M34,4c0-2.209-1.791-4-4-4H4C1.791,0,0,1.791,0,4v6h34
			V4z M6,8C4.896,8,4,7.105,4,6c0-1.104,0.896-2,2-2s2,0.896,2,2C8,7.105,7.104,8,6,8z M12,8c-1.104,0-2-0.895-2-2
			c0-1.104,0.896-2,2-2s2,0.896,2,2C14,7.105,13.104,8,12,8z M18,8c-1.104,0-2-0.895-2-2c0-1.104,0.896-2,2-2s2,0.896,2,2
			C20,7.105,19.104,8,18,8z M40,10h-4v16c0,3.313-2.687,6-6,6H10v4c0,2.209,1.791,4,4,4h26c2.209,0,4-1.791,4-4V14
			C44,11.791,42.209,10,40,10z"/>
	</g>
</g>
<g>
</g>
<g>
</g>
<g>
</g>
<g>
</g>
<g>
</g>
<g>
</g>
<g>
</g>
<g>
</g>
<g>
</g>
<g>
</g>
<g>
</g>
<g>
</g>
<g>
</g>
<g>
</g>
<g>
</g>
</svg>
