<?xml version="1.0" encoding="iso-8859-1"?>
<!-- Generator: Adobe Illustrator 16.0.4, SVG Export Plug-In . SVG Version: 6.00 Build 0)  -->
<!DOCTYPE svg PUBLIC "-//W3C//DTD SVG 1.1//EN" "http://www.w3.org/Graphics/SVG/1.1/DTD/svg11.dtd">
<svg version="1.1" id="Layer_1" xmlns="http://www.w3.org/2000/svg" xmlns:xlink="http://www.w3.org/1999/xlink" x="0px" y="0px"
	 width="44px" height="36px" viewBox="0 0 44 36" style="enable-background:new 0 0 44 36;" xml:space="preserve">
<g id="_x37_88-video-film-strip-toolbar-selected_x40_2x.png">
	<g>
		<path d="M38.013,11.997H26.004v12.006h12.009V11.997z M18.013,11.997H6.004v12.006h12.009V11.997z M40,0H4C1.791,0,0,1.791,0,4v28
			c0,2.209,1.791,4,4,4h36c2.209,0,4-1.791,4-4V4C44,1.791,42.209,0,40,0z M29.994,4.004h4.023v3.989h-4.023V4.004z M39.991,9.985
			v16.03H23.995V9.985H39.991z M23.994,4.004h4.023v3.989h-4.023V4.004z M9.994,4.004h4.023v3.989H9.994V4.004z M19.991,9.985v16.03
			H3.995V9.985H19.991z M3.994,4.004h4.023v3.989H3.994V4.004z M8.018,31.993H3.994v-3.989h4.023V31.993z M14.018,31.993H9.994
			v-3.989h4.023V31.993z M20.018,31.993h-4.023v-3.989h4.023V31.993z M20.018,7.993h-4.023V4.004h4.023V7.993z M28.018,31.993
			h-4.023v-3.989h4.023V31.993z M34.018,31.993h-4.023v-3.989h4.023V31.993z M40.018,31.993h-4.023v-3.989h4.023V31.993z
			 M40.018,7.993h-4.023V4.004h4.023V7.993z"/>
	</g>
</g>
<g>
</g>
<g>
</g>
<g>
</g>
<g>
</g>
<g>
</g>
<g>
</g>
<g>
</g>
<g>
</g>
<g>
</g>
<g>
</g>
<g>
</g>
<g>
</g>
<g>
</g>
<g>
</g>
<g>
</g>
</svg>
