<?xml version="1.0" encoding="iso-8859-1"?>
<!-- Generator: Adobe Illustrator 16.0.4, SVG Export Plug-In . SVG Version: 6.00 Build 0)  -->
<!DOCTYPE svg PUBLIC "-//W3C//DTD SVG 1.1//EN" "http://www.w3.org/Graphics/SVG/1.1/DTD/svg11.dtd">
<svg version="1.1" id="Layer_1" xmlns="http://www.w3.org/2000/svg" xmlns:xlink="http://www.w3.org/1999/xlink" x="0px" y="0px"
	 width="44px" height="44px" viewBox="0 0 44 44" style="enable-background:new 0 0 44 44;" xml:space="preserve">
<g id="_x37_90-golf-toolbar-selected_x40_2x.png">
	<g>
		<path d="M0,38c0,2.432,4.107,4.521,10,5.464V32.547C4.11,33.488,0,35.569,0,38z M31.425,16.897C31.763,16.737,32,16.398,32,16
			s-0.237-0.736-0.575-0.896l0.003-0.007L18.111,8.886C19.254,7.97,20,6.579,20,5c0-2.761-2.238-5-5-5s-5,2.239-5,5
			c0,1.631,0.792,3.064,2,3.978V30v2.275v11.46C13.581,43.907,15.26,44,17,44c0.338,0,0.667-0.011,1-0.018V30v-6.833l13.428-6.263
			L31.425,16.897z M40,32c-2.209,0-4,1.791-4,4s1.791,4,4,4s4-1.791,4-4S42.209,32,40,32z M20,32.105v11.796
			C27.955,43.4,34,40.952,34,38C34,35.049,27.954,32.606,20,32.105z"/>
	</g>
</g>
<g>
</g>
<g>
</g>
<g>
</g>
<g>
</g>
<g>
</g>
<g>
</g>
<g>
</g>
<g>
</g>
<g>
</g>
<g>
</g>
<g>
</g>
<g>
</g>
<g>
</g>
<g>
</g>
<g>
</g>
</svg>
