<?xml version="1.0" encoding="iso-8859-1"?>
<!-- Generator: Adobe Illustrator 16.0.4, SVG Export Plug-In . SVG Version: 6.00 Build 0)  -->
<!DOCTYPE svg PUBLIC "-//W3C//DTD SVG 1.1//EN" "http://www.w3.org/Graphics/SVG/1.1/DTD/svg11.dtd">
<svg version="1.1" id="Layer_1" xmlns="http://www.w3.org/2000/svg" xmlns:xlink="http://www.w3.org/1999/xlink" x="0px" y="0px"
	 width="44px" height="40px" viewBox="0 0 44 40" style="enable-background:new 0 0 44 40;" xml:space="preserve">
<g id="_x37_91-warning-toolbar-selected_x40_2x.png">
	<g>
		<path d="M43.74,37.031l0.014-0.008L23.723,0.961l-0.017,0.01C23.356,0.392,22.727,0,22,0c-0.726,0-1.356,0.392-1.707,0.971
			l-0.017-0.01L0.246,37.023l0.015,0.008C0.1,37.32,0,37.646,0,38c0,1.104,0.896,2,2,2h40c1.104,0,2-0.896,2-2
			C44,37.646,43.9,37.32,43.74,37.031z M22,34c-1.104,0-2-0.896-2-2s0.896-2,2-2s2,0.896,2,2S23.104,34,22,34z M23,27
			c0,0,0,1.001-1,1c-1,0-1-1-1-1s-1-5-1-11c0-0.896,0.896-2,2-2s2,1,2,2C24,22,23,27,23,27z"/>
	</g>
</g>
<g>
</g>
<g>
</g>
<g>
</g>
<g>
</g>
<g>
</g>
<g>
</g>
<g>
</g>
<g>
</g>
<g>
</g>
<g>
</g>
<g>
</g>
<g>
</g>
<g>
</g>
<g>
</g>
<g>
</g>
</svg>
