<?xml version="1.0" encoding="iso-8859-1"?>
<!-- Generator: Adobe Illustrator 16.0.4, SVG Export Plug-In . SVG Version: 6.00 Build 0)  -->
<!DOCTYPE svg PUBLIC "-//W3C//DTD SVG 1.1//EN" "http://www.w3.org/Graphics/SVG/1.1/DTD/svg11.dtd">
<svg version="1.1" id="Layer_1" xmlns="http://www.w3.org/2000/svg" xmlns:xlink="http://www.w3.org/1999/xlink" x="0px" y="0px"
	 width="44px" height="28px" viewBox="0 0 44 28" style="enable-background:new 0 0 44 28;" xml:space="preserve">
<g id="_x37_93-service-bell-toolbar-selected_x40_2x.png">
	<g>
		<path d="M40,15c0-8.067-4.523-10.846-17-10.986V2h2c0.553,0,1-0.447,1-1c0-0.552-0.447-1-1-1h-6c-0.553,0-1,0.448-1,1
			c0,0.553,0.447,1,1,1h2v2.014C8.523,4.154,4,6.933,4,15v3h36V15z M43,26h-1c0,0-2,0-2-2v-4H4v4c0,2-2,2-2,2H1
			c-0.553,0-1,0.448-1,1c0,0.553,0.447,1,1,1h42c0.553,0,1-0.447,1-1C44,26.448,43.553,26,43,26z"/>
	</g>
</g>
<g>
</g>
<g>
</g>
<g>
</g>
<g>
</g>
<g>
</g>
<g>
</g>
<g>
</g>
<g>
</g>
<g>
</g>
<g>
</g>
<g>
</g>
<g>
</g>
<g>
</g>
<g>
</g>
<g>
</g>
</svg>
