<?xml version="1.0" encoding="iso-8859-1"?>
<!-- Generator: Adobe Illustrator 16.0.4, SVG Export Plug-In . SVG Version: 6.00 Build 0)  -->
<!DOCTYPE svg PUBLIC "-//W3C//DTD SVG 1.1//EN" "http://www.w3.org/Graphics/SVG/1.1/DTD/svg11.dtd">
<svg version="1.1" id="Layer_1" xmlns="http://www.w3.org/2000/svg" xmlns:xlink="http://www.w3.org/1999/xlink" x="0px" y="0px"
	 width="44px" height="44px" viewBox="0 0 44 44" style="enable-background:new 0 0 44 44;" xml:space="preserve">
<g id="_x37_95-gauge-toolbar-selected_x40_2x.png">
	<g>
		<path d="M9.22,39.884C12.824,42.465,17.229,44,22,44s9.176-1.535,12.78-4.116C31.519,37.497,27.011,36,22,36
			S12.481,37.497,9.22,39.884z M22,0C9.85,0,0,9.85,0,22c0,6.646,2.959,12.589,7.616,16.623C11.254,35.785,16.338,34,22,34
			s10.746,1.785,14.384,4.623C41.041,34.589,44,28.646,44,22C44,9.85,34.15,0,22,0z M27.634,10.242l1-1.732
			C28.91,8.031,29.521,7.868,30,8.144c0.479,0.276,0.643,0.888,0.366,1.366l-1,1.732C29.09,11.72,28.479,11.884,28,11.607
			C27.521,11.332,27.357,10.72,27.634,10.242z M21,7c0-0.552,0.447-1,1-1s1,0.448,1,1v2c0,0.553-0.447,1-1,1s-1-0.447-1-1V7z M7,23
			c-0.553,0-1-0.447-1-1s0.447-1,1-1h2c0.553,0,1,0.447,1,1s-0.447,1-1,1H7z M11.241,29.366l-1.731,1
			C9.031,30.643,8.42,30.479,8.144,30s-0.112-1.09,0.366-1.366l1.731-1c0.479-0.275,1.09-0.112,1.366,0.366
			S11.72,29.09,11.241,29.366z M11.607,16c-0.276,0.479-0.888,0.643-1.366,0.366l-1.731-1C8.031,15.09,7.867,14.479,8.144,14
			s0.888-0.642,1.366-0.365l1.731,1C11.72,14.91,11.884,15.521,11.607,16z M16,11.608c-0.479,0.275-1.09,0.111-1.366-0.366l-1-1.732
			C13.357,9.031,13.521,8.42,14,8.144s1.09-0.112,1.365,0.366l1,1.732C16.642,10.72,16.479,11.332,16,11.608z M22,25
			c-1.657,0-3-1.343-3-3c0-1.656,1.343-3,3-3c0.755,0,1.436,0.288,1.963,0.748l10.496-6.06c0.479-0.276,1.09-0.112,1.366,0.366
			c0.276,0.478,0.112,1.089-0.366,1.365l-10.511,6.068C24.978,21.655,25,21.825,25,22C25,23.657,23.657,25,22,25z M35.856,30
			c-0.276,0.479-0.888,0.643-1.366,0.366l-1.732-1C32.28,29.09,32.116,28.479,32.393,28c0.275-0.479,0.888-0.642,1.365-0.365
			l1.732,1C35.969,28.91,36.133,29.521,35.856,30z M37,23h-2c-0.553,0-1-0.447-1-1s0.447-1,1-1h2c0.553,0,1,0.447,1,1
			S37.553,23,37,23z"/>
	</g>
</g>
<g>
</g>
<g>
</g>
<g>
</g>
<g>
</g>
<g>
</g>
<g>
</g>
<g>
</g>
<g>
</g>
<g>
</g>
<g>
</g>
<g>
</g>
<g>
</g>
<g>
</g>
<g>
</g>
<g>
</g>
</svg>
