<?xml version="1.0" encoding="iso-8859-1"?>
<!-- Generator: Adobe Illustrator 16.0.4, SVG Export Plug-In . SVG Version: 6.00 Build 0)  -->
<!DOCTYPE svg PUBLIC "-//W3C//DTD SVG 1.1//EN" "http://www.w3.org/Graphics/SVG/1.1/DTD/svg11.dtd">
<svg version="1.1" id="Layer_1" xmlns="http://www.w3.org/2000/svg" xmlns:xlink="http://www.w3.org/1999/xlink" x="0px" y="0px"
	 width="44px" height="44px" viewBox="0 0 44 44" style="enable-background:new 0 0 44 44;" xml:space="preserve">
<g id="_x37_96-clock-2-toolbar-selected_x40_2x.png">
	<g>
		<path d="M41.949,42.684l-2.455-7.363C42.319,31.627,44,27.013,44,22C44,9.85,34.15,0,22,0S0,9.85,0,22
			c0,5.013,1.681,9.627,4.506,13.32l-2.454,7.363l0.012,0.004C2.03,42.787,2,42.89,2,43c0,0.553,0.447,1,1,1h38c0.553,0,1-0.447,1-1
			c0-0.11-0.029-0.213-0.063-0.312L41.949,42.684z M29.144,29.24c-0.391,0.391-1.023,0.391-1.414,0l-4.506-4.506
			C22.849,24.902,22.437,25,22,25c-1.657,0-3-1.343-3-3c0-1.304,0.838-2.403,2-2.816V9c0-0.552,0.447-1,1-1s1,0.448,1,1v10.184
			c1.162,0.413,2,1.513,2,2.816c0,0.488-0.127,0.941-0.334,1.349l4.478,4.477C29.534,28.217,29.534,28.85,29.144,29.24z"/>
	</g>
</g>
<g>
</g>
<g>
</g>
<g>
</g>
<g>
</g>
<g>
</g>
<g>
</g>
<g>
</g>
<g>
</g>
<g>
</g>
<g>
</g>
<g>
</g>
<g>
</g>
<g>
</g>
<g>
</g>
<g>
</g>
</svg>
