<?xml version="1.0" encoding="iso-8859-1"?>
<!-- Generator: Adobe Illustrator 16.0.4, SVG Export Plug-In . SVG Version: 6.00 Build 0)  -->
<!DOCTYPE svg PUBLIC "-//W3C//DTD SVG 1.1//EN" "http://www.w3.org/Graphics/SVG/1.1/DTD/svg11.dtd">
<svg version="1.1" id="Layer_1" xmlns="http://www.w3.org/2000/svg" xmlns:xlink="http://www.w3.org/1999/xlink" x="0px" y="0px"
	 width="44px" height="40px" viewBox="0 0 44 40" style="enable-background:new 0 0 44 40;" xml:space="preserve">
<g id="_x37_97-archive-toolbar-selected_x40_2x.png">
	<g>
		<path d="M43.707,6.293l-6-6C37.526,0.112,37.276,0,37,0H7C6.724,0,6.474,0.112,6.293,0.293l-6,6C0.112,6.475,0,6.725,0,7v1.001V10
			v28c0,1.105,0.896,2,2,2h40c1.104,0,2-0.895,2-2V10V8.001V7C44,6.725,43.888,6.475,43.707,6.293z M28.707,25.707l-6,6
			C22.526,31.889,22.276,32,22,32s-0.526-0.111-0.707-0.293l-6-6C15.112,25.526,15,25.276,15,25c0-0.552,0.447-1,1-1
			c0.276,0,0.526,0.112,0.707,0.293L21,28.586V15c0-0.552,0.447-1,1-1s1,0.448,1,1v13.586l4.293-4.293
			C27.474,24.112,27.724,24,28,24c0.553,0,1,0.448,1,1C29,25.276,28.888,25.526,28.707,25.707z M3.414,6l4-4h29.172l4,4H3.414z"/>
	</g>
</g>
<g>
</g>
<g>
</g>
<g>
</g>
<g>
</g>
<g>
</g>
<g>
</g>
<g>
</g>
<g>
</g>
<g>
</g>
<g>
</g>
<g>
</g>
<g>
</g>
<g>
</g>
<g>
</g>
<g>
</g>
</svg>
