<?xml version="1.0" encoding="iso-8859-1"?>
<!-- Generator: Adobe Illustrator 16.0.4, SVG Export Plug-In . SVG Version: 6.00 Build 0)  -->
<!DOCTYPE svg PUBLIC "-//W3C//DTD SVG 1.1//EN" "http://www.w3.org/Graphics/SVG/1.1/DTD/svg11.dtd">
<svg version="1.1" id="Layer_1" xmlns="http://www.w3.org/2000/svg" xmlns:xlink="http://www.w3.org/1999/xlink" x="0px" y="0px"
	 width="36px" height="44px" viewBox="0 0 36 44" style="enable-background:new 0 0 36 44;" xml:space="preserve">
<g id="_x37_99-beverage-toolbar-selected_x40_2x.png">
	<g>
		<path d="M36,1c0-0.552-0.447-1-1-1H1C0.447,0,0,0.448,0,1c0,0.039,0.018,0.071,0.021,0.108L0.006,1.11l5,42l0.017-0.001
			C5.078,43.607,5.486,44,6,44h24c0.514,0,0.922-0.393,0.979-0.891l0.016,0.001l5-42l-0.016-0.002C35.982,1.071,36,1.039,36,1z
			 M16,32c0,1.105-0.896,2-2,2h-4c-1.104,0-2-0.895-2-2v-4c0-1.104,0.896-2,2-2h4c1.104,0,2,0.896,2,2V32z M16.536,20.732l2-3.464
			c0.552-0.957,1.775-1.284,2.731-0.732l3.465,2c0.956,0.553,1.284,1.775,0.731,2.732l-2,3.464
			c-0.552,0.957-1.775,1.284-2.731,0.732l-3.465-2.001C16.312,22.912,15.983,21.688,16.536,20.732z M28,34c0,1.105-0.896,2-2,2h-4
			c-1.104,0-2-0.895-2-2v-4c0-1.104,0.896-2,2-2h4c1.104,0,2,0.896,2,2V34z M32.867,10.453C30.814,9.091,28.052,8,24.414,8
			c-5.16,0-7.617,2.167-9.785,4.079C12.852,13.646,11.316,15,8.414,15c-1.783,0-3.43-0.514-4.889-1.248L2.126,2h31.748
			L32.867,10.453z"/>
	</g>
</g>
<g>
</g>
<g>
</g>
<g>
</g>
<g>
</g>
<g>
</g>
<g>
</g>
<g>
</g>
<g>
</g>
<g>
</g>
<g>
</g>
<g>
</g>
<g>
</g>
<g>
</g>
<g>
</g>
<g>
</g>
</svg>
