<?xml version="1.0" encoding="iso-8859-1"?>
<!-- Generator: Adobe Illustrator 16.0.4, SVG Export Plug-In . SVG Version: 6.00 Build 0)  -->
<!DOCTYPE svg PUBLIC "-//W3C//DTD SVG 1.1//EN" "http://www.w3.org/Graphics/SVG/1.1/DTD/svg11.dtd">
<svg version="1.1" id="Layer_1" xmlns="http://www.w3.org/2000/svg" xmlns:xlink="http://www.w3.org/1999/xlink" x="0px" y="0px"
	 width="44px" height="44px" viewBox="0 0 44 44" style="enable-background:new 0 0 44 44;" xml:space="preserve">
<g id="_x38_03-large-house-toolbar-selected_x40_2x.png">
	<g>
		<path d="M22,28c-1.104,0-2,0.896-2,2v14h4V30C24,28.896,23.104,28,22,28z M43,0H1C0.447,0,0,0.447,0,1v16c0,0.553,0.447,1,1,1
			h15.499l4.688-6.269l0.015,0.011c0.182-0.254,0.464-0.43,0.799-0.43s0.617,0.176,0.799,0.43l0.015-0.011L27.501,18H43
			c0.553,0,1-0.447,1-1V1.001c0,0,0,0,0-0.001C44,0.447,43.553,0,43,0z M26.201,19.57l-0.015,0.011L22,13.982l-4.187,5.599
			l-0.015-0.011C17.617,19.824,17.335,20,17,20H4v22c0,1.104,0.896,2,2,2h12V30c0-2.209,1.791-4,4-4s4,1.791,4,4v14h12
			c1.104,0,2-0.896,2-2V20H27C26.665,20,26.383,19.824,26.201,19.57z M13,32h-2v-4h2V32z M31,28h2v4h-2V28z"/>
	</g>
</g>
<g>
</g>
<g>
</g>
<g>
</g>
<g>
</g>
<g>
</g>
<g>
</g>
<g>
</g>
<g>
</g>
<g>
</g>
<g>
</g>
<g>
</g>
<g>
</g>
<g>
</g>
<g>
</g>
<g>
</g>
</svg>
