<?xml version="1.0" encoding="iso-8859-1"?>
<!-- Generator: Adobe Illustrator 16.0.4, SVG Export Plug-In . SVG Version: 6.00 Build 0)  -->
<!DOCTYPE svg PUBLIC "-//W3C//DTD SVG 1.1//EN" "http://www.w3.org/Graphics/SVG/1.1/DTD/svg11.dtd">
<svg version="1.1" id="Layer_1" xmlns="http://www.w3.org/2000/svg" xmlns:xlink="http://www.w3.org/1999/xlink" x="0px" y="0px"
	 width="40px" height="44px" viewBox="0 0 40 44" style="enable-background:new 0 0 40 44;" xml:space="preserve">
<g id="_x38_05-mailbox-toolbar-selected_x40_2x.png">
	<g>
		<path d="M22,44h8v-4h-8V44z M0,16v18c0,2.209,1.791,4,4,4h2V12H4C1.791,12,0,13.791,0,16z M18,10h9c0.553,0,1-0.447,1-1
			c0-0.236-0.094-0.443-0.23-0.615l0.012-0.009L25.249,5l2.532-3.375l-0.012-0.01C27.906,1.444,28,1.236,28,1c0-0.553-0.447-1-1-1
			H17c-0.552,0-1,0.447-1,1v11h2V10z M36,12H18v10.184c1.162,0.414,2,1.512,2,2.816c0,1.657-1.343,3-3,3s-3-1.343-3-3
			c0-1.304,0.838-2.402,2-2.816V12H8v26h28c2.209,0,4-1.791,4-4V16C40,13.791,38.209,12,36,12z"/>
	</g>
</g>
<g>
</g>
<g>
</g>
<g>
</g>
<g>
</g>
<g>
</g>
<g>
</g>
<g>
</g>
<g>
</g>
<g>
</g>
<g>
</g>
<g>
</g>
<g>
</g>
<g>
</g>
<g>
</g>
<g>
</g>
</svg>
