<?xml version="1.0" encoding="iso-8859-1"?>
<!-- Generator: Adobe Illustrator 16.0.4, SVG Export Plug-In . SVG Version: 6.00 Build 0)  -->
<!DOCTYPE svg PUBLIC "-//W3C//DTD SVG 1.1//EN" "http://www.w3.org/Graphics/SVG/1.1/DTD/svg11.dtd">
<svg version="1.1" id="Layer_1" xmlns="http://www.w3.org/2000/svg" xmlns:xlink="http://www.w3.org/1999/xlink" x="0px" y="0px"
	 width="44px" height="36px" viewBox="0 0 44 36" style="enable-background:new 0 0 44 36;" xml:space="preserve">
<g id="_x38_06-parcel-toolbar-selected_x40_2x.png">
	<g>
		<path d="M0,2v15h17.507c-3.568-2.35-5.674-6.4-2.295-9.103c0.78-0.625,1.568-0.92,2.331-0.92c1.286,0,2.489,0.859,3.457,2.376V0H2
			C0.896,0,0,0.896,0,2z M17.543,8.978c-0.397,0-0.808,0.262-1.082,0.481c-0.912,0.73-1.157,1.519-0.793,2.557
			c0.613,1.749,2.836,3.713,5.332,4.511v-0.703C20.414,11.289,18.633,8.978,17.543,8.978z M17.843,27.525
			c0.204,0.514-0.045,1.095-0.558,1.301c-0.122,0.048-0.247,0.071-0.371,0.071c-0.396,0-0.772-0.238-0.93-0.629
			c-1.47-3.676,1.084-7.189,3.146-9.269H0v15c0,1.104,0.896,2,2,2h19V19.975C19.243,21.625,16.693,24.652,17.843,27.525z
			 M28.141,28.269c-0.157,0.391-0.532,0.629-0.93,0.629c-0.123,0-0.249-0.023-0.371-0.071c-0.513-0.206-0.762-0.787-0.557-1.301
			c1.179-2.947-1.529-6.053-3.283-7.669V36h19c1.104,0,2-0.896,2-2V19H24.995C27.056,21.077,29.611,24.59,28.141,28.269z M42,0H23
			v9.542c0.987-1.64,2.241-2.564,3.583-2.564c0.762,0,1.55,0.295,2.331,0.92c3.368,2.694,1.285,6.743-2.265,9.103H44V2
			C44,0.896,43.104,0,42,0z M28.458,12.016c0.363-1.038,0.118-1.826-0.794-2.557c-0.274-0.22-0.685-0.481-1.08-0.481
			c-1.12,0.001-2.976,2.415-3.512,7.187c0.013,0.121,0.02,0.248,0.03,0.371C25.608,15.742,27.842,13.771,28.458,12.016z"/>
	</g>
</g>
<g>
</g>
<g>
</g>
<g>
</g>
<g>
</g>
<g>
</g>
<g>
</g>
<g>
</g>
<g>
</g>
<g>
</g>
<g>
</g>
<g>
</g>
<g>
</g>
<g>
</g>
<g>
</g>
<g>
</g>
</svg>
