<?xml version="1.0" encoding="iso-8859-1"?>
<!-- Generator: Adobe Illustrator 16.0.4, SVG Export Plug-In . SVG Version: 6.00 Build 0)  -->
<!DOCTYPE svg PUBLIC "-//W3C//DTD SVG 1.1//EN" "http://www.w3.org/Graphics/SVG/1.1/DTD/svg11.dtd">
<svg version="1.1" id="Layer_1" xmlns="http://www.w3.org/2000/svg" xmlns:xlink="http://www.w3.org/1999/xlink" x="0px" y="0px"
	 width="44px" height="44px" viewBox="0 0 44 44" style="enable-background:new 0 0 44 44;" xml:space="preserve">
<g id="_x38_07-package-toolbar-selected_x40_2x.png">
	<g>
		<path d="M18,20h8v-8L24,0h-4l-2,12V20z M43.452,10l-7.558-9.447l-0.009,0.005C35.721,0.23,35.391,0,35,0h-9l1.667,10H43.452z
			 M28,12c0,0,0,6,0,8s-2,2-2,2h-8c-2,0-2-2-2-2v-8H0v3v27c0,1.104,0.896,2,2,2h40c1.104,0,2-0.896,2-2V15v-3H28z M15,38H7
			c-0.553,0-1-0.447-1-1c0-0.552,0.447-1,1-1h8c0.553,0,1,0.448,1,1C16,37.553,15.553,38,15,38z M19,32H7c-0.553,0-1-0.447-1-1
			s0.447-1,1-1h12c0.553,0,1,0.447,1,1S19.553,32,19,32z M38,35c0,0.553-0.447,1-1,1s-1-0.447-1-1v-1.586l-4.292,4.293
			C31.526,37.888,31.276,38,31,38c-0.553,0-1-0.447-1-1c0-0.275,0.112-0.525,0.293-0.707L34.586,32H33c-0.553,0-1-0.447-1-1
			s0.447-1,1-1h4c0.553,0,1,0.447,1,1V35z M18,0H9C8.609,0,8.279,0.23,8.114,0.558L8.105,0.553L0.548,10h15.785L18,0z"/>
	</g>
</g>
<g>
</g>
<g>
</g>
<g>
</g>
<g>
</g>
<g>
</g>
<g>
</g>
<g>
</g>
<g>
</g>
<g>
</g>
<g>
</g>
<g>
</g>
<g>
</g>
<g>
</g>
<g>
</g>
<g>
</g>
</svg>
