<?xml version="1.0" encoding="iso-8859-1"?>
<!-- Generator: Adobe Illustrator 16.0.4, SVG Export Plug-In . SVG Version: 6.00 Build 0)  -->
<!DOCTYPE svg PUBLIC "-//W3C//DTD SVG 1.1//EN" "http://www.w3.org/Graphics/SVG/1.1/DTD/svg11.dtd">
<svg version="1.1" id="Layer_1" xmlns="http://www.w3.org/2000/svg" xmlns:xlink="http://www.w3.org/1999/xlink" x="0px" y="0px"
	 width="36px" height="44px" viewBox="0 0 36 44" style="enable-background:new 0 0 36 44;" xml:space="preserve">
<g id="_x38_08-documents-toolbar-selected_x40_2x.png">
	<g>
		<path d="M18,18.006h7.989v2.012h-8.995h-0.001c-0.557,0-1.007-0.45-1.007-1.006c0-0.001,0-0.002,0-0.003V10H2
			c-1.104,0-2,0.896-2,2v30c0,1.104,0.896,2,2,2h22c1.104,0,2-0.896,2-2V18l-8-8V18.006z M19,32H7c-0.553,0-1-0.447-1-1s0.447-1,1-1
			h12c0.553,0,1,0.447,1,1S19.553,32,19,32z M6,27c0-0.552,0.447-1,1-1h8c0.553,0,1,0.448,1,1c0,0.553-0.447,1-1,1H7
			C6.447,28,6,27.553,6,27z M19,24H7c-0.553,0-1-0.447-1-1c0-0.552,0.447-1,1-1h12c0.553,0,1,0.448,1,1C20,23.553,19.553,24,19,24z
			 M28,0v8.006h7.989v2.012h-8.995c0,0,0,0-0.001,0c-0.557,0-1.007-0.45-1.007-1.006c0-0.001,0-0.002,0-0.003V0H12
			c-1.104,0-2,0.896-2,2v6h9l9,9v17h6c1.104,0,2-0.896,2-2V8L28,0z"/>
	</g>
</g>
<g>
</g>
<g>
</g>
<g>
</g>
<g>
</g>
<g>
</g>
<g>
</g>
<g>
</g>
<g>
</g>
<g>
</g>
<g>
</g>
<g>
</g>
<g>
</g>
<g>
</g>
<g>
</g>
<g>
</g>
</svg>
