<?xml version="1.0" encoding="iso-8859-1"?>
<!-- Generator: Adobe Illustrator 16.0.4, SVG Export Plug-In . SVG Version: 6.00 Build 0)  -->
<!DOCTYPE svg PUBLIC "-//W3C//DTD SVG 1.1//EN" "http://www.w3.org/Graphics/SVG/1.1/DTD/svg11.dtd">
<svg version="1.1" id="Layer_1" xmlns="http://www.w3.org/2000/svg" xmlns:xlink="http://www.w3.org/1999/xlink" x="0px" y="0px"
	 width="32px" height="44px" viewBox="0 0 32 44" style="enable-background:new 0 0 32 44;" xml:space="preserve">
<g id="_x38_09-clipboard-toolbar-selected_x40_2x.png">
	<g>
		<path d="M22,2h-5V1c0-0.553-0.447-1-1-1s-1,0.447-1,1v1h-5v8h12V2z M30,44c1.104,0,2-0.896,2-2v-6.585L23.414,44H30z M30,6h-6v4
			c0,1.104-0.896,2-2,2H10c-1.104,0-2-0.896-2-2V6H2C0.896,6,0,6.896,0,8v34c0,1.104,0.896,2,2,2h18.586L32,32.586V8
			C32,6.896,31.104,6,30,6z M25,32H7c-0.553,0-1-0.447-1-1c0-0.552,0.447-1,1-1h18c0.553,0,1,0.448,1,1C26,31.553,25.553,32,25,32z
			 M6,25c0-0.553,0.447-1,1-1h12c0.553,0,1,0.447,1,1s-0.447,1-1,1H7C6.447,26,6,25.553,6,25z M25,20H7c-0.553,0-1-0.447-1-1
			c0-0.552,0.447-1,1-1h18c0.553,0,1,0.448,1,1C26,19.553,25.553,20,25,20z"/>
	</g>
</g>
<g>
</g>
<g>
</g>
<g>
</g>
<g>
</g>
<g>
</g>
<g>
</g>
<g>
</g>
<g>
</g>
<g>
</g>
<g>
</g>
<g>
</g>
<g>
</g>
<g>
</g>
<g>
</g>
<g>
</g>
</svg>
