<?xml version="1.0" encoding="iso-8859-1"?>
<!-- Generator: Adobe Illustrator 16.0.4, SVG Export Plug-In . SVG Version: 6.00 Build 0)  -->
<!DOCTYPE svg PUBLIC "-//W3C//DTD SVG 1.1//EN" "http://www.w3.org/Graphics/SVG/1.1/DTD/svg11.dtd">
<svg version="1.1" id="Layer_1" xmlns="http://www.w3.org/2000/svg" xmlns:xlink="http://www.w3.org/1999/xlink" x="0px" y="0px"
	 width="32px" height="44px" viewBox="0 0 32 44" style="enable-background:new 0 0 32 44;" xml:space="preserve">
<g id="_x38_10-document-2-toolbar-selected_x40_2x.png">
	<g>
		<path d="M30,0H2C0.896,0,0,0.896,0,2v40c0,1.104,0.896,2,2,2h28c1.104,0,2-0.896,2-2V2C32,0.896,31.104,0,30,0z M7,6h6
			c0.553,0,1,0.448,1,1c0,0.553-0.447,1-1,1H7C6.447,8,6,7.553,6,7C6,6.448,6.447,6,7,6z M7,12h6c0.553,0,1,0.448,1,1
			c0,0.553-0.447,1-1,1H7c-0.553,0-1-0.447-1-1C6,12.448,6.447,12,7,12z M19,38H7c-0.553,0-1-0.447-1-1c0-0.552,0.447-1,1-1h12
			c0.553,0,1,0.448,1,1C20,37.553,19.553,38,19,38z M25,32H7c-0.553,0-1-0.447-1-1s0.447-1,1-1h18c0.553,0,1,0.447,1,1
			S25.553,32,25,32z M25,26H7c-0.553,0-1-0.447-1-1c0-0.552,0.447-1,1-1h18c0.553,0,1,0.448,1,1C26,25.553,25.553,26,25,26z M25,20
			H7c-0.553,0-1-0.447-1-1c0-0.552,0.447-1,1-1h18c0.553,0,1,0.448,1,1C26,19.553,25.553,20,25,20z M26,13c0,0.553-0.447,1-1,1h-6
			c-0.553,0-1-0.447-1-1V7c0-0.552,0.447-1,1-1h6c0.553,0,1,0.448,1,1V13z"/>
	</g>
</g>
<g>
</g>
<g>
</g>
<g>
</g>
<g>
</g>
<g>
</g>
<g>
</g>
<g>
</g>
<g>
</g>
<g>
</g>
<g>
</g>
<g>
</g>
<g>
</g>
<g>
</g>
<g>
</g>
<g>
</g>
</svg>
