<?xml version="1.0" encoding="iso-8859-1"?>
<!-- Generator: Adobe Illustrator 16.0.4, SVG Export Plug-In . SVG Version: 6.00 Build 0)  -->
<!DOCTYPE svg PUBLIC "-//W3C//DTD SVG 1.1//EN" "http://www.w3.org/Graphics/SVG/1.1/DTD/svg11.dtd">
<svg version="1.1" id="Layer_1" xmlns="http://www.w3.org/2000/svg" xmlns:xlink="http://www.w3.org/1999/xlink" x="0px" y="0px"
	 width="36px" height="44px" viewBox="0 0 36 44" style="enable-background:new 0 0 36 44;" xml:space="preserve">
<g id="_x38_11-download-box-toolbar-selected_x40_2x.png">
	<g>
		<path d="M35.427,20.104l0.003-0.006l-6.361-3.742c-0.143-0.079-0.299-0.137-0.475-0.137c-0.552,0-1,0.447-1,1
			c0,0.413,0.251,0.768,0.608,0.92l-0.007,0.015L33.035,21L19,29.256v14.312l16.43-9.664l-0.003-0.007
			C35.764,33.735,36,33.398,36,33V21C36,20.603,35.764,20.266,35.427,20.104z M7.836,18.122l-0.011-0.023
			c0.323-0.165,0.55-0.492,0.55-0.88c0-0.553-0.448-1-1-1c-0.205,0-0.384,0.076-0.542,0.182L0.57,20.098l0.003,0.006
			C0.237,20.266,0,20.603,0,21v12c0,0.398,0.237,0.735,0.573,0.896L0.57,33.903L17,43.567V29.256L2.962,20.999L7.836,18.122z M27,13
			c0-0.552-0.447-1-1-1c-0.276,0-0.526,0.112-0.707,0.293L19,18.586V1c0-0.552-0.447-1-1-1c-0.552,0-1,0.448-1,1v17.586
			l-6.293-6.293C10.526,12.112,10.276,12,10,12c-0.552,0-1,0.448-1,1c0,0.276,0.112,0.526,0.293,0.707l8,8
			C17.474,21.889,17.724,22,18,22c0.276,0,0.526-0.111,0.707-0.293l8-8C26.888,13.526,27,13.276,27,13z"/>
	</g>
</g>
<g>
</g>
<g>
</g>
<g>
</g>
<g>
</g>
<g>
</g>
<g>
</g>
<g>
</g>
<g>
</g>
<g>
</g>
<g>
</g>
<g>
</g>
<g>
</g>
<g>
</g>
<g>
</g>
<g>
</g>
</svg>
