<?xml version="1.0" encoding="iso-8859-1"?>
<!-- Generator: Adobe Illustrator 16.0.4, SVG Export Plug-In . SVG Version: 6.00 Build 0)  -->
<!DOCTYPE svg PUBLIC "-//W3C//DTD SVG 1.1//EN" "http://www.w3.org/Graphics/SVG/1.1/DTD/svg11.dtd">
<svg version="1.1" id="Layer_1" xmlns="http://www.w3.org/2000/svg" xmlns:xlink="http://www.w3.org/1999/xlink" x="0px" y="0px"
	 width="36.971px" height="44.009px" viewBox="0 0 36.971 44.009" style="enable-background:new 0 0 36.971 44.009;"
	 xml:space="preserve">
<g id="_x38_12-hiking-toolbar-selected_x40_2x.png">
	<g>
		<path d="M17.968,8.014c2.213,0,4.007-1.794,4.007-4.007S20.181,0,17.968,0s-4.007,1.794-4.007,4.007S15.755,8.014,17.968,8.014z
			 M10.943,10.559L6.47,9.122c-0.317-0.103-0.639-0.15-0.955-0.15c-1.324,0-2.555,0.851-2.98,2.186L0.15,18.64
			c-0.527,1.653,0.38,3.423,2.026,3.952l4.472,1.437L10.943,10.559z M36.971,13c0-0.553-0.447-1-1-1
			c-0.463,0-0.835,0.32-0.949,0.747l-0.017-0.005l-8,30l0.017,0.005C27,42.83,26.971,42.91,26.971,43c0,0.553,0.447,1,1,1
			c0.463,0,0.835-0.32,0.949-0.747l0.017,0.005l8-30l-0.017-0.005C36.942,13.17,36.971,13.09,36.971,13z M28.958,23.992
			c0-1.249-0.76-2.317-1.842-2.768L21.298,18.6c0,0,0.337-0.713,0.303-0.713c-0.004,0-0.01,0.006-0.021,0.021
			c1.058-2.556-0.146-5.482-2.692-6.536c-0.621-0.258-1.266-0.38-1.9-0.38c-1.962,0-3.825,1.167-4.625,3.098
			c0-0.001,0-0.002,0-0.002c-0.003,0-0.083,0.222-0.083,0.222L4.342,38.34c0,0-0.032,0.137-0.047,0.137
			c-0.002,0-0.002,0-0.003-0.001c-0.847,2.045,0.118,4.386,2.154,5.229c0.497,0.206,1.012,0.304,1.52,0.304
			c1.562,0,3.048-0.928,3.692-2.462l0.055-0.084l2.411-5.753l2.101,5.696l0.014-0.005C16.809,42.917,18.262,44,19.978,44
			c2.213,0,4.007-1.794,4.007-4.007c0-0.504-0.104-0.981-0.273-1.426l0.014-0.005l-3.792-13.965l4.863,2.148
			c0.362,0.155,0.759,0.243,1.177,0.243C27.622,26.989,28.958,25.646,28.958,23.992z"/>
	</g>
</g>
<g>
</g>
<g>
</g>
<g>
</g>
<g>
</g>
<g>
</g>
<g>
</g>
<g>
</g>
<g>
</g>
<g>
</g>
<g>
</g>
<g>
</g>
<g>
</g>
<g>
</g>
<g>
</g>
<g>
</g>
</svg>
