<?xml version="1.0" encoding="iso-8859-1"?>
<!-- Generator: Adobe Illustrator 16.0.4, SVG Export Plug-In . SVG Version: 6.00 Build 0)  -->
<!DOCTYPE svg PUBLIC "-//W3C//DTD SVG 1.1//EN" "http://www.w3.org/Graphics/SVG/1.1/DTD/svg11.dtd">
<svg version="1.1" id="Layer_1" xmlns="http://www.w3.org/2000/svg" xmlns:xlink="http://www.w3.org/1999/xlink" x="0px" y="0px"
	 width="28px" height="44px" viewBox="0 0 28 44" style="enable-background:new 0 0 28 44;" xml:space="preserve">
<g id="_x38_13-train-toolbar-selected_x40_2x.png">
	<g>
		<path d="M6,20h16v-6H6V20z M19.707,36.293C19.526,36.112,19.276,36,19,36c-0.553,0-1,0.448-1,1c0,0.276,0.112,0.526,0.293,0.707
			L20.586,40H7.414l2.293-2.293C9.888,37.526,10,37.276,10,37c0-0.552-0.447-1-1-1c-0.276,0-0.526,0.112-0.707,0.293l-5.999,5.999
			C2.112,42.474,2,42.724,2,43c0,0.553,0.447,1,1,1c0.276,0,0.526-0.112,0.707-0.293L5.414,42h17.172l1.707,1.707
			C24.474,43.888,24.724,44,25,44c0.553,0,1-0.447,1-1c0-0.276-0.112-0.526-0.294-0.708L19.707,36.293z M26,4h-4V2
			c0-1.104-0.896-2-2-2h-2c-1.104,0-2,0.896-2,2v2h-4V2c0-1.104-0.896-2-2-2H8C6.896,0,6,0.896,6,2v2H2C0.896,4,0,4.896,0,6v26
			c0,1.104,0.896,2,2,2h24c1.104,0,2-0.896,2-2V6C28,4.896,27.104,4,26,4z M11,8h6c0.553,0,1,0.448,1,1c0,0.553-0.447,1-1,1h-6
			c-0.553,0-1-0.447-1-1C10,8.448,10.447,8,11,8z M8,29c-1.104,0-2-0.895-2-2c0-1.104,0.896-2,2-2s2,0.896,2,2
			C10,28.105,9.104,29,8,29z M20,29c-1.104,0-2-0.895-2-2c0-1.104,0.896-2,2-2s2,0.896,2,2C22,28.105,21.104,29,20,29z M24,20
			c0,1.105-0.896,2-2,2H6c-1.104,0-2-0.895-2-2v-6c0-1.104,0.896-2,2-2h16c1.104,0,2,0.896,2,2V20z"/>
	</g>
</g>
<g>
</g>
<g>
</g>
<g>
</g>
<g>
</g>
<g>
</g>
<g>
</g>
<g>
</g>
<g>
</g>
<g>
</g>
<g>
</g>
<g>
</g>
<g>
</g>
<g>
</g>
<g>
</g>
<g>
</g>
</svg>
