<?xml version="1.0" encoding="iso-8859-1"?>
<!-- Generator: Adobe Illustrator 16.0.4, SVG Export Plug-In . SVG Version: 6.00 Build 0)  -->
<!DOCTYPE svg PUBLIC "-//W3C//DTD SVG 1.1//EN" "http://www.w3.org/Graphics/SVG/1.1/DTD/svg11.dtd">
<svg version="1.1" id="Layer_1" xmlns="http://www.w3.org/2000/svg" xmlns:xlink="http://www.w3.org/1999/xlink" x="0px" y="0px"
	 width="40px" height="44px" viewBox="0 0 40 44" style="enable-background:new 0 0 40 44;" xml:space="preserve">
<g id="_x38_14-bus-toolbar-selected_x40_2x.png">
	<g>
		<path d="M27,0H13v6h14V0z M28.931,1.505C28.972,1.664,29,1.828,29,2v4c0,1.104-0.896,2-2,2H13c-1.104,0-2-0.896-2-2V2
			c0-0.172,0.028-0.336,0.069-0.495C3.728,4.282,0,10.618,0,18v1v2v1v5v11c0,1.104,0.896,2,2,2h4c0,2.209,1.791,4,4,4s4-1.791,4-4
			h12c0,2.209,1.791,4,4,4s4-1.791,4-4h4c1.104,0,2-0.896,2-2V27v-5v-1v-2v-1C40,10.618,36.272,4.282,28.931,1.505z M12,34
			c-1.104,0-2-0.896-2-2s0.896-2,2-2s2,0.896,2,2S13.104,34,12,34z M28,34c-1.104,0-2-0.896-2-2s0.896-2,2-2s2,0.896,2,2
			S29.104,34,28,34z M34,24c0,0,0,2-2,2s-12,0-12,0s-10,0-12,0s-2-2-2-2v-4c0-4,0-8,14-8s14,4,14,8V24z M20,14C7,14,8,17,8,20v4h12
			h12v-4C32,17,33,14,20,14z"/>
	</g>
</g>
<g>
</g>
<g>
</g>
<g>
</g>
<g>
</g>
<g>
</g>
<g>
</g>
<g>
</g>
<g>
</g>
<g>
</g>
<g>
</g>
<g>
</g>
<g>
</g>
<g>
</g>
<g>
</g>
<g>
</g>
</svg>
