<?xml version="1.0" encoding="iso-8859-1"?>
<!-- Generator: Adobe Illustrator 16.0.4, SVG Export Plug-In . SVG Version: 6.00 Build 0)  -->
<!DOCTYPE svg PUBLIC "-//W3C//DTD SVG 1.1//EN" "http://www.w3.org/Graphics/SVG/1.1/DTD/svg11.dtd">
<svg version="1.1" id="Layer_1" xmlns="http://www.w3.org/2000/svg" xmlns:xlink="http://www.w3.org/1999/xlink" x="0px" y="0px"
	 width="44px" height="44px" viewBox="0 0 44 44" style="enable-background:new 0 0 44 44;" xml:space="preserve">
<g id="_x38_16-satellite-toolbar-selected_x40_2x.png">
	<g>
		<path d="M36.707,9.708C36.888,9.527,37,9.276,37,9s-0.112-0.526-0.293-0.707l-8-8C28.526,0.112,28.276,0,28,0
			s-0.526,0.112-0.707,0.293L18.75,8.836l9.414,9.414L36.707,9.708z M34,26c0,4.418-3.582,8-8,8c-0.553,0-1,0.447-1,1s0.447,1,1,1
			c5.522,0,10-4.477,10-10c0-0.552-0.447-1-1-1S34,25.448,34,26z M28,23c0-1.381-0.56-2.631-1.465-3.535l-10-10
			C15.631,8.56,14.381,8,13,8c-2.762,0-5,2.238-5,5c0,1.381,0.56,2.631,1.465,3.536l10,10C20.369,27.44,21.619,28,23,28
			C25.762,28,28,25.762,28,23z M43,25c-0.553,0-1,0.448-1,1c0,8.837-7.163,16-16,16c-0.553,0-1,0.447-1,1s0.447,1,1,1
			c9.941,0,18-8.059,18-18C44,25.448,43.553,25,43,25z M0.293,27.293C0.112,27.474,0,27.724,0,28s0.112,0.526,0.293,0.707l8,8
			C8.474,36.889,8.724,37,9,37s0.526-0.111,0.707-0.293l8.543-8.543L8.836,18.75L0.293,27.293z"/>
	</g>
</g>
<g>
</g>
<g>
</g>
<g>
</g>
<g>
</g>
<g>
</g>
<g>
</g>
<g>
</g>
<g>
</g>
<g>
</g>
<g>
</g>
<g>
</g>
<g>
</g>
<g>
</g>
<g>
</g>
<g>
</g>
</svg>
