<?xml version="1.0" encoding="iso-8859-1"?>
<!-- Generator: Adobe Illustrator 16.0.4, SVG Export Plug-In . SVG Version: 6.00 Build 0)  -->
<!DOCTYPE svg PUBLIC "-//W3C//DTD SVG 1.1//EN" "http://www.w3.org/Graphics/SVG/1.1/DTD/svg11.dtd">
<svg version="1.1" id="Layer_1" xmlns="http://www.w3.org/2000/svg" xmlns:xlink="http://www.w3.org/1999/xlink" x="0px" y="0px"
	 width="44px" height="32px" viewBox="0 0 44 32" style="enable-background:new 0 0 44 32;" xml:space="preserve">
<g id="_x38_17-costume-toolbar-selected_x40_2x.png">
	<g>
		<path d="M0.558,3.886L0.553,3.895l1.795,0.897C2.125,5.487,2,6.228,2,7c0,3.866,3.022,7,6.75,7c5.169,0,11.052-1.516,11.233-6.759
			C20.427,7.104,21.051,7,22,7s1.573,0.104,2.017,0.241C24.198,12.484,30.081,14,35.25,14C38.978,14,42,10.866,42,7
			c0-0.772-0.125-1.513-0.348-2.208l1.795-0.897l-0.005-0.009C43.77,3.722,44,3.392,44,3c0-0.552-0.447-1-1-1
			c-0.161,0-0.308,0.047-0.442,0.115l-0.005-0.01l-1.773,0.887C39.559,1.185,37.539,0,35.25,0c-7.126,0-10.33,2.341-11.071,5.469
			C23.68,5.23,22.958,5,22,5c-0.957,0-1.68,0.23-2.179,0.469C19.08,2.341,15.876,0,8.75,0C6.461,0,4.441,1.185,3.221,2.992
			L1.447,2.105l-0.005,0.01C1.308,2.047,1.161,2,1,2C0.447,2,0,2.448,0,3C0,3.392,0.23,3.722,0.558,3.886z M36.929,22.118
			c-4.715,0-3.143-4.118-8.643-4.118c-3.144,0-3.144,1.647-6.286,1.647S18.857,18,15.714,18c-5.5,0-3.928,4.118-8.643,4.118
			C2.357,22.118,0,18,0,18c0,7.412,6.286,14,11.786,14c7.856,0,7.856-3.294,10.214-3.294S24.357,32,32.214,32
			C37.714,32,44,25.412,44,18C44,18,41.643,22.118,36.929,22.118z"/>
	</g>
</g>
<g>
</g>
<g>
</g>
<g>
</g>
<g>
</g>
<g>
</g>
<g>
</g>
<g>
</g>
<g>
</g>
<g>
</g>
<g>
</g>
<g>
</g>
<g>
</g>
<g>
</g>
<g>
</g>
<g>
</g>
</svg>
