<?xml version="1.0" encoding="iso-8859-1"?>
<!-- Generator: Adobe Illustrator 16.0.4, SVG Export Plug-In . SVG Version: 6.00 Build 0)  -->
<!DOCTYPE svg PUBLIC "-//W3C//DTD SVG 1.1//EN" "http://www.w3.org/Graphics/SVG/1.1/DTD/svg11.dtd">
<svg version="1.1" id="Layer_1" xmlns="http://www.w3.org/2000/svg" xmlns:xlink="http://www.w3.org/1999/xlink" x="0px" y="0px"
	 width="28px" height="44px" viewBox="0 0 28 44" style="enable-background:new 0 0 28 44;" xml:space="preserve">
<g id="_x38_18-flower-pot-toolbar-selected_x40_2x.png">
	<g>
		<path d="M4.044,43.295l0.015-0.005C4.185,43.698,4.551,44,5,44h18c0.449,0,0.815-0.302,0.941-0.71l0.015,0.005L26.466,32H1.534
			L4.044,43.295z M28,25c0-0.552-0.447-1-1-1H15v-4.124c0.988-0.246,1.837-0.844,2.406-1.653c0.24,0.042,0.483,0.062,0.727,0.062
			c1.063,0,2.126-0.402,2.938-1.214c0.997-0.997,1.376-2.374,1.151-3.665C23.295,12.652,24,11.411,24,10
			c0-1.41-0.705-2.652-1.777-3.406c0.225-1.291-0.154-2.667-1.151-3.665c-0.812-0.812-1.876-1.214-2.939-1.214
			c-0.243,0-0.485,0.021-0.726,0.062C16.652,0.705,15.411,0,14,0s-2.653,0.705-3.406,1.777c-0.24-0.041-0.482-0.062-0.726-0.062
			c-1.063,0-2.127,0.402-2.939,1.214C5.932,3.927,5.553,5.303,5.777,6.594C4.705,7.348,4,8.59,4,10c0,1.411,0.705,2.652,1.777,3.406
			c-0.225,1.291,0.154,2.668,1.151,3.665c0.812,0.812,1.876,1.214,2.938,1.214c0.243,0,0.486-0.021,0.727-0.062
			c0.57,0.81,1.418,1.407,2.406,1.653V24H1c-0.553,0-1,0.448-1,1c0,0.103,0.029,0.196,0.059,0.29l-0.015,0.005L1.09,30h25.82
			l1.046-4.705l-0.015-0.005C27.971,25.196,28,25.103,28,25z M11,10c0-1.656,1.344-3,3-3c1.657,0,3,1.344,3,3c0,1.657-1.343,3-3,3
			C12.344,13,11,11.657,11,10z"/>
	</g>
</g>
<g>
</g>
<g>
</g>
<g>
</g>
<g>
</g>
<g>
</g>
<g>
</g>
<g>
</g>
<g>
</g>
<g>
</g>
<g>
</g>
<g>
</g>
<g>
</g>
<g>
</g>
<g>
</g>
<g>
</g>
</svg>
