<?xml version="1.0" encoding="iso-8859-1"?>
<!-- Generator: Adobe Illustrator 16.0.4, SVG Export Plug-In . SVG Version: 6.00 Build 0)  -->
<!DOCTYPE svg PUBLIC "-//W3C//DTD SVG 1.1//EN" "http://www.w3.org/Graphics/SVG/1.1/DTD/svg11.dtd">
<svg version="1.1" id="Layer_1" xmlns="http://www.w3.org/2000/svg" xmlns:xlink="http://www.w3.org/1999/xlink" x="0px" y="0px"
	 width="36px" height="44px" viewBox="0 0 36 44" style="enable-background:new 0 0 36 44;" xml:space="preserve">
<g id="_x38_19-washing-machine-toolbar-selected_x40_2x.png">
	<g>
		<path d="M34,0H2C0.896,0,0,0.896,0,2v40c0,1.104,0.896,2,2,2h32c1.104,0,2-0.896,2-2V2C36,0.896,35.104,0,34,0z M31.001,3.991
			c0.551,0,0.997,0.45,0.997,1.006s-0.446,1.006-0.997,1.006s-0.997-0.45-0.997-1.006S30.45,3.991,31.001,3.991z M27.001,3.991
			c0.551,0,0.997,0.45,0.997,1.006s-0.446,1.006-0.997,1.006s-0.997-0.45-0.997-1.006S26.45,3.991,27.001,3.991z M18,37.995
			c-6.619,0-11.985-5.372-11.985-12c0-6.627,5.366-12,11.985-12s11.985,5.373,11.985,12C29.985,32.623,24.619,37.995,18,37.995z
			 M35.987,9.989H0.013V7.985h35.975V9.989z M17.553,28.645c-3.532-1.766-6.87-1.632-9.396-1.017
			c0.779,4.745,4.883,8.368,9.843,8.368c4.025,0,7.485-2.389,9.066-5.824c-0.705,0.139-1.418,0.241-2.128,0.241
			C22.874,30.413,20.388,30.062,17.553,28.645z"/>
	</g>
</g>
<g>
</g>
<g>
</g>
<g>
</g>
<g>
</g>
<g>
</g>
<g>
</g>
<g>
</g>
<g>
</g>
<g>
</g>
<g>
</g>
<g>
</g>
<g>
</g>
<g>
</g>
<g>
</g>
<g>
</g>
</svg>
