<?xml version="1.0" encoding="iso-8859-1"?>
<!-- Generator: Adobe Illustrator 16.0.4, SVG Export Plug-In . SVG Version: 6.00 Build 0)  -->
<!DOCTYPE svg PUBLIC "-//W3C//DTD SVG 1.1//EN" "http://www.w3.org/Graphics/SVG/1.1/DTD/svg11.dtd">
<svg version="1.1" id="Layer_1" xmlns="http://www.w3.org/2000/svg" xmlns:xlink="http://www.w3.org/1999/xlink" x="0px" y="0px"
	 width="44px" height="36px" viewBox="0 0 44 36" style="enable-background:new 0 0 44 36;" xml:space="preserve">
<g id="_x38_22-photo-2-toolbar-selected_x40_2x.png">
	<g>
		<path d="M42,0H2C0.896,0,0,0.896,0,2v32c0,1.104,0.896,2,2,2h40c1.104,0,2-0.896,2-2V2C44,0.896,43.104,0,42,0z M37,30H7
			c-0.553,0-1-0.447-1-1c0-0.233,0.093-0.438,0.227-0.607l-0.013-0.011l10-14l0.013,0.01C16.409,14.159,16.681,14,17,14
			c0.276,0,0.526,0.112,0.707,0.293L25,21.586l3.293-3.293C28.474,18.112,28.724,18,29,18c0.295,0,0.554,0.134,0.736,0.337
			l0.007-0.006l8,10l-0.007,0.006C37.896,28.514,38,28.743,38,29C38,29.553,37.553,30,37,30z M34.003,13.982
			c-2.211,0-4.003-1.786-4.003-3.989s1.792-3.989,4.003-3.989s4.003,1.786,4.003,3.989S36.214,13.982,34.003,13.982z"/>
	</g>
</g>
<g>
</g>
<g>
</g>
<g>
</g>
<g>
</g>
<g>
</g>
<g>
</g>
<g>
</g>
<g>
</g>
<g>
</g>
<g>
</g>
<g>
</g>
<g>
</g>
<g>
</g>
<g>
</g>
<g>
</g>
</svg>
