<?xml version="1.0" encoding="iso-8859-1"?>
<!-- Generator: Adobe Illustrator 16.0.4, SVG Export Plug-In . SVG Version: 6.00 Build 0)  -->
<!DOCTYPE svg PUBLIC "-//W3C//DTD SVG 1.1//EN" "http://www.w3.org/Graphics/SVG/1.1/DTD/svg11.dtd">
<svg version="1.1" id="Layer_1" xmlns="http://www.w3.org/2000/svg" xmlns:xlink="http://www.w3.org/1999/xlink" x="0px" y="0px"
	 width="40px" height="44px" viewBox="0 0 40 44" style="enable-background:new 0 0 40 44;" xml:space="preserve">
<g id="_x38_23-birthday-cake-toolbar-selected_x40_2x.png">
	<g>
		<path d="M20,11c2.209,0,4-1.791,4-4s-1-7-5-7c0,5-3,3-3,7C16,9.209,17.791,11,20,11z M14.463,16.988L16,16.576V22h8v-7.567
			l2.055-0.551c0.533-0.143,0.85-0.691,0.707-1.225c-0.144-0.533-0.691-0.851-1.225-0.707l-11.592,3.105
			c-0.533,0.144-0.85,0.691-0.707,1.226C13.382,16.814,13.93,17.131,14.463,16.988z M36,30.827V28c0-2.209-1.791-4-4-4H8
			c-2.209,0-4,1.791-4,4v2.827C7.843,31.377,14.419,32,20,32S32.157,31.377,36,30.827z M39,42h-3v-9.173
			C32.157,33.377,25.581,34,20,34S7.843,33.377,4,32.827V42H1c-0.552,0-1,0.448-1,1c0,0.553,0.448,1,1,1h38c0.553,0,1-0.447,1-1
			C40,42.448,39.553,42,39,42z"/>
	</g>
</g>
<g>
</g>
<g>
</g>
<g>
</g>
<g>
</g>
<g>
</g>
<g>
</g>
<g>
</g>
<g>
</g>
<g>
</g>
<g>
</g>
<g>
</g>
<g>
</g>
<g>
</g>
<g>
</g>
<g>
</g>
</svg>
