<?xml version="1.0" encoding="iso-8859-1"?>
<!-- Generator: Adobe Illustrator 16.0.4, SVG Export Plug-In . SVG Version: 6.00 Build 0)  -->
<!DOCTYPE svg PUBLIC "-//W3C//DTD SVG 1.1//EN" "http://www.w3.org/Graphics/SVG/1.1/DTD/svg11.dtd">
<svg version="1.1" id="Layer_1" xmlns="http://www.w3.org/2000/svg" xmlns:xlink="http://www.w3.org/1999/xlink" x="0px" y="0px"
	 width="44px" height="40px" viewBox="0 0 44 40" style="enable-background:new 0 0 44 40;" xml:space="preserve">
<g id="_x38_26-money-1-toolbar-selected_x40_2x.png">
	<g>
		<path d="M8,10c-2.959,0-5.537-0.806-6.921-2C0.396,8.589,0,9.271,0,10c0,2.209,3.582,4,8,4s8-1.791,8-4
			c0-0.729-0.396-1.411-1.079-2C13.537,9.194,10.959,10,8,10z M8,16c-2.959,0-5.537-0.806-6.921-2C0.396,14.589,0,15.271,0,16
			c0,2.209,3.582,4,8,4s8-1.791,8-4c0-0.729-0.396-1.411-1.079-2C13.537,15.194,10.959,16,8,16z M8,22c-2.959,0-5.537-0.806-6.921-2
			C0.396,20.589,0,21.271,0,22c0,2.209,3.582,4,8,4s8-1.791,8-4c0-0.729-0.396-1.411-1.079-2C13.537,21.194,10.959,22,8,22z M8,28
			c-2.959,0-5.537-0.806-6.921-2C0.396,26.589,0,27.271,0,28c0,2.209,3.582,4,8,4s8-1.791,8-4c0-0.729-0.396-1.411-1.079-2
			C13.537,27.194,10.959,28,8,28z M8,0C3.582,0,0,1.791,0,4s3.582,4,8,4s8-1.791,8-4S12.418,0,8,0z M26,36
			c-2.959,0-5.537-0.806-6.921-2C18.396,34.589,18,35.271,18,36c0,2.209,3.582,4,8,4s8-1.791,8-4c0-0.729-0.396-1.411-1.079-2
			C31.537,35.194,28.96,36,26,36z M24,18c2.209,0,4-1.791,4-4s-1.791-4-4-4s-4,1.791-4,4S21.791,18,24,18z M40,2H19
			c-0.553,0-1,0.448-1,1v11c0-3.313,2.687-6,6-6s6,2.687,6,6s-2.687,6-6,6s-6-2.687-6-6v11c0,0.434,0.279,0.793,0.664,0.933
			C20.491,24.747,23.098,24,26,24c2.958,0,5.607,0.775,7.438,2H40c2.209,0,4-1.791,4-4V6C44,3.791,42.209,2,40,2z M36,20
			c-1.104,0-2-0.896-2-2s0.896-2,2-2s2,0.896,2,2S37.104,20,36,20z M36,12c-1.104,0-2-0.896-2-2s0.896-2,2-2s2,0.896,2,2
			S37.104,12,36,12z M26,26c-4.418,0-8,1.791-8,4s3.582,4,8,4s8-1.791,8-4S30.418,26,26,26z"/>
	</g>
</g>
<g>
</g>
<g>
</g>
<g>
</g>
<g>
</g>
<g>
</g>
<g>
</g>
<g>
</g>
<g>
</g>
<g>
</g>
<g>
</g>
<g>
</g>
<g>
</g>
<g>
</g>
<g>
</g>
<g>
</g>
</svg>
