<?xml version="1.0" encoding="iso-8859-1"?>
<!-- Generator: Adobe Illustrator 16.0.4, SVG Export Plug-In . SVG Version: 6.00 Build 0)  -->
<!DOCTYPE svg PUBLIC "-//W3C//DTD SVG 1.1//EN" "http://www.w3.org/Graphics/SVG/1.1/DTD/svg11.dtd">
<svg version="1.1" id="Layer_1" xmlns="http://www.w3.org/2000/svg" xmlns:xlink="http://www.w3.org/1999/xlink" x="0px" y="0px"
	 width="44px" height="32px" viewBox="0 0 44 32" style="enable-background:new 0 0 44 32;" xml:space="preserve">
<g id="_x38_27-money-2-toolbar-selected_x40_2x.png">
	<g>
		<path d="M7,13c0.553,0,1-0.447,1-1c0-0.552-0.447-1-1-1s-1,0.448-1,1C6,12.553,6.447,13,7,13z M0,28h17v-2H0V28z M30,12
			c0-2.525-1.173-4.773-3-6.239V18.24C28.827,16.773,30,14.525,30,12z M0,32h17v-2H0V32z M0,24h17v-3.349
			c-2.986-1.729-5-4.952-5-8.651s2.014-6.921,5-8.651V0H0V24z M7,9c1.657,0,3,1.344,3,3c0,1.657-1.343,3-3,3s-3-1.343-3-3
			C4,10.344,5.343,9,7,9z M14,12c0,2.525,1.173,4.773,3,6.24V5.761C15.173,7.227,14,9.475,14,12z M27,28h17v-2H27V28z M37,11
			c-0.553,0-1,0.448-1,1c0,0.553,0.447,1,1,1s1-0.447,1-1C38,11.448,37.553,11,37,11z M19,32h6v-2h-6V32z M27,0v3.349
			c2.986,1.73,5,4.952,5,8.651s-2.014,6.922-5,8.651V24h17V0H27z M37,15c-1.657,0-3-1.343-3-3c0-1.656,1.343-3,3-3s3,1.344,3,3
			C40,13.657,38.657,15,37,15z M19,28h6v-2h-6V28z M19,24h6V0h-6V24z M27,32h17v-2H27V32z"/>
	</g>
</g>
<g>
</g>
<g>
</g>
<g>
</g>
<g>
</g>
<g>
</g>
<g>
</g>
<g>
</g>
<g>
</g>
<g>
</g>
<g>
</g>
<g>
</g>
<g>
</g>
<g>
</g>
<g>
</g>
<g>
</g>
</svg>
