<?xml version="1.0" encoding="iso-8859-1"?>
<!-- Generator: Adobe Illustrator 16.0.4, SVG Export Plug-In . SVG Version: 6.00 Build 0)  -->
<!DOCTYPE svg PUBLIC "-//W3C//DTD SVG 1.1//EN" "http://www.w3.org/Graphics/SVG/1.1/DTD/svg11.dtd">
<svg version="1.1" id="Layer_1" xmlns="http://www.w3.org/2000/svg" xmlns:xlink="http://www.w3.org/1999/xlink" x="0px" y="0px"
	 width="40px" height="44.014px" viewBox="0 0 40 44.014" style="enable-background:new 0 0 40 44.014;" xml:space="preserve">
<g id="_x38_28-shield-toolbar-selected_x40_2x.png">
	<g>
		<path d="M20.829,18.683L20,16.145l-0.829,2.538l-0.45,1.38h-4.059l2.077,1.495l1.17,0.844l-0.43,1.376l-0.856,2.742l2.246-1.54
			L20,24.203l1.131,0.776l2.246,1.54l-0.856-2.742l-0.43-1.376l1.17-0.844l2.078-1.495h-4.06L20.829,18.683z M39.23,6.445
			c-10.379,0-18.695-6.051-18.778-6.11L20,0l-0.452,0.335c-0.083,0.06-8.399,6.11-18.778,6.11H0v8.609
			c0,21.614,18.38,28.959,20,28.959s20-7.345,20-28.959V6.445H39.23z M24.43,23.182l2.576,8.253L20,26.628l-7.006,4.807l2.576-8.253
			l-7.108-5.12h8.808L20,9.704l2.73,8.357h8.808L24.43,23.182z"/>
	</g>
</g>
<g>
</g>
<g>
</g>
<g>
</g>
<g>
</g>
<g>
</g>
<g>
</g>
<g>
</g>
<g>
</g>
<g>
</g>
<g>
</g>
<g>
</g>
<g>
</g>
<g>
</g>
<g>
</g>
<g>
</g>
</svg>
