<?xml version="1.0" encoding="iso-8859-1"?>
<!-- Generator: Adobe Illustrator 16.0.4, SVG Export Plug-In . SVG Version: 6.00 Build 0)  -->
<!DOCTYPE svg PUBLIC "-//W3C//DTD SVG 1.1//EN" "http://www.w3.org/Graphics/SVG/1.1/DTD/svg11.dtd">
<svg version="1.1" id="Layer_1" xmlns="http://www.w3.org/2000/svg" xmlns:xlink="http://www.w3.org/1999/xlink" x="0px" y="0px"
	 width="43.041px" height="43.315px" viewBox="0 0 43.041 43.315" style="enable-background:new 0 0 43.041 43.315;"
	 xml:space="preserve">
<g id="_x38_33-diamond-toolbar-selected_x40_2x.png">
	<g>
		<path d="M30.529,12L21.511,0h-0.027l-8.977,12H30.529z M42.978,12L33.368,0.471l-0.015,0.009C33.177,0.198,32.878,0,32.521,0
			h-8.53l9.019,12H42.978z M19.007,0h-8.486c-0.357,0-0.656,0.198-0.833,0.479L9.673,0.471L0.064,12h9.966L19.007,0z M11.95,14
			l9.57,26.103L31.091,14H11.95z M33.217,14L22.521,43.17v0.146L43.041,14H33.217z M0,14l20.521,29.315v-0.145L9.824,14H0z"/>
	</g>
</g>
<g>
</g>
<g>
</g>
<g>
</g>
<g>
</g>
<g>
</g>
<g>
</g>
<g>
</g>
<g>
</g>
<g>
</g>
<g>
</g>
<g>
</g>
<g>
</g>
<g>
</g>
<g>
</g>
<g>
</g>
</svg>
