<?xml version="1.0" encoding="iso-8859-1"?>
<!-- Generator: Adobe Illustrator 16.0.4, SVG Export Plug-In . SVG Version: 6.00 Build 0)  -->
<!DOCTYPE svg PUBLIC "-//W3C//DTD SVG 1.1//EN" "http://www.w3.org/Graphics/SVG/1.1/DTD/svg11.dtd">
<svg version="1.1" id="Layer_1" xmlns="http://www.w3.org/2000/svg" xmlns:xlink="http://www.w3.org/1999/xlink" x="0px" y="0px"
	 width="40px" height="44px" viewBox="0 0 40 44" style="enable-background:new 0 0 40 44;" xml:space="preserve">
<g id="_x38_34-bolt-toolbar-selected_x40_2x.png">
	<g>
		<path d="M39.481,10.141l0.007-0.013l-19-10l-0.007,0.013C20.337,0.06,20.178,0,20,0s-0.336,0.06-0.481,0.141l-0.007-0.013l-19,10
			l0.007,0.013C0.215,10.312,0,10.626,0,11v22c0,0.374,0.215,0.688,0.519,0.859l-0.007,0.014l19,10l0.007-0.014
			C19.664,43.941,19.822,44,20,44s0.337-0.059,0.481-0.141l0.007,0.014l19-10l-0.007-0.014C39.786,33.688,40,33.374,40,33V11
			C40,10.626,39.786,10.312,39.481,10.141z M20,30c-4.418,0-8-3.582-8-8s3.582-8,8-8s8,3.582,8,8S24.418,30,20,30z"/>
	</g>
</g>
<g>
</g>
<g>
</g>
<g>
</g>
<g>
</g>
<g>
</g>
<g>
</g>
<g>
</g>
<g>
</g>
<g>
</g>
<g>
</g>
<g>
</g>
<g>
</g>
<g>
</g>
<g>
</g>
<g>
</g>
</svg>
