<?xml version="1.0" encoding="iso-8859-1"?>
<!-- Generator: Adobe Illustrator 16.0.4, SVG Export Plug-In . SVG Version: 6.00 Build 0)  -->
<!DOCTYPE svg PUBLIC "-//W3C//DTD SVG 1.1//EN" "http://www.w3.org/Graphics/SVG/1.1/DTD/svg11.dtd">
<svg version="1.1" id="Layer_1" xmlns="http://www.w3.org/2000/svg" xmlns:xlink="http://www.w3.org/1999/xlink" x="0px" y="0px"
	 width="28px" height="44px" viewBox="0 0 28 44" style="enable-background:new 0 0 28 44;" xml:space="preserve">
<g id="_x38_35-screw-toolbar-selected_x40_2x.png">
	<g>
		<path d="M9.335,33.656L20,27.198v-2.662l-11.496,6.96L9.335,33.656z M10.895,37.711l8.097-4.901l0.942-2.45l-0.006-0.002
			C19.971,30.246,20,30.127,20,30v-0.464l-9.936,6.017L10.895,37.711z M13.066,43.359l0.006-0.002C13.217,43.731,13.574,44,14,44
			s0.784-0.269,0.928-0.643l0.006,0.002l2.886-7.503l-6.195,3.751L13.066,43.359z M8,24.464l12-7.266v-2.662L8,21.802V24.464z
			 M8,29.464l12-7.266v-2.662L8,26.802V29.464z M15.148,0.016C15.099,0.012,15.051,0,15,0v2h-2V0c-0.051,0-0.098,0.012-0.147,0.016
			C3.705,0.168,0,2.159,0,6c0,2,2,2,2,2h6v6.464L18.676,8H26c0,0,2,0,2-2C28,2.159,24.296,0.168,15.148,0.016z M8,19.464l12-7.266
			V9.536L8,16.802V19.464z"/>
	</g>
</g>
<g>
</g>
<g>
</g>
<g>
</g>
<g>
</g>
<g>
</g>
<g>
</g>
<g>
</g>
<g>
</g>
<g>
</g>
<g>
</g>
<g>
</g>
<g>
</g>
<g>
</g>
<g>
</g>
<g>
</g>
</svg>
