<?xml version="1.0" encoding="iso-8859-1"?>
<!-- Generator: Adobe Illustrator 16.0.4, SVG Export Plug-In . SVG Version: 6.00 Build 0)  -->
<!DOCTYPE svg PUBLIC "-//W3C//DTD SVG 1.1//EN" "http://www.w3.org/Graphics/SVG/1.1/DTD/svg11.dtd">
<svg version="1.1" id="Layer_1" xmlns="http://www.w3.org/2000/svg" xmlns:xlink="http://www.w3.org/1999/xlink" x="0px" y="0px"
	 width="40px" height="44px" viewBox="0 0 40 44" style="enable-background:new 0 0 40 44;" xml:space="preserve">
<g id="_x38_37-palette-toolbar-selected_x40_2x.png">
	<g>
		<path d="M19,10c0.553,0,1-0.447,1-1s-0.447-1-1-1s-1,0.447-1,1S18.447,10,19,10z M11,10c-0.553,0-1,0.448-1,1c0,0.553,0.447,1,1,1
			s1-0.447,1-1C12,10.448,11.553,10,11,10z M31,18c-0.553,0-1,0.448-1,1c0,0.553,0.447,1,1,1s1-0.447,1-1C32,18.448,31.553,18,31,18
			z M18.462,0C7.937,0,0,5.742,0,13.357c0,4.81,3.469,6.268,6.002,7.333c2.343,0.984,3.229,1.487,3.229,2.881
			c0,2.163-0.813,2.923-1.94,3.974C6.099,28.657,4.615,30.041,4.615,33c0,2.581,0.998,11,13.847,11
			c3.462,0,8.831-1.269,13.515-4.828C35.636,36.39,40,31.287,40,22.786C40,7.986,28.903,0,18.462,0z M19,6c1.657,0,3,1.344,3,3
			c0,1.657-1.343,3-3,3s-3-1.343-3-3C16,7.344,17.343,6,19,6z M11,14c-1.657,0-3-1.343-3-3c0-1.656,1.343-3,3-3s3,1.344,3,3
			C14,12.657,12.657,14,11,14z M19,36c-2.762,0-5-2.238-5-5s2.238-5,5-5s5,2.238,5,5S21.762,36,19,36z M24,11c0-1.656,1.343-3,3-3
			s3,1.344,3,3c0,1.657-1.343,3-3,3S24,12.657,24,11z M31,22c-1.657,0-3-1.343-3-3s1.343-3,3-3s3,1.343,3,3S32.657,22,31,22z M19,28
			c-1.657,0-3,1.343-3,3s1.343,3,3,3s3-1.343,3-3S20.657,28,19,28z M27,10c-0.553,0-1,0.448-1,1c0,0.553,0.447,1,1,1s1-0.447,1-1
			C28,10.448,27.553,10,27,10z"/>
	</g>
</g>
<g>
</g>
<g>
</g>
<g>
</g>
<g>
</g>
<g>
</g>
<g>
</g>
<g>
</g>
<g>
</g>
<g>
</g>
<g>
</g>
<g>
</g>
<g>
</g>
<g>
</g>
<g>
</g>
<g>
</g>
</svg>
