<?xml version="1.0" encoding="iso-8859-1"?>
<!-- Generator: Adobe Illustrator 16.0.4, SVG Export Plug-In . SVG Version: 6.00 Build 0)  -->
<!DOCTYPE svg PUBLIC "-//W3C//DTD SVG 1.1//EN" "http://www.w3.org/Graphics/SVG/1.1/DTD/svg11.dtd">
<svg version="1.1" id="Layer_1" xmlns="http://www.w3.org/2000/svg" xmlns:xlink="http://www.w3.org/1999/xlink" x="0px" y="0px"
	 width="44.006px" height="43.988px" viewBox="0 0 44.006 43.988" style="enable-background:new 0 0 44.006 43.988;"
	 xml:space="preserve">
<g id="_x38_38-dice-toolbar-selected_x40_2x.png">
	<g>
		<path d="M43.979,38.111l-2.283-17.334c-0.21-1.601-1.577-2.766-3.15-2.766c-0.138,0-0.277,0.01-0.418,0.028l-7.355,0.968
			L26.955,5.269C27.597,4.718,28.012,3.912,28.012,3c0-1.656-1.343-3-3-3s-3,1.344-3,3c0,0.551,0.159,1.061,0.418,1.504
			l-6.094,10.663l-7.731-2.073c-0.277-0.074-0.557-0.109-0.832-0.109c-1.416,0-2.712,0.945-3.096,2.379L0.11,32.409
			c-0.458,1.712,0.557,3.472,2.269,3.931l15.848,4.246l-2.165-16.437c-0.371-2.831,1.63-5.438,4.46-5.811l5.13-0.675
			c-0.003-0.001-0.004-0.002-0.007-0.002l-7.311-1.96l5.653-9.894C24.309,5.926,24.65,6,25.012,6c0.025,0,0.049-0.007,0.073-0.007
			l3.688,13.277l-7.99,1.052c-1.741,0.229-2.967,1.826-2.738,3.567l2.283,17.333c0.211,1.602,1.577,2.766,3.149,2.766
			c0.139,0,0.278-0.01,0.42-0.027l17.343-2.283C42.982,41.449,44.208,39.852,43.979,38.111z M15.58,27.611
			c-0.136,0.83-0.92,1.393-1.75,1.257c-0.83-0.137-1.394-0.92-1.257-1.751c0.137-0.83,0.92-1.393,1.751-1.257
			C15.154,25.997,15.717,26.781,15.58,27.611z M23.932,27.508c-0.245-0.806,0.21-1.656,1.015-1.901
			c0.806-0.245,1.656,0.21,1.901,1.015s-0.209,1.656-1.015,1.901C25.027,28.767,24.177,28.312,23.932,27.508z M27.469,38.388
			c-0.806,0.244-1.656-0.21-1.901-1.015c-0.245-0.806,0.209-1.656,1.015-1.901c0.805-0.245,1.656,0.21,1.901,1.015
			S28.273,38.143,27.469,38.388z M31.583,32.637c-0.805,0.245-1.656-0.209-1.9-1.015c-0.245-0.805,0.209-1.656,1.015-1.901
			c0.805-0.244,1.656,0.21,1.9,1.015C32.843,31.541,32.389,32.393,31.583,32.637z M33.797,25.872
			c-0.244-0.806,0.21-1.656,1.015-1.901c0.806-0.245,1.656,0.21,1.901,1.015s-0.209,1.656-1.015,1.901
			C34.894,27.131,34.042,26.678,33.797,25.872z M37.334,36.752c-0.806,0.244-1.656-0.209-1.901-1.015s0.21-1.656,1.015-1.901
			s1.656,0.21,1.901,1.015C38.594,35.656,38.139,36.507,37.334,36.752z"/>
	</g>
</g>
<g>
</g>
<g>
</g>
<g>
</g>
<g>
</g>
<g>
</g>
<g>
</g>
<g>
</g>
<g>
</g>
<g>
</g>
<g>
</g>
<g>
</g>
<g>
</g>
<g>
</g>
<g>
</g>
<g>
</g>
</svg>
