<?xml version="1.0" encoding="iso-8859-1"?>
<!-- Generator: Adobe Illustrator 16.0.4, SVG Export Plug-In . SVG Version: 6.00 Build 0)  -->
<!DOCTYPE svg PUBLIC "-//W3C//DTD SVG 1.1//EN" "http://www.w3.org/Graphics/SVG/1.1/DTD/svg11.dtd">
<svg version="1.1" id="Layer_1" xmlns="http://www.w3.org/2000/svg" xmlns:xlink="http://www.w3.org/1999/xlink" x="0px" y="0px"
	 width="32px" height="44px" viewBox="0 0 32 44" style="enable-background:new 0 0 32 44;" xml:space="preserve">
<g id="_x38_39-mobile-phone-toolbar-selected_x40_2x.png">
	<g>
		<path d="M28,0H4C1.791,0,0,1.791,0,4v36c0,2.209,1.791,4,4,4h24c2.209,0,4-1.791,4-4V4C32,1.791,30.209,0,28,0z M13,4h6
			c0.553,0,1,0.448,1,1c0,0.553-0.447,1-1,1h-6c-0.553,0-1-0.447-1-1C12,4.448,12.447,4,13,4z M11,37c0,1.104-0.896,2-2,2H7
			c-1.104,0-2-0.896-2-2v-2c0-1.104,0.896-2,2-2h2c1.104,0,2,0.896,2,2V37z M11,29c0,1.104-0.896,2-2,2H7c-1.104,0-2-0.896-2-2v-2
			c0-1.104,0.896-2,2-2h2c1.104,0,2,0.896,2,2V29z M19,37c0,1.104-0.896,2-2,2h-2c-1.104,0-2-0.896-2-2v-2c0-1.104,0.896-2,2-2h2
			c1.104,0,2,0.896,2,2V37z M19,29c0,1.104-0.896,2-2,2h-2c-1.104,0-2-0.896-2-2v-2c0-1.104,0.896-2,2-2h2c1.104,0,2,0.896,2,2V29z
			 M27,37c0,1.104-0.896,2-2,2h-2c-1.104,0-2-0.896-2-2v-2c0-1.104,0.896-2,2-2h2c1.104,0,2,0.896,2,2V37z M27,29
			c0,1.104-0.896,2-2,2h-2c-1.104,0-2-0.896-2-2v-2c0-1.104,0.896-2,2-2h2c1.104,0,2,0.896,2,2V29z M27,21c0,1.104-0.896,2-2,2H7
			c-1.104,0-2-0.896-2-2V10c0-1.104,0.896-2,2-2h18c1.104,0,2,0.896,2,2V21z M23,29h2v-2h-2V29z M7,37h2v-2H7V37z M7,29h2v-2H7V29z
			 M15,29h2v-2h-2V29z M15,37h2v-2h-2V37z M23,37h2v-2h-2V37z M7,21h18V10H7V21z"/>
	</g>
</g>
<g>
</g>
<g>
</g>
<g>
</g>
<g>
</g>
<g>
</g>
<g>
</g>
<g>
</g>
<g>
</g>
<g>
</g>
<g>
</g>
<g>
</g>
<g>
</g>
<g>
</g>
<g>
</g>
<g>
</g>
</svg>
