<?xml version="1.0" encoding="iso-8859-1"?>
<!-- Generator: Adobe Illustrator 16.0.4, SVG Export Plug-In . SVG Version: 6.00 Build 0)  -->
<!DOCTYPE svg PUBLIC "-//W3C//DTD SVG 1.1//EN" "http://www.w3.org/Graphics/SVG/1.1/DTD/svg11.dtd">
<svg version="1.1" id="Layer_1" xmlns="http://www.w3.org/2000/svg" xmlns:xlink="http://www.w3.org/1999/xlink" x="0px" y="0px"
	 width="40px" height="44px" viewBox="0 0 40 44" style="enable-background:new 0 0 40 44;" xml:space="preserve">
<g id="_x38_40-stopwatch-2-toolbar-selected_x40_2x.png">
	<g>
		<path d="M23,4.249V2h1c0.553,0,1-0.447,1-1s-0.447-1-1-1h-8c-0.553,0-1,0.447-1,1s0.447,1,1,1h1v2.249
			c-2.784,0.42-5.376,1.406-7.659,2.85L7.812,5.57c-0.781-0.781-2.047-0.781-2.828,0L3.57,6.984c-0.781,0.781-0.781,2.047,0,2.828
			l1.22,1.221C1.81,14.525,0,19.049,0,24c0,11.046,8.954,20,20,20s20-8.954,20-20C40,13.977,32.619,5.7,23,4.249z M6.144,16
			c0.276-0.479,0.888-0.643,1.366-0.366S8.151,16.521,7.876,17C7.6,17.479,6.988,17.643,6.51,17.366S5.867,16.479,6.144,16z M5,25
			c-0.553,0-1-0.447-1-1c0-0.552,0.447-1,1-1s1,0.448,1,1C6,24.553,5.553,25,5,25z M7.51,32.366C7.031,32.643,6.42,32.479,6.144,32
			s-0.112-1.09,0.366-1.366S7.6,30.521,7.876,31S7.988,32.09,7.51,32.366z M26.634,10.51c0.276-0.479,0.888-0.643,1.366-0.366
			s0.643,0.888,0.366,1.366S27.479,12.151,27,11.876C26.521,11.6,26.357,10.988,26.634,10.51z M20,8c0.553,0,1,0.448,1,1
			c0,0.553-0.447,1-1,1s-1-0.447-1-1C19,8.448,19.447,8,20,8z M13.366,37.49c-0.276,0.479-0.888,0.643-1.366,0.366
			s-0.643-0.888-0.366-1.366s0.888-0.643,1.366-0.366S13.643,37.012,13.366,37.49z M13,11.876c-0.479,0.275-1.09,0.112-1.366-0.366
			S11.521,10.42,12,10.144s1.09-0.112,1.366,0.366S13.479,11.6,13,11.876z M20,40c-0.553,0-1-0.447-1-1c0-0.552,0.447-1,1-1
			s1,0.448,1,1C21,39.553,20.553,40,20,40z M28,37.856c-0.479,0.276-1.09,0.112-1.366-0.366S26.521,36.4,27,36.124
			s1.09-0.112,1.366,0.366S28.479,37.58,28,37.856z M28.728,16.687L22.7,22.715C22.887,23.105,23,23.538,23,24c0,1.657-1.343,3-3,3
			s-3-1.343-3-3c0-1.656,1.343-3,3-3c0.462,0,0.895,0.113,1.286,0.301l6.027-6.028c0.391-0.391,1.024-0.391,1.414,0
			C29.118,15.663,29.118,16.296,28.728,16.687z M33.856,32c-0.276,0.479-0.888,0.643-1.366,0.366S31.848,31.479,32.124,31
			s0.888-0.643,1.366-0.366S34.133,31.521,33.856,32z M33.49,17.366c-0.479,0.276-1.09,0.112-1.366-0.366
			c-0.275-0.479-0.112-1.09,0.366-1.366s1.09-0.112,1.366,0.366S33.969,17.09,33.49,17.366z M35,25c-0.553,0-1-0.447-1-1
			c0-0.552,0.447-1,1-1s1,0.448,1,1C36,24.553,35.553,25,35,25z"/>
	</g>
</g>
<g>
</g>
<g>
</g>
<g>
</g>
<g>
</g>
<g>
</g>
<g>
</g>
<g>
</g>
<g>
</g>
<g>
</g>
<g>
</g>
<g>
</g>
<g>
</g>
<g>
</g>
<g>
</g>
<g>
</g>
</svg>
