<?xml version="1.0" encoding="iso-8859-1"?>
<!-- Generator: Adobe Illustrator 16.0.4, SVG Export Plug-In . SVG Version: 6.00 Build 0)  -->
<!DOCTYPE svg PUBLIC "-//W3C//DTD SVG 1.1//EN" "http://www.w3.org/Graphics/SVG/1.1/DTD/svg11.dtd">
<svg version="1.1" id="Layer_1" xmlns="http://www.w3.org/2000/svg" xmlns:xlink="http://www.w3.org/1999/xlink" x="0px" y="0px"
	 width="44px" height="44px" viewBox="0 0 44 44" style="enable-background:new 0 0 44 44;" xml:space="preserve">
<g id="_x38_41-music-playlist-toolbar-selected_x40_2x.png">
	<g>
		<path d="M21,8h-3v14.613C17.163,22.234,16.131,22,15,22c-2.761,0-5,1.344-5,3c0,1.657,2.239,3,5,3s5-1.343,5-3v-8h0l0-3.889V10h1
			c2.897,0,4.954,0.664,6.348,1.41C26.562,9.786,24.826,8,21,8z M43,10c-0.553,0-1,0.447-1,1v31H11c-0.552,0-1,0.448-1,1
			c0,0.553,0.448,1,1,1h31c1.104,0,2-0.896,2-2V11C44,10.447,43.553,10,43,10z M36,34V2c0-1.104-0.896-2-2-2H2C0.896,0,0,0.896,0,2
			v32c0,1.104,0.896,2,2,2h32C35.104,36,36,35.104,36,34z M22,12.03V25c0,2.762-3.134,5-7,5s-7-2.238-7-5c0-2.761,3.134-5,7-5
			c0.343,0,0.67,0.038,1,0.072V19h0V8c0-0.97,0.701-2,2-2h3c4.613,0,6.825,2.178,7.869,4.004C29.741,11.531,30,15,30,15
			S27.388,12.561,22,12.03z M40,38V7c0-0.553-0.447-1-1-1s-1,0.447-1,1v31H7c-0.552,0-1,0.447-1,1s0.448,1,1,1h31
			C39.104,40,40,39.104,40,38z"/>
	</g>
</g>
<g>
</g>
<g>
</g>
<g>
</g>
<g>
</g>
<g>
</g>
<g>
</g>
<g>
</g>
<g>
</g>
<g>
</g>
<g>
</g>
<g>
</g>
<g>
</g>
<g>
</g>
<g>
</g>
<g>
</g>
</svg>
