<?xml version="1.0" encoding="iso-8859-1"?>
<!-- Generator: Adobe Illustrator 16.0.4, SVG Export Plug-In . SVG Version: 6.00 Build 0)  -->
<!DOCTYPE svg PUBLIC "-//W3C//DTD SVG 1.1//EN" "http://www.w3.org/Graphics/SVG/1.1/DTD/svg11.dtd">
<svg version="1.1" id="Layer_1" xmlns="http://www.w3.org/2000/svg" xmlns:xlink="http://www.w3.org/1999/xlink" x="0px" y="0px"
	 width="44px" height="36.008px" viewBox="0 0 44 36.008" style="enable-background:new 0 0 44 36.008;" xml:space="preserve">
<g id="_x38_42-chat-bubbles-toolbar-selected_x40_2x.png">
	<g>
		<path d="M28.542,7.415C26.129,3.034,20.983,0,15.007,0C6.719,0,0,5.82,0,13c0,3.506,1.609,6.682,4.215,9.021
			c-0.62,4.674,0.378,8.99,0.378,8.99c1.652-3.105,3.586-4.826,5.39-5.773C11.555,25.723,13.242,26,15.007,26
			c1.619,0,3.175-0.229,4.636-0.639c-1.041-1.747-1.636-3.737-1.636-5.851C18.007,13.687,22.497,8.795,28.542,7.415z M44,19.502
			c0-5.798-5.369-10.498-11.994-10.498c-6.623,0-11.993,4.7-11.993,10.498S25.383,30,32.006,30c0.465,0,0.922-0.028,1.373-0.073
			c1.984,0.856,4.198,2.598,6.059,6.081c0,0,0.943-4.073,0.428-8.588C42.395,25.496,44,22.666,44,19.502z"/>
	</g>
</g>
<g>
</g>
<g>
</g>
<g>
</g>
<g>
</g>
<g>
</g>
<g>
</g>
<g>
</g>
<g>
</g>
<g>
</g>
<g>
</g>
<g>
</g>
<g>
</g>
<g>
</g>
<g>
</g>
<g>
</g>
</svg>
