<?xml version="1.0" encoding="iso-8859-1"?>
<!-- Generator: Adobe Illustrator 16.0.4, SVG Export Plug-In . SVG Version: 6.00 Build 0)  -->
<!DOCTYPE svg PUBLIC "-//W3C//DTD SVG 1.1//EN" "http://www.w3.org/Graphics/SVG/1.1/DTD/svg11.dtd">
<svg version="1.1" id="Layer_1" xmlns="http://www.w3.org/2000/svg" xmlns:xlink="http://www.w3.org/1999/xlink" x="0px" y="0px"
	 width="44px" height="44px" viewBox="0 0 44 44" style="enable-background:new 0 0 44 44;" xml:space="preserve">
<g id="_x38_45-location-target-toolbar-selected_x40_2x.png">
	<g>
		<path d="M4.051,21H1c-0.552,0-1,0.448-1,1c0,0.553,0.448,1,1,1h3.051C4.032,22.667,4,22.338,4,22C4,21.663,4.032,21.333,4.051,21z
			 M23,4.051V1c0-0.553-0.448-1-1-1c-0.553,0-1,0.447-1,1v3.051C21.333,4.032,21.662,4,22,4S22.667,4.032,23,4.051z M43,21h-3.051
			C39.968,21.333,40,21.663,40,22c0,0.338-0.032,0.667-0.051,1H43c0.553,0,1-0.447,1-1C44,21.448,43.553,21,43,21z M21,39.949V43
			c0,0.553,0.447,1,1,1c0.552,0,1-0.447,1-1v-3.051C22.667,39.968,22.338,40,22,40S21.333,39.968,21,39.949z M34,22
			c0-0.552,0.448-1,1-1h4.949C39.446,11.86,32.14,4.554,23,4.051V9c0,0.553-0.448,1-1,1c-0.553,0-1-0.447-1-1V4.051
			C11.859,4.555,4.554,11.86,4.051,21H9c0.553,0,1,0.448,1,1c0,0.553-0.447,1-1,1H4.051C4.554,32.141,11.859,39.445,21,39.949V35
			c0-0.553,0.447-1,1-1c0.552,0,1,0.447,1,1v4.949C32.14,39.446,39.446,32.141,39.949,23H35C34.448,23,34,22.553,34,22z M22,28
			c-3.313,0-6-2.686-6-6c0-3.313,2.687-6,6-6s6,2.687,6,6C28,25.314,25.313,28,22,28z M22,18c-2.209,0-4,1.791-4,4s1.791,4,4,4
			s4-1.791,4-4S24.209,18,22,18z"/>
	</g>
</g>
<g>
</g>
<g>
</g>
<g>
</g>
<g>
</g>
<g>
</g>
<g>
</g>
<g>
</g>
<g>
</g>
<g>
</g>
<g>
</g>
<g>
</g>
<g>
</g>
<g>
</g>
<g>
</g>
<g>
</g>
</svg>
