<?xml version="1.0" encoding="iso-8859-1"?>
<!-- Generator: Adobe Illustrator 16.0.4, SVG Export Plug-In . SVG Version: 6.00 Build 0)  -->
<!DOCTYPE svg PUBLIC "-//W3C//DTD SVG 1.1//EN" "http://www.w3.org/Graphics/SVG/1.1/DTD/svg11.dtd">
<svg version="1.1" id="Layer_1" xmlns="http://www.w3.org/2000/svg" xmlns:xlink="http://www.w3.org/1999/xlink" x="0px" y="0px"
	 width="44px" height="44px" viewBox="0 0 44 44" style="enable-background:new 0 0 44 44;" xml:space="preserve">
<g id="_x38_46-sun-1-toolbar-selected_x40_2x.png">
	<g>
		<path d="M44,22.004c0-0.314-0.159-0.582-0.393-0.763l0.018-0.022l-4.439-3.551l1.703-5.245c0.062-0.13,0.102-0.271,0.102-0.425
			c0-0.439-0.284-0.802-0.676-0.939l0.002-0.007l-5.525-1.843l-1.842-5.525l-0.022,0.008C32.802,3.282,32.441,2.98,32,2.98
			c-0.153,0-0.295,0.043-0.424,0.107l-5.23,1.743l-3.564-4.456l-0.011,0.009C22.587,0.155,22.316,0,22,0
			c-0.315,0-0.586,0.155-0.771,0.384l-0.01-0.009l-3.564,4.456l-5.23-1.743c-0.13-0.064-0.271-0.107-0.424-0.107
			c-0.441,0-0.802,0.302-0.927,0.711l-0.022-0.008L9.21,9.209l-5.525,1.843l0.002,0.007c-0.392,0.138-0.676,0.5-0.676,0.939
			c0,0.11,0.03,0.212,0.062,0.311l-0.021,0.008l1.779,5.338l-4.455,3.564l0.018,0.022C0.16,21.422,0,21.689,0,22.004
			c0,0.312,0.158,0.579,0.39,0.76l-0.014,0.018l4.439,3.551l-1.703,5.245c-0.062,0.13-0.102,0.271-0.102,0.425
			c0,0.439,0.284,0.802,0.676,0.939l-0.002,0.008l5.525,1.842l1.842,5.525l0.022-0.008c0.125,0.409,0.485,0.711,0.927,0.711
			c0.153,0,0.294-0.043,0.424-0.106l5.23-1.744l3.564,4.456l0.01-0.009C21.414,43.845,21.685,44,22,44
			c0.316,0,0.587-0.155,0.771-0.384l0.011,0.009l3.564-4.456l5.23,1.744c0.13,0.063,0.271,0.106,0.424,0.106
			c0.441,0,0.802-0.302,0.927-0.711l0.022,0.008l1.842-5.525l5.525-1.842l-0.002-0.008c0.391-0.138,0.676-0.5,0.676-0.939
			c0-0.11-0.03-0.211-0.062-0.311l0.021-0.008l-1.779-5.338l4.455-3.564l-0.014-0.018C43.843,22.583,44,22.316,44,22.004z
			 M21.998,32.009c-5.519,0-9.993-4.477-9.993-9.999c0-5.521,4.475-9.998,9.993-9.998c5.52,0,9.993,4.477,9.993,9.998
			C31.991,27.532,27.518,32.009,21.998,32.009z"/>
	</g>
</g>
<g>
</g>
<g>
</g>
<g>
</g>
<g>
</g>
<g>
</g>
<g>
</g>
<g>
</g>
<g>
</g>
<g>
</g>
<g>
</g>
<g>
</g>
<g>
</g>
<g>
</g>
<g>
</g>
<g>
</g>
</svg>
