<?xml version="1.0" encoding="iso-8859-1"?>
<!-- Generator: Adobe Illustrator 16.0.4, SVG Export Plug-In . SVG Version: 6.00 Build 0)  -->
<!DOCTYPE svg PUBLIC "-//W3C//DTD SVG 1.1//EN" "http://www.w3.org/Graphics/SVG/1.1/DTD/svg11.dtd">
<svg version="1.1" id="Layer_1" xmlns="http://www.w3.org/2000/svg" xmlns:xlink="http://www.w3.org/1999/xlink" x="0px" y="0px"
	 width="30px" height="44px" viewBox="0 0 30 44" style="enable-background:new 0 0 30 44;" xml:space="preserve">
<g id="_x38_50-calculator-toolbar-selected_x40_2x.png">
	<g>
		<path d="M6,22h2v-2H6V22z M6,30h2v-2H6V30z M6,38h2v-2H6V38z M26,0H4C1.791,0,0,1.791,0,4v36c0,2.209,1.791,4,4,4h22
			c2.209,0,4-1.791,4-4V4C30,1.791,28.209,0,26,0z M10,38c0,1.104-0.896,2-2,2H6c-1.104,0-2-0.896-2-2v-2c0-1.104,0.896-2,2-2h2
			c1.104,0,2,0.896,2,2V38z M10,30c0,1.104-0.896,2-2,2H6c-1.104,0-2-0.896-2-2v-2c0-1.104,0.896-2,2-2h2c1.104,0,2,0.896,2,2V30z
			 M10,22c0,1.104-0.896,2-2,2H6c-1.104,0-2-0.896-2-2v-2c0-1.104,0.896-2,2-2h2c1.104,0,2,0.896,2,2V22z M18,38
			c0,1.104-0.896,2-2,2h-2c-1.104,0-2-0.896-2-2v-2c0-1.104,0.896-2,2-2h2c1.104,0,2,0.896,2,2V38z M18,30c0,1.104-0.896,2-2,2h-2
			c-1.104,0-2-0.896-2-2v-2c0-1.104,0.896-2,2-2h2c1.104,0,2,0.896,2,2V30z M18,22c0,1.104-0.896,2-2,2h-2c-1.104,0-2-0.896-2-2v-2
			c0-1.104,0.896-2,2-2h2c1.104,0,2,0.896,2,2V22z M26,29v1v6v1v1c0,1.104-0.896,2-2,2h-2c-1.104,0-2-0.896-2-2v-1v-1v-6v-1v-1
			c0-1.104,0.896-2,2-2h2c1.104,0,2,0.896,2,2V29z M26,22c0,1.104-0.896,2-2,2h-2c-1.104,0-2-0.896-2-2v-2c0-1.104,0.896-2,2-2h2
			c1.104,0,2,0.896,2,2V22z M26,14c0,1.104-0.896,2-2,2H6c-1.104,0-2-0.896-2-2V6c0-1.104,0.896-2,2-2h18c1.104,0,2,0.896,2,2V14z
			 M14,38h2v-2h-2V38z M6,14h18V6H6V14z M22,29v9h2v-9v-1h-2V29z M22,22h2v-2h-2V22z M14,22h2v-2h-2V22z M14,30h2v-2h-2V30z"/>
	</g>
</g>
<g>
</g>
<g>
</g>
<g>
</g>
<g>
</g>
<g>
</g>
<g>
</g>
<g>
</g>
<g>
</g>
<g>
</g>
<g>
</g>
<g>
</g>
<g>
</g>
<g>
</g>
<g>
</g>
<g>
</g>
</svg>
