<?xml version="1.0" encoding="iso-8859-1"?>
<!-- Generator: Adobe Illustrator 16.0.4, SVG Export Plug-In . SVG Version: 6.00 Build 0)  -->
<!DOCTYPE svg PUBLIC "-//W3C//DTD SVG 1.1//EN" "http://www.w3.org/Graphics/SVG/1.1/DTD/svg11.dtd">
<svg version="1.1" id="Layer_1" xmlns="http://www.w3.org/2000/svg" xmlns:xlink="http://www.w3.org/1999/xlink" x="0px" y="0px"
	 width="44px" height="44px" viewBox="0 0 44 44" style="enable-background:new 0 0 44 44;" xml:space="preserve">
<g id="_x38_51-calendar-toolbar-selected_x40_2x.png">
	<g>
		<path d="M0,44h44V12H0V44z M35,15h4v4h-4V15z M35,22h4v4h-4V22z M35,29h4v4h-4V29z M29,15h4v4h-4V15z M29,22h4v4h-4V22z M29,29h4
			v4h-4V29z M23,15h4v4h-4V15z M23,22h4v4h-4V22z M23,29h4v4h-4V29z M23,36h4v4h-4V36z M17,15h4v4h-4V15z M17,22h4v4h-4V22z M17,29
			h4v4h-4V29z M17,36h4v4h-4V36z M11,15h4v4h-4V15z M11,22h4v4h-4V22z M11,29h4v4h-4V29z M11,36h4v4h-4V36z M5,22h4v4H5V22z M5,29h4
			v4H5V29z M5,36h4v4H5V36z M36,4V1c0-0.553-0.447-1-1-1s-1,0.447-1,1v3H10V1c0-0.553-0.448-1-1-1S8,0.447,8,1v3H0v6h44V4H36z"/>
	</g>
</g>
<g>
</g>
<g>
</g>
<g>
</g>
<g>
</g>
<g>
</g>
<g>
</g>
<g>
</g>
<g>
</g>
<g>
</g>
<g>
</g>
<g>
</g>
<g>
</g>
<g>
</g>
<g>
</g>
<g>
</g>
</svg>
