<?xml version="1.0" encoding="iso-8859-1"?>
<!-- Generator: Adobe Illustrator 16.0.4, SVG Export Plug-In . SVG Version: 6.00 Build 0)  -->
<!DOCTYPE svg PUBLIC "-//W3C//DTD SVG 1.1//EN" "http://www.w3.org/Graphics/SVG/1.1/DTD/svg11.dtd">
<svg version="1.1" id="Layer_1" xmlns="http://www.w3.org/2000/svg" xmlns:xlink="http://www.w3.org/1999/xlink" x="0px" y="0px"
	 width="24px" height="43.996px" viewBox="0 0 24 43.996" style="enable-background:new 0 0 24 43.996;" xml:space="preserve">
<g id="_x38_57-rocket-toolbar-selected_x40_2x.png">
	<g>
		<path d="M19,27.053c2.565-3.994,3-7.052,3-12.021C22,7.001,14,0,12,0S2,7.001,2,15.031c0,4.97,0.434,8.027,3,12.021l-5,8.012
			v8.932l8-7.93l4,7.93l4-7.93l8,7.93v-8.932L19,27.053z M12,22.998c-1.104,0-2-0.896-2-2s0.896-2,2-2s2,0.896,2,2
			S13.104,22.998,12,22.998z M12,14.998c-1.104,0-2-0.896-2-2s0.896-2,2-2s2,0.896,2,2S13.104,14.998,12,14.998z"/>
	</g>
</g>
<g>
</g>
<g>
</g>
<g>
</g>
<g>
</g>
<g>
</g>
<g>
</g>
<g>
</g>
<g>
</g>
<g>
</g>
<g>
</g>
<g>
</g>
<g>
</g>
<g>
</g>
<g>
</g>
<g>
</g>
</svg>
