<?xml version="1.0" encoding="iso-8859-1"?>
<!-- Generator: Adobe Illustrator 16.0.4, SVG Export Plug-In . SVG Version: 6.00 Build 0)  -->
<!DOCTYPE svg PUBLIC "-//W3C//DTD SVG 1.1//EN" "http://www.w3.org/Graphics/SVG/1.1/DTD/svg11.dtd">
<svg version="1.1" id="Layer_1" xmlns="http://www.w3.org/2000/svg" xmlns:xlink="http://www.w3.org/1999/xlink" x="0px" y="0px"
	 width="44px" height="44px" viewBox="0 0 44 44" style="enable-background:new 0 0 44 44;" xml:space="preserve">
<g id="_x38_64-rain-cloud-toolbar-selected_x40_2x.png">
	<g>
		<path d="M20,38c0,1.104,0.896,2,2,2s2-0.896,2-2s-2-4-2-4S20,36.896,20,38z M28.998,6.015c-0.071,0-0.14,0.007-0.21,0.008
			C26.972,2.452,23.271,0,18.99,0C12.918,0,7.995,4.923,7.995,10.996c0,1.148,0.178,2.257,0.505,3.298
			C3.631,15.428,0,19.784,0,24.999C0,31.074,4.925,36,11,36h7.794C19.959,33.713,22,31,22,31s2.041,2.713,3.207,5h3.806v-0.001
			C37.291,35.991,44,29.282,44,21.008C44,12.727,37.283,6.015,28.998,6.015z M12,42c0,1.104,0.896,2,2,2s2-0.896,2-2s-2-4-2-4
			S12,40.896,12,42z M28,41c0,1.104,0.896,2,2,2s2-0.896,2-2s-2-4-2-4S28,39.896,28,41z"/>
	</g>
</g>
<g>
</g>
<g>
</g>
<g>
</g>
<g>
</g>
<g>
</g>
<g>
</g>
<g>
</g>
<g>
</g>
<g>
</g>
<g>
</g>
<g>
</g>
<g>
</g>
<g>
</g>
<g>
</g>
<g>
</g>
</svg>
