<?xml version="1.0" encoding="iso-8859-1"?>
<!-- Generator: Adobe Illustrator 16.0.4, SVG Export Plug-In . SVG Version: 6.00 Build 0)  -->
<!DOCTYPE svg PUBLIC "-//W3C//DTD SVG 1.1//EN" "http://www.w3.org/Graphics/SVG/1.1/DTD/svg11.dtd">
<svg version="1.1" id="Layer_1" xmlns="http://www.w3.org/2000/svg" xmlns:xlink="http://www.w3.org/1999/xlink" x="0px" y="0px"
	 width="44px" height="44.162px" viewBox="0 0 44 44.162" style="enable-background:new 0 0 44 44.162;" xml:space="preserve">
<g id="_x38_65-storm-cloud-toolbar-selected_x40_2x.png">
	<g>
		<path d="M27.081,28.005h-5.009l-3.998,7.996h0.005l-2,3.999h3.986l-1.127,4.162l7.139-8.157l-2.986,0.009L27.081,28.005z
			 M28.998,6.015c-0.07,0-0.137,0.015-0.207,0.016C26.977,2.455,23.274,0,18.99,0C12.918,0,7.995,4.923,7.995,10.996
			c0,1.148,0.178,2.257,0.505,3.298C3.631,15.428,0,19.784,0,24.999C0,31.074,4.925,36,11,36v0.001h4.838l4.445-8.892l0.553-1.105
			h1.236h5.009h3.23l-1.44,2.893l-2.544,5.107l4.17-0.014l-1.759,2.011h0.274v-0.002C37.291,35.991,44,29.282,44,21.008
			C44,12.727,37.283,6.015,28.998,6.015z"/>
	</g>
</g>
<g>
</g>
<g>
</g>
<g>
</g>
<g>
</g>
<g>
</g>
<g>
</g>
<g>
</g>
<g>
</g>
<g>
</g>
<g>
</g>
<g>
</g>
<g>
</g>
<g>
</g>
<g>
</g>
<g>
</g>
</svg>
