<?xml version="1.0" encoding="iso-8859-1"?>
<!-- Generator: Adobe Illustrator 16.0.4, SVG Export Plug-In . SVG Version: 6.00 Build 0)  -->
<!DOCTYPE svg PUBLIC "-//W3C//DTD SVG 1.1//EN" "http://www.w3.org/Graphics/SVG/1.1/DTD/svg11.dtd">
<svg version="1.1" id="Layer_1" xmlns="http://www.w3.org/2000/svg" xmlns:xlink="http://www.w3.org/1999/xlink" x="0px" y="0px"
	 width="44px" height="44px" viewBox="0 0 44 44" style="enable-background:new 0 0 44 44;" xml:space="preserve">
<g id="_x38_66-snow-cloud-toolbar-selected_x40_2x.png">
	<g>
		<path d="M13,41c0-0.553-0.447-1-1-1s-1,0.447-1,1c-0.553,0-1,0.447-1,1s0.447,1,1,1c0,0.553,0.447,1,1,1s1-0.447,1-1
			c0.553,0,1-0.447,1-1S13.553,41,13,41z M23.775,37.395c-0.025-0.032-0.039-0.072-0.068-0.102
			c-0.053-0.053-0.122-0.086-0.187-0.126c-0.045-0.028-0.082-0.067-0.131-0.089C23.27,37.028,23.138,37,23,37
			c0-0.138-0.028-0.27-0.078-0.389c-0.05-0.116-0.121-0.22-0.208-0.309c-0.003-0.003-0.004-0.006-0.006-0.009
			c-0.181-0.181-0.43-0.292-0.705-0.293C22.002,36.001,22.001,36,22,36s-0.002,0.001-0.003,0.001
			c-0.275,0.001-0.524,0.112-0.705,0.293c-0.002,0.003-0.003,0.006-0.006,0.009c-0.087,0.089-0.158,0.192-0.208,0.309
			C21.028,36.73,21,36.862,21,37c-0.138,0-0.27,0.028-0.39,0.078c-0.049,0.021-0.086,0.061-0.131,0.089
			c-0.064,0.04-0.134,0.073-0.187,0.126c-0.029,0.029-0.043,0.069-0.068,0.102c-0.054,0.068-0.111,0.135-0.146,0.217
			C20.028,37.73,20,37.862,20,38c0,0.553,0.447,1,1,1c0,0.553,0.447,1,1,1s1-0.447,1-1c0.553,0,1-0.447,1-1
			c0-0.138-0.028-0.27-0.078-0.389C23.887,37.529,23.829,37.463,23.775,37.395z M28.998,6.015c-0.071,0-0.14,0.007-0.211,0.008
			C26.972,2.452,23.271,0,18.99,0C12.918,0,7.995,4.923,7.995,10.996c0,1.148,0.178,2.257,0.505,3.298
			C3.631,15.428,0,19.784,0,24.999C0,31.074,4.925,36,11,36v0.001h7.781c0.194-0.216,0.409-0.41,0.658-0.562
			C19.967,34.576,20.917,34,22,34s2.033,0.576,2.561,1.439c0.248,0.151,0.464,0.346,0.658,0.562h3.794v-0.002
			C37.291,35.991,44,29.282,44,21.008C44,12.727,37.283,6.015,28.998,6.015z M32,39c0-0.553-0.447-1-1-1s-1,0.447-1,1
			c-0.553,0-1,0.447-1,1s0.447,1,1,1c0,0.553,0.447,1,1,1s1-0.447,1-1c0.553,0,1-0.447,1-1S32.553,39,32,39z"/>
	</g>
</g>
<g>
</g>
<g>
</g>
<g>
</g>
<g>
</g>
<g>
</g>
<g>
</g>
<g>
</g>
<g>
</g>
<g>
</g>
<g>
</g>
<g>
</g>
<g>
</g>
<g>
</g>
<g>
</g>
<g>
</g>
</svg>
