<?xml version="1.0" encoding="iso-8859-1"?>
<!-- Generator: Adobe Illustrator 16.0.4, SVG Export Plug-In . SVG Version: 6.00 Build 0)  -->
<!DOCTYPE svg PUBLIC "-//W3C//DTD SVG 1.1//EN" "http://www.w3.org/Graphics/SVG/1.1/DTD/svg11.dtd">
<svg version="1.1" id="Layer_1" xmlns="http://www.w3.org/2000/svg" xmlns:xlink="http://www.w3.org/1999/xlink" x="0px" y="0px"
	 width="44px" height="36px" viewBox="0 0 44 36" style="enable-background:new 0 0 44 36;" xml:space="preserve">
<g id="_x38_67-swords-toolbar-selected_x40_2x.png">
	<g>
		<path d="M15.18,12.594l5.414-5.414l-6.887-6.887C13.526,0.112,13.276,0,13,0H9C8.447,0,8,0.448,8,1v4
			c0,0.276,0.112,0.526,0.293,0.707L15.18,12.594z M14.414,27l0.699-0.699l-0.008-0.008L35.74,5.658C35.897,5.481,36,5.255,36,5V1
			c0-0.552-0.447-1-1-1h-4c-0.255,0-0.482,0.104-0.659,0.261L9.895,20.707l-0.008-0.008L9,21.586l-3.293-3.293
			C5.526,18.112,5.276,18,5,18s-0.526,0.112-0.707,0.293l-3,3C1.112,21.475,1,21.725,1,22c0,0.26,0.105,0.492,0.268,0.67
			l0.002-0.002l12,12l-0.008,0.008l0.031,0.031C13.474,34.888,13.724,35,14,35s0.526-0.111,0.707-0.293l3-3
			C17.888,31.526,18,31.276,18,31c0-0.275-0.112-0.525-0.293-0.707L14.414,27z M0.294,30.293C0.112,30.474,0,30.724,0,31
			s0.112,0.526,0.293,0.707l4,4C4.474,35.889,4.724,36,5,36s0.526-0.111,0.707-0.293l2.887-2.887L3.18,27.406L0.294,30.293z
			 M43.706,30.292l-2.886-2.886l-5.414,5.414l2.887,2.887C38.474,35.889,38.724,36,39,36s0.526-0.111,0.707-0.293l4-4
			C43.888,31.526,44,31.276,44,31S43.888,30.474,43.706,30.292z M42.668,22.73l0.008,0.008l0.031-0.031
			C42.888,22.526,43,22.276,43,22c0-0.275-0.112-0.525-0.293-0.707l-3-3C39.526,18.112,39.276,18,39,18s-0.526,0.112-0.707,0.293
			L35,21.586l-6.18-6.18l-5.414,5.414l6.18,6.18l-3.293,3.293C26.112,30.475,26,30.725,26,31c0,0.276,0.112,0.526,0.293,0.707l3,3
			C29.474,34.889,29.724,35,30,35c0.26,0,0.492-0.105,0.67-0.268l-0.002-0.002L42.668,22.73z"/>
	</g>
</g>
<g>
</g>
<g>
</g>
<g>
</g>
<g>
</g>
<g>
</g>
<g>
</g>
<g>
</g>
<g>
</g>
<g>
</g>
<g>
</g>
<g>
</g>
<g>
</g>
<g>
</g>
<g>
</g>
<g>
</g>
</svg>
