<?xml version="1.0" encoding="iso-8859-1"?>
<!-- Generator: Adobe Illustrator 16.0.4, SVG Export Plug-In . SVG Version: 6.00 Build 0)  -->
<!DOCTYPE svg PUBLIC "-//W3C//DTD SVG 1.1//EN" "http://www.w3.org/Graphics/SVG/1.1/DTD/svg11.dtd">
<svg version="1.1" id="Layer_1" xmlns="http://www.w3.org/2000/svg" xmlns:xlink="http://www.w3.org/1999/xlink" x="0px" y="0px"
	 width="44px" height="44px" viewBox="0 0 44 44" style="enable-background:new 0 0 44 44;" xml:space="preserve">
<g id="_x38_70-smile-toolbar-selected_x40_2x.png">
	<g>
		<path d="M16,18c0-1.104-0.896-2-2-2s-2,0.896-2,2s0.896,2,2,2S16,19.104,16,18z M25.143,0h-6.285C4.714,0,0,4.715,0,18.857v6.286
			C0,39.286,4.714,44,18.857,44h6.285C39.286,44,44,39.286,44,25.144v-6.286C44,4.715,39.286,0,25.143,0z M10,18
			c0-2.209,1.791-4,4-4s4,1.791,4,4s-1.791,4-4,4S10,20.209,10,18z M31.51,29.841l0.005,0.008C31.301,29.977,28,32.991,22,32.991
			s-9.301-3.015-9.515-3.143l0.005-0.008C12.202,29.665,12,29.362,12,29c0-0.553,0.447-1,1-1c0.187,0,0.352,0.065,0.502,0.154
			l0.012-0.021C13.562,28.162,17,30.991,22,30.991s8.438-2.829,8.486-2.857l0.013,0.021C30.648,28.065,30.813,28,31,28
			c0.553,0,1,0.447,1,1C32,29.362,31.798,29.665,31.51,29.841z M30,22c-2.209,0-4-1.791-4-4s1.791-4,4-4s4,1.791,4,4
			S32.209,22,30,22z M30,16c-1.104,0-2,0.896-2,2s0.896,2,2,2s2-0.896,2-2S31.104,16,30,16z"/>
	</g>
</g>
<g>
</g>
<g>
</g>
<g>
</g>
<g>
</g>
<g>
</g>
<g>
</g>
<g>
</g>
<g>
</g>
<g>
</g>
<g>
</g>
<g>
</g>
<g>
</g>
<g>
</g>
<g>
</g>
<g>
</g>
</svg>
