<?xml version="1.0" encoding="iso-8859-1"?>
<!-- Generator: Adobe Illustrator 16.0.4, SVG Export Plug-In . SVG Version: 6.00 Build 0)  -->
<!DOCTYPE svg PUBLIC "-//W3C//DTD SVG 1.1//EN" "http://www.w3.org/Graphics/SVG/1.1/DTD/svg11.dtd">
<svg version="1.1" id="Layer_1" xmlns="http://www.w3.org/2000/svg" xmlns:xlink="http://www.w3.org/1999/xlink" x="0px" y="0px"
	 width="44px" height="40px" viewBox="0 0 44 40" style="enable-background:new 0 0 44 40;" xml:space="preserve">
<g id="_x38_74-newspaper-toolbar-selected_x40_2x.png">
	<g>
		<path d="M42,0H8C6.896,0,6,0.896,6,2v2v4v24c0,0.553-0.447,1-1,1s-1-0.447-1-1V8H2c-1.104,0-2,0.896-2,2v2v17v5
			c0,3.313,2.687,6,6,6h2h4h30c1.104,0,2-0.895,2-2V2C44,0.896,43.104,0,42,0z M12,7c0-0.552,0.447-1,1-1h10c0.553,0,1,0.448,1,1v12
			c0,0.553-0.447,1-1,1H13c-0.553,0-1-0.447-1-1V7z M37,32H13c-0.553,0-1-0.447-1-1c0-0.552,0.447-1,1-1h24c0.553,0,1,0.448,1,1
			C38,31.553,37.553,32,37,32z M37,26H13c-0.553,0-1-0.447-1-1c0-0.552,0.447-1,1-1h24c0.553,0,1,0.448,1,1
			C38,25.553,37.553,26,37,26z M37,20h-8c-0.553,0-1-0.447-1-1s0.447-1,1-1h8c0.553,0,1,0.447,1,1S37.553,20,37,20z M37,14h-8
			c-0.553,0-1-0.447-1-1c0-0.552,0.447-1,1-1h8c0.553,0,1,0.448,1,1C38,13.553,37.553,14,37,14z M37,8h-8c-0.553,0-1-0.447-1-1
			c0-0.552,0.447-1,1-1h8c0.553,0,1,0.448,1,1C38,7.553,37.553,8,37,8z"/>
	</g>
</g>
<g>
</g>
<g>
</g>
<g>
</g>
<g>
</g>
<g>
</g>
<g>
</g>
<g>
</g>
<g>
</g>
<g>
</g>
<g>
</g>
<g>
</g>
<g>
</g>
<g>
</g>
<g>
</g>
<g>
</g>
</svg>
