<?xml version="1.0" encoding="iso-8859-1"?>
<!-- Generator: Adobe Illustrator 16.0.4, SVG Export Plug-In . SVG Version: 6.00 Build 0)  -->
<!DOCTYPE svg PUBLIC "-//W3C//DTD SVG 1.1//EN" "http://www.w3.org/Graphics/SVG/1.1/DTD/svg11.dtd">
<svg version="1.1" id="Layer_1" xmlns="http://www.w3.org/2000/svg" xmlns:xlink="http://www.w3.org/1999/xlink" x="0px" y="0px"
	 width="44px" height="44px" viewBox="0 0 44 44" style="enable-background:new 0 0 44 44;" xml:space="preserve">
<g id="_x38_75-skull-toolbar-selected_x40_2x.png">
	<g>
		<path d="M30,18c-2.209,0-4,1.791-4,4s1.791,4,4,4s4-1.791,4-4S32.209,18,30,18z M14,18c-2.209,0-4,1.791-4,4s1.791,4,4,4
			s4-1.791,4-4S16.209,18,14,18z M22,0C9.85,0,0,8.73,0,19.5c0,6.453,3.552,12.156,9,15.706V39v1c0,2.209,1.791,4,4,4h2v-9
			c0-0.553,0.447-1,1-1s1,0.447,1,1v9h4v-9c0-0.553,0.447-1,1-1s1,0.447,1,1v9h4v-9c0-0.553,0.447-1,1-1s1,0.447,1,1v9h2
			c2.209,0,4-1.791,4-4v-1v-3.794c5.448-3.55,9-9.253,9-15.706C44,8.73,34.15,0,22,0z M14,28c-3.313,0-6-2.687-6-6s2.687-6,6-6
			s6,2.687,6,6S17.313,28,14,28z M30,28c-3.313,0-6-2.687-6-6s2.687-6,6-6s6,2.687,6,6S33.313,28,30,28z"/>
	</g>
</g>
<g>
</g>
<g>
</g>
<g>
</g>
<g>
</g>
<g>
</g>
<g>
</g>
<g>
</g>
<g>
</g>
<g>
</g>
<g>
</g>
<g>
</g>
<g>
</g>
<g>
</g>
<g>
</g>
<g>
</g>
</svg>
