<?xml version="1.0" encoding="iso-8859-1"?>
<!-- Generator: Adobe Illustrator 16.0.4, SVG Export Plug-In . SVG Version: 6.00 Build 0)  -->
<!DOCTYPE svg PUBLIC "-//W3C//DTD SVG 1.1//EN" "http://www.w3.org/Graphics/SVG/1.1/DTD/svg11.dtd">
<svg version="1.1" id="Layer_1" xmlns="http://www.w3.org/2000/svg" xmlns:xlink="http://www.w3.org/1999/xlink" x="0px" y="0px"
	 width="44px" height="40px" viewBox="0 0 44 40" style="enable-background:new 0 0 44 40;" xml:space="preserve">
<g id="_x38_76-store-toolbar-selected_x40_2x.png">
	<g>
		<path d="M35.071,6H8.929l-8.25,6h42.643L35.071,6z M33,1c0-0.552-0.447-1-1-1H12c-0.553,0-1,0.448-1,1v3h22V1z M40,33l-6.4-4.8
			l-0.01,0.014C33.423,28.089,33.225,28,33,28H11c-0.225,0-0.423,0.089-0.59,0.214L10.4,28.2L4,33V22H2v16c0,1.104,0.896,2,2,2h36
			c1.104,0,2-0.896,2-2V22h-2V33z M0,14v3c0,0.553,0.447,1,1,1h2c1,0,2,2,4,2s3-2,4-2h2c1,0,2,2,4,2s3-2,4-2h2c1,0,2,2,4,2s3-2,4-2
			h2c1,0,2,2,4,2s3-2,4-2h2c0.553,0,1-0.447,1-1v-3H0z"/>
	</g>
</g>
<g>
</g>
<g>
</g>
<g>
</g>
<g>
</g>
<g>
</g>
<g>
</g>
<g>
</g>
<g>
</g>
<g>
</g>
<g>
</g>
<g>
</g>
<g>
</g>
<g>
</g>
<g>
</g>
<g>
</g>
</svg>
