<?xml version="1.0" encoding="iso-8859-1"?>
<!-- Generator: Adobe Illustrator 16.0.4, SVG Export Plug-In . SVG Version: 6.00 Build 0)  -->
<!DOCTYPE svg PUBLIC "-//W3C//DTD SVG 1.1//EN" "http://www.w3.org/Graphics/SVG/1.1/DTD/svg11.dtd">
<svg version="1.1" id="Layer_1" xmlns="http://www.w3.org/2000/svg" xmlns:xlink="http://www.w3.org/1999/xlink" x="0px" y="0px"
	 width="36.031px" height="44px" viewBox="0 0 36.031 44" style="enable-background:new 0 0 36.031 44;" xml:space="preserve">
<g id="_x38_77-slingshot-toolbar-selected_x40_2x.png">
	<g>
		<path d="M21.031,19c-1.101,0-2.176-0.111-3.214-0.323L16.031,41c0,1.657,2.238,3,5,3s5-1.343,5-3l-1.786-22.323
			C23.207,18.889,22.132,19,21.031,19z M35.031,6h-0.33c0.211-0.967,0.33-1.969,0.33-3c0-1.656-1.343-3-3-3s-3,1.344-3,3
			c0,1.062-0.211,2.073-0.587,3h-0.413c-0.553,0-1,0.448-1,1c0,0.324,0.164,0.599,0.403,0.781C25.976,9.732,23.654,11,21.031,11
			s-4.944-1.268-6.403-3.219C14.867,7.599,15.031,7.324,15.031,7c0-0.552-0.447-1-1-1h-0.413c-0.376-0.927-0.587-1.938-0.587-3
			c0-1.656-1.343-3-3-3s-3,1.344-3,3c0,1.031,0.119,2.033,0.33,3h-0.33c-0.553,0-1,0.448-1,1c0,0.409,0.247,0.759,0.6,0.914
			C3.646,10.829,0,14.785,0,21c0,12.7,12.707,14.965,12.836,14.986C12.891,35.996,12.947,36,13.001,36
			c0.48,0,0.904-0.347,0.985-0.836c0.091-0.544-0.277-1.06-0.821-1.15C12.709,33.938,2,32.026,2,21c0-5.646,3.471-9.18,6.392-12.01
			c2.245,4.732,7.054,8.01,12.64,8.01c5.104,0,9.552-2.74,11.996-6.822c-0.033,10.589-0.403,16.667-4.621,20.041
			c-0.431,0.346-0.501,0.975-0.156,1.406C28.448,31.872,28.738,32,29.032,32c0.219,0,0.439-0.071,0.624-0.219
			C34.892,27.592,35.027,20.565,35.031,8c0.553,0,1-0.447,1-1C36.031,6.448,35.584,6,35.031,6z"/>
	</g>
</g>
<g>
</g>
<g>
</g>
<g>
</g>
<g>
</g>
<g>
</g>
<g>
</g>
<g>
</g>
<g>
</g>
<g>
</g>
<g>
</g>
<g>
</g>
<g>
</g>
<g>
</g>
<g>
</g>
<g>
</g>
</svg>
