<?xml version="1.0" encoding="iso-8859-1"?>
<!-- Generator: Adobe Illustrator 16.0.4, SVG Export Plug-In . SVG Version: 6.00 Build 0)  -->
<!DOCTYPE svg PUBLIC "-//W3C//DTD SVG 1.1//EN" "http://www.w3.org/Graphics/SVG/1.1/DTD/svg11.dtd">
<svg version="1.1" id="Layer_1" xmlns="http://www.w3.org/2000/svg" xmlns:xlink="http://www.w3.org/1999/xlink" x="0px" y="0px"
	 width="44px" height="40px" viewBox="0 0 44 40" style="enable-background:new 0 0 44 40;" xml:space="preserve">
<g id="_x38_80-bank-toolbar-selected_x40_2x.png">
	<g>
		<path d="M0,36v2c0,1.104,0.896,2,2,2h40c1.104,0,2-0.896,2-2v-2H0z M42,32c0-1.104-0.896-2-2-2h-2V14h3c0.553,0,1-0.447,1-1v-2
			c0-0.354-0.194-0.648-0.471-0.827l0.01-0.015l-0.147-0.078c-0.001,0-0.002-0.001-0.003-0.001l-18.85-9.921l-0.01,0.015
			C22.374,0.073,22.199,0,22,0s-0.373,0.073-0.529,0.173l-0.01-0.015l-18.85,9.921c-0.001,0-0.002,0.001-0.003,0.001l-0.147,0.078
			l0.01,0.015C2.194,10.352,2,10.646,2,11v2c0,0.553,0.447,1,1,1h3v16H4c-1.104,0-2,0.896-2,2v2h40V32z M18,30h-4V14h4V30z M30,30
			h-4V14h4V30z"/>
	</g>
</g>
<g>
</g>
<g>
</g>
<g>
</g>
<g>
</g>
<g>
</g>
<g>
</g>
<g>
</g>
<g>
</g>
<g>
</g>
<g>
</g>
<g>
</g>
<g>
</g>
<g>
</g>
<g>
</g>
<g>
</g>
</svg>
