<?xml version="1.0" encoding="iso-8859-1"?>
<!-- Generator: Adobe Illustrator 16.0.4, SVG Export Plug-In . SVG Version: 6.00 Build 0)  -->
<!DOCTYPE svg PUBLIC "-//W3C//DTD SVG 1.1//EN" "http://www.w3.org/Graphics/SVG/1.1/DTD/svg11.dtd">
<svg version="1.1" id="Layer_1" xmlns="http://www.w3.org/2000/svg" xmlns:xlink="http://www.w3.org/1999/xlink" x="0px" y="0px"
	 width="44px" height="44px" viewBox="0 0 44 44" style="enable-background:new 0 0 44 44;" xml:space="preserve">
<g id="_x38_81-globe-toolbar-selected_x40_2x.png">
	<g>
		<path d="M22,0C9.85,0,0,9.85,0,22s9.85,22,22,22s22-9.85,22-22S34.15,0,22,0z M15.921,19.429c-2.98,0.734-0.745,2.938-0.745,2.938
			c2.98,1.47,1.49,2.204,1.49,2.204c-2.235-0.734-4.47-2.204-4.47-2.204s-2.98-2.204-2.235-3.673c0.745-1.47,2.235-3.674,0-5.878
			c-0.814-0.803-1.626-1.308-2.332-1.633c1.134-1.506,2.49-2.83,4.033-3.916c0.766,2.011,4.259,4.079,4.259,4.079
			c1.49-3.673,3.726-1.469,3.726-1.469c0.745-1.47,3.726-0.734,2.235,0.734c-1.49,1.47-4.471,0.734-2.235,2.938
			c2.235,2.205,0.745-1.469,3.726-1.469c2.979,0,2.979,2.938,1.489,2.938c-1.489,0-0.744,0.735-3.725,2.204
			c-2.98,1.47-1.49,3.674-2.98,3.674S18.157,18.694,15.921,19.429z M26.516,31.379c-2.09,2.118-2.448,6.716-3.076,7.061
			c-0.629,0.344-1.104-0.707-1.8-1.412c-0.697-0.707-1.393-2.118-0.697-5.648c0,0-2.786-0.706-2.786-4.942
			c0-2.118,2.136-3.64,5.573-2.118c2.482,1.1,1.83,1.412,2.786,2.118C27.771,27.365,28.604,29.261,26.516,31.379z M32.313,18.694
			c0-5.144,5.851-4.261,3.413-7.035c-1.923-2.188-4.158,1.892-6.394,1.892s-0.745-4.407-0.745-4.407c-2.98,0-1.49-2.204-0.745-2.939
			c0.306-0.301,0.355-0.723,0.314-1.119c6.912,2.516,11.857,9.125,11.857,16.907c0,1.653-0.241,3.247-0.658,4.768
			C36.711,25.438,32.313,22.465,32.313,18.694z"/>
	</g>
</g>
<g>
</g>
<g>
</g>
<g>
</g>
<g>
</g>
<g>
</g>
<g>
</g>
<g>
</g>
<g>
</g>
<g>
</g>
<g>
</g>
<g>
</g>
<g>
</g>
<g>
</g>
<g>
</g>
<g>
</g>
</svg>
