<?xml version="1.0" encoding="iso-8859-1"?>
<!-- Generator: Adobe Illustrator 16.0.4, SVG Export Plug-In . SVG Version: 6.00 Build 0)  -->
<!DOCTYPE svg PUBLIC "-//W3C//DTD SVG 1.1//EN" "http://www.w3.org/Graphics/SVG/1.1/DTD/svg11.dtd">
<svg version="1.1" id="Layer_1" xmlns="http://www.w3.org/2000/svg" xmlns:xlink="http://www.w3.org/1999/xlink" x="0px" y="0px"
	 width="40px" height="44px" viewBox="0 0 40 44" style="enable-background:new 0 0 40 44;" xml:space="preserve">
<g id="_x38_83-beaker-toolbar-selected_x40_2x.png">
	<g>
		<path d="M15.003,30.994c-0.554,0-1.002,0.449-1.002,1.004c0,0.556,0.448,1.005,1.002,1.005c0.553,0,1.001-0.449,1.001-1.005
			C16.004,31.443,15.556,30.994,15.003,30.994z M39,38h1c0-7.019-10.196-18.446-11.987-20.399V6H31c0.553,0,1-0.447,1-1V1
			c0-0.552-0.447-1-1-1H9C8.447,0,8,0.448,8,1v4c0,0.553,0.447,1,1,1h2.987v11.601C10.196,19.554,0,30.981,0,38h1v0.003H0.009
			c0,2.975,2.169,5.426,5.006,5.898V44h29.971v-0.1c2.837-0.473,5.005-2.924,5.005-5.897H39V38z M10,4V2h20v2H10z M25.99,6v7.006
			c-3.01,0.223-5.156-1.282-5.415-1.478c-0.374-0.331-2.391-1.822-6.565-1.449V6H25.99z M14.988,35.012
			c-1.658,0-3.003-1.343-3.003-2.999s1.345-2.999,3.003-2.999s3.003,1.343,3.003,2.999S16.646,35.012,14.988,35.012z M23.003,38.002
			c-1.102,0-1.995-0.894-1.995-1.996c0-1.102,0.894-1.995,1.995-1.995s1.995,0.894,1.995,1.995
			C24.998,37.108,24.104,38.002,23.003,38.002z M20.992,28.008c-2.765,0-5.005-2.241-5.005-5.007c0-2.765,2.24-5.006,5.005-5.006
			s5.006,2.241,5.006,5.006C25.998,25.767,23.757,28.008,20.992,28.008z M21.009,20.002c-1.659,0-3.004,1.343-3.004,2.999
			c0,1.657,1.345,2.999,3.004,2.999c1.658,0,3.003-1.342,3.003-2.999C24.012,21.345,22.667,20.002,21.009,20.002z"/>
	</g>
</g>
<g>
</g>
<g>
</g>
<g>
</g>
<g>
</g>
<g>
</g>
<g>
</g>
<g>
</g>
<g>
</g>
<g>
</g>
<g>
</g>
<g>
</g>
<g>
</g>
<g>
</g>
<g>
</g>
<g>
</g>
</svg>
