<?xml version="1.0" encoding="iso-8859-1"?>
<!-- Generator: Adobe Illustrator 16.0.4, SVG Export Plug-In . SVG Version: 6.00 Build 0)  -->
<!DOCTYPE svg PUBLIC "-//W3C//DTD SVG 1.1//EN" "http://www.w3.org/Graphics/SVG/1.1/DTD/svg11.dtd">
<svg version="1.1" id="Layer_1" xmlns="http://www.w3.org/2000/svg" xmlns:xlink="http://www.w3.org/1999/xlink" x="0px" y="0px"
	 width="44px" height="28px" viewBox="0 0 44 28" style="enable-background:new 0 0 44 28;" xml:space="preserve">
<g id="_x38_85-trailer-toolbar-selected_x40_2x.png">
	<g>
		<path d="M8,12h10V8H8V12z M18,22c-1.657,0-3,1.344-3,3c0,1.657,1.343,3,3,3s3-1.343,3-3C21,23.344,19.657,22,18,22z M26,12h6V8h-6
			V12z M43,20c-0.552,0-1,0.448-1,1v3h-3.558C39.4,22.938,40,21.544,40,20V6c0-3.313-2.687-6-6-6H6C2.687,0,0,2.687,0,6v14
			c0,3.313,2.687,6,6,6h7.101C13.035,25.677,13,25.343,13,25c0-2.762,2.238-5,5-5s5,2.238,5,5c0,0.343-0.035,0.677-0.101,1H33h1h9
			c0.553,0,1-0.447,1-1v-4C44,20.448,43.553,20,43,20z M20,12c0,1.104-0.896,2-2,2H8c-1.104,0-2-0.896-2-2V8c0-1.104,0.896-2,2-2h10
			c1.104,0,2,0.896,2,2V12z M34,12c0,1.104-0.896,2-2,2h-6c-1.104,0-2-0.896-2-2V8c0-1.104,0.896-2,2-2h6c1.104,0,2,0.896,2,2V12z"
			/>
	</g>
</g>
<g>
</g>
<g>
</g>
<g>
</g>
<g>
</g>
<g>
</g>
<g>
</g>
<g>
</g>
<g>
</g>
<g>
</g>
<g>
</g>
<g>
</g>
<g>
</g>
<g>
</g>
<g>
</g>
<g>
</g>
</svg>
