<?xml version="1.0" encoding="iso-8859-1"?>
<!-- Generator: Adobe Illustrator 16.0.4, SVG Export Plug-In . SVG Version: 6.00 Build 0)  -->
<!DOCTYPE svg PUBLIC "-//W3C//DTD SVG 1.1//EN" "http://www.w3.org/Graphics/SVG/1.1/DTD/svg11.dtd">
<svg version="1.1" id="Layer_1" xmlns="http://www.w3.org/2000/svg" xmlns:xlink="http://www.w3.org/1999/xlink" x="0px" y="0px"
	 width="32px" height="44px" viewBox="0 0 32 44" style="enable-background:new 0 0 32 44;" xml:space="preserve">
<g id="_x38_86-ice-cream-cone-toolbar-selected_x40_2x.png">
	<g>
		<path d="M15.069,43.366l0.004-0.002C15.22,43.735,15.577,44,16,44s0.78-0.265,0.927-0.636l0.004,0.002L24.854,24H7.146
			L15.069,43.366z M25.811,8.04C24.896,3.455,20.853,0,16,0c-4.861,0-8.909,3.468-9.814,8.064C2.704,8.467,0,11.419,0,15.007
			C0,18.869,3.133,22,6.997,22c0.005,0,0.01,0,0.015,0h17.994c0.001,0,0.001,0,0.001,0C28.869,22,32,18.863,32,14.995
			C32,11.399,29.294,8.439,25.811,8.04z"/>
	</g>
</g>
<g>
</g>
<g>
</g>
<g>
</g>
<g>
</g>
<g>
</g>
<g>
</g>
<g>
</g>
<g>
</g>
<g>
</g>
<g>
</g>
<g>
</g>
<g>
</g>
<g>
</g>
<g>
</g>
<g>
</g>
</svg>
