<?xml version="1.0" encoding="iso-8859-1"?>
<!-- Generator: Adobe Illustrator 16.0.4, SVG Export Plug-In . SVG Version: 6.00 Build 0)  -->
<!DOCTYPE svg PUBLIC "-//W3C//DTD SVG 1.1//EN" "http://www.w3.org/Graphics/SVG/1.1/DTD/svg11.dtd">
<svg version="1.1" id="Layer_1" xmlns="http://www.w3.org/2000/svg" xmlns:xlink="http://www.w3.org/1999/xlink" x="0px" y="0px"
	 width="36px" height="44px" viewBox="0 0 36 44" style="enable-background:new 0 0 36 44;" xml:space="preserve">
<g id="_x38_87-notepad-toolbar-selected_x40_2x.png">
	<g>
		<path d="M19,1c0-0.553-0.447-1-1-1s-1,0.447-1,1v3h2V1z M14,1c0-0.553-0.447-1-1-1s-1,0.447-1,1v3h2V1z M9,1c0-0.553-0.447-1-1-1
			S7,0.447,7,1v3h2V1z M29,1c0-0.553-0.447-1-1-1s-1,0.447-1,1v3h2V1z M34,4h-5v5c0,0.553-0.447,1-1,1s-1-0.447-1-1V4h-3v5
			c0,0.553-0.447,1-1,1s-1-0.447-1-1V4h-3v5c0,0.553-0.447,1-1,1s-1-0.447-1-1V4h-3v5c0,0.553-0.447,1-1,1s-1-0.447-1-1V4H9v5
			c0,0.553-0.447,1-1,1S7,9.553,7,9V4H2C0.896,4,0,4.896,0,6v36c0,1.104,0.896,2,2,2h32c1.104,0,2-0.896,2-2V6
			C36,4.896,35.104,4,34,4z M29,32H7c-0.553,0-1-0.447-1-1s0.447-1,1-1h22c0.553,0,1,0.447,1,1S29.553,32,29,32z M6,27
			c0-0.553,0.447-1,1-1h18c0.553,0,1,0.447,1,1s-0.447,1-1,1H7C6.447,28,6,27.553,6,27z M29,24H7c-0.553,0-1-0.447-1-1s0.447-1,1-1
			h22c0.553,0,1,0.447,1,1S29.553,24,29,24z M29,20H7c-0.553,0-1-0.447-1-1s0.447-1,1-1h22c0.553,0,1,0.447,1,1S29.553,20,29,20z
			 M24,1c0-0.553-0.447-1-1-1s-1,0.447-1,1v3h2V1z"/>
	</g>
</g>
<g>
</g>
<g>
</g>
<g>
</g>
<g>
</g>
<g>
</g>
<g>
</g>
<g>
</g>
<g>
</g>
<g>
</g>
<g>
</g>
<g>
</g>
<g>
</g>
<g>
</g>
<g>
</g>
<g>
</g>
</svg>
