<?xml version="1.0" encoding="iso-8859-1"?>
<!-- Generator: Adobe Illustrator 16.0.4, SVG Export Plug-In . SVG Version: 6.00 Build 0)  -->
<!DOCTYPE svg PUBLIC "-//W3C//DTD SVG 1.1//EN" "http://www.w3.org/Graphics/SVG/1.1/DTD/svg11.dtd">
<svg version="1.1" id="Layer_1" xmlns="http://www.w3.org/2000/svg" xmlns:xlink="http://www.w3.org/1999/xlink" x="0px" y="0px"
	 width="44px" height="44px" viewBox="0 0 44 44" style="enable-background:new 0 0 44 44;" xml:space="preserve">
<g id="_x38_88-checkmark-toolbar-selected_x40_2x.png">
	<g>
		<path d="M25.143,0h-6.285C4.714,0,0,4.715,0,18.857v6.286C0,39.286,4.714,44,18.857,44h6.285C39.286,44,44,39.286,44,25.144
			v-6.286C44,4.715,39.286,0,25.143,0z M31.707,16.708l-12,11.999C19.526,28.889,19.276,29,19,29s-0.526-0.111-0.707-0.293l-6-6
			C12.112,22.526,12,22.276,12,22c0-0.552,0.448-1,1-1c0.276,0,0.526,0.112,0.707,0.293L19,26.586l11.293-11.292
			C30.474,15.112,30.724,15,31,15c0.553,0,1,0.448,1,1C32,16.277,31.888,16.527,31.707,16.708z"/>
	</g>
</g>
<g>
</g>
<g>
</g>
<g>
</g>
<g>
</g>
<g>
</g>
<g>
</g>
<g>
</g>
<g>
</g>
<g>
</g>
<g>
</g>
<g>
</g>
<g>
</g>
<g>
</g>
<g>
</g>
<g>
</g>
</svg>
