<?xml version="1.0" encoding="iso-8859-1"?>
<!-- Generator: Adobe Illustrator 16.0.4, SVG Export Plug-In . SVG Version: 6.00 Build 0)  -->
<!DOCTYPE svg PUBLIC "-//W3C//DTD SVG 1.1//EN" "http://www.w3.org/Graphics/SVG/1.1/DTD/svg11.dtd">
<svg version="1.1" id="Layer_1" xmlns="http://www.w3.org/2000/svg" xmlns:xlink="http://www.w3.org/1999/xlink" x="0px" y="0px"
	 width="43.985px" height="43.985px" viewBox="0 0 43.985 43.985" style="enable-background:new 0 0 43.985 43.985;"
	 xml:space="preserve">
<g id="_x38_92-bandaid-toolbar-selected_x40_2x.png">
	<g>
		<path d="M1.808,29.084c-2.41,2.411-2.41,6.318,0,8.729l4.364,4.365c1.205,1.205,2.784,1.808,4.364,1.808s3.159-0.603,4.364-1.808
			l5.39-5.391L7.197,23.694L1.808,29.084z M42.178,6.172l-4.365-4.364C36.607,0.603,35.028,0,33.449,0
			c-1.58,0-3.159,0.603-4.365,1.808L23.611,7.28l13.093,13.094l5.474-5.473C44.588,12.49,44.588,8.583,42.178,6.172z M8.611,22.28
			l13.093,13.093L35.29,21.788L22.197,8.694L8.611,22.28z M15.994,23.072c-0.55,0-0.995-0.445-0.995-0.995s0.445-0.995,0.995-0.995
			s0.995,0.445,0.995,0.995S16.544,23.072,15.994,23.072z M18.994,26.072c-0.55,0-0.995-0.445-0.995-0.995s0.445-0.995,0.995-0.995
			s0.995,0.445,0.995,0.995S19.544,26.072,18.994,26.072z M18.994,20.072c-0.55,0-0.995-0.445-0.995-0.995s0.445-0.995,0.995-0.995
			s0.995,0.445,0.995,0.995S19.544,20.072,18.994,20.072z M21.994,29.072c-0.55,0-0.995-0.445-0.995-0.995s0.445-0.995,0.995-0.995
			s0.995,0.445,0.995,0.995S22.544,29.072,21.994,29.072z M21.994,23.072c-0.55,0-0.995-0.445-0.995-0.995s0.445-0.995,0.995-0.995
			s0.995,0.445,0.995,0.995S22.544,23.072,21.994,23.072z M27.994,21.082c0.55,0,0.995,0.445,0.995,0.995s-0.445,0.995-0.995,0.995
			s-0.995-0.445-0.995-0.995S27.444,21.082,27.994,21.082z M24.994,18.082c0.55,0,0.995,0.445,0.995,0.995s-0.445,0.995-0.995,0.995
			s-0.995-0.445-0.995-0.995S24.444,18.082,24.994,18.082z M24.994,24.082c0.55,0,0.995,0.445,0.995,0.995s-0.445,0.995-0.995,0.995
			s-0.995-0.445-0.995-0.995S24.444,24.082,24.994,24.082z M22.989,16.077c0,0.55-0.445,0.995-0.995,0.995s-0.995-0.445-0.995-0.995
			s0.445-0.995,0.995-0.995S22.989,15.527,22.989,16.077z"/>
	</g>
</g>
<g>
</g>
<g>
</g>
<g>
</g>
<g>
</g>
<g>
</g>
<g>
</g>
<g>
</g>
<g>
</g>
<g>
</g>
<g>
</g>
<g>
</g>
<g>
</g>
<g>
</g>
<g>
</g>
<g>
</g>
</svg>
