<?xml version="1.0" encoding="iso-8859-1"?>
<!-- Generator: Adobe Illustrator 16.0.4, SVG Export Plug-In . SVG Version: 6.00 Build 0)  -->
<!DOCTYPE svg PUBLIC "-//W3C//DTD SVG 1.1//EN" "http://www.w3.org/Graphics/SVG/1.1/DTD/svg11.dtd">
<svg version="1.1" id="Layer_1" xmlns="http://www.w3.org/2000/svg" xmlns:xlink="http://www.w3.org/1999/xlink" x="0px" y="0px"
	 width="44.008px" height="32px" viewBox="0 0 44.008 32" style="enable-background:new 0 0 44.008 32;" xml:space="preserve">
<g id="_x38_95-user-group-toolbar-selected_x40_2x.png">
	<g>
		<path d="M12.021,20.31c0.503-0.272,0.87-0.509,1.177-0.722c-0.13-0.265-0.195-0.562-0.195-0.925c0-3.842,1.094-2.874,1.094-6.716
			c0-5.82-3.844-5.926-4.526-5.926c-0.025,0-0.047,0-0.065,0H9.502c-0.022,0-0.052-0.001-0.087-0.001
			c-0.723,0-3.882,0.132-3.882,5.896c0,3.843,1.469,2.811,1.469,6.653c0,1.332-1.562,2.291-3,2.822S0,23.587,0,27.979h4.45
			C5.517,23.777,8.419,22.259,12.021,20.31z M31.912,22.1C27.34,19.625,26,20,26,18c0-5.775,2-4.226,2-10c0-8-5.063-8-5.955-8
			c-0.016,0-0.028,0-0.041,0H22c-0.013,0-0.025,0-0.04,0C21.068,0,16,0,16,8c0,5.774,2,4.225,2,10c0,2-1.331,1.625-5.904,4.1
			C8.12,24.251,5.998,25.4,5.998,32h16.006h16.007C38.011,25.4,35.888,24.251,31.912,22.1z M40.006,21.392
			c-1.438-0.531-3-1.49-3-2.822c0-3.843,1.469-2.811,1.469-6.653c0-5.764-3.159-5.896-3.882-5.896c-0.035,0-0.063,0.001-0.087,0.001
			h-0.002c-0.019,0-0.04,0-0.065,0c-0.683,0-4.526,0.105-4.526,5.926c0,3.842,1.094,2.874,1.094,6.716
			c0,0.247-0.038,0.459-0.096,0.657c0.576,0.274,1.22,0.595,1.948,0.989c3.602,1.949,5.963,3.468,6.801,7.67h4.349
			C44.008,23.587,41.443,21.923,40.006,21.392z"/>
	</g>
</g>
<g>
</g>
<g>
</g>
<g>
</g>
<g>
</g>
<g>
</g>
<g>
</g>
<g>
</g>
<g>
</g>
<g>
</g>
<g>
</g>
<g>
</g>
<g>
</g>
<g>
</g>
<g>
</g>
<g>
</g>
</svg>
