<?xml version="1.0" encoding="iso-8859-1"?>
<!-- Generator: Adobe Illustrator 16.0.4, SVG Export Plug-In . SVG Version: 6.00 Build 0)  -->
<!DOCTYPE svg PUBLIC "-//W3C//DTD SVG 1.1//EN" "http://www.w3.org/Graphics/SVG/1.1/DTD/svg11.dtd">
<svg version="1.1" id="Layer_1" xmlns="http://www.w3.org/2000/svg" xmlns:xlink="http://www.w3.org/1999/xlink" x="0px" y="0px"
	 width="44px" height="44px" viewBox="0 0 44 44" style="enable-background:new 0 0 44 44;" xml:space="preserve">
<g id="_x38_96-road-sign-toolbar-selected_x40_2x.png">
	<g>
		<path d="M43.121,19.879l-19-19C23.578,0.336,22.828,0,22,0s-1.578,0.336-2.121,0.879l-19,19C0.336,20.422,0,21.172,0,22
			s0.336,1.578,0.879,2.121l19,19C20.422,43.664,21.172,44,22,44s1.578-0.336,2.121-0.879l19-19C43.664,23.578,44,22.828,44,22
			S43.664,20.422,43.121,19.879z M30,22c0,0.553-0.447,1-1,1s-1-0.447-1-1v-5.221c-2.783,1.805-8.882,6.538-11.059,14.518H16.94
			C16.812,31.701,16.447,32,16,32c-0.553,0-1-0.447-1-1c0-0.078,0.027-0.146,0.044-0.219l-0.031-0.01
			C17.426,21.924,24.068,16.881,27.05,15H21c-0.553,0-1-0.447-1-1c0-0.552,0.447-1,1-1h8c0.553,0,1,0.448,1,1V22z"/>
	</g>
</g>
<g>
</g>
<g>
</g>
<g>
</g>
<g>
</g>
<g>
</g>
<g>
</g>
<g>
</g>
<g>
</g>
<g>
</g>
<g>
</g>
<g>
</g>
<g>
</g>
<g>
</g>
<g>
</g>
<g>
</g>
</svg>
