<?xml version="1.0" encoding="iso-8859-1"?>
<!-- Generator: Adobe Illustrator 16.0.4, SVG Export Plug-In . SVG Version: 6.00 Build 0)  -->
<!DOCTYPE svg PUBLIC "-//W3C//DTD SVG 1.1//EN" "http://www.w3.org/Graphics/SVG/1.1/DTD/svg11.dtd">
<svg version="1.1" id="Layer_1" xmlns="http://www.w3.org/2000/svg" xmlns:xlink="http://www.w3.org/1999/xlink" x="0px" y="0px"
	 width="44px" height="28.001px" viewBox="0 0 44 28.001" style="enable-background:new 0 0 44 28.001;" xml:space="preserve">
<g id="_x38_97-graduation-cap-toolbar-selected_x40_2x.png">
	<g>
		<path d="M33.994,23.896l-0.733-11.013l-10.913,3.118l-0.003-0.008c-0.108,0.04-0.223,0.069-0.345,0.069s-0.236-0.029-0.345-0.069
			l-0.003,0.008L10.74,12.883l-0.734,11.013l0.024,0.003C10.026,23.935,10,23.963,10,24c0,0.553,0.448,1,1,1
			c0.161,0,0.308-0.047,0.442-0.114l0.005,0.009l0.096-0.076c0.07-0.047,0.139-0.093,0.194-0.156l4.181-3.344l5.346,5.346
			c0.023,0.025,0.047,0.049,0.072,0.072l0.064,0.064l0.01-0.015C21.577,26.912,21.775,27,22,27c0.226,0,0.423-0.088,0.59-0.214
			l0.01,0.015l0.064-0.064c0.025-0.023,0.049-0.047,0.072-0.072l5.346-5.346l4.181,3.345c0.057,0.062,0.124,0.108,0.194,0.155
			l0.096,0.076l0.005-0.009C32.692,24.953,32.839,25,33,25c0.553,0,1-0.447,1-1c0-0.037-0.026-0.065-0.03-0.102L33.994,23.896z
			 M44,7c0-0.43-0.274-0.789-0.655-0.931l0.003-0.007l-21-6l-0.003,0.007C22.236,0.029,22.122,0,22,0s-0.236,0.029-0.345,0.069
			l-0.003-0.007l-21,6l0.003,0.007C0.274,6.211,0,6.57,0,7s0.274,0.789,0.655,0.931L0.652,7.938l0.649,0.185
			c0.014,0.005,0.027,0.009,0.042,0.013l0.004-0.011L22,14.025l20.652-5.9l0.004,0.011c0.015-0.004,0.028-0.008,0.042-0.013
			l0.649-0.185l-0.003-0.008C43.726,7.789,44,7.43,44,7z M5.938,17.273C6.583,16.723,7,15.914,7,15c0-1.158-0.663-2.151-1.625-2.651
			c0.069-0.312,0.154-0.621,0.236-0.932l-1.97-0.562c-0.109,0.401-0.219,0.805-0.305,1.225C2,12.382,1,13.572,1,15
			c0,1.312,0.847,2.414,2.018,2.822c-0.214,2.769-0.891,6.174-2.794,8.553c-0.345,0.432-0.274,1.061,0.155,1.406
			C0.564,27.929,0.785,28,1.004,28c0.293,0,0.584-0.129,0.782-0.375c1.567-1.96,2.415-4.448,2.863-6.821l1.373,6.407
			c0.101,0.469,0.515,0.79,0.977,0.79c0.069,0,0.14-0.007,0.211-0.022c0.54-0.115,0.884-0.647,0.768-1.188L5.938,17.273z M4,16
			c-0.553,0-1-0.447-1-1c0-0.552,0.447-1,1-1s1,0.448,1,1C5,15.553,4.553,16,4,16z"/>
	</g>
</g>
<g>
</g>
<g>
</g>
<g>
</g>
<g>
</g>
<g>
</g>
<g>
</g>
<g>
</g>
<g>
</g>
<g>
</g>
<g>
</g>
<g>
</g>
<g>
</g>
<g>
</g>
<g>
</g>
<g>
</g>
</svg>
