<?xml version="1.0" encoding="iso-8859-1"?>
<!-- Generator: Adobe Illustrator 16.0.4, SVG Export Plug-In . SVG Version: 6.00 Build 0)  -->
<!DOCTYPE svg PUBLIC "-//W3C//DTD SVG 1.1//EN" "http://www.w3.org/Graphics/SVG/1.1/DTD/svg11.dtd">
<svg version="1.1" id="Layer_1" xmlns="http://www.w3.org/2000/svg" xmlns:xlink="http://www.w3.org/1999/xlink" x="0px" y="0px"
	 width="44px" height="44px" viewBox="0 0 44 44" style="enable-background:new 0 0 44 44;" xml:space="preserve">
<g id="_x38_99-key-toolbar-selected_x40_2x.png">
	<g>
		<path d="M44,34.994c0-0.288-0.125-0.544-0.319-0.728L27.417,18.003c0.378-1.269,0.588-2.609,0.588-4.001
			C28.005,6.27,21.735,0,14.002,0S0,6.27,0,14.002c0,7.733,6.269,14.003,14.002,14.003c1.393,0,2.737-0.204,4.005-0.583l8.218,8.217
			c0.185,0.223,0.452,0.373,0.764,0.373c0.002,0,0.003-0.001,0.004-0.001v0.001h2.993V39h0.005c0.003,0.551,0.447,0.996,0.998,0.999
			v0.007h3.023v2.876c-0.005,0.039-0.023,0.072-0.023,0.112c0,0.556,0.45,1.006,1.006,1.006c0.007,0,0.013-0.004,0.02-0.004V44
			h7.981c0.555-0.001,1.004-0.45,1.005-1.005v-7.981h-0.004C43.996,35.007,44,35.001,44,34.994z M11,14.996
			c-2.207,0-3.996-1.789-3.996-3.996S8.793,7.004,11,7.004S14.996,8.793,14.996,11S13.207,14.996,11,14.996z M23.008,16.992
			l0.008-0.039l0.022,0.009L23.008,16.992z M11,9.009C9.9,9.009,9.009,9.9,9.009,11S9.9,12.991,11,12.991S12.991,12.1,12.991,11
			S12.1,9.009,11,9.009z"/>
	</g>
</g>
<g>
</g>
<g>
</g>
<g>
</g>
<g>
</g>
<g>
</g>
<g>
</g>
<g>
</g>
<g>
</g>
<g>
</g>
<g>
</g>
<g>
</g>
<g>
</g>
<g>
</g>
<g>
</g>
<g>
</g>
</svg>
