<?xml version="1.0" encoding="iso-8859-1"?>
<!-- Generator: Adobe Illustrator 16.0.4, SVG Export Plug-In . SVG Version: 6.00 Build 0)  -->
<!DOCTYPE svg PUBLIC "-//W3C//DTD SVG 1.1//EN" "http://www.w3.org/Graphics/SVG/1.1/DTD/svg11.dtd">
<svg version="1.1" id="Layer_1" xmlns="http://www.w3.org/2000/svg" xmlns:xlink="http://www.w3.org/1999/xlink" x="0px" y="0px"
	 width="44.032px" height="44.001px" viewBox="0 0 44.032 44.001" style="enable-background:new 0 0 44.032 44.001;"
	 xml:space="preserve">
<g id="_x39_00-telescope-toolbar-selected_x40_2x.png">
	<g>
		<path d="M6.01,16.724l-3.55,1.185l-0.605-1.905L0,16.626l0.605,1.902H0.604l0.882,2.771l1.537,4.831l1.854-0.623l-0.604-1.898
			l3.548-1.184L6.01,16.724z M7.303,14.19l3.021,9.504l5.191-1.74l-3.021-9.503L7.303,14.19z M38.591,0l-5.355,1.786l5.437,17.105
			l5.36-1.787L38.591,0z M31.809,3.901L13.788,9.919l4.229,13.305l4.765-1.591l-6.705,21.071c-0.163,0.528,0.132,1.088,0.659,1.252
			c0.099,0.03,0.198,0.045,0.297,0.045c0.426,0,0.821-0.274,0.954-0.703l3.289-10.297h5.512l3.289,10.297
			c0.133,0.429,0.528,0.703,0.955,0.703c0.098,0,0.198-0.015,0.297-0.045c0.527-0.164,0.822-0.724,0.658-1.252l-6.945-21.826
			l10.997-3.673L31.809,3.901z M26.148,31.001h-4.233l2.116-6.626L26.148,31.001z"/>
	</g>
</g>
<g>
</g>
<g>
</g>
<g>
</g>
<g>
</g>
<g>
</g>
<g>
</g>
<g>
</g>
<g>
</g>
<g>
</g>
<g>
</g>
<g>
</g>
<g>
</g>
<g>
</g>
<g>
</g>
<g>
</g>
</svg>
