<?xml version="1.0" encoding="UTF-8" standalone="no"?>
<!-- Created with Inkscape (http://www.inkscape.org/) -->

<svg
   xmlns:dc="http://purl.org/dc/elements/1.1/"
   xmlns:cc="http://creativecommons.org/ns#"
   xmlns:rdf="http://www.w3.org/1999/02/22-rdf-syntax-ns#"
   xmlns:svg="http://www.w3.org/2000/svg"
   xmlns="http://www.w3.org/2000/svg"
   xmlns:sodipodi="http://sodipodi.sourceforge.net/DTD/sodipodi-0.dtd"
   xmlns:inkscape="http://www.inkscape.org/namespaces/inkscape"
   width="27"
   height="48"
   id="svg2"
   version="1.1"
   inkscape:version="0.48.1 "
   sodipodi:docname="map_marker_electric_bike.svg">
  <defs
     id="defs4" />
  <sodipodi:namedview
     id="base"
     pagecolor="#ffffff"
     bordercolor="#666666"
     borderopacity="1.0"
     inkscape:pageopacity="0.0"
     inkscape:pageshadow="2"
     inkscape:zoom="6.5"
     inkscape:cx="-1.440077"
     inkscape:cy="23.573291"
     inkscape:document-units="px"
     inkscape:current-layer="layer1"
     showgrid="false"
     inkscape:window-width="1920"
     inkscape:window-height="1028"
     inkscape:window-x="-8"
     inkscape:window-y="-8"
     inkscape:window-maximized="1"
     fit-margin-top="0"
     fit-margin-left="0"
     fit-margin-right="0"
     fit-margin-bottom="0" />
  <metadata
     id="metadata7">
    <rdf:RDF>
      <cc:Work
         rdf:about="">
        <dc:format>image/svg+xml</dc:format>
        <dc:type
           rdf:resource="http://purl.org/dc/dcmitype/StillImage" />
        <dc:title></dc:title>
      </cc:Work>
    </rdf:RDF>
  </metadata>
  <g
     inkscape:label="Layer 1"
     inkscape:groupmode="layer"
     id="layer1"
     transform="translate(-113.93546,-557.42719)">
    <path
       sodipodi:type="star"
       style="fill:#b3b3b3;stroke:#000000;stroke-width:2.5;stroke-miterlimit:4;stroke-dasharray:none;stroke-dashoffset:0"
       id="path3000"
       sodipodi:sides="3"
       sodipodi:cx="55.555557"
       sodipodi:cy="579.8313"
       sodipodi:r1="16.976009"
       sodipodi:r2="8.4880047"
       sodipodi:arg1="1.5707963"
       sodipodi:arg2="2.6179939"
       inkscape:flatsided="false"
       inkscape:rounded="0"
       inkscape:randomized="0"
       d="m 55.555558,596.80731 -7.350829,-12.73201 -7.350827,-12.73201 14.701655,0 14.701655,0 -7.350827,12.73201 z"
       inkscape:transform-center-y="5.3269085"
       transform="matrix(0.76682974,0,0,1.2551574,84.833807,-147.0385)"
       inkscape:export-filename="C:\Users\Johan\Desktop\map-marker-search.png"
       inkscape:export-xdpi="67.172302"
       inkscape:export-ydpi="67.172302" />
    <rect
       style="fill:none;stroke:none"
       id="rect2985"
       width="26.796757"
       height="47.796757"
       x="114.03708"
       y="557.63043"
       ry="0"
       inkscape:export-filename="C:\Users\Johan\Desktop\map-marker-search.png"
       inkscape:export-xdpi="67.172302"
       inkscape:export-ydpi="67.172302" />
    <path
       sodipodi:type="arc"
       style="fill:#ff7f2a;stroke:#000000;stroke-width:2.50000000000000000;stroke-miterlimit:4;stroke-dasharray:none;stroke-dashoffset:0"
       id="path2998"
       sodipodi:cx="126.69753"
       sodipodi:cy="569.18317"
       sodipodi:rx="11.574074"
       sodipodi:ry="11.574074"
       d="m 138.27161,569.18317 c 0,6.39218 -5.18189,11.57407 -11.57408,11.57407 -6.39218,0 -11.57407,-5.18189 -11.57407,-11.57407 0,-6.39219 5.18189,-11.57408 11.57407,-11.57408 6.39219,0 11.57408,5.18189 11.57408,11.57408 z"
       transform="matrix(1.0321658,0,0,1.0537658,-3.3374001,-28.809357)"
       inkscape:export-filename="C:\Users\Johan\Desktop\map-marker-search.png"
       inkscape:export-xdpi="67.172302"
       inkscape:export-ydpi="67.172302" />
    <g
       id="g3725"
       transform="matrix(0.39102564,0,0,-0.39102564,121.50965,564.58103)">
      <path
         d="m 0,0 7.466,0 -2.4,-5.743 3.4,0 -6,-8.635 3.533,0 L 0,-24 l 0,6.672 -3.534,0 3.267,8.555 -3.267,0 L 0,0 z"
         style="fill:#000000;fill-opacity:1;fill-rule:nonzero;stroke:none"
         id="path3727"
         inkscape:connector-curvature="0" />
    </g>
    <g
       id="g9663"
       transform="matrix(0.18709444,0,0,0.18709444,119.64486,463.21161)">
      <g
         transform="translate(0.0463102,0)"
         id="g9642">
        <g
           id="g8847"
           transform="translate(-0.1151052,0)">
          <rect
             ry="0"
             y="585.51978"
             x="23.349043"
             height="15.356606"
             width="63.273415"
             id="rect8839"
             style="fill:#000000;fill-opacity:1;fill-rule:nonzero;stroke:#000000;stroke-width:2.46035719;stroke-linecap:round;stroke-linejoin:miter;stroke-miterlimit:4;stroke-dasharray:none;stroke-dashoffset:0" />
          <rect
             style="fill:#000000;fill-opacity:1;fill-rule:nonzero;stroke:#000000;stroke-width:2.88272285;stroke-linecap:round;stroke-linejoin:miter;stroke-miterlimit:4;stroke-dasharray:none;stroke-dashoffset:0"
             id="rect8841"
             width="63.273415"
             height="21.081656"
             x="23.349043"
             y="579.79474"
             ry="5.8566957" />
        </g>
        <g
           id="g8851"
           transform="translate(-0.33195095,0)">
          <rect
             ry="1.6114386"
             y="599.82629"
             x="29.984846"
             height="10.384827"
             width="6.4354978"
             id="rect8843"
             style="fill:#000000;fill-opacity:1;fill-rule:nonzero;stroke:#000000;stroke-width:2.04939413;stroke-linecap:round;stroke-linejoin:miter;stroke-miterlimit:4;stroke-dasharray:none;stroke-dashoffset:0" />
          <rect
             style="fill:#000000;fill-opacity:1;fill-rule:nonzero;stroke:#000000;stroke-width:2.04939413;stroke-linecap:round;stroke-linejoin:miter;stroke-miterlimit:4;stroke-dasharray:none;stroke-dashoffset:0"
             id="rect8845"
             width="6.4354978"
             height="10.384827"
             x="73.984848"
             y="599.82629"
             ry="1.6114386" />
        </g>
        <g
           id="g9636">
          <g
             id="g9629">
            <path
               style="fill:none;stroke:#000000;stroke-width:4;stroke-linecap:butt;stroke-linejoin:miter;stroke-miterlimit:4;stroke-opacity:1;stroke-dasharray:none"
               d="M -83.024691,23 C -81.32716,4.1728395 -71.450617,4.9444444 -71.450617,4.9444444 l 12.345679,0"
               id="path8859"
               inkscape:connector-curvature="0"
               transform="translate(113.93546,557.42719)" />
          </g>
          <g
             transform="matrix(-1,0,0,1,109.74129,0)"
             id="g9632">
            <path
               transform="translate(113.93546,557.42719)"
               inkscape:connector-curvature="0"
               id="path9634"
               d="M -83.024691,23 C -81.32716,4.1728395 -71.450617,4.9444444 -71.450617,4.9444444 l 12.345679,0"
               style="fill:none;stroke:#000000;stroke-width:4;stroke-linecap:butt;stroke-linejoin:miter;stroke-miterlimit:4;stroke-opacity:1;stroke-dasharray:none" />
          </g>
        </g>
      </g>
      <g
         id="g9659">
        <path
           sodipodi:type="arc"
           style="fill:#ffffff;stroke:#ffffff;stroke-width:1;stroke-linecap:round;stroke-linejoin:miter;stroke-miterlimit:4;stroke-dasharray:none;stroke-dashoffset:0"
           id="path9655"
           sodipodi:cx="-83.564812"
           sodipodi:cy="28.169754"
           sodipodi:rx="3.1635802"
           sodipodi:ry="3.1635802"
           d="m -80.401232,28.169754 c 0,1.747197 -1.416383,3.16358 -3.16358,3.16358 -1.747197,0 -3.16358,-1.416383 -3.16358,-3.16358 0,-1.747197 1.416383,-3.16358 3.16358,-3.16358 1.747197,0 3.16358,1.416383 3.16358,3.16358 z"
           transform="matrix(1.2316765,0,0,1.2316765,135.84177,553.13857)" />
        <path
           transform="matrix(1.2316765,0,0,1.2316765,179.84177,553.13857)"
           d="m -80.401232,28.169754 c 0,1.747197 -1.416383,3.16358 -3.16358,3.16358 -1.747197,0 -3.16358,-1.416383 -3.16358,-3.16358 0,-1.747197 1.416383,-3.16358 3.16358,-3.16358 1.747197,0 3.16358,1.416383 3.16358,3.16358 z"
           sodipodi:ry="3.1635802"
           sodipodi:rx="3.1635802"
           sodipodi:cy="28.169754"
           sodipodi:cx="-83.564812"
           id="path9657"
           style="fill:#ffffff;stroke:#ffffff;stroke-width:1;stroke-linecap:round;stroke-linejoin:miter;stroke-miterlimit:4;stroke-dasharray:none;stroke-dashoffset:0"
           sodipodi:type="arc" />
      </g>
    </g>
  </g>
</svg>
