<?xml version="1.0" encoding="UTF-8" standalone="no"?>
<!-- Created with Inkscape (http://www.inkscape.org/) -->

<svg
   xmlns:dc="http://purl.org/dc/elements/1.1/"
   xmlns:cc="http://creativecommons.org/ns#"
   xmlns:rdf="http://www.w3.org/1999/02/22-rdf-syntax-ns#"
   xmlns:svg="http://www.w3.org/2000/svg"
   xmlns="http://www.w3.org/2000/svg"
   xmlns:sodipodi="http://sodipodi.sourceforge.net/DTD/sodipodi-0.dtd"
   xmlns:inkscape="http://www.inkscape.org/namespaces/inkscape"
   width="27"
   height="48"
   id="svg2"
   version="1.1"
   inkscape:version="0.48.1 "
   sodipodi:docname="map_marker_road.svg">
  <defs
     id="defs4">
    <clipPath
       clipPathUnits="userSpaceOnUse"
       id="clipPath4427">
      <path
         inkscape:connector-curvature="0"
         d="m 257.129,515.375 14.307,0 0,-23.475 -14.307,0 0,23.475 z"
         id="path4429" />
    </clipPath>
    <clipPath
       clipPathUnits="userSpaceOnUse"
       id="clipPath5123">
      <path
         inkscape:connector-curvature="0"
         d="m 74.0005,413.281 14,0 0,-14.281 -14,0 0,14.281 z"
         id="path5125" />
    </clipPath>
    <clipPath
       clipPathUnits="userSpaceOnUse"
       id="clipPath5139">
      <path
         inkscape:connector-curvature="0"
         d="m 56.0005,413.281 14,0 0,-14.281 -14,0 0,14.281 z"
         id="path5141" />
    </clipPath>
  </defs>
  <sodipodi:namedview
     id="base"
     pagecolor="#ffffff"
     bordercolor="#666666"
     borderopacity="1.0"
     inkscape:pageopacity="0.0"
     inkscape:pageshadow="2"
     inkscape:zoom="6.48"
     inkscape:cx="-40.637608"
     inkscape:cy="33.422834"
     inkscape:document-units="px"
     inkscape:current-layer="layer1"
     showgrid="false"
     inkscape:window-width="1920"
     inkscape:window-height="1028"
     inkscape:window-x="-8"
     inkscape:window-y="-8"
     inkscape:window-maximized="1"
     fit-margin-top="0"
     fit-margin-left="0"
     fit-margin-right="0"
     fit-margin-bottom="0" />
  <metadata
     id="metadata7">
    <rdf:RDF>
      <cc:Work
         rdf:about="">
        <dc:format>image/svg+xml</dc:format>
        <dc:type
           rdf:resource="http://purl.org/dc/dcmitype/StillImage" />
        <dc:title></dc:title>
      </cc:Work>
    </rdf:RDF>
  </metadata>
  <g
     inkscape:label="Layer 1"
     inkscape:groupmode="layer"
     id="layer1"
     transform="translate(-113.93546,-557.42719)">
    <path
       sodipodi:type="star"
       style="fill:#b3b3b3;stroke:#000000;stroke-width:2.5;stroke-miterlimit:4;stroke-dasharray:none;stroke-dashoffset:0"
       id="path3000"
       sodipodi:sides="3"
       sodipodi:cx="55.555557"
       sodipodi:cy="579.8313"
       sodipodi:r1="16.976009"
       sodipodi:r2="8.4880047"
       sodipodi:arg1="1.5707963"
       sodipodi:arg2="2.6179939"
       inkscape:flatsided="false"
       inkscape:rounded="0"
       inkscape:randomized="0"
       d="m 55.555558,596.80731 -7.350829,-12.73201 -7.350827,-12.73201 14.701655,0 14.701655,0 -7.350827,12.73201 z"
       inkscape:transform-center-y="5.3269085"
       transform="matrix(0.76682974,0,0,1.2551574,84.833807,-147.0385)"
       inkscape:export-filename="C:\Users\Johan\Desktop\map-marker-search.png"
       inkscape:export-xdpi="67.172302"
       inkscape:export-ydpi="67.172302" />
    <rect
       style="fill:none;stroke:none"
       id="rect2985"
       width="26.796757"
       height="47.796757"
       x="114.03708"
       y="557.63043"
       ry="0"
       inkscape:export-filename="C:\Users\Johan\Desktop\map-marker-search.png"
       inkscape:export-xdpi="67.172302"
       inkscape:export-ydpi="67.172302" />
    <path
       sodipodi:type="arc"
       style="fill:#800000;stroke:#000000;stroke-width:2.50000000000000000;stroke-miterlimit:4;stroke-dasharray:none;stroke-dashoffset:0"
       id="path2998"
       sodipodi:cx="126.69753"
       sodipodi:cy="569.18317"
       sodipodi:rx="11.574074"
       sodipodi:ry="11.574074"
       d="m 138.27161,569.18317 c 0,6.39218 -5.18189,11.57407 -11.57408,11.57407 -6.39218,0 -11.57407,-5.18189 -11.57407,-11.57407 0,-6.39219 5.18189,-11.57408 11.57407,-11.57408 6.39219,0 11.57408,5.18189 11.57408,11.57408 z"
       transform="matrix(1.0321658,0,0,1.0537658,-3.3374001,-28.809357)"
       inkscape:export-filename="C:\Users\Johan\Desktop\map-marker-search.png"
       inkscape:export-xdpi="67.172302"
       inkscape:export-ydpi="67.172302" />
    <rect
       style="fill:none;stroke:none"
       id="rect18765"
       width="24.181164"
       height="24.181164"
       x="115.34488"
       y="558.8858" />
    <g
       id="g3669"
       transform="matrix(0.66690999,0,0,-0.66690999,127.43673,568.30779)"
       style="fill:#ffffff">
      <path
         d="m 0,0 c -2.209,0 -4,-1.791 -4,-4 0,-2.208 1.791,-4 4,-4 2.209,0 4,1.792 4,4 0,2.209 -1.791,4 -4,4 m 0,-2 c 1.103,0 2,-0.896 2,-2 0,-1.102 -0.897,-2 -2,-2 -1.103,0 -2,0.898 -2,2 0,1.104 0.897,2 2,2"
         style="fill:#ffffff;fill-opacity:1;fill-rule:nonzero;stroke:none"
         id="path3671"
         inkscape:connector-curvature="0" />
    </g>
    <g
       id="g3673"
       transform="matrix(0.66690999,0,0,-0.66690999,127.43673,566.97397)"
       style="fill:#ffffff">
      <path
         d="m 0,0 c -0.552,0 -1,0.447 -1,1 l 0,2 C -1,3.554 -0.552,4 0,4 0.552,4 1,3.554 1,3 L 1,1 C 1,0.447 0.552,0 0,0"
         style="fill:#ffffff;fill-opacity:1;fill-rule:nonzero;stroke:none"
         id="path3675"
         inkscape:connector-curvature="0" />
    </g>
    <g
       id="g3677"
       transform="matrix(0.66690999,0,0,-0.66690999,130.73807,568.341)"
       style="fill:#ffffff">
      <path
         d="m 0,0 c -0.256,0 -0.512,0.097 -0.707,0.292 -0.391,0.392 -0.391,1.024 0,1.415 l 1.414,1.414 c 0.391,0.391 1.023,0.391 1.414,0 0.391,-0.392 0.391,-1.024 0,-1.414 L 0.707,0.292 C 0.512,0.097 0.256,0 0,0"
         style="fill:#ffffff;fill-opacity:1;fill-rule:nonzero;stroke:none"
         id="path3679"
         inkscape:connector-curvature="0" />
    </g>
    <g
       id="g3681"
       transform="matrix(0.66690999,0,0,-0.66690999,133.43892,571.643)"
       style="fill:#ffffff">
      <path
         d="m 0,0 -2,0 c -0.552,0 -1,0.447 -1,1 0,0.552 0.448,1 1,1 L 0,2 C 0.552,2 1,1.552 1,1 1,0.447 0.552,0 0,0"
         style="fill:#ffffff;fill-opacity:1;fill-rule:nonzero;stroke:none"
         id="path3683"
         inkscape:connector-curvature="0" />
    </g>
    <g
       id="g3685"
       transform="matrix(0.66690999,0,0,-0.66690999,131.67981,575.88802)"
       style="fill:#ffffff">
      <path
         d="m 0,0 c -0.256,0 -0.512,0.099 -0.707,0.294 l -1.414,1.414 c -0.391,0.391 -0.391,1.023 0,1.413 0.391,0.391 1.023,0.391 1.414,0 L 0.707,1.708 C 1.098,1.316 1.098,0.684 0.707,0.294 0.512,0.099 0.256,0 0,0"
         style="fill:#ffffff;fill-opacity:1;fill-rule:nonzero;stroke:none"
         id="path3687"
         inkscape:connector-curvature="0" />
    </g>
    <g
       id="g3689"
       transform="matrix(0.66690999,0,0,-0.66690999,127.4348,577.64519)"
       style="fill:#ffffff">
      <path
         d="m 0,0 c -0.552,0 -1,0.447 -1,1 l 0,2 C -1,3.552 -0.552,4 0,4 0.552,4 1,3.552 1,3 L 1,1 C 1,0.447 0.552,0 0,0"
         style="fill:#ffffff;fill-opacity:1;fill-rule:nonzero;stroke:none"
         id="path3691"
         inkscape:connector-curvature="0" />
    </g>
    <g
       id="g3693"
       transform="matrix(0.66690999,0,0,-0.66690999,123.19045,575.88542)"
       style="fill:#ffffff">
      <path
         d="m 0,0 c -0.256,0 -0.512,0.097 -0.707,0.292 -0.391,0.392 -0.391,1.024 0,1.415 l 1.414,1.414 c 0.391,0.391 1.023,0.391 1.414,0 0.391,-0.392 0.391,-1.024 0,-1.414 L 0.707,0.292 C 0.512,0.097 0.256,0 0,0"
         style="fill:#ffffff;fill-opacity:1;fill-rule:nonzero;stroke:none"
         id="path3695"
         inkscape:connector-curvature="0" />
    </g>
    <g
       id="g3697"
       transform="matrix(0.66690999,0,0,-0.66690999,122.76743,571.64107)"
       style="fill:#ffffff">
      <path
         d="m 0,0 -2,0 c -0.552,0 -1,0.448 -1,1 0,0.553 0.448,1 1,1 L 0,2 C 0.552,2 1,1.553 1,1 1,0.448 0.552,0 0,0"
         style="fill:#ffffff;fill-opacity:1;fill-rule:nonzero;stroke:none"
         id="path3699"
         inkscape:connector-curvature="0" />
    </g>
    <g
       id="g3701"
       transform="matrix(0.66690999,0,0,-0.66690999,124.13606,568.3404)"
       style="fill:#ffffff">
      <path
         d="m 0,0 c -0.256,0 -0.512,0.099 -0.707,0.294 l -1.414,1.413 c -0.391,0.392 -0.391,1.024 0,1.414 0.391,0.391 1.023,0.391 1.414,0 L 0.707,1.707 C 1.098,1.316 1.098,0.684 0.707,0.294 0.512,0.099 0.256,0 0,0"
         style="fill:#ffffff;fill-opacity:1;fill-rule:nonzero;stroke:none"
         id="path3703"
         inkscape:connector-curvature="0" />
    </g>
  </g>
</svg>
