<?xml version="1.0" encoding="UTF-8" standalone="no"?>
<!-- Created with Inkscape (http://www.inkscape.org/) -->

<svg
   xmlns:dc="http://purl.org/dc/elements/1.1/"
   xmlns:cc="http://creativecommons.org/ns#"
   xmlns:rdf="http://www.w3.org/1999/02/22-rdf-syntax-ns#"
   xmlns:svg="http://www.w3.org/2000/svg"
   xmlns="http://www.w3.org/2000/svg"
   xmlns:sodipodi="http://sodipodi.sourceforge.net/DTD/sodipodi-0.dtd"
   xmlns:inkscape="http://www.inkscape.org/namespaces/inkscape"
   width="27"
   height="48"
   id="svg2"
   version="1.1"
   inkscape:version="0.48.0 r9654"
   sodipodi:docname="map_marker_bike.svg">
  <defs
     id="defs4" />
  <sodipodi:namedview
     id="base"
     pagecolor="#ffffff"
     bordercolor="#666666"
     borderopacity="1.0"
     inkscape:pageopacity="0.0"
     inkscape:pageshadow="2"
     inkscape:zoom="6.5"
     inkscape:cx="-1.440077"
     inkscape:cy="23.573291"
     inkscape:document-units="px"
     inkscape:current-layer="layer1"
     showgrid="false"
     inkscape:window-width="1920"
     inkscape:window-height="1028"
     inkscape:window-x="-8"
     inkscape:window-y="-8"
     inkscape:window-maximized="1"
     fit-margin-top="0"
     fit-margin-left="0"
     fit-margin-right="0"
     fit-margin-bottom="0" />
  <metadata
     id="metadata7">
    <rdf:RDF>
      <cc:Work
         rdf:about="">
        <dc:format>image/svg+xml</dc:format>
        <dc:type
           rdf:resource="http://purl.org/dc/dcmitype/StillImage" />
        <dc:title></dc:title>
      </cc:Work>
    </rdf:RDF>
  </metadata>
  <g
     inkscape:label="Layer 1"
     inkscape:groupmode="layer"
     id="layer1"
     transform="translate(-113.93546,-557.42719)">
    <path
       sodipodi:type="star"
       style="fill:#b3b3b3;stroke:#000000;stroke-width:2.5;stroke-miterlimit:4;stroke-dasharray:none;stroke-dashoffset:0"
       id="path3000"
       sodipodi:sides="3"
       sodipodi:cx="55.555557"
       sodipodi:cy="579.8313"
       sodipodi:r1="16.976009"
       sodipodi:r2="8.4880047"
       sodipodi:arg1="1.5707963"
       sodipodi:arg2="2.6179939"
       inkscape:flatsided="false"
       inkscape:rounded="0"
       inkscape:randomized="0"
       d="m 55.555558,596.80731 -7.350829,-12.73201 -7.350827,-12.73201 14.701655,0 14.701655,0 -7.350827,12.73201 z"
       inkscape:transform-center-y="5.3269085"
       transform="matrix(0.76682974,0,0,1.2551574,84.833807,-147.0385)"
       inkscape:export-filename="C:\Users\Johan\Desktop\map-marker-search.png"
       inkscape:export-xdpi="67.172302"
       inkscape:export-ydpi="67.172302" />
    <rect
       style="fill:none;stroke:none"
       id="rect2985"
       width="26.796757"
       height="47.796757"
       x="114.03708"
       y="557.63043"
       ry="0"
       inkscape:export-filename="C:\Users\Johan\Desktop\map-marker-search.png"
       inkscape:export-xdpi="67.172302"
       inkscape:export-ydpi="67.172302" />
    <path
       sodipodi:type="arc"
       style="fill:#00ff00;stroke:#000000;stroke-width:2.50000000000000000;stroke-miterlimit:4;stroke-dasharray:none;stroke-dashoffset:0"
       id="path2998"
       sodipodi:cx="126.69753"
       sodipodi:cy="569.18317"
       sodipodi:rx="11.574074"
       sodipodi:ry="11.574074"
       d="m 138.27161,569.18317 a 11.574074,11.574074 0 1 1 -23.14815,0 11.574074,11.574074 0 1 1 23.14815,0 z"
       transform="matrix(1.0321658,0,0,1.0537658,-3.3374001,-28.809357)"
       inkscape:export-filename="C:\Users\Johan\Desktop\map-marker-search.png"
       inkscape:export-xdpi="67.172302"
       inkscape:export-ydpi="67.172302" />
    <g
       id="g3803"
       transform="matrix(0.33068336,0,0,0.33068336,109.43483,378.03856)">
      <path
         transform="matrix(0.38773458,0,0,0.6995491,68.241882,568.10462)"
         d="m -52.623453,33.570988 c 0,6.093882 -8.91285,11.033951 -19.907408,11.033951 -10.994558,0 -19.907408,-4.940069 -19.907408,-11.033951 0,-6.093883 8.91285,-11.033951 19.907408,-11.033951 10.994558,0 19.907408,4.940068 19.907408,11.033951 z"
         sodipodi:ry="11.033951"
         sodipodi:rx="19.907408"
         sodipodi:cy="33.570988"
         sodipodi:cx="-72.530861"
         id="path3023"
         style="fill:none;stroke:#000000;stroke-width:3;stroke-linecap:round;stroke-miterlimit:4;stroke-dasharray:none;stroke-dashoffset:0"
         sodipodi:type="arc" />
      <path
         sodipodi:type="arc"
         style="fill:none;stroke:#000000;stroke-width:3;stroke-linecap:round;stroke-miterlimit:4;stroke-dasharray:none;stroke-dashoffset:0"
         id="path3027"
         sodipodi:cx="-72.530861"
         sodipodi:cy="33.570988"
         sodipodi:rx="19.907408"
         sodipodi:ry="11.033951"
         d="m -52.623453,33.570988 c 0,6.093882 -8.91285,11.033951 -19.907408,11.033951 -10.994558,0 -19.907408,-4.940069 -19.907408,-11.033951 0,-6.093883 8.91285,-11.033951 19.907408,-11.033951 10.994558,0 19.907408,4.940068 19.907408,11.033951 z"
         transform="matrix(0.38773458,0,0,0.6995491,94.396203,568.10462)" />
      <path
         transform="matrix(0.95615514,0,0,0.95615514,111.60042,557.69203)"
         d="m -54.475309,9.4197531 c 0,1.1932079 -0.967286,2.1604939 -2.160494,2.1604939 -1.193208,0 -2.160494,-0.967286 -2.160494,-2.1604939 0,-1.1932078 0.967286,-2.1604939 2.160494,-2.1604939 1.193208,0 2.160494,0.9672861 2.160494,2.1604939 z"
         sodipodi:ry="2.1604939"
         sodipodi:rx="2.1604939"
         sodipodi:cy="9.4197531"
         sodipodi:cx="-56.635803"
         id="path3029"
         style="fill:#000000;stroke:#000000;stroke-width:3;stroke-linecap:round;stroke-miterlimit:4;stroke-dasharray:none;stroke-dashoffset:0"
         sodipodi:type="arc" />
      <path
         transform="translate(113.93546,557.42719)"
         inkscape:connector-curvature="0"
         id="path3031"
         d="m -61.265432,14.049383 -6.481482,6.635802 6.790124,5.092593 0,8.487654"
         style="fill:none;stroke:#000000;stroke-width:4;stroke-linecap:round;stroke-linejoin:round;stroke-miterlimit:4;stroke-opacity:1;stroke-dasharray:none" />
      <path
         transform="translate(113.93546,557.42719)"
         inkscape:connector-curvature="0"
         id="path3801"
         d="m -50,19.450617 -6.17284,0.154321 -4.629629,-5.246913"
         style="fill:none;stroke:#000000;stroke-width:2;stroke-linecap:round;stroke-linejoin:round;stroke-miterlimit:4;stroke-opacity:1;stroke-dasharray:none" />
    </g>
  </g>
</svg>
