<?xml version="1.0" encoding="UTF-8" standalone="no"?>
<!-- Created with Inkscape (http://www.inkscape.org/) -->

<svg
   xmlns:dc="http://purl.org/dc/elements/1.1/"
   xmlns:cc="http://creativecommons.org/ns#"
   xmlns:rdf="http://www.w3.org/1999/02/22-rdf-syntax-ns#"
   xmlns:svg="http://www.w3.org/2000/svg"
   xmlns="http://www.w3.org/2000/svg"
   xmlns:sodipodi="http://sodipodi.sourceforge.net/DTD/sodipodi-0.dtd"
   xmlns:inkscape="http://www.inkscape.org/namespaces/inkscape"
   width="27"
   height="48"
   id="svg2"
   version="1.1"
   inkscape:version="0.48.1 "
   sodipodi:docname="map_marker_association.svg">
  <defs
     id="defs4">
    <clipPath
       clipPathUnits="userSpaceOnUse"
       id="clipPath4427">
      <path
         inkscape:connector-curvature="0"
         d="m 257.129,515.375 14.307,0 0,-23.475 -14.307,0 0,23.475 z"
         id="path4429" />
    </clipPath>
    <clipPath
       clipPathUnits="userSpaceOnUse"
       id="clipPath5123">
      <path
         inkscape:connector-curvature="0"
         d="m 74.0005,413.281 14,0 0,-14.281 -14,0 0,14.281 z"
         id="path5125" />
    </clipPath>
    <clipPath
       clipPathUnits="userSpaceOnUse"
       id="clipPath5139">
      <path
         inkscape:connector-curvature="0"
         d="m 56.0005,413.281 14,0 0,-14.281 -14,0 0,14.281 z"
         id="path5141" />
    </clipPath>
  </defs>
  <sodipodi:namedview
     id="base"
     pagecolor="#ffffff"
     bordercolor="#666666"
     borderopacity="1.0"
     inkscape:pageopacity="0.0"
     inkscape:pageshadow="2"
     inkscape:zoom="6.48"
     inkscape:cx="-40.637608"
     inkscape:cy="33.422834"
     inkscape:document-units="px"
     inkscape:current-layer="layer1"
     showgrid="false"
     inkscape:window-width="1920"
     inkscape:window-height="1028"
     inkscape:window-x="-8"
     inkscape:window-y="-8"
     inkscape:window-maximized="1"
     fit-margin-top="0"
     fit-margin-left="0"
     fit-margin-right="0"
     fit-margin-bottom="0" />
  <metadata
     id="metadata7">
    <rdf:RDF>
      <cc:Work
         rdf:about="">
        <dc:format>image/svg+xml</dc:format>
        <dc:type
           rdf:resource="http://purl.org/dc/dcmitype/StillImage" />
        <dc:title></dc:title>
      </cc:Work>
    </rdf:RDF>
  </metadata>
  <g
     inkscape:label="Layer 1"
     inkscape:groupmode="layer"
     id="layer1"
     transform="translate(-113.93546,-557.42719)">
    <path
       sodipodi:type="star"
       style="fill:#b3b3b3;stroke:#000000;stroke-width:2.5;stroke-miterlimit:4;stroke-dasharray:none;stroke-dashoffset:0"
       id="path3000"
       sodipodi:sides="3"
       sodipodi:cx="55.555557"
       sodipodi:cy="579.8313"
       sodipodi:r1="16.976009"
       sodipodi:r2="8.4880047"
       sodipodi:arg1="1.5707963"
       sodipodi:arg2="2.6179939"
       inkscape:flatsided="false"
       inkscape:rounded="0"
       inkscape:randomized="0"
       d="m 55.555558,596.80731 -7.350829,-12.73201 -7.350827,-12.73201 14.701655,0 14.701655,0 -7.350827,12.73201 z"
       inkscape:transform-center-y="5.3269085"
       transform="matrix(0.76682974,0,0,1.2551574,84.833807,-147.0385)"
       inkscape:export-filename="C:\Users\Johan\Desktop\map-marker-search.png"
       inkscape:export-xdpi="67.172302"
       inkscape:export-ydpi="67.172302" />
    <rect
       style="fill:none;stroke:none"
       id="rect2985"
       width="26.796757"
       height="47.796757"
       x="114.03708"
       y="557.63043"
       ry="0"
       inkscape:export-filename="C:\Users\Johan\Desktop\map-marker-search.png"
       inkscape:export-xdpi="67.172302"
       inkscape:export-ydpi="67.172302" />
    <path
       sodipodi:type="arc"
       style="fill:#ff0000;stroke:#000000;stroke-width:2.50000000000000000;stroke-miterlimit:4;stroke-dasharray:none;stroke-dashoffset:0"
       id="path2998"
       sodipodi:cx="126.69753"
       sodipodi:cy="569.18317"
       sodipodi:rx="11.574074"
       sodipodi:ry="11.574074"
       d="m 138.27161,569.18317 c 0,6.39218 -5.18189,11.57407 -11.57408,11.57407 -6.39218,0 -11.57407,-5.18189 -11.57407,-11.57407 0,-6.39219 5.18189,-11.57408 11.57407,-11.57408 6.39219,0 11.57408,5.18189 11.57408,11.57408 z"
       transform="matrix(1.0321658,0,0,1.0537658,-3.3374001,-28.809357)"
       inkscape:export-filename="C:\Users\Johan\Desktop\map-marker-search.png"
       inkscape:export-xdpi="67.172302"
       inkscape:export-ydpi="67.172302" />
    <g
       id="g6069"
       transform="matrix(0.53966114,0,0,-0.53966114,129.07459,567.91436)">
      <path
         d="m 0,0 c 0.781,-0.781 0.781,-2.049 0,-2.829 -0.391,-0.39 -0.902,-0.585 -1.414,-0.585 -0.511,0 -1.024,0.195 -1.414,0.586 -0.781,0.78 -0.781,2.047 0,2.828 0.39,0.391 0.902,0.585 1.413,0.585 0.174,0 0.346,-0.03 0.515,-0.075 -0.226,-0.34 -0.418,-0.663 -0.569,-0.936 -0.246,-0.013 -0.477,-0.106 -0.652,-0.281 -0.189,-0.189 -0.293,-0.44 -0.293,-0.707 0,-0.268 0.104,-0.518 0.292,-0.707 0.19,-0.19 0.441,-0.293 0.708,-0.293 0.268,0 0.518,0.103 0.707,0.293 0.189,0.187 0.293,0.439 0.293,0.706 0,0.191 -0.07,0.366 -0.169,0.523 0.156,0.281 0.346,0.593 0.561,0.911 C -0.016,0.012 -0.007,0.007 0,0 m -4.646,-6.656 c -0.239,0.273 -0.686,0.792 -1.555,1.166 -0.781,0.334 -1.183,0.094 -1.327,-0.243 -0.167,-0.386 0.142,-0.831 1.016,-1.649 1.218,-1.121 1.5,-2.026 1.03,-3.122 -0.461,-1.071 -1.6,-1.665 -3.083,-1.301 l -0.533,-1.24 -1.191,0.512 0.49,1.144 c -0.792,0.382 -1.475,0.948 -1.825,1.397 l 0.966,1.251 c 0.387,-0.491 0.988,-1.05 1.771,-1.387 0.699,-0.298 1.288,-0.224 1.489,0.246 0.197,0.458 -0.066,0.911 -0.838,1.601 -1.104,0.985 -1.725,1.965 -1.223,3.133 0.459,1.071 1.563,1.582 2.953,1.269 l 0.491,1.145 1.18,-0.506 -0.454,-1.059 c 0.783,-0.366 1.249,-0.779 1.588,-1.152 L -4.646,-6.656 z M 10.623,5.568 C 10.376,5.694 10.076,5.596 9.951,5.35 8.673,2.834 7.656,2.991 5.971,3.248 4.924,3.408 3.621,3.607 2.059,3.129 1.225,2.873 0.485,2.24 -0.123,1.537 l -1.291,1.291 -4.244,0 -11.313,-11.313 8.486,-8.486 11.313,11.313 0,4.243 -2.24,2.24 C 1.11,1.444 1.715,1.977 2.352,2.172 3.697,2.585 4.826,2.412 5.82,2.26 7.578,1.99 9.237,1.736 10.842,4.896 c 0.125,0.247 0.027,0.547 -0.219,0.672"
         style="fill:#000000;fill-opacity:1;fill-rule:nonzero;stroke:none"
         id="path6071"
         inkscape:connector-curvature="0" />
    </g>
  </g>
</svg>
