<?xml version="1.0" encoding="iso-8859-1"?>
<!-- Generator: Adobe Illustrator 16.0.4, SVG Export Plug-In . SVG Version: 6.00 Build 0)  -->
<!DOCTYPE svg PUBLIC "-//W3C//DTD SVG 1.1//EN" "http://www.w3.org/Graphics/SVG/1.1/DTD/svg11.dtd">
<svg version="1.1" id="Layer_1" xmlns="http://www.w3.org/2000/svg" xmlns:xlink="http://www.w3.org/1999/xlink" x="0px" y="0px"
	 width="16px" height="44px" viewBox="0 0 16 44" style="enable-background:new 0 0 16 44;" xml:space="preserve">
<g id="_x31_001-neck-tie-toolbar-selected_x40_2x.png">
	<g>
		<path d="M15.969,34.847l0.02-0.003L11.138,7.687l3.521-2.934l-0.007-0.008C14.861,4.562,15,4.301,15,4c0,0,0-4-7-4S1,4,1,4
			c0,0.301,0.139,0.562,0.349,0.745L1.342,4.753l3.52,2.934l-4.85,27.157l0.019,0.003C0.022,34.898,0,34.945,0,35
			c0,0.276,0.112,0.526,0.293,0.707l7,8C7.474,43.888,7.724,44,8,44s0.526-0.112,0.707-0.293l7-8C15.888,35.526,16,35.276,16,35
			C16,34.945,15.978,34.898,15.969,34.847z"/>
	</g>
</g>
<g>
</g>
<g>
</g>
<g>
</g>
<g>
</g>
<g>
</g>
<g>
</g>
<g>
</g>
<g>
</g>
<g>
</g>
<g>
</g>
<g>
</g>
<g>
</g>
<g>
</g>
<g>
</g>
<g>
</g>
</svg>
