<?xml version="1.0" encoding="iso-8859-1"?>
<!-- Generator: Adobe Illustrator 16.0.4, SVG Export Plug-In . SVG Version: 6.00 Build 0)  -->
<!DOCTYPE svg PUBLIC "-//W3C//DTD SVG 1.1//EN" "http://www.w3.org/Graphics/SVG/1.1/DTD/svg11.dtd">
<svg version="1.1" id="Layer_1" xmlns="http://www.w3.org/2000/svg" xmlns:xlink="http://www.w3.org/1999/xlink" x="0px" y="0px"
	 width="44px" height="20px" viewBox="0 0 44 20" style="enable-background:new 0 0 44 20;" xml:space="preserve">
<g id="_x31_002-bow-tie-toolbar-selected_x40_2x.png">
	<g>
		<path d="M3.35,0.092C3.227,0.035,3.092,0,2.948,0C1.965,0,0,0,0,10s1.965,10,2.948,10c0.144,0,0.278-0.035,0.401-0.092
			l0.002,0.004L14,16.012V3.988l-10.648-3.9L3.35,0.092z M41.052,0c-0.144,0-0.278,0.035-0.401,0.092l-0.002-0.004L30,3.988v12.023
			l10.648,3.9l0.002-0.004C40.773,19.965,40.908,20,41.052,20C42.035,20,44,20,44,10S42.035,0,41.052,0z M26,4h-8
			c-1.104,0-2,0.896-2,2v8c0,1.104,0.896,2,2,2h8c1.104,0,2-0.896,2-2V6C28,4.896,27.104,4,26,4z"/>
	</g>
</g>
<g>
</g>
<g>
</g>
<g>
</g>
<g>
</g>
<g>
</g>
<g>
</g>
<g>
</g>
<g>
</g>
<g>
</g>
<g>
</g>
<g>
</g>
<g>
</g>
<g>
</g>
<g>
</g>
<g>
</g>
</svg>
