<?xml version="1.0" encoding="iso-8859-1"?>
<!-- Generator: Adobe Illustrator 16.0.4, SVG Export Plug-In . SVG Version: 6.00 Build 0)  -->
<!DOCTYPE svg PUBLIC "-//W3C//DTD SVG 1.1//EN" "http://www.w3.org/Graphics/SVG/1.1/DTD/svg11.dtd">
<svg version="1.1" id="Layer_1" xmlns="http://www.w3.org/2000/svg" xmlns:xlink="http://www.w3.org/1999/xlink" x="0px" y="0px"
	 width="44px" height="36px" viewBox="0 0 44 36" style="enable-background:new 0 0 44 36;" xml:space="preserve">
<g id="_x31_003-game-controller-toolbar-selected_x40_2x.png">
	<g>
		<path d="M33,14h-9.937C23.79,2.01,31,2,31,2c0.553,0,1-0.447,1-1s-0.447-1-1-1c0,0-9.137,0.011-9.938,14H11
			C4.925,14,0,18.925,0,25s4.925,11,11,11c3.414,0,6.464-1.555,8.481-3.995h5.037C26.536,34.445,29.587,36,33,36
			c6.075,0,11-4.925,11-11S39.075,14,33,14z M16,26h-4v4h-2v-4H6v-2h4v-4h2v4h4V26z M31,29c-1.104,0-2-0.896-2-2s0.896-2,2-2
			s2,0.896,2,2S32.104,29,31,29z M35,25c-1.104,0-2-0.896-2-2s0.896-2,2-2s2,0.896,2,2S36.104,25,35,25z"/>
	</g>
</g>
<g>
</g>
<g>
</g>
<g>
</g>
<g>
</g>
<g>
</g>
<g>
</g>
<g>
</g>
<g>
</g>
<g>
</g>
<g>
</g>
<g>
</g>
<g>
</g>
<g>
</g>
<g>
</g>
<g>
</g>
</svg>
