<?xml version="1.0" encoding="iso-8859-1"?>
<!-- Generator: Adobe Illustrator 16.0.4, SVG Export Plug-In . SVG Version: 6.00 Build 0)  -->
<!DOCTYPE svg PUBLIC "-//W3C//DTD SVG 1.1//EN" "http://www.w3.org/Graphics/SVG/1.1/DTD/svg11.dtd">
<svg version="1.1" id="Layer_1" xmlns="http://www.w3.org/2000/svg" xmlns:xlink="http://www.w3.org/1999/xlink" x="0px" y="0px"
	 width="44px" height="44px" viewBox="0 0 44 44" style="enable-background:new 0 0 44 44;" xml:space="preserve">
<g id="_x31_006-eight-ball-toolbar-selected_x40_2x.png">
	<g>
		<path d="M25.267,19.57c-0.935,0.584-1.326,1.464-1.078,2.395c0.22,0.957,1.15,1.631,2.302,1.321
			c1.085-0.291,1.614-1.19,1.356-2.155C27.543,19.993,26.561,19.592,25.267,19.57z M26.15,15.843
			c-0.207-0.776-0.873-1.465-1.975-1.169c-1.035,0.277-1.38,1.128-1.164,1.938c0.243,0.914,1.125,1.268,2.237,1.283
			C25.924,17.473,26.376,16.687,26.15,15.843z M22,0C9.85,0,0,9.85,0,22s9.85,22,22,22s22-9.85,22-22S34.15,0,22,0z M24.986,30.014
			c-6.075,0-11-4.925-11-11s4.925-11,11-11s11,4.925,11,11S31.062,30.014,24.986,30.014z M25.002,9.991
			c-4.974,0-9.006,4.032-9.006,9.007c0,4.974,4.032,9.006,9.006,9.006c4.975,0,9.007-4.032,9.007-9.006
			C34.009,14.023,29.977,9.991,25.002,9.991z M26.823,24.804c-2.536,0.682-4.255-0.464-4.673-2.032
			c-0.372-1.396,0.159-2.555,1.26-3.46l-0.015-0.052c-1.286-0.264-2.052-1.056-2.313-2.038c-0.487-1.826,0.751-3.489,2.803-4.04
			c2.337-0.627,3.791,0.533,4.158,1.912c0.253,0.948,0.031,2.061-0.993,2.981l0.014,0.052c1.31,0.147,2.451,0.875,2.823,2.271
			C30.42,22.397,29.143,24.181,26.823,24.804z"/>
	</g>
</g>
<g>
</g>
<g>
</g>
<g>
</g>
<g>
</g>
<g>
</g>
<g>
</g>
<g>
</g>
<g>
</g>
<g>
</g>
<g>
</g>
<g>
</g>
<g>
</g>
<g>
</g>
<g>
</g>
<g>
</g>
</svg>
