<?xml version="1.0" encoding="iso-8859-1"?>
<!-- Generator: Adobe Illustrator 16.0.4, SVG Export Plug-In . SVG Version: 6.00 Build 0)  -->
<!DOCTYPE svg PUBLIC "-//W3C//DTD SVG 1.1//EN" "http://www.w3.org/Graphics/SVG/1.1/DTD/svg11.dtd">
<svg version="1.1" id="Layer_1" xmlns="http://www.w3.org/2000/svg" xmlns:xlink="http://www.w3.org/1999/xlink" x="0px" y="0px"
	 width="44px" height="44px" viewBox="0 0 44 44" style="enable-background:new 0 0 44 44;" xml:space="preserve">
<g id="_x31_007-price-tag-toolbar-selected_x40_2x.png">
	<g>
		<path d="M43.555,0.169c-0.462-0.309-1.081-0.183-1.387,0.277c-1.692,2.538-4.396,4.579-10.332,5.568
			C28.972,6.492,27.045,8.07,25.735,10H17c-0.276,0-0.526,0.112-0.707,0.293l-16,16C0.112,26.474,0,26.724,0,27
			s0.112,0.526,0.293,0.707l16,16C16.474,43.888,16.724,44,17,44s0.526-0.112,0.707-0.293l16-16C33.888,27.526,34,27.276,34,27V17
			c0-0.276-0.112-0.526-0.293-0.707l-5.799-5.8c1.02-1.239,2.392-2.195,4.256-2.507c6.77-1.128,9.901-3.781,11.668-6.432
			C44.139,1.096,44.015,0.475,43.555,0.169z M19.24,26.581c-0.322-0.233-0.901-0.699-1.934-0.952
			c-1.062-0.262-1.578,0.116-1.708,0.562c-0.157,0.537,0.301,0.973,1.461,1.735c1.538,0.968,2.091,1.861,1.75,3.026
			c-0.325,1.113-1.507,1.875-3.244,1.7l-0.394,1.35l-1.244-0.307l0.37-1.27c-0.947-0.262-1.835-0.732-2.289-1.181l0.769-1.131
			c0.504,0.447,1.273,0.931,2.199,1.158c0.955,0.235,1.727-0.01,1.91-0.639c0.172-0.589-0.248-1.1-1.268-1.729
			c-1.448-0.889-2.296-1.771-1.94-2.989c0.329-1.126,1.491-1.767,3.093-1.625l0.374-1.284l1.244,0.307l-0.355,1.218
			c0.948,0.261,1.543,0.618,1.968,0.946L19.24,26.581z M26,20c0,1.104-0.896,2-2,2s-2-0.896-2-2c0-0.775,0.446-1.441,1.092-1.772
			c0.193-2.059,0.791-5.495,2.644-8.227h1.262C26.998,10.001,26.999,10,27,10c0.383,0,0.705,0.223,0.873,0.539
			c-1.932,2.38-2.562,5.787-2.771,7.794C25.643,18.691,26,19.304,26,20z"/>
	</g>
</g>
<g>
</g>
<g>
</g>
<g>
</g>
<g>
</g>
<g>
</g>
<g>
</g>
<g>
</g>
<g>
</g>
<g>
</g>
<g>
</g>
<g>
</g>
<g>
</g>
<g>
</g>
<g>
</g>
<g>
</g>
</svg>
