<?xml version="1.0" encoding="iso-8859-1"?>
<!-- Generator: Adobe Illustrator 16.0.4, SVG Export Plug-In . SVG Version: 6.00 Build 0)  -->
<!DOCTYPE svg PUBLIC "-//W3C//DTD SVG 1.1//EN" "http://www.w3.org/Graphics/SVG/1.1/DTD/svg11.dtd">
<svg version="1.1" id="Layer_1" xmlns="http://www.w3.org/2000/svg" xmlns:xlink="http://www.w3.org/1999/xlink" x="0px" y="0px"
	 width="44px" height="28px" viewBox="0 0 44 28" style="enable-background:new 0 0 44 28;" xml:space="preserve">
<g id="_x31_016-handgun-toolbar-selected_x40_2x.png">
	<g>
		<path d="M0.086,24.601c-0.004,0.007-0.007,0.014-0.01,0.021l-0.016,0.037l0.008,0.003C0.029,24.768,0,24.88,0,25
			c0,0.468,0.328,0.843,0.762,0.952l-0.004,0.019l7,2l0.004-0.019C7.84,27.972,7.916,28,8,28c0.445,0,0.811-0.297,0.939-0.699
			l0.013,0.004l1.27-2.854l-8.796-2.913L0.086,24.601z M44,3c0-0.553-0.447-1-1-1h-1h-1.812l-1.351,8H42
			c0.509,0,0.913-0.386,0.976-0.878l0.017,0.002l1-6l-0.017-0.002C43.98,3.08,44,3.043,44,3z M35.707,0.293
			C35.526,0.112,35.276,0,35,0s-0.526,0.112-0.707,0.293L32.586,2H9H7C6.447,2,6,2.447,6,3c0,0.276,0.112,0.526,0.293,0.707
			l0.828,0.828L5.263,8.251l-1.71,0.854l0.005,0.01C3.23,9.279,3,9.609,3,10c0,0.276,0.112,0.526,0.293,0.707l1.997,1.997
			l-3.061,6.995l8.807,2.917L13.977,16H19c3.313,0,6-2.687,6-6h11.812l1.351-8h-0.748L35.707,0.293z M10.5,14c-0.553,0-1-0.447-1-1
			c0-0.552,0.447-1,1-1s1,0.448,1,1C11.5,13.553,11.053,14,10.5,14z M19,14h-4.134l1.707-3.841l1.627,2.441l0.014-0.011
			C18.396,12.833,18.673,13,19,13c0.553,0,1-0.447,1-1c0-0.225-0.088-0.422-0.214-0.59L19.8,11.4L18.867,10H23
			C23,12.209,21.209,14,19,14z"/>
	</g>
</g>
<g>
</g>
<g>
</g>
<g>
</g>
<g>
</g>
<g>
</g>
<g>
</g>
<g>
</g>
<g>
</g>
<g>
</g>
<g>
</g>
<g>
</g>
<g>
</g>
<g>
</g>
<g>
</g>
<g>
</g>
</svg>
