<?xml version="1.0" encoding="iso-8859-1"?>
<!-- Generator: Adobe Illustrator 16.0.4, SVG Export Plug-In . SVG Version: 6.00 Build 0)  -->
<!DOCTYPE svg PUBLIC "-//W3C//DTD SVG 1.1//EN" "http://www.w3.org/Graphics/SVG/1.1/DTD/svg11.dtd">
<svg version="1.1" id="Layer_1" xmlns="http://www.w3.org/2000/svg" xmlns:xlink="http://www.w3.org/1999/xlink" x="0px" y="0px"
	 width="44px" height="36px" viewBox="0 0 44 36" style="enable-background:new 0 0 44 36;" xml:space="preserve">
<g id="_x31_018-box-toolbar-selected_x40_2x.png">
	<g>
		<path d="M38,29c0,0.553-0.447,1-1,1c-0.276,0-0.526-0.112-0.707-0.293L35,28.414l-1.293,1.293C33.526,29.889,33.276,30,33,30
			c-0.553,0-1-0.447-1-1V10H0v24c0,1.104,0.896,2,2,2h40c1.104,0,2-0.896,2-2V10h-6V29z M28,20c0,1.104-0.896,2-2,2h-8
			c-1.104,0-2-0.896-2-2v-2c0-1.104,0.896-2,2-2h8c1.104,0,2,0.896,2,2V20z M35.707,26.293L36,26.586V10h-2v16.586l0.293-0.293
			C34.474,26.112,34.724,26,35,26S35.526,26.112,35.707,26.293z M42,0H2C0.896,0,0,0.896,0,2v6h44V2C44,0.896,43.104,0,42,0z"/>
	</g>
</g>
<g>
</g>
<g>
</g>
<g>
</g>
<g>
</g>
<g>
</g>
<g>
</g>
<g>
</g>
<g>
</g>
<g>
</g>
<g>
</g>
<g>
</g>
<g>
</g>
<g>
</g>
<g>
</g>
<g>
</g>
</svg>
