<?xml version="1.0" encoding="iso-8859-1"?>
<!-- Generator: Adobe Illustrator 16.0.4, SVG Export Plug-In . SVG Version: 6.00 Build 0)  -->
<!DOCTYPE svg PUBLIC "-//W3C//DTD SVG 1.1//EN" "http://www.w3.org/Graphics/SVG/1.1/DTD/svg11.dtd">
<svg version="1.1" id="Layer_1" xmlns="http://www.w3.org/2000/svg" xmlns:xlink="http://www.w3.org/1999/xlink" x="0px" y="0px"
	 width="43.977px" height="44.021px" viewBox="0 0 43.977 44.021" style="enable-background:new 0 0 43.977 44.021;"
	 xml:space="preserve">
<g id="_x31_019-music-note-2-toolbar-selected_x40_2x.png">
	<g>
		<path d="M42.977,0c-0.043,0-0.08,0.02-0.122,0.024l-0.002-0.017l-26,4l0.002,0.017C16.362,4.088,15.977,4.491,15.977,5v26.869
			c-2.032-1.73-5.366-2.393-8.769-1.479c-4.859,1.304-8.007,5.321-7.03,8.972c0.977,3.651,5.708,5.554,10.567,4.249
			c4.26-1.144,7.203-4.371,7.207-7.61h0.024V5.857l24-3.692v25.704c-2.032-1.73-5.366-2.393-8.769-1.479
			c-4.859,1.305-8.007,5.321-7.03,8.972c0.977,3.651,5.708,5.554,10.567,4.249c4.26-1.144,7.203-4.372,7.207-7.61h0.024V1
			C43.977,0.447,43.529,0,42.977,0z"/>
	</g>
</g>
<g>
</g>
<g>
</g>
<g>
</g>
<g>
</g>
<g>
</g>
<g>
</g>
<g>
</g>
<g>
</g>
<g>
</g>
<g>
</g>
<g>
</g>
<g>
</g>
<g>
</g>
<g>
</g>
<g>
</g>
</svg>
