<?xml version="1.0" encoding="iso-8859-1"?>
<!-- Generator: Adobe Illustrator 16.0.4, SVG Export Plug-In . SVG Version: 6.00 Build 0)  -->
<!DOCTYPE svg PUBLIC "-//W3C//DTD SVG 1.1//EN" "http://www.w3.org/Graphics/SVG/1.1/DTD/svg11.dtd">
<svg version="1.1" id="Layer_1" xmlns="http://www.w3.org/2000/svg" xmlns:xlink="http://www.w3.org/1999/xlink" x="0px" y="0px"
	 width="44px" height="40.026px" viewBox="0 0 44 40.026" style="enable-background:new 0 0 44 40.026;" xml:space="preserve">
<g id="_x31_021-radiation-toolbar-selected_x40_2x.png">
	<g>
		<path d="M16.101,19.026c-0.055-0.327-0.101-0.657-0.101-1c0-2.26,1.264-4.203,3.109-5.227L9.41,0C3.726,3.978,0,10.562,0,18.026
			c0,0.338,0.036,0.666,0.05,1h2h12.019H16.101z M22,21.026c1.657,0,3-1.343,3-3s-1.343-3-3-3c-1.657,0-3,1.343-3,3
			S20.343,21.026,22,21.026z M34.59,0l-9.699,12.8C26.736,13.823,28,15.767,28,18.026c0,0.343-0.046,0.673-0.101,1h2.031h12.019h2
			c0.016-0.334,0.051-0.662,0.051-1C44,10.562,40.274,3.978,34.59,0z M26.439,24.681c0.002-0.002,0.003-0.003,0.005-0.004
			l-0.909-1.824c-0.993,0.729-2.208,1.174-3.535,1.174c-1.327,0-2.542-0.444-3.535-1.174l-0.909,1.824
			c0.001,0.001,0.003,0.002,0.004,0.004l-1.827,3.653l-4.438,8.905c3.17,1.77,6.816,2.787,10.705,2.787
			c3.889,0,7.535-1.018,10.704-2.787l-4.438-8.905L26.439,24.681z"/>
	</g>
</g>
<g>
</g>
<g>
</g>
<g>
</g>
<g>
</g>
<g>
</g>
<g>
</g>
<g>
</g>
<g>
</g>
<g>
</g>
<g>
</g>
<g>
</g>
<g>
</g>
<g>
</g>
<g>
</g>
<g>
</g>
</svg>
