<?xml version="1.0" encoding="iso-8859-1"?>
<!-- Generator: Adobe Illustrator 16.0.4, SVG Export Plug-In . SVG Version: 6.00 Build 0)  -->
<!DOCTYPE svg PUBLIC "-//W3C//DTD SVG 1.1//EN" "http://www.w3.org/Graphics/SVG/1.1/DTD/svg11.dtd">
<svg version="1.1" id="Layer_1" xmlns="http://www.w3.org/2000/svg" xmlns:xlink="http://www.w3.org/1999/xlink" x="0px" y="0px"
	 width="44.031px" height="44px" viewBox="0 0 44.031 44" style="enable-background:new 0 0 44.031 44;" xml:space="preserve">
<g id="_x31_022-factory-toolbar-selected_x40_2x.png">
	<g>
		<path d="M43.031,10h-6c-0.553,0-1,0.448-1,1v15h-4.586l-9.707-9.707C21.557,16.112,21.307,16,21.031,16c-0.553,0-1,0.448-1,1
			v7.586l-8.293-8.293C11.557,16.112,11.307,16,11.031,16c-0.553,0-1,0.448-1,1v7.586l-8.293-8.293C1.557,16.112,1.307,16,1.031,16
			c-0.553,0-1,0.448-1,1v26c0,0.553,0.447,1,1,1h42c0.553,0,1-0.447,1-1V11C44.031,10.448,43.583,10,43.031,10z M12.031,37
			c-1.104,0-2-0.896-2-2s0.896-2,2-2s2,0.896,2,2S13.135,37,12.031,37z M22.031,37c-1.104,0-2-0.896-2-2s0.896-2,2-2s2,0.896,2,2
			S23.135,37,22.031,37z M32.031,37c-1.104,0-2-0.896-2-2s0.896-2,2-2s2,0.896,2,2S33.135,37,32.031,37z M1.701,3.713
			C1.773,3.643,3.507,2,6.999,2c3.382,0,4.195,1.089,5.226,2.467C13.462,6.123,14.866,8,19.999,8c4.346,0,6.939-2.134,9.022-3.85
			C30.482,2.949,31.635,2,32.999,2c4.43,0,6,1.309,6,5c0,0.553,0.447,1,1,1s1-0.447,1-1c0-6.204-4.275-7-8-7
			c-2.08,0-3.619,1.267-5.248,2.606C25.723,4.275,23.626,6,19.999,6c-4.131,0-5.077-1.266-6.173-2.731C12.68,1.737,11.382,0,6.999,0
			C2.634,0,0.385,2.199,0.292,2.293c-0.389,0.389-0.388,1.015-0.003,1.406C0.674,4.091,1.306,4.094,1.701,3.713z"/>
	</g>
</g>
<g>
</g>
<g>
</g>
<g>
</g>
<g>
</g>
<g>
</g>
<g>
</g>
<g>
</g>
<g>
</g>
<g>
</g>
<g>
</g>
<g>
</g>
<g>
</g>
<g>
</g>
<g>
</g>
<g>
</g>
</svg>
