<?xml version="1.0" encoding="iso-8859-1"?>
<!-- Generator: Adobe Illustrator 16.0.4, SVG Export Plug-In . SVG Version: 6.00 Build 0)  -->
<!DOCTYPE svg PUBLIC "-//W3C//DTD SVG 1.1//EN" "http://www.w3.org/Graphics/SVG/1.1/DTD/svg11.dtd">
<svg version="1.1" id="Layer_1" xmlns="http://www.w3.org/2000/svg" xmlns:xlink="http://www.w3.org/1999/xlink" x="0px" y="0px"
	 width="43.969px" height="24px" viewBox="0 0 43.969 24" style="enable-background:new 0 0 43.969 24;" xml:space="preserve">
<g id="_x31_025-reply-all-toolbar-selected_x40_2x.png">
	<g>
		<path d="M7.203,14.322c-0.689-0.55-1.188-1.348-1.188-2.307c0-1.064,0.596-2.041,1.42-2.573L16,2.713V1c0-0.553-0.447-1-1-1
			c-0.233,0-0.438,0.093-0.608,0.227l-0.01-0.013l-14,11l0.01,0.013C0.159,11.409,0,11.681,0,12s0.159,0.591,0.392,0.773
			l-0.01,0.013l14,11l0.01-0.013C14.562,23.908,14.767,24,15,24c0.553,0,1-0.447,1-1v-1.682l-8.838-6.943L7.203,14.322z M24,7.025V1
			c0-0.553-0.447-1-1-1c-0.233,0-0.438,0.093-0.608,0.227l-0.01-0.013l-14,11l0.01,0.013C8.159,11.409,8,11.681,8,12
			s0.159,0.591,0.392,0.773l-0.01,0.013l14,11l0.01-0.013C22.562,23.908,22.767,24,23,24c0.553,0,1-0.447,1-1v-5.968
			c14.276,0.208,18.158,4.569,18.188,4.605l1.781,2.226v-2.852C43.969,9.02,30.745,7.182,24,7.025z"/>
	</g>
</g>
<g>
</g>
<g>
</g>
<g>
</g>
<g>
</g>
<g>
</g>
<g>
</g>
<g>
</g>
<g>
</g>
<g>
</g>
<g>
</g>
<g>
</g>
<g>
</g>
<g>
</g>
<g>
</g>
<g>
</g>
</svg>
