<?xml version="1.0" encoding="iso-8859-1"?>
<!-- Generator: Adobe Illustrator 16.0.4, SVG Export Plug-In . SVG Version: 6.00 Build 0)  -->
<!DOCTYPE svg PUBLIC "-//W3C//DTD SVG 1.1//EN" "http://www.w3.org/Graphics/SVG/1.1/DTD/svg11.dtd">
<svg version="1.1" id="Layer_1" xmlns="http://www.w3.org/2000/svg" xmlns:xlink="http://www.w3.org/1999/xlink" x="0px" y="0px"
	 width="40.001px" height="44.002px" viewBox="0 0 40.001 44.002" style="enable-background:new 0 0 40.001 44.002;"
	 xml:space="preserve">
<g id="_x31_026-revert-toolbar-selected_x40_2x.png">
	<g>
		<path d="M18.768,0c-0.002,0-0.004,0-0.007,0c0,0-6.443,0.004-6.762,0.541c0,0,1.087,0.107,6.762,1.21
			c1.987,0.438,12.238,1.26,12.238,13.253c0,8.121-9.104,9.738-12.999,9.963v-5.965c0-0.553-0.447-1-1-1
			c-0.24,0-0.452,0.096-0.624,0.237l-0.009-0.011l-16,12l0.009,0.011C0.151,30.423,0,30.689,0,31.002s0.151,0.58,0.376,0.763
			l-0.009,0.011l16,12.001l0.009-0.012c0.172,0.142,0.384,0.237,0.624,0.237c0.553,0,1-0.447,1-1v-6.04
			c7.24-0.291,22.001-2.563,22.001-18.015C40.001,0.033,19.553,0,18.768,0z"/>
	</g>
</g>
<g>
</g>
<g>
</g>
<g>
</g>
<g>
</g>
<g>
</g>
<g>
</g>
<g>
</g>
<g>
</g>
<g>
</g>
<g>
</g>
<g>
</g>
<g>
</g>
<g>
</g>
<g>
</g>
<g>
</g>
</svg>
