<?xml version="1.0" encoding="iso-8859-1"?>
<!-- Generator: Adobe Illustrator 16.0.4, SVG Export Plug-In . SVG Version: 6.00 Build 0)  -->
<!DOCTYPE svg PUBLIC "-//W3C//DTD SVG 1.1//EN" "http://www.w3.org/Graphics/SVG/1.1/DTD/svg11.dtd">
<svg version="1.1" id="Layer_1" xmlns="http://www.w3.org/2000/svg" xmlns:xlink="http://www.w3.org/1999/xlink" x="0px" y="0px"
	 width="40px" height="44px" viewBox="0 0 40 44" style="enable-background:new 0 0 40 44;" xml:space="preserve">
<g id="_x31_027-magnet-toolbar-selected_x40_2x.png">
	<g>
		<path d="M21.601,3.268l6.404,1.634L19.199,0l-0.8,4.901l-6.404-1.634l8.806,5.719L21.601,3.268z M40,8.014V1.005
			c-0.001-0.549-0.441-0.991-0.987-1.001V0h-8.005v0.004C31.001,0.004,30.996,0,30.989,0c-0.547,0-0.987,0.438-1,0.983v0.021h-0.005
			v23.004h0.005v0.001h-0.051c-0.502,5.053-4.759,8.998-9.938,8.998c-5.179,0-9.437-3.945-9.938-8.998h-0.051v-0.001h0.005V1.005
			h-0.005V0.983C9.998,0.438,9.558,0,9.011,0C9.005,0,8.999,0.004,8.992,0.004V0H0.987v0.004C0.441,0.014,0.001,0.456,0,1.005v7.009
			h9.99v1.98H0v14.015h0.001C0.01,35.051,8.96,44,20,44s19.99-8.949,19.999-19.991H40V9.994h-9.99v-1.98H40z"/>
	</g>
</g>
<g>
</g>
<g>
</g>
<g>
</g>
<g>
</g>
<g>
</g>
<g>
</g>
<g>
</g>
<g>
</g>
<g>
</g>
<g>
</g>
<g>
</g>
<g>
</g>
<g>
</g>
<g>
</g>
<g>
</g>
</svg>
