<?xml version="1.0" encoding="iso-8859-1"?>
<!-- Generator: Adobe Illustrator 16.0.4, SVG Export Plug-In . SVG Version: 6.00 Build 0)  -->
<!DOCTYPE svg PUBLIC "-//W3C//DTD SVG 1.1//EN" "http://www.w3.org/Graphics/SVG/1.1/DTD/svg11.dtd">
<svg version="1.1" id="Layer_1" xmlns="http://www.w3.org/2000/svg" xmlns:xlink="http://www.w3.org/1999/xlink" x="0px" y="0px"
	 width="44px" height="24.029px" viewBox="0 0 44 24.029" style="enable-background:new 0 0 44 24.029;" xml:space="preserve">
<g id="_x31_028-whale-toolbar-selected_x40_2x.png">
	<g>
		<path d="M31.994,18.052c0.002,0,0.004,0.001,0.006,0.001v-0.007c6.917,0,10.373-1.34,11.92-2.238
			C43.959,15.417,44,15.03,44,14.602c0-4.541-3.902-9.575-12-9.575c-10.246,0-11.011,4.559-11.797,8.104
			c-0.616,2.779-0.952,4.896-5.203,4.896c-2.756,0-4.402-3.212-4.753-5.415c-0.017-0.185-0.034-0.607-0.034-0.607
			s1.015-0.029,1.66-0.029c4.938,0,7.77-2.053,7.77-5.659c0-3.429-1.531-4.712-1.605-4.785L16.506,0L16.5,1.568
			c0,0.03-0.07,3.164-1.409,3.164c-0.351,0-0.812-0.164-1.329-0.475l-0.156-0.071c-0.399-0.134-0.807-0.201-1.208-0.201
			c-1.271,0-2.258,0.66-2.879,1.237C8.961,4.53,8.041,3.706,6.813,3.706c-0.592,0-1.18,0.192-1.749,0.571
			C4.625,4.57,4.328,4.608,4.145,4.608c-0.063,0-0.113-0.005-0.15-0.005c-0.001,0-0.002,0-0.002,0c-0.096,0-0.316-0.003-0.531-0.573
			C3.25,3.471,3.143,2.515,3.143,1.373V0.005c0,0-1.251,0.942-1.546,1.365C1.025,2.191,0,2.978,0,7.102
			c0,3.158,2.471,4.882,6.958,4.882c0.64,0,1.66,0.002,1.66,0.002s0.031,0.567,0.069,0.819c0.272,2.85,1.889,11.225,10.955,11.225
			L34,24.026c0,0,0.001,0,0.002,0c0.158,0,7.224-0.037,9.369-5.783c-1.676,0.836-4.975,1.792-11.284,1.801
			c-0.032,0.004-0.06,0.02-0.093,0.02c-0.556,0-1.006-0.451-1.006-1.006C30.988,18.502,31.438,18.052,31.994,18.052z M30.002,16.042
			c-1.104,0-1.998-0.895-1.998-1.998s0.895-1.998,1.998-1.998S32,12.94,32,14.044S31.105,16.042,30.002,16.042z"/>
	</g>
</g>
<g>
</g>
<g>
</g>
<g>
</g>
<g>
</g>
<g>
</g>
<g>
</g>
<g>
</g>
<g>
</g>
<g>
</g>
<g>
</g>
<g>
</g>
<g>
</g>
<g>
</g>
<g>
</g>
<g>
</g>
</svg>
