<?xml version="1.0" encoding="iso-8859-1"?>
<!-- Generator: Adobe Illustrator 16.0.4, SVG Export Plug-In . SVG Version: 6.00 Build 0)  -->
<!DOCTYPE svg PUBLIC "-//W3C//DTD SVG 1.1//EN" "http://www.w3.org/Graphics/SVG/1.1/DTD/svg11.dtd">
<svg version="1.1" id="Layer_1" xmlns="http://www.w3.org/2000/svg" xmlns:xlink="http://www.w3.org/1999/xlink" x="0px" y="0px"
	 width="44px" height="20px" viewBox="0 0 44 20" style="enable-background:new 0 0 44 20;" xml:space="preserve">
<g id="_x31_029-fish-toolbar-selected_x40_2x.png">
	<g>
		<path d="M25.994,10c0-0.012,0.007-0.021,0.007-0.032c0.006-4.533,1.267-7.808,2.151-9.553C21.506,1.433,13.459,4.181,9.13,6.785
			L1.658,0.247L1.65,0.256C1.475,0.109,1.255,0.012,1.006,0.012C0.45,0.012,0,0.453,0,0.997c0,0.006,0.004,0.011,0.004,0.017H0
			v17.973h0.004C0.004,18.992,0,18.997,0,19.003c0,0.545,0.45,0.986,1.006,0.986c0.249,0,0.47-0.099,0.645-0.245l0.008,0.009
			l7.472-6.538c4.332,2.607,12.389,5.357,19.037,6.373c-0.886-1.732-2.16-5.01-2.166-9.555C26.001,10.021,25.994,10.012,25.994,10z
			 M43.707,12.293L41.414,10l2.293-2.293l-0.008-0.008C43.884,7.52,44,7.272,44,6.997c0-0.517-0.409-0.927-0.924-0.97
			C41.372,2.483,37.472,0,32.918,0c-0.79,0-1.641,0.051-2.524,0.134c-0.874,1.819-2.387,5.579-2.393,9.841
			c0,0.01,0.005,0.017,0.005,0.025s-0.005,0.016-0.005,0.025c0.006,4.272,1.535,8.039,2.406,9.842C31.287,19.95,32.133,20,32.918,20
			c4.554,0,8.454-2.483,10.158-6.027C43.591,13.93,44,13.52,44,13.003c0-0.275-0.116-0.522-0.301-0.701L43.707,12.293z
			 M33.998,9.992C32.895,9.992,32,9.098,32,7.994s0.895-1.998,1.998-1.998s1.998,0.895,1.998,1.998S35.102,9.992,33.998,9.992z"/>
	</g>
</g>
<g>
</g>
<g>
</g>
<g>
</g>
<g>
</g>
<g>
</g>
<g>
</g>
<g>
</g>
<g>
</g>
<g>
</g>
<g>
</g>
<g>
</g>
<g>
</g>
<g>
</g>
<g>
</g>
<g>
</g>
</svg>
