<?xml version="1.0" encoding="iso-8859-1"?>
<!-- Generator: Adobe Illustrator 16.0.4, SVG Export Plug-In . SVG Version: 6.00 Build 0)  -->
<!DOCTYPE svg PUBLIC "-//W3C//DTD SVG 1.1//EN" "http://www.w3.org/Graphics/SVG/1.1/DTD/svg11.dtd">
<svg version="1.1" id="Layer_1" xmlns="http://www.w3.org/2000/svg" xmlns:xlink="http://www.w3.org/1999/xlink" x="0px" y="0px"
	 width="44px" height="40px" viewBox="0 0 44 40" style="enable-background:new 0 0 44 40;" xml:space="preserve">
<g id="_x31_031-stamp-toolbar-selected_x40_2x.png">
	<g>
		<path d="M19,15.413v9.585C19,24.999,19,25,19,25c0,1.657,1.343,3,3,3c1.657,0,3-1.343,3-3v-9.587c2.931-1.188,5-4.057,5-7.413
			c0-4.418-3.582-8-8-8c-4.418,0-8,3.582-8,8C14,11.356,16.069,14.226,19,15.413z M0,36v3c0,0.553,0.448,1,1,1h42
			c0.553,0,1-0.447,1-1v-3H0z M37.929,24.629l-0.003,0.001C37.778,24.262,37.421,24,37,24h-9c-0.553,0-1,0.447-1,1
			c0,2.762-2.238,5-5,5c-2.761,0-5-2.238-5-5c0-0.553-0.448-1-1-1H7c-0.421,0-0.778,0.262-0.925,0.63l-0.003-0.001L2.323,34h39.354
			L37.929,24.629z"/>
	</g>
</g>
<g>
</g>
<g>
</g>
<g>
</g>
<g>
</g>
<g>
</g>
<g>
</g>
<g>
</g>
<g>
</g>
<g>
</g>
<g>
</g>
<g>
</g>
<g>
</g>
<g>
</g>
<g>
</g>
<g>
</g>
</svg>
