<?xml version="1.0" encoding="iso-8859-1"?>
<!-- Generator: Adobe Illustrator 16.0.4, SVG Export Plug-In . SVG Version: 6.00 Build 0)  -->
<!DOCTYPE svg PUBLIC "-//W3C//DTD SVG 1.1//EN" "http://www.w3.org/Graphics/SVG/1.1/DTD/svg11.dtd">
<svg version="1.1" id="Layer_1" xmlns="http://www.w3.org/2000/svg" xmlns:xlink="http://www.w3.org/1999/xlink" x="0px" y="0px"
	 width="44px" height="44px" viewBox="0 0 44 44" style="enable-background:new 0 0 44 44;" xml:space="preserve">
<g id="_x31_034-sign-toolbar-selected_x40_2x.png">
	<g>
		<path d="M18,44h8V32h-8V44z M42,0H2C0.896,0,0,0.896,0,2v26c0,1.104,0.896,2,2,2h40c1.104,0,2-0.896,2-2V2C44,0.896,43.104,0,42,0
			z M31.707,15.707l-6,6C25.526,21.888,25.276,22,25,22c-0.552,0-1-0.447-1-1c0-0.276,0.112-0.526,0.293-0.707L28.586,16H13
			c-0.552,0-1-0.447-1-1s0.448-1,1-1h15.586l-4.293-4.293C24.112,9.526,24,9.276,24,9c0-0.553,0.448-1,1-1
			c0.276,0,0.526,0.112,0.707,0.293l6,6C31.889,14.474,32,14.724,32,15S31.889,15.526,31.707,15.707z"/>
	</g>
</g>
<g>
</g>
<g>
</g>
<g>
</g>
<g>
</g>
<g>
</g>
<g>
</g>
<g>
</g>
<g>
</g>
<g>
</g>
<g>
</g>
<g>
</g>
<g>
</g>
<g>
</g>
<g>
</g>
<g>
</g>
</svg>
