<?xml version="1.0" encoding="iso-8859-1"?>
<!-- Generator: Adobe Illustrator 16.0.4, SVG Export Plug-In . SVG Version: 6.00 Build 0)  -->
<!DOCTYPE svg PUBLIC "-//W3C//DTD SVG 1.1//EN" "http://www.w3.org/Graphics/SVG/1.1/DTD/svg11.dtd">
<svg version="1.1" id="Layer_1" xmlns="http://www.w3.org/2000/svg" xmlns:xlink="http://www.w3.org/1999/xlink" x="0px" y="0px"
	 width="44px" height="43.962px" viewBox="0 0 44 43.962" style="enable-background:new 0 0 44 43.962;" xml:space="preserve">
<g id="_x31_035-pie-chart-toolbar-selected_x40_2x.png">
	<g>
		<path d="M23,0v20.539l19.337-6.961C39.16,5.882,31.746,0.394,23,0z M43.021,15.457l-19.428,6.994l12.135,16.687
			C40.766,35.106,44,28.916,44,21.962C44,19.697,43.656,17.514,43.021,15.457z M21.209,22.545C21.087,22.379,21,22.185,21,21.962
			V0.013C9.317,0.539,0,10.149,0,21.962c0,12.15,9.85,22,22,22c4.479,0,8.639-1.346,12.113-3.644L21.195,22.556L21.209,22.545z"/>
	</g>
</g>
<g>
</g>
<g>
</g>
<g>
</g>
<g>
</g>
<g>
</g>
<g>
</g>
<g>
</g>
<g>
</g>
<g>
</g>
<g>
</g>
<g>
</g>
<g>
</g>
<g>
</g>
<g>
</g>
<g>
</g>
</svg>
