<?xml version="1.0" encoding="iso-8859-1"?>
<!-- Generator: Adobe Illustrator 16.0.4, SVG Export Plug-In . SVG Version: 6.00 Build 0)  -->
<!DOCTYPE svg PUBLIC "-//W3C//DTD SVG 1.1//EN" "http://www.w3.org/Graphics/SVG/1.1/DTD/svg11.dtd">
<svg version="1.1" id="Layer_1" xmlns="http://www.w3.org/2000/svg" xmlns:xlink="http://www.w3.org/1999/xlink" x="0px" y="0px"
	 width="44px" height="40px" viewBox="0 0 44 40" style="enable-background:new 0 0 44 40;" xml:space="preserve">
<g id="_x31_036-sword-toolbar-selected_x40_2x.png">
	<g>
		<path d="M7.701,40H14c0.276,0,0.526-0.111,0.707-0.293l10.451-11.322l-3.518-3.518L7.701,40z M16.764,19.99L0.276,38.311
			l0.003,0.003C0.108,38.493,0,38.732,0,39c0,0.553,0.447,1,1,1h3.982l15.242-16.549L16.764,19.99z M34.707,26.293l-0.008,0.008
			l-16-16l0.008-0.008l-4-4C14.526,6.112,14.276,6,14,6s-0.526,0.112-0.707,0.293l-5,5C8.112,11.474,8,11.724,8,12
			c0,0.553,0.447,1,1,1h3.586l1.707,1.707l0.008-0.008l16,16l-0.008,0.008L32,32.414V36c0,0.553,0.447,1,1,1
			c0.276,0,0.526-0.111,0.707-0.293l5-5C38.888,31.526,39,31.276,39,31s-0.112-0.526-0.293-0.707L34.707,26.293z M39,0
			c-2.762,0-5,2.238-5,5c0,0.152,0.031,0.295,0.045,0.443l-8.881,8.494l5.546,5.546l8.073-9.505C38.856,9.981,38.926,10,39,10
			c2.762,0,5-2.238,5-5S41.762,0,39,0z"/>
	</g>
</g>
<g>
</g>
<g>
</g>
<g>
</g>
<g>
</g>
<g>
</g>
<g>
</g>
<g>
</g>
<g>
</g>
<g>
</g>
<g>
</g>
<g>
</g>
<g>
</g>
<g>
</g>
<g>
</g>
<g>
</g>
</svg>
