<?xml version="1.0" encoding="iso-8859-1"?>
<!-- Generator: Adobe Illustrator 16.0.4, SVG Export Plug-In . SVG Version: 6.00 Build 0)  -->
<!DOCTYPE svg PUBLIC "-//W3C//DTD SVG 1.1//EN" "http://www.w3.org/Graphics/SVG/1.1/DTD/svg11.dtd">
<svg version="1.1" id="Layer_1" xmlns="http://www.w3.org/2000/svg" xmlns:xlink="http://www.w3.org/1999/xlink" x="0px" y="0px"
	 width="44px" height="40px" viewBox="0 0 44 40" style="enable-background:new 0 0 44 40;" xml:space="preserve">
<g id="_x31_040-checkmark-toolbar-selected_x40_2x.png">
	<g>
		<path d="M40.071,0c-1.983,0-2.896,1.247-2.896,1.247l-22.78,24.33l-7.689-7.496L6.697,18.09c-0.709-0.697-1.684-1.136-2.769-1.136
			C1.759,16.954,0,18.676,0,20.801c0,0.821,0.267,1.578,0.715,2.202L0.71,23.006l11,15.354c0,0,0.804,1.641,3.219,1.641
			c2.219,0,3.125-1.515,3.125-1.515L43.196,6.177c0,0,0.804-0.796,0.804-2.331C44,1.722,42.241,0,40.071,0z"/>
	</g>
</g>
<g>
</g>
<g>
</g>
<g>
</g>
<g>
</g>
<g>
</g>
<g>
</g>
<g>
</g>
<g>
</g>
<g>
</g>
<g>
</g>
<g>
</g>
<g>
</g>
<g>
</g>
<g>
</g>
<g>
</g>
</svg>
