<?xml version="1.0" encoding="iso-8859-1"?>
<!-- Generator: Adobe Illustrator 16.0.4, SVG Export Plug-In . SVG Version: 6.00 Build 0)  -->
<!DOCTYPE svg PUBLIC "-//W3C//DTD SVG 1.1//EN" "http://www.w3.org/Graphics/SVG/1.1/DTD/svg11.dtd">
<svg version="1.1" id="Layer_1" xmlns="http://www.w3.org/2000/svg" xmlns:xlink="http://www.w3.org/1999/xlink" x="0px" y="0px"
	 width="44px" height="44px" viewBox="0 0 44 44" style="enable-background:new 0 0 44 44;" xml:space="preserve">
<g id="_x31_042-album-toolbar-selected_x40_2x.png">
	<g>
		<path d="M30.08,26.266c-2.71,0.789-4.494,3.102-3.986,5.164s3.117,3.095,5.826,2.305c2.71-0.789,4.495-3.102,3.986-5.164
			C35.398,26.508,32.789,25.476,30.08,26.266z M12.08,28.266c-2.71,0.789-4.494,3.102-3.986,5.164s3.117,3.095,5.826,2.305
			c2.71-0.789,4.495-3.102,3.986-5.164C17.398,28.508,14.789,27.476,12.08,28.266z M42,0H2C0.896,0,0,0.896,0,2v40
			c0,1.104,0.896,2,2,2h40c1.104,0,2-0.896,2-2V2C44,0.896,43.104,0,42,0z M38,29h-0.035c0.078,2.822-2.218,5.666-5.589,6.662
			c-3.78,1.118-7.461-0.512-8.221-3.639c-0.76-3.128,1.688-6.568,5.469-7.686c2.414-0.714,4.778-0.299,6.376,0.902V8.117L20,9.895
			V31h-0.035c0.078,2.822-2.218,5.666-5.589,6.663c-3.78,1.117-7.461-0.513-8.221-3.64c-0.76-3.128,1.688-6.568,5.469-7.686
			c2.414-0.714,4.778-0.299,6.376,0.902V9c0-0.521,0.402-0.935,0.911-0.981l-0.002-0.015l18-2l0.002,0.015
			C36.941,6.016,36.969,6,37,6c0.553,0,1,0.448,1,1V29z"/>
	</g>
</g>
<g>
</g>
<g>
</g>
<g>
</g>
<g>
</g>
<g>
</g>
<g>
</g>
<g>
</g>
<g>
</g>
<g>
</g>
<g>
</g>
<g>
</g>
<g>
</g>
<g>
</g>
<g>
</g>
<g>
</g>
</svg>
