<?xml version="1.0" encoding="iso-8859-1"?>
<!-- Generator: Adobe Illustrator 16.0.4, SVG Export Plug-In . SVG Version: 6.00 Build 0)  -->
<!DOCTYPE svg PUBLIC "-//W3C//DTD SVG 1.1//EN" "http://www.w3.org/Graphics/SVG/1.1/DTD/svg11.dtd">
<svg version="1.1" id="Layer_1" xmlns="http://www.w3.org/2000/svg" xmlns:xlink="http://www.w3.org/1999/xlink" x="0px" y="0px"
	 width="44px" height="32px" viewBox="0 0 44 32" style="enable-background:new 0 0 44 32;" xml:space="preserve">
<g id="_x31_043-album-disc-toolbar-selected_x40_2x.png">
	<g>
		<path d="M9.045,22.117c-1.355,0.397-2.249,1.56-1.994,2.596c0.254,1.037,1.56,1.556,2.915,1.159s2.249-1.56,1.994-2.596
			C11.706,22.239,10.4,21.721,9.045,22.117z M21.045,20.117c-1.355,0.397-2.249,1.56-1.994,2.596
			c0.254,1.037,1.56,1.556,2.915,1.159c1.355-0.397,2.249-1.56,1.994-2.596C23.706,20.239,22.4,19.721,21.045,20.117z M30,0H2
			C0.896,0,0,0.896,0,2v28c0,1.104,0.896,2,2,2h28c1.104,0,2-0.896,2-2V2C32,0.896,31.104,0,30,0z M25.983,6.006v15.001h-0.027
			c0.253,1.989-1.26,4.079-3.563,4.784c-2.436,0.746-4.808-0.342-5.297-2.429s1.088-4.383,3.524-5.128
			c1.224-0.375,2.431-0.285,3.392,0.159V7.179L13.983,8.85v14.163h-0.026c0.249,1.987-1.263,4.074-3.564,4.778
			c-2.436,0.746-4.808-0.342-5.297-2.429s1.088-4.383,3.524-5.128c1.224-0.375,2.431-0.285,3.392,0.159V8.013h0.003
			c0-0.006-0.003-0.011-0.003-0.017c0-0.497,0.36-0.891,0.826-0.971l-0.002-0.012l12-2v0.004c0.055-0.01,0.104-0.033,0.161-0.033
			c0.545,0,0.986,0.449,0.986,1.004c0,0.007-0.004,0.012-0.004,0.018H25.983z M34,2.588v8.97c1.219,1.098,2,2.673,2,4.442
			c0,1.771-0.781,3.345-2,4.443v8.97C39.781,27.69,44,22.341,44,16S39.781,4.31,34,2.588z"/>
	</g>
</g>
<g>
</g>
<g>
</g>
<g>
</g>
<g>
</g>
<g>
</g>
<g>
</g>
<g>
</g>
<g>
</g>
<g>
</g>
<g>
</g>
<g>
</g>
<g>
</g>
<g>
</g>
<g>
</g>
<g>
</g>
</svg>
