<?xml version="1.0" encoding="iso-8859-1"?>
<!-- Generator: Adobe Illustrator 16.0.4, SVG Export Plug-In . SVG Version: 6.00 Build 0)  -->
<!DOCTYPE svg PUBLIC "-//W3C//DTD SVG 1.1//EN" "http://www.w3.org/Graphics/SVG/1.1/DTD/svg11.dtd">
<svg version="1.1" id="Layer_1" xmlns="http://www.w3.org/2000/svg" xmlns:xlink="http://www.w3.org/1999/xlink" x="0px" y="0px"
	 width="43.988px" height="27.966px" viewBox="0 0 43.988 27.966" style="enable-background:new 0 0 43.988 27.966;"
	 xml:space="preserve">
<g id="_x31_044-drama-masks-toolbar-selected_x40_2x.png">
	<g>
		<path d="M42.997,7.012c-8.582,0-12.457,0.017-16.288-1.446c0.168,1.543,0.294,3.317,0.3,5.185
			c0.722-0.137,1.133-0.593,1.149-0.611c0.348-0.429,0.979-0.493,1.406-0.143c0.429,0.349,0.492,0.979,0.143,1.406
			c-0.05,0.062-1.037,1.214-2.745,1.358c-0.076,1.589-0.253,3.005-0.504,4.281c0.526-0.058,1.092-0.057,1.703,0.034
			c0.324,0.047,0.629,0.112,0.917,0.189c3.622,0.971,4.434,4.033,4.469,4.173c0.135,0.535-0.19,1.079-0.727,1.214
			c-0.533,0.132-1.072-0.188-1.212-0.72c-0.031-0.114-0.694-2.426-3.742-2.879c-0.755-0.112-1.396-0.043-1.933,0.124
			c-0.846,2.765-2.109,4.667-3.507,5.974c0.937,1.037,2.102,1.853,3.564,2.331c0.98,0.321,1.962,0.483,2.917,0.483
			c10.367,0,14.652-19.218,14.848-20.011l0.232-0.943H42.997z M37.47,14.756c-0.603,0.595-2.164,1.41-4.189,0.685
			c-2.439-0.873-2.737-3.161-2.749-3.259c-0.065-0.548,0.325-1.046,0.874-1.111c0.549-0.066,1.047,0.326,1.111,0.874
			c0.006,0.034,0.187,1.163,1.438,1.613c1.3,0.465,2.042-0.164,2.123-0.238c0.331-0.302,0.815-0.345,1.186-0.131
			c0.08,0.046,0.154,0.104,0.221,0.175C37.859,13.758,37.857,14.373,37.47,14.756z M23.973,1.115L23.74,0l-0.965,0.632
			C15.962,5.083,13.39,4.98,0.99,4.98H0l0.231,0.943C0.427,6.717,4.71,25.997,15.076,25.997c0.955,0,1.936-0.162,2.916-0.482
			C28.406,22.112,24.158,2.011,23.973,1.115z M7.936,12.3c-0.136,0.427-0.533,0.707-0.961,0.707c-0.092,0-0.186-0.014-0.279-0.041
			c-0.521-0.154-0.827-0.688-0.684-1.213c0.226-0.817,1.17-2.304,3.286-2.688c2.55-0.464,3.951,1.368,4.01,1.447
			c0.331,0.442,0.241,1.069-0.2,1.399c-0.442,0.332-1.07,0.241-1.399-0.201c-0.022-0.026-0.743-0.914-2.053-0.678
			C8.297,11.279,7.969,12.196,7.936,12.3z M15.528,20.903c-0.325,0.038-0.637,0.055-0.935,0.055c-3.75,0-5.327-2.749-5.396-2.874
			c-0.27-0.482-0.096-1.092,0.387-1.361c0.48-0.266,1.085-0.095,1.356,0.381c0.061,0.104,1.3,2.164,4.36,1.812
			c2.999-0.344,3.547-2.956,3.568-3.066c0.106-0.54,0.634-0.895,1.168-0.794c0.54,0.103,0.896,0.617,0.799,1.157
			C20.573,17.654,19.127,20.49,15.528,20.903z M21.408,9.885c-0.069,0.067-0.146,0.122-0.229,0.165
			c-0.379,0.198-0.861,0.135-1.179-0.181c-0.078-0.076-0.794-0.736-2.111-0.326c-1.271,0.397-1.498,1.518-1.505,1.552
			c-0.087,0.545-0.602,0.917-1.146,0.827c-0.545-0.088-0.915-0.602-0.827-1.146c0.016-0.098,0.408-2.371,2.883-3.142
			c2.054-0.64,3.579,0.239,4.157,0.858C21.822,8.891,21.799,9.506,21.408,9.885z"/>
	</g>
</g>
<g>
</g>
<g>
</g>
<g>
</g>
<g>
</g>
<g>
</g>
<g>
</g>
<g>
</g>
<g>
</g>
<g>
</g>
<g>
</g>
<g>
</g>
<g>
</g>
<g>
</g>
<g>
</g>
<g>
</g>
</svg>
