<?xml version="1.0" encoding="iso-8859-1"?>
<!-- Generator: Adobe Illustrator 16.0.4, SVG Export Plug-In . SVG Version: 6.00 Build 0)  -->
<!DOCTYPE svg PUBLIC "-//W3C//DTD SVG 1.1//EN" "http://www.w3.org/Graphics/SVG/1.1/DTD/svg11.dtd">
<svg version="1.1" id="Layer_1" xmlns="http://www.w3.org/2000/svg" xmlns:xlink="http://www.w3.org/1999/xlink" x="0px" y="0px"
	 width="44px" height="43.988px" viewBox="0 0 44 43.988" style="enable-background:new 0 0 44 43.988;" xml:space="preserve">
<g id="_x31_045-clapboard-toolbar-selected_x40_2x.png">
	<g>
		<path d="M44,0.985C44,0.441,43.551,0,42.996,0h-0.001h-0.001c-0.001,0-0.002,0-0.003,0L1.005,6C0.449,6.001,0,6.441,0,6.985
			C0,6.994,0.005,7.001,0.005,7.01H0v7.957h0.004C0.004,14.974,0,14.979,0,14.985c0,0.001,0,0.002,0.001,0.003
			C0.001,14.989,0,14.99,0,14.991c0,0.007,0.004,0.012,0.004,0.019H0v6.965v0.992v0.021v19.996v0.004h0.001
			c0.004,0.552,0.451,0.999,1.004,1h41.991c0.553-0.001,1-0.447,1.003-1H44v-0.004V22.967v-0.992V15.01h-0.005
			c0-0.009,0.005-0.016,0.005-0.024C44,14.441,43.551,14,42.996,14H14.845l28.151-4.022V9.977C43.551,9.977,44,9.535,44,8.991
			c0-0.009-0.005-0.016-0.005-0.024H44V1.01h-0.005C43.995,1.001,44,0.994,44,0.985z M35.986,39.994H8.014v-2.012h27.973V39.994z
			 M43.995,33.988V36H0.005v-2.012H43.995z M12.012,31.988v-8.007h1.972v8.007H12.012z M30.017,31.988v-8.007h1.973v8.007H30.017z
			 M29.431,15.972h7.172l-6.033,6.033h-7.172L29.431,15.972z M18.603,15.972l-6.033,6.033H5.397l6.033-6.033H18.603z M12.667,12.339
			l-7.024-5.03l7.087-1.013l7.025,5.03L12.667,12.339z M30.456,9.797l-7.025-5.029l7.088-1.013l7.024,5.029L30.456,9.797z"/>
	</g>
</g>
<g>
</g>
<g>
</g>
<g>
</g>
<g>
</g>
<g>
</g>
<g>
</g>
<g>
</g>
<g>
</g>
<g>
</g>
<g>
</g>
<g>
</g>
<g>
</g>
<g>
</g>
<g>
</g>
<g>
</g>
</svg>
