<?xml version="1.0" encoding="iso-8859-1"?>
<!-- Generator: Adobe Illustrator 16.0.4, SVG Export Plug-In . SVG Version: 6.00 Build 0)  -->
<!DOCTYPE svg PUBLIC "-//W3C//DTD SVG 1.1//EN" "http://www.w3.org/Graphics/SVG/1.1/DTD/svg11.dtd">
<svg version="1.1" id="Layer_1" xmlns="http://www.w3.org/2000/svg" xmlns:xlink="http://www.w3.org/1999/xlink" x="0px" y="0px"
	 width="44.015px" height="40.029px" viewBox="0 0 44.015 40.029" style="enable-background:new 0 0 44.015 40.029;"
	 xml:space="preserve">
<g id="_x31_047-credit-cards-toolbar-selected_x40_2x.png">
	<g>
		<path d="M43.595,22.789l-7.049-12.215c-0.58-1.006-1.633-1.568-2.716-1.568c-0.532,0-1.071,0.136-1.564,0.421L10.561,21.965
			c-1.498,0.865-2.012,2.782-1.146,4.281l7.049,12.216c0.58,1.006,1.634,1.567,2.717,1.567c0.531,0,1.07-0.135,1.563-0.42
			l21.705-12.538C43.946,26.206,44.46,24.288,43.595,22.789z M32.872,16.531l1.014,1.724l-3.38,1.961l-1.008-1.728L32.872,16.531z
			 M16.497,26.031l11.271-6.54l1.008,1.728l-11.266,6.536L16.497,26.031z M19.636,31.442l-1.014-1.725l5.999-3.479l1.008,1.728
			L19.636,31.442z M27.358,26.962l-1.008-1.728l8.646-5.017l1.014,1.725L27.358,26.962z M9.56,20.232l0.153-0.088l4.373-7.612
			l1.736,0.992l-2.657,4.626l3.895-2.25l3.649-6.353l1.74,0.985l-1.938,3.373L30.32,8.24c-0.238-0.299-0.529-0.562-0.88-0.765
			L17.229,0.422C16.224-0.16,15.03-0.12,14.093,0.421c-0.461,0.267-0.86,0.653-1.145,1.147L0.42,23.278
			c-0.864,1.499-0.351,3.416,1.147,4.281l9.441,5.454l-3.328-5.768C6.267,24.795,7.108,21.648,9.56,20.232z M17.025,7.417
			l1.74,0.985l-1.947,3.389l-1.736-0.992L17.025,7.417z"/>
	</g>
</g>
<g>
</g>
<g>
</g>
<g>
</g>
<g>
</g>
<g>
</g>
<g>
</g>
<g>
</g>
<g>
</g>
<g>
</g>
<g>
</g>
<g>
</g>
<g>
</g>
<g>
</g>
<g>
</g>
<g>
</g>
</svg>
