<?xml version="1.0" encoding="iso-8859-1"?>
<!-- Generator: Adobe Illustrator 16.0.4, SVG Export Plug-In . SVG Version: 6.00 Build 0)  -->
<!DOCTYPE svg PUBLIC "-//W3C//DTD SVG 1.1//EN" "http://www.w3.org/Graphics/SVG/1.1/DTD/svg11.dtd">
<svg version="1.1" id="Layer_1" xmlns="http://www.w3.org/2000/svg" xmlns:xlink="http://www.w3.org/1999/xlink" x="0px" y="0px"
	 width="36.021px" height="44px" viewBox="0 0 36.021 44" style="enable-background:new 0 0 36.021 44;" xml:space="preserve">
<g id="_x31_052-database-toolbar-selected_x40_2x.png">
	<g>
		<path d="M36.021,32c0-0.351-0.109-0.693-0.282-1.027c-0.501,0.358-1.083,0.696-1.726,1.017c0,0.004,0.002,0.007,0.002,0.011
			h-0.005v0.026c-0.058,2.192-7.196,3.965-16,3.965s-15.942-1.772-16-3.965V32H2.006c0-0.004,0.002-0.007,0.002-0.011
			c-0.643-0.32-1.225-0.658-1.726-1.017C0.109,31.307,0,31.649,0,32c0,0.024,0.01,0.047,0.011,0.071v5.87C0.01,37.961,0,37.98,0,38
			c0,3.313,8.063,6,18.011,6s18.011-2.687,18.011-6c0-0.02-0.01-0.039-0.011-0.059v-5.87C36.012,32.047,36.021,32.024,36.021,32z
			 M18.011,11c9.947,0,18.011-2.463,18.011-5.5S27.958,0,18.011,0S0,2.463,0,5.5S8.063,11,18.011,11z M36.021,10
			c0-0.351-0.109-0.692-0.282-1.027c-0.501,0.358-1.083,0.696-1.726,1.017c0,0.004,0.002,0.007,0.002,0.011h-0.005v0.026
			c-0.058,2.192-7.196,3.965-16,3.965s-15.942-1.772-16-3.965V10H2.006c0-0.004,0.002-0.007,0.002-0.011
			c-0.643-0.32-1.225-0.658-1.726-1.017C0.109,9.308,0,9.649,0,10c0,0.024,0.01,0.047,0.011,0.071v5.87C0.01,15.961,0,15.98,0,16
			c0,3.313,8.063,6,18.011,6s18.011-2.687,18.011-6c0-0.02-0.01-0.039-0.011-0.059v-5.87C36.012,10.048,36.021,10.024,36.021,10z
			 M36.021,21c0-0.351-0.109-0.692-0.282-1.027c-0.501,0.358-1.083,0.696-1.726,1.017c0,0.004,0.002,0.007,0.002,0.011h-0.005v0.026
			c-0.058,2.192-7.196,3.965-16,3.965s-15.942-1.772-16-3.965V21H2.006c0-0.004,0.002-0.007,0.002-0.011
			c-0.643-0.32-1.225-0.658-1.726-1.017C0.109,20.308,0,20.649,0,21c0,0.024,0.01,0.047,0.011,0.071v5.87C0.01,26.962,0,26.98,0,27
			c0,3.313,8.063,6,18.011,6s18.011-2.687,18.011-6c0-0.02-0.01-0.039-0.011-0.059v-5.87C36.012,21.048,36.021,21.024,36.021,21z"/>
	</g>
</g>
<g>
</g>
<g>
</g>
<g>
</g>
<g>
</g>
<g>
</g>
<g>
</g>
<g>
</g>
<g>
</g>
<g>
</g>
<g>
</g>
<g>
</g>
<g>
</g>
<g>
</g>
<g>
</g>
<g>
</g>
</svg>
