<?xml version="1.0" encoding="iso-8859-1"?>
<!-- Generator: Adobe Illustrator 16.0.4, SVG Export Plug-In . SVG Version: 6.00 Build 0)  -->
<!DOCTYPE svg PUBLIC "-//W3C//DTD SVG 1.1//EN" "http://www.w3.org/Graphics/SVG/1.1/DTD/svg11.dtd">
<svg version="1.1" id="Layer_1" xmlns="http://www.w3.org/2000/svg" xmlns:xlink="http://www.w3.org/1999/xlink" x="0px" y="0px"
	 width="40px" height="44px" viewBox="0 0 40 44" style="enable-background:new 0 0 40 44;" xml:space="preserve">
<g id="_x31_053-pizza-toolbar-selected_x40_2x.png">
	<g>
		<path d="M3.142,11.52l15.972,31.942l0.011-0.006C19.291,43.775,19.615,44,20,44s0.709-0.225,0.876-0.544l0.011,0.006L36.858,11.52
			C35.026,10.592,29.094,8,20,8S4.974,10.592,3.142,11.52z M12,15c0-1.657,1.343-3,3-3s3,1.343,3,3s-1.343,3-3,3S12,16.657,12,15z
			 M17,25c-1.104,0-2-0.896-2-2s0.896-2,2-2s2,0.896,2,2S18.104,25,17,25z M25,14c1.657,0,3,1.344,3,3c0,1.657-1.343,3-3,3
			s-3-1.343-3-3C22,15.344,23.343,14,25,14z M23,29c0,1.104-0.896,2-2,2s-2-0.896-2-2s0.896-2,2-2S23,27.896,23,29z M39.974,4.871
			c-0.009-0.07-0.018-0.139-0.041-0.205c-0.021-0.061-0.054-0.112-0.086-0.166c-0.033-0.057-0.063-0.11-0.107-0.159
			c-0.046-0.052-0.101-0.091-0.157-0.132c-0.036-0.027-0.062-0.064-0.103-0.087c-0.014-0.007-0.059-0.027-0.086-0.04
			c-0.003-0.002-0.005-0.003-0.007-0.004C38.427,3.622,29.685,0,20,0S1.573,3.622,0.614,4.078C0.611,4.079,0.609,4.08,0.606,4.082
			c-0.027,0.013-0.072,0.033-0.086,0.04c-0.041,0.022-0.066,0.06-0.103,0.087C0.361,4.25,0.307,4.289,0.261,4.341
			C0.217,4.39,0.187,4.443,0.154,4.499C0.121,4.554,0.089,4.605,0.067,4.666C0.044,4.732,0.036,4.8,0.026,4.87
			C0.021,4.915,0,4.954,0,5c0,0.021,0.007,0.038,0.009,0.059c0.002,0.034,0.009,0.066,0.015,0.1
			c0.014,0.074,0.035,0.145,0.064,0.211c0.013,0.03,0.014,0.062,0.028,0.091L0.113,5.462l2.125,4.25C4.253,8.638,10.179,6,20,6
			s15.747,2.638,17.762,3.712l2.125-4.25L39.884,5.46c0.016-0.029,0.017-0.061,0.028-0.091c0.029-0.067,0.051-0.137,0.064-0.21
			c0.006-0.034,0.013-0.066,0.015-0.101C39.993,5.038,40,5.021,40,5C40,4.954,39.979,4.915,39.974,4.871z"/>
	</g>
</g>
<g>
</g>
<g>
</g>
<g>
</g>
<g>
</g>
<g>
</g>
<g>
</g>
<g>
</g>
<g>
</g>
<g>
</g>
<g>
</g>
<g>
</g>
<g>
</g>
<g>
</g>
<g>
</g>
<g>
</g>
</svg>
