<?xml version="1.0" encoding="iso-8859-1"?>
<!-- Generator: Adobe Illustrator 16.0.4, SVG Export Plug-In . SVG Version: 6.00 Build 0)  -->
<!DOCTYPE svg PUBLIC "-//W3C//DTD SVG 1.1//EN" "http://www.w3.org/Graphics/SVG/1.1/DTD/svg11.dtd">
<svg version="1.1" id="Layer_1" xmlns="http://www.w3.org/2000/svg" xmlns:xlink="http://www.w3.org/1999/xlink" x="0px" y="0px"
	 width="32px" height="44px" viewBox="0 0 32 44" style="enable-background:new 0 0 32 44;" xml:space="preserve">
<g id="_x31_054-speaker-toolbar-selected_x40_2x.png">
	<g>
		<path d="M16,8c-2.209,0-4,1.791-4,4s1.791,4,4,4s4-1.791,4-4S18.209,8,16,8z M16,13c-0.553,0-1-0.447-1-1c0-0.552,0.447-1,1-1
			s1,0.448,1,1C17,12.553,16.553,13,16,13z M30,0H2C0.896,0,0,0.896,0,2v40c0,1.104,0.896,2,2,2h28c1.104,0,2-0.896,2-2V2
			C32,0.896,31.104,0,30,0z M16,38c-5.522,0-10-4.478-10-10s4.478-10,10-10c-3.313,0-6-2.687-6-6s2.687-6,6-6s6,2.687,6,6
			s-2.687,6-6,6c5.522,0,10,4.478,10,10S21.522,38,16,38z M16,27c-0.553,0-1,0.447-1,1s0.447,1,1,1s1-0.447,1-1S16.553,27,16,27z
			 M16,20c-4.418,0-8,3.582-8,8s3.582,8,8,8s8-3.582,8-8S20.418,20,16,20z M16,31c-1.657,0-3-1.343-3-3c0-1.656,1.343-3,3-3
			s3,1.344,3,3C19,29.657,17.657,31,16,31z"/>
	</g>
</g>
<g>
</g>
<g>
</g>
<g>
</g>
<g>
</g>
<g>
</g>
<g>
</g>
<g>
</g>
<g>
</g>
<g>
</g>
<g>
</g>
<g>
</g>
<g>
</g>
<g>
</g>
<g>
</g>
<g>
</g>
</svg>
