<?xml version="1.0" encoding="iso-8859-1"?>
<!-- Generator: Adobe Illustrator 16.0.4, SVG Export Plug-In . SVG Version: 6.00 Build 0)  -->
<!DOCTYPE svg PUBLIC "-//W3C//DTD SVG 1.1//EN" "http://www.w3.org/Graphics/SVG/1.1/DTD/svg11.dtd">
<svg version="1.1" id="Layer_1" xmlns="http://www.w3.org/2000/svg" xmlns:xlink="http://www.w3.org/1999/xlink" x="0px" y="0px"
	 width="44px" height="28px" viewBox="0 0 44 28" style="enable-background:new 0 0 44 28;" xml:space="preserve">
<g id="_x31_055-ticket-toolbar-selected_x40_2x.png">
	<g>
		<path d="M42.996,0H1.005C0.449,0.001,0,0.446,0,0.996c0,0,0,0,0,0.001V8.99h0.001C0.003,9.536,0.448,9.978,1,9.981v0.004
			C2.723,10.432,4,12.139,4,14s-1.277,3.568-3,4.015v0.004c-0.552,0.004-0.997,0.445-0.999,0.991H0v7.993c0,0.001,0,0.001,0,0.002
			C0,27.554,0.449,27.999,1.005,28h41.991C43.551,27.999,44,27.554,44,27.005c0-0.001,0-0.001,0-0.002V19.01h-0.001
			c-0.002-0.546-0.447-0.987-0.999-0.991v-0.004c-1.723-0.446-3-2.153-3-4.015s1.277-3.568,3-4.015V9.981
			c0.552-0.004,0.997-0.445,0.999-0.991H44V0.997c0-0.001,0-0.001,0-0.001C44,0.446,43.551,0.001,42.996,0z M36,22
			c0,1.104-0.896,2-2,2H10c-1.104,0-2-0.896-2-2V6c0-1.104,0.896-2,2-2h24c1.104,0,2,0.896,2,2V22z M10,22h15.994V6H10V22z
			 M12.666,12h3.517l1.18-3.544l0.008,0.003C17.459,8.194,17.7,8,17.994,8s0.536,0.194,0.624,0.459l0.008-0.003L19.807,12h3.516
			c0.368,0,0.666,0.299,0.666,0.667c0,0.21-0.104,0.39-0.256,0.513l0.006,0.008l-2.967,2.376l1.185,3.56l-0.016,0.005
			c0.023,0.065,0.05,0.131,0.05,0.205c0,0.368-0.298,0.667-0.666,0.667c-0.157,0-0.296-0.062-0.409-0.154l-0.007,0.008l-2.914-2.333
			l-2.914,2.333l-0.005-0.006C14.963,19.941,14.822,20,14.664,20c-0.368,0-0.666-0.299-0.666-0.667c0-0.073,0.02-0.142,0.042-0.208
			l-0.008-0.002l1.186-3.56l-2.968-2.376l0.006-0.008C12.104,13.057,12,12.877,12,12.667C12,12.299,12.298,12,12.666,12z M28.006,22
			H34V6h-5.994V22z"/>
	</g>
</g>
<g>
</g>
<g>
</g>
<g>
</g>
<g>
</g>
<g>
</g>
<g>
</g>
<g>
</g>
<g>
</g>
<g>
</g>
<g>
</g>
<g>
</g>
<g>
</g>
<g>
</g>
<g>
</g>
<g>
</g>
</svg>
