<?xml version="1.0" encoding="iso-8859-1"?>
<!-- Generator: Adobe Illustrator 16.0.4, SVG Export Plug-In . SVG Version: 6.00 Build 0)  -->
<!DOCTYPE svg PUBLIC "-//W3C//DTD SVG 1.1//EN" "http://www.w3.org/Graphics/SVG/1.1/DTD/svg11.dtd">
<svg version="1.1" id="Layer_1" xmlns="http://www.w3.org/2000/svg" xmlns:xlink="http://www.w3.org/1999/xlink" x="0px" y="0px"
	 width="36px" height="44px" viewBox="0 0 36 44" style="enable-background:new 0 0 36 44;" xml:space="preserve">
<g id="_x31_058-fire-hydrant-toolbar-selected_x40_2x.png">
	<g>
		<path d="M6,16H4c-1.104,0-2,0.896-2,2v3H1c-0.553,0-1,0.448-1,1c0,0.553,0.447,1,1,1h1v3c0,1.104,0.896,2,2,2h2V16z M21.782,2.755
			C21.257,1.159,19.771,0,18,0s-3.257,1.159-3.782,2.755C11.202,4.004,8.952,6.709,8.256,10h19.488
			C27.048,6.709,24.798,4.004,21.782,2.755z M35,21h-1v-3c0-1.104-0.896-2-2-2h-2v12h2c1.104,0,2-0.896,2-2v-3h1
			c0.553,0,1-0.447,1-1C36,21.448,35.553,21,35,21z M29,42h-1V29V15v-3h-2H10H8v2v2v12v14H7c-0.553,0-1,0.447-1,1s0.447,1,1,1h22
			c0.553,0,1-0.447,1-1S29.553,42,29,42z M18,28c-3.313,0-6-2.687-6-6s2.687-6,6-6s6,2.687,6,6S21.313,28,18,28z M18,18
			c-2.209,0-4,1.791-4,4s1.791,4,4,4s4-1.791,4-4S20.209,18,18,18z M18,23c-0.553,0-1-0.447-1-1c0-0.552,0.447-1,1-1s1,0.448,1,1
			C19,22.553,18.553,23,18,23z"/>
	</g>
</g>
<g>
</g>
<g>
</g>
<g>
</g>
<g>
</g>
<g>
</g>
<g>
</g>
<g>
</g>
<g>
</g>
<g>
</g>
<g>
</g>
<g>
</g>
<g>
</g>
<g>
</g>
<g>
</g>
<g>
</g>
</svg>
