<?xml version="1.0" encoding="iso-8859-1"?>
<!-- Generator: Adobe Illustrator 16.0.4, SVG Export Plug-In . SVG Version: 6.00 Build 0)  -->
<!DOCTYPE svg PUBLIC "-//W3C//DTD SVG 1.1//EN" "http://www.w3.org/Graphics/SVG/1.1/DTD/svg11.dtd">
<svg version="1.1" id="Layer_1" xmlns="http://www.w3.org/2000/svg" xmlns:xlink="http://www.w3.org/1999/xlink" x="0px" y="0px"
	 width="44px" height="40px" viewBox="0 0 44 40" style="enable-background:new 0 0 44 40;" xml:space="preserve">
<g id="_x31_060-switches-toolbar-selected_x40_2x.png">
	<g>
		<path d="M40,0H4C1.791,0,0,1.791,0,4v32c0,2.209,1.791,4,4,4h36c2.209,0,4-1.791,4-4V4C44,1.791,42.209,0,40,0z M20,32H6V8h14V32z
			 M38,32H24V8h14V32z M36,10H26v20h10V10z M34,28h-6v-8h6V28z M18,10H8v20h10V10z M16,20h-6v-8h6V20z"/>
	</g>
</g>
<g>
</g>
<g>
</g>
<g>
</g>
<g>
</g>
<g>
</g>
<g>
</g>
<g>
</g>
<g>
</g>
<g>
</g>
<g>
</g>
<g>
</g>
<g>
</g>
<g>
</g>
<g>
</g>
<g>
</g>
</svg>
