<?xml version="1.0" encoding="iso-8859-1"?>
<!-- Generator: Adobe Illustrator 16.0.4, SVG Export Plug-In . SVG Version: 6.00 Build 0)  -->
<!DOCTYPE svg PUBLIC "-//W3C//DTD SVG 1.1//EN" "http://www.w3.org/Graphics/SVG/1.1/DTD/svg11.dtd">
<svg version="1.1" id="Layer_1" xmlns="http://www.w3.org/2000/svg" xmlns:xlink="http://www.w3.org/1999/xlink" x="0px" y="0px"
	 width="44px" height="38px" viewBox="0 0 44 38" style="enable-background:new 0 0 44 38;" xml:space="preserve">
<g id="_x31_062-layers-2-toolbar-selected_x40_2x.png">
	<g>
		<path d="M43.488,24.146l0.008-0.014l-1.715-0.979L23.488,33.604l-0.006-0.011C23.043,33.845,22.542,34,22,34
			s-1.043-0.155-1.482-0.406l-0.006,0.011L2.219,23.152l-1.715,0.979l0.008,0.014C0.211,24.318,0,24.629,0,25
			s0.211,0.682,0.512,0.854l-0.008,0.014l21,12l0.008-0.014C21.658,37.938,21.819,38,22,38s0.342-0.062,0.488-0.146l0.008,0.014
			l21-12l-0.008-0.014C43.789,25.682,44,25.371,44,25S43.789,24.318,43.488,24.146z M0.512,13.854l-0.008,0.014l21,12l0.008-0.014
			C21.658,25.938,21.819,26,22,26s0.342-0.062,0.488-0.146l0.008,0.014l21-12l-0.008-0.014C43.789,13.682,44,13.371,44,13
			s-0.211-0.682-0.512-0.854l0.008-0.014l-21-12l-0.008,0.014C22.342,0.062,22.181,0,22,0s-0.342,0.062-0.488,0.146l-0.008-0.014
			l-21,12l0.008,0.014C0.211,12.318,0,12.629,0,13S0.211,13.682,0.512,13.854z M43.488,18.146l0.008-0.014l-1.715-0.979
			L23.488,27.604l-0.006-0.011C23.043,27.845,22.542,28,22,28s-1.043-0.155-1.482-0.406l-0.006,0.011L2.219,17.152l-1.715,0.979
			l0.008,0.014C0.211,18.318,0,18.629,0,19s0.211,0.683,0.512,0.854l-0.008,0.014l21,12l0.008-0.014C21.658,31.938,21.819,32,22,32
			s0.342-0.062,0.488-0.146l0.008,0.014l21-12l-0.008-0.014C43.789,19.683,44,19.371,44,19S43.789,18.318,43.488,18.146z"/>
	</g>
</g>
<g>
</g>
<g>
</g>
<g>
</g>
<g>
</g>
<g>
</g>
<g>
</g>
<g>
</g>
<g>
</g>
<g>
</g>
<g>
</g>
<g>
</g>
<g>
</g>
<g>
</g>
<g>
</g>
<g>
</g>
</svg>
