<?xml version="1.0" encoding="iso-8859-1"?>
<!-- Generator: Adobe Illustrator 16.0.4, SVG Export Plug-In . SVG Version: 6.00 Build 0)  -->
<!DOCTYPE svg PUBLIC "-//W3C//DTD SVG 1.1//EN" "http://www.w3.org/Graphics/SVG/1.1/DTD/svg11.dtd">
<svg version="1.1" id="Layer_1" xmlns="http://www.w3.org/2000/svg" xmlns:xlink="http://www.w3.org/1999/xlink" x="0px" y="0px"
	 width="44px" height="28px" viewBox="0 0 44 28" style="enable-background:new 0 0 44 28;" xml:space="preserve">
<g id="_x31_063-layers-3-toolbar-selected_x40_2x.png">
	<g>
		<path d="M0.558,8.886L0.553,8.895l14,7l0.005-0.009C14.692,15.953,14.839,16,15,16c0.073,0,0.137-0.026,0.205-0.041l0.005,0.019
			l28-6l-0.005-0.019C43.655,9.861,44,9.479,44,9c0-0.391-0.23-0.721-0.558-0.886l0.005-0.009l-14-8l-0.005,0.009
			C29.308,0.047,29.161,0,29,0c-0.073,0-0.137,0.027-0.205,0.042l-0.005-0.02l-28,7l0.005,0.019C0.345,7.139,0,7.521,0,8
			C0,8.391,0.23,8.721,0.558,8.886z M43.442,20.115l0.005-0.01l-2.715-1.551l-25.104,5.379c-0.085,0.018-0.172,0.03-0.259,0.037
			C15.265,23.987,15.139,24,15,24c-0.353,0-0.702-0.065-1.044-0.196c-0.101-0.031-0.2-0.071-0.298-0.12L3.154,18.432L0.79,19.022
			l0.005,0.019C0.345,19.139,0,19.521,0,20c0,0.391,0.23,0.721,0.558,0.886l-0.005,0.009l14,7l0.005-0.009
			C14.692,27.953,14.839,28,15,28c0.073,0,0.137-0.026,0.205-0.041l0.005,0.019l28-6l-0.005-0.019C43.655,21.861,44,21.479,44,21
			C44,20.609,43.77,20.279,43.442,20.115z M43.442,14.115l0.005-0.01l-2.715-1.551l-25.104,5.379
			c-0.085,0.018-0.172,0.03-0.259,0.037C15.265,17.987,15.139,18,15,18c-0.353,0-0.702-0.065-1.044-0.196
			c-0.101-0.031-0.2-0.071-0.298-0.12L3.154,12.432L0.79,13.022l0.005,0.019C0.345,13.139,0,13.521,0,14
			c0,0.391,0.23,0.721,0.558,0.886l-0.005,0.009l14,7l0.005-0.009C14.692,21.953,14.839,22,15,22c0.073,0,0.137-0.026,0.205-0.041
			l0.005,0.019l28-6l-0.005-0.019C43.655,15.861,44,15.479,44,15C44,14.609,43.77,14.279,43.442,14.115z"/>
	</g>
</g>
<g>
</g>
<g>
</g>
<g>
</g>
<g>
</g>
<g>
</g>
<g>
</g>
<g>
</g>
<g>
</g>
<g>
</g>
<g>
</g>
<g>
</g>
<g>
</g>
<g>
</g>
<g>
</g>
<g>
</g>
</svg>
