<?xml version="1.0" encoding="iso-8859-1"?>
<!-- Generator: Adobe Illustrator 16.0.4, SVG Export Plug-In . SVG Version: 6.00 Build 0)  -->
<!DOCTYPE svg PUBLIC "-//W3C//DTD SVG 1.1//EN" "http://www.w3.org/Graphics/SVG/1.1/DTD/svg11.dtd">
<svg version="1.1" id="Layer_1" xmlns="http://www.w3.org/2000/svg" xmlns:xlink="http://www.w3.org/1999/xlink" x="0px" y="0px"
	 width="44px" height="40px" viewBox="0 0 44 40" style="enable-background:new 0 0 44 40;" xml:space="preserve">
<g id="_x31_064-layers-4-toolbar-selected_x40_2x.png">
	<g>
		<path d="M0.606,10.919l0.003,0.002c0.001,0,0.002,0.001,0.003,0.001l20.994,8.997v-0.001C21.728,19.971,21.86,20,22,20
			s0.272-0.029,0.394-0.082v0.001l20.994-8.997c0.001,0,0.002-0.001,0.003-0.001l0.003-0.002C43.75,10.766,44,10.412,44,10
			s-0.25-0.766-0.606-0.918V9.081l-0.003-0.002c-0.001,0-0.002,0-0.003-0.001L22.394,0.081v0.001C22.272,0.029,22.14,0,22,0
			s-0.272,0.029-0.394,0.082V0.081L0.612,9.078C0.611,9.079,0.61,9.079,0.609,9.079L0.606,9.081v0.001C0.25,9.234,0,9.588,0,10
			S0.25,10.766,0.606,10.919z M43.394,29.082L43.394,29.082l-0.003-0.003c-0.001,0-0.002,0-0.003-0.001l-6.977-2.99l-13.231,5.67
			C22.804,31.919,22.407,32,22,32c-0.406,0-0.802-0.081-1.182-0.243L7.59,26.088l-6.978,2.99c-0.001,0.001-0.002,0.001-0.003,0.001
			l-0.003,0.002v0.001C0.25,29.234,0,29.588,0,30s0.25,0.766,0.606,0.918v0.001l0.003,0.002c0.001,0,0.002,0.001,0.003,0.001
			l20.994,8.997C21.728,39.971,21.86,40,22,40s0.272-0.029,0.394-0.081l20.994-8.997c0.001,0,0.002-0.001,0.003-0.001l0.003-0.002
			v-0.001C43.75,30.766,44,30.412,44,30S43.75,29.234,43.394,29.082z M43.394,19.082L43.394,19.082l-0.003-0.003
			c-0.001,0-0.002,0-0.003-0.001l-6.978-2.99l-13.23,5.67C22.804,21.919,22.407,22,22,22c-0.406,0-0.802-0.081-1.182-0.243
			L7.59,16.088l-6.978,2.99c-0.001,0.001-0.002,0.001-0.003,0.001l-0.003,0.002v0.001C0.25,19.234,0,19.588,0,20
			s0.25,0.766,0.606,0.918v0.001l0.003,0.002c0.001,0,0.002,0.001,0.003,0.001l20.994,8.997v-0.001C21.728,29.971,21.86,30,22,30
			s0.272-0.029,0.394-0.082v0.001l20.994-8.997c0.001,0,0.002-0.001,0.003-0.001l0.003-0.002v-0.001C43.75,20.766,44,20.412,44,20
			S43.75,19.234,43.394,19.082z"/>
	</g>
</g>
<g>
</g>
<g>
</g>
<g>
</g>
<g>
</g>
<g>
</g>
<g>
</g>
<g>
</g>
<g>
</g>
<g>
</g>
<g>
</g>
<g>
</g>
<g>
</g>
<g>
</g>
<g>
</g>
<g>
</g>
</svg>
