<?xml version="1.0" encoding="iso-8859-1"?>
<!-- Generator: Adobe Illustrator 16.0.4, SVG Export Plug-In . SVG Version: 6.00 Build 0)  -->
<!DOCTYPE svg PUBLIC "-//W3C//DTD SVG 1.1//EN" "http://www.w3.org/Graphics/SVG/1.1/DTD/svg11.dtd">
<svg version="1.1" id="Layer_1" xmlns="http://www.w3.org/2000/svg" xmlns:xlink="http://www.w3.org/1999/xlink" x="0px" y="0px"
	 width="44px" height="32px" viewBox="0 0 44 32" style="enable-background:new 0 0 44 32;" xml:space="preserve">
<g id="_x31_066-fried-egg-toolbar-selected_x40_2x.png">
	<g>
		<path d="M14.933,0c-0.323,0-0.638,0.009-0.941,0.025C8.181,0.354,4.324,2.861,2.158,6.789C0.49,9.814-0.176,13.681,0.039,18.045
			c0.193,3.917,1.026,10.281,4.452,12.724C5.715,31.642,6.92,32,8.092,32c2.34,0,4.543-1.557,6.479-3.177
			C16.781,26.973,19.437,26,22.146,26c1.221,0,2.454,0.197,3.662,0.602c3.053,1.021,6.275,3.322,9.611,3.322
			c0.913,0,1.836-0.154,2.765-0.525C42.484,27.683,44,23.166,44,18.803C44,8.017,24.871,0,14.933,0z M14,20c-3.313,0-6-2.687-6-6
			s2.687-6,6-6s6,2.687,6,6S17.313,20,14,20z"/>
	</g>
</g>
<g>
</g>
<g>
</g>
<g>
</g>
<g>
</g>
<g>
</g>
<g>
</g>
<g>
</g>
<g>
</g>
<g>
</g>
<g>
</g>
<g>
</g>
<g>
</g>
<g>
</g>
<g>
</g>
<g>
</g>
</svg>
