<?xml version="1.0" encoding="iso-8859-1"?>
<!-- Generator: Adobe Illustrator 16.0.4, SVG Export Plug-In . SVG Version: 6.00 Build 0)  -->
<!DOCTYPE svg PUBLIC "-//W3C//DTD SVG 1.1//EN" "http://www.w3.org/Graphics/SVG/1.1/DTD/svg11.dtd">
<svg version="1.1" id="Layer_1" xmlns="http://www.w3.org/2000/svg" xmlns:xlink="http://www.w3.org/1999/xlink" x="0px" y="0px"
	 width="36px" height="43.992px" viewBox="0 0 36 43.992" style="enable-background:new 0 0 36 43.992;" xml:space="preserve">
<g id="_x31_071-target-dummy-toolbar-selected_x40_2x.png">
	<g>
		<path d="M18,9.986c0.557,0,1.007-0.445,1.007-0.995S18.557,7.995,18,7.995c-0.556,0-1.007,0.446-1.007,0.996
			S17.444,9.986,18,9.986z M18,31.996c-0.551,0-0.998,0.446-0.998,0.996s0.447,0.996,0.998,0.996s0.997-0.446,0.997-0.996
			S18.551,31.996,18,31.996z M18,27.988c-2.768,0-5.011,2.24-5.011,5.004s2.243,5.004,5.011,5.004s5.011-2.24,5.011-5.004
			S20.768,27.988,18,27.988z M18,35.989c-1.658,0-3.002-1.342-3.002-2.997s1.344-2.997,3.002-2.997c1.658,0,3.002,1.342,3.002,2.997
			S19.658,35.989,18,35.989z M23.218,22.135c1.021-1.199,2.55-3.447,3.881-7.654c0.298-0.327,0.907-1.105,0.907-1.97
			c0-0.902-0.662-1.768-1.521-2.151c0.44-2.96-0.718-4.115-1.261-4.557C22.997,0.414,20.613,0,19.436,0
			c-0.215,0-0.389,0.014-0.516,0.014c-1.026,0-1.924,0.459-2.581,0.725c-0.18-0.047-0.361-0.067-0.542-0.067
			c-1.827,0-3.669,2.157-4.144,2.755c-2.661,2.588-2.565,5.538-2.222,6.973c-0.818,0.4-1.438,1.238-1.438,2.112
			c0,0.864,0.609,1.643,0.907,1.97c1.331,4.207,2.86,6.455,3.881,7.654C6.985,23.228,0,28.614,0,30.583v0.396v12.006v0.003h0
			c0,0.554,0.45,1.003,1.005,1.004h33.988c0.556-0.001,1.005-0.45,1.006-1.004v-0.003V30.979v-0.396
			C36,28.614,29.015,23.228,23.218,22.135z M18,5.988c1.652,0,2.992,1.344,2.992,3.002s-1.34,3.002-2.992,3.002
			s-2.992-1.344-2.992-3.002S16.348,5.988,18,5.988z M18,40.004c-3.863,0-6.995-3.139-6.995-7.012c0-3.872,3.132-7.012,6.995-7.012
			s6.995,3.14,6.995,7.012C24.995,36.865,21.863,40.004,18,40.004z"/>
	</g>
</g>
<g>
</g>
<g>
</g>
<g>
</g>
<g>
</g>
<g>
</g>
<g>
</g>
<g>
</g>
<g>
</g>
<g>
</g>
<g>
</g>
<g>
</g>
<g>
</g>
<g>
</g>
<g>
</g>
<g>
</g>
</svg>
