<?xml version="1.0" encoding="iso-8859-1"?>
<!-- Generator: Adobe Illustrator 16.0.4, SVG Export Plug-In . SVG Version: 6.00 Build 0)  -->
<!DOCTYPE svg PUBLIC "-//W3C//DTD SVG 1.1//EN" "http://www.w3.org/Graphics/SVG/1.1/DTD/svg11.dtd">
<svg version="1.1" id="Layer_1" xmlns="http://www.w3.org/2000/svg" xmlns:xlink="http://www.w3.org/1999/xlink" x="0px" y="0px"
	 width="44px" height="36px" viewBox="0 0 44 36" style="enable-background:new 0 0 44 36;" xml:space="preserve">
<g id="_x31_072-terminal-toolbar-selected_x40_2x.png">
	<g>
		<path d="M40,0H4C1.791,0,0,1.791,0,4v28c0,2.209,1.791,4,4,4h36c2.209,0,4-1.791,4-4V4C44,1.791,42.209,0,40,0z M17.57,15.799
			l0.011,0.015l-8,6L9.57,21.799C9.407,21.916,9.217,22,9,22c-0.552,0-1-0.447-1-1c0-0.335,0.176-0.617,0.43-0.799l-0.011-0.015
			l6.921-5.191L8.504,9.868l0.008-0.014C8.212,9.682,8,9.371,8,9c0-0.552,0.448-1,1-1c0.182,0,0.342,0.062,0.488,0.146l0.008-0.014
			l8,6l-0.008,0.014C17.789,14.318,18,14.629,18,15C18,15.336,17.824,15.618,17.57,15.799z M26,26h-6c-0.553,0-1-0.447-1-1
			s0.447-1,1-1h6c0.553,0,1,0.447,1,1S26.553,26,26,26z"/>
	</g>
</g>
<g>
</g>
<g>
</g>
<g>
</g>
<g>
</g>
<g>
</g>
<g>
</g>
<g>
</g>
<g>
</g>
<g>
</g>
<g>
</g>
<g>
</g>
<g>
</g>
<g>
</g>
<g>
</g>
<g>
</g>
</svg>
