<?xml version="1.0" encoding="iso-8859-1"?>
<!-- Generator: Adobe Illustrator 16.0.4, SVG Export Plug-In . SVG Version: 6.00 Build 0)  -->
<!DOCTYPE svg PUBLIC "-//W3C//DTD SVG 1.1//EN" "http://www.w3.org/Graphics/SVG/1.1/DTD/svg11.dtd">
<svg version="1.1" id="Layer_1" xmlns="http://www.w3.org/2000/svg" xmlns:xlink="http://www.w3.org/1999/xlink" x="0px" y="0px"
	 width="44px" height="36px" viewBox="0 0 44 36" style="enable-background:new 0 0 44 36;" xml:space="preserve">
<g id="_x31_080-film-strip-toolbar-selected_x40_2x.png">
	<g>
		<path d="M42,0H2C0.896,0,0,0.896,0,2v32c0,1.104,0.896,2,2,2h25c0.553,0,1-0.447,1-1c0-8.284,6.716-15,15-15c0.553,0,1-0.447,1-1
			V2C44,0.896,43.104,0,42,0z M10,30H6v-4h4V30z M10,10H6V6h4V10z M19,30h-4v-4h4V30z M19,10h-4V6h4V10z M29,10h-4V6h4V10z M38,10
			h-4V6h4V10z"/>
	</g>
</g>
<g>
</g>
<g>
</g>
<g>
</g>
<g>
</g>
<g>
</g>
<g>
</g>
<g>
</g>
<g>
</g>
<g>
</g>
<g>
</g>
<g>
</g>
<g>
</g>
<g>
</g>
<g>
</g>
<g>
</g>
</svg>
