<?xml version="1.0" encoding="iso-8859-1"?>
<!-- Generator: Adobe Illustrator 16.0.4, SVG Export Plug-In . SVG Version: 6.00 Build 0)  -->
<!DOCTYPE svg PUBLIC "-//W3C//DTD SVG 1.1//EN" "http://www.w3.org/Graphics/SVG/1.1/DTD/svg11.dtd">
<svg version="1.1" id="Layer_1" xmlns="http://www.w3.org/2000/svg" xmlns:xlink="http://www.w3.org/1999/xlink" x="0px" y="0px"
	 width="44px" height="36px" viewBox="0 0 44 36" style="enable-background:new 0 0 44 36;" xml:space="preserve">
<g id="_x31_083-baseball-field-toolbar-selected_x40_2x.png">
	<g>
		<path d="M44,16.5C44,15,35.722,0,22,0S0,15,0,16.5c0,0.213,0.096,0.402,0.244,0.54l-0.002,0.002l4.016,3.778L19.199,7.2l0.7,0.699
			l-0.722-0.722c1.562-1.555,4.086-1.556,5.642,0c0,0.001,0.001,0.001,0.001,0.002l-0.004,0.004l14.928,13.635l4.014-3.776
			l-0.002-0.002C43.904,16.902,44,16.713,44,16.5z M24.006,10c0,1.104-0.895,2-1.998,2s-1.998-0.896-1.998-2
			c0-0.55,0.222-1.048,0.581-1.409l-0.01-0.01L5.716,22.192l13.507,12.709c0.517,0.494,1.181,0.846,1.92,1.003
			c0.018,0.004,0.032,0.012,0.05,0.015c0.215,0.043,0.438,0.06,0.664,0.067C21.902,35.988,21.946,36,21.993,36H22
			c1.085,0,2.066-0.42,2.777-1.099l13.508-12.71l-14.77-13.49C23.817,9.052,24.006,9.502,24.006,10z M10.156,22.844
			c-1.104,0-1.998-0.896-1.998-2s0.895-2,1.998-2s1.998,0.896,1.998,2S11.26,22.844,10.156,22.844z M22.008,34
			c-1.104,0-1.998-0.896-1.998-2s0.895-2,1.998-2s1.998,0.896,1.998,2S23.111,34,22.008,34z M33.834,18.851
			c1.104,0,1.998,0.896,1.998,2s-0.895,2-1.998,2s-1.998-0.896-1.998-2S32.73,18.851,33.834,18.851z"/>
	</g>
</g>
<g>
</g>
<g>
</g>
<g>
</g>
<g>
</g>
<g>
</g>
<g>
</g>
<g>
</g>
<g>
</g>
<g>
</g>
<g>
</g>
<g>
</g>
<g>
</g>
<g>
</g>
<g>
</g>
<g>
</g>
</svg>
