<?xml version="1.0" encoding="iso-8859-1"?>
<!-- Generator: Adobe Illustrator 16.0.4, SVG Export Plug-In . SVG Version: 6.00 Build 0)  -->
<!DOCTYPE svg PUBLIC "-//W3C//DTD SVG 1.1//EN" "http://www.w3.org/Graphics/SVG/1.1/DTD/svg11.dtd">
<svg version="1.1" id="Layer_1" xmlns="http://www.w3.org/2000/svg" xmlns:xlink="http://www.w3.org/1999/xlink" x="0px" y="0px"
	 width="43.9px" height="43.9px" viewBox="0 0 43.9 43.9" style="enable-background:new 0 0 43.9 43.9;" xml:space="preserve">
<g id="_x31_084-baseball-toolbar-selected_x40_2x.png">
	<g>
		<path d="M21.027,36.773l0.985,0.264c0.405-1.289,0.933-2.523,1.548-3.703l-0.894-0.517c-0.479-0.276-0.643-0.888-0.366-1.366
			c0.275-0.479,0.888-0.643,1.366-0.366l0.9,0.521c0.723-1.133,1.543-2.191,2.447-3.177l-0.741-0.741
			c-0.391-0.391-0.391-1.023,0-1.414s1.023-0.391,1.414,0l0.741,0.741c0.985-0.904,2.044-1.725,3.177-2.447l-0.521-0.9
			c-0.276-0.479-0.112-1.09,0.366-1.366s1.09-0.112,1.366,0.366l0.517,0.894c1.18-0.615,2.414-1.143,3.703-1.548l-0.264-0.985
			c-0.143-0.533,0.174-1.081,0.707-1.225c0.534-0.143,1.082,0.174,1.225,0.707l0.268,0.997c1.589-0.351,3.234-0.55,4.928-0.553
			C43.391,9.603,34.298,0.511,22.949,0c-0.004,1.694-0.202,3.341-0.554,4.93l0.997,0.268c0.533,0.143,0.85,0.691,0.707,1.225
			c-0.144,0.533-0.691,0.85-1.225,0.707L21.89,6.865c-0.405,1.289-0.932,2.523-1.548,3.704l0.894,0.516
			c0.479,0.276,0.643,0.888,0.366,1.366s-0.888,0.643-1.366,0.366l-0.9-0.521c-0.723,1.133-1.543,2.191-2.447,3.177l0.741,0.741
			c0.391,0.391,0.391,1.023,0,1.414s-1.023,0.391-1.414,0l-0.741-0.741c-0.985,0.904-2.044,1.725-3.177,2.447l0.521,0.901
			c0.276,0.478,0.112,1.09-0.366,1.365c-0.479,0.276-1.09,0.112-1.366-0.365l-0.516-0.895c-1.181,0.616-2.415,1.143-3.704,1.548
			l0.264,0.985c0.143,0.533-0.174,1.081-0.707,1.225c-0.533,0.143-1.082-0.174-1.225-0.707L4.93,22.396
			c-1.589,0.352-3.235,0.55-4.93,0.554C0.511,34.298,9.603,43.391,20.954,43.9c0.003-1.693,0.201-3.339,0.553-4.928l-0.997-0.268
			c-0.533-0.143-0.85-0.69-0.707-1.225C19.946,36.947,20.494,36.631,21.027,36.773z M1.005,20.897
			c1.162-0.059,2.297-0.218,3.4-0.458l-0.243-0.911c-0.144-0.533,0.173-1.081,0.707-1.225c0.533-0.143,1.081,0.174,1.225,0.707
			l0.245,0.916c1.116-0.359,2.176-0.835,3.202-1.366l-0.456-0.789c-0.276-0.479-0.112-1.09,0.366-1.365
			c0.479-0.276,1.09-0.113,1.366,0.365l0.453,0.785c0.978-0.631,1.916-1.317,2.774-2.098l-0.659-0.658
			c-0.39-0.391-0.39-1.023,0-1.414c0.391-0.391,1.024-0.391,1.415,0l0.658,0.658c0.779-0.858,1.466-1.797,2.098-2.774l-0.785-0.453
			c-0.479-0.276-0.642-0.888-0.366-1.366c0.276-0.479,0.888-0.643,1.366-0.366L18.56,9.54c0.532-1.025,1.007-2.085,1.366-3.201
			l-0.915-0.245c-0.533-0.144-0.85-0.691-0.707-1.225c0.143-0.534,0.691-0.851,1.225-0.707l0.91,0.243
			c0.24-1.104,0.399-2.238,0.457-3.4c0.001,0,0.002-0.001,0.003-0.001c0.017-0.334,0.05-0.664,0.05-1.002
			C9.602,0.515,0.515,9.602,0.002,20.949C0.34,20.948,0.67,20.915,1.005,20.897C1.005,20.897,1.005,20.897,1.005,20.897z
			 M42.898,23.005c-1.163,0.059-2.298,0.218-3.401,0.458l0.244,0.911c0.143,0.533-0.174,1.082-0.708,1.225
			c-0.533,0.144-1.081-0.174-1.225-0.707l-0.245-0.916c-1.116,0.359-2.176,0.835-3.201,1.366l0.455,0.789
			c0.276,0.479,0.112,1.09-0.366,1.366c-0.479,0.275-1.09,0.112-1.366-0.366l-0.453-0.785c-0.978,0.631-1.916,1.318-2.774,2.098
			l0.659,0.658c0.39,0.391,0.39,1.024,0,1.415c-0.391,0.39-1.024,0.39-1.415,0l-0.658-0.659c-0.779,0.858-1.466,1.797-2.098,2.774
			l0.785,0.453c0.479,0.276,0.642,0.888,0.366,1.366c-0.276,0.479-0.888,0.643-1.366,0.366l-0.788-0.455
			c-0.532,1.025-1.007,2.085-1.366,3.201l0.915,0.245c0.533,0.144,0.85,0.691,0.707,1.225c-0.143,0.534-0.691,0.851-1.225,0.707
			l-0.91-0.243c-0.24,1.104-0.399,2.238-0.457,3.401h-0.003c-0.017,0.334-0.05,0.664-0.05,1.002
			c11.347-0.513,20.434-9.6,20.946-20.946C43.562,22.955,43.232,22.988,42.898,23.005C42.898,23.005,42.898,23.005,42.898,23.005z"
			/>
	</g>
</g>
<g>
</g>
<g>
</g>
<g>
</g>
<g>
</g>
<g>
</g>
<g>
</g>
<g>
</g>
<g>
</g>
<g>
</g>
<g>
</g>
<g>
</g>
<g>
</g>
<g>
</g>
<g>
</g>
<g>
</g>
</svg>
