<?xml version="1.0" encoding="iso-8859-1"?>
<!-- Generator: Adobe Illustrator 16.0.4, SVG Export Plug-In . SVG Version: 6.00 Build 0)  -->
<!DOCTYPE svg PUBLIC "-//W3C//DTD SVG 1.1//EN" "http://www.w3.org/Graphics/SVG/1.1/DTD/svg11.dtd">
<svg version="1.1" id="Layer_1" xmlns="http://www.w3.org/2000/svg" xmlns:xlink="http://www.w3.org/1999/xlink" x="0px" y="0px"
	 width="44.006px" height="43.992px" viewBox="0 0 44.006 43.992" style="enable-background:new 0 0 44.006 43.992;"
	 xml:space="preserve">
<g id="_x31_085-football-toolbar-selected_x40_2x.png">
	<g>
		<path d="M1.887,42.107c1.123,1.122,4.125,1.885,8.037,1.885c1.859,0,3.927-0.179,6.094-0.566L0.567,27.975
			C-0.647,34.701,0.226,40.449,1.887,42.107z M9.775,9.801c-4.683,4.675-7.377,10.45-8.709,15.845L18.35,42.93
			c5.412-1.328,11.207-4.014,15.896-8.696c4.653-4.645,7.311-10.476,8.645-15.935L25.734,1.142
			C20.26,2.493,14.416,5.167,9.775,9.801z M29.295,12.289c0.181-0.181,0.431-0.293,0.707-0.293c0.553,0,1,0.448,1,1
			c0,0.276-0.112,0.526-0.293,0.707l-2.793,2.793l2.536,2.535c0.39,0.391,0.39,1.024,0,1.415c-0.391,0.39-1.024,0.39-1.415,0
			l-2.535-2.536l-3.586,3.586l2.536,2.535c0.39,0.391,0.39,1.024,0,1.415c-0.391,0.39-1.024,0.39-1.415,0l-2.535-2.536l-3.586,3.586
			l2.536,2.535c0.39,0.391,0.39,1.024,0,1.415c-0.391,0.39-1.024,0.39-1.415,0l-2.535-2.536l-2.793,2.793
			c-0.181,0.182-0.431,0.293-0.707,0.293c-0.552,0-1-0.447-1-1c0-0.276,0.112-0.526,0.293-0.707l2.793-2.793l-2.535-2.535
			c-0.391-0.391-0.391-1.024,0-1.414c0.39-0.391,1.023-0.391,1.414,0l2.535,2.535l3.586-3.586l-2.535-2.535
			c-0.391-0.391-0.391-1.024,0-1.415c0.39-0.39,1.023-0.39,1.414,0l2.535,2.536l3.586-3.586l-2.535-2.535
			c-0.391-0.391-0.391-1.024,0-1.414c0.39-0.391,1.023-0.391,1.414,0l2.535,2.535L29.295,12.289z M42.397,1.665
			C41.461,0.687,38.602,0,34.79,0c-2.021,0-4.312,0.202-6.723,0.646l15.321,15.321C44.642,9.062,43.826,3.16,42.397,1.665z"/>
	</g>
</g>
<g>
</g>
<g>
</g>
<g>
</g>
<g>
</g>
<g>
</g>
<g>
</g>
<g>
</g>
<g>
</g>
<g>
</g>
<g>
</g>
<g>
</g>
<g>
</g>
<g>
</g>
<g>
</g>
<g>
</g>
</svg>
