<?xml version="1.0" encoding="iso-8859-1"?>
<!-- Generator: Adobe Illustrator 16.0.4, SVG Export Plug-In . SVG Version: 6.00 Build 0)  -->
<!DOCTYPE svg PUBLIC "-//W3C//DTD SVG 1.1//EN" "http://www.w3.org/Graphics/SVG/1.1/DTD/svg11.dtd">
<svg version="1.1" id="Layer_1" xmlns="http://www.w3.org/2000/svg" xmlns:xlink="http://www.w3.org/1999/xlink" x="0px" y="0px"
	 width="44px" height="44px" viewBox="0 0 44 44" style="enable-background:new 0 0 44 44;" xml:space="preserve">
<g id="_x31_087-soccer-ball-toolbar-selected_x40_2x.png">
	<g>
		<path d="M22,0C9.85,0,0,9.85,0,22s9.85,22,22,22s22-9.85,22-22S34.15,0,22,0z M37.473,18.173l-8.685,2.605l-1.75,6.999
			l4.633,6.896l5.311,0.531c-2.369,2.687-5.436,4.74-8.932,5.85l2.137-5.344l-0.159,0.101l-4.528-6.74h-7.811l-3.995,5.947
			l1.578,5.787c-3.269-1.17-6.141-3.157-8.37-5.729l5.019-1.004l4.249-6.324l-1.73-6.924l-7.793-2.598l-4.628,3.601
			c0.033-3.9,1.189-7.525,3.152-10.589l2.289,5.151l7.588,2.529L21,14.157V6.321l-4.652-3.489C18.142,2.305,20.035,2.009,22,2.009
			c1.74,0,3.419,0.245,5.028,0.663L23,6.196v8.05l5.198,4.621l8.356-2.507l2.275-5.121c1.849,2.886,2.966,6.273,3.119,9.917
			L37.473,18.173z"/>
	</g>
</g>
<g>
</g>
<g>
</g>
<g>
</g>
<g>
</g>
<g>
</g>
<g>
</g>
<g>
</g>
<g>
</g>
<g>
</g>
<g>
</g>
<g>
</g>
<g>
</g>
<g>
</g>
<g>
</g>
<g>
</g>
</svg>
