<?xml version="1.0" encoding="iso-8859-1"?>
<!-- Generator: Adobe Illustrator 16.0.4, SVG Export Plug-In . SVG Version: 6.00 Build 0)  -->
<!DOCTYPE svg PUBLIC "-//W3C//DTD SVG 1.1//EN" "http://www.w3.org/Graphics/SVG/1.1/DTD/svg11.dtd">
<svg version="1.1" id="Layer_1" xmlns="http://www.w3.org/2000/svg" xmlns:xlink="http://www.w3.org/1999/xlink" x="0px" y="0px"
	 width="44px" height="44px" viewBox="0 0 44 44" style="enable-background:new 0 0 44 44;" xml:space="preserve">
<g id="_x31_089-bowling-ball-toolbar-selected_x40_2x.png">
	<g>
		<path d="M22,0C9.85,0,0,9.85,0,22s9.85,22,22,22s22-9.85,22-22S34.15,0,22,0z M12.989,20.013c-1.658,0-3.002-1.344-3.002-3.002
			s1.344-3.002,3.002-3.002s3.002,1.344,3.002,3.002S14.647,20.013,12.989,20.013z M15.987,11.011c0-1.658,1.344-3.002,3.002-3.002
			s3.002,1.344,3.002,3.002s-1.344,3.002-3.002,3.002S15.987,12.669,15.987,11.011z M22.989,24.013
			c-1.658,0-3.002-1.344-3.002-3.002s1.344-3.002,3.002-3.002s3.002,1.344,3.002,3.002S24.647,24.013,22.989,24.013z"/>
	</g>
</g>
<g>
</g>
<g>
</g>
<g>
</g>
<g>
</g>
<g>
</g>
<g>
</g>
<g>
</g>
<g>
</g>
<g>
</g>
<g>
</g>
<g>
</g>
<g>
</g>
<g>
</g>
<g>
</g>
<g>
</g>
</svg>
