<?xml version="1.0" encoding="iso-8859-1"?>
<!-- Generator: Adobe Illustrator 16.0.4, SVG Export Plug-In . SVG Version: 6.00 Build 0)  -->
<!DOCTYPE svg PUBLIC "-//W3C//DTD SVG 1.1//EN" "http://www.w3.org/Graphics/SVG/1.1/DTD/svg11.dtd">
<svg version="1.1" id="Layer_1" xmlns="http://www.w3.org/2000/svg" xmlns:xlink="http://www.w3.org/1999/xlink" x="0px" y="0px"
	 width="44.004px" height="44.004px" viewBox="0 0 44.004 44.004" style="enable-background:new 0 0 44.004 44.004;"
	 xml:space="preserve">
<g id="_x31_090-ping-pong-paddle-toolbar-selected_x40_2x.png">
	<g>
		<path d="M9.996,17.005c0,3.268,1.244,6.472,3.222,9.214L0.308,37.284C0.119,37.467,0,37.721,0,38.004
			c0,0.281,0.116,0.534,0.302,0.716l4.982,4.982C5.467,43.888,5.719,44.004,6,44.004c0.263,0,0.498-0.106,0.677-0.271l0.004,0.004
			l0.014-0.016c0.017-0.016,0.028-0.034,0.044-0.051l11.034-12.873c2.777,1.988,6.015,3.212,9.229,3.212
			c1.056,0,2.11-0.155,3.149-0.44L10.436,13.854C10.151,14.893,9.996,15.948,9.996,17.005z M44.004,15.459
			C44.004,6.92,37.084,0,28.545,0C21.775,0,14.098,5.328,11.2,11.79l21.014,21.014C38.676,29.907,44.004,22.229,44.004,15.459z
			 M39.005,34.014c-2.759,0-4.995,2.236-4.995,4.995s2.236,4.995,4.995,4.995S44,41.768,44,39.009S41.764,34.014,39.005,34.014z"/>
	</g>
</g>
<g>
</g>
<g>
</g>
<g>
</g>
<g>
</g>
<g>
</g>
<g>
</g>
<g>
</g>
<g>
</g>
<g>
</g>
<g>
</g>
<g>
</g>
<g>
</g>
<g>
</g>
<g>
</g>
<g>
</g>
</svg>
