<?xml version="1.0" encoding="iso-8859-1"?>
<!-- Generator: Adobe Illustrator 16.0.4, SVG Export Plug-In . SVG Version: 6.00 Build 0)  -->
<!DOCTYPE svg PUBLIC "-//W3C//DTD SVG 1.1//EN" "http://www.w3.org/Graphics/SVG/1.1/DTD/svg11.dtd">
<svg version="1.1" id="Layer_1" xmlns="http://www.w3.org/2000/svg" xmlns:xlink="http://www.w3.org/1999/xlink" x="0px" y="0px"
	 width="44px" height="44px" viewBox="0 0 44 44" style="enable-background:new 0 0 44 44;" xml:space="preserve">
<g id="_x31_091-weights-toolbar-selected_x40_2x.png">
	<g>
		<path d="M44,10.047c0-1.108-0.449-2.111-1.175-2.838l-2.308-2.312l1.189-1.189C41.888,3.526,42,3.276,42,3c0-0.552-0.447-1-1-1
			c-0.276,0-0.526,0.112-0.707,0.293l-1.188,1.188l-2.301-2.306C36.078,0.449,35.076,0,33.969,0c-1.481,0-2.757,0.815-3.447,2.014
			l11.478,11.478C43.19,12.799,44,11.526,44,10.047z M0,33.969c0,1.107,0.449,2.109,1.176,2.835l2.305,2.301l-1.188,1.188
			C2.112,40.474,2,40.724,2,41c0,0.553,0.448,1,1,1c0.276,0,0.526-0.111,0.707-0.293l1.189-1.189l2.312,2.308
			C7.935,43.551,8.938,44,10.047,44c1.479,0,2.752-0.81,3.444-2.001L2.014,30.521C0.815,31.212,0,32.487,0,33.969z M25.755,0.075
			C25.51,0.038,25.266,0,25.012,0C22.244,0,20,2.246,20,5.017c0,1.357,0.543,2.585,1.418,3.487l13.31,13.311l0.717,0.716
			c0.907,0.908,2.159,1.47,3.544,1.47C41.757,24,44,21.754,44,18.983c0-0.253-0.038-0.495-0.074-0.737L25.755,0.075z M21.958,34.872
			L8.504,21.418C7.601,20.544,6.374,20,5.017,20C2.246,20,0,22.244,0,25.012c0,0.254,0.039,0.498,0.075,0.743l18.171,18.171
			C18.489,43.962,18.731,44,18.983,44C21.754,44,24,41.757,24,38.988c0-1.383-0.562-2.636-1.47-3.543L21.958,34.872z M14.25,24.336
			l5.414,5.414L29.75,19.664l-5.414-5.414L14.25,24.336z"/>
	</g>
</g>
<g>
</g>
<g>
</g>
<g>
</g>
<g>
</g>
<g>
</g>
<g>
</g>
<g>
</g>
<g>
</g>
<g>
</g>
<g>
</g>
<g>
</g>
<g>
</g>
<g>
</g>
<g>
</g>
<g>
</g>
</svg>
