<?xml version="1.0" encoding="iso-8859-1"?>
<!-- Generator: Adobe Illustrator 16.0.4, SVG Export Plug-In . SVG Version: 6.00 Build 0)  -->
<!DOCTYPE svg PUBLIC "-//W3C//DTD SVG 1.1//EN" "http://www.w3.org/Graphics/SVG/1.1/DTD/svg11.dtd">
<svg version="1.1" id="Layer_1" xmlns="http://www.w3.org/2000/svg" xmlns:xlink="http://www.w3.org/1999/xlink" x="0px" y="0px"
	 width="44px" height="40px" viewBox="0 0 44 40" style="enable-background:new 0 0 44 40;" xml:space="preserve">
<g id="_x31_095-viking-ship-toolbar-selected_x40_2x.png">
	<g>
		<path d="M20.812,24h5.592c0.775-1.373,3.581-6.674,3.581-11.031c0-4.249-2.731-9.502-3.549-10.969h-5.705
			c1.247,2.331,3.254,6.762,3.253,10.969C23.984,17.814,22.063,21.873,20.812,24z M28,28c0,1.104,0.896,2,2,2s2-0.896,2-2
			s-0.896-2-2-2S28,26.896,28,28z M28.812,24H35c0.425,0,0.782-0.267,0.927-0.64c0.651-0.983,3-4.973,3.054-10.264
			C38.984,13.063,39,13.034,39,13c0-0.029-0.015-0.055-0.017-0.084c-0.007-4.954-3.046-10.357-3.218-10.572L35.75,2.356
			C35.566,2.143,35.304,2,35,2h-6.269c1.247,2.331,3.254,6.762,3.254,10.969C31.985,17.814,30.063,21.873,28.812,24z M22,28
			c0,1.104,0.896,2,2,2s2-0.896,2-2s-0.896-2-2-2S22,26.896,22,28z M40,26c-0.738,0-1.376,0.404-1.723,1H37c-0.553,0-1,0.447-1,1v3
			h-0.069c-0.043,0.344-0.135,0.671-0.22,1H20v-6.728c-0.129,0.185-0.213,0.294-0.234,0.321l-1.562-1.25
			c0.037-0.046,3.781-6.344,3.781-11.375c0-4.249-2.731-9.502-3.549-10.969H20V1c0-0.552-0.447-1-1-1s-1,0.448-1,1v1h-5.269
			c1.247,2.331,3.254,6.762,3.253,10.969c0,4.846-1.921,8.904-3.172,11.031H18v8H2.289c-0.085-0.329-0.177-0.656-0.22-1H2v-3
			c0-0.553-0.447-1-1-1s-1,0.447-1,1v3h0.051c0.502,5.053,4.764,9,9.949,9h18c5.186,0,9.447-3.947,9.949-9H38v-2h0.277
			c0.347,0.596,0.984,1,1.723,1c0,0,4-1,4-2S40,26,40,26z M4,24h6.404c0.775-1.373,3.581-6.674,3.581-11.031
			c0-4.249-2.731-9.502-3.549-10.969H4C3.447,2,3,2.448,3,3c0,0.224,0.087,0.419,0.211,0.586L3.203,3.592
			C3.241,3.64,6,9,5.985,12.969C5.97,17,3.241,22.298,3.204,22.344l0.035,0.028C3.097,22.545,3,22.758,3,23C3,23.553,3.447,24,4,24z
			 M6,28c0,1.104,0.896,2,2,2s2-0.896,2-2s-0.896-2-2-2S6,26.896,6,28z M14,30c1.104,0,2-0.896,2-2s-0.896-2-2-2s-2,0.896-2,2
			S12.896,30,14,30z"/>
	</g>
</g>
<g>
</g>
<g>
</g>
<g>
</g>
<g>
</g>
<g>
</g>
<g>
</g>
<g>
</g>
<g>
</g>
<g>
</g>
<g>
</g>
<g>
</g>
<g>
</g>
<g>
</g>
<g>
</g>
<g>
</g>
</svg>
