<?xml version="1.0" encoding="iso-8859-1"?>
<!-- Generator: Adobe Illustrator 16.0.4, SVG Export Plug-In . SVG Version: 6.00 Build 0)  -->
<!DOCTYPE svg PUBLIC "-//W3C//DTD SVG 1.1//EN" "http://www.w3.org/Graphics/SVG/1.1/DTD/svg11.dtd">
<svg version="1.1" id="Layer_1" xmlns="http://www.w3.org/2000/svg" xmlns:xlink="http://www.w3.org/1999/xlink" x="0px" y="0px"
	 width="44px" height="44px" viewBox="0 0 44 44" style="enable-background:new 0 0 44 44;" xml:space="preserve">
<g id="_x31_097-timer-2-toolbar-selected_x40_2x.png">
	<g>
		<path d="M22,0C9.85,0,0,9.85,0,22s9.85,22,22,22s22-9.85,22-22S34.15,0,22,0z M22.799,2.041c0.18,0.007,0.358,0.015,0.536,0.026
			C23.721,2.206,24,2.566,24,3c0,0.553-0.447,1-1,1s-1-0.447-1-1C22,2.52,22.347,2.137,22.799,2.041z M24.552,18.92
			c0.091,0.074,0.188,0.137,0.272,0.221c1.568,1.562,1.568,4.095,0,5.657c-1.568,1.562-4.111,1.562-5.68,0
			c-0.101-0.101-0.178-0.216-0.266-0.324C15.847,21.111,8.483,8.483,8.483,8.483S21.312,15.935,24.552,18.92z M22,42
			C10.954,42,2,33.046,2,22c0-2.879,0.62-5.61,1.716-8.084c0.161-0.334,0.483-0.572,0.878-0.572c0.553,0,1,0.448,1,1
			c0,0.154-0.041,0.296-0.104,0.426l0.021,0.009C4.54,16.988,4,19.431,4,22c0,9.941,8.059,18,18,18s18-8.059,18-18
			c0-7.421-4.493-13.789-10.906-16.543l0.011-0.02c-0.318-0.167-0.542-0.49-0.542-0.875c0-0.552,0.447-1,1-1
			c0.192,0,0.361,0.068,0.514,0.162l0.005-0.01C37.098,6.821,42,13.833,42,22C42,33.046,33.046,42,22,42z"/>
	</g>
</g>
<g>
</g>
<g>
</g>
<g>
</g>
<g>
</g>
<g>
</g>
<g>
</g>
<g>
</g>
<g>
</g>
<g>
</g>
<g>
</g>
<g>
</g>
<g>
</g>
<g>
</g>
<g>
</g>
<g>
</g>
</svg>
