<?xml version="1.0" encoding="iso-8859-1"?>
<!-- Generator: Adobe Illustrator 16.0.4, SVG Export Plug-In . SVG Version: 6.00 Build 0)  -->
<!DOCTYPE svg PUBLIC "-//W3C//DTD SVG 1.1//EN" "http://www.w3.org/Graphics/SVG/1.1/DTD/svg11.dtd">
<svg version="1.1" id="Layer_1" xmlns="http://www.w3.org/2000/svg" xmlns:xlink="http://www.w3.org/1999/xlink" x="0px" y="0px"
	 width="44px" height="16px" viewBox="0 0 44 16" style="enable-background:new 0 0 44 16;" xml:space="preserve">
<g id="_x31_098-level-toolbar-selected_x40_2x.png">
	<g>
		<path d="M0,8c0,4.418,3.518,8,7.857,8h0.131V0H7.857C3.518,0,0,3.582,0,8z M22,8c4.418,0,8-3.582,8-8H14C14,4.418,17.582,8,22,8z
			 M36.143,0h-0.131v16h0.131C40.482,16,44,12.418,44,8S40.482,0,36.143,0z M22,10c-5.522,0-10-4.477-10-10h-2v16h24V0h-2
			C32,5.523,27.522,10,22,10z"/>
	</g>
</g>
<g>
</g>
<g>
</g>
<g>
</g>
<g>
</g>
<g>
</g>
<g>
</g>
<g>
</g>
<g>
</g>
<g>
</g>
<g>
</g>
<g>
</g>
<g>
</g>
<g>
</g>
<g>
</g>
<g>
</g>
</svg>
