<?xml version="1.0" encoding="iso-8859-1"?>
<!-- Generator: Adobe Illustrator 16.0.4, SVG Export Plug-In . SVG Version: 6.00 Build 0)  -->
<!DOCTYPE svg PUBLIC "-//W3C//DTD SVG 1.1//EN" "http://www.w3.org/Graphics/SVG/1.1/DTD/svg11.dtd">
<svg version="1.1" id="Layer_1" xmlns="http://www.w3.org/2000/svg" xmlns:xlink="http://www.w3.org/1999/xlink" x="0px" y="0px"
	 width="44px" height="36px" viewBox="0 0 44 36" style="enable-background:new 0 0 44 36;" xml:space="preserve">
<g id="_x31_099-list-1-toolbar-selected_x40_2x.png">
	<g>
		<path d="M4,8h36c2.209,0,4-1.791,4-4s-1.791-4-4-4H4C1.791,0,0,1.791,0,4S1.791,8,4,8z M40,28H4c-2.209,0-4,1.791-4,4s1.791,4,4,4
			h36c2.209,0,4-1.791,4-4S42.209,28,40,28z M40,14H4c-2.209,0-4,1.791-4,4s1.791,4,4,4h36c2.209,0,4-1.791,4-4S42.209,14,40,14z"/>
	</g>
</g>
<g>
</g>
<g>
</g>
<g>
</g>
<g>
</g>
<g>
</g>
<g>
</g>
<g>
</g>
<g>
</g>
<g>
</g>
<g>
</g>
<g>
</g>
<g>
</g>
<g>
</g>
<g>
</g>
<g>
</g>
</svg>
