<?xml version="1.0" encoding="iso-8859-1"?>
<!-- Generator: Adobe Illustrator 16.0.4, SVG Export Plug-In . SVG Version: 6.00 Build 0)  -->
<!DOCTYPE svg PUBLIC "-//W3C//DTD SVG 1.1//EN" "http://www.w3.org/Graphics/SVG/1.1/DTD/svg11.dtd">
<svg version="1.1" id="Layer_1" xmlns="http://www.w3.org/2000/svg" xmlns:xlink="http://www.w3.org/1999/xlink" x="0px" y="0px"
	 width="44px" height="36px" viewBox="0 0 44 36" style="enable-background:new 0 0 44 36;" xml:space="preserve">
<g id="_x31_100-list-2-toolbar-selected_x40_2x.png">
	<g>
		<path d="M4,14c-2.209,0-4,1.791-4,4s1.791,4,4,4s4-1.791,4-4S6.209,14,4,14z M16,8h24c2.209,0,4-1.791,4-4s-1.791-4-4-4H16
			c-2.209,0-4,1.791-4,4S13.791,8,16,8z M4,28c-2.209,0-4,1.791-4,4s1.791,4,4,4s4-1.791,4-4S6.209,28,4,28z M4,0
			C1.791,0,0,1.791,0,4s1.791,4,4,4s4-1.791,4-4S6.209,0,4,0z M40,14H16c-2.209,0-4,1.791-4,4s1.791,4,4,4h24c2.209,0,4-1.791,4-4
			S42.209,14,40,14z M40,28H16c-2.209,0-4,1.791-4,4s1.791,4,4,4h24c2.209,0,4-1.791,4-4S42.209,28,40,28z"/>
	</g>
</g>
<g>
</g>
<g>
</g>
<g>
</g>
<g>
</g>
<g>
</g>
<g>
</g>
<g>
</g>
<g>
</g>
<g>
</g>
<g>
</g>
<g>
</g>
<g>
</g>
<g>
</g>
<g>
</g>
<g>
</g>
</svg>
