<?xml version="1.0" encoding="iso-8859-1"?>
<!-- Generator: Adobe Illustrator 16.0.4, SVG Export Plug-In . SVG Version: 6.00 Build 0)  -->
<!DOCTYPE svg PUBLIC "-//W3C//DTD SVG 1.1//EN" "http://www.w3.org/Graphics/SVG/1.1/DTD/svg11.dtd">
<svg version="1.1" id="Layer_1" xmlns="http://www.w3.org/2000/svg" xmlns:xlink="http://www.w3.org/1999/xlink" x="0px" y="0px"
	 width="44px" height="40px" viewBox="0 0 44 40" style="enable-background:new 0 0 44 40;" xml:space="preserve">
<g id="_x39_06-chat-3-toolbar-selected_x40_2x.png">
	<g>
		<path d="M36,0H8C3.582,0,0,3.582,0,8v16c0,4.418,3.582,8,8,8h2v8l11.2-8H36c4.418,0,8-3.582,8-8V8C44,3.582,40.418,0,36,0z M12,19
			c-1.657,0-3-1.343-3-3s1.343-3,3-3s3,1.343,3,3S13.657,19,12,19z M22,19c-1.657,0-3-1.343-3-3s1.343-3,3-3s3,1.343,3,3
			S23.657,19,22,19z M32,19c-1.657,0-3-1.343-3-3s1.343-3,3-3s3,1.343,3,3S33.657,19,32,19z"/>
	</g>
</g>
<g>
</g>
<g>
</g>
<g>
</g>
<g>
</g>
<g>
</g>
<g>
</g>
<g>
</g>
<g>
</g>
<g>
</g>
<g>
</g>
<g>
</g>
<g>
</g>
<g>
</g>
<g>
</g>
<g>
</g>
</svg>
