<?xml version="1.0" encoding="iso-8859-1"?>
<!-- Generator: Adobe Illustrator 16.0.4, SVG Export Plug-In . SVG Version: 6.00 Build 0)  -->
<!DOCTYPE svg PUBLIC "-//W3C//DTD SVG 1.1//EN" "http://www.w3.org/Graphics/SVG/1.1/DTD/svg11.dtd">
<svg version="1.1" id="Layer_1" xmlns="http://www.w3.org/2000/svg" xmlns:xlink="http://www.w3.org/1999/xlink" x="0px" y="0px"
	 width="44px" height="44px" viewBox="0 0 44 44" style="enable-background:new 0 0 44 44;" xml:space="preserve">
<g id="_x39_09-tags-toolbar-selected_x40_2x.png">
	<g>
		<path d="M21.121,4.879C20.578,4.336,19.828,4,19,4H3C1.343,4,0,5.343,0,7v16c0,0.828,0.336,1.579,0.879,2.121l18,18
			C19.422,43.664,20.172,44,21,44s1.578-0.336,2.121-0.879l16-16C39.664,26.578,40,25.828,40,25s-0.336-1.578-0.879-2.121
			L21.121,4.879z M10.001,16.01c-1.109,0-2.009-0.899-2.009-2.01s0.899-2.011,2.009-2.011c1.11,0,2.01,0.9,2.01,2.011
			S11.111,16.01,10.001,16.01z M43.121,18.879l-18-18C24.578,0.336,23.828,0,23,0H7C5.695,0,4.597,0.838,4.184,2H19
			c1.336,0,2.591,0.521,3.535,1.465l18,18c0.778,0.778,1.249,1.773,1.397,2.846l1.188-1.189C43.664,22.579,44,21.828,44,21
			S43.664,19.422,43.121,18.879z"/>
	</g>
</g>
<g>
</g>
<g>
</g>
<g>
</g>
<g>
</g>
<g>
</g>
<g>
</g>
<g>
</g>
<g>
</g>
<g>
</g>
<g>
</g>
<g>
</g>
<g>
</g>
<g>
</g>
<g>
</g>
<g>
</g>
</svg>
