<?xml version="1.0" encoding="iso-8859-1"?>
<!-- Generator: Adobe Illustrator 16.0.4, SVG Export Plug-In . SVG Version: 6.00 Build 0)  -->
<!DOCTYPE svg PUBLIC "-//W3C//DTD SVG 1.1//EN" "http://www.w3.org/Graphics/SVG/1.1/DTD/svg11.dtd">
<svg version="1.1" id="Layer_1" xmlns="http://www.w3.org/2000/svg" xmlns:xlink="http://www.w3.org/1999/xlink" x="0px" y="0px"
	 width="44px" height="36px" viewBox="0 0 44 36" style="enable-background:new 0 0 44 36;" xml:space="preserve">
<g id="_x39_10-graph-toolbar-selected_x40_2x.png">
	<g>
		<path d="M42,0H2C0.896,0,0,0.896,0,2v32c0,1.104,0.896,2,2,2h40c1.104,0,2-0.896,2-2V2C44,0.896,43.104,0,42,0z M38.943,9.333
			l-0.019,0.04c-0.005,0.013-0.011,0.023-0.016,0.035l-4.966,10.925l-0.01-0.004C33.796,20.718,33.436,21,33,21
			c-0.371,0-0.682-0.211-0.854-0.512l-0.014,0.008l-3.443-6.025l-2.981,2.236l-0.001-0.001c-0.001,0.001-0.001,0.003-0.002,0.004
			l-7.81,10.737l-0.009-0.005C17.721,27.77,17.391,28,17,28c-0.436,0-0.796-0.282-0.934-0.67l-0.01,0.003l-5.989-10.268
			l-2.135,4.271c-0.02,0.052-0.046,0.098-0.073,0.146L7.8,21.6l-0.014-0.01C7.604,21.833,7.327,22,7,22c-0.553,0-1-0.447-1-1
			c0-0.226,0.088-0.423,0.214-0.59L6.2,20.4l2.867-5.736c0.02-0.052,0.046-0.098,0.073-0.146L9.2,14.4l0.014,0.01
			C9.396,14.167,9.673,14,10,14c0.436,0,0.796,0.282,0.934,0.671l0.01-0.004l6.145,10.535l7.018-9.649l0.009,0.005
			c0.049-0.096,0.114-0.18,0.188-0.255l-0.01-0.01l0.159-0.119c0.01-0.007,0.019-0.015,0.028-0.021l3.812-2.859
			C28.474,12.112,28.724,12,29,12c0.371,0,0.682,0.212,0.854,0.512l0.014-0.008l3.032,5.307l4.156-9.144l0.01,0.004
			C37.204,8.282,37.564,8,38,8c0.553,0,1,0.448,1,1c0,0.117-0.029,0.226-0.066,0.329L38.943,9.333z"/>
	</g>
</g>
<g>
</g>
<g>
</g>
<g>
</g>
<g>
</g>
<g>
</g>
<g>
</g>
<g>
</g>
<g>
</g>
<g>
</g>
<g>
</g>
<g>
</g>
<g>
</g>
<g>
</g>
<g>
</g>
<g>
</g>
</svg>
