<?xml version="1.0" encoding="iso-8859-1"?>
<!-- Generator: Adobe Illustrator 16.0.4, SVG Export Plug-In . SVG Version: 6.00 Build 0)  -->
<!DOCTYPE svg PUBLIC "-//W3C//DTD SVG 1.1//EN" "http://www.w3.org/Graphics/SVG/1.1/DTD/svg11.dtd">
<svg version="1.1" id="Layer_1" xmlns="http://www.w3.org/2000/svg" xmlns:xlink="http://www.w3.org/1999/xlink" x="0px" y="0px"
	 width="20px" height="44px" viewBox="0 0 20 44" style="enable-background:new 0 0 20 44;" xml:space="preserve">
<g id="_x39_11-bottle-toolbar-selected_x40_2x.png">
	<g>
		<path d="M0,40c0,2.209,1.791,4,4,4h12c2.209,0,4-1.791,4-4v-7H0V40z M0,31h20v-2H0V31z M8,4h4c1.104,0,2-0.896,2-2s-0.896-2-2-2H8
			C6.896,0,6,0.896,6,2S6.896,4,8,4z M0,27h20v-4H0V27z M18.535,10.535L14,6H6l-4.536,4.535C0.527,11.474,0,12.745,0,14.071V17h20
			v-2.929C20,12.745,19.473,11.474,18.535,10.535z M0,21h20v-2H0V21z"/>
	</g>
</g>
<g>
</g>
<g>
</g>
<g>
</g>
<g>
</g>
<g>
</g>
<g>
</g>
<g>
</g>
<g>
</g>
<g>
</g>
<g>
</g>
<g>
</g>
<g>
</g>
<g>
</g>
<g>
</g>
<g>
</g>
</svg>
