<?xml version="1.0" encoding="iso-8859-1"?>
<!-- Generator: Adobe Illustrator 16.0.4, SVG Export Plug-In . SVG Version: 6.00 Build 0)  -->
<!DOCTYPE svg PUBLIC "-//W3C//DTD SVG 1.1//EN" "http://www.w3.org/Graphics/SVG/1.1/DTD/svg11.dtd">
<svg version="1.1" id="Layer_1" xmlns="http://www.w3.org/2000/svg" xmlns:xlink="http://www.w3.org/1999/xlink" x="0px" y="0px"
	 width="44.002px" height="44.002px" viewBox="0 0 44.002 44.002" style="enable-background:new 0 0 44.002 44.002;"
	 xml:space="preserve">
<g id="_x39_12-gears-toolbar-selected_x40_2x.png">
	<g>
		<path d="M28.391,26.236c0.238-0.238,0.277-0.59,0.135-0.875l0.008-0.004L26.705,21.7c0.375-0.694,0.709-1.412,0.946-2.178
			l3.827-1.275l-0.002-0.009C31.778,18.137,32,17.86,32,17.523v-3.047c0-0.337-0.222-0.613-0.523-0.714l0.002-0.009l-3.827-1.276
			c-0.237-0.766-0.571-1.483-0.946-2.178l1.828-3.656L28.525,6.64c0.143-0.285,0.104-0.638-0.135-0.876l-2.154-2.154
			C26.09,3.463,25.9,3.392,25.71,3.392c-0.119,0-0.238,0.028-0.349,0.083l-0.004-0.009l-3.654,1.827
			c-0.695-0.376-1.414-0.711-2.182-0.948l-1.275-3.823l-0.008,0.002C18.137,0.222,17.86,0,17.523,0h-3.047
			c-0.337,0-0.613,0.222-0.714,0.523l-0.009-0.002l-1.275,3.823c-0.768,0.237-1.486,0.572-2.182,0.948L6.644,3.466L6.64,3.475
			c-0.11-0.055-0.23-0.083-0.35-0.083c-0.191,0-0.38,0.071-0.526,0.218L3.609,5.764C3.371,6.002,3.332,6.354,3.475,6.64L3.467,6.644
			L5.294,10.3c-0.374,0.694-0.709,1.412-0.945,2.178l-3.827,1.276l0.003,0.009C0.222,13.863,0,14.14,0,14.477v3.047
			c0,0.337,0.222,0.613,0.524,0.715l-0.003,0.009l3.827,1.275c0.236,0.766,0.571,1.483,0.945,2.178l-1.827,3.657l0.008,0.004
			c-0.143,0.285-0.104,0.637,0.135,0.875l2.154,2.154C5.91,28.537,6.1,28.608,6.29,28.608c0.119,0,0.239-0.028,0.35-0.083
			l0.004,0.009l3.653-1.827c0.695,0.376,1.414,0.712,2.182,0.949l1.275,3.822l0.009-0.002C13.863,31.778,14.14,32,14.477,32h3.047
			c0.337,0,0.613-0.222,0.715-0.523l0.008,0.002l1.275-3.822c0.768-0.237,1.486-0.573,2.182-0.949l3.654,1.827l0.004-0.009
			c0.109,0.055,0.229,0.083,0.349,0.083c0.19,0,0.38-0.071,0.526-0.218L28.391,26.236z M16,21c-2.762,0-5-2.238-5-5s2.238-5,5-5
			s5,2.238,5,5S18.762,21,16,21z M43.342,32.577l0.002-0.016l-1.545-0.31c-0.016-0.037-0.037-0.071-0.053-0.108l0.879-1.318
			l-0.014-0.009c0.211-0.318,0.191-0.744-0.088-1.024l-2.314-2.314c-0.156-0.155-0.357-0.231-0.56-0.231
			c-0.162,0-0.324,0.049-0.466,0.143l-0.008-0.014l-1.317,0.879c-0.038-0.016-0.072-0.037-0.109-0.053l-0.31-1.545l-0.016,0.002
			c-0.075-0.373-0.391-0.66-0.786-0.66h-3.274c-0.396,0-0.711,0.287-0.787,0.66l-0.016-0.002l-0.309,1.545
			c-0.038,0.016-0.072,0.037-0.109,0.053l-1.317-0.879l-0.01,0.014c-0.141-0.094-0.303-0.143-0.465-0.143
			c-0.202,0-0.402,0.076-0.559,0.231l-2.314,2.314c-0.28,0.28-0.3,0.706-0.09,1.024l-0.013,0.009l0.879,1.318
			c-0.017,0.037-0.038,0.071-0.054,0.108l-1.544,0.31l0.002,0.016c-0.373,0.075-0.66,0.391-0.66,0.786v3.274
			c0,0.396,0.287,0.711,0.66,0.787l-0.002,0.016l1.544,0.309c0.016,0.037,0.037,0.071,0.054,0.109l-0.879,1.317l0.013,0.008
			c-0.21,0.318-0.19,0.744,0.09,1.025l2.314,2.314c0.156,0.155,0.355,0.23,0.558,0.23c0.162,0,0.324-0.049,0.466-0.143l0.01,0.014
			l1.317-0.879c0.037,0.016,0.071,0.039,0.109,0.053l0.309,1.545l0.016-0.002c0.076,0.373,0.391,0.66,0.787,0.66h3.274
			c0.396,0,0.711-0.287,0.786-0.66l0.016,0.002l0.31-1.545c0.037-0.014,0.071-0.037,0.109-0.053l1.317,0.879l0.008-0.014
			c0.142,0.094,0.305,0.143,0.467,0.143c0.202,0,0.402-0.075,0.559-0.23l2.314-2.314c0.279-0.281,0.299-0.707,0.088-1.025
			l0.014-0.008l-0.879-1.317c0.016-0.038,0.037-0.072,0.053-0.109l1.545-0.309l-0.002-0.016c0.373-0.076,0.66-0.392,0.66-0.787
			v-3.274C44.002,32.968,43.715,32.652,43.342,32.577z M34.997,36.989c-1.1,0-1.991-0.892-1.991-1.992
			c0-1.1,0.892-1.991,1.991-1.991s1.991,0.892,1.991,1.991C36.988,36.098,36.097,36.989,34.997,36.989z"/>
	</g>
</g>
<g>
</g>
<g>
</g>
<g>
</g>
<g>
</g>
<g>
</g>
<g>
</g>
<g>
</g>
<g>
</g>
<g>
</g>
<g>
</g>
<g>
</g>
<g>
</g>
<g>
</g>
<g>
</g>
<g>
</g>
</svg>
