<?xml version="1.0" encoding="iso-8859-1"?>
<!-- Generator: Adobe Illustrator 16.0.4, SVG Export Plug-In . SVG Version: 6.00 Build 0)  -->
<!DOCTYPE svg PUBLIC "-//W3C//DTD SVG 1.1//EN" "http://www.w3.org/Graphics/SVG/1.1/DTD/svg11.dtd">
<svg version="1.1" id="Layer_1" xmlns="http://www.w3.org/2000/svg" xmlns:xlink="http://www.w3.org/1999/xlink" x="0px" y="0px"
	 width="40px" height="44px" viewBox="0 0 40 44" style="enable-background:new 0 0 40 44;" xml:space="preserve">
<g id="_x39_13-skull-toolbar-selected_x40_2x.png">
	<g>
		<path d="M20,0C8.954,0,0,8.091,0,18.071c0,4.05,1.496,7.771,3.99,10.78v7.133h0.002c0,0.006-0.002,0.012-0.002,0.018
			c0,3.308,2.686,5.989,5.998,5.989c1.64,0,3.245-0.66,4.452-1.725C15.337,42.455,17.485,44,20,44c2.508,0,4.653-1.535,5.554-3.715
			c1.204,1.053,2.798,1.706,4.427,1.706c3.312,0,5.998-2.682,5.998-5.989c0-0.006-0.002-0.012-0.002-0.018h0.033v-7.133
			c2.494-3.01,3.99-6.73,3.99-10.78C40,8.091,31.046,0,20,0z M11.992,21c-2.212,0-4.005-1.789-4.005-3.996s1.793-3.996,4.005-3.996
			c2.213,0,4.006,1.789,4.006,3.996S14.205,21,11.992,21z M21.996,30.992h-3.992c-1.102,0-1.995-0.895-1.995-1.998
			s0.894-1.998,1.995-1.998v-1.004h0.002c0.008-1.098,0.896-1.984,1.994-1.984s1.986,0.887,1.994,1.984h0.002v1.004
			c1.102,0,1.996,0.895,1.996,1.998S23.098,30.992,21.996,30.992z M27.993,21c-2.213,0-4.006-1.789-4.006-3.996
			s1.793-3.996,4.006-3.996c2.212,0,4.005,1.789,4.005,3.996S30.205,21,27.993,21z"/>
	</g>
</g>
<g>
</g>
<g>
</g>
<g>
</g>
<g>
</g>
<g>
</g>
<g>
</g>
<g>
</g>
<g>
</g>
<g>
</g>
<g>
</g>
<g>
</g>
<g>
</g>
<g>
</g>
<g>
</g>
<g>
</g>
</svg>
