<?xml version="1.0" encoding="iso-8859-1"?>
<!-- Generator: Adobe Illustrator 16.0.4, SVG Export Plug-In . SVG Version: 6.00 Build 0)  -->
<!DOCTYPE svg PUBLIC "-//W3C//DTD SVG 1.1//EN" "http://www.w3.org/Graphics/SVG/1.1/DTD/svg11.dtd">
<svg version="1.1" id="Layer_1" xmlns="http://www.w3.org/2000/svg" xmlns:xlink="http://www.w3.org/1999/xlink" x="0px" y="0px"
	 width="40.006px" height="44.002px" viewBox="0 0 40.006 44.002" style="enable-background:new 0 0 40.006 44.002;"
	 xml:space="preserve">
<g id="_x39_14-skull-and-crossbones-toolbar-selected_x40_2x.png">
	<g>
		<path d="M12.003,17.982h0.003c-0.001,0.007-0.003,0.013-0.003,0.02c0,1.658,1.342,3.002,2.997,3.002
			c0.68,0,1.299-0.234,1.802-0.616c0.729,0.981,1.886,1.626,3.201,1.626s2.473-0.645,3.201-1.626
			c0.503,0.382,1.122,0.616,1.802,0.616c1.655,0,2.997-1.344,2.997-3.002c0-0.007-0.002-0.013-0.002-0.02h0.002v-3.62
			c1.244-1.496,1.994-3.342,1.994-5.355C29.997,4.032,25.522,0,20.003,0s-9.994,4.032-9.994,9.007c0,2.019,0.747,3.873,1.994,5.373
			V17.982z M23.003,7.017c1.109,0,2.008,0.892,2.008,1.992c0,1.1-0.898,1.991-2.008,1.991s-2.008-0.892-2.008-1.991
			C20.995,7.908,21.894,7.017,23.003,7.017z M20.003,11.982c0.544,0,0.984,0.451,0.984,1.006c0,0.004-0.002,0.008-0.002,0.012h0.018
			v0.003c0.549,0.006,0.992,0.451,0.992,1.003c0,0.556-0.449,1.006-1.004,1.006c-0.021,0-0.038-0.011-0.059-0.012h-1.859
			c-0.021,0.001-0.038,0.012-0.059,0.012c-0.555,0-1.004-0.45-1.004-1.006c0-0.552,0.443-0.997,0.992-1.003V13h0.018
			c0-0.004-0.002-0.008-0.002-0.012C19.019,12.434,19.459,11.982,20.003,11.982z M17.003,7.003c1.109,0,2.008,0.896,2.008,2.001
			c0,1.105-0.898,2.002-2.008,2.002c-1.108,0-2.008-0.896-2.008-2.002C14.995,7.899,15.895,7.003,17.003,7.003z M33.611,28.479
			c0.632,0.919,1.689,1.523,2.889,1.523c1.937,0,3.506-1.569,3.506-3.505c0-1.561-1.027-2.867-2.438-3.321
			c0.273-0.499,0.443-1.064,0.443-1.674c0-1.937-1.569-3.505-3.506-3.505c-1.936,0-3.506,1.568-3.506,3.505
			c0,0.46,0.094,0.897,0.256,1.3L6.617,33.918c-0.58-1.135-1.748-1.919-3.111-1.919C1.57,31.999,0,33.566,0,35.502
			c0,1.562,1.03,2.871,2.444,3.322c-0.277,0.5-0.45,1.062-0.45,1.674c0,1.936,1.569,3.504,3.506,3.504s3.506-1.568,3.506-3.504
			c0-0.299-0.049-0.586-0.119-0.863L33.611,28.479z M36.52,32c-0.007,0.001-0.013,0.003-0.02,0.003
			c-0.006,0-0.012-0.002-0.018-0.002c-1.355,0.007-2.517,0.787-3.094,1.917l-3.483-1.571l-7.471,3.37l8.685,3.918
			C31.049,39.912,31,40.199,31,40.498c0,1.936,1.569,3.504,3.506,3.504s3.506-1.568,3.506-3.504c0-0.611-0.173-1.174-0.45-1.674
			c1.414-0.451,2.444-1.76,2.444-3.322C40.006,33.573,38.446,32.011,36.52,32z M3.486,30.001c0.007-0.001,0.013-0.002,0.02-0.002
			C3.512,29.999,3.518,30,3.523,30c1.191-0.006,2.242-0.606,2.871-1.521l3.706,1.673l7.471-3.37L8.75,22.803
			c0.162-0.402,0.256-0.84,0.256-1.3c0-1.937-1.57-3.505-3.506-3.505c-1.937,0-3.506,1.568-3.506,3.505
			c0,0.609,0.17,1.175,0.443,1.674C1.027,23.631,0,24.938,0,26.498C0,28.427,1.56,29.99,3.486,30.001z"/>
	</g>
</g>
<g>
</g>
<g>
</g>
<g>
</g>
<g>
</g>
<g>
</g>
<g>
</g>
<g>
</g>
<g>
</g>
<g>
</g>
<g>
</g>
<g>
</g>
<g>
</g>
<g>
</g>
<g>
</g>
<g>
</g>
</svg>
