<?xml version="1.0" encoding="iso-8859-1"?>
<!-- Generator: Adobe Illustrator 16.0.4, SVG Export Plug-In . SVG Version: 6.00 Build 0)  -->
<!DOCTYPE svg PUBLIC "-//W3C//DTD SVG 1.1//EN" "http://www.w3.org/Graphics/SVG/1.1/DTD/svg11.dtd">
<svg version="1.1" id="Layer_1" xmlns="http://www.w3.org/2000/svg" xmlns:xlink="http://www.w3.org/1999/xlink" x="0px" y="0px"
	 width="43.994px" height="44px" viewBox="0 0 43.994 44" style="enable-background:new 0 0 43.994 44;" xml:space="preserve">
<g id="_x39_15-bird-toolbar-selected_x40_2x.png">
	<g>
		<path d="M43.379,7.538C43.242,7.23,39.76,0,33.811,0C29.753,0,27,1.947,27,6c0,5.035-4.841,20-25,20H0l2.937,2.855l-2.874,1.436
			C0.062,30.291,1,33,5.051,33c3.83,0,6.113,0.477,9.124,0.896c2.344,0.327,4.333,0.324,6.535,0.732
			c0.632,0.161,2.271,0.821,2.287,3.336V42h-2c-0.553,0-1,0.447-1,1s0.447,1,1,1h10c0.553,0,1-0.447,1-1s-0.447-1-1-1h-6v-4H25
			c0-3.609,1.965-4.116,1.965-4.116h-0.018c5.544-1.399,10.01-4.978,10.01-11.098c0-4.119-0.923-6.479-1.508-8.231
			c-0.717-2.151-0.83-3.097,1.417-5.299c0.8-0.742,1.939-0.813,2.896-0.813c0.225,0,0.439,0.004,0.637,0.004
			c1.177,0,2.1,0.18,2.107,0.182l1.488,0.294L43.379,7.538z M33.498,7.004c-0.826,0-1.495-0.675-1.495-1.508
			s0.669-1.509,1.495-1.509c0.825,0,1.495,0.676,1.495,1.509S34.323,7.004,33.498,7.004z"/>
	</g>
</g>
<g>
</g>
<g>
</g>
<g>
</g>
<g>
</g>
<g>
</g>
<g>
</g>
<g>
</g>
<g>
</g>
<g>
</g>
<g>
</g>
<g>
</g>
<g>
</g>
<g>
</g>
<g>
</g>
<g>
</g>
</svg>
