<?xml version="1.0" encoding="iso-8859-1"?>
<!-- Generator: Adobe Illustrator 16.0.4, SVG Export Plug-In . SVG Version: 6.00 Build 0)  -->
<!DOCTYPE svg PUBLIC "-//W3C//DTD SVG 1.1//EN" "http://www.w3.org/Graphics/SVG/1.1/DTD/svg11.dtd">
<svg version="1.1" id="Layer_1" xmlns="http://www.w3.org/2000/svg" xmlns:xlink="http://www.w3.org/1999/xlink" x="0px" y="0px"
	 width="44px" height="28px" viewBox="0 0 44 28" style="enable-background:new 0 0 44 28;" xml:space="preserve">
<g id="_x39_16-planet-toolbar-selected_x40_2x.png">
	<g>
		<path d="M43.853,6.476c-0.638-1.657-3.255-2.47-7.06-2.47c-0.708,0-1.47,0.038-2.254,0.095c0.481,0.61,0.918,1.257,1.309,1.936
			c0.316-0.011,0.644-0.03,0.946-0.03c3.577,0,5.043,0.8,5.192,1.188c0.034,0.09,0.015,0.322-0.154,0.686
			c-0.652,1.4-2.7,3.287-5.889,5.261c0.017,0.286,0.043,0.57,0.043,0.86c0,0.5-0.028,0.993-0.079,1.479
			C41.51,12.226,44.747,8.802,43.853,6.476z M35.943,13.14C35.496,5.811,29.434,0,22,0C14.274,0,8.013,6.269,8.013,14
			c0,2.894,0.878,5.581,2.38,7.812c3.988-0.401,8.724-1.485,13.486-3.125C28.812,16.988,32.897,15.024,35.943,13.14z M7.207,21.994
			c-3.578,0-5.044-0.8-5.193-1.188c-0.034-0.09-0.015-0.322,0.154-0.686c0.511-1.099,1.889-2.497,3.991-4
			C6.064,15.426,6,14.722,6,14c0-0.065,0.009-0.129,0.01-0.194c-4.301,2.847-6.641,5.698-5.862,7.719
			c0.638,1.657,3.255,2.47,7.06,2.47c1.405,0,2.986-0.124,4.676-0.345c-0.544-0.571-1.048-1.18-1.49-1.837
			C9.269,21.926,8.193,21.994,7.207,21.994z M11.883,23.649C14.43,26.325,18.016,28,22,28c7.225,0,13.168-5.484,13.907-12.521
			c-3.148,1.828-7.035,3.604-11.377,5.099C19.999,22.138,15.646,23.158,11.883,23.649z"/>
	</g>
</g>
<g>
</g>
<g>
</g>
<g>
</g>
<g>
</g>
<g>
</g>
<g>
</g>
<g>
</g>
<g>
</g>
<g>
</g>
<g>
</g>
<g>
</g>
<g>
</g>
<g>
</g>
<g>
</g>
<g>
</g>
</svg>
