<?xml version="1.0" encoding="iso-8859-1"?>
<!-- Generator: Adobe Illustrator 16.0.4, SVG Export Plug-In . SVG Version: 6.00 Build 0)  -->
<!DOCTYPE svg PUBLIC "-//W3C//DTD SVG 1.1//EN" "http://www.w3.org/Graphics/SVG/1.1/DTD/svg11.dtd">
<svg version="1.1" id="Layer_1" xmlns="http://www.w3.org/2000/svg" xmlns:xlink="http://www.w3.org/1999/xlink" x="0px" y="0px"
	 width="44px" height="44px" viewBox="0 0 44 44" style="enable-background:new 0 0 44 44;" xml:space="preserve">
<g id="_x39_17-speedometer-toolbar-selected_x40_2x.png">
	<g>
		<path d="M21.5,21.134c-0.479,0.276-0.643,0.888-0.366,1.366s0.888,0.643,1.366,0.366s0.643-0.888,0.366-1.366
			S21.979,20.857,21.5,21.134z M4,30c-0.817,0-1.605,0.124-2.349,0.352c1.901,4.628,5.332,8.461,9.666,10.874
			C11.754,40.238,12,39.148,12,38C12,33.582,8.418,30,4,30z M32,38c0,1.148,0.246,2.238,0.683,3.226
			c4.334-2.413,7.765-6.246,9.666-10.874C41.605,30.124,40.817,30,40,30C35.582,30,32,33.582,32,38z M22,0C9.85,0,0,9.85,0,22
			c0,2.252,0.342,4.424,0.971,6.47C1.927,28.166,2.943,28,4,28c5.522,0,10,4.478,10,10c0,1.468-0.324,2.857-0.892,4.113
			C15.829,43.317,18.833,44,22,44s6.171-0.683,8.892-1.887C30.324,40.857,30,39.468,30,38c0-5.522,4.478-10,10-10
			c1.057,0,2.073,0.166,3.029,0.47C43.658,26.424,44,24.252,44,22C44,9.85,34.15,0,22,0z M7,23c-0.553,0-1-0.447-1-1
			c0-0.552,0.447-1,1-1s1,0.448,1,1C8,22.553,7.553,23,7,23z M9.876,15C9.6,15.479,8.988,15.643,8.51,15.366S7.867,14.479,8.144,14
			s0.888-0.642,1.366-0.366C9.988,13.91,10.151,14.521,9.876,15z M22,6c0.553,0,1,0.448,1,1c0,0.553-0.447,1-1,1s-1-0.447-1-1
			C21,6.448,21.447,6,22,6z M15,9.876c-0.479,0.276-1.09,0.112-1.366-0.366S13.521,8.42,14,8.144s1.09-0.112,1.366,0.366
			S15.479,9.6,15,9.876z M23.5,24.599c-1.435,0.828-3.27,0.336-4.098-1.099c-0.062-0.108-0.104-0.222-0.15-0.334l-0.037,0.021
			L16,11.607l8.143,8.307c0.042,0.043,0.087,0.083,0.127,0.129l0.141,0.145l-0.026,0.016c0.073,0.097,0.152,0.188,0.214,0.297
			C25.427,21.935,24.935,23.77,23.5,24.599z M30.366,9.51C30.09,9.988,29.479,10.152,29,9.876s-0.643-0.888-0.366-1.366
			S29.521,7.867,30,8.144S30.643,9.031,30.366,9.51z M35.49,15.366c-0.479,0.276-1.09,0.112-1.366-0.366
			c-0.275-0.479-0.112-1.09,0.366-1.366c0.479-0.275,1.09-0.112,1.366,0.366S35.969,15.09,35.49,15.366z M37,23
			c-0.553,0-1-0.447-1-1c0-0.552,0.447-1,1-1s1,0.448,1,1C38,22.553,37.553,23,37,23z"/>
	</g>
</g>
<g>
</g>
<g>
</g>
<g>
</g>
<g>
</g>
<g>
</g>
<g>
</g>
<g>
</g>
<g>
</g>
<g>
</g>
<g>
</g>
<g>
</g>
<g>
</g>
<g>
</g>
<g>
</g>
<g>
</g>
</svg>
