<?xml version="1.0" encoding="iso-8859-1"?>
<!-- Generator: Adobe Illustrator 16.0.4, SVG Export Plug-In . SVG Version: 6.00 Build 0)  -->
<!DOCTYPE svg PUBLIC "-//W3C//DTD SVG 1.1//EN" "http://www.w3.org/Graphics/SVG/1.1/DTD/svg11.dtd">
<svg version="1.1" id="Layer_1" xmlns="http://www.w3.org/2000/svg" xmlns:xlink="http://www.w3.org/1999/xlink" x="0px" y="0px"
	 width="28px" height="44px" viewBox="0 0 28 44" style="enable-background:new 0 0 28 44;" xml:space="preserve">
<g id="_x39_19-ipod-touch-toolbar-selected_x40_2x.png">
	<g>
		<path d="M0,40c0,2.209,1.791,4,4,4h20c2.209,0,4-1.791,4-4v-4H0V40z M14,37c1.104,0,2,0.896,2,2s-0.896,2-2,2s-2-0.896-2-2
			S12.896,37,14,37z M24,0H4C1.791,0,0,1.791,0,4v4h28V4C28,1.791,26.209,0,24,0z M16,6h-4c-0.553,0-1-0.447-1-1s0.447-1,1-1h4
			c0.553,0,1,0.447,1,1S16.553,6,16,6z M0,34h28V10H0V34z"/>
	</g>
</g>
<g>
</g>
<g>
</g>
<g>
</g>
<g>
</g>
<g>
</g>
<g>
</g>
<g>
</g>
<g>
</g>
<g>
</g>
<g>
</g>
<g>
</g>
<g>
</g>
<g>
</g>
<g>
</g>
<g>
</g>
</svg>
