<?xml version="1.0" encoding="iso-8859-1"?>
<!-- Generator: Adobe Illustrator 16.0.4, SVG Export Plug-In . SVG Version: 6.00 Build 0)  -->
<!DOCTYPE svg PUBLIC "-//W3C//DTD SVG 1.1//EN" "http://www.w3.org/Graphics/SVG/1.1/DTD/svg11.dtd">
<svg version="1.1" id="Layer_1" xmlns="http://www.w3.org/2000/svg" xmlns:xlink="http://www.w3.org/1999/xlink" x="0px" y="0px"
	 width="44px" height="36px" viewBox="0 0 44 36" style="enable-background:new 0 0 44 36;" xml:space="preserve">
<g id="_x39_21-toolbox-toolbar-selected_x40_2x.png">
	<g>
		<path d="M16,16h-4v6h4V16z M34,22c0,1.104-0.896,2-2,2h-4c-1.104,0-2-0.896-2-2v-2h-8v2c0,1.104-0.896,2-2,2h-4
			c-1.104,0-2-0.896-2-2v-2H2v12c0,2.209,1.791,4,4,4h32c2.209,0,4-1.791,4-4V20h-8V22z M32,16h-4v6h4V16z M40,6H30V4
			c0-2.209-1.791-4-4-4h-8c-2.209,0-4,1.791-4,4v2H4c-2.209,0-4,1.791-4,4v8h10v-2c0-1.104,0.896-2,2-2h4c1.104,0,2,0.896,2,2v2h8
			v-2c0-1.104,0.896-2,2-2h4c1.104,0,2,0.896,2,2v2h10v-8C44,7.791,42.209,6,40,6z M28,6H16V4c0-1.104,0.896-2,2-2h8
			c1.104,0,2,0.896,2,2V6z"/>
	</g>
</g>
<g>
</g>
<g>
</g>
<g>
</g>
<g>
</g>
<g>
</g>
<g>
</g>
<g>
</g>
<g>
</g>
<g>
</g>
<g>
</g>
<g>
</g>
<g>
</g>
<g>
</g>
<g>
</g>
<g>
</g>
</svg>
