<?xml version="1.0" encoding="iso-8859-1"?>
<!-- Generator: Adobe Illustrator 16.0.4, SVG Export Plug-In . SVG Version: 6.00 Build 0)  -->
<!DOCTYPE svg PUBLIC "-//W3C//DTD SVG 1.1//EN" "http://www.w3.org/Graphics/SVG/1.1/DTD/svg11.dtd">
<svg version="1.1" id="Layer_1" xmlns="http://www.w3.org/2000/svg" xmlns:xlink="http://www.w3.org/1999/xlink" x="0px" y="0px"
	 width="44px" height="36px" viewBox="0 0 44 36" style="enable-background:new 0 0 44 36;" xml:space="preserve">
<g id="_x39_22-suitcase-toolbar-selected_x40_2x.png">
	<g>
		<path d="M0,10v22c0,2.209,1.791,4,4,4h2V6H4C1.791,6,0,7.791,0,10z M30,4c0-2.209-1.791-4-4-4h-8c-2.209,0-4,1.791-4,4v2H8v30h28
			V6h-6V4z M28,6H16V4c0-1.104,0.896-2,2-2h8c1.104,0,2,0.896,2,2V6z M40,6h-2v30h2c2.209,0,4-1.791,4-4V10C44,7.791,42.209,6,40,6z
			"/>
	</g>
</g>
<g>
</g>
<g>
</g>
<g>
</g>
<g>
</g>
<g>
</g>
<g>
</g>
<g>
</g>
<g>
</g>
<g>
</g>
<g>
</g>
<g>
</g>
<g>
</g>
<g>
</g>
<g>
</g>
<g>
</g>
</svg>
