<?xml version="1.0" encoding="iso-8859-1"?>
<!-- Generator: Adobe Illustrator 16.0.4, SVG Export Plug-In . SVG Version: 6.00 Build 0)  -->
<!DOCTYPE svg PUBLIC "-//W3C//DTD SVG 1.1//EN" "http://www.w3.org/Graphics/SVG/1.1/DTD/svg11.dtd">
<svg version="1.1" id="Layer_1" xmlns="http://www.w3.org/2000/svg" xmlns:xlink="http://www.w3.org/1999/xlink" x="0px" y="0px"
	 width="28px" height="44px" viewBox="0 0 28 44" style="enable-background:new 0 0 28 44;" xml:space="preserve">
<g id="_x39_23-spray-can-toolbar-selected_x40_2x.png">
	<g>
		<path d="M12,32h6V22h-6V32z M10,9V6c0-0.552-0.447-1-1-1C8.448,5,8,5.448,8,6v3H7l-7,6v1v26c0,1.104,0.896,2,2,2h14
			c1.104,0,2-0.896,2-2v-8h-7c-0.553,0-1-0.447-1-1V21c0-0.552,0.447-1,1-1h7v-4v-1l-7-6H10z M27,0c-0.116,0-0.224,0.03-0.327,0.066
			l-0.003-0.01l-14,5l0.003,0.01C12.283,5.203,12,5.563,12,6c0,0.406,0.244,0.752,0.592,0.908L12.59,6.912l14,7l0.002-0.004
			C26.717,13.965,26.854,14,27,14c0.553,0,1-0.447,1-1V1C28,0.448,27.553,0,27,0z"/>
	</g>
</g>
<g>
</g>
<g>
</g>
<g>
</g>
<g>
</g>
<g>
</g>
<g>
</g>
<g>
</g>
<g>
</g>
<g>
</g>
<g>
</g>
<g>
</g>
<g>
</g>
<g>
</g>
<g>
</g>
<g>
</g>
</svg>
