<?xml version="1.0" encoding="iso-8859-1"?>
<!-- Generator: Adobe Illustrator 16.0.4, SVG Export Plug-In . SVG Version: 6.00 Build 0)  -->
<!DOCTYPE svg PUBLIC "-//W3C//DTD SVG 1.1//EN" "http://www.w3.org/Graphics/SVG/1.1/DTD/svg11.dtd">
<svg version="1.1" id="Layer_1" xmlns="http://www.w3.org/2000/svg" xmlns:xlink="http://www.w3.org/1999/xlink" x="0px" y="0px"
	 width="44px" height="36px" viewBox="0 0 44 36" style="enable-background:new 0 0 44 36;" xml:space="preserve">
<g id="_x39_27-film-roll-toolbar-selected_x40_2x.png">
	<g>
		<path d="M11.989,3c-1.658,0-3.002,0.448-3.002,1c0,0.553,1.344,1,3.002,1s3.002-0.447,3.002-1C14.991,3.448,13.647,3,11.989,3z
			 M24.009,8V4H24c0-2.209-5.373-4-12-4S0,1.791,0,4v28c0,2.209,5.373,4,12,4s12-1.791,12-4h0.009v-2H44V8H24.009z M12,6
			C6.478,6,2,5.104,2,4s4.478-2,10-2s10,0.896,10,2S17.522,6,12,6z M24.009,10h1.997v3h-1.997V10z M27.999,15v8h-1.998v-8H27.999z
			 M26.006,28h-1.997v-3h1.997V28z M30.006,28h-2.02v-3h2.02V28z M30.006,13h-2.02v-3h2.02V13z M33.993,28h-1.982v-3h1.982V28z
			 M33.993,13h-1.982v-3h1.982V13z M37.98,28h-1.982v-3h1.982V28z M37.98,13h-1.982v-3h1.982V13z M41.991,28h-2.005v-3h2.005V28z
			 M41.991,13h-2.005v-3h2.005V13z"/>
	</g>
</g>
<g>
</g>
<g>
</g>
<g>
</g>
<g>
</g>
<g>
</g>
<g>
</g>
<g>
</g>
<g>
</g>
<g>
</g>
<g>
</g>
<g>
</g>
<g>
</g>
<g>
</g>
<g>
</g>
<g>
</g>
</svg>
