<?xml version="1.0" encoding="iso-8859-1"?>
<!-- Generator: Adobe Illustrator 16.0.4, SVG Export Plug-In . SVG Version: 6.00 Build 0)  -->
<!DOCTYPE svg PUBLIC "-//W3C//DTD SVG 1.1//EN" "http://www.w3.org/Graphics/SVG/1.1/DTD/svg11.dtd">
<svg version="1.1" id="Layer_1" xmlns="http://www.w3.org/2000/svg" xmlns:xlink="http://www.w3.org/1999/xlink" x="0px" y="0px"
	 width="44px" height="32px" viewBox="0 0 44 32" style="enable-background:new 0 0 44 32;" xml:space="preserve">
<g id="_x39_35-power-socket-toolbar-selected_x40_2x.png">
	<g>
		<path d="M36.991,0.007V0H7.009v0.007C3.133,0.084,0,7.211,0,16s3.133,15.916,7.009,15.993V32h29.982v-0.007
			C40.867,31.916,44,24.789,44,16S40.867,0.084,36.991,0.007z M16,17c0,0.553-0.447,1-1,1s-1-0.447-1-1V9c0-0.552,0.447-1,1-1
			s1,0.448,1,1V17z M24,24h-4c-0.552,0-1-0.447-1-1c0,0,0-3,3-3s3,3,3,3C25,23.553,24.553,24,24,24z M30,17c0,0.553-0.447,1-1,1
			s-1-0.447-1-1V9c0-0.552,0.447-1,1-1s1,0.448,1,1V17z"/>
	</g>
</g>
<g>
</g>
<g>
</g>
<g>
</g>
<g>
</g>
<g>
</g>
<g>
</g>
<g>
</g>
<g>
</g>
<g>
</g>
<g>
</g>
<g>
</g>
<g>
</g>
<g>
</g>
<g>
</g>
<g>
</g>
</svg>
