<?xml version="1.0" encoding="iso-8859-1"?>
<!-- Generator: Adobe Illustrator 16.0.4, SVG Export Plug-In . SVG Version: 6.00 Build 0)  -->
<!DOCTYPE svg PUBLIC "-//W3C//DTD SVG 1.1//EN" "http://www.w3.org/Graphics/SVG/1.1/DTD/svg11.dtd">
<svg version="1.1" id="Layer_1" xmlns="http://www.w3.org/2000/svg" xmlns:xlink="http://www.w3.org/1999/xlink" x="0px" y="0px"
	 width="44px" height="32px" viewBox="0 0 44 32" style="enable-background:new 0 0 44 32;" xml:space="preserve">
<g id="_x39_37-wifi-signal-toolbar-selected_x40_2x.png">
	<g>
		<path d="M26.893,26.01l0.004-0.004C25.634,24.769,23.908,24,22,24s-3.634,0.769-4.896,2.006l0.004,0.004
			c0,0.001-0.001,0.001-0.002,0.002c-0.391,0.391-0.391,1.023,0,1.414l4.188,4.281C21.474,31.888,21.724,32,22,32
			s0.526-0.112,0.707-0.293l4.188-4.281c0.391-0.391,0.391-1.023,0-1.414C26.894,26.011,26.893,26.011,26.893,26.01z M32.428,20.231
			C29.728,17.617,26.056,16,22,16s-7.728,1.617-10.428,4.231c-0.029,0.023-0.064,0.034-0.092,0.062
			c-0.391,0.391-0.391,1.023,0,1.414l2.781,2.844l0.006-0.006c0.011,0.011,0.015,0.026,0.025,0.037c0.391,0.391,1.023,0.391,1.414,0
			c0.008-0.008,0.01-0.018,0.018-0.025C17.346,22.977,19.558,22,22,22s4.654,0.977,6.275,2.557c0.008,0.008,0.01,0.018,0.018,0.025
			c0.391,0.391,1.023,0.391,1.414,0c0.011-0.011,0.015-0.026,0.025-0.037l0.006,0.006l2.781-2.844c0.391-0.391,0.391-1.023,0-1.414
			C32.492,20.266,32.457,20.255,32.428,20.231z M38.001,14.5C33.86,10.483,28.225,8,22,8c-6.224,0-11.86,2.483-16.001,6.499
			c-0.036,0.028-0.079,0.042-0.112,0.075c-0.391,0.391-0.391,1.023,0,1.414l2.781,2.844l0.019-0.019
			c0.006,0.006,0.007,0.013,0.013,0.019c0.383,0.383,0.996,0.385,1.389,0.018l0.016,0.017C13.17,15.859,17.366,14,22,14
			s8.83,1.859,11.896,4.866l0.016-0.017c0.393,0.367,1.006,0.365,1.389-0.018c0.006-0.006,0.007-0.013,0.013-0.019l0.019,0.019
			l2.781-2.844c0.391-0.391,0.391-1.023,0-1.414C38.08,14.541,38.037,14.527,38.001,14.5z M43.707,8.887
			c-0.005-0.005-0.012-0.006-0.017-0.011l0.008-0.008C38.106,3.385,30.45,0,22,0S5.894,3.385,0.302,8.868L0.31,8.876
			C0.305,8.881,0.298,8.882,0.293,8.887c-0.391,0.391-0.391,1.023,0,1.414l2.781,2.844c0.391,0.391,1.023,0.391,1.414,0
			c0.001-0.001,0.002-0.003,0.003-0.004l0.015,0.016C9.016,8.734,15.186,6,22,6s12.984,2.734,17.494,7.156l0.015-0.016
			c0.001,0.001,0.002,0.003,0.003,0.004c0.391,0.391,1.023,0.391,1.414,0l2.781-2.844C44.098,9.91,44.098,9.277,43.707,8.887z"/>
	</g>
</g>
<g>
</g>
<g>
</g>
<g>
</g>
<g>
</g>
<g>
</g>
<g>
</g>
<g>
</g>
<g>
</g>
<g>
</g>
<g>
</g>
<g>
</g>
<g>
</g>
<g>
</g>
<g>
</g>
<g>
</g>
</svg>
