<?xml version="1.0" encoding="iso-8859-1"?>
<!-- Generator: Adobe Illustrator 16.0.4, SVG Export Plug-In . SVG Version: 6.00 Build 0)  -->
<!DOCTYPE svg PUBLIC "-//W3C//DTD SVG 1.1//EN" "http://www.w3.org/Graphics/SVG/1.1/DTD/svg11.dtd">
<svg version="1.1" id="Layer_1" xmlns="http://www.w3.org/2000/svg" xmlns:xlink="http://www.w3.org/1999/xlink" x="0px" y="0px"
	 width="32px" height="44px" viewBox="0 0 32 44" style="enable-background:new 0 0 32 44;" xml:space="preserve">
<g id="_x39_39-download-rectangle-toolbar-selected_x40_2x.png">
	<g>
		<path d="M30,0H2C0.896,0,0,0.896,0,2v40c0,1.104,0.896,2,2,2h28c1.104,0,2-0.896,2-2V2C32,0.896,31.104,0,30,0z M22.707,26.707
			l-6,6C16.526,32.889,16.276,33,16,33s-0.526-0.111-0.707-0.293l-6-6C9.112,26.526,9,26.276,9,26c0-0.552,0.447-1,1-1
			c0.276,0,0.526,0.112,0.707,0.293L15,29.586V10c0-0.552,0.448-1,1-1c0.553,0,1,0.448,1,1v19.586l4.293-4.293
			C21.474,25.112,21.724,25,22,25c0.553,0,1,0.448,1,1C23,26.276,22.888,26.526,22.707,26.707z"/>
	</g>
</g>
<g>
</g>
<g>
</g>
<g>
</g>
<g>
</g>
<g>
</g>
<g>
</g>
<g>
</g>
<g>
</g>
<g>
</g>
<g>
</g>
<g>
</g>
<g>
</g>
<g>
</g>
<g>
</g>
<g>
</g>
</svg>
