<?xml version="1.0" encoding="iso-8859-1"?>
<!-- Generator: Adobe Illustrator 16.0.4, SVG Export Plug-In . SVG Version: 6.00 Build 0)  -->
<!DOCTYPE svg PUBLIC "-//W3C//DTD SVG 1.1//EN" "http://www.w3.org/Graphics/SVG/1.1/DTD/svg11.dtd">
<svg version="1.1" id="Layer_1" xmlns="http://www.w3.org/2000/svg" xmlns:xlink="http://www.w3.org/1999/xlink" x="0px" y="0px"
	 width="43.901px" height="43.898px" viewBox="0 0 43.901 43.898" style="enable-background:new 0 0 43.901 43.898;"
	 xml:space="preserve">
<g id="_x39_45-radar-toolbar-selected_x40_2x.png">
	<g>
		<path d="M25.804,22.955h-2.848v2.847C24.35,25.438,25.438,24.346,25.804,22.955z M35.889,20.943h8.013
			C43.387,9.601,34.3,0.515,22.956,0v8.014C29.876,8.507,35.395,14.024,35.889,20.943z M22.956,18.097v2.847h2.848
			C25.438,19.554,24.35,18.46,22.956,18.097z M28.959,29.947c0-1.658,1.344-3.002,3.002-3.002c0.294,0,0.572,0.056,0.841,0.134
			c0.602-1.269,0.987-2.658,1.108-4.124h-6.047c-0.425,2.504-2.4,4.473-4.907,4.897v6.055c2.402-0.199,4.596-1.114,6.388-2.518
			C29.105,30.96,28.959,30.473,28.959,29.947z M8.012,22.955H0c0.514,11.343,9.601,20.43,20.944,20.943v-8.013
			C14.024,35.392,8.506,29.874,8.012,22.955z M27.863,20.943h6.047c-0.484-5.827-5.126-10.467-10.954-10.952v6.056
			C25.463,16.472,27.438,18.439,27.863,20.943z M0,20.943h8.012c0.25-3.499,1.789-6.638,4.141-8.951
			c-0.119-0.323-0.193-0.668-0.193-1.032c0-1.658,1.344-3.002,3.002-3.002c0.835,0,1.589,0.342,2.134,0.893
			c1.213-0.45,2.504-0.741,3.85-0.837V0C9.601,0.515,0.514,9.601,0,20.943z M34.421,28.232c0.34,0.487,0.542,1.076,0.542,1.715
			c0,1.658-1.344,3.002-3.002,3.002c-0.398,0-0.776-0.081-1.124-0.222c-2.173,1.793-4.895,2.945-7.881,3.158v8.013
			c11.345-0.514,20.431-9.601,20.945-20.943h-8.013C35.754,24.846,35.232,26.625,34.421,28.232z M17.963,10.96
			c0,1.658-1.344,3.002-3.002,3.002c-0.569,0-1.096-0.167-1.549-0.442c-1.92,1.943-3.182,4.537-3.422,7.424h6.047
			c0.425-2.504,2.4-4.472,4.907-4.896V9.991c-1.049,0.088-2.058,0.314-3.013,0.653C17.942,10.75,17.963,10.852,17.963,10.96z
			 M18.097,20.943h2.848v-2.847C19.551,18.46,18.463,19.554,18.097,20.943z M16.037,22.955H9.99
			c0.484,5.827,5.126,10.468,10.954,10.952v-6.055C18.438,27.428,16.462,25.459,16.037,22.955z M20.944,25.802v-2.847h-2.848
			C18.462,24.346,19.551,25.438,20.944,25.802z"/>
	</g>
</g>
<g>
</g>
<g>
</g>
<g>
</g>
<g>
</g>
<g>
</g>
<g>
</g>
<g>
</g>
<g>
</g>
<g>
</g>
<g>
</g>
<g>
</g>
<g>
</g>
<g>
</g>
<g>
</g>
<g>
</g>
</svg>
