<?xml version="1.0" encoding="iso-8859-1"?>
<!-- Generator: Adobe Illustrator 16.0.4, SVG Export Plug-In . SVG Version: 6.00 Build 0)  -->
<!DOCTYPE svg PUBLIC "-//W3C//DTD SVG 1.1//EN" "http://www.w3.org/Graphics/SVG/1.1/DTD/svg11.dtd">
<svg version="1.1" id="Layer_1" xmlns="http://www.w3.org/2000/svg" xmlns:xlink="http://www.w3.org/1999/xlink" x="0px" y="0px"
	 width="43.902px" height="43.898px" viewBox="0 0 43.902 43.898" style="enable-background:new 0 0 43.902 43.898;"
	 xml:space="preserve">
<g id="_x39_47-target-reticle-toolbar-selected_x40_2x.png">
	<g>
		<path d="M35.951,21.949c0-0.553,0.447-1,1-1h6.951C43.391,9.602,34.3,0.511,22.951,0v6.949c0,0.553-0.447,1-1,1s-1-0.447-1-1V0
			C9.603,0.511,0.512,9.602,0,20.949h6.951c0.553,0,1,0.447,1,1s-0.447,1-1,1H0c0.512,11.348,9.603,20.438,20.951,20.949v-6.949
			c0-0.552,0.447-1,1-1s1,0.448,1,1v6.949c11.349-0.511,20.439-9.602,20.951-20.949h-6.951
			C36.398,22.949,35.951,22.502,35.951,21.949z"/>
	</g>
</g>
<g>
</g>
<g>
</g>
<g>
</g>
<g>
</g>
<g>
</g>
<g>
</g>
<g>
</g>
<g>
</g>
<g>
</g>
<g>
</g>
<g>
</g>
<g>
</g>
<g>
</g>
<g>
</g>
<g>
</g>
</svg>
