<?xml version="1.0" encoding="iso-8859-1"?>
<!-- Generator: Adobe Illustrator 16.0.4, SVG Export Plug-In . SVG Version: 6.00 Build 0)  -->
<!DOCTYPE svg PUBLIC "-//W3C//DTD SVG 1.1//EN" "http://www.w3.org/Graphics/SVG/1.1/DTD/svg11.dtd">
<svg version="1.1" id="Layer_1" xmlns="http://www.w3.org/2000/svg" xmlns:xlink="http://www.w3.org/1999/xlink" x="0px" y="0px"
	 width="43.982px" height="43.984px" viewBox="0 0 43.982 43.984" style="enable-background:new 0 0 43.982 43.984;"
	 xml:space="preserve">
<g id="_x39_49-paint-brush-toolbar-selected_x40_2x.png">
	<g>
		<path d="M0.62,23.574c-0.238,0.051-0.439,0.209-0.543,0.428c-0.104,0.219-0.104,0.475,0.004,0.691
			c5.531,11.06,17.065,18.834,17.554,19.159c0.13,0.087,0.282,0.132,0.435,0.132c0.084,0,0.168-0.013,0.248-0.039
			c0.229-0.076,0.412-0.254,0.492-0.482c2.277-6.375,5.627-10.027,8.131-12.106l-14.76-14.761C5.927,22.354,0.68,23.561,0.62,23.574
			z M43.228,0.755C42.727,0.254,42.04,0,41.187,0c-5.045,0-17.287,10.152-19.609,15.738l-2.166-2.166
			c-0.764-0.766-1.48-1.138-2.186-1.138c-0.932,0-1.562,0.631-2.099,1.17c-0.506,0.566-1.009,1.096-1.507,1.602l14.925,14.925
			c0.378-0.265,0.712-0.485,0.983-0.664c0.441-0.29,0.707-0.465,0.883-0.641c0.744-0.743,2.128-2.127,0-4.254l-2.185-2.185
			c4.425-1.898,12.269-9.936,15.044-16.637C44.233,3.427,44.22,1.746,43.228,0.755z M37.495,8.005c-0.824,0-1.493-0.675-1.493-1.509
			c0-0.833,0.669-1.508,1.493-1.508c0.825,0,1.494,0.675,1.494,1.508C38.989,7.33,38.32,8.005,37.495,8.005z"/>
	</g>
</g>
<g>
</g>
<g>
</g>
<g>
</g>
<g>
</g>
<g>
</g>
<g>
</g>
<g>
</g>
<g>
</g>
<g>
</g>
<g>
</g>
<g>
</g>
<g>
</g>
<g>
</g>
<g>
</g>
<g>
</g>
</svg>
