<?xml version="1.0" encoding="iso-8859-1"?>
<!-- Generator: Adobe Illustrator 16.0.4, SVG Export Plug-In . SVG Version: 6.00 Build 0)  -->
<!DOCTYPE svg PUBLIC "-//W3C//DTD SVG 1.1//EN" "http://www.w3.org/Graphics/SVG/1.1/DTD/svg11.dtd">
<svg version="1.1" id="Layer_1" xmlns="http://www.w3.org/2000/svg" xmlns:xlink="http://www.w3.org/1999/xlink" x="0px" y="0px"
	 width="28.025px" height="44px" viewBox="0 0 28.025 44" style="enable-background:new 0 0 28.025 44;" xml:space="preserve">
<g id="_x39_51-baby-toolbar-selected_x40_2x.png">
	<g>
		<path d="M22.868,22.113l0.011-0.01c0.545,0.555,1.302,0.899,2.141,0.899c1.66,0,3.006-1.347,3.006-3.007
			c0-0.845-0.351-1.605-0.91-2.151l-7.39-7.514c-0.181-0.199-0.434-0.329-0.722-0.33V10H18.45c0.951-1.062,1.547-2.454,1.547-3.996
			C19.997,2.688,17.318,0,14.012,0c-3.305,0-5.984,2.688-5.984,6.004c0,1.542,0.596,2.934,1.547,3.996H9.021v0.001
			c-0.277,0.001-0.525,0.118-0.705,0.304l-0.012-0.012l-7.239,7.422C0.419,18.267,0,19.078,0,19.996c0,1.66,1.346,3.007,3.005,3.007
			c0.856,0,1.623-0.363,2.169-0.938l0.832-0.843v3.47l-2.701,3.602l0.002,0.003c-0.191,0.179-0.312,0.429-0.312,0.707
			c0,0.028,0.014,0.053,0.017,0.081v6.838c-0.002,0.028-0.017,0.053-0.017,0.081c0,0.279,0.121,0.528,0.312,0.708l5.389,6.172
			C9.247,43.559,10.075,44,11.015,44c1.603,0,2.9-1.261,2.982-2.842C14.079,42.739,15.376,44,16.979,44
			c0.929,0,1.749-0.432,2.299-1.096l5.438-6.193c0.191-0.18,0.312-0.429,0.312-0.708c0-0.028-0.014-0.053-0.017-0.081v-6.838
			c0.003-0.028,0.017-0.053,0.017-0.081c0-0.278-0.121-0.528-0.312-0.707l0.003-0.003l-2.718-3.586v-3.47L22.868,22.113z
			 M14.793,38.969l0.004,0.004c-0.461,0.499-0.763,1.149-0.801,1.875c-0.04-0.755-0.349-1.438-0.846-1.944l-3.005-4.053L11.686,31
			h4.622l1.541,3.851L14.793,38.969z"/>
	</g>
</g>
<g>
</g>
<g>
</g>
<g>
</g>
<g>
</g>
<g>
</g>
<g>
</g>
<g>
</g>
<g>
</g>
<g>
</g>
<g>
</g>
<g>
</g>
<g>
</g>
<g>
</g>
<g>
</g>
<g>
</g>
</svg>
