<?xml version="1.0" encoding="iso-8859-1"?>
<!-- Generator: Adobe Illustrator 16.0.4, SVG Export Plug-In . SVG Version: 6.00 Build 0)  -->
<!DOCTYPE svg PUBLIC "-//W3C//DTD SVG 1.1//EN" "http://www.w3.org/Graphics/SVG/1.1/DTD/svg11.dtd">
<svg version="1.1" id="Layer_1" xmlns="http://www.w3.org/2000/svg" xmlns:xlink="http://www.w3.org/1999/xlink" x="0px" y="0px"
	 width="44px" height="36px" viewBox="0 0 44 36" style="enable-background:new 0 0 44 36;" xml:space="preserve">
<g id="_x39_52-shopping-cart-toolbar-selected_x40_2x.png">
	<g>
		<path d="M35.2,6H27v6h6.778L35.2,6z M19.17,26l-1.125-6h-6.107l1.08,5.188l0.02-0.003C13.127,25.646,13.514,26,14,26H19.17z
			 M21.205,26H25v-6h-4.92L21.205,26z M16.92,14h-6.232l0.833,4h6.149L16.92,14z M33.304,14H27v4h5.355L33.304,14z M15.42,6h-4.356
			L9.982,0.812l-0.02,0.004C9.873,0.354,9.486,0,9,0H1C0.448,0,0,0.448,0,1c0,0.553,0.448,1,1,1h7.188l2.083,10h6.274L15.42,6z
			 M18,28c-2.209,0-4,1.791-4,4s1.791,4,4,4s4-1.791,4-4S20.209,28,18,28z M32.514,26H37c0.452,0,0.819-0.306,0.943-0.717
			l0.015,0.004L39.721,20h-5.784L32.514,26z M34.41,18h5.977l1.334-4h-6.362L34.41,18z M44,7c0-0.552-0.447-1-1-1h-5.746l-1.422,6
			h6.555l1.571-4.713l-0.015-0.004C43.971,7.191,44,7.101,44,7z M18.58,12H25V6h-7.545L18.58,12z M19.705,18H25v-4h-6.045L19.705,18
			z M34,28c-2.209,0-4,1.791-4,4s1.791,4,4,4s4-1.791,4-4S36.209,28,34,28z M31.882,20H27v6h3.46L31.882,20z"/>
	</g>
</g>
<g>
</g>
<g>
</g>
<g>
</g>
<g>
</g>
<g>
</g>
<g>
</g>
<g>
</g>
<g>
</g>
<g>
</g>
<g>
</g>
<g>
</g>
<g>
</g>
<g>
</g>
<g>
</g>
<g>
</g>
</svg>
