<?xml version="1.0" encoding="iso-8859-1"?>
<!-- Generator: Adobe Illustrator 16.0.4, SVG Export Plug-In . SVG Version: 6.00 Build 0)  -->
<!DOCTYPE svg PUBLIC "-//W3C//DTD SVG 1.1//EN" "http://www.w3.org/Graphics/SVG/1.1/DTD/svg11.dtd">
<svg version="1.1" id="Layer_1" xmlns="http://www.w3.org/2000/svg" xmlns:xlink="http://www.w3.org/1999/xlink" x="0px" y="0px"
	 width="43.996px" height="44.016px" viewBox="0 0 43.996 44.016" style="enable-background:new 0 0 43.996 44.016;"
	 xml:space="preserve">
<g id="_x39_53-paw-print-toolbar-selected_x40_2x.png">
	<g>
		<path d="M40.288,10.084c-0.365-0.102-0.734-0.15-1.103-0.15c-2.528,0-5.021,2.296-5.885,5.637
			c-0.988,3.827,0.537,7.577,3.407,8.374c0.365,0.102,0.734,0.15,1.104,0.15c2.528,0,5.021-2.296,5.884-5.636
			C44.683,14.631,43.158,10.882,40.288,10.084z M16.175,14.161c0.368,0,0.738-0.049,1.104-0.15c2.87-0.798,4.395-4.547,3.406-8.375
			C19.823,2.296,17.331,0,14.801,0c-0.368,0-0.737,0.049-1.103,0.15c-2.871,0.797-4.396,4.547-3.406,8.374
			C11.155,11.865,13.647,14.161,16.175,14.161z M26.716,14.011c0.365,0.102,0.734,0.15,1.104,0.15c2.528,0,5.021-2.296,5.883-5.637
			c0.989-3.827-0.536-7.577-3.406-8.374C29.931,0.049,29.562,0,29.193,0c-2.527,0-5.021,2.296-5.883,5.636
			C22.322,9.464,23.846,13.213,26.716,14.011z M35.783,29.892c-1.563-0.634-3.182-1.29-4.455-2.833
			c-1.372-1.661-1.925-3.476-2.459-5.229c-0.914-2.998-1.775-5.831-6.656-5.831h-0.43c-4.881,0-5.743,2.832-6.656,5.831
			c-0.534,1.754-1.087,3.568-2.458,5.229c-1.275,1.543-2.893,2.199-4.456,2.833c-2.57,1.043-5.229,2.121-5.229,6.997
			c0,3.369,1.002,6.956,8.434,7.122c0.117,0.003,0.231,0.004,0.344,0.004c2.877,0,4.034-0.784,5.162-1.549
			c1.084-0.738,2.109-1.459,5.074-1.459s3.99,0.721,5.076,1.459c1.124,0.764,2.287,1.55,5.139,1.55c0,0,0.001,0,0.002,0
			c0.118,0,0.238-0.001,0.363-0.005c7.432-0.166,8.434-3.753,8.434-7.122C41.011,32.013,38.353,30.935,35.783,29.892z M7.289,23.944
			c2.869-0.797,4.394-4.547,3.406-8.374C9.832,12.229,7.338,9.934,4.81,9.934c-0.368,0-0.737,0.049-1.103,0.15
			c-2.87,0.798-4.396,4.547-3.406,8.375c0.862,3.34,3.354,5.636,5.884,5.636C6.553,24.095,6.922,24.046,7.289,23.944z"/>
	</g>
</g>
<g>
</g>
<g>
</g>
<g>
</g>
<g>
</g>
<g>
</g>
<g>
</g>
<g>
</g>
<g>
</g>
<g>
</g>
<g>
</g>
<g>
</g>
<g>
</g>
<g>
</g>
<g>
</g>
<g>
</g>
</svg>
