<?xml version="1.0" encoding="iso-8859-1"?>
<!-- Generator: Adobe Illustrator 16.0.4, SVG Export Plug-In . SVG Version: 6.00 Build 0)  -->
<!DOCTYPE svg PUBLIC "-//W3C//DTD SVG 1.1//EN" "http://www.w3.org/Graphics/SVG/1.1/DTD/svg11.dtd">
<svg version="1.1" id="Layer_1" xmlns="http://www.w3.org/2000/svg" xmlns:xlink="http://www.w3.org/1999/xlink" x="0px" y="0px"
	 width="24px" height="44px" viewBox="0 0 24 44" style="enable-background:new 0 0 24 44;" xml:space="preserve">
<g id="_x39_56-wine-glass-toolbar-selected_x40_2x.png">
	<g>
		<path d="M24,14V1c0-0.552-0.447-1-1-1H1C0.447,0,0,0.448,0,1v13c0,6.29,4.842,11.44,11,11.949V42H1c-0.553,0-1,0.447-1,1
			s0.447,1,1,1h10h2h10c0.553,0,1-0.447,1-1s-0.447-1-1-1H13V25.949C19.158,25.44,24,20.29,24,14z M12.352,7.72
			C8.399,5.921,4.778,5.787,2,6.162C2,3.732,2,2,2,2h10h10v5.372c0,0.471,0,0.953,0,1.434C19.278,9.161,15.72,9.158,12.352,7.72z"/>
	</g>
</g>
<g>
</g>
<g>
</g>
<g>
</g>
<g>
</g>
<g>
</g>
<g>
</g>
<g>
</g>
<g>
</g>
<g>
</g>
<g>
</g>
<g>
</g>
<g>
</g>
<g>
</g>
<g>
</g>
<g>
</g>
</svg>
