<?xml version="1.0" encoding="iso-8859-1"?>
<!-- Generator: Adobe Illustrator 16.0.4, SVG Export Plug-In . SVG Version: 6.00 Build 0)  -->
<!DOCTYPE svg PUBLIC "-//W3C//DTD SVG 1.1//EN" "http://www.w3.org/Graphics/SVG/1.1/DTD/svg11.dtd">
<svg version="1.1" id="Layer_1" xmlns="http://www.w3.org/2000/svg" xmlns:xlink="http://www.w3.org/1999/xlink" x="0px" y="0px"
	 width="36px" height="44px" viewBox="0 0 36 44" style="enable-background:new 0 0 36 44;" xml:space="preserve">
<g id="_x39_57-beer-mug-toolbar-selected_x40_2x.png">
	<g>
		<path d="M28.761,14.628C27.38,15.493,25.751,16,24,16c-1.815,0-3.502-0.542-4.916-1.467C18.277,14.83,17.409,15,16.5,15
			c-0.575,0-1.134-0.07-1.672-0.193C13.559,15.56,12.083,16,10.5,16c-1.654,0-3.193-0.48-4.5-1.298V16H2c-1.104,0-2,0.896-2,2v16
			c0,1.104,0.896,2,2,2h4v6c0,1.104,0.896,2,2,2h24c1.104,0,2-0.896,2-2V14.317C33.09,14.751,32.075,15,31,15
			C30.216,15,29.465,14.865,28.761,14.628z M6,34H2V18h4V34z M15,36c0,0.553-0.447,1-1,1s-1-0.447-1-1V21c0-0.552,0.447-1,1-1
			s1,0.448,1,1V36z M21,36c0,0.553-0.447,1-1,1s-1-0.447-1-1V21c0-0.552,0.447-1,1-1s1,0.448,1,1V36z M27,36c0,0.553-0.447,1-1,1
			s-1-0.447-1-1V21c0-0.552,0.447-1,1-1s1,0.448,1,1V36z M31,3c-0.4,0-0.784,0.06-1.158,0.148C28.59,1.252,26.442,0,24,0
			c-2.13,0-4.033,0.954-5.317,2.455C18.013,2.165,17.276,2,16.5,2c-0.715,0-1.394,0.146-2.021,0.395C13.377,1.534,12.007,1,10.5,1
			C6.91,1,4,3.91,4,7.5S6.91,14,10.5,14c1.507,0,2.877-0.534,3.979-1.395C15.106,12.854,15.785,13,16.5,13
			c1.037,0,1.995-0.304,2.823-0.803C20.563,13.314,22.199,14,24,14c1.731,0,3.313-0.632,4.536-1.674C29.266,12.743,30.1,13,31,13
			c2.762,0,5-2.238,5-5S33.762,3,31,3z"/>
	</g>
</g>
<g>
</g>
<g>
</g>
<g>
</g>
<g>
</g>
<g>
</g>
<g>
</g>
<g>
</g>
<g>
</g>
<g>
</g>
<g>
</g>
<g>
</g>
<g>
</g>
<g>
</g>
<g>
</g>
<g>
</g>
</svg>
