<?xml version="1.0" encoding="iso-8859-1"?>
<!-- Generator: Adobe Illustrator 16.0.4, SVG Export Plug-In . SVG Version: 6.00 Build 0)  -->
<!DOCTYPE svg PUBLIC "-//W3C//DTD SVG 1.1//EN" "http://www.w3.org/Graphics/SVG/1.1/DTD/svg11.dtd">
<svg version="1.1" id="Layer_1" xmlns="http://www.w3.org/2000/svg" xmlns:xlink="http://www.w3.org/1999/xlink" x="0px" y="0px"
	 width="44px" height="44px" viewBox="0 0 44 44" style="enable-background:new 0 0 44 44;" xml:space="preserve">
<g id="_x39_58-life-preserver-toolbar-selected_x40_2x.png">
	<g>
		<path d="M22,10c2.44,0,4.707,0.733,6.602,1.984l7.146-7.146C31.979,1.817,27.205,0,22,0S12.021,1.817,8.253,4.839l7.146,7.146
			C17.293,10.733,19.56,10,22,10z M10,22c0-2.44,0.732-4.707,1.984-6.602L4.839,8.253C1.817,12.021,0,16.795,0,22
			s1.817,9.979,4.839,13.747l7.146-7.146C10.733,26.707,10,24.44,10,22z M22,34c-2.44,0-4.707-0.732-6.602-1.984l-7.146,7.146
			C12.021,42.183,16.795,44,22,44s9.979-1.817,13.747-4.839l-7.146-7.146C26.707,33.268,24.44,34,22,34z M39.161,8.253l-7.146,7.146
			C33.268,17.293,34,19.56,34,22s-0.732,4.707-1.984,6.602l7.146,7.146C42.183,31.979,44,27.205,44,22S42.183,12.021,39.161,8.253z"
			/>
	</g>
</g>
<g>
</g>
<g>
</g>
<g>
</g>
<g>
</g>
<g>
</g>
<g>
</g>
<g>
</g>
<g>
</g>
<g>
</g>
<g>
</g>
<g>
</g>
<g>
</g>
<g>
</g>
<g>
</g>
<g>
</g>
</svg>
