<?xml version="1.0" encoding="iso-8859-1"?>
<!-- Generator: Adobe Illustrator 16.0.4, SVG Export Plug-In . SVG Version: 6.00 Build 0)  -->
<!DOCTYPE svg PUBLIC "-//W3C//DTD SVG 1.1//EN" "http://www.w3.org/Graphics/SVG/1.1/DTD/svg11.dtd">
<svg version="1.1" id="Layer_1" xmlns="http://www.w3.org/2000/svg" xmlns:xlink="http://www.w3.org/1999/xlink" x="0px" y="0px"
	 width="20px" height="44px" viewBox="0 0 20 44" style="enable-background:new 0 0 20 44;" xml:space="preserve">
<g id="_x39_59-thermometer-toolbar-selected_x40_2x.png">
	<g>
		<path d="M17.011,26.862V7.004C17.011,3.136,13.872,0,10,0S2.989,3.136,2.989,7.004V8H8c0.553,0,1,0.448,1,1c0,0.553-0.447,1-1,1
			H2.989v2H6c0.553,0,1,0.448,1,1c0,0.553-0.447,1-1,1H2.989v2H8c0.553,0,1,0.447,1,1s-0.447,1-1,1H2.989v2H6c0.553,0,1,0.448,1,1
			c0,0.553-0.447,1-1,1H2.989v4.862C1.146,28.678,0,31.2,0,33.993C0,39.52,4.478,44,10,44s10-4.48,10-10.007
			C20,31.2,18.854,28.678,17.011,26.862z M10,40.013c-3.318,0-6.01-2.688-6.01-6.004c0-2.221,1.217-4.144,3.01-5.182V25
			c0-0.553,0.447-1,1-1s1,0.447,1,1v4.438c0,0.419-0.259,0.775-0.624,0.924C6.979,30.984,6,32.38,6,34.008
			c0,2.207,1.791,3.996,4,3.996s4-1.789,4-3.996c0-1.628-0.979-3.023-2.376-3.646C11.259,30.213,11,29.856,11,29.438V13
			c0-0.552,0.447-1,1-1s1,0.448,1,1v15.827c1.793,1.038,3.01,2.961,3.01,5.182C16.01,37.324,13.319,40.013,10,40.013z"/>
	</g>
</g>
<g>
</g>
<g>
</g>
<g>
</g>
<g>
</g>
<g>
</g>
<g>
</g>
<g>
</g>
<g>
</g>
<g>
</g>
<g>
</g>
<g>
</g>
<g>
</g>
<g>
</g>
<g>
</g>
<g>
</g>
</svg>
