<?xml version="1.0" encoding="iso-8859-1"?>
<!-- Generator: Adobe Illustrator 16.0.4, SVG Export Plug-In . SVG Version: 6.00 Build 0)  -->
<!DOCTYPE svg PUBLIC "-//W3C//DTD SVG 1.1//EN" "http://www.w3.org/Graphics/SVG/1.1/DTD/svg11.dtd">
<svg version="1.1" id="Layer_1" xmlns="http://www.w3.org/2000/svg" xmlns:xlink="http://www.w3.org/1999/xlink" x="0px" y="0px"
	 width="43.995px" height="36.006px" viewBox="0 0 43.995 36.006" style="enable-background:new 0 0 43.995 36.006;"
	 xml:space="preserve">
<g id="_x39_62-puzzle-piece-toolbar-selected_x40_2x.png">
	<g>
		<path d="M40.992,13.749c3.131-1.677,3.83-4.096,2.022-6.999c-1.152-1.851-2.631-2.784-4.362-2.784
			c-0.984,0-2.05,0.302-3.185,0.909c-1.596,0.854-2.148,2.139-2.543,3.234l-4.82-7.743C27.958,0.132,27.692,0,27.419,0
			c-0.134,0-0.27,0.032-0.394,0.099L18.37,4.732c-0.251,0.135-0.402,0.386-0.394,0.654c0.007,0.268,0.173,0.511,0.432,0.633
			c0.66,0.311,1.131,0.717,1.481,1.28c1.365,2.191,0.919,3.733-1.444,4.999c-0.881,0.472-1.664,0.71-2.371,0.71
			c-1.189,0-2.163-0.675-3.02-2.05c-0.351-0.562-0.495-1.145-0.455-1.83c0.017-0.269-0.128-0.523-0.374-0.663
			c-0.127-0.072-0.271-0.108-0.414-0.108c-0.136,0-0.272,0.032-0.395,0.098L2.761,13.09c-0.377,0.202-0.507,0.649-0.289,0.999
			l4.822,7.746c-0.543-0.103-1.137-0.199-1.77-0.199c-0.788,0-1.637,0.15-2.522,0.624c-3.13,1.676-3.829,4.096-2.021,6.999
			c1.151,1.851,2.63,2.784,4.361,2.784c0.984,0,2.051-0.302,3.186-0.909c1.596-0.854,2.147-2.139,2.543-3.234l4.818,7.74
			c0.146,0.234,0.411,0.366,0.685,0.366c0.134,0,0.27-0.032,0.394-0.099l9.176-4.912c0.267-0.143,0.419-0.416,0.391-0.7
			c-0.027-0.284-0.231-0.527-0.521-0.623c-0.987-0.326-1.758-0.723-2.303-1.6c-1.365-2.191-0.92-3.733,1.444-4.999
			c0.881-0.472,1.664-0.71,2.371-0.71c1.189,0,2.163,0.675,3.02,2.05c0.545,0.877,0.531,1.693,0.342,2.649
			c-0.056,0.281,0.069,0.566,0.321,0.73c0.136,0.089,0.295,0.134,0.454,0.134c0.136,0,0.272-0.032,0.396-0.098l9.175-4.913
			c0.377-0.201,0.507-0.649,0.289-0.999L36.7,14.174c0.544,0.103,1.138,0.199,1.771,0.199
			C39.258,14.373,40.107,14.223,40.992,13.749z"/>
	</g>
</g>
<g>
</g>
<g>
</g>
<g>
</g>
<g>
</g>
<g>
</g>
<g>
</g>
<g>
</g>
<g>
</g>
<g>
</g>
<g>
</g>
<g>
</g>
<g>
</g>
<g>
</g>
<g>
</g>
<g>
</g>
</svg>
