<?xml version="1.0" encoding="iso-8859-1"?>
<!-- Generator: Adobe Illustrator 16.0.4, SVG Export Plug-In . SVG Version: 6.00 Build 0)  -->
<!DOCTYPE svg PUBLIC "-//W3C//DTD SVG 1.1//EN" "http://www.w3.org/Graphics/SVG/1.1/DTD/svg11.dtd">
<svg version="1.1" id="Layer_1" xmlns="http://www.w3.org/2000/svg" xmlns:xlink="http://www.w3.org/1999/xlink" x="0px" y="0px"
	 width="36px" height="44px" viewBox="0 0 36 44" style="enable-background:new 0 0 36 44;" xml:space="preserve">
<g id="_x39_63-coffee-cup-toolbar-selected_x40_2x.png">
	<g>
		<path d="M7.004,43.091l0.015-0.001C7.065,43.598,7.479,44,8,44h20c0.521,0,0.935-0.402,0.982-0.91l0.014,0.001L29.849,34H6.152
			L7.004,43.091z M5.965,32h24.071l1.125-12H4.84L5.965,32z M34,6h-0.382l-2.724-5.447l-0.009,0.005C30.721,0.23,30.391,0,30,0H6
			C5.609,0,5.279,0.23,5.114,0.558L5.105,0.553L2.382,6H2C0.896,6,0,6.896,0,8v2h36V8C36,6.896,35.104,6,34,6z M21,7h-6
			c-0.553,0-1-0.447-1-1c0-0.552,0.447-1,1-1h6c0.553,0,1,0.448,1,1C22,6.553,21.553,7,21,7z M4.652,18h26.696l0.562-6H4.09
			L4.652,18z"/>
	</g>
</g>
<g>
</g>
<g>
</g>
<g>
</g>
<g>
</g>
<g>
</g>
<g>
</g>
<g>
</g>
<g>
</g>
<g>
</g>
<g>
</g>
<g>
</g>
<g>
</g>
<g>
</g>
<g>
</g>
<g>
</g>
</svg>
