<?xml version="1.0" encoding="iso-8859-1"?>
<!-- Generator: Adobe Illustrator 16.0.4, SVG Export Plug-In . SVG Version: 6.00 Build 0)  -->
<!DOCTYPE svg PUBLIC "-//W3C//DTD SVG 1.1//EN" "http://www.w3.org/Graphics/SVG/1.1/DTD/svg11.dtd">
<svg version="1.1" id="Layer_1" xmlns="http://www.w3.org/2000/svg" xmlns:xlink="http://www.w3.org/1999/xlink" x="0px" y="0px"
	 width="44px" height="36px" viewBox="0 0 44 36" style="enable-background:new 0 0 44 36;" xml:space="preserve">
<g id="_x39_66-contact-cards-toolbar-selected_x40_2x.png">
	<g>
		<path d="M38,2c0-1.104,0.104-2-1-2H2C0.896,0,0,0.896,0,2v24c0,1.104,0.896,2,2,2v-2V2h35H38z M42,8H10c-1.104,0-2,0.896-2,2v24
			c0,1.104,0.896,2,2,2h8v-4h-1c-0.553,0-1-0.447-1-1c0-0.552,0.447-1,1-1h4c0.553,0,1,0.448,1,1c0,0.553-0.447,1-1,1h-1v4h12v-4h-1
			c-0.553,0-1-0.447-1-1c0-0.552,0.447-1,1-1h4c0.553,0,1,0.448,1,1c0,0.553-0.447,1-1,1h-1v4h8c1.104,0,2-0.896,2-2V10
			C44,8.896,43.104,8,42,8z M20,24h-6v-2h6V24z M24,20H14v-2h10V20z M24,16H14v-2h10V16z M34,24h-6v-2h6V24z M38,20H28v-2h10V20z
			 M38,16H28v-2h10V16z M42,6c0-1.104-0.896-2-2-2H6C4.896,4,4,4.896,4,6v24c0,1.104,0.896,2,2,2v-2V6h34H42z"/>
	</g>
</g>
<g>
</g>
<g>
</g>
<g>
</g>
<g>
</g>
<g>
</g>
<g>
</g>
<g>
</g>
<g>
</g>
<g>
</g>
<g>
</g>
<g>
</g>
<g>
</g>
<g>
</g>
<g>
</g>
<g>
</g>
</svg>
