<?xml version="1.0" encoding="iso-8859-1"?>
<!-- Generator: Adobe Illustrator 16.0.4, SVG Export Plug-In . SVG Version: 6.00 Build 0)  -->
<!DOCTYPE svg PUBLIC "-//W3C//DTD SVG 1.1//EN" "http://www.w3.org/Graphics/SVG/1.1/DTD/svg11.dtd">
<svg version="1.1" id="Layer_1" xmlns="http://www.w3.org/2000/svg" xmlns:xlink="http://www.w3.org/1999/xlink" x="0px" y="0px"
	 width="44px" height="44px" viewBox="0 0 44 44" style="enable-background:new 0 0 44 44;" xml:space="preserve">
<g id="_x39_67-piano-toolbar-selected_x40_2x.png">
	<g>
		<path d="M42,4h-4V2c0-1.104-0.896-2-2-2h-8v28h3v14h-8V28h3V0h-8v28h3v14h-8V28h3V0H8C6.896,0,6,0.896,6,2v2H2
			C0.896,4,0,4.896,0,6v36c0,1.104,0.896,2,2,2h9c0.366,0,0.705-0.105,1-0.277C12.295,43.895,12.634,44,13,44h8
			c0.366,0,0.705-0.105,1-0.277C22.295,43.895,22.634,44,23,44h8c0.366,0,0.705-0.105,1-0.277C32.295,43.895,32.634,44,33,44h9
			c1.104,0,2-0.896,2-2V6C44,4.896,43.104,4,42,4z M11,42H2V6h4v20c0,1.104,0.896,2,2,2h3V42z M42,42h-9V28h3c1.104,0,2-0.896,2-2V6
			h4V42z"/>
	</g>
</g>
<g>
</g>
<g>
</g>
<g>
</g>
<g>
</g>
<g>
</g>
<g>
</g>
<g>
</g>
<g>
</g>
<g>
</g>
<g>
</g>
<g>
</g>
<g>
</g>
<g>
</g>
<g>
</g>
<g>
</g>
</svg>
