<?xml version="1.0" encoding="iso-8859-1"?>
<!-- Generator: Adobe Illustrator 16.0.4, SVG Export Plug-In . SVG Version: 6.00 Build 0)  -->
<!DOCTYPE svg PUBLIC "-//W3C//DTD SVG 1.1//EN" "http://www.w3.org/Graphics/SVG/1.1/DTD/svg11.dtd">
<svg version="1.1" id="Layer_1" xmlns="http://www.w3.org/2000/svg" xmlns:xlink="http://www.w3.org/1999/xlink" x="0px" y="0px"
	 width="44px" height="44px" viewBox="0 0 44 44" style="enable-background:new 0 0 44 44;" xml:space="preserve">
<g id="_x39_68-sliders-toolbar-selected_x40_2x.png">
	<g>
		<path d="M40,0H4C1.791,0,0,1.791,0,4v36c0,2.209,1.791,4,4,4h36c2.209,0,4-1.791,4-4V4C44,1.791,42.209,0,40,0z M32,10
			c0-0.552,0.447-1,1-1s1,0.448,1,1v8h-2V10z M21,10c0-0.552,0.447-1,1-1s1,0.448,1,1v14h-2V10z M10,10c0-0.552,0.447-1,1-1
			s1,0.448,1,1v6h-2V10z M12,34c0,0.553-0.447,1-1,1s-1-0.447-1-1V22h2V34z M14,20H8v-2h6V20z M23,34c0,0.553-0.447,1-1,1
			s-1-0.447-1-1v-4h2V34z M25,28h-6v-2h6V28z M34,34c0,0.553-0.447,1-1,1s-1-0.447-1-1V24h2V34z M36,22h-6v-2h6V22z"/>
	</g>
</g>
<g>
</g>
<g>
</g>
<g>
</g>
<g>
</g>
<g>
</g>
<g>
</g>
<g>
</g>
<g>
</g>
<g>
</g>
<g>
</g>
<g>
</g>
<g>
</g>
<g>
</g>
<g>
</g>
<g>
</g>
</svg>
