<?xml version="1.0" encoding="iso-8859-1"?>
<!-- Generator: Adobe Illustrator 16.0.4, SVG Export Plug-In . SVG Version: 6.00 Build 0)  -->
<!DOCTYPE svg PUBLIC "-//W3C//DTD SVG 1.1//EN" "http://www.w3.org/Graphics/SVG/1.1/DTD/svg11.dtd">
<svg version="1.1" id="Layer_1" xmlns="http://www.w3.org/2000/svg" xmlns:xlink="http://www.w3.org/1999/xlink" x="0px" y="0px"
	 width="36px" height="44px" viewBox="0 0 36 44" style="enable-background:new 0 0 36 44;" xml:space="preserve">
<g id="_x39_70-medal-toolbar-selected_x40_2x.png">
	<g>
		<path d="M25.018,19.003c0,0.544,0.441,0.986,0.987,0.986c0.121,0,0.233-0.029,0.34-0.069l0.007,0.017l8-3l-0.002-0.003
			c0.371-0.145,0.637-0.505,0.637-0.934V1.004c-0.001-0.549-0.435-0.991-0.973-1.001V0h-8.024v0.004
			c-0.537,0.009-0.971,0.451-0.972,1h-0.032v17.983h0.035C25.021,18.993,25.018,18.997,25.018,19.003z M36,23.006
			c0-0.553-0.447-1-1-1.004V22H23.687L18.938,9.653C18.797,9.268,18.436,8.988,18,8.988c-0.435,0-0.797,0.279-0.938,0.665L12.313,22
			H1v0.002c-0.553,0.004-1,0.451-1,1.004c0,0.314,0.153,0.584,0.381,0.769l-0.006,0.007l9.456,7.564L6.052,42.684l0.044,0.015
			c-0.032,0.097-0.078,0.188-0.078,0.296C6.018,43.55,6.46,44,7.005,44c0.196,0,0.368-0.072,0.521-0.173l0.011,0.017L18,37.186
			l10.463,6.658l0.011-0.017C28.627,43.928,28.799,44,28.995,44c0.546,0,0.987-0.45,0.987-1.006c0-0.108-0.046-0.199-0.078-0.296
			l0.045-0.015l-3.78-11.338l9.456-7.564l-0.006-0.007C35.847,23.59,36,23.32,36,23.006z M18,6.966c1.389,0,2.547,0.941,2.9,2.217
			l2.104,5.47V1.004h-0.001c0-0.554-0.45-1.003-1.006-1.004h-7.994c-0.556,0.001-1.005,0.45-1.006,1.004h-0.001v13.648l2.104-5.471
			C15.454,7.907,16.611,6.966,18,6.966z M1.65,16.934l-0.002,0.003l8,3l0.007-0.017c0.106,0.04,0.219,0.069,0.34,0.069
			c0.546,0,0.987-0.442,0.987-0.986c0-0.006-0.003-0.01-0.003-0.016h0.035V1.004h-0.032c-0.001-0.549-0.434-0.991-0.972-1V0H1.986
			v0.003c-0.538,0.01-0.972,0.452-0.973,1.001V16C1.014,16.429,1.279,16.789,1.65,16.934z"/>
	</g>
</g>
<g>
</g>
<g>
</g>
<g>
</g>
<g>
</g>
<g>
</g>
<g>
</g>
<g>
</g>
<g>
</g>
<g>
</g>
<g>
</g>
<g>
</g>
<g>
</g>
<g>
</g>
<g>
</g>
<g>
</g>
</svg>
