<?xml version="1.0" encoding="iso-8859-1"?>
<!-- Generator: Adobe Illustrator 16.0.4, SVG Export Plug-In . SVG Version: 6.00 Build 0)  -->
<!DOCTYPE svg PUBLIC "-//W3C//DTD SVG 1.1//EN" "http://www.w3.org/Graphics/SVG/1.1/DTD/svg11.dtd">
<svg version="1.1" id="Layer_1" xmlns="http://www.w3.org/2000/svg" xmlns:xlink="http://www.w3.org/1999/xlink" x="0px" y="0px"
	 width="44px" height="19.879px" viewBox="0 0 44 19.879" style="enable-background:new 0 0 44 19.879;" xml:space="preserve">
<g id="_x39_71-chicken-leg-toolbar-selected_x40_2x.png">
	<g>
		<path d="M8.958,6.879C8.972,6.712,9,6.552,9,6.379c0-2.485-1.38-4.5-4.091-4.5C2.198,1.879,0,3.894,0,6.379
			c0,1.423,0.734,2.676,1.858,3.5C0.734,10.703,0,11.957,0,13.379c0,2.485,2.198,4.5,4.909,4.5c2.711,0,4.091-2.015,4.091-4.5
			c0-0.172-0.028-0.333-0.042-0.5h3.599c-0.351-0.961-0.557-1.962-0.557-3s0.207-2.039,0.557-3H8.958z M42.299,5.315
			c0.008-0.006,0.017-0.012,0.024-0.019c-0.394-0.508-0.854-0.986-1.366-1.438c-1.466,1.235-3.592,2.021-5.972,2.021
			c-4.37,0-7.908-2.623-7.996-5.879c-0.341,0.031-0.667,0.088-1.001,0.132c0-0.017-0.004-0.033-0.005-0.051
			C19.145,1.013,14,5.045,14,9.879c0,5.522,6.716,10,15,10s15-4.478,15-10C44,8.229,43.363,6.687,42.299,5.315z"/>
	</g>
</g>
<g>
</g>
<g>
</g>
<g>
</g>
<g>
</g>
<g>
</g>
<g>
</g>
<g>
</g>
<g>
</g>
<g>
</g>
<g>
</g>
<g>
</g>
<g>
</g>
<g>
</g>
<g>
</g>
<g>
</g>
</svg>
