<?xml version="1.0" encoding="iso-8859-1"?>
<!-- Generator: Adobe Illustrator 16.0.4, SVG Export Plug-In . SVG Version: 6.00 Build 0)  -->
<!DOCTYPE svg PUBLIC "-//W3C//DTD SVG 1.1//EN" "http://www.w3.org/Graphics/SVG/1.1/DTD/svg11.dtd">
<svg version="1.1" id="Layer_1" xmlns="http://www.w3.org/2000/svg" xmlns:xlink="http://www.w3.org/1999/xlink" x="0px" y="0px"
	 width="40px" height="44px" viewBox="0 0 40 44" style="enable-background:new 0 0 40 44;" xml:space="preserve">
<g id="_x39_72-bug-toolbar-selected_x40_2x.png">
	<g>
		<path d="M39,25h-5.035C33.977,24.667,34,24.338,34,24c0-1.62-0.149-3.187-0.404-4.694l4.225-2.439
			c0.479-0.276,0.643-0.888,0.366-1.366s-0.888-0.643-1.366-0.366l-3.656,2.111c-0.222-0.88-0.49-1.727-0.791-2.545
			C29.146,16.74,24.798,18,20,18s-9.146-1.26-12.373-3.3c-0.301,0.818-0.569,1.665-0.791,2.545L3.18,15.134
			c-0.479-0.275-1.09-0.112-1.366,0.366s-0.112,1.09,0.366,1.366l4.225,2.438C6.149,20.813,6,22.38,6,24
			c0,0.338,0.023,0.667,0.035,1H1c-0.553,0-1,0.448-1,1c0,0.553,0.447,1,1,1h5.175c0.192,1.83,0.554,3.578,1.069,5.21L2.18,35.134
			C1.701,35.41,1.537,36.021,1.813,36.5s0.888,0.643,1.366,0.366l4.759-2.748C10.372,40.024,14.855,44,20,44
			s9.628-3.976,12.062-9.882l4.759,2.748c0.479,0.276,1.09,0.112,1.366-0.366s0.112-1.09-0.366-1.366l-5.063-2.924
			c0.516-1.632,0.876-3.38,1.069-5.21H39c0.553,0,1-0.447,1-1C40,25.448,39.553,25,39,25z M15,26c-1.104,0-2-0.896-2-2s0.896-2,2-2
			s2,0.896,2,2S16.104,26,15,26z M22,35c-1.657,0-3-1.343-3-3c0-1.656,1.343-3,3-3s3,1.344,3,3C25,33.657,23.657,35,22,35z M5,2
			c3.538,0,6.371,2.09,8.108,4.622c-1.888,1.54-3.507,3.675-4.715,6.247C11.31,14.793,15.425,16,20,16s8.69-1.207,11.607-3.131
			c-1.209-2.572-2.828-4.708-4.716-6.247C28.629,4.09,31.462,2,35,2c0.553,0,1-0.447,1-1c0-0.552-0.447-1-1-1
			c-3.719,0-7.435,2.308-9.725,5.488C23.647,4.536,21.87,4,20,4s-3.647,0.536-5.275,1.488C12.435,2.308,8.719,0,5,0
			C4.447,0,4,0.448,4,1C4,1.553,4.447,2,5,2z"/>
	</g>
</g>
<g>
</g>
<g>
</g>
<g>
</g>
<g>
</g>
<g>
</g>
<g>
</g>
<g>
</g>
<g>
</g>
<g>
</g>
<g>
</g>
<g>
</g>
<g>
</g>
<g>
</g>
<g>
</g>
<g>
</g>
</svg>
