<?xml version="1.0" encoding="iso-8859-1"?>
<!-- Generator: Adobe Illustrator 16.0.4, SVG Export Plug-In . SVG Version: 6.00 Build 0)  -->
<!DOCTYPE svg PUBLIC "-//W3C//DTD SVG 1.1//EN" "http://www.w3.org/Graphics/SVG/1.1/DTD/svg11.dtd">
<svg version="1.1" id="Layer_1" xmlns="http://www.w3.org/2000/svg" xmlns:xlink="http://www.w3.org/1999/xlink" x="0px" y="0px"
	 width="44px" height="36px" viewBox="0 0 44 36" style="enable-background:new 0 0 44 36;" xml:space="preserve">
<g id="_x39_73-user-toolbar-selected_x40_2x.png">
	<g>
		<path d="M29.344,24.59c-1.332-0.584-2.122-1.352-2.347-2.285c-0.407-1.693,1.064-3.537,1.06-3.537h-0.001
			c0.111-0.111,1.962-3.68,1.962-9.476C30.018,4.874,28.253,0,22,0s-8.018,4.874-8.018,9.292c0,5.803,1.855,9.37,1.914,9.423
			c0.016,0.02,1.512,1.889,1.107,3.584c-0.223,0.936-1.012,1.706-2.348,2.291C5.615,27.397,0,28.715,0,31.25V34c0,1,1,2,2,2h40
			c1,0,2-1,2-2v-2.75C44,28.715,38.385,27.397,29.344,24.59z"/>
	</g>
</g>
<g>
</g>
<g>
</g>
<g>
</g>
<g>
</g>
<g>
</g>
<g>
</g>
<g>
</g>
<g>
</g>
<g>
</g>
<g>
</g>
<g>
</g>
<g>
</g>
<g>
</g>
<g>
</g>
<g>
</g>
</svg>
