<?xml version="1.0" encoding="iso-8859-1"?>
<!-- Generator: Adobe Illustrator 16.0.4, SVG Export Plug-In . SVG Version: 6.00 Build 0)  -->
<!DOCTYPE svg PUBLIC "-//W3C//DTD SVG 1.1//EN" "http://www.w3.org/Graphics/SVG/1.1/DTD/svg11.dtd">
<svg version="1.1" id="Layer_1" xmlns="http://www.w3.org/2000/svg" xmlns:xlink="http://www.w3.org/1999/xlink" x="0px" y="0px"
	 width="36.033px" height="43.999px" viewBox="0 0 36.033 43.999" style="enable-background:new 0 0 36.033 43.999;"
	 xml:space="preserve">
<g id="_x39_75-balloon-toolbar-selected_x40_2x.png">
	<g>
		<path d="M12.411,40.377c-0.628-0.168-1.237-0.371-1.832-0.6c-0.439,0.598-0.631,1.166-0.549,1.708
			c0.144,0.943,1.045,1.665,2.682,2.146c0.844,0.248,1.538,0.368,2.125,0.368c1.022,0,1.546-0.387,1.805-0.712
			c0.473-0.592,0.442-1.427,0.225-2.306C15.387,40.957,13.895,40.774,12.411,40.377z M23.07,0.567
			C13.522-2.002,3.52,4.394,0.729,14.851s2.687,21.017,12.234,23.585s19.551-3.827,22.342-14.284S32.618,3.136,23.07,0.567z
			 M15.876,8.393c-0.296,0.09-6.681,2.132-7.499,9.289c-0.063,0.548-0.559,0.942-1.107,0.88c-0.549-0.063-0.942-0.559-0.88-1.107
			c0.973-8.506,8.587-10.881,8.911-10.978c0.529-0.158,1.087,0.143,1.245,0.671C16.704,7.677,16.404,8.233,15.876,8.393z"/>
	</g>
</g>
<g>
</g>
<g>
</g>
<g>
</g>
<g>
</g>
<g>
</g>
<g>
</g>
<g>
</g>
<g>
</g>
<g>
</g>
<g>
</g>
<g>
</g>
<g>
</g>
<g>
</g>
<g>
</g>
<g>
</g>
</svg>
