<?xml version="1.0" encoding="iso-8859-1"?>
<!-- Generator: Adobe Illustrator 16.0.4, SVG Export Plug-In . SVG Version: 6.00 Build 0)  -->
<!DOCTYPE svg PUBLIC "-//W3C//DTD SVG 1.1//EN" "http://www.w3.org/Graphics/SVG/1.1/DTD/svg11.dtd">
<svg version="1.1" id="Layer_1" xmlns="http://www.w3.org/2000/svg" xmlns:xlink="http://www.w3.org/1999/xlink" x="0px" y="0px"
	 width="44px" height="44px" viewBox="0 0 44 44" style="enable-background:new 0 0 44 44;" xml:space="preserve">
<g id="_x39_77-checkbox-toolbar-selected_x40_2x.png">
	<g>
		<path d="M20.764,31.623C20.58,31.848,20.312,32,20,32c-0.276,0-0.526-0.111-0.707-0.293l-8-8C11.112,23.526,11,23.276,11,23
			c0-0.552,0.447-1,1-1c0.276,0,0.526,0.112,0.707,0.293l7.193,7.193L36.407,7.957C35.311,6.762,33.75,6,32,6H6
			c-3.313,0-6,2.687-6,6v26c0,3.313,2.687,6,6,6h26c3.313,0,6-2.687,6-6V12c0-0.798-0.163-1.557-0.446-2.254L20.775,31.632
			L20.764,31.623z M43.764,1.623L43.764,1.623l-1.488-1.213L43.764,1.623C43.904,1.451,44,1.239,44,1c0-0.552-0.447-1-1-1
			c-0.312,0-0.58,0.152-0.764,0.377l-0.011-0.009l-5.818,7.589c0.479,0.522,0.875,1.121,1.146,1.789l6.222-8.114L43.764,1.623z"/>
	</g>
</g>
<g>
</g>
<g>
</g>
<g>
</g>
<g>
</g>
<g>
</g>
<g>
</g>
<g>
</g>
<g>
</g>
<g>
</g>
<g>
</g>
<g>
</g>
<g>
</g>
<g>
</g>
<g>
</g>
<g>
</g>
</svg>
