<?xml version="1.0" encoding="iso-8859-1"?>
<!-- Generator: Adobe Illustrator 16.0.4, SVG Export Plug-In . SVG Version: 6.00 Build 0)  -->
<!DOCTYPE svg PUBLIC "-//W3C//DTD SVG 1.1//EN" "http://www.w3.org/Graphics/SVG/1.1/DTD/svg11.dtd">
<svg version="1.1" id="Layer_1" xmlns="http://www.w3.org/2000/svg" xmlns:xlink="http://www.w3.org/1999/xlink" x="0px" y="0px"
	 width="44px" height="32px" viewBox="0 0 44 32" style="enable-background:new 0 0 44 32;" xml:space="preserve">
<g id="_x39_79-piggy-bank-toolbar-selected_x40_2x.png">
	<g>
		<path d="M40,12h-0.361c-0.635-2.604-2.091-4.954-4.115-6.878C36.191,4.518,37.041,4,38,4c0.553,0,1-0.447,1-1c0-0.552-0.447-1-1-1
			c-1.433,0-2.862,0.913-3.968,1.866C30.842,1.471,26.633,0,22,0C12.059,0,4,6.716,4,15c0,0.562,0.044,1.117,0.117,1.664
			C2.897,15.091,2,13.199,2,11c0-0.553-0.447-1-1-1s-1,0.447-1,1c0,4.229,2.792,7.603,5.426,9.859C5.6,21.198,5.799,21.525,6,21.852
			V28c0,2.209,1.791,4,4,4c2.07,0,3.753-1.578,3.959-3.594C16.382,29.417,19.106,30,22,30s5.618-0.583,8.041-1.594
			C30.247,30.422,31.93,32,34,32c2.209,0,4-1.791,4-4v-6.148c0.367-0.595,0.683-1.214,0.954-1.852H40c2.209,0,4-1.791,4-4
			S42.209,12,40,12z M30.706,8.676c-0.195,0.195-0.451,0.293-0.707,0.293c-0.257,0-0.512-0.098-0.707-0.293
			c-0.007-0.005-1.893-1.707-7.293-1.707s-7.288,1.702-7.305,1.72c-0.401,0.371-1.03,0.361-1.408-0.031
			c-0.379-0.392-0.38-1.01,0.006-1.396c0.233-0.234,2.473-2.293,8.707-2.293s8.473,2.059,8.707,2.293
			C31.097,7.652,31.097,8.285,30.706,8.676z"/>
	</g>
</g>
<g>
</g>
<g>
</g>
<g>
</g>
<g>
</g>
<g>
</g>
<g>
</g>
<g>
</g>
<g>
</g>
<g>
</g>
<g>
</g>
<g>
</g>
<g>
</g>
<g>
</g>
<g>
</g>
<g>
</g>
</svg>
