<?xml version="1.0" encoding="iso-8859-1"?>
<!-- Generator: Adobe Illustrator 16.0.4, SVG Export Plug-In . SVG Version: 6.00 Build 0)  -->
<!DOCTYPE svg PUBLIC "-//W3C//DTD SVG 1.1//EN" "http://www.w3.org/Graphics/SVG/1.1/DTD/svg11.dtd">
<svg version="1.1" id="Layer_1" xmlns="http://www.w3.org/2000/svg" xmlns:xlink="http://www.w3.org/1999/xlink" x="0px" y="0px"
	 width="36px" height="44px" viewBox="0 0 36 44" style="enable-background:new 0 0 36 44;" xml:space="preserve">
<g id="_x39_80-spraybottle-toolbar-selected_x40_2x.png">
	<g>
		<path d="M18,13.618V5c0-1.657-1.343-3-3-3H9C7.343,2,6,3.343,6,5v8.618C2.417,15.694,0,19.561,0,24v4v9v5c0,1.104,0.896,2,2,2h20
			c1.104,0,2-0.896,2-2v-5v-9v-4C24,19.561,21.583,15.694,18,13.618z M16,10c-1.104,0-2-0.896-2-2s0.896-2,2-2V10z M34,4
			c1.104,0,2-0.896,2-2s-0.896-2-2-2s-2,0.896-2,2S32.896,4,34,4z M24,6c-1.104,0-2,0.896-2,2s0.896,2,2,2s2-0.896,2-2
			S25.104,6,24,6z M34,12c-1.104,0-2,0.896-2,2s0.896,2,2,2s2-0.896,2-2S35.104,12,34,12z M29,9c-1.104,0-2,0.896-2,2s0.896,2,2,2
			s2-0.896,2-2S30.104,9,29,9z M34,6c-1.104,0-2,0.896-2,2s0.896,2,2,2s2-0.896,2-2S35.104,6,34,6z M29,3c-1.104,0-2,0.896-2,2
			s0.896,2,2,2s2-0.896,2-2S30.104,3,29,3z"/>
	</g>
</g>
<g>
</g>
<g>
</g>
<g>
</g>
<g>
</g>
<g>
</g>
<g>
</g>
<g>
</g>
<g>
</g>
<g>
</g>
<g>
</g>
<g>
</g>
<g>
</g>
<g>
</g>
<g>
</g>
<g>
</g>
</svg>
