<?xml version="1.0" encoding="iso-8859-1"?>
<!-- Generator: Adobe Illustrator 16.0.4, SVG Export Plug-In . SVG Version: 6.00 Build 0)  -->
<!DOCTYPE svg PUBLIC "-//W3C//DTD SVG 1.1//EN" "http://www.w3.org/Graphics/SVG/1.1/DTD/svg11.dtd">
<svg version="1.1" id="Layer_1" xmlns="http://www.w3.org/2000/svg" xmlns:xlink="http://www.w3.org/1999/xlink" x="0px" y="0px"
	 width="44px" height="32px" viewBox="0 0 44 32" style="enable-background:new 0 0 44 32;" xml:space="preserve">
<g id="_x39_81-contact-card-toolbar-selected_x40_2x.png">
	<g>
		<path d="M42,0H2C0.896,0,0,0.896,0,2v28c0,1.104,0.896,2,2,2h40c1.104,0,2-0.896,2-2V2C44,0.896,43.104,0,42,0z M19,26H7
			c-0.552,0-1-0.447-1-1c0,0,0.01-7.454,3.926-10.084C8.762,14.001,8,12.596,8,11c0-2.762,2.239-5,5-5s5,2.238,5,5
			c0,1.596-0.762,3.001-1.926,3.916C19.99,17.546,20,25,20,25C20,25.553,19.552,26,19,26z M38,24H24v-2h14V24z M38,20H24v-2h14V20z
			 M38,16H24v-2h14V16z M38,12H24v-2h14V12z M38,8H24V6h14V8z"/>
	</g>
</g>
<g>
</g>
<g>
</g>
<g>
</g>
<g>
</g>
<g>
</g>
<g>
</g>
<g>
</g>
<g>
</g>
<g>
</g>
<g>
</g>
<g>
</g>
<g>
</g>
<g>
</g>
<g>
</g>
<g>
</g>
</svg>
