<?xml version="1.0" encoding="iso-8859-1"?>
<!-- Generator: Adobe Illustrator 16.0.4, SVG Export Plug-In . SVG Version: 6.00 Build 0)  -->
<!DOCTYPE svg PUBLIC "-//W3C//DTD SVG 1.1//EN" "http://www.w3.org/Graphics/SVG/1.1/DTD/svg11.dtd">
<svg version="1.1" id="Layer_1" xmlns="http://www.w3.org/2000/svg" xmlns:xlink="http://www.w3.org/1999/xlink" x="0px" y="0px"
	 width="44px" height="36px" viewBox="0 0 44 36" style="enable-background:new 0 0 44 36;" xml:space="preserve">
<g id="_x39_82-food-toolbar-selected_x40_2x.png">
	<g>
		<path d="M20.121,26h23.798C43.298,22.007,39,22,39,22H25C21.431,22,20.413,24.542,20.121,26z M20,7c0-0.553-0.447-1-1-1h-4.98
			l0.8-4H22c0.553,0,1-0.447,1-1c0-0.552-0.447-1-1-1h-8c-0.48,0-0.863,0.346-0.959,0.798l-0.02-0.004L11.98,6H1
			C0.448,6,0,6.447,0,7c0,0.04,0.019,0.073,0.022,0.112L0.007,7.113l4,28l0.016-0.002C4.081,35.609,4.487,36,5,36h10
			c0.513,0,0.92-0.391,0.978-0.889l0.016,0.002l4-28l-0.016-0.001C19.982,7.073,20,7.04,20,7z M3.011,14.007L2.152,8h9.428
			l-1.52,7.598C7.522,14.49,5.128,14.062,3.011,14.007z M16.564,16.984c-1.474-0.033-3.036-0.229-4.598-0.691L8.979,31.206
			l-0.02-0.004C8.863,31.654,8.48,32,8,32c-0.552,0-1-0.447-1-1c0-0.071,0.026-0.135,0.041-0.202l-0.02-0.004l3.045-15.193
			c0.096,0.042,0.189,0.075,0.285,0.119c0.534,0.228,1.073,0.404,1.611,0.563L13.62,8h4.228L16.564,16.984z M43,28H21h-1v2h24v-2H43
			z M25,36h14c0,0,4.298-0.007,4.919-4H20.121C20.413,33.458,21.431,36,25,36z"/>
	</g>
</g>
<g>
</g>
<g>
</g>
<g>
</g>
<g>
</g>
<g>
</g>
<g>
</g>
<g>
</g>
<g>
</g>
<g>
</g>
<g>
</g>
<g>
</g>
<g>
</g>
<g>
</g>
<g>
</g>
<g>
</g>
</svg>
