<?xml version="1.0" encoding="iso-8859-1"?>
<!-- Generator: Adobe Illustrator 16.0.4, SVG Export Plug-In . SVG Version: 6.00 Build 0)  -->
<!DOCTYPE svg PUBLIC "-//W3C//DTD SVG 1.1//EN" "http://www.w3.org/Graphics/SVG/1.1/DTD/svg11.dtd">
<svg version="1.1" id="Layer_1" xmlns="http://www.w3.org/2000/svg" xmlns:xlink="http://www.w3.org/1999/xlink" x="0px" y="0px"
	 width="31.984px" height="44px" viewBox="0 0 31.984 44" style="enable-background:new 0 0 31.984 44;" xml:space="preserve">
<g id="_x39_83-sock-toolbar-selected_x40_2x.png">
	<g>
		<path d="M17.997,8H0.004l0.001,2h17.991L17.997,8z M1,28c-0.338,0-0.667,0.035-0.986,0.1L0.016,32
			c0,0.624,0.727,0.962,0.727,0.962l4.584,2.502C5.743,34.733,6,33.9,6,33C6,30.238,3.762,28,1,28z M18,1c0,0,0.016-1-0.984-1
			S2.047,0,1.047,0S0,1,0,1l0.003,5h17.995L18,1z M27.644,27.878l0.003-0.006l-9.656-5.55L17.995,12H0.006l0.007,14.078
			C0.336,26.032,0.664,26,1,26c3.866,0,7,3.134,7,7c0,1.247-0.33,2.416-0.901,3.431l11.147,6.084l9.752-14.403
			C27.879,28.035,27.768,27.948,27.644,27.878z M29.561,29.372L20.042,43.43c0.756,0.286,1.845,0.57,3.205,0.57
			c4.86,0,8.737-3.869,8.737-8.643C31.984,33.027,31.069,30.924,29.561,29.372z"/>
	</g>
</g>
<g>
</g>
<g>
</g>
<g>
</g>
<g>
</g>
<g>
</g>
<g>
</g>
<g>
</g>
<g>
</g>
<g>
</g>
<g>
</g>
<g>
</g>
<g>
</g>
<g>
</g>
<g>
</g>
<g>
</g>
</svg>
