<?xml version="1.0" encoding="iso-8859-1"?>
<!-- Generator: Adobe Illustrator 16.0.4, SVG Export Plug-In . SVG Version: 6.00 Build 0)  -->
<!DOCTYPE svg PUBLIC "-//W3C//DTD SVG 1.1//EN" "http://www.w3.org/Graphics/SVG/1.1/DTD/svg11.dtd">
<svg version="1.1" id="Layer_1" xmlns="http://www.w3.org/2000/svg" xmlns:xlink="http://www.w3.org/1999/xlink" x="0px" y="0px"
	 width="44px" height="16px" viewBox="0 0 44 16" style="enable-background:new 0 0 44 16;" xml:space="preserve">
<g id="_x39_84-bone-toolbar-selected_x40_2x.png">
	<g>
		<path d="M42.173,8C43.287,7.175,44,5.914,44,4.5C44,2.015,41.802,0,39.091,0S35,2.015,35,4.5c0,0.169,0.008,0.336,0.021,0.5H8.959
			C8.973,4.833,9,4.672,9,4.5C9,2.015,7.62,0,4.909,0S0,2.015,0,4.5C0,5.914,0.713,7.175,1.827,8C0.713,8.825,0,10.086,0,11.5
			C0,13.985,2.198,16,4.909,16S9,13.985,9,11.5c0-0.172-0.027-0.333-0.041-0.5h26.062C35.008,11.164,35,11.331,35,11.5
			c0,2.485,1.38,4.5,4.091,4.5S44,13.985,44,11.5C44,10.086,43.287,8.825,42.173,8z"/>
	</g>
</g>
<g>
</g>
<g>
</g>
<g>
</g>
<g>
</g>
<g>
</g>
<g>
</g>
<g>
</g>
<g>
</g>
<g>
</g>
<g>
</g>
<g>
</g>
<g>
</g>
<g>
</g>
<g>
</g>
<g>
</g>
</svg>
