<?xml version="1.0" encoding="iso-8859-1"?>
<!-- Generator: Adobe Illustrator 16.0.4, SVG Export Plug-In . SVG Version: 6.00 Build 0)  -->
<!DOCTYPE svg PUBLIC "-//W3C//DTD SVG 1.1//EN" "http://www.w3.org/Graphics/SVG/1.1/DTD/svg11.dtd">
<svg version="1.1" id="Layer_1" xmlns="http://www.w3.org/2000/svg" xmlns:xlink="http://www.w3.org/1999/xlink" x="0px" y="0px"
	 width="35.989px" height="44px" viewBox="0 0 35.989 44" style="enable-background:new 0 0 35.989 44;" xml:space="preserve">
<g id="_x39_86-ghost-toolbar-selected_x40_2x.png">
	<g>
		<path d="M18.042,0C7.825,0,0,8.06,0,18v25c0,0.553,0.447,1,1,1s1-0.447,1-1c0-0.828,0.609-1.5,1.438-1.5s1.438,0.672,1.438,1.5
			c0,0.553,0.447,1,1,1s1-0.447,1-1c0-0.828,0.609-1.5,1.438-1.5S9.75,42.172,9.75,43c0,0.553,0.447,1,1,1s1-0.447,1-1
			c0-0.828,0.609-1.5,1.438-1.5s1.438,0.672,1.438,1.5c0,0.553,0.447,1,1,1s1-0.447,1-1c0-0.828,0.589-1.5,1.417-1.5
			s1.364,0.672,1.364,1.5c0,0.553,0.447,1,1,1s1-0.447,1-1c0-0.828,0.589-1.5,1.417-1.5s1.416,0.672,1.416,1.5c0,0.553,0.447,1,1,1
			s1-0.447,1-1c0-0.828,0.589-1.5,1.417-1.5s1.417,0.672,1.417,1.5c0,0.553,0.447,1,1,1s1-0.447,1-1c0-0.828,0.588-1.5,1.416-1.5
			s1.5,0.672,1.5,1.5c0,0.553,0.447,1,1,1s1-0.447,1-1V18C35.989,8.06,28.259,0,18.042,0z M11,20c-1.657,0-3-1.791-3-4s1.343-4,3-4
			s3,1.791,3,4S12.657,20,11,20z M18,32c-1.104,0-2-0.896-2-2s0.896-2,2-2s2,0.896,2,2S19.104,32,18,32z M25,20
			c-1.657,0-3-1.791-3-4s1.343-4,3-4s3,1.791,3,4S26.657,20,25,20z"/>
	</g>
</g>
<g>
</g>
<g>
</g>
<g>
</g>
<g>
</g>
<g>
</g>
<g>
</g>
<g>
</g>
<g>
</g>
<g>
</g>
<g>
</g>
<g>
</g>
<g>
</g>
<g>
</g>
<g>
</g>
<g>
</g>
</svg>
