<?xml version="1.0" encoding="iso-8859-1"?>
<!-- Generator: Adobe Illustrator 16.0.4, SVG Export Plug-In . SVG Version: 6.00 Build 0)  -->
<!DOCTYPE svg PUBLIC "-//W3C//DTD SVG 1.1//EN" "http://www.w3.org/Graphics/SVG/1.1/DTD/svg11.dtd">
<svg version="1.1" id="Layer_1" xmlns="http://www.w3.org/2000/svg" xmlns:xlink="http://www.w3.org/1999/xlink" x="0px" y="0px"
	 width="44px" height="44px" viewBox="0 0 44 44" style="enable-background:new 0 0 44 44;" xml:space="preserve">
<g id="_x39_87-ufo-toolbar-selected_x40_2x.png">
	<g>
		<path d="M44,14c0-2.44-5.353-4.537-13.023-5.475C30.728,3.777,26.811,0,22,0s-8.728,3.777-8.976,8.525C5.353,9.463,0,11.56,0,14
			c0,2.569,5.932,4.755,14.254,5.61L9.08,39.564c-0.011,0.031-0.016,0.062-0.023,0.092l-0.031,0.119l0.011,0.002
			C9.023,39.852,9,39.925,9,40c0,2.209,5.82,4,13,4s13-1.791,13-4c0-0.072-0.022-0.143-0.035-0.214l0.012-0.003l-0.032-0.124
			c-0.009-0.031-0.014-0.063-0.025-0.096L29.746,19.61C38.068,18.755,44,16.569,44,14z M32.341,37.583
			C29.967,36.623,26.225,36,22,36c-4.224,0-7.966,0.623-10.341,1.583l4.614-17.796C18.102,19.922,20.016,20,22,20
			s3.898-0.078,5.728-0.213L32.341,37.583z"/>
	</g>
</g>
<g>
</g>
<g>
</g>
<g>
</g>
<g>
</g>
<g>
</g>
<g>
</g>
<g>
</g>
<g>
</g>
<g>
</g>
<g>
</g>
<g>
</g>
<g>
</g>
<g>
</g>
<g>
</g>
<g>
</g>
</svg>
