<?xml version="1.0" encoding="iso-8859-1"?>
<!-- Generator: Adobe Illustrator 16.0.4, SVG Export Plug-In . SVG Version: 6.00 Build 0)  -->
<!DOCTYPE svg PUBLIC "-//W3C//DTD SVG 1.1//EN" "http://www.w3.org/Graphics/SVG/1.1/DTD/svg11.dtd">
<svg version="1.1" id="Layer_1" xmlns="http://www.w3.org/2000/svg" xmlns:xlink="http://www.w3.org/1999/xlink" x="0px" y="0px"
	 width="43.99px" height="28.005px" viewBox="0 0 43.99 28.005" style="enable-background:new 0 0 43.99 28.005;"
	 xml:space="preserve">
<g id="_x39_88-helmet-toolbar-selected_x40_2x.png">
	<g>
		<path d="M19.979,6.125V22h4.033V6.125c-0.663-0.074-1.334-0.12-2.017-0.12S20.642,6.051,19.979,6.125z M23.001,21.01h-2.012
			v-1.991h2.012V21.01z M23.001,17.987h-2.012v-1.991h2.012V17.987z M23.001,15.005h-2.012v-1.991h2.012V15.005z M23.001,11.992
			h-2.012V9.991h2.012V11.992z M3.263,1.564L2.747,0C2.747,0,0,2.723,0,8.845c0,3.729,1.364,6.918,2.871,9.301
			c0.929-3.031,2.564-5.749,4.706-7.979C5.507,7.367,3.914,3.538,3.263,1.564z M19.979,28.005h4.033v-4.014h-4.033V28.005z
			 M3.995,23.997H3.989v3.011H3.99c0,0-0.001,0.001-0.001,0.002c0,0.55,0.45,0.995,1.006,0.995h13.012v-4.014H5.996
			c0-0.676,0.056-1.337,0.138-1.991h11.873V6.464C9.99,8.28,3.999,15.433,3.995,23.997z M41.243,0l-0.516,1.564
			c-0.651,1.974-2.244,5.803-4.314,8.602c2.142,2.23,3.777,4.948,4.706,7.98c1.507-2.384,2.871-5.573,2.871-9.302
			C43.99,2.723,41.243,0,41.243,0z M25.984,6.464V22h11.872c0.082,0.654,0.138,1.315,0.138,1.991h-12.01v4.014h13.011
			c0.556,0,1.006-0.445,1.006-0.995c0-0.001,0-0.002,0-0.002v-3.011h-0.006C39.991,15.433,34,8.28,25.984,6.464z"/>
	</g>
</g>
<g>
</g>
<g>
</g>
<g>
</g>
<g>
</g>
<g>
</g>
<g>
</g>
<g>
</g>
<g>
</g>
<g>
</g>
<g>
</g>
<g>
</g>
<g>
</g>
<g>
</g>
<g>
</g>
<g>
</g>
</svg>
