<?xml version="1.0" encoding="iso-8859-1"?>
<!-- Generator: Adobe Illustrator 16.0.4, SVG Export Plug-In . SVG Version: 6.00 Build 0)  -->
<!DOCTYPE svg PUBLIC "-//W3C//DTD SVG 1.1//EN" "http://www.w3.org/Graphics/SVG/1.1/DTD/svg11.dtd">
<svg version="1.1" id="Layer_1" xmlns="http://www.w3.org/2000/svg" xmlns:xlink="http://www.w3.org/1999/xlink" x="0px" y="0px"
	 width="36px" height="44px" viewBox="0 0 36 44" style="enable-background:new 0 0 36 44;" xml:space="preserve">
<g id="_x39_89-hockey-mask-toolbar-selected_x40_2x.png">
	<g>
		<path d="M18,0C8.059,0,0,7.739,0,17.286v9.429C0,36.261,8.059,44,18,44s18-7.739,18-17.285v-9.429C36,7.739,27.941,0,18,0z M8,18
			c0-1.104,1.343-2,3-2s3,0.896,3,2s-1.343,2-3,2S8,19.104,8,18z M14,36c-1.104,0-2-0.896-2-2s0.896-2,2-2s2,0.896,2,2
			S15.104,36,14,36z M14,30c-1.104,0-2-0.896-2-2s0.896-2,2-2s2,0.896,2,2S15.104,30,14,30z M14,10c-1.104,0-2-0.896-2-2
			s0.896-2,2-2s2,0.896,2,2S15.104,10,14,10z M22,6c1.104,0,2,0.896,2,2s-0.896,2-2,2s-2-0.896-2-2S20.896,6,22,6z M22,36
			c-1.104,0-2-0.896-2-2s0.896-2,2-2s2,0.896,2,2S23.104,36,22,36z M22,30c-1.104,0-2-0.896-2-2s0.896-2,2-2s2,0.896,2,2
			S23.104,30,22,30z M25,20c-1.657,0-3-0.896-3-2s1.343-2,3-2s3,0.896,3,2S26.657,20,25,20z"/>
	</g>
</g>
<g>
</g>
<g>
</g>
<g>
</g>
<g>
</g>
<g>
</g>
<g>
</g>
<g>
</g>
<g>
</g>
<g>
</g>
<g>
</g>
<g>
</g>
<g>
</g>
<g>
</g>
<g>
</g>
<g>
</g>
</svg>
