<?xml version="1.0" encoding="iso-8859-1"?>
<!-- Generator: Adobe Illustrator 16.0.4, SVG Export Plug-In . SVG Version: 6.00 Build 0)  -->
<!DOCTYPE svg PUBLIC "-//W3C//DTD SVG 1.1//EN" "http://www.w3.org/Graphics/SVG/1.1/DTD/svg11.dtd">
<svg version="1.1" id="Layer_1" xmlns="http://www.w3.org/2000/svg" xmlns:xlink="http://www.w3.org/1999/xlink" x="0px" y="0px"
	 width="44px" height="44px" viewBox="0 0 44 44" style="enable-background:new 0 0 44 44;" xml:space="preserve">
<g id="_x39_90-presentation-toolbar-selected_x40_2x.png">
	<g>
		<path d="M2,33c0,0.553,0.447,1,1,1h17.52l0.2,0.25l-6.501,8.125l0.012,0.01C14.094,42.556,14,42.764,14,43c0,0.553,0.447,1,1,1
			c0.316,0,0.586-0.155,0.77-0.385l0.012,0.01L22,35.851l6.219,7.774l0.012-0.01C28.414,43.845,28.684,44,29,44c0.553,0,1-0.447,1-1
			c0-0.236-0.094-0.444-0.23-0.615l0.012-0.01L23.28,34.25l0.2-0.25H41c0.553,0,1-0.447,1-1V10H2V33z M26,14h10v2H26V14z M26,20h10
			v2H26V20z M26,26h10v2H26V26z M16,28v-6h6C22,25.313,19.313,28,16,28z M14,14c3.313,0,6,2.687,6,6h-6v6c-3.313,0-6-2.687-6-6
			S10.687,14,14,14z M43,4H23V1c0-0.552-0.447-1-1-1s-1,0.448-1,1v3H1C0.447,4,0,4.448,0,5v3h1h1h40h1h1V5C44,4.448,43.553,4,43,4z"
			/>
	</g>
</g>
<g>
</g>
<g>
</g>
<g>
</g>
<g>
</g>
<g>
</g>
<g>
</g>
<g>
</g>
<g>
</g>
<g>
</g>
<g>
</g>
<g>
</g>
<g>
</g>
<g>
</g>
<g>
</g>
<g>
</g>
</svg>
