<?xml version="1.0" encoding="iso-8859-1"?>
<!-- Generator: Adobe Illustrator 16.0.4, SVG Export Plug-In . SVG Version: 6.00 Build 0)  -->
<!DOCTYPE svg PUBLIC "-//W3C//DTD SVG 1.1//EN" "http://www.w3.org/Graphics/SVG/1.1/DTD/svg11.dtd">
<svg version="1.1" id="Layer_1" xmlns="http://www.w3.org/2000/svg" xmlns:xlink="http://www.w3.org/1999/xlink" x="0px" y="0px"
	 width="16px" height="44px" viewBox="0 0 16 44" style="enable-background:new 0 0 16 44;" xml:space="preserve">
<g id="_x39_93-wine-bottle-toolbar-selected_x40_2x.png">
	<g>
		<path d="M12,1c0-0.552-0.447-1-1-1H5C4.447,0,4,0.448,4,1v3h8V1z M0,40c0,2.209,1.791,4,4,4h8c2.209,0,4-1.791,4-4v-4H0V40z
			 M12,10.17V6H4v4.17C2.542,10.579,0,12.003,0,17v3h16v-3C16,12.003,13.458,10.579,12,10.17z M0,34h16V22H0V34z"/>
	</g>
</g>
<g>
</g>
<g>
</g>
<g>
</g>
<g>
</g>
<g>
</g>
<g>
</g>
<g>
</g>
<g>
</g>
<g>
</g>
<g>
</g>
<g>
</g>
<g>
</g>
<g>
</g>
<g>
</g>
<g>
</g>
</svg>
