<?xml version="1.0" encoding="iso-8859-1"?>
<!-- Generator: Adobe Illustrator 16.0.4, SVG Export Plug-In . SVG Version: 6.00 Build 0)  -->
<!DOCTYPE svg PUBLIC "-//W3C//DTD SVG 1.1//EN" "http://www.w3.org/Graphics/SVG/1.1/DTD/svg11.dtd">
<svg version="1.1" id="Layer_1" xmlns="http://www.w3.org/2000/svg" xmlns:xlink="http://www.w3.org/1999/xlink" x="0px" y="0px"
	 width="40px" height="44px" viewBox="0 0 40 44" style="enable-background:new 0 0 40 44;" xml:space="preserve">
<g id="_x39_95-martini-glass-toolbar-selected_x40_2x.png">
	<g>
		<path d="M39.692,5.722L39.69,5.719C39.88,5.537,40,5.283,40,5c0-0.552-0.447-1-1-1h-9.002l1.834-2.445l-0.016-0.01
			C31.923,1.386,32,1.205,32,1c0-0.552-0.447-1-1-1c-0.347,0-0.638,0.188-0.816,0.456l-0.016-0.011L27.502,4H1C0.447,4,0,4.448,0,5
			c0,0.283,0.12,0.537,0.311,0.719L0.308,5.722L19,25.397V42H9c-0.553,0-1,0.447-1,1s0.447,1,1,1h22c0.553,0,1-0.447,1-1
			s-0.447-1-1-1H21V25.397L39.692,5.722z M28.498,6h8.174l-5.434,5.721c-1.978,0.284-4.427,0.421-6.91,0.064
			c-0.025-0.039-0.062-0.067-0.09-0.105L28.498,6z M6.957,9.82L3.328,6h22.674l-3.303,4.403C22.182,10.157,21.612,10,21,10
			c-0.563,0-1.098,0.119-1.584,0.329C14.174,8.255,9.59,9.009,6.957,9.82z M20.832,15.983l-2.352,2.015l0.934-2.792
			C19.158,14.87,19,14.455,19,14c0-1.104,0.896-2,2-2s2,0.896,2,2s-0.896,2-2,2C20.942,16,20.889,15.988,20.832,15.983z"/>
	</g>
</g>
<g>
</g>
<g>
</g>
<g>
</g>
<g>
</g>
<g>
</g>
<g>
</g>
<g>
</g>
<g>
</g>
<g>
</g>
<g>
</g>
<g>
</g>
<g>
</g>
<g>
</g>
<g>
</g>
<g>
</g>
</svg>
