<?xml version="1.0" encoding="iso-8859-1"?>
<!-- Generator: Adobe Illustrator 16.0.4, SVG Export Plug-In . SVG Version: 6.00 Build 0)  -->
<!DOCTYPE svg PUBLIC "-//W3C//DTD SVG 1.1//EN" "http://www.w3.org/Graphics/SVG/1.1/DTD/svg11.dtd">
<svg version="1.1" id="Layer_1" xmlns="http://www.w3.org/2000/svg" xmlns:xlink="http://www.w3.org/1999/xlink" x="0px" y="0px"
	 width="44px" height="44px" viewBox="0 0 44 44" style="enable-background:new 0 0 44 44;" xml:space="preserve">
<g id="_x39_96-gavel-toolbar-selected_x40_2x.png">
	<g>
		<path d="M10.558,15.886l-0.005,0.009l2.759,1.38L27.274,3.312l-1.38-2.759l-0.009,0.005C25.721,0.23,25.391,0,25,0
			c-0.276,0-0.526,0.112-0.707,0.293l-14,14C10.112,14.474,10,14.724,10,15C10,15.392,10.23,15.721,10.558,15.886z M43.442,18.114
			l0.005-0.009l-2.759-1.379L26.727,30.688l1.379,2.759l0.009-0.004C28.279,33.77,28.609,34,29,34c0.276,0,0.526-0.111,0.707-0.293
			l14-14C43.888,19.526,44,19.276,44,19C44,18.609,43.77,18.279,43.442,18.114z M1.424,36.964C0.56,37.697,0,38.778,0,40
			c0,2.209,1.791,4,4,4c1.223,0,2.303-0.56,3.037-1.424L21.693,27.92l-5.613-5.613L1.424,36.964z M28.414,5L15.008,18.406
			l10.586,10.586L39,15.586L28.414,5z"/>
	</g>
</g>
<g>
</g>
<g>
</g>
<g>
</g>
<g>
</g>
<g>
</g>
<g>
</g>
<g>
</g>
<g>
</g>
<g>
</g>
<g>
</g>
<g>
</g>
<g>
</g>
<g>
</g>
<g>
</g>
<g>
</g>
</svg>
