<?xml version="1.0" encoding="iso-8859-1"?>
<!-- Generator: Adobe Illustrator 16.0.4, SVG Export Plug-In . SVG Version: 6.00 Build 0)  -->
<!DOCTYPE svg PUBLIC "-//W3C//DTD SVG 1.1//EN" "http://www.w3.org/Graphics/SVG/1.1/DTD/svg11.dtd">
<svg version="1.1" id="Layer_1" xmlns="http://www.w3.org/2000/svg" xmlns:xlink="http://www.w3.org/1999/xlink" x="0px" y="0px"
	 width="44px" height="36px" viewBox="0 0 44 36" style="enable-background:new 0 0 44 36;" xml:space="preserve">
<g id="_x39_99-contact-card-2-toolbar-selected_x40_2x.png">
	<g>
		<path d="M40,0H4C1.791,0,0,1.791,0,4v28c0,2.209,1.791,4,4,4h5c0.553,0,1-0.447,1-1c0-1.657,2.015-3,4.5-3s4.5,1.343,4.5,3
			c0,0.553,0.447,1,1,1h4c0.553,0,1-0.447,1-1c0-1.657,2.015-3,4.5-3s4.5,1.343,4.5,3c0,0.553,0.447,1,1,1h5c2.209,0,4-1.791,4-4V4
			C44,1.791,42.209,0,40,0z M23,22H8v-2h15V22z M36,16H8v-2h28V16z M36,10H8V8h28V10z"/>
	</g>
</g>
<g>
</g>
<g>
</g>
<g>
</g>
<g>
</g>
<g>
</g>
<g>
</g>
<g>
</g>
<g>
</g>
<g>
</g>
<g>
</g>
<g>
</g>
<g>
</g>
<g>
</g>
<g>
</g>
<g>
</g>
</svg>
