<?xml version="1.0" encoding="UTF-8" standalone="no"?>
<!-- Created with Inkscape (http://www.inkscape.org/) -->

<svg
   xmlns:dc="http://purl.org/dc/elements/1.1/"
   xmlns:cc="http://creativecommons.org/ns#"
   xmlns:rdf="http://www.w3.org/1999/02/22-rdf-syntax-ns#"
   xmlns:svg="http://www.w3.org/2000/svg"
   xmlns="http://www.w3.org/2000/svg"
   xmlns:sodipodi="http://sodipodi.sourceforge.net/DTD/sodipodi-0.dtd"
   xmlns:inkscape="http://www.inkscape.org/namespaces/inkscape"
   id="svg2985"
   version="1.1"
   inkscape:version="0.48.4 r9939"
   width="100"
   height="90"
   sodipodi:docname="Camipro.svg"
   inkscape:export-filename="X:\Pics\Camipro.png"
   inkscape:export-xdpi="90"
   inkscape:export-ydpi="90">
  <metadata
     id="metadata2991">
    <rdf:RDF>
      <cc:Work
         rdf:about="">
        <dc:format>image/svg+xml</dc:format>
        <dc:type
           rdf:resource="http://purl.org/dc/dcmitype/StillImage" />
        <dc:title />
      </cc:Work>
    </rdf:RDF>
  </metadata>
  <defs
     id="defs2989" />
  <sodipodi:namedview
     pagecolor="#000000"
     bordercolor="#666666"
     borderopacity="1"
     objecttolerance="10"
     gridtolerance="10000"
     guidetolerance="10"
     inkscape:pageopacity="1"
     inkscape:pageshadow="2"
     inkscape:window-width="1680"
     inkscape:window-height="987"
     id="namedview2987"
     showgrid="true"
     inkscape:zoom="8.8119972"
     inkscape:cx="48.213373"
     inkscape:cy="54.953558"
     inkscape:window-x="1912"
     inkscape:window-y="-8"
     inkscape:window-maximized="1"
     inkscape:current-layer="layer1"
     fit-margin-top="7"
     fit-margin-left="0"
     fit-margin-right="0"
     fit-margin-bottom="7"
     inkscape:showpageshadow="false" />
  <g
     inkscape:groupmode="layer"
     id="layer1"
     inkscape:label="Layer"
     transform="translate(-100,-107)">
    <path
       style="fill:#ffffff;fill-opacity:1;stroke:none"
       d="m 154,114 c -40,0 -43,27 -43,30 0,0 -3,2 -11,-11 0,12 7,21 12,23 2,7 4,11 10,16 0,0 0,6 0,9 0,5 -1,9 9,9 10,0 9,-4 9,-9 12,1 12,1 24,0 0,5 -1,9 9,9 10,0 9,-4 9,-9 0,-3 0,-3 0,-9 8,-6 8,-13 8,-13 0,0 3,0 7,0 2,0 3,-1 3,-3 0,-2 0,-14 0,-16 0,-2 -1,-3 -3,-3 -3,0 -4,0 -7,0 -1,-5 -6,-9 -6,-9 0,0 0,0 7,-8 -6,-4 -15,2 -15,2 -4,-4 -11,-8 -22,-8 z m 13,11 c 0,0 0,6 0,8 -12,-5 -20,-5 -32,0 l 0,-8 c 12,-5 20,-5 32,0 z"
       id="path2998"
       inkscape:connector-curvature="0"
       sodipodi:nodetypes="ccccccccccccccccccccccccccc" />
  </g>
</svg>
