<?xml version="1.0" encoding="UTF-8" standalone="no"?>
<!-- Created with Inkscape (http://www.inkscape.org/) -->

<svg
   xmlns:dc="http://purl.org/dc/elements/1.1/"
   xmlns:cc="http://creativecommons.org/ns#"
   xmlns:rdf="http://www.w3.org/1999/02/22-rdf-syntax-ns#"
   xmlns:svg="http://www.w3.org/2000/svg"
   xmlns="http://www.w3.org/2000/svg"
   version="1.1"
   width="100"
   height="100"
   id="svg2985">
  <metadata
     id="metadata2991">
    <rdf:RDF>
      <cc:Work
         rdf:about="">
        <dc:format>image/svg+xml</dc:format>
        <dc:type
           rdf:resource="http://purl.org/dc/dcmitype/StillImage" />
        <dc:title></dc:title>
      </cc:Work>
    </rdf:RDF>
  </metadata>
  <defs
     id="defs2989" />
  <g
     id="layer1">
    <path
       d="M 54,12 C 14,12 11,39 11,42 11,42 8,44 0,31 c 0,12 7,21 12,23 2,7 4,11 10,16 0,0 0,6 0,9 0,5 -1,9 9,9 10,0 9,-4 9,-9 12,1 12,1 24,0 0,5 -1,9 9,9 10,0 9,-4 9,-9 0,-3 0,-3 0,-9 8,-6 8,-13 8,-13 0,0 3,0 7,0 2,0 3,-1 3,-3 0,-2 0,-14 0,-16 0,-2 -1,-3 -3,-3 -3,0 -4,0 -7,0 -1,-5 -6,-9 -6,-9 0,0 0,0 7,-8 -6,-4 -15,2 -15,2 -4,-4 -11,-8 -22,-8 z m 13,11 c 0,0 0,6 0,8 -12,-5 -20,-5 -32,0 l 0,-8 c 12,-5 20,-5 32,0 z"
       id="path2998"
       style="fill:#ffffff;fill-opacity:1;stroke:none" />
  </g>
</svg>
