<?xml version="1.0" encoding="UTF-8" standalone="no"?>
<!-- Created with Inkscape (http://www.inkscape.org/) -->

<svg
   xmlns:dc="http://purl.org/dc/elements/1.1/"
   xmlns:cc="http://creativecommons.org/ns#"
   xmlns:rdf="http://www.w3.org/1999/02/22-rdf-syntax-ns#"
   xmlns:svg="http://www.w3.org/2000/svg"
   xmlns="http://www.w3.org/2000/svg"
   xmlns:sodipodi="http://sodipodi.sourceforge.net/DTD/sodipodi-0.dtd"
   xmlns:inkscape="http://www.inkscape.org/namespaces/inkscape"
   version="1.1"
   width="100"
   height="100"
   id="svg2985"
   inkscape:version="0.48.4 r9939"
   sodipodi:docname="Camipro.svg">
  <sodipodi:namedview
     pagecolor="#ffffff"
     bordercolor="#666666"
     borderopacity="1"
     objecttolerance="10"
     gridtolerance="10000"
     guidetolerance="10"
     inkscape:pageopacity="0"
     inkscape:pageshadow="2"
     inkscape:window-width="1680"
     inkscape:window-height="987"
     id="namedview2990"
     showgrid="true"
     fit-margin-top="12"
     fit-margin-left="0"
     fit-margin-right="0"
     fit-margin-bottom="12"
     inkscape:zoom="5.6568543"
     inkscape:cx="107.3958"
     inkscape:cy="54.474476"
     inkscape:window-x="1912"
     inkscape:window-y="-8"
     inkscape:window-maximized="1"
     inkscape:current-layer="svg2985">
    <inkscape:grid
       type="xygrid"
       id="grid3769"
       empspacing="5"
       visible="true"
       enabled="true"
       snapvisiblegridlinesonly="true"
       originx="47px"
       originy="-51px" />
  </sodipodi:namedview>
  <metadata
     id="metadata2991">
    <rdf:RDF>
      <cc:Work
         rdf:about="">
        <dc:format>image/svg+xml</dc:format>
        <dc:type
           rdf:resource="http://purl.org/dc/dcmitype/StillImage" />
        <dc:title />
      </cc:Work>
    </rdf:RDF>
  </metadata>
  <defs
     id="defs2989" />
  <path
     style="fill:#ffffff;fill-opacity:1;fill-rule:evenodd;stroke:none;display:inline"
     d="M 51.09375,12 C 29.559755,12 11.805695,24.959303 9.3125,41.6875 4.624402,39.096279 1.261777,34.545921 0,30 0,38 3.947688,49.059594 9.96875,53.03125 11.795083,59.67884 16.078741,65.585196 22,70.125 L 22,83 c 0,2.77 2.23,5 5,5 l 8,0 c 2.77,0 5,-2.23 5,-5 l 0,-4.6875 C 43.530708,79.083223 47.258497,79.5 51.09375,79.5 55.602886,79.5 59.927591,78.896475 64,77.84375 L 64,83 c 0,2.77 2.23,5 5,5 l 8,0 c 2.77,0 5,-2.23 5,-5 L 82,68.625 C 85.827732,65.299618 88.860208,61.35447 90.78125,57 L 97,57 c 1.662,0 3,-1.338 3,-3 l 0,-16 c 0,-1.662 -1.338,-3 -3,-3 l -6.03125,0 C 89.491023,31.477027 87.316475,28.207735 84.5625,25.3125 l 6.53125,-7.21875 c -4.111817,-2.926749 -10.967006,-1.684454 -13.5,1.34375 -0.02402,0.03061 -0.03903,0.06294 -0.0625,0.09375 C 70.301708,14.83677 61.121383,12 51.09375,12 z m -0.125,7.15625 C 57.397731,19.15625 63.153281,20.64121 67,23 l 0,8 C 63.151288,28.637132 57.391018,27.15625 50.96875,27.15625 44.565995,27.15625 38.848516,28.649544 35,31 l 0,-8 c 3.846443,-2.339301 9.570516,-3.84375 15.96875,-3.84375 z"
     id="path3763"
     inkscape:connector-curvature="0"
     sodipodi:nodetypes="sccccsssscscssssccsssscccccssccsccs" />
</svg>
