<?xml version="1.0" encoding="UTF-8" standalone="no"?>
<!-- Created with Inkscape (http://www.inkscape.org/) -->

<svg
   xmlns:dc="http://purl.org/dc/elements/1.1/"
   xmlns:cc="http://creativecommons.org/ns#"
   xmlns:rdf="http://www.w3.org/1999/02/22-rdf-syntax-ns#"
   xmlns:svg="http://www.w3.org/2000/svg"
   xmlns="http://www.w3.org/2000/svg"
   version="1.1"
   width="100"
   height="100"
   id="svg3779">
  <metadata
     id="metadata3785">
    <rdf:RDF>
      <cc:Work
         rdf:about="">
        <dc:format>image/svg+xml</dc:format>
        <dc:type
           rdf:resource="http://purl.org/dc/dcmitype/StillImage" />
        <dc:title></dc:title>
      </cc:Work>
    </rdf:RDF>
  </metadata>
  <defs
     id="defs3783" />
  <g
     id="layer2">
    <path
       d="m 37,34 c 0,0 -1,8 4,18 l 0,6 c -19,7 -29,12 -29,17 0,5 0,7 0,7 l 37,0 0,0 39,0 c 0,0 0,-2 0,-7 C 88,70 77,65 59,58 l 0,-6 C 64,42 63,34 63,34 63,34 64,17 50,17 36,17 37,34 37,34 z"
       id="path3790"
       style="fill:#ffffff;fill-opacity:1;stroke:none" />
    <path
       d="m 70,37 c 0,2 0,4 3,11 l 0,3 c 0,0 -2,1 -7,4 11,4 27,12 27,17 8,0 -4,0 7,0 0,0 0,-7 0,-10 -1,-4 -7,-7 -17,-11 l 0,-3 c 3,-7 3,-9 3,-11 0,-2 0,-10 -8,-10 -8,0 -8,8 -8,10 z M 22,27 c -8,0 -8,8 -8,10 0,2 0,5 3,11 l 0,3 C 7,55 1,58 0,62 c 0,3 0,10 0,10 0,0 3,0 7,0 0,-5 16,-13 27,-17 -5,-3 -7,-4 -7,-4 l 0,-3 c 3,-6 3,-9 3,-11 0,-2 0,-10 -8,-10 z"
       id="path3790-4"
       style="fill:#ffffff;fill-opacity:0.5098038;stroke:none" />
  </g>
</svg>
