<?xml version="1.0" encoding="UTF-8" standalone="no"?>
<!-- Created with Inkscape (http://www.inkscape.org/) -->

<svg
   xmlns:dc="http://purl.org/dc/elements/1.1/"
   xmlns:cc="http://creativecommons.org/ns#"
   xmlns:rdf="http://www.w3.org/1999/02/22-rdf-syntax-ns#"
   xmlns:svg="http://www.w3.org/2000/svg"
   xmlns="http://www.w3.org/2000/svg"
   xmlns:sodipodi="http://sodipodi.sourceforge.net/DTD/sodipodi-0.dtd"
   xmlns:inkscape="http://www.inkscape.org/namespaces/inkscape"
   id="svg3779"
   version="1.1"
   inkscape:version="0.48.4 r9939"
   width="120"
   height="120"
   sodipodi:docname="Directory.svg">
  <metadata
     id="metadata3785">
    <rdf:RDF>
      <cc:Work
         rdf:about="">
        <dc:format>image/svg+xml</dc:format>
        <dc:type
           rdf:resource="http://purl.org/dc/dcmitype/StillImage" />
        <dc:title />
      </cc:Work>
    </rdf:RDF>
  </metadata>
  <defs
     id="defs3783" />
  <sodipodi:namedview
     pagecolor="#000000"
     bordercolor="#666666"
     borderopacity="1"
     objecttolerance="10"
     gridtolerance="10000"
     guidetolerance="10"
     inkscape:pageopacity="1"
     inkscape:pageshadow="2"
     inkscape:window-width="1680"
     inkscape:window-height="987"
     id="namedview3781"
     showgrid="true"
     inkscape:zoom="5.656854"
     inkscape:cx="59.195823"
     inkscape:cy="85.34769"
     inkscape:window-x="1912"
     inkscape:window-y="-8"
     inkscape:window-maximized="1"
     inkscape:current-layer="layer2"
     fit-margin-top="27"
     fit-margin-left="10"
     fit-margin-right="10"
     fit-margin-bottom="28"
     inkscape:showpageshadow="false" />
  <g
     inkscape:groupmode="layer"
     id="layer2"
     inkscape:label="SVG"
     transform="translate(-90,-92)">
    <path
       style="fill:#ffffff;fill-opacity:1;stroke:none"
       d="m 137,136 c 0,0 -1,8 4,18 l 0,6 c -19,7 -29,12 -29,17 0,5 0,7 0,7 l 37,0 0,0 39,0 c 0,0 0,-2 0,-7 0,-5 -11,-10 -29,-17 l 0,-6 c 5,-10 4,-18 4,-18 0,0 1,-17 -13,-17 -14,0 -13,17 -13,17 z"
       id="path3790"
       inkscape:connector-curvature="0"
       sodipodi:nodetypes="cccccccccccccc" />
    <path
       id="path3790-4"
       style="fill:#ffffff;fill-opacity:0.5098038;stroke:none"
       d="m 170,139 c 0,2 0,4 3,11 l 0,3 c 0,0 0,0 -5,3 4,2 20,4 25,18 8,0 -4,0 7,0 0,0 0,-7 0,-10 -1,-4 -7,-7 -17,-11 l 0,-3 c 3,-7 3,-9 3,-11 0,-2 0,-10 -8,-10 -8,0 -8,8 -8,10 z m -48,-10 c -8,0 -8,8 -8,10 0,2 0,5 3,11 l 0,3 c -10,4 -16,7 -17,11 0,3 0,10 0,10 0,0 3,0 7,0 5,-14 21,-16 25,-18 -5,-3 -5,-3 -5,-3 l 0,-3 c 3,-6 3,-9 3,-11 0,-2 0,-10 -8,-10 z"
       inkscape:connector-curvature="0"
       sodipodi:nodetypes="sccccccccsssssccccccccss" />
  </g>
</svg>
