<?xml version="1.0" encoding="UTF-8" standalone="no"?>
<!-- Created with Inkscape (http://www.inkscape.org/) -->

<svg
   xmlns:dc="http://purl.org/dc/elements/1.1/"
   xmlns:cc="http://creativecommons.org/ns#"
   xmlns:rdf="http://www.w3.org/1999/02/22-rdf-syntax-ns#"
   xmlns:svg="http://www.w3.org/2000/svg"
   xmlns="http://www.w3.org/2000/svg"
   version="1.1"
   width="100"
   height="100"
   id="svg4435">
  <metadata
     id="metadata4441">
    <rdf:RDF>
      <cc:Work
         rdf:about="">
        <dc:format>image/svg+xml</dc:format>
        <dc:type
           rdf:resource="http://purl.org/dc/dcmitype/StillImage" />
        <dc:title></dc:title>
      </cc:Work>
    </rdf:RDF>
  </metadata>
  <defs
     id="defs4439" />
    <path
       d="m 68,0 0,12 -36,0 0,-12 -8,0 0,12 c 0,0 -15,0 -17,0 -3,0 -3,0 -3,3 0,3 0,9 0,9 l 92,0 0,-9 c 0,-3 0,-3 -3,-3 -4,0 -17,0 -17,0 L 76,0 z M 4,97 c 0,3 0,3 3,3 5,0 77,0 86,0 3,0 3,0 3,-3 0,-23 0,-69 0,-69 L 4,28 c 0,23 0,48 0,69 z m 8,-61 16,0 0,16 -16,0 z m 36,0 0,16 -16,0 0,-16 z m 4,0 16,0 0,16 -16,0 z m 20,0 16,0 0,16 -16,0 z m -60,20 16,0 0,16 -16,0 z m 20,0 16,0 0,16 -16,0 z m 20,0 16,0 0,16 -16,0 z m 20,0 16,0 0,16 -16,0 z m -60,20 16,0 0,16 -16,0 z m 20,0 16,0 0,16 -16,0 z m 20,0 16,0 0,16 -16,0 z m 20,0 16,0 0,16 -16,0 z"
       id="rect4456"
       style="fill:#ffffff;fill-opacity:1;stroke:none" />
</svg>
