<?xml version="1.0" encoding="UTF-8" standalone="no"?>
<!-- Created with Inkscape (http://www.inkscape.org/) -->

<svg
   xmlns:dc="http://purl.org/dc/elements/1.1/"
   xmlns:cc="http://creativecommons.org/ns#"
   xmlns:rdf="http://www.w3.org/1999/02/22-rdf-syntax-ns#"
   xmlns:svg="http://www.w3.org/2000/svg"
   xmlns="http://www.w3.org/2000/svg"
   version="1.1"
   width="100"
   height="100"
   id="svg5239">
  <metadata
     id="metadata5245">
    <rdf:RDF>
      <cc:Work
         rdf:about="">
        <dc:format>image/svg+xml</dc:format>
        <dc:type
           rdf:resource="http://purl.org/dc/dcmitype/StillImage" />
        <dc:title></dc:title>
      </cc:Work>
    </rdf:RDF>
  </metadata>
  <defs
     id="defs5243" />

    <path
       d="m 17,0 0,36 c 0,3 6,7 10,7 0,18 0,36 0,54 0,3 0,3 2,3 l 8,0 c 2,0 2,0 2,-3 0,-18 0,-36 0,-54 4,0 10,-4 10,-7 0,-4 0,-36 0,-36 l -8,0 0,31 -4,0 0,-31 -8,0 0,31 -4,0 0,-31 z m 45,12 c 0,16 0,41 0,41 l 8,0 0,44 c 0,3 0,3 2,3 l 8,0 c 2,0 2,0 2,-3 C 82,68 82,16 82,12 82,4 80,0 72,0 64,0 62,4 62,12 z"
       id="rect8095"
       style="fill:#ffffff;fill-opacity:1;stroke:none" />
</svg>
