<?xml version="1.0" encoding="UTF-8" standalone="no"?>
<!-- Created with Inkscape (http://www.inkscape.org/) -->

<svg
   xmlns:dc="http://purl.org/dc/elements/1.1/"
   xmlns:cc="http://creativecommons.org/ns#"
   xmlns:rdf="http://www.w3.org/1999/02/22-rdf-syntax-ns#"
   xmlns:svg="http://www.w3.org/2000/svg"
   xmlns="http://www.w3.org/2000/svg"
   version="1.1"
   width="100"
   height="100"
   id="svg5387">
  <metadata
     id="metadata5393">
    <rdf:RDF>
      <cc:Work
         rdf:about="">
        <dc:format>image/svg+xml</dc:format>
        <dc:type
           rdf:resource="http://purl.org/dc/dcmitype/StillImage" />
        <dc:title></dc:title>
      </cc:Work>
    </rdf:RDF>
  </metadata>
  <defs
     id="defs5391" />
  <path
     d="M 11,34 C 7,38 7,43 7,50 l -1,0 c -2,0 -2,0 -2,2 0,2 0,3 0,4 0,2 0,2 2,2 l -5,27 3,-1 1,3 3,-2 2,2 1,-3 3,1 -5,-27 c 2,0 2,0 2,-2 0,-1 0,-4 0,-4 0,-2 0,-2 -2,-2 L 8,50 C 8,43 8,38 12,34 M 50,51 100,31 50,12 0,31 M 80,43 50,55 20,43 16,71 c 0,0 12,-7 18,-7 6,0 16,10 16,10 0,0 11,-10 16,-10 6,0 18,7 18,7 z"
     id="rect5410"
     style="fill:#ffffff;fill-opacity:1;stroke:none" />
</svg>
