<?xml version="1.0" encoding="UTF-8" standalone="no"?>
<!-- Created with Inkscape (http://www.inkscape.org/) -->

<svg
   xmlns:dc="http://purl.org/dc/elements/1.1/"
   xmlns:cc="http://creativecommons.org/ns#"
   xmlns:rdf="http://www.w3.org/1999/02/22-rdf-syntax-ns#"
   xmlns:svg="http://www.w3.org/2000/svg"
   xmlns="http://www.w3.org/2000/svg"
   version="1.1"
   width="999.99902"
   height="999.99951"
   id="svg2985">
  <defs
     id="defs2991" />
  <metadata
     id="metadata2991">
    <rdf:RDF>
      <cc:Work
         rdf:about="">
        <dc:format>image/svg+xml</dc:format>
        <dc:type
           rdf:resource="http://purl.org/dc/dcmitype/StillImage" />
        <dc:title></dc:title>
      </cc:Work>
    </rdf:RDF>
  </metadata>
  <path
     d="m 241.5625,0 c -21.53325,0 -35.89425,20.47387 -30.34375,39.5 5.2338,17.940585 71.40625,198.71875 71.40625,198.71875 l 20.96875,-7.3125 33.625,89.53125 C 348.23049,311.18364 361.51757,305.74233 375.59375,304 373.57096,298.43342 276.53202,31.314187 270.8125,18.8125 265.87421,8.018422 256.957,0 241.5625,0 z M 766.875,7.40625 C 718.04754,73.943277 637.13619,190.29196 579.46875,271.0625 c -1.12161,-0.30058 -24.74896,5.03633 -24.5625,6.46875 -10.25163,8.99428 -25.22238,40.38271 -41.53125,51.40625 l -26.21875,37.4375 42.28125,42.0625 39.46875,-56.6875 c 2.84824,-3.30442 6.54107,-4.70923 10.34375,-4.84375 4.88914,-0.17298 9.95387,1.73016 13.65625,4.25 L 630.625,377.4375 c 8.79595,6.13079 12.25371,16.25719 7.75,22.71875 l -44.78125,64.28125 c -1.08536,1.55719 -2.52638,2.72884 -4.21875,3.5625 L 697.46875,575.46875 838.59375,376.9375 C 861.25145,386.76561 869,387.99951 883,368.99951 c 8.89799,-12.07584 5.19365,-28.83727 -8.46875,-42.56201 l 26.625,-37.46875 C 923.81395,298.79687 934,296.99951 946,280.99951 c 6.84105,-9.1214 4.75614,-28.80602 -8.90625,-42.53076 l 15.5625,-21.9375 c 4.86781,-8.60426 8.18249,-17.1247 -0.1875,-22.90625 15.80214,-23.90033 42.6875,-65.21875 42.6875,-65.21875 C 958.36307,101.6135 920.02184,77.454223 878.90625,51.875 878.76864,50.074114 773.98588,7.589833 766.875,7.40625 z m 26,36.125 c 18.62214,4.511831 42.81504,12.721706 58.21875,21.84375 5.81932,3.127484 10.48047,7.832835 7.0625,21.875 -6.34119,9.365005 -21.21875,30.46875 -21.21875,30.46875 -5.01533,7.19559 -15.87328,8.25714 -24.3125,2.375 l -39.65625,-27.625 c -8.43921,-5.882137 -10.94569,-16.27712 -6.15625,-23.625 L 777.5,52.40625 c 3.59207,-5.510903 9.69023,-8.757508 15.375,-8.875 z m -51.625,65.6875 c 7.32349,-0.0801 16.73955,6.39586 20.625,9.0625 l 128.9375,89.875 c 11.45154,7.98172 18.65804,17.36578 16.125,21 l -25.90625,37.15625 c -2.53304,3.63422 -13.79847,0.10672 -25.25,-7.875 l -128.9375,-89.84375 c -11.45153,-7.98172 -18.65804,-17.33454 -16.125,-20.96875 L 736.625,110.46875 c 1.37633,-0.8421 2.93496,-1.23152 4.625,-1.25 z m -44.625,63.25 c 7.32349,-0.0801 16.70831,6.39585 20.59375,9.0625 l 128.96875,89.875 c 11.45153,7.98172 18.62679,17.36578 16.09375,21 L 836.375,329.5625 c -2.53305,3.63422 -13.79847,0.10672 -25.25,-7.875 L 682.1875,231.84375 c -11.45154,-7.98172 -18.65805,-17.33454 -16.125,-20.96875 l 25.90625,-37.15625 c 1.37632,-0.8421 2.96622,-1.23153 4.65625,-1.25 z m -655.8125,30.8125 c -3.48414,0.14303 -6.465259,3.72454 -7.40625,6.0625 -1.709332,4.47428 -0.458869,9.03431 2.78125,10.21875 l 100.03125,36.59375 -10.9375,29.125 -99.875,-36.46875 c -3.240119,-1.18443 -7.259417,1.43197 -8.96875,5.90625 -1.709333,4.47428 -0.458869,9.06557 2.78125,10.25 l 99.96875,36.5 -10.4375,27.75 -99.0625,-36.1875 c -3.2401192,-1.18443 -7.196917,1.46322 -8.90625,5.9375 -1.70933297,4.47428 -0.52136899,9.00307 2.71875,10.1875 44.742218,16.8194 92.697809,33.79315 136.75,49.09375 16.33573,5.63487 34.14376,-2.75832 40.65625,-19.1875 l 122.125,44.34375 c 0.526,-16.75424 6.12325,-32.76431 16.96875,-45.6875 l -122.78125,-44.5625 c 5.15862,-16.78461 -3.41257,-34.39491 -19.5625,-40.3125 l -35.3125,-12.96875 -0.0625,0.0937 -99.9375,-36.5625 c -0.512451,-0.13457 -1.033516,-0.14542 -1.53125,-0.125 z m 612.09375,38.40625 c 4.88915,-0.17297 9.95387,1.69892 13.65625,4.21875 l 37.71875,26.28125 c 8.79596,6.13079 12.25371,16.25719 7.75,22.71875 l -44.75,64.28125 c -4.50371,6.46156 -15.23529,6.72454 -24.03125,0.59375 L 605.5625,333.5 c -8.79595,-6.13079 -12.25371,-16.25719 -7.75,-22.71875 L 642.5625,246.5 c 2.84824,-3.30442 6.54108,-4.67797 10.34375,-4.8125 z M 418.875,539.625 24.5625,699.25 C 7.1052338,706.31561 -1.284371,726.04273 5.78125,743.5 l 90.4375,223.4375 c 7.06562,17.45727 26.82398,25.84687 44.28125,18.78125 L 549.21875,820.25 C 566.67601,813.18439 575.06562,793.45727 568,776 L 508.3125,628.5 z M 460.75,592.09375 480.34375,640.75 289.59375,717.5 270,668.875 z m 350.6875,35.8125 c -18.5472,0 -36.46995,2.72743 -53.375,7.78125 l 14.4375,14.375 c 6.66982,6.63018 12.21211,13.88948 16.625,21.53125 7.46736,-1.19333 15.10282,-1.8125 22.90625,-1.8125 79.63076,0 144.15625,64.55674 144.15625,144.1875 0,79.63075 -64.52549,144.1875 -144.15625,144.1875 -79.63076,0 -144.1875,-64.55675 -144.1875,-144.1875 0,-9.56808 0.94051,-18.92175 2.71875,-27.96875 -6.55391,-4.04714 -12.81569,-8.94378 -18.59375,-14.6875 L 635.0625,754.5 c -6.29938,18.67822 -9.71875,38.66756 -9.71875,59.46875 0,102.74799 83.34576,186.03125 186.09375,186.03125 102.74799,0 186,-83.28326 186,-186.03125 0,-102.74799 -83.25201,-186.0625 -186,-186.0625 z M 208.8125,668.25 277.53125,839 c -11.72395,2.56289 -23.13918,4.60429 -35.09375,5.375 -17.70433,-0.7566 -13.13847,-5.57978 -33.53125,-6.0625 -6.04803,-28.85639 -3.51587,-37.55197 -1.6875,-49.125 0.57089,-8.34084 -6.95286,-28.13391 -16.15625,-39.625 -5.77753,-7.90446 -15.64959,-19.37406 -40.09375,-18.625 -22.82498,-0.86323 -25.37471,8.60742 -30.625,13.90625 -7.24066,5.41358 -17.85726,12.6258 -18.96875,24.6875 0.47652,18.81516 4.02491,13.99376 8.9375,30.84375 0.80445,2.30824 -0.52455,8.52714 2.34375,12.875 3.38484,7.98232 12.46136,14.38766 15.21875,15.78125 4.67122,6.18345 15.10385,15.74165 20.4375,25.90625 1.51036,15.25939 -6.24189,12.12342 -7.28125,28.75 -9.10229,8.28912 -22.171,18.99595 -33.9375,30.6875 L 36.03125,737.8125 z m 300.15625,41.9375 19.59375,48.65625 -190.75,76.75 -19.5625,-48.625 z m 386.6875,25.375 -104.375,59.40625 -48.21875,109.625 104.78125,-59.1875 z M 797.75,803.34375 838.71875,839.875 762.8125,882.75 z"
     id="path3791"
     style="fill:#363636;fill-opacity:1;fill-rule:evenodd;stroke:none" />
  <path
     d="m 555.45817,-83.59256 450.70533,0 c 50.239,0 90.6842,35.454326 90.6842,79.4940035 l 0,11.9943542 c 0,44.0396783 -40.4452,79.4940033 -90.6842,79.4940033 l -450.70533,0 c -50.239,0 -90.68412,-35.454325 -90.68412,-79.4940033 l 0,-11.9943542 c 0,-44.0396775 40.44512,-79.4940035 90.68412,-79.4940035 z"
     transform="matrix(0.70921126,0.70499602,-0.70499602,0.70921126,0,0)"
     id="rect4130-17"
     style="fill:#f00000;fill-opacity:1;stroke:none" />
  <path
     d="m 578.36783,496.47361 -27.14948,27.33218 -27.33217,-27.14948 -28.13606,28.28223 27.33217,27.18601 -27.14947,27.33218 28.28222,28.09952 27.14948,-27.29564 27.33217,27.14948 28.13606,-28.31877 -27.33217,-27.14947 27.18601,-27.33218 -28.31876,-28.13606 z"
     id="rect4130-1"
     style="color:#000000;fill:#ffffff;fill-opacity:1;fill-rule:nonzero;stroke:none;stroke-width:1;marker:none;visibility:visible;display:inline;overflow:visible;enable-background:accumulate" />
</svg>
