<?xml version="1.0" encoding="UTF-8" standalone="no"?>
<!-- Created with Inkscape (http://www.inkscape.org/) -->

<svg
   xmlns:dc="http://purl.org/dc/elements/1.1/"
   xmlns:cc="http://creativecommons.org/ns#"
   xmlns:rdf="http://www.w3.org/1999/02/22-rdf-syntax-ns#"
   xmlns:svg="http://www.w3.org/2000/svg"
   xmlns="http://www.w3.org/2000/svg"
   version="1.1"
   width="100"
   height="100"
   id="svg5960">
  <metadata
     id="metadata5966">
    <rdf:RDF>
      <cc:Work
         rdf:about="">
        <dc:format>image/svg+xml</dc:format>
        <dc:type
           rdf:resource="http://purl.org/dc/dcmitype/StillImage" />
        <dc:title></dc:title>
      </cc:Work>
    </rdf:RDF>
  </metadata>
  <defs
     id="defs5964" />
  <path
     d="M 30,10 0,22 0,90 30,78 30,68 28.09946,69.108679 c -0.598817,0.274191 -1.247988,-0.02321 -1.466059,-0.656763 l -0.397058,-1.157154 c -0.218071,-0.633504 0.07308,-1.35209 0.671944,-1.626271 l 3.080664,-1.657442 z m -11.949151,27.677873 0.122171,1.219703 c 0.07148,0.667709 -0.394399,1.311263 -1.038458,1.438624 l -3.634604,0.719312 C 12.8559,41.182876 12.288637,40.722439 12.217157,40.05473 l -0.122172,-1.188428 c -0.07148,-0.66771 0.363856,-1.311263 1.007915,-1.438624 l 3.634604,-0.719312 c 0.802787,-0.07683 1.044394,0.57223 1.313345,0.969507 z m -9.3766681,1.845192 0.3665146,1.157154 c 0.2077816,0.63712 -0.099307,1.362292 -0.7024864,1.62627 L 4.9479482,43.807662 C 4.3447687,44.071639 3.6896711,43.75675 3.4818895,43.119625 L 3.0848319,41.962471 C 2.8770503,41.325351 3.2146817,40.600178 3.8178613,40.3362 l 3.3902608,-1.469898 c 0.3904145,-0.192489 1.1233342,-0.131467 1.4660588,0.656763 z m 14.9965601,0.250195 2.229631,3.03362 c 0.390587,0.53965 0.251634,1.271607 -0.305429,1.626271 l -1.007916,0.625489 c -0.557063,0.354665 -1.319815,0.226904 -1.710402,-0.312745 l -2.199088,-3.064894 c -0.390586,-0.539649 -0.25164,-1.240332 0.305429,-1.594996 l 1.007916,-0.656763 c 0.70668,-0.367638 1.174552,2.22e-4 1.679859,0.344018 z m 0.122171,8.569195 0.916287,0.719312 c 0.515056,0.415959 0.637774,1.223081 0.274886,1.782643 l -2.046374,3.158717 c -0.362883,0.559563 -1.042634,0.666157 -1.557687,0.250196 l -0.94683,-0.750586 C 19.918139,53.086786 19.795426,52.31094 20.158308,51.751368 l 2.046374,-3.158717 c 0.530335,-0.619609 0.929164,-0.722879 1.58823,-0.250196 z m -5.406092,7.912432 1.038459,0.562939 c 0.583453,0.306979 0.862089,1.037053 0.610858,1.657545 l -1.404973,3.502737 c -0.251232,0.620494 -0.943692,0.869909 -1.527145,0.56294 L 16.035018,62.009382 C 15.451565,61.702414 15.20347,60.941057 15.454703,60.320563 l 1.404973,-3.502737 c 0.483797,-0.75397 0.810111,-0.874936 1.527144,-0.562939 z m 0.824659,9.225957 3.329175,1.657545 c 0.591275,0.290856 0.819959,0.983963 0.488686,1.563722 l -0.610858,1.063331 c -0.331269,0.579759 -1.088586,0.791256 -1.679859,0.500391 l -3.329175,-1.626271 c -0.591273,-0.290855 -0.789416,-0.983963 -0.458143,-1.563721 l 0.610857,-1.063331 c 0.552768,-0.709991 0.636705,-1.044131 1.649317,-0.531666 z M 35,10 35,78 65,90 64.98252,61.84375 c 0,0 -2.057795,-1.524473 -3.083742,-2.28125 -0.531796,-0.392674 -0.608873,-1.114469 -0.183192,-1.625 l 0.763302,-0.90625 c 0.425681,-0.510532 1.178002,-0.611424 1.709798,-0.21875 L 65,57.265165 65,22 z m 22.807477,43.5 c 0.655693,-0.007 1.145926,0.549269 1.099156,1.21875 l -0.0916,1.21875 c -0.0468,0.669482 -0.596114,1.211919 -1.251816,1.21875 l -3.69438,0.03125 C 53.213144,57.1945 52.722911,56.669472 52.769681,56 l 0.0916,-1.21875 c 0.0468,-0.669482 0.596123,-1.21192 1.251816,-1.21875 z m -8.335262,2.6875 0.335853,1.1875 c 0.183525,0.64437 -0.150824,1.354015 -0.763302,1.59375 l -3.48066,1.34375 c -0.612478,0.239734 -1.220951,-0.07437 -1.404476,-0.71875 l -0.366385,-1.1875 c -0.183525,-0.64436 0.181356,-1.354015 0.793834,-1.59375 l 3.450127,-1.34375 c 0.658646,-0.175378 1.219436,-0.01037 1.435009,0.71875 z m -8.15207,4.21875 0.457981,1.125 c 0.243143,0.623339 -0.02353,1.357411 -0.610642,1.65625 l -3.327998,1.6875 c -0.587145,0.298839 -1.25293,0.06085 -1.496073,-0.5625 l -0.427449,-1.125 c -0.243143,-0.623338 0.02353,-1.388661 0.610642,-1.6875 l 3.327998,-1.6875 c 0.717899,-0.307802 1.336873,0.110467 1.465541,0.59375 z M 100,10 70,22 70,63 c 0.56102,-1.000873 1.447263,-0.970665 2.199593,-0.84375 l 2.99389,2.21875 c 0.532106,0.392674 0.609228,1.114468 0.183299,1.625 l -0.763747,0.9375 c -0.42593,0.510532 -1.209239,0.611425 -1.741345,0.21875 L 70,65 70,90 100,78 z m -10.631365,17.25 0.947047,0.625 c 0.602894,0.379983 0.797201,1.16329 0.427699,1.78125 l -3.08554,5.15625 5.651731,2.375 c 0.693009,0.294761 1.021335,1.103562 0.733198,1.8125 l -0.488799,1.15625 c -0.288146,0.708938 -1.078885,1.044761 -1.771894,0.75 l -6.171079,-2.625 -3.604888,6 c -0.369502,0.617959 -1.138451,0.817483 -1.741344,0.4375 l -0.977597,-0.625 C 78.684275,43.713767 78.489958,42.93046 78.85947,42.3125 l 3.26884,-5.5 -6.690428,-2.875 C 74.744873,33.642739 74.416547,32.833937 74.704684,32.125 L 75.162933,31 c 0.288137,-0.708937 1.078885,-1.044761 1.771894,-0.75 l 7.270876,3.09375 3.391038,-5.65625 c 0.59544,-0.699584 1.055505,-0.753285 1.771894,-0.4375 z m -1.069246,15.9375 2.230143,3.03125 c 0.395154,0.535806 0.279279,1.234524 -0.27495,1.59375 l -1.008146,0.65625 c -0.554229,0.359226 -1.31565,0.223307 -1.710794,-0.3125 L 85.305499,45.125 c -0.395154,-0.535806 -0.27927,-1.265775 0.274949,-1.625 l 1.008147,-0.625 c 0.710152,-0.404604 1.270781,-0.277528 1.710794,0.3125 z m 5.132383,8.5625 1.527495,3.4375 c 0.271997,0.610798 0.0063,1.272446 -0.610998,1.5 l -1.130346,0.40625 c -0.617245,0.227555 -1.316589,-0.07673 -1.588595,-0.6875 l -1.558045,-3.4375 c -0.272006,-0.610798 0.02428,-1.303696 0.641548,-1.53125 l 1.130346,-0.40625 c 0.743346,-0.205504 1.392396,0.09037 1.588595,0.71875 z m 0.580448,8.65625 1.160896,0.125 c 0.652409,0.0712 1.177124,0.672768 1.160896,1.34375 l -0.09165,3.78125 c -0.01623,0.670982 -0.569587,1.133704 -1.221996,1.0625 l -1.160897,-0.125 c -0.652399,-0.0712 -1.177124,-0.641518 -1.160896,-1.3125 L 92.790224,61.5 c 0.247439,-0.885061 0.601853,-0.892482 1.221996,-1.09375 z M 79.867617,67.5 l 3.238289,1.8125 c 0.576362,0.320709 0.756572,1.032235 0.397149,1.59375 l -0.672098,1.03125 c -0.359423,0.561515 -1.103882,0.75821 -1.680244,0.4375 l -3.238289,-1.8125 c -0.576372,-0.3207 -0.756572,-1.032235 -0.397149,-1.59375 l 0.641548,-1.03125 c 0.564318,-0.616543 1.04334,-0.556239 1.710794,-0.4375 z m 12.189409,1.28125 0.458249,1.125 c 0.252357,0.619558 0.0026,1.348471 -0.580448,1.65625 l -3.299389,1.75 C 88.05238,73.620289 87.39085,73.369534 87.138493,72.75 l -0.458249,-1.125 c -0.252356,-0.619559 -0.0026,-1.348461 0.580448,-1.65625 l 3.299389,-1.75 c 0.728194,-0.306541 1.270921,-0.0924 1.496945,0.5625 z"
     id="path4051"
     style="fill:#ffffff;fill-opacity:1;stroke:none" />
</svg>
