<?xml version="1.0" encoding="UTF-8" standalone="no"?>
<!-- Created with Inkscape (http://www.inkscape.org/) -->

<svg
   xmlns:dc="http://purl.org/dc/elements/1.1/"
   xmlns:cc="http://creativecommons.org/ns#"
   xmlns:rdf="http://www.w3.org/1999/02/22-rdf-syntax-ns#"
   xmlns:svg="http://www.w3.org/2000/svg"
   xmlns="http://www.w3.org/2000/svg"
   xmlns:sodipodi="http://sodipodi.sourceforge.net/DTD/sodipodi-0.dtd"
   xmlns:inkscape="http://www.inkscape.org/namespaces/inkscape"
   id="svg6847"
   version="1.1"
   inkscape:version="0.48.4 r9939"
   width="100"
   height="100"
   sodipodi:docname="Moodle.svg">
  <metadata
     id="metadata6853">
    <rdf:RDF>
      <cc:Work
         rdf:about="">
        <dc:format>image/svg+xml</dc:format>
        <dc:type
           rdf:resource="http://purl.org/dc/dcmitype/StillImage" />
        <dc:title />
      </cc:Work>
    </rdf:RDF>
  </metadata>
  <defs
     id="defs6851" />
  <sodipodi:namedview
     pagecolor="#000000"
     bordercolor="#666666"
     borderopacity="1"
     objecttolerance="10"
     gridtolerance="10000"
     guidetolerance="10"
     inkscape:pageopacity="1"
     inkscape:pageshadow="2"
     inkscape:window-width="1680"
     inkscape:window-height="987"
     id="namedview6849"
     showgrid="true"
     inkscape:zoom="7.7478366"
     inkscape:cx="2.6615509"
     inkscape:cy="49.978641"
     inkscape:window-x="1912"
     inkscape:window-y="-8"
     inkscape:window-maximized="1"
     inkscape:current-layer="svg6847"
     showguides="true"
     inkscape:guide-bbox="true"
     fit-margin-top="8"
     fit-margin-left="0"
     fit-margin-right="0"
     fit-margin-bottom="8"
     inkscape:showpageshadow="false" />
  <path
     id="rect7365"
     style="fill:#ffffff;fill-opacity:1;stroke:none"
     d="m 4,54 0,38 92,0 0,-38 -11,0 0,11 -16,0 0,-11 -38,0 0,11 -16,0 0,-11 z m 15,-8 0,15 8,0 0,-15 z m 54,0 0,15 8,0 0,-15 z M 40,8 C 32,8 28,12 28,20 l 0,4 -28,0 0,26 15,0 0,-8 16,0 0,8 38,0 0,-8 16,0 0,8 15,0 0,-26 -28,0 0,-4 C 72,12 68,8 60,8 z m 0,8 20,0 c 3,0 4,1 4,4 l 0,4 -28,0 0,-4 c 0,-3 1,-4 4,-4 z"
     inkscape:connector-curvature="0"
     sodipodi:nodetypes="cccccccccccccccccccccccsscccccccccccccccssssscccs" />
</svg>
