<?xml version="1.0" encoding="UTF-8" standalone="no"?>
<!-- Created with Inkscape (http://www.inkscape.org/) -->

<svg
   xmlns:dc="http://purl.org/dc/elements/1.1/"
   xmlns:cc="http://creativecommons.org/ns#"
   xmlns:rdf="http://www.w3.org/1999/02/22-rdf-syntax-ns#"
   xmlns:svg="http://www.w3.org/2000/svg"
   xmlns="http://www.w3.org/2000/svg"
   version="1.1"
   width="100"
   height="100"
   id="svg6847">
  <metadata
     id="metadata6853">
    <rdf:RDF>
      <cc:Work
         rdf:about="">
        <dc:format>image/svg+xml</dc:format>
        <dc:type
           rdf:resource="http://purl.org/dc/dcmitype/StillImage" />
        <dc:title></dc:title>
      </cc:Work>
    </rdf:RDF>
  </metadata>
  <defs
     id="defs6851" />
  <path
     d="m 4,54 0,38 92,0 0,-38 -11,0 0,11 -16,0 0,-11 -38,0 0,11 -16,0 0,-11 z m 15,-8 0,15 8,0 0,-15 z m 54,0 0,15 8,0 0,-15 z M 40,8 C 32,8 28,12 28,20 l 0,4 -28,0 0,26 15,0 0,-8 16,0 0,8 38,0 0,-8 16,0 0,8 15,0 0,-26 -28,0 0,-4 C 72,12 68,8 60,8 z m 0,8 20,0 c 3,0 4,1 4,4 l 0,4 -28,0 0,-4 c 0,-3 1,-4 4,-4 z"
     id="rect7365"
     style="fill:#ffffff;fill-opacity:1;stroke:none" />
</svg>
