<?xml version="1.0" encoding="UTF-8" standalone="no"?>
<!-- Created with Inkscape (http://www.inkscape.org/) -->

<svg
   xmlns:dc="http://purl.org/dc/elements/1.1/"
   xmlns:cc="http://creativecommons.org/ns#"
   xmlns:rdf="http://www.w3.org/1999/02/22-rdf-syntax-ns#"
   xmlns:svg="http://www.w3.org/2000/svg"
   xmlns="http://www.w3.org/2000/svg"
   version="1.1"
   width="100"
   height="100"
   id="svg7450">
  <metadata
     id="metadata7456">
    <rdf:RDF>
      <cc:Work
         rdf:about="">
        <dc:format>image/svg+xml</dc:format>
        <dc:type
           rdf:resource="http://purl.org/dc/dcmitype/StillImage" />
        <dc:title></dc:title>
      </cc:Work>
    </rdf:RDF>
  </metadata>
  <defs
     id="defs7454" />
  <g
     id="layer5">
    <path
       d="m 12.32517,9.471476 c -3,0 -4,1 -4,4 l 0,72 c -3,0 -4,-1 -4,-4 l 0,-61 c -3,0 -4,1 -4,4 l 0,61 c 0,3 1,4 4,4 32,0 63,0 92,0 3,0 4,-1 4,-4 l 0,-72 c 0,-3 -1,-4 -4,-4 z m 2,6 80,0 0,14 -80,0 z m 2,20 18,0 c 1,0 2,1 2,2 0,1 -1,2 -2,2 l -18,0 c -1,0 -2,-1 -2,-2 0,-1 1,-2 2,-2 z m 27,0 22,0 0,18 -22,0 z m 29,0 22,0 0,18 -22,0 z m -56,7 18,0 c 1,0 2,1 2,2 0,1 -1,2 -2,2 l -18,0 c -1,0 -2,-1 -2,-2 0,-1 1,-2 2,-2 z m 0,7 18,0 c 1,0 2,1 2,2 0,1 -1,2 -2,2 l -18,0 c -1,0 -2,-1 -2,-2 0,-1 1,-2 2,-2 z m 0,7 18,0 c 1,0 2,1 2,2 0,1 -1,2 -2,2 l -18,0 c -1,0 -2,-1 -2,-2 0,-1 1,-2 2,-2 z m 29,0 18,0 c 1,0 2,1 2,2 0,1 -1,2 -2,2 l -18,0 c -1,0 -2,-1 -2,-2 0,-1 1,-2 2,-2 z m 29,0 18,0 c 1,0 2,1 2,2 0,1 -1,2 -2,2 l -18,0 c -1,0 -2,-1 -2,-2 0,-1 1,-2 2,-2 z m -58,7 18,0 c 1,0 2,1 2,2 0,1 -1,2 -2,2 l -18,0 c -1,0 -2,-1 -2,-2 0,-1 1,-2 2,-2 z m 29,0 18,0 c 1,0 2,1 2,2 0,1 -1,2 -2,2 l -18,0 c -1,0 -2,-1 -2,-2 0,-1 1,-2 2,-2 z m 29,0 18,0 c 1,0 2,1 2,2 0,1 -1,2 -2,2 l -18,0 c -1,0 -2,-1 -2,-2 0,-1 1,-2 2,-2 z m -58,7 18,0 c 1,0 2,1 2,2 0,1 -1,2 -2,2 l -18,0 c -1,0 -2,-1 -2,-2 0,-1 1,-2 2,-2 z m 29,0 18,0 c 1,0 2,1 2,2 0,1 -1,2 -2,2 l -18,0 c -1,0 -2,-1 -2,-2 0,-1 1,-2 2,-2 z m 29,0 18,0 c 1,0 2,1 2,2 0,1 -1,2 -2,2 l -18,0 c -1,0 -2,-1 -2,-2 0,-1 1,-2 2,-2 z m -58,7 18,0 c 1,0 2,1 2,2 0,1 -1,2 -2,2 l -18,0 c -1,0 -2,-1 -2,-2 0,-1 1,-2 2,-2 z m 29,0 18,0 c 1,0 2,1 2,2 0,1 -1,2 -2,2 l -18,0 c -1,0 -2,-1 -2,-2 0,-1 1,-2 2,-2 z m 29,0 18,0 c 1,0 2,1 2,2 0,1 -1,2 -2,2 l -18,0 c -1,0 -2,-1 -2,-2 0,-1 1,-2 2,-2 z"
       id="path4113"
       style="fill:#ffffff;fill-opacity:1;stroke:none" />
    <path
       d="m 4.32517,18.471476 0,67 4,0 c 0,0 0,-68 0,-71 -3,0 -4,1 -4,4 z"
       id="rect7701-4-7"
       style="fill:#ffffff;fill-opacity:0.50793654;stroke:none" />
  </g>
</svg>
