<?xml version="1.0" encoding="UTF-8" standalone="no"?>
<!-- Created with Inkscape (http://www.inkscape.org/) -->

<svg
   xmlns:dc="http://purl.org/dc/elements/1.1/"
   xmlns:cc="http://creativecommons.org/ns#"
   xmlns:rdf="http://www.w3.org/1999/02/22-rdf-syntax-ns#"
   xmlns:svg="http://www.w3.org/2000/svg"
   xmlns="http://www.w3.org/2000/svg"
   xmlns:sodipodi="http://sodipodi.sourceforge.net/DTD/sodipodi-0.dtd"
   xmlns:inkscape="http://www.inkscape.org/namespaces/inkscape"
   version="1.1"
   width="100"
   height="80"
   id="svg7450"
   inkscape:version="0.48.4 r9939"
   sodipodi:docname="News.svg">
  <sodipodi:namedview
     pagecolor="#ff64ff"
     bordercolor="#666666"
     borderopacity="1"
     objecttolerance="10"
     gridtolerance="10000"
     guidetolerance="10"
     inkscape:pageopacity="0.49019608"
     inkscape:pageshadow="2"
     inkscape:window-width="1680"
     inkscape:window-height="987"
     id="namedview2999"
     showgrid="true"
     inkscape:zoom="8"
     inkscape:cx="65.128509"
     inkscape:cy="38.287949"
     inkscape:window-x="1912"
     inkscape:window-y="-8"
     inkscape:window-maximized="1"
     inkscape:current-layer="svg7450"
     fit-margin-top="0"
     fit-margin-left="0"
     fit-margin-right="0"
     fit-margin-bottom="0" />
  <metadata
     id="metadata7456">
    <rdf:RDF>
      <cc:Work
         rdf:about="">
        <dc:format>image/svg+xml</dc:format>
        <dc:type
           rdf:resource="http://purl.org/dc/dcmitype/StillImage" />
        <dc:title />
      </cc:Work>
    </rdf:RDF>
  </metadata>
  <defs
     id="defs7454" />

  <path
     id="path3003"
     style="fill:#ffffff;fill-opacity:1;stroke:none"
     d="m 0,11 0,65 c 0,3 1,4 4,4 32,0 63,0 92,0 3,0 4,-1 4,-4 L 100,0 8,0 c 0,0 0,49 0,72 0,3 -4,3 -4,0 l 0,-57 4,0 0,-4 m 6,-5 80,0 0,14 L 14,20 z M 16,26 34,26 c 1,0 2,1 2,2 0,1 -1,2 -2,2 l -18,0 c -1,0 -2,-1 -2,-2 0,-1 1,-2 2,-2 z m 27,0 22,0 0,18 -22,0 z m 29,0 22,0 0,18 -22,0 z m -56,7 18,0 c 1,0 2,1 2,2 0,1 -1,2 -2,2 l -18,0 c -1,0 -2,-1 -2,-2 0,-1 1,-2 2,-2 z m 0,7 18,0 c 1,0 2,1 2,2 0,1 -1,2 -2,2 l -18,0 c -1,0 -2,-1 -2,-2 0,-1 1,-2 2,-2 z m 0,7 18,0 c 1,0 2,1 2,2 0,1 -1,2 -2,2 l -18,0 c -1,0 -2,-1 -2,-2 0,-1 1,-2 2,-2 z m 29,0 18,0 c 1,0 2,1 2,2 0,1 -1,2 -2,2 l -18,0 c -1,0 -2,-1 -2,-2 0,-1 1,-2 2,-2 z m 29,0 18,0 c 1,0 2,1 2,2 0,1 -1,2 -2,2 l -18,0 c -1,0 -2,-1 -2,-2 0,-1 1,-2 2,-2 z m -58,7 18,0 c 1,0 2,1 2,2 0,1 -1,2 -2,2 l -18,0 c -1,0 -2,-1 -2,-2 0,-1 1,-2 2,-2 z m 29,0 18,0 c 1,0 2,1 2,2 0,1 -1,2 -2,2 l -18,0 c -1,0 -2,-1 -2,-2 0,-1 1,-2 2,-2 z m 29,0 18,0 c 1,0 2,1 2,2 0,1 -1,2 -2,2 l -18,0 c -1,0 -2,-1 -2,-2 0,-1 1,-2 2,-2 z m -58,7 18,0 c 1,0 2,1 2,2 0,1 -1,2 -2,2 l -18,0 c -1,0 -2,-1 -2,-2 0,-1 1,-2 2,-2 z m 29,0 18,0 c 1,0 2,1 2,2 0,1 -1,2 -2,2 l -18,0 c -1,0 -2,-1 -2,-2 0,-1 1,-2 2,-2 z M 74,61 92,61 c 1,2.33e-4 2,1 2,2 0,1 -1,2 -2,2 l -18,0 c -1,0 -2,-1 -2,-2 0,-1 1,-2 2,-2 z M 16,68 34,68 c 1,0 2,1 2,2 C 36,71 35,72 34,72 l -18,0 c -1,0 -2,-1 -2,-2 0,-1 1,-2 2,-2 z m 29,0 18,0 c 1,0 2,1 2,2 0,1 -1,2 -2,2 l -18,0 c -1,0 -2,-1 -2,-2 0,-1 1,-2 2,-2 z m 29,0 18,0 c 1,0 2,1 2,2 0,1 -1,2 -2,2 l -18,0 c -1,0 -2,-1 -2,-2 0,-1 1,-2 2,-2 z"
     inkscape:connector-curvature="0"
     sodipodi:nodetypes="csssscccsccccccccsssssssccccccccccssssssssssssssssssssssssssssssssssssssssssssssssssssssssssssssssssssssssssssssssssssssssssssssssss" />
</svg>
