<?xml version="1.0" encoding="UTF-8" standalone="no"?>
<!-- Created with Inkscape (http://www.inkscape.org/) -->

<svg
   xmlns:dc="http://purl.org/dc/elements/1.1/"
   xmlns:cc="http://creativecommons.org/ns#"
   xmlns:rdf="http://www.w3.org/1999/02/22-rdf-syntax-ns#"
   xmlns:svg="http://www.w3.org/2000/svg"
   xmlns="http://www.w3.org/2000/svg"
   xmlns:sodipodi="http://sodipodi.sourceforge.net/DTD/sodipodi-0.dtd"
   xmlns:inkscape="http://www.inkscape.org/namespaces/inkscape"
   id="svg7450"
   version="1.1"
   inkscape:version="0.48.4 r9939"
   width="100"
   height="100"
   sodipodi:docname="News.svg"
   inkscape:export-filename="X:\Pics\News.png"
   inkscape:export-xdpi="90"
   inkscape:export-ydpi="90">
  <metadata
     id="metadata7456">
    <rdf:RDF>
      <cc:Work
         rdf:about="">
        <dc:format>image/svg+xml</dc:format>
        <dc:type
           rdf:resource="http://purl.org/dc/dcmitype/StillImage" />
        <dc:title />
      </cc:Work>
    </rdf:RDF>
  </metadata>
  <defs
     id="defs7454" />
  <sodipodi:namedview
     pagecolor="#000000"
     bordercolor="#666666"
     borderopacity="1"
     objecttolerance="10"
     gridtolerance="10000"
     guidetolerance="10"
     inkscape:pageopacity="1"
     inkscape:pageshadow="2"
     inkscape:window-width="1680"
     inkscape:window-height="987"
     id="namedview7452"
     showgrid="true"
     inkscape:zoom="2.8284271"
     inkscape:cx="116.30306"
     inkscape:cy="80.857783"
     inkscape:window-x="1912"
     inkscape:window-y="-8"
     inkscape:window-maximized="1"
     inkscape:current-layer="layer5"
     fit-margin-top="10"
     fit-margin-left="0"
     fit-margin-right="0"
     fit-margin-bottom="10"
     inkscape:showpageshadow="false" />
  <g
     inkscape:groupmode="layer"
     id="layer5"
     inkscape:label="SVG"
     transform="translate(-0.32517,10.528524)">
    <path
       style="fill:#ffffff;fill-opacity:1;stroke:none"
       d="m 12.32517,-0.528524 c -3,0 -4,1 -4,4 l 0,72 c -3,0 -4,-1 -4,-4 l 0,-61 c -3,0 -4,1 -4,4 l 0,61 c 0,3 1,4 4,4 32,0 63,0 92,0 3,0 4,-1 4,-4 l 0,-72 c 0,-3 -1,-4 -4,-4 z m 2,6 80,0 0,14 -80,0 z m 2,20 18,0 c 1,0 2,1 2,2 0,1 -1,2 -2,2 l -18,0 c -1,0 -2,-1 -2,-2 0,-1 1,-2 2,-2 z m 27,0 22,0 0,18 -22,0 z m 29,0 22,0 0,18 -22,0 z m -56,7 18,0 c 1,0 2,1 2,2 0,1 -1,2 -2,2 l -18,0 c -1,0 -2,-1 -2,-2 0,-1 1,-2 2,-2 z m 0,7 18,0 c 1,0 2,1 2,2 0,1 -1,2 -2,2 l -18,0 c -1,0 -2,-1 -2,-2 0,-1 1,-2 2,-2 z m 0,7 18,0 c 1,0 2,1 2,2 0,1 -1,2 -2,2 l -18,0 c -1,0 -2,-1 -2,-2 0,-1 1,-2 2,-2 z m 29,0 18,0 c 1,0 2,1 2,2 0,1 -1,2 -2,2 l -18,0 c -1,0 -2,-1 -2,-2 0,-1 1,-2 2,-2 z m 29,0 18,0 c 1,0 2,1 2,2 0,1 -1,2 -2,2 l -18,0 c -1,0 -2,-1 -2,-2 0,-1 1,-2 2,-2 z m -58,7 18,0 c 1,0 2,1 2,2 0,1 -1,2 -2,2 l -18,0 c -1,0 -2,-1 -2,-2 0,-1 1,-2 2,-2 z m 29,0 18,0 c 1,0 2,1 2,2 0,1 -1,2 -2,2 l -18,0 c -1,0 -2,-1 -2,-2 0,-1 1,-2 2,-2 z m 29,0 18,0 c 1,0 2,1 2,2 0,1 -1,2 -2,2 l -18,0 c -1,0 -2,-1 -2,-2 0,-1 1,-2 2,-2 z m -58,7 18,0 c 1,0 2,1 2,2 0,1 -1,2 -2,2 l -18,0 c -1,0 -2,-1 -2,-2 0,-1 1,-2 2,-2 z m 29,0 18,0 c 1,0 2,1 2,2 0,1 -1,2 -2,2 l -18,0 c -1,0 -2,-1 -2,-2 0,-1 1,-2 2,-2 z m 29,0 18,0 c 1,0 2,1 2,2 0,1 -1,2 -2,2 l -18,0 c -1,0 -2,-1 -2,-2 0,-1 1,-2 2,-2 z m -58,7 18,0 c 1,0 2,1 2,2 0,1 -1,2 -2,2 l -18,0 c -1,0 -2,-1 -2,-2 0,-1 1,-2 2,-2 z m 29,0 18,0 c 1,0 2,1 2,2 0,1 -1,2 -2,2 l -18,0 c -1,0 -2,-1 -2,-2 0,-1 1,-2 2,-2 z m 29,0 18,0 c 1,0 2,1 2,2 0,1 -1,2 -2,2 l -18,0 c -1,0 -2,-1 -2,-2 0,-1 1,-2 2,-2 z"
       id="path4113"
       inkscape:connector-curvature="0"
       sodipodi:nodetypes="sscscsssssssscccccsssssssccccccccccssssssssssssssssssssssssssssssssssssssssssssssssssssssssssssssssssssssssssssssssssssssssssssssssss" />
    <path
       inkscape:connector-curvature="0"
       style="fill:#ffffff;fill-opacity:0.50793654;stroke:none"
       d="m 4.32517,8.471476 0,67 4,0 c 0,0 0,-68 0,-71 -3,0 -4,1 -4,4 z"
       id="rect7701-4-7"
       sodipodi:nodetypes="ccccc" />
  </g>
</svg>
