<?xml version="1.0" encoding="UTF-8" standalone="no"?>
<!-- Created with Inkscape (http://www.inkscape.org/) -->

<svg
   xmlns:dc="http://purl.org/dc/elements/1.1/"
   xmlns:cc="http://creativecommons.org/ns#"
   xmlns:rdf="http://www.w3.org/1999/02/22-rdf-syntax-ns#"
   xmlns:svg="http://www.w3.org/2000/svg"
   xmlns="http://www.w3.org/2000/svg"
   version="1.1"
   width="100"
   height="100"
   id="svg7831">
  <metadata
     id="metadata7837">
    <rdf:RDF>
      <cc:Work
         rdf:about="">
        <dc:format>image/svg+xml</dc:format>
        <dc:type
           rdf:resource="http://purl.org/dc/dcmitype/StillImage" />
        <dc:title></dc:title>
      </cc:Work>
    </rdf:RDF>
  </metadata>
  <defs
     id="defs7835">
    <marker
       refX="0"
       refY="0"
       orient="auto"
       id="Arrow1Lstart"
       style="overflow:visible">
      <path
         d="M 0,0 5,-5 -12.5,0 5,5 0,0 z"
         transform="matrix(0.8,0,0,0.8,10,0)"
         id="path13524"
         style="fill-rule:evenodd;stroke:#000000;stroke-width:1pt" />
    </marker>
  </defs>
  <g
     id="layer6">
    <path
       d="m 63,31 0,52 4,0 0,-52 z m -14,0 0,52 4,0 0,-52 z m -14,0 0,52 4,0 0,-52 z M 56,0 C 52,0 48,2 46,4 42,2 38,3 36,5 34,4 32,3 29,3 22,3 16,9 16,16 c 0,3 1,6 3,9 l 0,4 c -3,0 -5,0 -7,0 -4,0 -7,3 -7,7 l 0,34 c 0,4 3,7 7,7 3,0 5,0 7,0 l 0,15 c 0,4 4,8 9,8 l 48,0 c 4,0 8,-4 8,-8 l 0,-71 c 2,-2 3,-5 3,-8 C 87,7 82.72219,2 76,2 71,2 70,3 68,4 66,2 62,0 56,0 z m 19,25 c 0,9 0,61 0,61 0,4 -3,7 -7,7 l -34,0 c -4,0 -7,-3 -7,-7 l 0,-58 c 4.81512,0.86837 7.90215,0.32468 11,-4 2,1 5,2 8,0 3,3 6,5 11,5 3,0 7,-1 10,-4 2,2 6,2 8,0 z m -64,10 8,0 0,36 -8,0 z"
       id="path4699"
       style="fill:#ffffff;fill-opacity:1;stroke:none;stroke-width:0;marker-start:none" />
  </g>
</svg>
