<?xml version="1.0" encoding="UTF-8" standalone="no"?>
<!-- Created with Inkscape (http://www.inkscape.org/) -->

<svg
   xmlns:dc="http://purl.org/dc/elements/1.1/"
   xmlns:cc="http://creativecommons.org/ns#"
   xmlns:rdf="http://www.w3.org/1999/02/22-rdf-syntax-ns#"
   xmlns:svg="http://www.w3.org/2000/svg"
   xmlns="http://www.w3.org/2000/svg"
   xmlns:sodipodi="http://sodipodi.sourceforge.net/DTD/sodipodi-0.dtd"
   xmlns:inkscape="http://www.inkscape.org/namespaces/inkscape"
   id="svg8000"
   version="1.1"
   inkscape:version="0.48.4 r9939"
   width="100.00123"
   height="100"
   sodipodi:docname="Transport.svg"
   inkscape:export-filename="X:\Pics\Transport.png"
   inkscape:export-xdpi="90"
   inkscape:export-ydpi="90">
  <metadata
     id="metadata8006">
    <rdf:RDF>
      <cc:Work
         rdf:about="">
        <dc:format>image/svg+xml</dc:format>
        <dc:type
           rdf:resource="http://purl.org/dc/dcmitype/StillImage" />
        <dc:title />
      </cc:Work>
    </rdf:RDF>
  </metadata>
  <defs
     id="defs8004" />
  <sodipodi:namedview
     pagecolor="#000000"
     bordercolor="#666666"
     borderopacity="1"
     objecttolerance="10"
     gridtolerance="10000"
     guidetolerance="10"
     inkscape:pageopacity="1"
     inkscape:pageshadow="2"
     inkscape:window-width="1680"
     inkscape:window-height="987"
     id="namedview8002"
     showgrid="true"
     inkscape:zoom="8"
     inkscape:cx="25.659069"
     inkscape:cy="51.924413"
     inkscape:window-x="1912"
     inkscape:window-y="-8"
     inkscape:window-maximized="1"
     inkscape:current-layer="svg8000"
     fit-margin-top="0"
     fit-margin-left="8"
     fit-margin-right="8"
     fit-margin-bottom="0"
     inkscape:showpageshadow="false"
     showborder="true"
     borderlayer="false"
     showguides="true"
     inkscape:snap-from-guide="true"
     inkscape:snap-global="true" />
  <path
     style="fill:#ffffff;fill-opacity:1;stroke:none"
     d="m 33,89 34,0 c 0,6 3,11 9,11 6,0 9,-5 9,-11 l 7,0 0,-75 c 0,-8 -6,-14 -14,-14 l -56,0 C 14,0 8,6 8,14 c 0,25 0,53 0,75 l 7,0 c 0,6 3,11 9,11 6,0 9,-5 9,-11 z m 0,-85 34,0 c 4,0 4,8 0,8 l -34,0 c -4,0 -4,-8 0,-8 z m -13,15 60,0 0,30 -60,0 z m 4,38 c 5,0 9,4 9,9 0,5 -4,9 -9,9 -5,0 -9,-4 -9,-9 0,-5 4,-9 9,-9 z m 52,0 c 5,0 9,4 9,9 0,5 -4,9 -9,9 -5,0 -9,-4 -9,-9 0,-5 4,-9 9,-9 z"
     id="path4739"
     inkscape:connector-curvature="0"
     sodipodi:nodetypes="cccccssscccccccccccccccssssssssss" />
</svg>
