<?xml version="1.0" encoding="UTF-8" standalone="no"?>
<!-- Created with Inkscape (http://www.inkscape.org/) -->

<svg
   xmlns:dc="http://purl.org/dc/elements/1.1/"
   xmlns:cc="http://creativecommons.org/ns#"
   xmlns:rdf="http://www.w3.org/1999/02/22-rdf-syntax-ns#"
   xmlns:svg="http://www.w3.org/2000/svg"
   xmlns="http://www.w3.org/2000/svg"
   version="1.1"
   width="100"
   height="100"
   id="svg8000">
  <metadata
     id="metadata8006">
    <rdf:RDF>
      <cc:Work
         rdf:about="">
        <dc:format>image/svg+xml</dc:format>
        <dc:type
           rdf:resource="http://purl.org/dc/dcmitype/StillImage" />
        <dc:title></dc:title>
      </cc:Work>
    </rdf:RDF>
  </metadata>
  <defs
     id="defs8004" />
  <path
     d="m 33,89 34,0 c 0,6 3,11 9,11 6,0 9,-5 9,-11 l 7,0 0,-75 C 92,6 86,0 78,0 L 22,0 C 14,0 8,6 8,14 8,39 8,67 8,89 l 7,0 c 0,6 3,11 9,11 6,0 9,-5 9,-11 z M 33,4 67,4 c 4,0 4,8 0,8 l -34,0 c -4,0 -4,-8 0,-8 z m -13,15 60,0 0,30 -60,0 z m 4,38 c 5,0 9,4 9,9 0,5 -4,9 -9,9 -5,0 -9,-4 -9,-9 0,-5 4,-9 9,-9 z m 52,0 c 5,0 9,4 9,9 0,5 -4,9 -9,9 -5,0 -9,-4 -9,-9 0,-5 4,-9 9,-9 z"
     id="path4739"
     style="fill:#ffffff;fill-opacity:1;stroke:none" />
</svg>
