<?xml version="1.0" encoding="iso-8859-1"?>
<!-- Generator: Adobe Illustrator 16.0.4, SVG Export Plug-In . SVG Version: 6.00 Build 0)  -->
<!DOCTYPE svg PUBLIC "-//W3C//DTD SVG 1.1//EN" "http://www.w3.org/Graphics/SVG/1.1/DTD/svg11.dtd">
<svg version="1.1" id="Layer_1" xmlns="http://www.w3.org/2000/svg" xmlns:xlink="http://www.w3.org/1999/xlink" x="0px" y="0px"
	 width="42px" height="56px" viewBox="0 0 42 56" style="enable-background:new 0 0 42 56;" xml:space="preserve">
<g id="_x37_02-share-selected_x40_2x.png">
	<g>
		<path d="M22,3.414l6.293,6.293C28.474,9.888,28.724,10,29,10c0.553,0,1-0.447,1-1c0-0.276-0.112-0.526-0.293-0.707l-8-8
			C21.526,0.112,21.276,0,21,0s-0.526,0.112-0.707,0.293l-8,8C12.112,8.474,12,8.724,12,9c0,0.553,0.447,1,1,1
			c0.276,0,0.526-0.112,0.707-0.293L20,3.414V16h2V3.414z M40,16H22v19c0,0.553-0.447,1-1,1s-1-0.447-1-1V16H2c-1.104,0-2,0.896-2,2
			v36c0,1.104,0.896,2,2,2h38c1.104,0,2-0.896,2-2V18C42,16.896,41.104,16,40,16z"/>
	</g>
</g>
<g>
</g>
<g>
</g>
<g>
</g>
<g>
</g>
<g>
</g>
<g>
</g>
<g>
</g>
<g>
</g>
<g>
</g>
<g>
</g>
<g>
</g>
<g>
</g>
<g>
</g>
<g>
</g>
<g>
</g>
</svg>
