<?xml version="1.0" encoding="iso-8859-1"?>
<!-- Generator: Adobe Illustrator 16.0.4, SVG Export Plug-In . SVG Version: 6.00 Build 0)  -->
<!DOCTYPE svg PUBLIC "-//W3C//DTD SVG 1.1//EN" "http://www.w3.org/Graphics/SVG/1.1/DTD/svg11.dtd">
<svg version="1.1" id="Layer_1" xmlns="http://www.w3.org/2000/svg" xmlns:xlink="http://www.w3.org/1999/xlink" x="0px" y="0px"
	 width="42px" height="56px" viewBox="0 0 42 56" style="enable-background:new 0 0 42 56;" xml:space="preserve">
<g id="_x37_11-trash-selected_x40_2x.png">
	<g>
		<path d="M41,6H30V4c0-2.209-1.791-4-4-4H16c-2.209,0-4,1.791-4,4v2H1C0.448,6,0,6.448,0,7c0,0.553,0.448,1,1,1h1l4,44
			c0,2.209,1.791,4,4,4h22c2.209,0,4-1.791,4-4l4-44h1c0.553,0,1-0.447,1-1C42,6.448,41.553,6,41,6z M14,4c0-1.104,0.896-2,2-2h10
			c1.104,0,2,0.896,2,2v2H14V4z M14.059,50.002c-0.551,0.032-1.024-0.389-1.057-0.941l-1.99-36.001
			c-0.032-0.552,0.389-1.026,0.94-1.059s1.024,0.39,1.057,0.941l1.99,36.001C15.031,49.496,14.61,49.97,14.059,50.002z M22,49
			c0,0.553-0.447,1-1,1c-0.552,0-1-0.447-1-1V13c0-0.552,0.448-1,1-1c0.553,0,1,0.448,1,1V49z M28.998,49.062
			c-0.032,0.551-0.505,0.972-1.057,0.939s-0.972-0.505-0.939-1.057l1.989-35.941c0.033-0.552,0.506-0.973,1.058-0.94
			c0.551,0.032,0.972,0.506,0.939,1.057L28.998,49.062z"/>
	</g>
</g>
<g>
</g>
<g>
</g>
<g>
</g>
<g>
</g>
<g>
</g>
<g>
</g>
<g>
</g>
<g>
</g>
<g>
</g>
<g>
</g>
<g>
</g>
<g>
</g>
<g>
</g>
<g>
</g>
<g>
</g>
</svg>
