<?xml version="1.0" encoding="iso-8859-1"?>
<!-- Generator: Adobe Illustrator 16.0.4, SVG Export Plug-In . SVG Version: 6.00 Build 0)  -->
<!DOCTYPE svg PUBLIC "-//W3C//DTD SVG 1.1//EN" "http://www.w3.org/Graphics/SVG/1.1/DTD/svg11.dtd">
<svg version="1.1" id="Layer_1" xmlns="http://www.w3.org/2000/svg" xmlns:xlink="http://www.w3.org/1999/xlink" x="0px" y="0px"
	 width="56px" height="42px" viewBox="0 0 56 42" style="enable-background:new 0 0 56 42;" xml:space="preserve">
<g id="_x37_14-camera-selected_x40_2x.png">
	<g>
		<path d="M28,12c-5.522,0-10,4.478-10,10c0,5.523,4.478,10,10,10s10-4.477,10-10C38,16.478,33.522,12,28,12z M28,30
			c-4.418,0-8-3.582-8-8s3.582-8,8-8s8,3.582,8,8S32.418,30,28,30z M28,16c-3.313,0-6,2.687-6,6s2.687,6,6,6s6-2.687,6-6
			S31.313,16,28,16z M52,6h-8c-4,0-6-6-10-6s-6,0-6,0s-2,0-6,0s-6,6-10,6H4c-2.209,0-4,1.791-4,4v28c0,2.209,1.791,4,4,4h48
			c2.209,0,4-1.791,4-4V10C56,7.791,54.209,6,52,6z M28,34c-6.627,0-12-5.372-12-12c0-6.627,5.373-12,12-12s12,5.373,12,12
			C40,28.628,34.627,34,28,34z M44,15c-1.104,0-2-0.896-2-2s0.896-2,2-2s2,0.896,2,2S45.104,15,44,15z"/>
	</g>
</g>
<g>
</g>
<g>
</g>
<g>
</g>
<g>
</g>
<g>
</g>
<g>
</g>
<g>
</g>
<g>
</g>
<g>
</g>
<g>
</g>
<g>
</g>
<g>
</g>
<g>
</g>
<g>
</g>
<g>
</g>
</svg>
