<?xml version="1.0" encoding="iso-8859-1"?>
<!-- Generator: Adobe Illustrator 16.0.4, SVG Export Plug-In . SVG Version: 6.00 Build 0)  -->
<!DOCTYPE svg PUBLIC "-//W3C//DTD SVG 1.1//EN" "http://www.w3.org/Graphics/SVG/1.1/DTD/svg11.dtd">
<svg version="1.1" id="Layer_1" xmlns="http://www.w3.org/2000/svg" xmlns:xlink="http://www.w3.org/1999/xlink" x="0px" y="0px"
	 width="56px" height="56px" viewBox="0 0 56 56" style="enable-background:new 0 0 56 56;" xml:space="preserve">
<g id="_x37_15-globe-selected_x40_2x.png">
	<g>
		<path d="M22.229,51.272c1.539,0.381,3.133,0.621,4.771,0.694V41.04c-3.488,0.099-6.781,0.682-9.694,1.686
			C18.555,46.341,20.245,49.301,22.229,51.272z M16.706,40.84c3.11-1.075,6.602-1.698,10.294-1.799V29H15.018
			C15.1,33.299,15.704,37.325,16.706,40.84z M18.881,5.805c-2.706,1.113-5.157,2.711-7.259,4.678
			c1.177,0.783,2.474,1.483,3.888,2.084C16.428,9.981,17.564,7.691,18.881,5.805z M17.306,13.275
			c2.913,1.003,6.206,1.586,9.694,1.685V4.033c-1.638,0.074-3.231,0.313-4.771,0.694C20.245,6.7,18.555,9.659,17.306,13.275z
			 M15.018,27H27V16.959c-3.692-0.1-7.184-0.724-10.294-1.798C15.704,18.675,15.1,22.702,15.018,27z M14.908,14.453
			c-1.711-0.719-3.284-1.567-4.688-2.537C6.579,15.941,4.277,21.2,4.038,27h8.994C13.119,22.451,13.796,18.196,14.908,14.453z
			 M11.622,45.519c2.102,1.967,4.553,3.563,7.259,4.677c-1.316-1.887-2.453-4.176-3.371-6.762
			C14.096,44.035,12.799,44.735,11.622,45.519z M13.032,29H4.038c0.239,5.8,2.541,11.059,6.183,15.084
			c1.403-0.969,2.977-1.818,4.688-2.537C13.796,37.805,13.119,33.549,13.032,29z M44.378,10.482
			c-2.102-1.967-4.553-3.564-7.259-4.678c1.316,1.887,2.453,4.177,3.371,6.762C41.904,11.966,43.201,11.266,44.378,10.482z
			 M37.119,50.195c2.706-1.113,5.157-2.71,7.259-4.677c-1.177-0.783-2.474-1.483-3.888-2.085
			C39.572,46.02,38.436,48.309,37.119,50.195z M42.968,27h8.994c-0.239-5.8-2.541-11.059-6.182-15.084
			c-1.404,0.97-2.978,1.818-4.688,2.537C42.204,18.196,42.881,22.451,42.968,27z M29,41.04v10.927
			c1.638-0.073,3.231-0.313,4.771-0.694c1.984-1.972,3.675-4.932,4.924-8.547C35.781,41.722,32.488,41.139,29,41.04z M28,0
			C12.536,0,0,12.536,0,28s12.536,28,28,28s28-12.536,28-28S43.464,0,28,0z M28,54C13.641,54,2,42.359,2,28S13.641,2,28,2
			s26,11.641,26,26S42.359,54,28,54z M41.092,41.547c1.711,0.719,3.284,1.568,4.688,2.537C49.421,40.059,51.723,34.8,51.962,29
			h-8.994C42.881,33.549,42.204,37.805,41.092,41.547z M40.982,29H29v10.041c3.692,0.101,7.184,0.724,10.294,1.799
			C40.296,37.325,40.9,33.299,40.982,29z M33.771,4.728C32.231,4.347,30.638,4.107,29,4.033V14.96
			c3.488-0.099,6.781-0.682,9.694-1.685C37.445,9.659,35.755,6.7,33.771,4.728z M39.294,15.161
			c-3.11,1.074-6.602,1.698-10.294,1.798V27h11.982C40.9,22.702,40.296,18.675,39.294,15.161z"/>
	</g>
</g>
<g>
</g>
<g>
</g>
<g>
</g>
<g>
</g>
<g>
</g>
<g>
</g>
<g>
</g>
<g>
</g>
<g>
</g>
<g>
</g>
<g>
</g>
<g>
</g>
<g>
</g>
<g>
</g>
<g>
</g>
</svg>
