<?xml version="1.0" encoding="iso-8859-1"?>
<!-- Generator: Adobe Illustrator 16.0.4, SVG Export Plug-In . SVG Version: 6.00 Build 0)  -->
<!DOCTYPE svg PUBLIC "-//W3C//DTD SVG 1.1//EN" "http://www.w3.org/Graphics/SVG/1.1/DTD/svg11.dtd">
<svg version="1.1" id="Layer_1" xmlns="http://www.w3.org/2000/svg" xmlns:xlink="http://www.w3.org/1999/xlink" x="0px" y="0px"
	 width="56.023px" height="56.011px" viewBox="0 0 56.023 56.011" style="enable-background:new 0 0 56.023 56.011;"
	 xml:space="preserve">
<g id="_x37_19-alarm-clock-selected_x40_2x.png">
	<g>
		<path d="M3.121,15.711l12.59-12.591c0.396-0.396,0.396-1.038,0-1.435l0.014-0.013c-0.111-0.073-0.229-0.136-0.342-0.205
			c-0.003-0.001-0.005-0.003-0.008-0.005c-3.899-2.361-9.043-1.868-12.411,1.5s-3.861,8.512-1.5,12.411
			c0.001,0.003,0.004,0.005,0.005,0.008c0.069,0.114,0.132,0.23,0.205,0.342l0.013-0.013C2.083,16.107,2.725,16.107,3.121,15.711z
			 M53.06,2.963c-3.368-3.368-8.512-3.861-12.411-1.5c-0.003,0.002-0.005,0.004-0.008,0.005c-0.113,0.069-0.23,0.132-0.342,0.205
			l0.014,0.013c-0.396,0.396-0.396,1.038,0,1.435l12.59,12.591c0.396,0.396,1.038,0.396,1.435,0l0.013,0.013
			c0.073-0.111,0.136-0.228,0.205-0.342c0.001-0.003,0.004-0.005,0.005-0.008C56.921,11.475,56.428,6.332,53.06,2.963z
			 M28.012,4.011c-14.359,0-26,11.641-26,26c0,7.092,2.847,13.513,7.45,18.203l-6.164,6.164c-0.372,0.372-0.372,0.975,0,1.347
			s0.975,0.372,1.347,0l6.212-6.212c4.58,4.033,10.573,6.498,17.155,6.498c6.581,0,12.573-2.465,17.153-6.496l6.209,6.209
			c0.373,0.374,0.978,0.374,1.351,0c0.373-0.373,0.373-0.978,0-1.351l-6.161-6.161c4.603-4.69,7.448-11.11,7.448-18.201
			C54.012,15.652,42.371,4.011,28.012,4.011z M29.012,30.011c0,0.553-0.447,1-1,1h-12c-0.553,0-1-0.447-1-1c0-0.552,0.447-1,1-1h11
			v-17c0-0.552,0.447-1,1-1s1,0.448,1,1V30.011z"/>
	</g>
</g>
<g>
</g>
<g>
</g>
<g>
</g>
<g>
</g>
<g>
</g>
<g>
</g>
<g>
</g>
<g>
</g>
<g>
</g>
<g>
</g>
<g>
</g>
<g>
</g>
<g>
</g>
<g>
</g>
<g>
</g>
</svg>
