<?xml version="1.0" encoding="iso-8859-1"?>
<!-- Generator: Adobe Illustrator 16.0.4, SVG Export Plug-In . SVG Version: 6.00 Build 0)  -->
<!DOCTYPE svg PUBLIC "-//W3C//DTD SVG 1.1//EN" "http://www.w3.org/Graphics/SVG/1.1/DTD/svg11.dtd">
<svg version="1.1" id="Layer_1" xmlns="http://www.w3.org/2000/svg" xmlns:xlink="http://www.w3.org/1999/xlink" x="0px" y="0px"
	 width="56px" height="48px" viewBox="0 0 56 48" style="enable-background:new 0 0 56 48;" xml:space="preserve">
<g id="_x37_21-bookmarks-selected_x40_2x.png">
	<g>
		<path d="M4,0C1.791,0,0,1.791,0,4v2v34c0,0,0,4,4,4s19,0,19,0s4,0,4,4V0.563C26.409,0.217,25.734,0,25,0H4z M52,0H31
			c-0.734,0-1.409,0.217-2,0.563V48c0,0,0-4,4-4h19c0,0,4,0,4-4c0-3.395,0-26.945,0-34V4C56,1.791,54.209,0,52,0z"/>
	</g>
</g>
<g>
</g>
<g>
</g>
<g>
</g>
<g>
</g>
<g>
</g>
<g>
</g>
<g>
</g>
<g>
</g>
<g>
</g>
<g>
</g>
<g>
</g>
<g>
</g>
<g>
</g>
<g>
</g>
<g>
</g>
</svg>
