<?xml version="1.0" encoding="iso-8859-1"?>
<!-- Generator: Adobe Illustrator 16.0.4, SVG Export Plug-In . SVG Version: 6.00 Build 0)  -->
<!DOCTYPE svg PUBLIC "-//W3C//DTD SVG 1.1//EN" "http://www.w3.org/Graphics/SVG/1.1/DTD/svg11.dtd">
<svg version="1.1" id="Layer_1" xmlns="http://www.w3.org/2000/svg" xmlns:xlink="http://www.w3.org/1999/xlink" x="0px" y="0px"
	 width="56px" height="56px" viewBox="0 0 56 56" style="enable-background:new 0 0 56 56;" xml:space="preserve">
<g id="_x37_24-info-selected_x40_2x.png">
	<g>
		<path d="M28,0C12.536,0,0,12.536,0,28s12.536,28,28,28s28-12.536,28-28S43.464,0,28,0z M25.66,15.915
			c0.593-0.604,1.3-0.906,2.121-0.906s1.525,0.302,2.113,0.906s0.882,1.332,0.882,2.183s-0.297,1.576-0.89,2.175
			s-1.295,0.898-2.105,0.898c-0.821,0-1.528-0.3-2.121-0.898s-0.889-1.324-0.889-2.175S25.067,16.52,25.66,15.915z M32.996,41
			h-9.608v-1.226c0.264-0.022,0.521-0.051,0.775-0.084c0.253-0.033,0.471-0.089,0.653-0.168c0.324-0.134,0.553-0.327,0.685-0.579
			s0.197-0.585,0.197-0.999v-9.772c0-0.392-0.081-0.735-0.243-1.032s-0.365-0.534-0.608-0.714c-0.182-0.134-0.458-0.263-0.828-0.386
			s-0.707-0.202-1.011-0.235v-1.226l7.449-0.437l0.228,0.252v13.331c0,0.393,0.076,0.726,0.229,0.999
			c0.151,0.274,0.37,0.479,0.653,0.613c0.203,0.101,0.426,0.19,0.669,0.269c0.243,0.079,0.497,0.135,0.761,0.168V41z"/>
	</g>
</g>
<g>
</g>
<g>
</g>
<g>
</g>
<g>
</g>
<g>
</g>
<g>
</g>
<g>
</g>
<g>
</g>
<g>
</g>
<g>
</g>
<g>
</g>
<g>
</g>
<g>
</g>
<g>
</g>
<g>
</g>
</svg>
