<?xml version="1.0" encoding="iso-8859-1"?>
<!-- Generator: Adobe Illustrator 16.0.4, SVG Export Plug-In . SVG Version: 6.00 Build 0)  -->
<!DOCTYPE svg PUBLIC "-//W3C//DTD SVG 1.1//EN" "http://www.w3.org/Graphics/SVG/1.1/DTD/svg11.dtd">
<svg version="1.1" id="Layer_1" xmlns="http://www.w3.org/2000/svg" xmlns:xlink="http://www.w3.org/1999/xlink" x="0px" y="0px"
	 width="56px" height="12px" viewBox="0 0 56 12" style="enable-background:new 0 0 56 12;" xml:space="preserve">
<g id="_x37_27-more-selected_x40_2x.png">
	<g>
		<path d="M6,0C2.687,0,0,2.687,0,6s2.687,6,6,6s6-2.687,6-6S9.313,0,6,0z M28,0c-3.313,0-6,2.687-6,6s2.687,6,6,6s6-2.687,6-6
			S31.313,0,28,0z M50,0c-3.313,0-6,2.687-6,6s2.687,6,6,6s6-2.687,6-6S53.313,0,50,0z"/>
	</g>
</g>
<g>
</g>
<g>
</g>
<g>
</g>
<g>
</g>
<g>
</g>
<g>
</g>
<g>
</g>
<g>
</g>
<g>
</g>
<g>
</g>
<g>
</g>
<g>
</g>
<g>
</g>
<g>
</g>
<g>
</g>
</svg>
