<?xml version="1.0" encoding="iso-8859-1"?>
<!-- Generator: Adobe Illustrator 16.0.4, SVG Export Plug-In . SVG Version: 6.00 Build 0)  -->
<!DOCTYPE svg PUBLIC "-//W3C//DTD SVG 1.1//EN" "http://www.w3.org/Graphics/SVG/1.1/DTD/svg11.dtd">
<svg version="1.1" id="Layer_1" xmlns="http://www.w3.org/2000/svg" xmlns:xlink="http://www.w3.org/1999/xlink" x="0px" y="0px"
	 width="56px" height="36px" viewBox="0 0 56 36" style="enable-background:new 0 0 56 36;" xml:space="preserve">
<g id="_x37_30-envelope-selected_x40_2x.png">
	<g>
		<path d="M0.312,0.936C0.117,1.244,0,1.607,0,2v32c0,0.393,0.117,0.756,0.312,1.064L17.367,17.99L0.312,0.936z M29.417,24.408
			L53.824,0H2.144l24.408,24.408C27.343,25.199,28.626,25.199,29.417,24.408z M30.773,25.818c-1.54,1.54-4.037,1.54-5.578,0
			l-6.444-6.444L2.143,36h51.683L37.218,19.374L30.773,25.818z M55.677,0.915L38.602,17.99l17.075,17.094
			C55.88,34.771,56,34.4,56,34V2C56,1.6,55.88,1.229,55.677,0.915z"/>
	</g>
</g>
<g>
</g>
<g>
</g>
<g>
</g>
<g>
</g>
<g>
</g>
<g>
</g>
<g>
</g>
<g>
</g>
<g>
</g>
<g>
</g>
<g>
</g>
<g>
</g>
<g>
</g>
<g>
</g>
<g>
</g>
</svg>
