<?xml version="1.0" encoding="iso-8859-1"?>
<!-- Generator: Adobe Illustrator 16.0.4, SVG Export Plug-In . SVG Version: 6.00 Build 0)  -->
<!DOCTYPE svg PUBLIC "-//W3C//DTD SVG 1.1//EN" "http://www.w3.org/Graphics/SVG/1.1/DTD/svg11.dtd">
<svg version="1.1" id="Layer_1" xmlns="http://www.w3.org/2000/svg" xmlns:xlink="http://www.w3.org/1999/xlink" x="0px" y="0px"
	 width="56px" height="54px" viewBox="0 0 56 54" style="enable-background:new 0 0 56 54;" xml:space="preserve">
<g id="_x37_31-cloud-download-selected_x40_2x.png">
	<g>
		<path d="M46.835,16.042C46.933,15.374,47,14.695,47,14c0-7.731-6.268-14-14-14c-6.104,0-11.282,3.914-13.197,9.363
			C18.584,8.507,17.103,8,15.5,8c-3.768,0-6.878,2.782-7.411,6.402C3.429,15.68,0,19.935,0,25c0,6.075,4.925,11,11,11h16V19
			c0-0.552,0.448-1,1-1c0.553,0,1,0.448,1,1v17h17c5.522,0,10-4.478,10-10C56,20.759,51.966,16.467,46.835,16.042z M27,50.586
			l-6.293-6.293C20.526,44.112,20.276,44,20,44c-0.552,0-1,0.448-1,1c0,0.276,0.112,0.526,0.293,0.707l8,8
			C27.474,53.889,27.724,54,28,54s0.526-0.111,0.707-0.293l8-8C36.888,45.526,37,45.276,37,45c0-0.552-0.447-1-1-1
			c-0.276,0-0.526,0.112-0.707,0.293L29,50.586V36h-2V50.586z"/>
	</g>
</g>
<g>
</g>
<g>
</g>
<g>
</g>
<g>
</g>
<g>
</g>
<g>
</g>
<g>
</g>
<g>
</g>
<g>
</g>
<g>
</g>
<g>
</g>
<g>
</g>
<g>
</g>
<g>
</g>
<g>
</g>
</svg>
