<?xml version="1.0" encoding="iso-8859-1"?>
<!-- Generator: Adobe Illustrator 16.0.4, SVG Export Plug-In . SVG Version: 6.00 Build 0)  -->
<!DOCTYPE svg PUBLIC "-//W3C//DTD SVG 1.1//EN" "http://www.w3.org/Graphics/SVG/1.1/DTD/svg11.dtd">
<svg version="1.1" id="Layer_1" xmlns="http://www.w3.org/2000/svg" xmlns:xlink="http://www.w3.org/1999/xlink" x="0px" y="0px"
	 width="56px" height="54px" viewBox="0 0 56 54" style="enable-background:new 0 0 56 54;" xml:space="preserve">
<g id="_x37_32-cloud-upload-selected_x40_2x.png">
	<g>
		<path d="M27,53c0,0.553,0.447,1,1,1s1-0.447,1-1V36h-2V53z M46.835,16.042C46.933,15.374,47,14.695,47,14c0-7.731-6.268-14-14-14
			c-6.104,0-11.281,3.914-13.197,9.363C18.584,8.507,17.103,8,15.5,8c-3.768,0-6.878,2.782-7.41,6.402C3.429,15.68,0,19.935,0,25
			c0,6.075,4.925,11,11,11h16V21.414l-6.293,6.293C20.526,27.889,20.276,28,20,28c-0.553,0-1-0.447-1-1
			c0-0.275,0.112-0.526,0.293-0.707l8-8C27.474,18.112,27.724,18,28,18s0.526,0.112,0.707,0.293l8,8C36.888,26.474,37,26.725,37,27
			c0,0.553-0.447,1-1,1c-0.276,0-0.526-0.111-0.707-0.293L29,21.414V36h17c5.522,0,10-4.478,10-10
			C56,20.759,51.966,16.467,46.835,16.042z"/>
	</g>
</g>
<g>
</g>
<g>
</g>
<g>
</g>
<g>
</g>
<g>
</g>
<g>
</g>
<g>
</g>
<g>
</g>
<g>
</g>
<g>
</g>
<g>
</g>
<g>
</g>
<g>
</g>
<g>
</g>
<g>
</g>
</svg>
