<?xml version="1.0" encoding="iso-8859-1"?>
<!-- Generator: Adobe Illustrator 16.0.4, SVG Export Plug-In . SVG Version: 6.00 Build 0)  -->
<!DOCTYPE svg PUBLIC "-//W3C//DTD SVG 1.1//EN" "http://www.w3.org/Graphics/SVG/1.1/DTD/svg11.dtd">
<svg version="1.1" id="Layer_1" xmlns="http://www.w3.org/2000/svg" xmlns:xlink="http://www.w3.org/1999/xlink" x="0px" y="0px"
	 width="55.986px" height="55.986px" viewBox="0 0 55.986 55.986" style="enable-background:new 0 0 55.986 55.986;"
	 xml:space="preserve">
<g id="_x37_37-zoom-out-selected_x40_2x.png">
	<g>
		<path d="M55.696,54.295L39.931,38.529C43.688,34.436,46,28.995,46,23C46,10.298,35.702,0,23,0S0,10.298,0,23s10.298,23,23,23
			c5.994,0,11.436-2.312,15.529-6.069l15.766,15.766c0.387,0.387,1.014,0.387,1.401,0C56.083,55.31,56.083,54.682,55.696,54.295z
			 M34,24H12c-0.553,0-1-0.447-1-1c0-0.552,0.447-1,1-1h22c0.553,0,1,0.448,1,1C35,23.553,34.553,24,34,24z"/>
	</g>
</g>
<g>
</g>
<g>
</g>
<g>
</g>
<g>
</g>
<g>
</g>
<g>
</g>
<g>
</g>
<g>
</g>
<g>
</g>
<g>
</g>
<g>
</g>
<g>
</g>
<g>
</g>
<g>
</g>
<g>
</g>
</svg>
