<?xml version="1.0" encoding="iso-8859-1"?>
<!-- Generator: Adobe Illustrator 16.0.4, SVG Export Plug-In . SVG Version: 6.00 Build 0)  -->
<!DOCTYPE svg PUBLIC "-//W3C//DTD SVG 1.1//EN" "http://www.w3.org/Graphics/SVG/1.1/DTD/svg11.dtd">
<svg version="1.1" id="Layer_1" xmlns="http://www.w3.org/2000/svg" xmlns:xlink="http://www.w3.org/1999/xlink" x="0px" y="0px"
	 width="56px" height="56px" viewBox="0 0 56 56" style="enable-background:new 0 0 56 56;" xml:space="preserve">
<g id="_x37_39-question-selected_x40_2x.png">
	<g>
		<path d="M28,0C12.536,0,0,12.536,0,28s12.536,28,28,28s28-12.536,28-28S43.464,0,28,0z M29.522,40.309
			c-0.434,0.462-0.95,0.693-1.55,0.693s-1.116-0.231-1.549-0.693c-0.434-0.462-0.65-1.012-0.65-1.651s0.217-1.19,0.65-1.652
			c0.433-0.462,0.949-0.692,1.549-0.692s1.116,0.23,1.55,0.692c0.433,0.462,0.649,1.013,0.649,1.652S29.955,39.847,29.522,40.309z
			 M34.638,23.933c-0.245,0.675-0.589,1.309-1.033,1.9l-1.999,2.202l-0.334,0.319c-0.355,0.355-0.639,0.657-0.85,0.906
			s-0.378,0.51-0.5,0.781c-0.122,0.273-0.205,0.575-0.249,0.906c-0.045,0.332-0.067,0.746-0.067,1.243v1.563h-3.198v-2.167
			c0-0.64,0.044-1.173,0.133-1.599c0.089-0.427,0.222-0.812,0.399-1.154c0.178-0.344,0.417-0.676,0.717-0.995
			s0.672-0.704,1.116-1.154c0.355-0.355,0.711-0.717,1.066-1.084c0.355-0.366,0.678-0.746,0.967-1.137
			c0.288-0.391,0.527-0.805,0.716-1.243c0.188-0.438,0.283-0.929,0.283-1.474s-0.095-1.049-0.283-1.511s-0.438-0.858-0.749-1.189
			c-0.312-0.332-0.684-0.592-1.117-0.782c-0.433-0.188-0.894-0.283-1.383-0.283c-1.088,0-1.972,0.367-2.648,1.101
			c-0.679,0.734-1.083,1.693-1.217,2.878l-3.398-0.355c0.288-2.061,1.094-3.677,2.416-4.849c1.321-1.173,2.96-1.759,4.915-1.759
			c0.933,0,1.805,0.147,2.615,0.444c0.811,0.296,1.517,0.723,2.116,1.278c0.6,0.557,1.071,1.243,1.416,2.061
			c0.345,0.816,0.517,1.746,0.517,2.789C35.004,22.47,34.882,23.258,34.638,23.933z"/>
	</g>
</g>
<g>
</g>
<g>
</g>
<g>
</g>
<g>
</g>
<g>
</g>
<g>
</g>
<g>
</g>
<g>
</g>
<g>
</g>
<g>
</g>
<g>
</g>
<g>
</g>
<g>
</g>
<g>
</g>
<g>
</g>
</svg>
