<?xml version="1.0" encoding="iso-8859-1"?>
<!-- Generator: Adobe Illustrator 16.0.4, SVG Export Plug-In . SVG Version: 6.00 Build 0)  -->
<!DOCTYPE svg PUBLIC "-//W3C//DTD SVG 1.1//EN" "http://www.w3.org/Graphics/SVG/1.1/DTD/svg11.dtd">
<svg version="1.1" id="Layer_1" xmlns="http://www.w3.org/2000/svg" xmlns:xlink="http://www.w3.org/1999/xlink" x="0px" y="0px"
	 width="56px" height="56px" viewBox="0 0 56 56" style="enable-background:new 0 0 56 56;" xml:space="preserve">
<g id="_x37_40-gear-selected_x40_2x.png">
	<g>
		<path d="M55.271,24.055l0.004-0.016l-7.168-2.049c-0.415-1.38-0.976-2.695-1.649-3.941l3.631-6.533l-0.016-0.009
			c0.211-0.38,0.171-0.861-0.152-1.185L45.678,6.08c-0.323-0.323-0.805-0.363-1.185-0.152l-0.008-0.015L37.957,9.54
			c-1.248-0.676-2.565-1.238-3.949-1.653l-2.046-7.161L31.945,0.73C31.825,0.312,31.456,0,31,0h-6c-0.456,0-0.825,0.312-0.945,0.73
			l-0.017-0.005l-2.045,7.159c-1.312,0.393-2.563,0.921-3.753,1.55l-6.635-3.612l-0.009,0.015c-0.383-0.207-0.873-0.159-1.206,0.175
			l-4.379,4.379c-0.334,0.334-0.383,0.823-0.175,1.206l-0.015,0.009l3.614,6.639c-0.592,1.124-1.096,2.302-1.479,3.534l-7.231,2.133
			l0.004,0.017C0.312,24.051,0,24.433,0,24.903v6.193c0,0.472,0.312,0.853,0.729,0.977L0.726,32.09l7.231,2.133
			c0.384,1.232,0.888,2.41,1.479,3.534l-3.614,6.638l0.015,0.009c-0.208,0.383-0.159,0.873,0.175,1.206l4.379,4.38
			c0.333,0.333,0.823,0.382,1.206,0.174l0.009,0.015l6.626-3.607c1.129,0.598,2.312,1.105,3.552,1.491l2.127,7.213l0.018-0.004
			C24.051,55.688,24.432,56,24.903,56h6.193c0.472,0,0.853-0.312,0.976-0.729l0.017,0.004l2.128-7.212
			c1.312-0.408,2.561-0.952,3.748-1.598l6.521,3.623l0.008-0.015c0.38,0.211,0.861,0.17,1.185-0.152l4.242-4.243
			c0.323-0.322,0.363-0.805,0.152-1.185l0.016-0.008l-3.63-6.533c0.673-1.246,1.233-2.562,1.648-3.942l7.168-2.048l-0.004-0.017
			C55.688,31.826,56,31.457,56,31v-6C56,24.544,55.688,24.175,55.271,24.055z M28,36c-4.418,0-8-3.582-8-8s3.582-8,8-8s8,3.582,8,8
			S32.418,36,28,36z"/>
	</g>
</g>
<g>
</g>
<g>
</g>
<g>
</g>
<g>
</g>
<g>
</g>
<g>
</g>
<g>
</g>
<g>
</g>
<g>
</g>
<g>
</g>
<g>
</g>
<g>
</g>
<g>
</g>
<g>
</g>
<g>
</g>
</svg>
