<?xml version="1.0" encoding="iso-8859-1"?>
<!-- Generator: Adobe Illustrator 16.0.4, SVG Export Plug-In . SVG Version: 6.00 Build 0)  -->
<!DOCTYPE svg PUBLIC "-//W3C//DTD SVG 1.1//EN" "http://www.w3.org/Graphics/SVG/1.1/DTD/svg11.dtd">
<svg version="1.1" id="Layer_1" xmlns="http://www.w3.org/2000/svg" xmlns:xlink="http://www.w3.org/1999/xlink" x="0px" y="0px"
	 width="56px" height="52px" viewBox="0 0 56 52" style="enable-background:new 0 0 56 52;" xml:space="preserve">
<g id="_x37_41-box-selected_x40_2x.png">
	<g>
		<path d="M2,50v2h2h48h2v-2V16H2V50z M21,20h14c1.657,0,3,1.344,3,3c0,1.657-1.343,3-3,3H21c-1.657,0-3-1.343-3-3
			C18,21.344,19.343,20,21,20z M54,0H2C0.896,0,0,0.896,0,2v10c0,1.104,0.894,1.999,1.998,2h52.004C55.105,13.999,56,13.104,56,12V2
			C56,0.896,55.104,0,54,0z"/>
	</g>
</g>
<g>
</g>
<g>
</g>
<g>
</g>
<g>
</g>
<g>
</g>
<g>
</g>
<g>
</g>
<g>
</g>
<g>
</g>
<g>
</g>
<g>
</g>
<g>
</g>
<g>
</g>
<g>
</g>
<g>
</g>
</svg>
