<?xml version="1.0" encoding="iso-8859-1"?>
<!-- Generator: Adobe Illustrator 16.0.4, SVG Export Plug-In . SVG Version: 6.00 Build 0)  -->
<!DOCTYPE svg PUBLIC "-//W3C//DTD SVG 1.1//EN" "http://www.w3.org/Graphics/SVG/1.1/DTD/svg11.dtd">
<svg version="1.1" id="Layer_1" xmlns="http://www.w3.org/2000/svg" xmlns:xlink="http://www.w3.org/1999/xlink" x="0px" y="0px"
	 width="56.001px" height="56.002px" viewBox="0 0 56.001 56.002" style="enable-background:new 0 0 56.001 56.002;"
	 xml:space="preserve">
<g id="_x37_42-wrench-selected_x40_2x.png">
	<g>
		<path d="M22.587,24.077L2.935,41.812c-0.201,0.165-0.394,0.338-0.578,0.521l-0.014,0.012v0.001C0.896,43.793,0,45.793,0,48.002
			c0,4.419,3.582,8,8,8c2.496,0,4.724-1.144,6.191-2.935l17.734-19.652c-1.803-1.132-3.548-2.521-5.183-4.156
			C25.107,27.625,23.719,25.88,22.587,24.077z M8,50.002c-1.104,0-2-0.896-2-2s0.896-2,2-2s2,0.896,2,2S9.104,50.002,8,50.002z
			 M55.239,12.431l0.012-0.012c-0.034-0.113-0.091-0.221-0.128-0.333c-0.081-0.248-0.158-0.498-0.251-0.743l-0.025,0.025
			c-0.136-0.351-0.248-0.708-0.403-1.052l-7.927,7.926c-2.411,2.412-6.322,2.412-8.733,0c-2.412-2.412-2.412-6.322,0-8.734
			l7.934-7.935c-0.344-0.156-0.7-0.269-1.05-0.405l0.026-0.026c-0.261-0.1-0.526-0.183-0.791-0.269
			c-0.097-0.032-0.188-0.081-0.285-0.11l-0.011,0.01c-5.972-1.831-12.712-0.412-17.419,4.295c-6.799,6.8-4.723,15.803,2.11,22.637
			c6.834,6.833,15.837,8.909,22.637,2.11C55.632,25.118,57.054,18.394,55.239,12.431z"/>
	</g>
</g>
<g>
</g>
<g>
</g>
<g>
</g>
<g>
</g>
<g>
</g>
<g>
</g>
<g>
</g>
<g>
</g>
<g>
</g>
<g>
</g>
<g>
</g>
<g>
</g>
<g>
</g>
<g>
</g>
<g>
</g>
</svg>
