<?xml version="1.0" encoding="iso-8859-1"?>
<!-- Generator: Adobe Illustrator 16.0.4, SVG Export Plug-In . SVG Version: 6.00 Build 0)  -->
<!DOCTYPE svg PUBLIC "-//W3C//DTD SVG 1.1//EN" "http://www.w3.org/Graphics/SVG/1.1/DTD/svg11.dtd">
<svg version="1.1" id="Layer_1" xmlns="http://www.w3.org/2000/svg" xmlns:xlink="http://www.w3.org/1999/xlink" x="0px" y="0px"
	 width="56px" height="56px" viewBox="0 0 56 56" style="enable-background:new 0 0 56 56;" xml:space="preserve">
<g id="_x37_43-printer-selected_x40_2x.png">
	<g>
		<path d="M46,2c0-1.104-0.896-2-2-2H12c-1.104,0-2,0.896-2,2v12h36V2z M52,16h-6H10H4c-2.209,0-4,1.791-4,4v22c0,2.209,1.791,4,4,4
			h4V34c0-2.209,1.791-4,4-4h32c2.209,0,4,1.791,4,4v12h4c2.209,0,4-1.791,4-4V20C56,17.791,54.209,16,52,16z M48,26
			c-1.104,0-2-0.896-2-2s0.896-2,2-2s2,0.896,2,2S49.104,26,48,26z M44,32H12c-1.104,0-2,0.896-2,2v20c0,1.104,0.896,2,2,2h32
			c1.104,0,2-0.896,2-2V34C46,32.896,45.104,32,44,32z M39,50H17c-0.553,0-1-0.447-1-1c0-0.552,0.447-1,1-1h22c0.553,0,1,0.448,1,1
			C40,49.553,39.553,50,39,50z M16,44c0-0.552,0.447-1,1-1h18c0.553,0,1,0.448,1,1c0,0.553-0.447,1-1,1H17
			C16.447,45,16,44.553,16,44z M39,40H17c-0.553,0-1-0.447-1-1c0-0.552,0.447-1,1-1h22c0.553,0,1,0.448,1,1
			C40,39.553,39.553,40,39,40z"/>
	</g>
</g>
<g>
</g>
<g>
</g>
<g>
</g>
<g>
</g>
<g>
</g>
<g>
</g>
<g>
</g>
<g>
</g>
<g>
</g>
<g>
</g>
<g>
</g>
<g>
</g>
<g>
</g>
<g>
</g>
<g>
</g>
</svg>
