<?xml version="1.0" encoding="iso-8859-1"?>
<!-- Generator: Adobe Illustrator 16.0.4, SVG Export Plug-In . SVG Version: 6.00 Build 0)  -->
<!DOCTYPE svg PUBLIC "-//W3C//DTD SVG 1.1//EN" "http://www.w3.org/Graphics/SVG/1.1/DTD/svg11.dtd">
<svg version="1.1" id="Layer_1" xmlns="http://www.w3.org/2000/svg" xmlns:xlink="http://www.w3.org/1999/xlink" x="0px" y="0px"
	 width="42px" height="55px" viewBox="0 0 42 55" style="enable-background:new 0 0 42 55;" xml:space="preserve">
<g id="_x37_45-unlocked-selected_x40_2x.png">
	<g>
		<path d="M38,21h-4v-8c0-7.18-5.82-13-13-13S8,5.82,8,13c0,0.553,0.447,1,1,1s1-0.447,1-1c0-6.075,4.925-11,11-11s11,4.925,11,11v8
			H12h-2H8H4c-2.209,0-4,1.791-4,4v26c0,2.209,1.791,4,4,4h34c2.209,0,4-1.791,4-4V25C42,22.791,40.209,21,38,21z M22,38.816V42
			c0,0.553-0.447,1-1,1s-1-0.447-1-1v-3.184c-1.162-0.413-2-1.512-2-2.816c0-1.656,1.343-3,3-3s3,1.344,3,3
			C24,37.305,23.162,38.403,22,38.816z"/>
	</g>
</g>
<g>
</g>
<g>
</g>
<g>
</g>
<g>
</g>
<g>
</g>
<g>
</g>
<g>
</g>
<g>
</g>
<g>
</g>
<g>
</g>
<g>
</g>
<g>
</g>
<g>
</g>
<g>
</g>
<g>
</g>
</svg>
