<?xml version="1.0" encoding="iso-8859-1"?>
<!-- Generator: Adobe Illustrator 16.0.4, SVG Export Plug-In . SVG Version: 6.00 Build 0)  -->
<!DOCTYPE svg PUBLIC "-//W3C//DTD SVG 1.1//EN" "http://www.w3.org/Graphics/SVG/1.1/DTD/svg11.dtd">
<svg version="1.1" id="Layer_1" xmlns="http://www.w3.org/2000/svg" xmlns:xlink="http://www.w3.org/1999/xlink" x="0px" y="0px"
	 width="56.013px" height="56.013px" viewBox="0 0 56.013 56.013" style="enable-background:new 0 0 56.013 56.013;"
	 xml:space="preserve">
<g id="_x37_47-tag-selected_x40_2x.png">
	<g>
		<path d="M56.007,4.005c0-2.228-1.771-4-4-4L32.33,0.001c-1.06-0.028-2.128,0.353-2.937,1.162L1.171,29.385
			c-1.562,1.562-1.562,4.095,0,5.657L20.97,54.841c1.562,1.562,4.095,1.562,5.657,0L54.85,26.619c0.809-0.81,1.19-1.879,1.161-2.938
			L56.007,4.005z M45.007,14.005c-1.657,0-3-1.343-3-3c0-1.656,1.343-3,3-3s3,1.344,3,3C48.007,12.663,46.664,14.005,45.007,14.005z
			"/>
	</g>
</g>
<g>
</g>
<g>
</g>
<g>
</g>
<g>
</g>
<g>
</g>
<g>
</g>
<g>
</g>
<g>
</g>
<g>
</g>
<g>
</g>
<g>
</g>
<g>
</g>
<g>
</g>
<g>
</g>
<g>
</g>
</svg>
