<?xml version="1.0" encoding="iso-8859-1"?>
<!-- Generator: Adobe Illustrator 16.0.4, SVG Export Plug-In . SVG Version: 6.00 Build 0)  -->
<!DOCTYPE svg PUBLIC "-//W3C//DTD SVG 1.1//EN" "http://www.w3.org/Graphics/SVG/1.1/DTD/svg11.dtd">
<svg version="1.1" id="Layer_1" xmlns="http://www.w3.org/2000/svg" xmlns:xlink="http://www.w3.org/1999/xlink" x="0px" y="0px"
	 width="56px" height="30px" viewBox="0 0 56 30" style="enable-background:new 0 0 56 30;" xml:space="preserve">
<g id="_x37_51-eye-selected_x40_2x.png">
	<g>
		<path d="M43,3.914V3.9c-0.24-0.116-0.489-0.224-0.733-0.337c-0.231-0.107-0.461-0.216-0.695-0.319
			c-0.445-0.198-0.897-0.385-1.352-0.569c-0.188-0.076-0.373-0.156-0.562-0.23c-0.598-0.232-1.201-0.451-1.811-0.657
			c-0.052-0.018-0.103-0.038-0.154-0.056c-1.377-0.459-2.778-0.842-4.185-1.131c-0.013-0.003-0.024-0.007-0.037-0.009
			c0.002,0.001,0.004,0.002,0.005,0.003C31.643,0.219,29.802,0,28,0c-1.802,0-3.642,0.219-5.476,0.595
			c0.001-0.001,0.003-0.002,0.004-0.003c-0.012,0.002-0.024,0.006-0.037,0.009c-1.406,0.289-2.807,0.672-4.185,1.131
			c-0.052,0.018-0.102,0.038-0.154,0.055c-0.609,0.206-1.213,0.426-1.811,0.658c-0.189,0.074-0.374,0.153-0.561,0.229
			c-0.455,0.185-0.908,0.372-1.354,0.57c-0.234,0.104-0.462,0.212-0.694,0.319C13.49,3.677,13.241,3.784,13,3.9v0.014
			C5.645,7.479,0,12.549,0,15c0,4,15,15,28,15s28-11,28-15C56,12.549,50.355,7.479,43,3.914z M28,22c-6.627,0-12-5.403-12-12.068
			c0-2.125,0.577-4.101,1.536-5.833C20.919,2.844,24.523,2,28,2s7.081,0.844,10.464,2.098C39.423,5.831,40,7.807,40,9.932
			C40,16.597,34.628,22,28,22z M28,5c-2.761,0-5,2.238-5,5s2.239,5,5,5c2.762,0,5-2.238,5-5S30.762,5,28,5z"/>
	</g>
</g>
<g>
</g>
<g>
</g>
<g>
</g>
<g>
</g>
<g>
</g>
<g>
</g>
<g>
</g>
<g>
</g>
<g>
</g>
<g>
</g>
<g>
</g>
<g>
</g>
<g>
</g>
<g>
</g>
<g>
</g>
</svg>
