<?xml version="1.0" encoding="iso-8859-1"?>
<!-- Generator: Adobe Illustrator 16.0.4, SVG Export Plug-In . SVG Version: 6.00 Build 0)  -->
<!DOCTYPE svg PUBLIC "-//W3C//DTD SVG 1.1//EN" "http://www.w3.org/Graphics/SVG/1.1/DTD/svg11.dtd">
<svg version="1.1" id="Layer_1" xmlns="http://www.w3.org/2000/svg" xmlns:xlink="http://www.w3.org/1999/xlink" x="0px" y="0px"
	 width="56px" height="38px" viewBox="0 0 56 38" style="enable-background:new 0 0 56 38;" xml:space="preserve">
<g id="_x37_52-credit-card-selected_x40_2x.png">
	<g>
		<path d="M52,0H4C1.791,0,0,1.791,0,4v2h56V4C56,1.791,54.209,0,52,0z M0,34c0,2.209,1.791,4,4,4h48c2.209,0,4-1.791,4-4V14H0V34z
			 M44,26h6v6h-6V26z M7,26h18c0.553,0,1,0.448,1,1c0,0.553-0.447,1-1,1H7c-0.553,0-1-0.447-1-1C6,26.448,6.447,26,7,26z M7,30h10
			c0.553,0,1,0.447,1,1s-0.447,1-1,1H7c-0.553,0-1-0.447-1-1S6.447,30,7,30z"/>
	</g>
</g>
<g>
</g>
<g>
</g>
<g>
</g>
<g>
</g>
<g>
</g>
<g>
</g>
<g>
</g>
<g>
</g>
<g>
</g>
<g>
</g>
<g>
</g>
<g>
</g>
<g>
</g>
<g>
</g>
<g>
</g>
</svg>
