<?xml version="1.0" encoding="iso-8859-1"?>
<!-- Generator: Adobe Illustrator 16.0.4, SVG Export Plug-In . SVG Version: 6.00 Build 0)  -->
<!DOCTYPE svg PUBLIC "-//W3C//DTD SVG 1.1//EN" "http://www.w3.org/Graphics/SVG/1.1/DTD/svg11.dtd">
<svg version="1.1" id="Layer_1" xmlns="http://www.w3.org/2000/svg" xmlns:xlink="http://www.w3.org/1999/xlink" x="0px" y="0px"
	 width="48px" height="56px" viewBox="0 0 48 56" style="enable-background:new 0 0 48 56;" xml:space="preserve">
<g id="_x37_55-filing-cabinet-selected_x40_2x.png">
	<g>
		<path d="M0,54c0,1.104,0.896,2,2,2h44c1.104,0,2-0.896,2-2V38H0V54z M16,45c0-0.552,0.447-1,1-1s1,0.448,1,1v3h12v-3
			c0-0.552,0.447-1,1-1s1,0.448,1,1v3c0,1.104-0.896,2-2,2H18c-1.104,0-2-0.896-2-2V45z M46,0H2C0.896,0,0,0.896,0,2v16h48V2
			C48,0.896,47.104,0,46,0z M32,12c0,1.104-0.896,2-2,2H18c-1.104,0-2-0.896-2-2V9c0-0.552,0.447-1,1-1s1,0.448,1,1v3h12V9
			c0-0.552,0.447-1,1-1s1,0.448,1,1V12z M0,36h48V20H0V36z M16,27c0-0.552,0.447-1,1-1s1,0.448,1,1v3h12v-3c0-0.552,0.447-1,1-1
			s1,0.448,1,1v3c0,1.104-0.896,2-2,2H18c-1.104,0-2-0.896-2-2V27z"/>
	</g>
</g>
<g>
</g>
<g>
</g>
<g>
</g>
<g>
</g>
<g>
</g>
<g>
</g>
<g>
</g>
<g>
</g>
<g>
</g>
<g>
</g>
<g>
</g>
<g>
</g>
<g>
</g>
<g>
</g>
<g>
</g>
</svg>
