<?xml version="1.0" encoding="iso-8859-1"?>
<!-- Generator: Adobe Illustrator 16.0.4, SVG Export Plug-In . SVG Version: 6.00 Build 0)  -->
<!DOCTYPE svg PUBLIC "-//W3C//DTD SVG 1.1//EN" "http://www.w3.org/Graphics/SVG/1.1/DTD/svg11.dtd">
<svg version="1.1" id="Layer_1" xmlns="http://www.w3.org/2000/svg" xmlns:xlink="http://www.w3.org/1999/xlink" x="0px" y="0px"
	 width="48px" height="56px" viewBox="0 0 48 56" style="enable-background:new 0 0 48 56;" xml:space="preserve">
<g id="_x37_56-bell-selected_x40_2x.png">
	<g>
		<path d="M17.033,49.664C17.368,53.219,20.358,56,24,56s6.632-2.781,6.967-6.336C28.746,49.877,26.417,50,24,50
			S19.254,49.877,17.033,49.664z M39,20c0-6.56-4.218-12.122-10.085-14.159C28.962,5.566,29,5.288,29,5c0-2.762-2.238-5-5-5
			s-5,2.238-5,5c0,0.288,0.038,0.566,0.085,0.841C13.218,7.878,9,13.44,9,20c0,21-9,14-9,21c0,3.866,10.745,7,24,7s24-3.134,24-7
			C48,34,39,41,39,20z"/>
	</g>
</g>
<g>
</g>
<g>
</g>
<g>
</g>
<g>
</g>
<g>
</g>
<g>
</g>
<g>
</g>
<g>
</g>
<g>
</g>
<g>
</g>
<g>
</g>
<g>
</g>
<g>
</g>
<g>
</g>
<g>
</g>
</svg>
