<?xml version="1.0" encoding="iso-8859-1"?>
<!-- Generator: Adobe Illustrator 16.0.4, SVG Export Plug-In . SVG Version: 6.00 Build 0)  -->
<!DOCTYPE svg PUBLIC "-//W3C//DTD SVG 1.1//EN" "http://www.w3.org/Graphics/SVG/1.1/DTD/svg11.dtd">
<svg version="1.1" id="Layer_1" xmlns="http://www.w3.org/2000/svg" xmlns:xlink="http://www.w3.org/1999/xlink" x="0px" y="0px"
	 width="55.844px" height="55.844px" viewBox="0 0 55.844 55.844" style="enable-background:new 0 0 55.844 55.844;"
	 xml:space="preserve">
<g id="_x37_57-paper-airplane-selected_x40_2x.png">
	<g>
		<path d="M0.612,22.922c-0.001,0.001-0.002,0.001-0.003,0.002H0.608C0.251,23.076,0,23.431,0,23.844
			c0,0.418,0.258,0.774,0.622,0.924L0.621,24.77L21.229,33.2L54.431,0L0.612,22.922z M22.644,34.614l8.431,20.608l0.002-0.001
			c0.149,0.364,0.506,0.622,0.924,0.622c0.413,0,0.768-0.251,0.92-0.608v0.001l0.001-0.002c0-0.001,0-0.002,0.001-0.002
			L55.844,1.414L22.644,34.614z"/>
	</g>
</g>
<g>
</g>
<g>
</g>
<g>
</g>
<g>
</g>
<g>
</g>
<g>
</g>
<g>
</g>
<g>
</g>
<g>
</g>
<g>
</g>
<g>
</g>
<g>
</g>
<g>
</g>
<g>
</g>
<g>
</g>
</svg>
