<?xml version="1.0" encoding="iso-8859-1"?>
<!-- Generator: Adobe Illustrator 16.0.4, SVG Export Plug-In . SVG Version: 6.00 Build 0)  -->
<!DOCTYPE svg PUBLIC "-//W3C//DTD SVG 1.1//EN" "http://www.w3.org/Graphics/SVG/1.1/DTD/svg11.dtd">
<svg version="1.1" id="Layer_1" xmlns="http://www.w3.org/2000/svg" xmlns:xlink="http://www.w3.org/1999/xlink" x="0px" y="0px"
	 width="56px" height="44px" viewBox="0 0 56 44" style="enable-background:new 0 0 56 44;" xml:space="preserve">
<g id="_x37_58-megaphone-selected_x40_2x.png">
	<g>
		<path d="M4,14c-2.209,0-4,1.791-4,4v6c0,2.209,1.791,4,4,4c1.307,0,2.456-0.636,3.186-1.604L8,26.667V15.429L7.224,15.65
			C6.496,14.654,5.328,14,4,14z M52,0c-2.209,0-4,1.791-4,4v36c0,2.209,1.791,4,4,4s4-1.791,4-4V4C56,1.791,54.209,0,52,0z
			 M10,27.333l5.227,1.743l-1.031,3.091c-0.699,2.096,0.432,4.361,2.527,5.061l7.589,2.533c2.096,0.699,4.361-0.433,5.061-2.528
			l1.034-3.097L46,39.334V4.571L10,14.857V27.333z M16.092,32.801l1.032-3.093l11.385,3.795L27.475,36.6
			c-0.35,1.048-1.482,1.613-2.53,1.264l-7.588-2.532C16.309,34.98,15.742,33.849,16.092,32.801z"/>
	</g>
</g>
<g>
</g>
<g>
</g>
<g>
</g>
<g>
</g>
<g>
</g>
<g>
</g>
<g>
</g>
<g>
</g>
<g>
</g>
<g>
</g>
<g>
</g>
<g>
</g>
<g>
</g>
<g>
</g>
<g>
</g>
</svg>
