<?xml version="1.0" encoding="iso-8859-1"?>
<!-- Generator: Adobe Illustrator 16.0.4, SVG Export Plug-In . SVG Version: 6.00 Build 0)  -->
<!DOCTYPE svg PUBLIC "-//W3C//DTD SVG 1.1//EN" "http://www.w3.org/Graphics/SVG/1.1/DTD/svg11.dtd">
<svg version="1.1" id="Layer_1" xmlns="http://www.w3.org/2000/svg" xmlns:xlink="http://www.w3.org/1999/xlink" x="0px" y="0px"
	 width="52px" height="56px" viewBox="0 0 52 56" style="enable-background:new 0 0 52 56;" xml:space="preserve">
<g id="_x37_62-shopping-bag-selected_x40_2x.png">
	<g>
		<path d="M46,16c0-1.104-0.896-2-2-2h-6v5.184c1.162,0.413,2,1.512,2,2.816c0,1.657-1.343,3-3,3s-3-1.343-3-3
			c0-1.305,0.838-2.403,2-2.816V14H16v5.184c1.162,0.413,2,1.512,2,2.816c0,1.657-1.343,3-3,3s-3-1.343-3-3
			c0-1.305,0.838-2.403,2-2.816V14H8c-1.104,0-2,0.896-2,2L0,54c0,1.104,0.896,2,2,2h48c1.104,0,2-0.896,2-2L46,16z M16,12
			c0-5.522,4.478-10,10-10s10,4.478,10,10v2h2v-2c0-6.627-5.373-12-12-12S14,5.373,14,12v2h2V12z"/>
	</g>
</g>
<g>
</g>
<g>
</g>
<g>
</g>
<g>
</g>
<g>
</g>
<g>
</g>
<g>
</g>
<g>
</g>
<g>
</g>
<g>
</g>
<g>
</g>
<g>
</g>
<g>
</g>
<g>
</g>
<g>
</g>
</svg>
