<?xml version="1.0" encoding="iso-8859-1"?>
<!-- Generator: Adobe Illustrator 16.0.4, SVG Export Plug-In . SVG Version: 6.00 Build 0)  -->
<!DOCTYPE svg PUBLIC "-//W3C//DTD SVG 1.1//EN" "http://www.w3.org/Graphics/SVG/1.1/DTD/svg11.dtd">
<svg version="1.1" id="Layer_1" xmlns="http://www.w3.org/2000/svg" xmlns:xlink="http://www.w3.org/1999/xlink" x="0px" y="0px"
	 width="56px" height="46px" viewBox="0 0 56 46" style="enable-background:new 0 0 56 46;" xml:space="preserve">
<g id="_x37_67-photo-1-selected_x40_2x.png">
	<g>
		<path d="M16.742,29.5c1.104,1.913,3.551,2.568,5.464,1.464c0.554-0.319,1.368-0.968,2.216-1.766C24.154,30.331,24,31.36,24,32
			c0,2.209,1.791,4,4,4s4-1.791,4-4c0-0.641-0.154-1.67-0.423-2.803c0.848,0.799,1.662,1.447,2.217,1.767
			c1.913,1.104,4.359,0.449,5.464-1.464c1.105-1.913,0.449-4.359-1.464-5.464c-0.555-0.32-1.523-0.701-2.639-1.036
			c1.115-0.335,2.084-0.715,2.639-1.035c1.913-1.105,2.569-3.552,1.464-5.465c-1.104-1.913-3.551-2.568-5.464-1.464
			c-0.554,0.32-1.368,0.968-2.216,1.767C31.846,15.669,32,14.641,32,14c0-2.209-1.791-4-4-4s-4,1.791-4,4
			c0,0.641,0.155,1.671,0.423,2.804c-0.848-0.799-1.662-1.447-2.217-1.768c-1.913-1.104-4.359-0.449-5.464,1.464
			c-1.105,1.913-0.449,4.359,1.464,5.465c0.555,0.319,1.523,0.701,2.639,1.036c-1.115,0.334-2.084,0.715-2.639,1.035
			C16.293,25.141,15.637,27.587,16.742,29.5z M28,21c1.104,0,2,0.896,2,2s-0.896,2-2,2s-2-0.896-2-2S26.896,21,28,21z M54,0H2
			C0.896,0,0,0.896,0,2v42c0,1.104,0.896,2,2,2h52c1.104,0,2-0.896,2-2V2C56,0.896,55.104,0,54,0z M50,40H6V6h44V40z"/>
	</g>
</g>
<g>
</g>
<g>
</g>
<g>
</g>
<g>
</g>
<g>
</g>
<g>
</g>
<g>
</g>
<g>
</g>
<g>
</g>
<g>
</g>
<g>
</g>
<g>
</g>
<g>
</g>
<g>
</g>
<g>
</g>
</svg>
