<?xml version="1.0" encoding="iso-8859-1"?>
<!-- Generator: Adobe Illustrator 16.0.4, SVG Export Plug-In . SVG Version: 6.00 Build 0)  -->
<!DOCTYPE svg PUBLIC "-//W3C//DTD SVG 1.1//EN" "http://www.w3.org/Graphics/SVG/1.1/DTD/svg11.dtd">
<svg version="1.1" id="Layer_1" xmlns="http://www.w3.org/2000/svg" xmlns:xlink="http://www.w3.org/1999/xlink" x="0px" y="0px"
	 width="56px" height="56px" viewBox="0 0 56 56" style="enable-background:new 0 0 56 56;" xml:space="preserve">
<g id="_x37_68-female-selected_x40_2x.png">
	<g>
		<path d="M28,0C12.536,0,0,12.536,0,28s12.536,28,28,28s28-12.536,28-28S43.464,0,28,0z M28,54c-7.044,0-13.423-2.812-18.105-7.361
			c3.104-3.133,3.902-3.51,10.062-6.246l0.642-0.285c0.263-0.141,0.665-0.447,0.681-0.967c-1.548,0.142-4.71,0.055-7.874-2.319
			l-0.923-0.691l0.815-0.815c1.707-1.707,1.707-8.003,1.707-15.293c0-8.019,4.981-13,12.999-13c3.91,0,13.001,1.267,13.001,13
			c0,8.35,0,14.382,1.447,15.105l1.629,0.814l-1.562,0.938c-0.191,0.115-4.151,2.473-8.103,2.34
			c0.428,0.587,1.032,0.906,1.041,0.911c0.312,0.142,6.272,2.896,10.27,6.854C41.08,51.323,34.859,54,28,54z"/>
	</g>
</g>
<g>
</g>
<g>
</g>
<g>
</g>
<g>
</g>
<g>
</g>
<g>
</g>
<g>
</g>
<g>
</g>
<g>
</g>
<g>
</g>
<g>
</g>
<g>
</g>
<g>
</g>
<g>
</g>
<g>
</g>
</svg>
