<?xml version="1.0" encoding="iso-8859-1"?>
<!-- Generator: Adobe Illustrator 16.0.4, SVG Export Plug-In . SVG Version: 6.00 Build 0)  -->
<!DOCTYPE svg PUBLIC "-//W3C//DTD SVG 1.1//EN" "http://www.w3.org/Graphics/SVG/1.1/DTD/svg11.dtd">
<svg version="1.1" id="Layer_1" xmlns="http://www.w3.org/2000/svg" xmlns:xlink="http://www.w3.org/1999/xlink" x="0px" y="0px"
	 width="56px" height="56px" viewBox="0 0 56 56" style="enable-background:new 0 0 56 56;" xml:space="preserve">
<g id="_x37_69-male-selected_x40_2x.png">
	<g>
		<path d="M28,0C12.536,0,0,12.536,0,28s12.536,28,28,28s28-12.536,28-28S43.464,0,28,0z M28,54c-7.339,0-13.955-3.053-18.683-7.942
			c2.331-1.771,5.151-3.03,9.229-4.834l1.349-0.597c3.946-4.181-0.768-10.941-1.188-11.525c-0.373-0.406-2.145-2.546-1.275-5.637
			c-0.445-1.508-2.072-7.927,1.02-12.216c1.793-2.487,4.787-3.761,8.903-3.786c3.904-0.944,6.921-0.301,8.979,1.922
			c3.456,3.732,2.864,10.582,2.196,13.049c0.258,0.874,0.559,3.045-1.158,6.477c-0.299,0.597-0.641,1.216-0.99,1.85
			c-2.314,4.185-3.598,7.144-0.43,9.799c1.116,0.332,6.138,1.995,10.438,5.822C41.684,51.088,35.182,54,28,54z"/>
	</g>
</g>
<g>
</g>
<g>
</g>
<g>
</g>
<g>
</g>
<g>
</g>
<g>
</g>
<g>
</g>
<g>
</g>
<g>
</g>
<g>
</g>
<g>
</g>
<g>
</g>
<g>
</g>
<g>
</g>
<g>
</g>
</svg>
