<?xml version="1.0" encoding="iso-8859-1"?>
<!-- Generator: Adobe Illustrator 16.0.4, SVG Export Plug-In . SVG Version: 6.00 Build 0)  -->
<!DOCTYPE svg PUBLIC "-//W3C//DTD SVG 1.1//EN" "http://www.w3.org/Graphics/SVG/1.1/DTD/svg11.dtd">
<svg version="1.1" id="Layer_1" xmlns="http://www.w3.org/2000/svg" xmlns:xlink="http://www.w3.org/1999/xlink" x="0px" y="0px"
	 width="46px" height="56px" viewBox="0 0 46 56" style="enable-background:new 0 0 46 56;" xml:space="preserve">
<g id="_x37_71-sound-muted-selected_x40_2x.png">
	<g>
		<path d="M27,0c-0.73,0-1.39,0.271-1.911,0.705l-0.006-0.008L10,13.118V14v1.709v24.582V42v0.882l15.083,12.422l0.007-0.009
			C25.61,55.729,26.27,56,27,56c1.657,0,3-1.343,3-3V3C30,1.343,28.657,0,27,0z M0,18v20c0,2.209,1.791,4,4,4h4V14H4
			C1.791,14,0,15.791,0,18z M41.414,29l4.293-4.293C45.888,24.526,46,24.276,46,24c0-0.552-0.447-1-1-1
			c-0.276,0-0.526,0.112-0.707,0.293L40,27.586l-4.293-4.293C35.526,23.112,35.276,23,35,23c-0.553,0-1,0.448-1,1
			c0,0.276,0.112,0.526,0.293,0.707L38.586,29l-4.293,4.293C34.112,33.474,34,33.724,34,34c0,0.553,0.447,1,1,1
			c0.276,0,0.526-0.112,0.707-0.293L40,30.414l4.293,4.293C44.474,34.888,44.724,35,45,35c0.553,0,1-0.447,1-1
			c0-0.276-0.112-0.526-0.293-0.707L41.414,29z"/>
	</g>
</g>
<g>
</g>
<g>
</g>
<g>
</g>
<g>
</g>
<g>
</g>
<g>
</g>
<g>
</g>
<g>
</g>
<g>
</g>
<g>
</g>
<g>
</g>
<g>
</g>
<g>
</g>
<g>
</g>
<g>
</g>
</svg>
