<?xml version="1.0" encoding="iso-8859-1"?>
<!-- Generator: Adobe Illustrator 16.0.4, SVG Export Plug-In . SVG Version: 6.00 Build 0)  -->
<!DOCTYPE svg PUBLIC "-//W3C//DTD SVG 1.1//EN" "http://www.w3.org/Graphics/SVG/1.1/DTD/svg11.dtd">
<svg version="1.1" id="Layer_1" xmlns="http://www.w3.org/2000/svg" xmlns:xlink="http://www.w3.org/1999/xlink" x="0px" y="0px"
	 width="40px" height="56px" viewBox="0 0 40 56" style="enable-background:new 0 0 40 56;" xml:space="preserve">
<g id="_x37_72-sound-1-selected_x40_2x.png">
	<g>
		<path d="M27,0c-0.73,0-1.391,0.271-1.91,0.705l-0.007-0.008L10,13.118V14v1.709v24.582V42v0.882l15.083,12.422l0.007-0.009
			C25.609,55.729,26.27,56,27,56c1.657,0,3-1.343,3-3V3C30,1.343,28.657,0,27,0z M0,18v20c0,2.209,1.791,4,4,4h4V14H4
			C1.791,14,0,15.791,0,18z M34,21.969c-0.553,0-1,0.447-1,1s0.447,1,1,1c2.209,0,4,1.791,4,4V28c0,2.209-1.791,4-4,4
			c-0.553,0-1,0.447-1,1s0.447,1,1,1c3.313,0,6-2.687,6-6v-0.031C40,24.655,37.313,21.969,34,21.969z"/>
	</g>
</g>
<g>
</g>
<g>
</g>
<g>
</g>
<g>
</g>
<g>
</g>
<g>
</g>
<g>
</g>
<g>
</g>
<g>
</g>
<g>
</g>
<g>
</g>
<g>
</g>
<g>
</g>
<g>
</g>
<g>
</g>
</svg>
