<?xml version="1.0" encoding="iso-8859-1"?>
<!-- Generator: Adobe Illustrator 16.0.4, SVG Export Plug-In . SVG Version: 6.00 Build 0)  -->
<!DOCTYPE svg PUBLIC "-//W3C//DTD SVG 1.1//EN" "http://www.w3.org/Graphics/SVG/1.1/DTD/svg11.dtd">
<svg version="1.1" id="Layer_1" xmlns="http://www.w3.org/2000/svg" xmlns:xlink="http://www.w3.org/1999/xlink" x="0px" y="0px"
	 width="55.988px" height="52px" viewBox="0 0 55.988 52" style="enable-background:new 0 0 55.988 52;" xml:space="preserve">
<g id="_x37_75-scissors-selected_x40_2x.png">
	<g>
		<path d="M55.988,7.296l-0.543-0.785c-0.06-0.087-1.504-2.125-4.822-2.464c-4.772-0.488-10.717,2.643-17.655,9.268
			c-2.271,1.966-4.291,3.726-6.113,5.313C16.541,27.618,12.495,30.793,4.949,34.98l0.006,0.01C2.019,36.471,0,39.502,0,43.012
			C0,47.976,4.029,52,9,52s9-4.024,9-8.988c0-2.049-0.69-3.935-1.848-5.446L55.988,7.296z M24.688,25c0.553,0,1,0.448,1,1
			c0,0.553-0.447,1-1,1s-1-0.447-1-1C23.688,25.448,24.135,25,24.688,25z M9,45.003c-1.104,0-2-0.897-2-2.005s0.896-2.005,2-2.005
			s2,0.897,2,2.005S10.104,45.003,9,45.003z M4.955,17.032l-0.006,0.01c4.495,2.498,7.756,4.645,11.832,7.868
			c1.186-0.971,3.35-2.762,6.24-5.23l-6.869-5.227C17.31,12.94,18,11.052,18,9c0-4.971-4.029-9-9-9S0,4.029,0,9
			C0,12.515,2.019,15.55,4.955,17.032z M9,7c1.104,0,2,0.896,2,2s-0.896,2-2,2s-2-0.896-2-2S7.896,7,9,7z M25.8,32.497
			c0.35,0.305,0.689,0.6,1.055,0.918c1.822,1.591,3.842,3.353,6.113,5.321c6.938,6.633,12.883,9.769,17.655,9.279
			c3.318-0.339,4.763-2.38,4.822-2.467l0.543-0.786L32.784,27.107L25.8,32.497z"/>
	</g>
</g>
<g>
</g>
<g>
</g>
<g>
</g>
<g>
</g>
<g>
</g>
<g>
</g>
<g>
</g>
<g>
</g>
<g>
</g>
<g>
</g>
<g>
</g>
<g>
</g>
<g>
</g>
<g>
</g>
<g>
</g>
</svg>
