<?xml version="1.0" encoding="iso-8859-1"?>
<!-- Generator: Adobe Illustrator 16.0.4, SVG Export Plug-In . SVG Version: 6.00 Build 0)  -->
<!DOCTYPE svg PUBLIC "-//W3C//DTD SVG 1.1//EN" "http://www.w3.org/Graphics/SVG/1.1/DTD/svg11.dtd">
<svg version="1.1" id="Layer_1" xmlns="http://www.w3.org/2000/svg" xmlns:xlink="http://www.w3.org/1999/xlink" x="0px" y="0px"
	 width="55.995px" height="55.5px" viewBox="0 0 55.995 55.5" style="enable-background:new 0 0 55.995 55.5;" xml:space="preserve"
	>
<g id="_x37_76-recycle-selected_x40_2x.png">
	<g>
		<path d="M40.014,36.994l-5.228-0.008l1.798-2.563l-0.021-0.015c0.127-0.169,0.217-0.368,0.217-0.596c0-0.553-0.447-1-1-1
			c-0.359,0-0.66,0.2-0.837,0.485l-0.008-0.006l-2.583,3.69H32.35l-4.352,6.17V38c0-0.552-0.447-1-1-1H14.706L7.993,48.42
			c2.312,2.552,5.516,2.579,5.516,2.579L26.998,51c0.553,0,1-0.447,1-1v-4.547l7.554,9.725c0.01,0.011,0.017,0.023,0.027,0.034
			l0.006,0.008l0.002-0.002c0.18,0.173,0.423,0.282,0.692,0.282c0.553,0,1-0.447,1-1c0-0.221-0.086-0.415-0.207-0.58l0.008-0.008
			L34.82,51c1.257,0,3.065,0,5.178,0c4.618,0,7.048-0.973,9.325-4.884l0.013-0.001l5.245-9.1H40.014V36.994z M12.38,37l0.37-0.632
			l4.274-7.269l1.256,2.646l0.019-0.009c0.172,0.301,0.483,0.513,0.855,0.513c0.553,0,1-0.447,1-1c0-0.129-0.029-0.252-0.074-0.365
			l0.004-0.002l-0.007-0.014c-0.003-0.007-0.006-0.013-0.009-0.019L15.06,20.305l3.574,2.502l0.005-0.008
			c0.453,0.316,1.076,0.205,1.392-0.248l0.011,0.007l6.78-10.246l-7.94-11.631c-2.28,0.971-3.47,2.661-3.568,2.815L8.409,14.447
			l0.009,0.006c-0.316,0.453-0.205,1.076,0.248,1.393c0.019,0.013,0.041,0.014,0.061,0.025l4.51,3.157L1.184,20.724l0.003,0.021
			c-0.491,0.063-0.876,0.467-0.876,0.975c0,0.553,0.447,1,1,1c0.045,0,0.084-0.02,0.128-0.025l0.002,0.014l3.339-0.475
			c-0.726,1.164-1.761,2.854-2.855,4.75c-2.207,3.824-2.62,6.371-0.69,10.018H1.186l5.556,9.603L12.386,37H12.38z M55.248,28.818
			l-6.035-11.459c-0.002-0.004-0.002-0.008-0.004-0.012c-0.252-0.491-0.855-0.685-1.346-0.433L47.86,16.91l-4.637,2.162
			l4.593-11.262c0.055-0.124,0.088-0.26,0.088-0.404c0-0.552-0.447-1-1-1c-0.419,0-0.775,0.259-0.924,0.623l-0.005-0.002
			l-1.335,3.284c-0.66-1.157-1.568-2.808-2.557-4.784C40.008,1.376,37.76,0,33.186,0h-11c-0.452,0-0.865,0.054-1.272,0.114
			l7.099,10.397l0.008-0.011l4.549,6.686l-2.802-0.229l-0.002,0.028c-0.027-0.003-0.051-0.017-0.079-0.017c-0.553,0-1,0.448-1,1
			c0,0.553,0.447,1,1,1c0.016,0,0.028-0.008,0.043-0.009l4.284,0.35l0.005,0.007l7.35,0.622l-4.535,2.116l0.001,0.003
			c-0.493,0.249-0.69,0.851-0.441,1.343l-0.006,0.003l5.792,11.612h13.371C56.665,31.758,55.35,29.017,55.248,28.818z"/>
	</g>
</g>
<g>
</g>
<g>
</g>
<g>
</g>
<g>
</g>
<g>
</g>
<g>
</g>
<g>
</g>
<g>
</g>
<g>
</g>
<g>
</g>
<g>
</g>
<g>
</g>
<g>
</g>
<g>
</g>
<g>
</g>
</svg>
