<?xml version="1.0" encoding="iso-8859-1"?>
<!-- Generator: Adobe Illustrator 16.0.4, SVG Export Plug-In . SVG Version: 6.00 Build 0)  -->
<!DOCTYPE svg PUBLIC "-//W3C//DTD SVG 1.1//EN" "http://www.w3.org/Graphics/SVG/1.1/DTD/svg11.dtd">
<svg version="1.1" id="Layer_1" xmlns="http://www.w3.org/2000/svg" xmlns:xlink="http://www.w3.org/1999/xlink" x="0px" y="0px"
	 width="51.979px" height="55.993px" viewBox="0 0 51.979 55.993" style="enable-background:new 0 0 51.979 55.993;"
	 xml:space="preserve">
<g id="_x37_78-thumbs-down-selected_x40_2x.png">
	<g>
		<path d="M51.979,23.448c0-1.311-0.054-3.488-1.602-5.237c0.635-0.588,1.228-1.728,1.514-3.026
			c0.439-2.004-0.859-3.939-2.692-6.377c0.237-0.831,1.501-2.096,0.424-4.04C47.822,1.514,41.697,0,32.743,0
			C21.885,0,17.484,0.786,13.657,2.197c-3.311,1.22-6.17,1.774-12.699,1.774v0.025C0.427,4.021,0,4.451,0,4.988v20.003h0.003
			c0.008,0.545,0.45,0.985,0.997,0.985c0.021,0,0.037-0.01,0.057-0.011c2.953,0.004,4.388,0.554,5.619,2.841
			c0.885,1.642,2.222,4.123,5.534,7.434c7.897,7.893,10.281,10.713,10.281,15.583c0,2.88,1.904,4.17,3.792,4.17
			c3.018,0,6.139-3.042,6.139-8.133c0-3.582-1.694-7.003-3.056-9.399c-0.843-1.484-1.715-3.02-1.424-3.629
			c0.089-0.186,0.491-0.649,2.321-0.955c2.577-0.431,5.774,0.199,8.443,0.806c3.308,0.751,6.233,1.131,8.686-0.117
			c1.51-0.769,2.342-2.834,1.607-5.59C51.019,27.826,51.979,25.887,51.979,23.448z"/>
	</g>
</g>
<g>
</g>
<g>
</g>
<g>
</g>
<g>
</g>
<g>
</g>
<g>
</g>
<g>
</g>
<g>
</g>
<g>
</g>
<g>
</g>
<g>
</g>
<g>
</g>
<g>
</g>
<g>
</g>
<g>
</g>
</svg>
