<?xml version="1.0" encoding="iso-8859-1"?>
<!-- Generator: Adobe Illustrator 16.0.4, SVG Export Plug-In . SVG Version: 6.00 Build 0)  -->
<!DOCTYPE svg PUBLIC "-//W3C//DTD SVG 1.1//EN" "http://www.w3.org/Graphics/SVG/1.1/DTD/svg11.dtd">
<svg version="1.1" id="Layer_1" xmlns="http://www.w3.org/2000/svg" xmlns:xlink="http://www.w3.org/1999/xlink" x="0px" y="0px"
	 width="55.998px" height="48.385px" viewBox="0 0 55.998 48.385" style="enable-background:new 0 0 55.998 48.385;"
	 xml:space="preserve">
<g id="_x37_79-users-selected_x40_2x.png">
	<g>
		<path d="M36.009,37.799c-0.938-0.425-1.822-0.825-2.454-1.246c-0.583-0.389-1.129-0.704-1.632-0.995
			C29.916,34.398,29,33.869,29,30.385c0-4.363,3.574-7.18,3.607-7.206l0.188-0.144l0.104-0.211c1.198-2.451,0.612-4.518,0.213-5.448
			c2.605-5.775-0.548-10.553-1.217-11.466C30.199,1.03,26.582,0,23.832,0c-3.261,0-6.157,1.43-6.203,1.456
			c-3.017,1.207-5.074,3.133-6.114,5.724c-1.68,4.184-0.156,8.779,0.396,10.19c-1.354,3.269,0.207,5.501,0.276,5.599l0.21,0.215
			C12.434,23.21,16,25.967,16,30.385c0,4.279-2.346,5.062-5.316,6.052l-0.389,0.128C6.953,37.664,0,39.951,0,47.385v1h44.018
			L44,47.367C43.893,41.367,39.336,39.305,36.009,37.799z M55.98,43.385c-0.094-5.269-4.045-7.068-6.93-8.383
			c-0.796-0.362-1.548-0.705-2.078-1.061c-0.502-0.337-0.972-0.61-1.405-0.863c-1.717-0.999-2.427-1.411-2.427-4.327
			c0-3.683,3.002-6.068,3.029-6.09l0.188-0.146l0.104-0.213c1.024-2.11,0.562-3.904,0.21-4.759c2.197-4.984-0.459-9.11-1.07-9.958
			c-1.483-4.271-4.637-5.174-7.037-5.174c-2.824,0-5.336,1.247-5.364,1.266c-0.037,0.016-0.067,0.036-0.104,0.052
			c0.206,0.414,0.406,0.835,0.575,1.292c1.034,1.527,3.846,6.479,1.566,12.438c0.438,1.445,0.696,3.702-0.562,6.274l-0.31,0.635
			l-0.562,0.43c-0.009,0.008-2.824,2.278-2.824,5.618c0,2.33,0.182,2.436,1.924,3.441c0.537,0.31,1.119,0.647,1.741,1.062
			c0.496,0.33,1.309,0.698,2.169,1.088c2.874,1.301,7.382,3.358,8.751,8.408h10.432L55.98,43.385z"/>
	</g>
</g>
<g>
</g>
<g>
</g>
<g>
</g>
<g>
</g>
<g>
</g>
<g>
</g>
<g>
</g>
<g>
</g>
<g>
</g>
<g>
</g>
<g>
</g>
<g>
</g>
<g>
</g>
<g>
</g>
<g>
</g>
</svg>
