<?xml version="1.0" encoding="iso-8859-1"?>
<!-- Generator: Adobe Illustrator 16.0.4, SVG Export Plug-In . SVG Version: 6.00 Build 0)  -->
<!DOCTYPE svg PUBLIC "-//W3C//DTD SVG 1.1//EN" "http://www.w3.org/Graphics/SVG/1.1/DTD/svg11.dtd">
<svg version="1.1" id="Layer_1" xmlns="http://www.w3.org/2000/svg" xmlns:xlink="http://www.w3.org/1999/xlink" x="0px" y="0px"
	 width="46px" height="56px" viewBox="0 0 46 56" style="enable-background:new 0 0 46 56;" xml:space="preserve">
<g id="_x37_80-building-selected_x40_2x.png">
	<g>
		<path d="M44,0H2C0.896,0,0,0.896,0,2v52c0,1.104,0.896,2,2,2h16V36h10v20h16c1.104,0,2-0.896,2-2V2C46,0.896,45.104,0,44,0z
			 M16,44H6v-8h10V44z M16,34H6v-8h10V34z M16,24H6v-8h10V24z M16,14H6V6h10V14z M28,34H18v-8h10V34z M28,24H18v-8h10V24z M28,14H18
			V6h10V14z M40,44H30v-8h10V44z M40,34H30v-8h10V34z M40,24H30v-8h10V24z M40,14H30V6h10V14z M14,18H8v4h6V18z M20,56h6V38h-6V56z
			 M14,28H8v4h6V28z M14,38H8v4h6V38z M38,18h-6v4h6V18z M26,8h-6v4h6V8z M38,28h-6v4h6V28z M38,38h-6v4h6V38z M14,8H8v4h6V8z M38,8
			h-6v4h6V8z M26,18h-6v4h6V18z M26,28h-6v4h6V28z"/>
	</g>
</g>
<g>
</g>
<g>
</g>
<g>
</g>
<g>
</g>
<g>
</g>
<g>
</g>
<g>
</g>
<g>
</g>
<g>
</g>
<g>
</g>
<g>
</g>
<g>
</g>
<g>
</g>
<g>
</g>
<g>
</g>
</svg>
