<?xml version="1.0" encoding="iso-8859-1"?>
<!-- Generator: Adobe Illustrator 16.0.4, SVG Export Plug-In . SVG Version: 6.00 Build 0)  -->
<!DOCTYPE svg PUBLIC "-//W3C//DTD SVG 1.1//EN" "http://www.w3.org/Graphics/SVG/1.1/DTD/svg11.dtd">
<svg version="1.1" id="Layer_1" xmlns="http://www.w3.org/2000/svg" xmlns:xlink="http://www.w3.org/1999/xlink" x="0px" y="0px"
	 width="56px" height="56px" viewBox="0 0 56 56" style="enable-background:new 0 0 56 56;" xml:space="preserve">
<g id="_x37_81-ships-wheel-selected_x40_2x.png">
	<g>
		<path d="M55,27h-5.051c-0.239-5.318-2.357-10.135-5.72-13.815l3.569-3.569c0.391-0.391,0.391-1.023,0-1.414s-1.023-0.391-1.414,0
			l-3.569,3.569C39.135,8.409,34.318,6.291,29,6.051V1c0-0.552-0.447-1-1-1c-0.552,0-1,0.448-1,1v5.051
			c-5.318,0.24-10.135,2.358-13.815,5.72L9.615,8.201c-0.391-0.391-1.023-0.391-1.414,0s-0.391,1.023,0,1.414l3.569,3.569
			C8.409,16.865,6.29,21.682,6.05,27H1c-0.552,0-1,0.447-1,1s0.448,1,1,1h5.05c0.24,5.318,2.358,10.135,5.72,13.815l-3.569,3.569
			c-0.391,0.391-0.391,1.023,0,1.414s1.023,0.391,1.414,0l3.569-3.569c3.681,3.362,8.497,5.48,13.815,5.72V55c0,0.553,0.448,1,1,1
			c0.553,0,1-0.447,1-1v-5.051c5.318-0.239,10.135-2.357,13.815-5.72l3.569,3.569c0.391,0.391,1.023,0.391,1.414,0
			s0.391-1.023,0-1.414l-3.569-3.569c3.362-3.681,5.48-8.497,5.72-13.815H55c0.553,0,1-0.447,1-1S55.553,27,55,27z M29,14.051
			c3.111,0.221,5.935,1.462,8.152,3.383l-4.27,4.27c-1.102-0.86-2.423-1.451-3.883-1.634V14.051z M27,14.051v6.019
			c-1.46,0.183-2.782,0.773-3.882,1.634l-4.27-4.27C21.065,15.513,23.889,14.271,27,14.051z M17.434,18.848l4.274,4.275
			c-0.85,1.103-1.432,2.424-1.615,3.877h-6.045C14.269,23.889,15.511,21.065,17.434,18.848z M14.048,29h6.045
			c0.183,1.453,0.765,2.774,1.615,3.878l-4.275,4.274C15.511,34.936,14.269,32.112,14.048,29z M27,41.949
			c-3.111-0.22-5.935-1.461-8.152-3.383l4.27-4.27c1.101,0.861,2.422,1.452,3.882,1.635V41.949z M28,32c-2.209,0-4-1.791-4-4
			s1.791-4,4-4s4,1.791,4,4S30.209,32,28,32z M29,41.949v-6.018c1.46-0.183,2.781-0.773,3.883-1.635l4.27,4.27
			C34.935,40.488,32.111,41.729,29,41.949z M38.566,37.152l-4.274-4.274c0.85-1.104,1.432-2.425,1.615-3.878h6.045
			C41.731,32.112,40.489,34.936,38.566,37.152z M35.907,27c-0.184-1.453-0.766-2.774-1.615-3.877l4.274-4.275
			c1.923,2.218,3.165,5.041,3.386,8.152H35.907z"/>
	</g>
</g>
<g>
</g>
<g>
</g>
<g>
</g>
<g>
</g>
<g>
</g>
<g>
</g>
<g>
</g>
<g>
</g>
<g>
</g>
<g>
</g>
<g>
</g>
<g>
</g>
<g>
</g>
<g>
</g>
<g>
</g>
</svg>
