<?xml version="1.0" encoding="iso-8859-1"?>
<!-- Generator: Adobe Illustrator 16.0.4, SVG Export Plug-In . SVG Version: 6.00 Build 0)  -->
<!DOCTYPE svg PUBLIC "-//W3C//DTD SVG 1.1//EN" "http://www.w3.org/Graphics/SVG/1.1/DTD/svg11.dtd">
<svg version="1.1" id="Layer_1" xmlns="http://www.w3.org/2000/svg" xmlns:xlink="http://www.w3.org/1999/xlink" x="0px" y="0px"
	 width="55.979px" height="55.959px" viewBox="0 0 55.979 55.959" style="enable-background:new 0 0 55.979 55.959;"
	 xml:space="preserve">
<g id="_x37_82-compass-selected_x40_2x.png">
	<g>
		<path d="M23.705,32.201l32.274,23.758L32.235,23.765l0.007-0.007L0,0l23.713,32.193L23.705,32.201z M28,26c1.104,0,2,0.896,2,2
			s-0.896,2-2,2s-2-0.896-2-2S26.896,26,28,26z M43.912,36.362c0.904-1.718,1.544-3.598,1.853-5.59L52.01,28l-6.245-2.772
			c-1.196-7.715-7.276-13.796-14.992-14.992L28,3.99l-2.772,6.245c-1.993,0.309-3.874,0.949-5.593,1.854l14.232,10.043
			L43.912,36.362z M12.087,19.64c-0.903,1.718-1.543,3.597-1.852,5.588L3.99,28l6.245,2.772c1.196,7.716,7.277,13.797,14.992,14.992
			L28,52.011l2.772-6.246c1.998-0.31,3.883-0.952,5.604-1.86L22.102,33.837L12.087,19.64z"/>
	</g>
</g>
<g>
</g>
<g>
</g>
<g>
</g>
<g>
</g>
<g>
</g>
<g>
</g>
<g>
</g>
<g>
</g>
<g>
</g>
<g>
</g>
<g>
</g>
<g>
</g>
<g>
</g>
<g>
</g>
<g>
</g>
</svg>
