<?xml version="1.0" encoding="iso-8859-1"?>
<!-- Generator: Adobe Illustrator 16.0.4, SVG Export Plug-In . SVG Version: 6.00 Build 0)  -->
<!DOCTYPE svg PUBLIC "-//W3C//DTD SVG 1.1//EN" "http://www.w3.org/Graphics/SVG/1.1/DTD/svg11.dtd">
<svg version="1.1" id="Layer_1" xmlns="http://www.w3.org/2000/svg" xmlns:xlink="http://www.w3.org/1999/xlink" x="0px" y="0px"
	 width="39.939px" height="55.949px" viewBox="0 0 39.939 55.949" style="enable-background:new 0 0 39.939 55.949;"
	 xml:space="preserve">
<g id="_x37_83-combination-lock-selected_x40_2x.png">
	<g>
		<path d="M19.97,34c-1.104,0-2,0.896-2,2s0.896,2,2,2s2-0.896,2-2S21.074,34,19.97,34z M31.97,36c0-0.553,0.447-1,1-1h6.97
			c-0.236-4.768-2.161-9.074-5.167-12.389l-4.903,4.903c-0.391,0.391-1.023,0.391-1.414,0s-0.391-1.023,0-1.414l4.905-4.905
			c-0.449-0.406-0.906-0.804-1.391-1.168V12c0-6.627-5.373-12-12-12s-12,5.373-12,12v8.027c-0.484,0.364-0.941,0.762-1.391,1.168
			l4.905,4.905c0.391,0.391,0.391,1.023,0,1.414s-1.023,0.391-1.414,0l-4.903-4.903C2.161,25.926,0.236,30.232,0,35h6.97
			c0.553,0,1,0.447,1,1s-0.447,1-1,1H0.019c0.236,4.766,2.152,9.075,5.149,12.388l4.902-4.902c0.391-0.391,1.023-0.391,1.414,0
			s0.391,1.023,0,1.414l-4.901,4.902c3.312,2.996,7.621,4.912,12.387,5.147V49c0-0.553,0.447-1,1-1s1,0.447,1,1v6.949
			c4.766-0.235,9.075-2.151,12.387-5.147l-4.901-4.902c-0.391-0.391-0.391-1.023,0-1.414s1.023-0.391,1.414,0l4.902,4.902
			c2.997-3.312,4.913-7.622,5.149-12.388H32.97C32.417,37,31.97,36.553,31.97,36z M19.97,44c-4.418,0-8-3.581-8-8
			c0-4.418,3.582-8,8-8s8,3.582,8,8C27.97,40.419,24.388,44,19.97,44z M20.97,16.034V23c0,0.553-0.447,1-1,1s-1-0.447-1-1v-6.966
			c-3.27,0.164-6.327,1.115-9,2.663V12c0-5.522,4.478-10,10-10s10,4.478,10,10v6.697C27.297,17.149,24.239,16.198,20.97,16.034z"/>
	</g>
</g>
<g>
</g>
<g>
</g>
<g>
</g>
<g>
</g>
<g>
</g>
<g>
</g>
<g>
</g>
<g>
</g>
<g>
</g>
<g>
</g>
<g>
</g>
<g>
</g>
<g>
</g>
<g>
</g>
<g>
</g>
</svg>
