<?xml version="1.0" encoding="iso-8859-1"?>
<!-- Generator: Adobe Illustrator 16.0.4, SVG Export Plug-In . SVG Version: 6.00 Build 0)  -->
<!DOCTYPE svg PUBLIC "-//W3C//DTD SVG 1.1//EN" "http://www.w3.org/Graphics/SVG/1.1/DTD/svg11.dtd">
<svg version="1.1" id="Layer_1" xmlns="http://www.w3.org/2000/svg" xmlns:xlink="http://www.w3.org/1999/xlink" x="0px" y="0px"
	 width="56px" height="56px" viewBox="0 0 56 56" style="enable-background:new 0 0 56 56;" xml:space="preserve">
<g id="_x37_85-floppy-disk-selected_x40_2x.png">
	<g>
		<path d="M34,20h4V10h-4V20z M33,38c0.553,0,1-0.447,1-1c0-0.552-0.447-1-1-1s-1,0.448-1,1C32,37.553,32.447,38,33,38z M15,38h14
			c0.553,0,1-0.447,1-1c0-0.552-0.447-1-1-1H15c-0.553,0-1,0.448-1,1C14,37.553,14.447,38,15,38z M15,44h26c0.553,0,1-0.447,1-1
			c0-0.552-0.447-1-1-1H15c-0.553,0-1,0.448-1,1C14,43.553,14.447,44,15,44z M48,0H4C1.791,0,0,1.791,0,4v48c0,2.209,1.791,4,4,4h48
			c2.209,0,4-1.791,4-4V8L48,0z M16,8h24v14H16V8z M46,54H10V32h36V54z"/>
	</g>
</g>
<g>
</g>
<g>
</g>
<g>
</g>
<g>
</g>
<g>
</g>
<g>
</g>
<g>
</g>
<g>
</g>
<g>
</g>
<g>
</g>
<g>
</g>
<g>
</g>
<g>
</g>
<g>
</g>
<g>
</g>
</svg>
