<?xml version="1.0" encoding="iso-8859-1"?>
<!-- Generator: Adobe Illustrator 16.0.4, SVG Export Plug-In . SVG Version: 6.00 Build 0)  -->
<!DOCTYPE svg PUBLIC "-//W3C//DTD SVG 1.1//EN" "http://www.w3.org/Graphics/SVG/1.1/DTD/svg11.dtd">
<svg version="1.1" id="Layer_1" xmlns="http://www.w3.org/2000/svg" xmlns:xlink="http://www.w3.org/1999/xlink" x="0px" y="0px"
	 width="56px" height="48px" viewBox="0 0 56 48" style="enable-background:new 0 0 56 48;" xml:space="preserve">
<g id="_x37_86-browser-selected_x40_2x.png">
	<g>
		<path d="M0,44c0,2.209,1.791,4,4,4h48c2.209,0,4-1.791,4-4V12H0V44z M30,21c0-0.553,0.447-1,1-1h14c0.553,0,1,0.447,1,1v16
			c0,0.553-0.447,1-1,1H31c-0.553,0-1-0.447-1-1V21z M11,20h14c0.553,0,1,0.447,1,1s-0.447,1-1,1H11c-0.553,0-1-0.447-1-1
			S10.447,20,11,20z M11,28h14c0.553,0,1,0.448,1,1c0,0.553-0.447,1-1,1H11c-0.553,0-1-0.447-1-1C10,28.448,10.447,28,11,28z M11,36
			h14c0.553,0,1,0.448,1,1c0,0.553-0.447,1-1,1H11c-0.553,0-1-0.447-1-1C10,36.448,10.447,36,11,36z M52,0H4C1.791,0,0,1.791,0,4v6
			h56V4C56,1.791,54.209,0,52,0z M6,8C4.896,8,4,7.104,4,6s0.896-2,2-2s2,0.896,2,2S7.104,8,6,8z M12,8c-1.104,0-2-0.896-2-2
			s0.896-2,2-2s2,0.896,2,2S13.104,8,12,8z M18,8c-1.104,0-2-0.896-2-2s0.896-2,2-2s2,0.896,2,2S19.104,8,18,8z"/>
	</g>
</g>
<g>
</g>
<g>
</g>
<g>
</g>
<g>
</g>
<g>
</g>
<g>
</g>
<g>
</g>
<g>
</g>
<g>
</g>
<g>
</g>
<g>
</g>
<g>
</g>
<g>
</g>
<g>
</g>
<g>
</g>
</svg>
