<?xml version="1.0" encoding="iso-8859-1"?>
<!-- Generator: Adobe Illustrator 16.0.4, SVG Export Plug-In . SVG Version: 6.00 Build 0)  -->
<!DOCTYPE svg PUBLIC "-//W3C//DTD SVG 1.1//EN" "http://www.w3.org/Graphics/SVG/1.1/DTD/svg11.dtd">
<svg version="1.1" id="Layer_1" xmlns="http://www.w3.org/2000/svg" xmlns:xlink="http://www.w3.org/1999/xlink" x="0px" y="0px"
	 width="56px" height="48px" viewBox="0 0 56 48" style="enable-background:new 0 0 56 48;" xml:space="preserve">
<g id="_x37_87-browser-windows-selected_x40_2x.png">
	<g>
		<path d="M46,34V12H0v22c0,2.209,1.791,4,4,4h38C44.209,38,46,36.209,46,34z M46,4c0-2.209-1.791-4-4-4H4C1.791,0,0,1.791,0,4v6h46
			V4z M6,8C4.896,8,4,7.104,4,6s0.896-2,2-2s2,0.896,2,2S7.104,8,6,8z M12,8c-1.104,0-2-0.896-2-2s0.896-2,2-2s2,0.896,2,2
			S13.104,8,12,8z M18,8c-1.104,0-2-0.896-2-2s0.896-2,2-2s2,0.896,2,2S19.104,8,18,8z M52,10h-3c-0.552,0-1,0.447-1,1v20v3
			c0,3.313-2.687,6-6,6h-3H11c-0.553,0-1,0.448-1,1v3c0,2.209,1.791,4,4,4h38c2.209,0,4-1.791,4-4V14C56,11.791,54.209,10,52,10z"/>
	</g>
</g>
<g>
</g>
<g>
</g>
<g>
</g>
<g>
</g>
<g>
</g>
<g>
</g>
<g>
</g>
<g>
</g>
<g>
</g>
<g>
</g>
<g>
</g>
<g>
</g>
<g>
</g>
<g>
</g>
<g>
</g>
</svg>
