<?xml version="1.0" encoding="iso-8859-1"?>
<!-- Generator: Adobe Illustrator 16.0.4, SVG Export Plug-In . SVG Version: 6.00 Build 0)  -->
<!DOCTYPE svg PUBLIC "-//W3C//DTD SVG 1.1//EN" "http://www.w3.org/Graphics/SVG/1.1/DTD/svg11.dtd">
<svg version="1.1" id="Layer_1" xmlns="http://www.w3.org/2000/svg" xmlns:xlink="http://www.w3.org/1999/xlink" x="0px" y="0px"
	 width="56px" height="44px" viewBox="0 0 56 44" style="enable-background:new 0 0 56 44;" xml:space="preserve">
<g id="_x37_88-video-film-strip-selected_x40_2x.png">
	<g>
		<path d="M24,16H8v12h16V16z M48,16H32v12h16V16z M52,0H4C1.791,0,0,1.791,0,4v36c0,2.209,1.791,4,4,4h48c2.209,0,4-1.791,4-4V4
			C56,1.791,54.209,0,52,0z M38,6h4v4h-4V6z M30,6h4v4h-4V6z M14,6h4v4h-4V6z M6,6h4v4H6V6z M10,38H6v-4h4V38z M18,38h-4v-4h4V38z
			 M26,38h-4v-4h4V38z M26,30H6V14h20V30z M26,10h-4V6h4V10z M34,38h-4v-4h4V38z M42,38h-4v-4h4V38z M50,38h-4v-4h4V38z M50,30H30
			V14h20V30z M50,10h-4V6h4V10z"/>
	</g>
</g>
<g>
</g>
<g>
</g>
<g>
</g>
<g>
</g>
<g>
</g>
<g>
</g>
<g>
</g>
<g>
</g>
<g>
</g>
<g>
</g>
<g>
</g>
<g>
</g>
<g>
</g>
<g>
</g>
<g>
</g>
</svg>
