<?xml version="1.0" encoding="iso-8859-1"?>
<!-- Generator: Adobe Illustrator 16.0.4, SVG Export Plug-In . SVG Version: 6.00 Build 0)  -->
<!DOCTYPE svg PUBLIC "-//W3C//DTD SVG 1.1//EN" "http://www.w3.org/Graphics/SVG/1.1/DTD/svg11.dtd">
<svg version="1.1" id="Layer_1" xmlns="http://www.w3.org/2000/svg" xmlns:xlink="http://www.w3.org/1999/xlink" x="0px" y="0px"
	 width="56px" height="56px" viewBox="0 0 56 56" style="enable-background:new 0 0 56 56;" xml:space="preserve">
<g id="_x37_90-golf-selected_x40_2x.png">
	<g>
		<path d="M0,48c0,2.806,3.987,5.266,10,6.691V41.308C3.987,42.734,0,45.194,0,48z M35.425,18.897C35.763,18.737,36,18.398,36,18
			s-0.237-0.736-0.575-0.897l0.003-0.006l-17.332-8.21C19.245,7.972,20,6.583,20,5c0-2.761-2.238-5-5-5s-5,2.239-5,5
			c0,1.631,0.792,3.064,2,3.978V38v2.881v14.233c1.865,0.347,3.874,0.605,6,0.747V40.139V38V27.159l17.428-8.255L35.425,18.897z
			 M22,40c-0.684,0-1.333,0.046-2,0.069v15.895C20.66,55.985,21.325,56,22,56c12.15,0,22-3.582,22-8S34.15,40,22,40z M52,44
			c-2.209,0-4,1.791-4,4s1.791,4,4,4s4-1.791,4-4S54.209,44,52,44z"/>
	</g>
</g>
<g>
</g>
<g>
</g>
<g>
</g>
<g>
</g>
<g>
</g>
<g>
</g>
<g>
</g>
<g>
</g>
<g>
</g>
<g>
</g>
<g>
</g>
<g>
</g>
<g>
</g>
<g>
</g>
<g>
</g>
</svg>
