<?xml version="1.0" encoding="iso-8859-1"?>
<!-- Generator: Adobe Illustrator 16.0.4, SVG Export Plug-In . SVG Version: 6.00 Build 0)  -->
<!DOCTYPE svg PUBLIC "-//W3C//DTD SVG 1.1//EN" "http://www.w3.org/Graphics/SVG/1.1/DTD/svg11.dtd">
<svg version="1.1" id="Layer_1" xmlns="http://www.w3.org/2000/svg" xmlns:xlink="http://www.w3.org/1999/xlink" x="0px" y="0px"
	 width="56px" height="52px" viewBox="0 0 56 52" style="enable-background:new 0 0 56 52;" xml:space="preserve">
<g id="_x37_91-warning-selected_x40_2x.png">
	<g>
		<path d="M55.74,49.031l0.014-0.008L29.723,0.961l-0.017,0.01C29.356,0.392,28.727,0,28,0c-0.726,0-1.356,0.392-1.707,0.971
			l-0.017-0.01L0.246,49.023l0.015,0.008C0.1,49.32,0,49.646,0,50c0,1.104,0.896,2,2,2h52c1.104,0,2-0.896,2-2
			C56,49.646,55.9,49.32,55.74,49.031z M28,46c-2.209,0-4-1.791-4-4s1.791-4,4-4s4,1.791,4,4S30.209,46,28,46z M30,34
			c0,1.104-0.896,2-2,2s-2-0.896-2-2l-2-14c0-1.104,0.896-2,2-2h4c1.104,0,2,0.896,2,2L30,34z"/>
	</g>
</g>
<g>
</g>
<g>
</g>
<g>
</g>
<g>
</g>
<g>
</g>
<g>
</g>
<g>
</g>
<g>
</g>
<g>
</g>
<g>
</g>
<g>
</g>
<g>
</g>
<g>
</g>
<g>
</g>
<g>
</g>
</svg>
