<?xml version="1.0" encoding="iso-8859-1"?>
<!-- Generator: Adobe Illustrator 16.0.4, SVG Export Plug-In . SVG Version: 6.00 Build 0)  -->
<!DOCTYPE svg PUBLIC "-//W3C//DTD SVG 1.1//EN" "http://www.w3.org/Graphics/SVG/1.1/DTD/svg11.dtd">
<svg version="1.1" id="Layer_1" xmlns="http://www.w3.org/2000/svg" xmlns:xlink="http://www.w3.org/1999/xlink" x="0px" y="0px"
	 width="56px" height="56px" viewBox="0 0 56 56" style="enable-background:new 0 0 56 56;" xml:space="preserve">
<g id="_x37_95-gauge-selected_x40_2x.png">
	<g>
		<path d="M28,42c-7.168,0-13.438,3.311-16.968,8.269C15.74,53.862,21.619,56,28,56s12.26-2.139,16.968-5.731
			C41.438,45.311,35.168,42,28,42z M28,0C12.536,0,0,12.536,0,28c0,8.363,3.671,15.865,9.484,20.996C13.396,43.591,20.218,40,28,40
			s14.604,3.591,18.516,8.996C52.329,43.865,56,36.363,56,28C56,12.536,43.464,0,28,0z M42.223,18.635l3.464-2.001
			c0.479-0.275,1.09-0.111,1.366,0.366c0.276,0.479,0.112,1.09-0.366,1.366l-3.464,2c-0.479,0.276-1.09,0.112-1.366-0.366
			S41.744,18.91,42.223,18.635z M27,7c0-0.552,0.447-1,1-1s1,0.448,1,1v4c0,0.553-0.447,1-1,1s-1-0.447-1-1V7z M7,29
			c-0.553,0-1-0.447-1-1s0.447-1,1-1h4c0.553,0,1,0.447,1,1s-0.447,1-1,1H7z M13.777,37.366l-3.464,2
			C9.835,39.643,9.224,39.479,8.947,39s-0.112-1.09,0.366-1.366l3.464-2c0.479-0.275,1.09-0.112,1.366,0.366
			S14.256,37.09,13.777,37.366z M14.144,20c-0.276,0.479-0.888,0.643-1.366,0.366l-3.464-2C8.835,18.09,8.671,17.479,8.947,17
			c0.276-0.478,0.888-0.642,1.366-0.366l3.464,2.001C14.256,18.91,14.42,19.521,14.144,20z M20,14.144
			c-0.479,0.276-1.09,0.112-1.366-0.365l-2-3.465C16.357,9.835,16.521,9.224,17,8.947c0.479-0.275,1.09-0.112,1.366,0.366l2,3.465
			C20.643,13.256,20.479,13.867,20,14.144z M38.728,18.687L30.7,26.715C30.887,27.105,31,27.538,31,28c0,1.657-1.343,3-3,3
			s-3-1.343-3-3c0-1.656,1.343-3,3-3c0.462,0,0.895,0.113,1.286,0.3l8.027-8.027c0.391-0.391,1.024-0.391,1.414,0
			C39.118,17.662,39.118,18.296,38.728,18.687z M39.366,10.313l-2,3.465C37.09,14.256,36.479,14.42,36,14.144
			s-0.643-0.888-0.366-1.365l2-3.465C37.91,8.835,38.521,8.672,39,8.947C39.479,9.224,39.643,9.835,39.366,10.313z M47.053,39
			c-0.276,0.479-0.888,0.643-1.366,0.366l-3.464-2C41.744,37.09,41.58,36.479,41.856,36s0.888-0.642,1.366-0.366l3.464,2
			C47.165,37.91,47.329,38.521,47.053,39z M49,29h-4c-0.553,0-1-0.447-1-1s0.447-1,1-1h4c0.553,0,1,0.447,1,1S49.553,29,49,29z"/>
	</g>
</g>
<g>
</g>
<g>
</g>
<g>
</g>
<g>
</g>
<g>
</g>
<g>
</g>
<g>
</g>
<g>
</g>
<g>
</g>
<g>
</g>
<g>
</g>
<g>
</g>
<g>
</g>
<g>
</g>
<g>
</g>
</svg>
