<?xml version="1.0" encoding="iso-8859-1"?>
<!-- Generator: Adobe Illustrator 16.0.4, SVG Export Plug-In . SVG Version: 6.00 Build 0)  -->
<!DOCTYPE svg PUBLIC "-//W3C//DTD SVG 1.1//EN" "http://www.w3.org/Graphics/SVG/1.1/DTD/svg11.dtd">
<svg version="1.1" id="Layer_1" xmlns="http://www.w3.org/2000/svg" xmlns:xlink="http://www.w3.org/1999/xlink" x="0px" y="0px"
	 width="56px" height="56px" viewBox="0 0 56 56" style="enable-background:new 0 0 56 56;" xml:space="preserve">
<g id="_x37_96-clock-2-selected_x40_2x.png">
	<g>
		<path d="M51.949,54.684l-2.796-8.387C53.409,41.393,56,35.007,56,28C56,12.536,43.464,0,28,0S0,12.536,0,28
			c0,7.007,2.591,13.393,6.847,18.297l-2.795,8.387l0.012,0.004C4.03,54.787,4,54.89,4,55c0,0.553,0.447,1,1,1h46
			c0.553,0,1-0.447,1-1c0-0.11-0.029-0.213-0.063-0.312L51.949,54.684z M37.144,37.24c-0.391,0.39-1.024,0.39-1.414,0l-6.506-6.506
			C28.849,30.902,28.437,31,28,31c-1.656,0-3-1.343-3-3c0-1.304,0.838-2.402,2-2.816V9c0-0.552,0.447-1,1-1s1,0.448,1,1v16.184
			c1.162,0.414,2,1.513,2,2.816c0,0.488-0.127,0.941-0.334,1.349l6.478,6.477C37.534,36.216,37.534,36.85,37.144,37.24z"/>
	</g>
</g>
<g>
</g>
<g>
</g>
<g>
</g>
<g>
</g>
<g>
</g>
<g>
</g>
<g>
</g>
<g>
</g>
<g>
</g>
<g>
</g>
<g>
</g>
<g>
</g>
<g>
</g>
<g>
</g>
<g>
</g>
</svg>
