<?xml version="1.0" encoding="iso-8859-1"?>
<!-- Generator: Adobe Illustrator 16.0.4, SVG Export Plug-In . SVG Version: 6.00 Build 0)  -->
<!DOCTYPE svg PUBLIC "-//W3C//DTD SVG 1.1//EN" "http://www.w3.org/Graphics/SVG/1.1/DTD/svg11.dtd">
<svg version="1.1" id="Layer_1" xmlns="http://www.w3.org/2000/svg" xmlns:xlink="http://www.w3.org/1999/xlink" x="0px" y="0px"
	 width="44px" height="56px" viewBox="0 0 44 56" style="enable-background:new 0 0 44 56;" xml:space="preserve">
<g id="_x37_99-beverage-selected_x40_2x.png">
	<g>
		<path d="M44,1c0-0.552-0.447-1-1-1H1C0.447,0,0,0.448,0,1c0,0.039,0.018,0.071,0.021,0.108L0.006,1.11l1.607,14.462L1.6,15.581
			c0.003,0.004,0.014,0.018,0.017,0.022l4.39,39.507l0.017-0.001C6.078,55.607,6.486,56,7,56h30c0.514,0,0.922-0.393,0.979-0.891
			l0.016,0.001l6-54l-0.016-0.002C43.982,1.071,44,1.039,44,1z M20,40c0,1.104-0.896,2-2,2h-4c-1.104,0-2-0.896-2-2v-4
			c0-1.104,0.896-2,2-2h4c1.104,0,2,0.896,2,2V40z M20.536,28.732l2-3.465c0.552-0.956,1.775-1.284,2.731-0.731l3.465,2
			c0.956,0.553,1.284,1.775,0.731,2.732l-2,3.464c-0.552,0.956-1.775,1.284-2.731,0.732l-3.465-2.001
			C20.312,30.912,19.983,29.688,20.536,28.732z M32,42c0,1.104-0.896,2-2,2h-4c-1.104,0-2-0.896-2-2v-4c0-1.104,0.896-2,2-2h4
			c1.104,0,2,0.896,2,2V42z M40.121,17.851C38.594,16.01,35.72,14,30.414,14c-5.16,0-7.617,2.167-9.785,4.079
			C18.852,19.646,17.316,21,14.414,21c-5.469,0-9.727-4.763-10.872-6.18L2.117,2h39.766L40.121,17.851z"/>
	</g>
</g>
<g>
</g>
<g>
</g>
<g>
</g>
<g>
</g>
<g>
</g>
<g>
</g>
<g>
</g>
<g>
</g>
<g>
</g>
<g>
</g>
<g>
</g>
<g>
</g>
<g>
</g>
<g>
</g>
<g>
</g>
</svg>
