<?xml version="1.0" encoding="iso-8859-1"?>
<!-- Generator: Adobe Illustrator 16.0.4, SVG Export Plug-In . SVG Version: 6.00 Build 0)  -->
<!DOCTYPE svg PUBLIC "-//W3C//DTD SVG 1.1//EN" "http://www.w3.org/Graphics/SVG/1.1/DTD/svg11.dtd">
<svg version="1.1" id="Layer_1" xmlns="http://www.w3.org/2000/svg" xmlns:xlink="http://www.w3.org/1999/xlink" x="0px" y="0px"
	 width="52px" height="56px" viewBox="0 0 52 56" style="enable-background:new 0 0 52 56;" xml:space="preserve">
<g id="_x38_03-large-house-selected_x40_2x.png">
	<g>
		<path d="M26,36c-2.209,0-4,1.791-4,4v16h8V40C30,37.791,28.209,36,26,36z M15,38h-4v6h4V38z M51,0H1C0.447,0,0,0.447,0,1v23
			c0,0.553,0.447,1,1,1h2h13.483l8.742-10.539l0.012,0.009c0.184-0.224,0.45-0.376,0.763-0.376s0.58,0.152,0.763,0.376l0.012-0.009
			L35.517,25H49h2c0.553,0,1-0.447,1-1V1.001V1C52,0.447,51.553,0,51,0z M34.353,26.727h-0.002l-0.003-0.004
			c-0.026-0.024-0.045-0.055-0.068-0.082L26,16.66l-8.351,10.066l-0.016-0.012c-0.173,0.168-0.407,0.271-0.665,0.279V27H4v27
			c0,1.104,0.896,2,2,2h14V40c0-3.313,2.687-6,6-6s6,2.687,6,6v16h14c1.104,0,2-0.896,2-2V27H35.031
			C34.768,27,34.531,26.894,34.353,26.727z M17,46H9V36h8V46z M29,30h-6v-8h6V30z M43,46h-8V36h8V46z M41,38h-4v6h4V38z M27,24h-2v4
			h2V24z"/>
	</g>
</g>
<g>
</g>
<g>
</g>
<g>
</g>
<g>
</g>
<g>
</g>
<g>
</g>
<g>
</g>
<g>
</g>
<g>
</g>
<g>
</g>
<g>
</g>
<g>
</g>
<g>
</g>
<g>
</g>
<g>
</g>
</svg>
