<?xml version="1.0" encoding="iso-8859-1"?>
<!-- Generator: Adobe Illustrator 16.0.4, SVG Export Plug-In . SVG Version: 6.00 Build 0)  -->
<!DOCTYPE svg PUBLIC "-//W3C//DTD SVG 1.1//EN" "http://www.w3.org/Graphics/SVG/1.1/DTD/svg11.dtd">
<svg version="1.1" id="Layer_1" xmlns="http://www.w3.org/2000/svg" xmlns:xlink="http://www.w3.org/1999/xlink" x="0px" y="0px"
	 width="48px" height="56px" viewBox="0 0 48 56" style="enable-background:new 0 0 48 56;" xml:space="preserve">
<g id="_x38_05-mailbox-selected_x40_2x.png">
	<g>
		<path d="M44,16H22v13.184c1.162,0.414,2,1.512,2,2.816c0,1.657-1.343,3-3,3s-3-1.343-3-3c0-1.305,0.838-2.402,2-2.816V16H8v32h36
			c2.209,0,4-1.791,4-4V20C48,17.791,46.209,16,44,16z M24,56h8v-6h-8V56z M0,20v24c0,2.209,1.791,4,4,4h2V16H4
			C1.791,16,0,17.791,0,20z M22,12h13c0.553,0,1-0.447,1-1c0-0.236-0.094-0.444-0.23-0.615l0.012-0.01L32.28,6l3.501-4.375
			l-0.012-0.01C35.906,1.444,36,1.236,36,1c0-0.553-0.447-1-1-1H21c-0.552,0-1,0.447-1,1v15h2V12z"/>
	</g>
</g>
<g>
</g>
<g>
</g>
<g>
</g>
<g>
</g>
<g>
</g>
<g>
</g>
<g>
</g>
<g>
</g>
<g>
</g>
<g>
</g>
<g>
</g>
<g>
</g>
<g>
</g>
<g>
</g>
<g>
</g>
</svg>
