<?xml version="1.0" encoding="iso-8859-1"?>
<!-- Generator: Adobe Illustrator 16.0.4, SVG Export Plug-In . SVG Version: 6.00 Build 0)  -->
<!DOCTYPE svg PUBLIC "-//W3C//DTD SVG 1.1//EN" "http://www.w3.org/Graphics/SVG/1.1/DTD/svg11.dtd">
<svg version="1.1" id="Layer_1" xmlns="http://www.w3.org/2000/svg" xmlns:xlink="http://www.w3.org/1999/xlink" x="0px" y="0px"
	 width="56px" height="44px" viewBox="0 0 56 44" style="enable-background:new 0 0 56 44;" xml:space="preserve">
<g id="_x38_06-parcel-selected_x40_2x.png">
	<g>
		<path d="M21.056,32.685c0.174,0.523-0.108,1.089-0.629,1.262c-0.105,0.035-0.212,0.052-0.315,0.052
			c-0.417,0-0.806-0.264-0.944-0.682c-0.6-1.799,0.533-4.308,3.104-6.884c1.081-1.083,2.335-2.082,3.654-2.949
			c-0.413-0.181-0.823-0.345-1.23-0.483H0v19c0,1.104,0.896,2,2,2h25V25.159c-1.197,0.789-2.336,1.698-3.32,2.685
			C21.485,30.041,20.781,31.858,21.056,32.685z M21.417,8.578c-1.632-0.875-3.28-0.772-4.897,0.309
			c-1.166,0.777-1.655,1.726-1.498,2.897c0.447,3.354,5.786,7.721,10.014,9.216H27v-0.592c-0.048-0.117-0.076-0.244-0.076-0.379
			C26.924,15.184,24.556,10.261,21.417,8.578z M40.979,11.784c0.157-1.172-0.332-2.12-1.498-2.897
			c-1.617-1.081-3.266-1.184-4.897-0.309c-3.139,1.683-5.507,6.605-5.507,11.451c0,0.135-0.028,0.262-0.076,0.379V21h1.965
			C35.192,19.505,40.531,15.138,40.979,11.784z M54,0H29v11.967c1.161-2.292,2.775-4.146,4.644-5.148
			c2.266-1.213,4.731-1.07,6.942,0.407c2.286,1.527,2.55,3.466,2.367,4.822c-0.439,3.294-3.946,6.729-7.524,8.952H56V2
			C56,0.896,55.104,0,54,0z M0,2v19h20.571c-3.578-2.223-7.085-5.658-7.524-8.952c-0.183-1.356,0.081-3.295,2.367-4.822
			c2.211-1.478,4.677-1.62,6.942-0.407C24.225,7.82,25.839,9.675,27,11.967V0H2C0.896,0,0,0.896,0,2z M30.064,23.487
			c1.323,0.866,2.582,1.86,3.665,2.945c2.57,2.576,3.703,5.085,3.104,6.884c-0.139,0.418-0.527,0.682-0.944,0.682
			c-0.104,0-0.21-0.017-0.315-0.052c-0.521-0.173-0.803-0.738-0.629-1.262c0.274-0.826-0.43-2.644-2.624-4.841
			c-0.984-0.986-2.123-1.896-3.32-2.685V44h25c1.104,0,2-0.896,2-2V23H31.306C30.896,23.14,30.48,23.307,30.064,23.487z"/>
	</g>
</g>
<g>
</g>
<g>
</g>
<g>
</g>
<g>
</g>
<g>
</g>
<g>
</g>
<g>
</g>
<g>
</g>
<g>
</g>
<g>
</g>
<g>
</g>
<g>
</g>
<g>
</g>
<g>
</g>
<g>
</g>
</svg>
