<?xml version="1.0" encoding="iso-8859-1"?>
<!-- Generator: Adobe Illustrator 16.0.4, SVG Export Plug-In . SVG Version: 6.00 Build 0)  -->
<!DOCTYPE svg PUBLIC "-//W3C//DTD SVG 1.1//EN" "http://www.w3.org/Graphics/SVG/1.1/DTD/svg11.dtd">
<svg version="1.1" id="Layer_1" xmlns="http://www.w3.org/2000/svg" xmlns:xlink="http://www.w3.org/1999/xlink" x="0px" y="0px"
	 width="56px" height="56px" viewBox="0 0 56 56" style="enable-background:new 0 0 56 56;" xml:space="preserve">
<g id="_x38_07-package-selected_x40_2x.png">
	<g>
		<path d="M24,26h8v-8L30,0h-4l-2,18V26z M55.618,16L47.895,0.553l-0.009,0.005C47.721,0.23,47.391,0,47,0H32l1.777,16H55.618z
			 M34,18c0,0,0,6,0,8s-2,2-2,2h-8c-2,0-2-2-2-2v-8H0v36c0,1.104,0.896,2,2,2h52c1.104,0,2-0.896,2-2V18H34z M21,50H7
			c-0.553,0-1-0.447-1-1c0-0.552,0.447-1,1-1h14c0.553,0,1,0.448,1,1C22,49.553,21.553,50,21,50z M25,44H7c-0.553,0-1-0.447-1-1
			s0.447-1,1-1h18c0.553,0,1,0.447,1,1S25.553,44,25,44z M50,47c0,0.553-0.447,1-1,1s-1-0.447-1-1v-1.586l-4.292,4.293
			C43.526,49.888,43.276,50,43,50c-0.553,0-1-0.447-1-1c0-0.275,0.112-0.525,0.293-0.707L46.586,44H45c-0.553,0-1-0.447-1-1
			s0.447-1,1-1h4c0.553,0,1,0.447,1,1V47z M24,0H9C8.609,0,8.279,0.23,8.114,0.558L8.105,0.553L0.382,16h21.841L24,0z"/>
	</g>
</g>
<g>
</g>
<g>
</g>
<g>
</g>
<g>
</g>
<g>
</g>
<g>
</g>
<g>
</g>
<g>
</g>
<g>
</g>
<g>
</g>
<g>
</g>
<g>
</g>
<g>
</g>
<g>
</g>
<g>
</g>
</svg>
