<?xml version="1.0" encoding="iso-8859-1"?>
<!-- Generator: Adobe Illustrator 16.0.4, SVG Export Plug-In . SVG Version: 6.00 Build 0)  -->
<!DOCTYPE svg PUBLIC "-//W3C//DTD SVG 1.1//EN" "http://www.w3.org/Graphics/SVG/1.1/DTD/svg11.dtd">
<svg version="1.1" id="Layer_1" xmlns="http://www.w3.org/2000/svg" xmlns:xlink="http://www.w3.org/1999/xlink" x="0px" y="0px"
	 width="44px" height="56px" viewBox="0 0 44 56" style="enable-background:new 0 0 44 56;" xml:space="preserve">
<g id="_x38_08-documents-selected_x40_2x.png">
	<g>
		<path d="M34,0v10h10L34,0z M32,11V0H14c-1.104,0-2,0.896-2,2v8h11l6,6h8c0.553,0,1,0.448,1,1c0,0.553-0.447,1-1,1h-6l3,3v7h3
			c0.553,0,1,0.448,1,1c0,0.553-0.447,1-1,1h-3v14h8c1.104,0,2-0.896,2-2V12H33C32.447,12,32,11.553,32,11z M22,22h10L22,12V22z
			 M20,23V12H2c-1.104,0-2,0.896-2,2v40c0,1.104,0.896,2,2,2h28c1.104,0,2-0.896,2-2V24H21C20.447,24,20,23.553,20,23z M25,42H7
			c-0.553,0-1-0.447-1-1s0.447-1,1-1h18c0.553,0,1,0.447,1,1S25.553,42,25,42z M6,35c0-0.552,0.447-1,1-1h12c0.553,0,1,0.448,1,1
			c0,0.553-0.447,1-1,1H7C6.447,36,6,35.553,6,35z M26,29c0,0.553-0.447,1-1,1H7c-0.553,0-1-0.447-1-1c0-0.552,0.447-1,1-1h18
			C25.553,28,26,28.448,26,29z"/>
	</g>
</g>
<g>
</g>
<g>
</g>
<g>
</g>
<g>
</g>
<g>
</g>
<g>
</g>
<g>
</g>
<g>
</g>
<g>
</g>
<g>
</g>
<g>
</g>
<g>
</g>
<g>
</g>
<g>
</g>
<g>
</g>
</svg>
