<?xml version="1.0" encoding="iso-8859-1"?>
<!-- Generator: Adobe Illustrator 16.0.4, SVG Export Plug-In . SVG Version: 6.00 Build 0)  -->
<!DOCTYPE svg PUBLIC "-//W3C//DTD SVG 1.1//EN" "http://www.w3.org/Graphics/SVG/1.1/DTD/svg11.dtd">
<svg version="1.1" id="Layer_1" xmlns="http://www.w3.org/2000/svg" xmlns:xlink="http://www.w3.org/1999/xlink" x="0px" y="0px"
	 width="40px" height="56px" viewBox="0 0 40 56" style="enable-background:new 0 0 40 56;" xml:space="preserve">
<g id="_x38_09-clipboard-selected_x40_2x.png">
	<g>
		<path d="M28,2h-7V1c0-0.553-0.447-1-1-1s-1,0.447-1,1v1h-7v8h16V2z M38,6h-8v4c0,1.104-0.896,2-2,2H12c-1.104,0-2-0.896-2-2V6H2
			C0.896,6,0,6.896,0,8v46c0,1.104,0.896,2,2,2h26.586L40,44.586V8C40,6.896,39.104,6,38,6z M33,38H7c-0.553,0-1-0.447-1-1
			c0-0.552,0.447-1,1-1h26c0.553,0,1,0.448,1,1C34,37.553,33.553,38,33,38z M6,31c0-0.553,0.447-1,1-1h20c0.553,0,1,0.447,1,1
			s-0.447,1-1,1H7C6.447,32,6,31.553,6,31z M33,26H7c-0.553,0-1-0.447-1-1c0-0.552,0.447-1,1-1h26c0.553,0,1,0.448,1,1
			C34,25.553,33.553,26,33,26z M38,56c1.104,0,2-0.896,2-2v-6.586L31.414,56H38z"/>
	</g>
</g>
<g>
</g>
<g>
</g>
<g>
</g>
<g>
</g>
<g>
</g>
<g>
</g>
<g>
</g>
<g>
</g>
<g>
</g>
<g>
</g>
<g>
</g>
<g>
</g>
<g>
</g>
<g>
</g>
<g>
</g>
</svg>
