<?xml version="1.0" encoding="iso-8859-1"?>
<!-- Generator: Adobe Illustrator 16.0.4, SVG Export Plug-In . SVG Version: 6.00 Build 0)  -->
<!DOCTYPE svg PUBLIC "-//W3C//DTD SVG 1.1//EN" "http://www.w3.org/Graphics/SVG/1.1/DTD/svg11.dtd">
<svg version="1.1" id="Layer_1" xmlns="http://www.w3.org/2000/svg" xmlns:xlink="http://www.w3.org/1999/xlink" x="0px" y="0px"
	 width="40px" height="56px" viewBox="0 0 40 56" style="enable-background:new 0 0 40 56;" xml:space="preserve">
<g id="_x38_10-document-2-selected_x40_2x.png">
	<g>
		<path d="M38,0H2C0.896,0,0,0.896,0,2v52c0,1.104,0.896,2,2,2h36c1.104,0,2-0.896,2-2V2C40,0.896,39.104,0,38,0z M7,6h10
			c0.553,0,1,0.448,1,1c0,0.553-0.447,1-1,1H7C6.447,8,6,7.553,6,7C6,6.448,6.447,6,7,6z M7,12h10c0.553,0,1,0.447,1,1s-0.447,1-1,1
			H7c-0.553,0-1-0.447-1-1S6.447,12,7,12z M7,18h10c0.553,0,1,0.448,1,1c0,0.553-0.447,1-1,1H7c-0.553,0-1-0.447-1-1
			C6,18.448,6.447,18,7,18z M27,50H7c-0.553,0-1-0.447-1-1c0-0.552,0.447-1,1-1h20c0.553,0,1,0.448,1,1C28,49.553,27.553,50,27,50z
			 M33,44H7c-0.553,0-1-0.447-1-1s0.447-1,1-1h26c0.553,0,1,0.447,1,1S33.553,44,33,44z M33,38H7c-0.553,0-1-0.447-1-1
			c0-0.552,0.447-1,1-1h26c0.553,0,1,0.448,1,1C34,37.553,33.553,38,33,38z M33,32H7c-0.553,0-1-0.447-1-1s0.447-1,1-1h26
			c0.553,0,1,0.447,1,1S33.553,32,33,32z M33,26H7c-0.553,0-1-0.447-1-1c0-0.552,0.447-1,1-1h26c0.553,0,1,0.448,1,1
			C34,25.553,33.553,26,33,26z M34,19c0,0.553-0.447,1-1,1H23c-0.553,0-1-0.447-1-1V7c0-0.552,0.447-1,1-1h10c0.553,0,1,0.448,1,1
			V19z M24,18h8V8h-8V18z"/>
	</g>
</g>
<g>
</g>
<g>
</g>
<g>
</g>
<g>
</g>
<g>
</g>
<g>
</g>
<g>
</g>
<g>
</g>
<g>
</g>
<g>
</g>
<g>
</g>
<g>
</g>
<g>
</g>
<g>
</g>
<g>
</g>
</svg>
