<?xml version="1.0" encoding="iso-8859-1"?>
<!-- Generator: Adobe Illustrator 16.0.4, SVG Export Plug-In . SVG Version: 6.00 Build 0)  -->
<!DOCTYPE svg PUBLIC "-//W3C//DTD SVG 1.1//EN" "http://www.w3.org/Graphics/SVG/1.1/DTD/svg11.dtd">
<svg version="1.1" id="Layer_1" xmlns="http://www.w3.org/2000/svg" xmlns:xlink="http://www.w3.org/1999/xlink" x="0px" y="0px"
	 width="44px" height="55.632px" viewBox="0 0 44 55.632" style="enable-background:new 0 0 44 55.632;" xml:space="preserve">
<g id="_x38_11-download-box-selected_x40_2x.png">
	<g>
		<path d="M31,21c0-0.552-0.447-1-1-1c-0.276,0-0.526,0.112-0.707,0.293L23,26.586V1c0-0.552-0.447-1-1-1c-0.552,0-1,0.448-1,1
			v25.586l-6.293-6.293C14.526,20.112,14.276,20,14,20c-0.552,0-1,0.448-1,1c0,0.276,0.112,0.526,0.293,0.707l8,8
			C21.474,29.889,21.724,30,22,30c0.276,0,0.526-0.111,0.707-0.293l8-8C30.888,21.526,31,21.276,31,21z M10.836,25.435l-0.011-0.023
			c0.323-0.165,0.55-0.492,0.55-0.88c0-0.553-0.448-1-1-1c-0.168,0-0.32,0.053-0.459,0.126l-9.345,4.44l0.003,0.006
			C0.237,28.265,0,28.603,0,29v16c0,0.398,0.237,0.735,0.573,0.896L0.57,45.903L21,55.632V37.416L3.328,29.001L10.836,25.435z
			 M43.427,28.104l0.003-0.006l-9.369-4.436c-0.141-0.076-0.295-0.131-0.467-0.131c-0.553,0-1,0.447-1,1
			c0,0.413,0.251,0.768,0.608,0.92l-0.007,0.015l7.474,3.537L23,37.416v18.216l20.43-9.729l-0.003-0.007
			C43.764,45.735,44,45.398,44,45V29C44,28.603,43.764,28.265,43.427,28.104z"/>
	</g>
</g>
<g>
</g>
<g>
</g>
<g>
</g>
<g>
</g>
<g>
</g>
<g>
</g>
<g>
</g>
<g>
</g>
<g>
</g>
<g>
</g>
<g>
</g>
<g>
</g>
<g>
</g>
<g>
</g>
<g>
</g>
</svg>
