<?xml version="1.0" encoding="iso-8859-1"?>
<!-- Generator: Adobe Illustrator 16.0.4, SVG Export Plug-In . SVG Version: 6.00 Build 0)  -->
<!DOCTYPE svg PUBLIC "-//W3C//DTD SVG 1.1//EN" "http://www.w3.org/Graphics/SVG/1.1/DTD/svg11.dtd">
<svg version="1.1" id="Layer_1" xmlns="http://www.w3.org/2000/svg" xmlns:xlink="http://www.w3.org/1999/xlink" x="0px" y="0px"
	 width="46px" height="56px" viewBox="0 0 46 56" style="enable-background:new 0 0 46 56;" xml:space="preserve">
<g id="_x38_12-hiking-selected_x40_2x.png">
	<g>
		<path d="M21,10c2.762,0,5-2.238,5-5s-2.238-5-5-5s-5,2.238-5,5S18.238,10,21,10z M46,17c0-0.553-0.447-1-1-1
			c-0.464,0-0.836,0.322-0.949,0.75l-0.018-0.004l-10,37.999l0.018,0.005C34.029,54.832,34,54.911,34,55c0,0.553,0.447,1,1,1
			c0.464,0,0.836-0.322,0.949-0.75l0.018,0.005l10-38l-0.018-0.005C45.972,17.168,46,17.089,46,17z M13.983,12.899L8.27,11.07
			c-2.104-0.674-4.356,0.486-5.029,2.59l-3.049,9.523c-0.674,2.104,0.486,4.356,2.59,5.029l5.715,1.829L13.983,12.899z M36,30
			c0-1.364-0.916-2.502-2.162-2.866l0.004-0.011l-9.145-2.729l0.771-1.947c0.018-0.038,0.029-0.077,0.046-0.116l0.137-0.343
			l-0.021-0.009C25.852,21.357,26,20.699,26,20c0-3.313-2.687-6-6-6c-2.594,0-4.782,1.655-5.62,3.959l-0.021-0.007L4.405,49.031
			c-0.074,0.173-0.118,0.358-0.173,0.54l-0.062,0.193h0.001C4.07,50.162,4,50.571,4,51c0,2.762,2.238,5,5,5
			c2.076,0,3.855-1.266,4.611-3.066l0.024,0.008l3.372-9.09l3.325,8.996l0.026-0.009C21.093,54.688,22.89,56,25,56
			c2.762,0,5-2.238,5-5c0-0.516-0.101-1.004-0.246-1.472l0.024-0.009l-6.419-19.17l8.807,2.53l0.003-0.011
			C32.435,32.946,32.71,33,33,33C34.657,33,36,31.657,36,30z"/>
	</g>
</g>
<g>
</g>
<g>
</g>
<g>
</g>
<g>
</g>
<g>
</g>
<g>
</g>
<g>
</g>
<g>
</g>
<g>
</g>
<g>
</g>
<g>
</g>
<g>
</g>
<g>
</g>
<g>
</g>
<g>
</g>
</svg>
