<?xml version="1.0" encoding="iso-8859-1"?>
<!-- Generator: Adobe Illustrator 16.0.4, SVG Export Plug-In . SVG Version: 6.00 Build 0)  -->
<!DOCTYPE svg PUBLIC "-//W3C//DTD SVG 1.1//EN" "http://www.w3.org/Graphics/SVG/1.1/DTD/svg11.dtd">
<svg version="1.1" id="Layer_1" xmlns="http://www.w3.org/2000/svg" xmlns:xlink="http://www.w3.org/1999/xlink" x="0px" y="0px"
	 width="36px" height="56px" viewBox="0 0 36 56" style="enable-background:new 0 0 36 56;" xml:space="preserve">
<g id="_x38_13-train-selected_x40_2x.png">
	<g>
		<path d="M6,24h24V14H6V24z M27.707,48.293C27.526,48.112,27.276,48,27,48c-0.553,0-1,0.448-1,1c0,0.276,0.112,0.526,0.293,0.707
			L28.586,52H7.414l2.293-2.293C9.888,49.526,10,49.276,10,49c0-0.552-0.447-1-1-1c-0.276,0-0.526,0.112-0.707,0.293l-5.999,5.999
			C2.112,54.474,2,54.724,2,55c0,0.553,0.447,1,1,1c0.276,0,0.526-0.111,0.707-0.293L5.414,54h25.172l1.707,1.707
			C32.474,55.888,32.724,56,33,56c0.553,0,1-0.447,1-1c0-0.276-0.112-0.526-0.294-0.707L27.707,48.293z M10,34c-1.104,0-2,0.896-2,2
			s0.896,2,2,2s2-0.896,2-2S11.104,34,10,34z M34,4h-8V2c0-1.104-0.896-2-2-2h-2c-1.104,0-2,0.896-2,2v2h-4V2c0-1.104-0.896-2-2-2
			h-2c-1.104,0-2,0.896-2,2v2H2C0.896,4,0,4.896,0,6v38c0,1.104,0.896,2,2,2h32c1.104,0,2-0.896,2-2V6C36,4.896,35.104,4,34,4z
			 M13,8h10c0.553,0,1,0.448,1,1c0,0.553-0.447,1-1,1H13c-0.553,0-1-0.447-1-1C12,8.448,12.447,8,13,8z M10,40c-2.209,0-4-1.791-4-4
			s1.791-4,4-4s4,1.791,4,4S12.209,40,10,40z M26,40c-2.209,0-4-1.791-4-4s1.791-4,4-4s4,1.791,4,4S28.209,40,26,40z M32,24
			c0,1.104-0.896,2-2,2H6c-1.104,0-2-0.896-2-2V14c0-1.104,0.896-2,2-2h24c1.104,0,2,0.896,2,2V24z M26,34c-1.104,0-2,0.896-2,2
			s0.896,2,2,2s2-0.896,2-2S27.104,34,26,34z"/>
	</g>
</g>
<g>
</g>
<g>
</g>
<g>
</g>
<g>
</g>
<g>
</g>
<g>
</g>
<g>
</g>
<g>
</g>
<g>
</g>
<g>
</g>
<g>
</g>
<g>
</g>
<g>
</g>
<g>
</g>
<g>
</g>
</svg>
