<?xml version="1.0" encoding="iso-8859-1"?>
<!-- Generator: Adobe Illustrator 16.0.4, SVG Export Plug-In . SVG Version: 6.00 Build 0)  -->
<!DOCTYPE svg PUBLIC "-//W3C//DTD SVG 1.1//EN" "http://www.w3.org/Graphics/SVG/1.1/DTD/svg11.dtd">
<svg version="1.1" id="Layer_1" xmlns="http://www.w3.org/2000/svg" xmlns:xlink="http://www.w3.org/1999/xlink" x="0px" y="0px"
	 width="48px" height="56px" viewBox="0 0 48 56" style="enable-background:new 0 0 48 56;" xml:space="preserve">
<g id="_x38_14-bus-selected_x40_2x.png">
	<g>
		<path d="M33,0H15v6h18V0z M12,40c-1.104,0-2,0.896-2,2s0.896,2,2,2s2-0.896,2-2S13.104,40,12,40z M24,14C8,14,8,19,8,20v8h16h16
			v-8C40,19,40,14,24,14z M36,40c-1.104,0-2,0.896-2,2s0.896,2,2,2s2-0.896,2-2S37.104,40,36,40z M35,2.014V6c0,1.104-0.896,2-2,2
			H15c-1.104,0-2-0.896-2-2V2.014C5.283,5.007,0,11.035,0,18v1v2v7v5v17c0,1.104,0.896,2,2,2h4c0,2.209,1.791,4,4,4s4-1.791,4-4h20
			c0,2.209,1.791,4,4,4s4-1.791,4-4h4c1.104,0,2-0.896,2-2V33v-5v-7v-2v-1C48,11.035,42.717,5.007,35,2.014z M12,46
			c-2.209,0-4-1.791-4-4s1.791-4,4-4s4,1.791,4,4S14.209,46,12,46z M36,46c-2.209,0-4-1.791-4-4s1.791-4,4-4s4,1.791,4,4
			S38.209,46,36,46z M42,28c0,0,0,2-2,2s-16,0-16,0s-14,0-16,0s-2-2-2-2v-8c0-2,0-8,18-8s18,6,18,8V28z"/>
	</g>
</g>
<g>
</g>
<g>
</g>
<g>
</g>
<g>
</g>
<g>
</g>
<g>
</g>
<g>
</g>
<g>
</g>
<g>
</g>
<g>
</g>
<g>
</g>
<g>
</g>
<g>
</g>
<g>
</g>
<g>
</g>
</svg>
