<?xml version="1.0" encoding="iso-8859-1"?>
<!-- Generator: Adobe Illustrator 16.0.4, SVG Export Plug-In . SVG Version: 6.00 Build 0)  -->
<!DOCTYPE svg PUBLIC "-//W3C//DTD SVG 1.1//EN" "http://www.w3.org/Graphics/SVG/1.1/DTD/svg11.dtd">
<svg version="1.1" id="Layer_1" xmlns="http://www.w3.org/2000/svg" xmlns:xlink="http://www.w3.org/1999/xlink" x="0px" y="0px"
	 width="56px" height="50px" viewBox="0 0 56 50" style="enable-background:new 0 0 56 50;" xml:space="preserve">
<g id="_x38_15-car-selected_x40_2x.png">
	<g>
		<path d="M10,30c-1.104,0-2,0.896-2,2s0.896,2,2,2s2-0.896,2-2S11.104,30,10,30z M54,22C52,2,42,0,40,0S28,0,28,0S18,0,16,0
			S4,2,2,22c-1.104,0-2,0.896-2,2v16v5c0,2.762,2.238,5,5,5s5-2.238,5-5v-3h36v3c0,2.762,2.238,5,5,5s5-2.238,5-5v-5V24
			C56,22.896,55.104,22,54,22z M10,36c-2.209,0-4-1.791-4-4s1.791-4,4-4s4,1.791,4,4S12.209,36,10,36z M37,34H19
			c-0.553,0-1-0.447-1-1s0.447-1,1-1h18c0.553,0,1,0.447,1,1S37.553,34,37,34z M46,36c-2.209,0-4-1.791-4-4s1.791-4,4-4s4,1.791,4,4
			S48.209,36,46,36z M28,22H4C6,4,15,2,16,2s12,0,12,0s11,0,12,0s10,2,12,20H28z M46,30c-1.104,0-2,0.896-2,2s0.896,2,2,2
			s2-0.896,2-2S47.104,30,46,30z"/>
	</g>
</g>
<g>
</g>
<g>
</g>
<g>
</g>
<g>
</g>
<g>
</g>
<g>
</g>
<g>
</g>
<g>
</g>
<g>
</g>
<g>
</g>
<g>
</g>
<g>
</g>
<g>
</g>
<g>
</g>
<g>
</g>
</svg>
