<?xml version="1.0" encoding="iso-8859-1"?>
<!-- Generator: Adobe Illustrator 16.0.4, SVG Export Plug-In . SVG Version: 6.00 Build 0)  -->
<!DOCTYPE svg PUBLIC "-//W3C//DTD SVG 1.1//EN" "http://www.w3.org/Graphics/SVG/1.1/DTD/svg11.dtd">
<svg version="1.1" id="Layer_1" xmlns="http://www.w3.org/2000/svg" xmlns:xlink="http://www.w3.org/1999/xlink" x="0px" y="0px"
	 width="56px" height="38px" viewBox="0 0 56 38" style="enable-background:new 0 0 56 38;" xml:space="preserve">
<g id="_x38_17-costume-selected_x40_2x.png">
	<g>
		<path d="M0.558,4.886L0.553,4.895l2.008,1.004C2.204,6.866,2,7.908,2,9c0,4.971,4.029,9,9,9c7,0,15-2,15-9
			c0-0.254-0.018-0.504-0.039-0.752C26.405,8.107,27.036,8,28,8s1.595,0.107,2.039,0.248C30.018,8.496,30,8.746,30,9c0,7,8,9,15,9
			c4.971,0,9-4.029,9-9c0-1.092-0.204-2.134-0.561-3.102l2.008-1.004l-0.005-0.009C55.77,4.721,56,4.392,56,4c0-0.553-0.447-1-1-1
			c-0.161,0-0.308,0.047-0.442,0.115l-0.005-0.01l-2.005,1.003C50.943,1.638,48.165,0,45,0c-9.132,0-13.429,2.781-14.629,6.568
			C29.876,6.297,29.093,6,28,6s-1.876,0.297-2.371,0.568C24.429,2.781,20.132,0,11,0C7.835,0,5.057,1.638,3.452,4.108L1.447,3.105
			l-0.005,0.01C1.308,3.047,1.161,3,1,3C0.447,3,0,3.447,0,4C0,4.392,0.23,4.721,0.558,4.886z M47,26c-6,0-4-5-11-5c-4,0-4,2-8,2
			s-4-2-8-2c-7,0-5,5-11,5s-9-5-9-5c0,9,8,17,15,17c10,0,10-4,13-4s3,4,13,4c7,0,15-8,15-17C56,21,53,26,47,26z"/>
	</g>
</g>
<g>
</g>
<g>
</g>
<g>
</g>
<g>
</g>
<g>
</g>
<g>
</g>
<g>
</g>
<g>
</g>
<g>
</g>
<g>
</g>
<g>
</g>
<g>
</g>
<g>
</g>
<g>
</g>
<g>
</g>
</svg>
