<?xml version="1.0" encoding="iso-8859-1"?>
<!-- Generator: Adobe Illustrator 16.0.4, SVG Export Plug-In . SVG Version: 6.00 Build 0)  -->
<!DOCTYPE svg PUBLIC "-//W3C//DTD SVG 1.1//EN" "http://www.w3.org/Graphics/SVG/1.1/DTD/svg11.dtd">
<svg version="1.1" id="Layer_1" xmlns="http://www.w3.org/2000/svg" xmlns:xlink="http://www.w3.org/1999/xlink" x="0px" y="0px"
	 width="36px" height="56px" viewBox="0 0 36 56" style="enable-background:new 0 0 36 56;" xml:space="preserve">
<g id="_x38_18-flower-pot-selected_x40_2x.png">
	<g>
		<path d="M8.044,55.294l0.015-0.004C8.185,55.698,8.551,56,9,56h18c0.449,0,0.815-0.302,0.941-0.71l0.015,0.004L33.277,38H2.723
			L8.044,55.294z M36,29c0-0.552-0.447-1-1-1H19v-4.124c1.269-0.262,2.367-0.984,3.087-2.009c1.55,0.271,3.201-0.185,4.398-1.382
			c1.196-1.196,1.652-2.849,1.382-4.398C29.154,15.183,30,13.692,30,12s-0.846-3.183-2.133-4.087
			c0.271-1.55-0.186-3.201-1.382-4.398c-1.197-1.196-2.849-1.651-4.398-1.382C21.183,0.847,19.692,0,18,0s-3.183,0.847-4.087,2.133
			c-1.55-0.27-3.201,0.186-4.398,1.382C8.318,4.712,7.862,6.363,8.133,7.913C6.846,8.817,6,10.308,6,12s0.846,3.183,2.133,4.087
			c-0.271,1.55,0.186,3.202,1.382,4.398c1.197,1.197,2.849,1.652,4.398,1.382c0.72,1.024,1.818,1.747,3.087,2.009V28H1
			c-0.553,0-1,0.448-1,1c0,0.103,0.029,0.196,0.059,0.29l-0.015,0.005L2.107,36h31.785l2.063-6.705l-0.015-0.005
			C35.971,29.196,36,29.103,36,29z M14,12c0-2.209,1.791-4,4-4s4,1.791,4,4s-1.791,4-4,4S14,14.209,14,12z"/>
	</g>
</g>
<g>
</g>
<g>
</g>
<g>
</g>
<g>
</g>
<g>
</g>
<g>
</g>
<g>
</g>
<g>
</g>
<g>
</g>
<g>
</g>
<g>
</g>
<g>
</g>
<g>
</g>
<g>
</g>
<g>
</g>
</svg>
