<?xml version="1.0" encoding="iso-8859-1"?>
<!-- Generator: Adobe Illustrator 16.0.4, SVG Export Plug-In . SVG Version: 6.00 Build 0)  -->
<!DOCTYPE svg PUBLIC "-//W3C//DTD SVG 1.1//EN" "http://www.w3.org/Graphics/SVG/1.1/DTD/svg11.dtd">
<svg version="1.1" id="Layer_1" xmlns="http://www.w3.org/2000/svg" xmlns:xlink="http://www.w3.org/1999/xlink" x="0px" y="0px"
	 width="44px" height="56px" viewBox="0 0 44 56" style="enable-background:new 0 0 44 56;" xml:space="preserve">
<g id="_x38_19-washing-machine-selected_x40_2x.png">
	<g>
		<path d="M22,48c7.231,0,13.18-5.483,13.92-12.518c-1.693,0.84-4.4,1.931-6.981,1.931c-2.064,0-4.551-0.352-7.386-1.769
			c-6.105-3.053-11.643-0.446-13.365,0.541C9.239,42.877,15.014,48,22,48z M0,54c0,1.104,0.896,2,2,2h40c1.104,0,2-0.896,2-2V12H0
			V54z M22,18c8.837,0,16,7.164,16,16c0,8.837-7.163,16-16,16S6,42.837,6,34C6,25.164,13.163,18,22,18z M42,0H2C0.896,0,0,0.896,0,2
			v8h44V2C44,0.896,43.104,0,42,0z M28,8c-1.104,0-2-0.896-2-2s0.896-2,2-2s2,0.896,2,2S29.104,8,28,8z M36,8c-1.104,0-2-0.896-2-2
			s0.896-2,2-2s2,0.896,2,2S37.104,8,36,8z"/>
	</g>
</g>
<g>
</g>
<g>
</g>
<g>
</g>
<g>
</g>
<g>
</g>
<g>
</g>
<g>
</g>
<g>
</g>
<g>
</g>
<g>
</g>
<g>
</g>
<g>
</g>
<g>
</g>
<g>
</g>
<g>
</g>
</svg>
