<?xml version="1.0" encoding="iso-8859-1"?>
<!-- Generator: Adobe Illustrator 16.0.4, SVG Export Plug-In . SVG Version: 6.00 Build 0)  -->
<!DOCTYPE svg PUBLIC "-//W3C//DTD SVG 1.1//EN" "http://www.w3.org/Graphics/SVG/1.1/DTD/svg11.dtd">
<svg version="1.1" id="Layer_1" xmlns="http://www.w3.org/2000/svg" xmlns:xlink="http://www.w3.org/1999/xlink" x="0px" y="0px"
	 width="56.011px" height="56.011px" viewBox="0 0 56.011 56.011" style="enable-background:new 0 0 56.011 56.011;"
	 xml:space="preserve">
<g id="_x38_21-stamp-selected_x40_2x.png">
	<g>
		<path d="M49.733,11.841c-0.025-0.027-0.06-0.044-0.088-0.067l-12.07,12.07C37.838,24.512,38,25.234,38,26.011
			c0,7.467-11.102,12.496-12.031,13.834C25.04,38.507,14,33.502,14,26.011c0-3.448,2.834-6.012,6.426-6.012
			c2.37,0,4.406,1.283,5.543,3.102c0.962-1.539,2.617-2.686,4.539-3.005l13.73-13.729c-0.023-0.028-0.04-0.062-0.067-0.087
			c-0.89-1.363-2.42-2.269-4.171-2.269c-1.364,0-2.598,0.549-3.5,1.435C35.598,4.56,34.365,4.011,33,4.011s-2.598,0.549-3.5,1.435
			C28.598,4.56,27.365,4.011,26,4.011s-2.598,0.549-3.5,1.435C21.599,4.56,20.365,4.011,19,4.011s-2.598,0.549-3.5,1.435
			C14.599,4.56,13.365,4.011,12,4.011S9.402,4.56,8.5,5.446C8.499,5.444,8.497,5.443,8.495,5.441c-0.45-0.44-0.98-0.798-1.57-1.044
			C6.889,4.382,6.849,4.377,6.813,4.362C6.55,4.26,6.281,4.169,5.998,4.111c-0.234-0.048-0.48-0.06-0.725-0.073
			C5.181,4.033,5.093,4.011,5,4.011c-2.761,0-5,2.238-5,5c0,0.184,0.035,0.357,0.054,0.537C0.071,9.7,0.07,9.859,0.101,10.008
			c0.063,0.311,0.158,0.609,0.276,0.896c0.004,0.01,0.005,0.021,0.01,0.03c0.247,0.592,0.606,1.125,1.049,1.576
			C0.549,13.413,0,14.647,0,16.011c0,1.364,0.549,2.598,1.435,3.5C0.549,20.413,0,21.646,0,23.011s0.549,2.598,1.435,3.5
			C0.549,27.413,0,28.646,0,30.011s0.549,2.598,1.435,3.5C0.549,34.413,0,35.646,0,37.011s0.549,2.598,1.435,3.5
			C0.549,41.413,0,42.646,0,44.011s0.55,2.599,1.436,3.5c-0.885,0.902-1.435,2.136-1.435,3.5c0,2.762,2.238,5,5,5
			c1.364,0,2.598-0.55,3.5-1.436c0.902,0.886,2.136,1.436,3.5,1.436c1.364,0,2.598-0.55,3.5-1.436
			c0.902,0.886,2.136,1.436,3.5,1.436s2.598-0.55,3.5-1.436c0.902,0.886,2.136,1.436,3.5,1.436s2.598-0.55,3.5-1.436
			c0.902,0.886,2.136,1.436,3.5,1.436s2.598-0.55,3.5-1.436c0.902,0.886,2.136,1.436,3.5,1.436s2.598-0.55,3.5-1.436
			c0.902,0.886,2.136,1.436,3.5,1.436c2.762,0,5-2.239,5-5.001c0-1.363-0.55-2.598-1.436-3.499c0.886-0.902,1.436-2.136,1.436-3.5
			s-0.55-2.598-1.436-3.5c0.886-0.902,1.436-2.136,1.436-3.5s-0.55-2.598-1.436-3.5c0.886-0.902,1.436-2.136,1.436-3.5
			s-0.55-2.598-1.436-3.5c0.886-0.902,1.436-2.136,1.436-3.5s-0.55-2.598-1.436-3.5c0.886-0.902,1.436-2.136,1.436-3.5
			C52,14.261,51.095,12.731,49.733,11.841z M54.591,2.841l-1.42-1.421V0l-3.551,3.55v1.421L26.838,27.753l-1.42-1.42l-1.42,5.681
			l5.681-1.42l-1.42-1.42L51.041,6.391h1.42l3.551-3.55H54.591z"/>
	</g>
</g>
<g>
</g>
<g>
</g>
<g>
</g>
<g>
</g>
<g>
</g>
<g>
</g>
<g>
</g>
<g>
</g>
<g>
</g>
<g>
</g>
<g>
</g>
<g>
</g>
<g>
</g>
<g>
</g>
<g>
</g>
</svg>
