<?xml version="1.0" encoding="iso-8859-1"?>
<!-- Generator: Adobe Illustrator 16.0.4, SVG Export Plug-In . SVG Version: 6.00 Build 0)  -->
<!DOCTYPE svg PUBLIC "-//W3C//DTD SVG 1.1//EN" "http://www.w3.org/Graphics/SVG/1.1/DTD/svg11.dtd">
<svg version="1.1" id="Layer_1" xmlns="http://www.w3.org/2000/svg" xmlns:xlink="http://www.w3.org/1999/xlink" x="0px" y="0px"
	 width="56px" height="44px" viewBox="0 0 56 44" style="enable-background:new 0 0 56 44;" xml:space="preserve">
<g id="_x38_22-photo-2-selected_x40_2x.png">
	<g>
		<path d="M54,0H2C0.896,0,0,0.896,0,2v40c0,1.104,0.896,2,2,2h52c1.104,0,2-0.896,2-2V2C56,0.896,55.104,0,54,0z M49,38H7
			c-0.553,0-1-0.447-1-1c0-0.231,0.092-0.435,0.224-0.604l-0.013-0.011l14-18l0.013,0.011C20.406,18.161,20.679,18,21,18
			c0.276,0,0.526,0.112,0.707,0.293L31,27.586l5.293-5.293C36.474,22.112,36.724,22,37,22c0.304,0,0.566,0.143,0.75,0.357
			l0.01-0.008l11.999,14l-0.009,0.008C49.9,36.532,50,36.752,50,37C50,37.553,49.553,38,49,38z M46,14c-2.209,0-4-1.791-4-4
			s1.791-4,4-4s4,1.791,4,4S48.209,14,46,14z"/>
	</g>
</g>
<g>
</g>
<g>
</g>
<g>
</g>
<g>
</g>
<g>
</g>
<g>
</g>
<g>
</g>
<g>
</g>
<g>
</g>
<g>
</g>
<g>
</g>
<g>
</g>
<g>
</g>
<g>
</g>
<g>
</g>
</svg>
