<?xml version="1.0" encoding="iso-8859-1"?>
<!-- Generator: Adobe Illustrator 16.0.4, SVG Export Plug-In . SVG Version: 6.00 Build 0)  -->
<!DOCTYPE svg PUBLIC "-//W3C//DTD SVG 1.1//EN" "http://www.w3.org/Graphics/SVG/1.1/DTD/svg11.dtd">
<svg version="1.1" id="Layer_1" xmlns="http://www.w3.org/2000/svg" xmlns:xlink="http://www.w3.org/1999/xlink" x="0px" y="0px"
	 width="52px" height="56px" viewBox="0 0 52 56" style="enable-background:new 0 0 52 56;" xml:space="preserve">
<g id="_x38_23-birthday-cake-selected_x40_2x.png">
	<g>
		<path d="M26,11c2.209,0,4-1.791,4-4s-1-7-5-7c0,5-3,3-3,7C22,9.209,23.791,11,26,11z M20.463,16.988L22,16.576V28h8V14.433
			l2.055-0.551c0.533-0.144,0.85-0.691,0.707-1.225c-0.144-0.533-0.691-0.851-1.225-0.707l-11.592,3.105
			c-0.533,0.144-0.85,0.691-0.707,1.225C19.382,16.814,19.93,17.131,20.463,16.988z M48,40v-6c0-2.209-1.791-4-4-4H8
			c-2.209,0-4,1.791-4,4v6c0,0,12,2,22,2S47.999,40,48,40z M51,54h-3V42c-0.001,0-12,2-22,2S4,42,4,42v12H1c-0.553,0-1,0.448-1,1
			c0,0.553,0.447,1,1,1h50c0.553,0,1-0.447,1-1C52,54.448,51.553,54,51,54z"/>
	</g>
</g>
<g>
</g>
<g>
</g>
<g>
</g>
<g>
</g>
<g>
</g>
<g>
</g>
<g>
</g>
<g>
</g>
<g>
</g>
<g>
</g>
<g>
</g>
<g>
</g>
<g>
</g>
<g>
</g>
<g>
</g>
</svg>
