<?xml version="1.0" encoding="iso-8859-1"?>
<!-- Generator: Adobe Illustrator 16.0.4, SVG Export Plug-In . SVG Version: 6.00 Build 0)  -->
<!DOCTYPE svg PUBLIC "-//W3C//DTD SVG 1.1//EN" "http://www.w3.org/Graphics/SVG/1.1/DTD/svg11.dtd">
<svg version="1.1" id="Layer_1" xmlns="http://www.w3.org/2000/svg" xmlns:xlink="http://www.w3.org/1999/xlink" x="0px" y="0px"
	 width="56px" height="46px" viewBox="0 0 56 46" style="enable-background:new 0 0 56 46;" xml:space="preserve">
<g id="_x38_26-money-1-selected_x40_2x.png">
	<g>
		<path d="M14.891,14c-1.386,1.19-3.937,2-6.891,2c-2.953,0-5.505-0.81-6.891-2C0.423,14.591,0,15.268,0,16c0,2.209,3.582,4,8,4
			s8-1.791,8-4C16,15.268,15.578,14.591,14.891,14z M14.891,32c-1.386,1.19-3.937,2-6.891,2c-2.953,0-5.505-0.81-6.891-2
			C0.423,32.591,0,33.268,0,34c0,2.209,3.582,4,8,4s8-1.791,8-4C16,33.268,15.578,32.591,14.891,32z M14.891,8
			C13.505,9.19,10.954,10,8,10c-2.953,0-5.505-0.81-6.891-2C0.423,8.591,0,9.268,0,10c0,2.209,3.582,4,8,4s8-1.791,8-4
			C16,9.268,15.578,8.591,14.891,8z M14.891,20c-1.386,1.19-3.937,2-6.891,2c-2.953,0-5.505-0.81-6.891-2
			C0.423,20.591,0,21.268,0,22c0,2.209,3.582,4,8,4s8-1.791,8-4C16,21.268,15.578,20.591,14.891,20z M14.891,26
			c-1.386,1.19-3.937,2-6.891,2c-2.953,0-5.505-0.81-6.891-2C0.423,26.591,0,27.268,0,28c0,2.209,3.582,4,8,4s8-1.791,8-4
			C16,27.268,15.578,26.591,14.891,26z M32.891,40c-1.386,1.19-3.937,2-6.891,2c-2.953,0-5.505-0.81-6.891-2
			C18.422,40.591,18,41.268,18,42c0,2.209,3.582,4,8,4s8-1.791,8-4C34,41.268,33.578,40.591,32.891,40z M8,0C3.582,0,0,1.791,0,4
			s3.582,4,8,4s8-1.791,8-4S12.418,0,8,0z M32,14c-3.313,0-6,2.687-6,6s2.687,6,6,6s6-2.687,6-6S35.313,14,32,14z M52,4H19
			c-0.553,0-1,0.448-1,1v27.411C19.824,30.95,22.724,30,26,30c5.522,0,10,2.687,10,6h1h15c2.209,0,4-1.791,4-4V8
			C56,5.791,54.209,4,52,4z M32,28c-4.418,0-8-3.582-8-8s3.582-8,8-8s8,3.582,8,8S36.418,28,32,28z M48,30c-1.104,0-2-0.896-2-2
			s0.896-2,2-2s2,0.896,2,2S49.104,30,48,30z M48,14c-1.104,0-2-0.896-2-2s0.896-2,2-2s2,0.896,2,2S49.104,14,48,14z M26,32
			c-4.418,0-8,1.791-8,4s3.582,4,8,4s8-1.791,8-4S30.418,32,26,32z"/>
	</g>
</g>
<g>
</g>
<g>
</g>
<g>
</g>
<g>
</g>
<g>
</g>
<g>
</g>
<g>
</g>
<g>
</g>
<g>
</g>
<g>
</g>
<g>
</g>
<g>
</g>
<g>
</g>
<g>
</g>
<g>
</g>
</svg>
