<?xml version="1.0" encoding="iso-8859-1"?>
<!-- Generator: Adobe Illustrator 16.0.4, SVG Export Plug-In . SVG Version: 6.00 Build 0)  -->
<!DOCTYPE svg PUBLIC "-//W3C//DTD SVG 1.1//EN" "http://www.w3.org/Graphics/SVG/1.1/DTD/svg11.dtd">
<svg version="1.1" id="Layer_1" xmlns="http://www.w3.org/2000/svg" xmlns:xlink="http://www.w3.org/1999/xlink" x="0px" y="0px"
	 width="56px" height="40px" viewBox="0 0 56 40" style="enable-background:new 0 0 56 40;" xml:space="preserve">
<g id="_x38_27-money-2-selected_x40_2x.png">
	<g>
		<path d="M9,17c1.657,0,3-1.343,3-3s-1.343-3-3-3s-3,1.343-3,3S7.343,17,9,17z M0,28h22v-4.787C18.992,21.25,17,17.86,17,14
			c0-3.859,1.992-7.249,5-9.213V0H0V28z M9,9c2.762,0,5,2.238,5,5s-2.238,5-5,5s-5-2.238-5-5S6.238,9,9,9z M19,14
			c0,2.662,1.163,5.047,3,6.695V7.306C20.163,8.953,19,11.338,19,14z M37,14c0-2.662-1.163-5.047-3-6.694v13.39
			C35.837,19.047,37,16.662,37,14z M24,40h8v-2h-8V40z M0,36h22v-2H0V36z M0,32h22v-2H0V32z M0,40h22v-2H0V40z M34,32h22v-2H34V32z
			 M24,36h8v-2h-8V36z M47,11c-1.657,0-3,1.343-3,3s1.343,3,3,3s3-1.343,3-3S48.657,11,47,11z M34,0v4.787
			c3.008,1.964,5,5.354,5,9.213c0,3.86-1.992,7.25-5,9.213V28h22V0H34z M47,19c-2.762,0-5-2.238-5-5s2.238-5,5-5s5,2.238,5,5
			S49.762,19,47,19z M34,36h22v-2H34V36z M24,32h8v-2h-8V32z M24,28h8V0h-8V28z M34,40h22v-2H34V40z"/>
	</g>
</g>
<g>
</g>
<g>
</g>
<g>
</g>
<g>
</g>
<g>
</g>
<g>
</g>
<g>
</g>
<g>
</g>
<g>
</g>
<g>
</g>
<g>
</g>
<g>
</g>
<g>
</g>
<g>
</g>
<g>
</g>
</svg>
