<?xml version="1.0" encoding="iso-8859-1"?>
<!-- Generator: Adobe Illustrator 16.0.4, SVG Export Plug-In . SVG Version: 6.00 Build 0)  -->
<!DOCTYPE svg PUBLIC "-//W3C//DTD SVG 1.1//EN" "http://www.w3.org/Graphics/SVG/1.1/DTD/svg11.dtd">
<svg version="1.1" id="Layer_1" xmlns="http://www.w3.org/2000/svg" xmlns:xlink="http://www.w3.org/1999/xlink" x="0px" y="0px"
	 width="52px" height="56.017px" viewBox="0 0 52 56.017" style="enable-background:new 0 0 52 56.017;" xml:space="preserve">
<g id="_x38_28-shield-selected_x40_2x.png">
	<g>
		<path d="M26,18.84l-2,6.174h-6.812l5.431,3.819l-2.006,6.272L26,31.288l5.318,3.817l-1.937-6.272l5.431-3.819H28L26,18.84z
			 M51,8.204c-13.493,0-24.305-7.702-24.412-7.778L26,0l-0.588,0.426C25.305,0.502,14.493,8.204,1,8.204H0v10.957
			C0,46.67,23.894,56.017,26,56.017s26-9.347,26-36.855V8.204H51z M31.759,29.51l3.349,10.504L26,33.897l-9.107,6.116l3.349-10.504
			L11,22.994h11.451L26,12.357l3.549,10.637H41L31.759,29.51z"/>
	</g>
</g>
<g>
</g>
<g>
</g>
<g>
</g>
<g>
</g>
<g>
</g>
<g>
</g>
<g>
</g>
<g>
</g>
<g>
</g>
<g>
</g>
<g>
</g>
<g>
</g>
<g>
</g>
<g>
</g>
<g>
</g>
</svg>
