<?xml version="1.0" encoding="iso-8859-1"?>
<!-- Generator: Adobe Illustrator 16.0.4, SVG Export Plug-In . SVG Version: 6.00 Build 0)  -->
<!DOCTYPE svg PUBLIC "-//W3C//DTD SVG 1.1//EN" "http://www.w3.org/Graphics/SVG/1.1/DTD/svg11.dtd">
<svg version="1.1" id="Layer_1" xmlns="http://www.w3.org/2000/svg" xmlns:xlink="http://www.w3.org/1999/xlink" x="0px" y="0px"
	 width="55.109px" height="55.202px" viewBox="0 0 55.109 55.202" style="enable-background:new 0 0 55.109 55.202;"
	 xml:space="preserve">
<g id="_x38_33-diamond-selected_x40_2x.png">
	<g>
		<path d="M55.109,16L45.402,0.471l-0.015,0.009C45.211,0.198,44.912,0,44.555,0H30.14l9,16H55.109z M24.97,0H10.555
			c-0.357,0-0.656,0.198-0.833,0.479L9.707,0.471L0,16h15.97L24.97,0z M36.845,16l-9-16h-0.58l-9,16H36.845z M28.596,55.055
			l0.043,0.147L55.071,18H39.307L28.596,55.055z M17.885,18l9.67,33.453L37.225,18H17.885z M0.038,18l26.433,37.202l0.043-0.147
			L15.803,18H0.038z"/>
	</g>
</g>
<g>
</g>
<g>
</g>
<g>
</g>
<g>
</g>
<g>
</g>
<g>
</g>
<g>
</g>
<g>
</g>
<g>
</g>
<g>
</g>
<g>
</g>
<g>
</g>
<g>
</g>
<g>
</g>
<g>
</g>
</svg>
