<?xml version="1.0" encoding="iso-8859-1"?>
<!-- Generator: Adobe Illustrator 16.0.4, SVG Export Plug-In . SVG Version: 6.00 Build 0)  -->
<!DOCTYPE svg PUBLIC "-//W3C//DTD SVG 1.1//EN" "http://www.w3.org/Graphics/SVG/1.1/DTD/svg11.dtd">
<svg version="1.1" id="Layer_1" xmlns="http://www.w3.org/2000/svg" xmlns:xlink="http://www.w3.org/1999/xlink" x="0px" y="0px"
	 width="32px" height="55.989px" viewBox="0 0 32 55.989" style="enable-background:new 0 0 32 55.989;" xml:space="preserve">
<g id="_x38_35-screw-selected_x40_2x.png">
	<g>
		<path d="M10,36.423l12-7.2v-2.667l-12,7.199V36.423z M10,41.423l12-7.199v-2.668l-12,7.2V41.423z M11.327,45.627L22,39.223v-2.667
			l-11.506,6.903L11.327,45.627z M12.89,49.689l8.086-4.852l0.958-2.489l-0.006-0.002C21.971,42.235,22,42.116,22,41.989v-0.434
			l-9.943,5.966L12.89,49.689z M15.066,55.349l0.006-0.002c0.145,0.375,0.502,0.643,0.928,0.643s0.784-0.268,0.928-0.643
			l0.006,0.002l2.876-7.479l-6.19,3.714L15.066,55.349z M10,31.423l12-7.199v-2.668l-12,7.199V31.423z M17,0v1.989h-2V0
			C3.795,0.112,0,2.105,0,5.989c0,2,2,2,2,2h8v8.434l12-7.2V7.989h8c0,0,2,0,2-2C32,2.105,28.205,0.112,17,0z M10,21.423l12-7.199
			v-2.668l-12,7.199V21.423z M10,26.423l12-7.199v-2.668l-12,7.199V26.423z"/>
	</g>
</g>
<g>
</g>
<g>
</g>
<g>
</g>
<g>
</g>
<g>
</g>
<g>
</g>
<g>
</g>
<g>
</g>
<g>
</g>
<g>
</g>
<g>
</g>
<g>
</g>
<g>
</g>
<g>
</g>
<g>
</g>
</svg>
