<?xml version="1.0" encoding="iso-8859-1"?>
<!-- Generator: Adobe Illustrator 16.0.4, SVG Export Plug-In . SVG Version: 6.00 Build 0)  -->
<!DOCTYPE svg PUBLIC "-//W3C//DTD SVG 1.1//EN" "http://www.w3.org/Graphics/SVG/1.1/DTD/svg11.dtd">
<svg version="1.1" id="Layer_1" xmlns="http://www.w3.org/2000/svg" xmlns:xlink="http://www.w3.org/1999/xlink" x="0px" y="0px"
	 width="55.815px" height="55.842px" viewBox="0 0 55.815 55.842" style="enable-background:new 0 0 55.815 55.842;"
	 xml:space="preserve">
<g id="_x38_38-dice-selected_x40_2x.png">
	<g>
		<path d="M55.781,48.448l-2.872-21.812c-0.288-2.19-2.297-3.732-4.487-3.444l-10.718,1.411L33.711,5.438
			C34.473,4.894,34.974,4.008,34.974,3c0-1.656-1.343-3-3-3s-3,1.344-3,3c0,0.543,0.153,1.046,0.406,1.483l-8.859,15.304
			l-9.79-2.623c-2.134-0.572-4.327,0.694-4.898,2.828L0.138,41.243c-0.571,2.134,0.694,4.327,2.828,4.899l20.976,5.62l-2.758-20.949
			c-0.433-3.286,1.88-6.3,5.165-6.732l6.515-0.857c-0.275-0.15-0.565-0.28-0.882-0.365l-9.46-2.535l8.414-14.534
			c0.269,0.099,0.548,0.173,0.846,0.191l3.935,18.885l-9.105,1.199c-2.19,0.288-3.732,2.298-3.444,4.488l2.872,21.812
			c0.288,2.189,2.297,3.731,4.487,3.443l21.812-2.871C54.527,52.647,56.069,50.639,55.781,48.448z M20.371,35.276
			c-0.429,1.601-2.073,2.551-3.674,2.122c-1.601-0.43-2.55-2.074-2.121-3.675s2.073-2.55,3.674-2.121S20.8,33.676,20.371,35.276z
			 M44.247,29.794c1.644-0.216,3.15,0.94,3.366,2.583c0.217,1.643-0.939,3.149-2.583,3.366c-1.643,0.216-3.149-0.94-3.365-2.583
			C41.448,31.518,42.604,30.01,44.247,29.794z M29.768,34.727c-0.217-1.644,0.94-3.15,2.583-3.366
			c1.643-0.217,3.149,0.94,3.365,2.583c0.217,1.643-0.939,3.149-2.582,3.365C31.491,37.525,29.983,36.369,29.768,34.727z
			 M34.7,49.206c-1.644,0.217-3.15-0.939-3.366-2.583c-0.217-1.643,0.939-3.149,2.583-3.365c1.643-0.217,3.149,0.94,3.365,2.582
			C37.499,47.483,36.343,48.99,34.7,49.206z M39.865,42.475c-1.643,0.217-3.149-0.94-3.366-2.583
			c-0.216-1.643,0.94-3.149,2.583-3.366c1.643-0.216,3.149,0.94,3.366,2.583C42.664,40.751,41.508,42.259,39.865,42.475z
			 M46.597,47.64c-1.643,0.217-3.149-0.939-3.365-2.583c-0.217-1.643,0.939-3.149,2.582-3.365s3.15,0.939,3.366,2.583
			C49.396,45.917,48.239,47.424,46.597,47.64z"/>
	</g>
</g>
<g>
</g>
<g>
</g>
<g>
</g>
<g>
</g>
<g>
</g>
<g>
</g>
<g>
</g>
<g>
</g>
<g>
</g>
<g>
</g>
<g>
</g>
<g>
</g>
<g>
</g>
<g>
</g>
<g>
</g>
</svg>
