<?xml version="1.0" encoding="iso-8859-1"?>
<!-- Generator: Adobe Illustrator 16.0.4, SVG Export Plug-In . SVG Version: 6.00 Build 0)  -->
<!DOCTYPE svg PUBLIC "-//W3C//DTD SVG 1.1//EN" "http://www.w3.org/Graphics/SVG/1.1/DTD/svg11.dtd">
<svg version="1.1" id="Layer_1" xmlns="http://www.w3.org/2000/svg" xmlns:xlink="http://www.w3.org/1999/xlink" x="0px" y="0px"
	 width="38px" height="56px" viewBox="0 0 38 56" style="enable-background:new 0 0 38 56;" xml:space="preserve">
<g id="_x38_39-mobile-phone-selected_x40_2x.png">
	<g>
		<path d="M8,48h2v-2H8V48z M8,38h2v-2H8V38z M28,38h2v-2h-2V38z M8,28h22V14H8V28z M18,48h2v-2h-2V48z M34,0H4C1.791,0,0,1.791,0,4
			v48c0,2.209,1.791,4,4,4h30c2.209,0,4-1.791,4-4V4C38,1.791,36.209,0,34,0z M14,6h10c0.553,0,1,0.448,1,1c0,0.553-0.447,1-1,1H14
			c-0.553,0-1-0.447-1-1C13,6.448,13.447,6,14,6z M12,48c0,1.104-0.896,2-2,2H8c-1.104,0-2-0.896-2-2v-2c0-1.104,0.896-2,2-2h2
			c1.104,0,2,0.896,2,2V48z M12,38c0,1.104-0.896,2-2,2H8c-1.104,0-2-0.896-2-2v-2c0-1.104,0.896-2,2-2h2c1.104,0,2,0.896,2,2V38z
			 M22,48c0,1.104-0.896,2-2,2h-2c-1.104,0-2-0.896-2-2v-2c0-1.104,0.896-2,2-2h2c1.104,0,2,0.896,2,2V48z M22,38
			c0,1.104-0.896,2-2,2h-2c-1.104,0-2-0.896-2-2v-2c0-1.104,0.896-2,2-2h2c1.104,0,2,0.896,2,2V38z M32,48c0,1.104-0.896,2-2,2h-2
			c-1.104,0-2-0.896-2-2v-2c0-1.104,0.896-2,2-2h2c1.104,0,2,0.896,2,2V48z M32,38c0,1.104-0.896,2-2,2h-2c-1.104,0-2-0.896-2-2v-2
			c0-1.104,0.896-2,2-2h2c1.104,0,2,0.896,2,2V38z M32,28c0,1.104-0.896,2-2,2H8c-1.104,0-2-0.896-2-2V14c0-1.104,0.896-2,2-2h22
			c1.104,0,2,0.896,2,2V28z M28,48h2v-2h-2V48z M18,38h2v-2h-2V38z"/>
	</g>
</g>
<g>
</g>
<g>
</g>
<g>
</g>
<g>
</g>
<g>
</g>
<g>
</g>
<g>
</g>
<g>
</g>
<g>
</g>
<g>
</g>
<g>
</g>
<g>
</g>
<g>
</g>
<g>
</g>
<g>
</g>
</svg>
