<?xml version="1.0" encoding="iso-8859-1"?>
<!-- Generator: Adobe Illustrator 16.0.4, SVG Export Plug-In . SVG Version: 6.00 Build 0)  -->
<!DOCTYPE svg PUBLIC "-//W3C//DTD SVG 1.1//EN" "http://www.w3.org/Graphics/SVG/1.1/DTD/svg11.dtd">
<svg version="1.1" id="Layer_1" xmlns="http://www.w3.org/2000/svg" xmlns:xlink="http://www.w3.org/1999/xlink" x="0px" y="0px"
	 width="52px" height="56px" viewBox="0 0 52 56" style="enable-background:new 0 0 52 56;" xml:space="preserve">
<g id="_x38_40-stopwatch-2-selected_x40_2x.png">
	<g>
		<path d="M29,4.187V2h1c0.553,0,1-0.447,1-1s-0.447-1-1-1h-8c-0.553,0-1,0.447-1,1s0.447,1,1,1h1v2.187
			C18.07,4.754,13.567,6.7,9.872,9.63l-1.06-1.06c-0.781-0.781-2.047-0.781-2.828,0L4.57,9.984c-0.781,0.781-0.781,2.047,0,2.828
			l1.06,1.061C2.114,18.307,0,23.902,0,30c0,14.359,11.641,26,26,26s26-11.641,26-26C52,16.657,41.944,5.676,29,4.187z M7,30
			c-0.553,0-1-0.447-1-1s0.447-1,1-1s1,0.447,1,1S7.553,30,7,30z M10.046,40.366C9.567,40.643,8.956,40.479,8.68,40
			s-0.112-1.09,0.366-1.365c0.478-0.276,1.09-0.113,1.365,0.365C10.688,39.479,10.523,40.09,10.046,40.366z M10.411,21
			c-0.275,0.479-0.888,0.643-1.365,0.366C8.567,21.09,8.403,20.479,8.68,20s0.888-0.642,1.366-0.366
			C10.523,19.91,10.688,20.521,10.411,21z M17.366,46.955C17.09,47.433,16.479,47.597,16,47.32
			c-0.479-0.275-0.643-0.887-0.366-1.365s0.888-0.643,1.366-0.366C17.479,45.864,17.643,46.477,17.366,46.955z M17,14.412
			c-0.479,0.275-1.09,0.111-1.366-0.366c-0.276-0.479-0.112-1.09,0.366-1.366s1.09-0.112,1.366,0.366
			C17.643,13.523,17.479,14.136,17,14.412z M34.634,13.046c0.276-0.479,0.888-0.643,1.366-0.366s0.643,0.888,0.366,1.366
			c-0.276,0.478-0.888,0.642-1.366,0.366C34.521,14.136,34.357,13.523,34.634,13.046z M26,10c0.553,0,1,0.447,1,1s-0.447,1-1,1
			s-1-0.447-1-1S25.447,10,26,10z M26,50c-0.553,0-1-0.447-1-1s0.447-1,1-1s1,0.447,1,1S26.553,50,26,50z M36,47.32
			c-0.479,0.276-1.09,0.112-1.366-0.365c-0.276-0.479-0.112-1.091,0.366-1.366c0.479-0.276,1.09-0.112,1.366,0.366
			S36.479,47.045,36,47.32z M38.728,18.687L27.926,29.488C27.97,29.652,28,29.822,28,30c0,1.104-0.896,2-2,2s-2-0.896-2-2
			s0.896-2,2-2c0.178,0,0.348,0.031,0.512,0.074l10.802-10.802c0.391-0.391,1.024-0.391,1.414,0
			C39.118,17.662,39.118,18.296,38.728,18.687z M43.32,40c-0.276,0.479-0.888,0.643-1.366,0.366
			c-0.478-0.276-0.642-0.888-0.365-1.366c0.275-0.479,0.888-0.642,1.365-0.365C43.433,38.91,43.597,39.521,43.32,40z M42.954,21.366
			c-0.478,0.276-1.09,0.112-1.365-0.366c-0.276-0.479-0.112-1.09,0.365-1.366c0.479-0.275,1.09-0.112,1.366,0.366
			S43.433,21.09,42.954,21.366z M45,31c-0.553,0-1-0.447-1-1s0.447-1,1-1s1,0.447,1,1S45.553,31,45,31z"/>
	</g>
</g>
<g>
</g>
<g>
</g>
<g>
</g>
<g>
</g>
<g>
</g>
<g>
</g>
<g>
</g>
<g>
</g>
<g>
</g>
<g>
</g>
<g>
</g>
<g>
</g>
<g>
</g>
<g>
</g>
<g>
</g>
</svg>
