<?xml version="1.0" encoding="iso-8859-1"?>
<!-- Generator: Adobe Illustrator 16.0.4, SVG Export Plug-In . SVG Version: 6.00 Build 0)  -->
<!DOCTYPE svg PUBLIC "-//W3C//DTD SVG 1.1//EN" "http://www.w3.org/Graphics/SVG/1.1/DTD/svg11.dtd">
<svg version="1.1" id="Layer_1" xmlns="http://www.w3.org/2000/svg" xmlns:xlink="http://www.w3.org/1999/xlink" x="0px" y="0px"
	 width="56px" height="56px" viewBox="0 0 56 56" style="enable-background:new 0 0 56 56;" xml:space="preserve">
<g id="_x38_41-music-playlist-selected_x40_2x.png">
	<g>
		<path d="M23,10h-3v14.613C19.163,24.233,18.131,24,17,24c-2.761,0-5,1.343-5,3s2.239,3,5,3s5-1.343,5-3v-8h0l0-3.888V12h1
			c2.897,0,4.953,0.664,6.348,1.41C28.562,11.786,26.827,10,23,10z M40,38V2c0-1.104-0.896-2-2-2H2C0.896,0,0,0.896,0,2v36
			c0,1.104,0.896,2,2,2h36C39.104,40,40,39.104,40,38z M24,14.03V27c0,2.762-3.134,5-7,5s-7-2.238-7-5s3.134-5,7-5
			c0.343,0,0.67,0.038,1,0.072V21h0V10c0-0.97,0.701-2,2-2H23c4.612,0,6.825,2.178,7.869,4.004C31.741,13.531,32,17,32,17
			S29.388,14.561,24,14.03z M54,16h-4v30c0,2.209-1.791,4-4,4H16v4c0,1.104,0.896,2,2,2h36c1.104,0,2-0.896,2-2V18
			C56,16.896,55.104,16,54,16z M48,46V10c0-1.104-0.896-2-2-2h-4v30c0,2.209-1.791,4-4,4H8v4c0,1.104,0.896,2,2,2h36
			C47.104,48,48,47.104,48,46z"/>
	</g>
</g>
<g>
</g>
<g>
</g>
<g>
</g>
<g>
</g>
<g>
</g>
<g>
</g>
<g>
</g>
<g>
</g>
<g>
</g>
<g>
</g>
<g>
</g>
<g>
</g>
<g>
</g>
<g>
</g>
<g>
</g>
</svg>
