<?xml version="1.0" encoding="iso-8859-1"?>
<!-- Generator: Adobe Illustrator 16.0.4, SVG Export Plug-In . SVG Version: 6.00 Build 0)  -->
<!DOCTYPE svg PUBLIC "-//W3C//DTD SVG 1.1//EN" "http://www.w3.org/Graphics/SVG/1.1/DTD/svg11.dtd">
<svg version="1.1" id="Layer_1" xmlns="http://www.w3.org/2000/svg" xmlns:xlink="http://www.w3.org/1999/xlink" x="0px" y="0px"
	 width="56px" height="48.005px" viewBox="0 0 56 48.005" style="enable-background:new 0 0 56 48.005;" xml:space="preserve">
<g id="_x38_42-chat-bubbles-selected_x40_2x.png">
	<g>
		<path d="M36.469,10.312C33.565,4.249,26.839,0,19,0C8.507,0,0,7.611,0,17c0,4.186,1.697,8.012,4.501,10.974
			c-1.278,7.035,0.261,14,0.261,14c2.662-5.228,5.879-7.65,8.66-8.722C15.187,33.736,17.059,34,19,34
			c1.747,0,3.432-0.229,5.039-0.623C22.743,31.167,22,28.661,22,25.997C22,18.237,28.219,11.771,36.469,10.312z M56,25.998
			C56,18.267,48.837,12,40,12s-16,6.267-16,13.998c0,7.73,7.163,13.997,16,13.997c1.188,0,2.341-0.121,3.454-0.336
			c2.565,1.226,5.397,3.654,7.784,8.346c0,0,1.33-6.015,0.495-12.513C54.373,32.996,56,29.667,56,25.998z"/>
	</g>
</g>
<g>
</g>
<g>
</g>
<g>
</g>
<g>
</g>
<g>
</g>
<g>
</g>
<g>
</g>
<g>
</g>
<g>
</g>
<g>
</g>
<g>
</g>
<g>
</g>
<g>
</g>
<g>
</g>
<g>
</g>
</svg>
