<?xml version="1.0" encoding="iso-8859-1"?>
<!-- Generator: Adobe Illustrator 16.0.4, SVG Export Plug-In . SVG Version: 6.00 Build 0)  -->
<!DOCTYPE svg PUBLIC "-//W3C//DTD SVG 1.1//EN" "http://www.w3.org/Graphics/SVG/1.1/DTD/svg11.dtd">
<svg version="1.1" id="Layer_1" xmlns="http://www.w3.org/2000/svg" xmlns:xlink="http://www.w3.org/1999/xlink" x="0px" y="0px"
	 width="56px" height="56px" viewBox="0 0 56 56" style="enable-background:new 0 0 56 56;" xml:space="preserve">
<g id="_x38_45-location-target-selected_x40_2x.png">
	<g>
		<path d="M46,28c0-0.552,0.447-1,1-1h4.949C51.436,14.547,41.452,4.564,29,4.049V1c0-0.553-0.447-1-1-1s-1,0.447-1,1v3.049
			C14.548,4.564,4.564,14.547,4.051,27H9c0.553,0,1,0.448,1,1c0,0.553-0.447,1-1,1H4.051C4.565,41.453,14.548,51.436,27,51.951V55
			c0,0.553,0.447,1,1,1s1-0.447,1-1v-3.049C41.452,51.436,51.436,41.453,51.949,29H47C46.447,29,46,28.553,46,28z M27,4.051
			C27.334,4.037,27.662,4,28,4s0.666,0.037,1,0.051V9c0,0.553-0.447,1-1,1s-1-0.447-1-1V4.051z M29,51.949
			C28.666,51.964,28.338,52,28,52s-0.666-0.036-1-0.051V47c0-0.552,0.447-1,1-1s1,0.448,1,1V51.949z M28,34c-3.313,0-6-2.686-6-6
			c0-3.313,2.687-6,6-6s6,2.687,6,6C34,31.314,31.313,34,28,34z M28,24c-2.209,0-4,1.791-4,4s1.791,4,4,4s4-1.791,4-4
			S30.209,24,28,24z M4.051,27H1c-0.553,0-1,0.448-1,1c0,0.553,0.447,1,1,1h3.051C4.037,28.666,4,28.338,4,28S4.037,27.334,4.051,27
			z M55,27h-3.051C51.963,27.334,52,27.662,52,28s-0.037,0.666-0.051,1H55c0.553,0,1-0.447,1-1C56,27.448,55.553,27,55,27z"/>
	</g>
</g>
<g>
</g>
<g>
</g>
<g>
</g>
<g>
</g>
<g>
</g>
<g>
</g>
<g>
</g>
<g>
</g>
<g>
</g>
<g>
</g>
<g>
</g>
<g>
</g>
<g>
</g>
<g>
</g>
<g>
</g>
</svg>
