<?xml version="1.0" encoding="iso-8859-1"?>
<!-- Generator: Adobe Illustrator 16.0.4, SVG Export Plug-In . SVG Version: 6.00 Build 0)  -->
<!DOCTYPE svg PUBLIC "-//W3C//DTD SVG 1.1//EN" "http://www.w3.org/Graphics/SVG/1.1/DTD/svg11.dtd">
<svg version="1.1" id="Layer_1" xmlns="http://www.w3.org/2000/svg" xmlns:xlink="http://www.w3.org/1999/xlink" x="0px" y="0px"
	 width="56px" height="56px" viewBox="0 0 56 56" style="enable-background:new 0 0 56 56;" xml:space="preserve">
<g id="_x38_46-sun-1-selected_x40_2x.png">
	<g>
		<path d="M56,28.016c0-0.335-0.176-0.617-0.43-0.799l0.011-0.016l-6.375-4.556l2.73-7.286l-0.007-0.002
			c0.041-0.109,0.07-0.226,0.07-0.349c0-0.468-0.328-0.844-0.762-0.952l0.004-0.019l-7.418-1.855L41.97,4.76l-0.018,0.005
			C41.843,4.331,41.468,4.002,41,4.002c-0.124,0-0.239,0.029-0.349,0.071l-0.003-0.007l-7.281,2.731l-4.554-6.379L28.799,0.43
			C28.617,0.176,28.335,0,28,0s-0.617,0.176-0.799,0.43l-0.015-0.011l-4.554,6.379l-7.281-2.731l-0.003,0.006
			c-0.109-0.041-0.225-0.07-0.349-0.07c-0.468,0-0.843,0.329-0.952,0.763L14.03,4.76l-1.854,7.423l-7.418,1.855l0.004,0.019
			C4.328,14.165,4,14.541,4,15.009c0,0.123,0.029,0.239,0.07,0.349l-0.007,0.002l2.73,7.286l-6.375,4.556l0.011,0.016
			C0.176,27.398,0,27.681,0,28.016c0,0.336,0.176,0.618,0.43,0.8L0.419,28.83l6.375,4.557l-2.73,7.285l0.029,0.011
			c-0.036,0.104-0.065,0.21-0.065,0.325c0,0.46,0.317,0.831,0.74,0.947l-0.01,0.039l7.418,1.855l1.854,7.422l0.038-0.01
			c0.116,0.424,0.486,0.74,0.946,0.74c0.115,0,0.223-0.029,0.325-0.065l0.012,0.029l7.281-2.732l4.554,6.379l0.029-0.021
			C27.397,55.834,27.674,56,28,56s0.603-0.166,0.784-0.408l0.029,0.021l4.554-6.379l7.281,2.732l0.012-0.029
			c0.103,0.036,0.21,0.065,0.325,0.065c0.46,0,0.83-0.316,0.946-0.74l0.038,0.01l1.854-7.422l7.418-1.855l-0.009-0.039
			c0.423-0.116,0.739-0.487,0.739-0.947c0-0.115-0.029-0.222-0.065-0.325l0.029-0.011l-2.73-7.285l6.375-4.557l-0.011-0.015
			C55.824,28.634,56,28.352,56,28.016z M27.5,39.991c-6.903,0-12.5-5.593-12.5-12.491s5.597-12.491,12.5-12.491S40,20.602,40,27.5
			S34.403,39.991,27.5,39.991z"/>
	</g>
</g>
<g>
</g>
<g>
</g>
<g>
</g>
<g>
</g>
<g>
</g>
<g>
</g>
<g>
</g>
<g>
</g>
<g>
</g>
<g>
</g>
<g>
</g>
<g>
</g>
<g>
</g>
<g>
</g>
<g>
</g>
</svg>
