<?xml version="1.0" encoding="iso-8859-1"?>
<!-- Generator: Adobe Illustrator 16.0.4, SVG Export Plug-In . SVG Version: 6.00 Build 0)  -->
<!DOCTYPE svg PUBLIC "-//W3C//DTD SVG 1.1//EN" "http://www.w3.org/Graphics/SVG/1.1/DTD/svg11.dtd">
<svg version="1.1" id="Layer_1" xmlns="http://www.w3.org/2000/svg" xmlns:xlink="http://www.w3.org/1999/xlink" x="0px" y="0px"
	 width="48px" height="56px" viewBox="0 0 48 56" style="enable-background:new 0 0 48 56;" xml:space="preserve">
<g id="_x38_50-calculator-selected_x40_2x.png">
	<g>
		<path d="M8,48h2v-2H8V48z M8,38h2v-2H8V38z M18,48h2v-2h-2V48z M8,28h2v-2H8V28z M18,38h2v-2h-2V38z M38,28h2v-2h-2V28z M18,28h2
			v-2h-2V28z M38,48h2V36h-2V48z M44,0H4C1.791,0,0,1.791,0,4v48c0,2.209,1.791,4,4,4h40c2.209,0,4-1.791,4-4V4
			C48,1.791,46.209,0,44,0z M12,48c0,1.104-0.896,2-2,2H8c-1.104,0-2-0.896-2-2v-2c0-1.104,0.896-2,2-2h2c1.104,0,2,0.896,2,2V48z
			 M12,38c0,1.104-0.896,2-2,2H8c-1.104,0-2-0.896-2-2v-2c0-1.104,0.896-2,2-2h2c1.104,0,2,0.896,2,2V38z M12,28
			c0,1.104-0.896,2-2,2H8c-1.104,0-2-0.896-2-2v-2c0-1.104,0.896-2,2-2h2c1.104,0,2,0.896,2,2V28z M22,48c0,1.104-0.896,2-2,2h-2
			c-1.104,0-2-0.896-2-2v-2c0-1.104,0.896-2,2-2h2c1.104,0,2,0.896,2,2V48z M22,38c0,1.104-0.896,2-2,2h-2c-1.104,0-2-0.896-2-2v-2
			c0-1.104,0.896-2,2-2h2c1.104,0,2,0.896,2,2V38z M22,28c0,1.104-0.896,2-2,2h-2c-1.104,0-2-0.896-2-2v-2c0-1.104,0.896-2,2-2h2
			c1.104,0,2,0.896,2,2V28z M32,48c0,1.104-0.896,2-2,2h-2c-1.104,0-2-0.896-2-2v-2c0-1.104,0.896-2,2-2h2c1.104,0,2,0.896,2,2V48z
			 M32,38c0,1.104-0.896,2-2,2h-2c-1.104,0-2-0.896-2-2v-2c0-1.104,0.896-2,2-2h2c1.104,0,2,0.896,2,2V38z M32,28
			c0,1.104-0.896,2-2,2h-2c-1.104,0-2-0.896-2-2v-2c0-1.104,0.896-2,2-2h2c1.104,0,2,0.896,2,2V28z M42,37v1v8v1v1
			c0,1.104-0.896,2-2,2h-2c-1.104,0-2-0.896-2-2v-1v-1v-8v-1v-1c0-1.104,0.896-2,2-2h2c1.104,0,2,0.896,2,2V37z M42,28
			c0,1.104-0.896,2-2,2h-2c-1.104,0-2-0.896-2-2v-2c0-1.104,0.896-2,2-2h2c1.104,0,2,0.896,2,2V28z M42,18c0,1.104-0.896,2-2,2H8
			c-1.104,0-2-0.896-2-2V8c0-1.104,0.896-2,2-2h32c1.104,0,2,0.896,2,2V18z M8,18h32V8H8V18z M28,48h2v-2h-2V48z M28,28h2v-2h-2V28z
			 M28,38h2v-2h-2V38z"/>
	</g>
</g>
<g>
</g>
<g>
</g>
<g>
</g>
<g>
</g>
<g>
</g>
<g>
</g>
<g>
</g>
<g>
</g>
<g>
</g>
<g>
</g>
<g>
</g>
<g>
</g>
<g>
</g>
<g>
</g>
<g>
</g>
</svg>
