<?xml version="1.0" encoding="iso-8859-1"?>
<!-- Generator: Adobe Illustrator 16.0.4, SVG Export Plug-In . SVG Version: 6.00 Build 0)  -->
<!DOCTYPE svg PUBLIC "-//W3C//DTD SVG 1.1//EN" "http://www.w3.org/Graphics/SVG/1.1/DTD/svg11.dtd">
<svg version="1.1" id="Layer_1" xmlns="http://www.w3.org/2000/svg" xmlns:xlink="http://www.w3.org/1999/xlink" x="0px" y="0px"
	 width="56px" height="56px" viewBox="0 0 56 56" style="enable-background:new 0 0 56 56;" xml:space="preserve">
<g id="_x38_51-calendar-selected_x40_2x.png">
	<g>
		<path d="M44,24h4v-4h-4V24z M32,24h4v-4h-4V24z M47,6V0h-2v6H11V0H9v6H0v6h56V6H47z M0,56h56V14H0V56z M42,18h8v8h-8V18z M42,30h8
			v8h-8V30z M30,18h8v8h-8V18z M30,30h8v8h-8V30z M30,42h8v8h-8V42z M18,18h8v8h-8V18z M18,30h8v8h-8V30z M18,42h8v8h-8V42z M6,30h8
			v8H6V30z M6,42h8v8H6V42z M44,36h4v-4h-4V36z M32,36h4v-4h-4V36z M20,36h4v-4h-4V36z M20,48h4v-4h-4V48z M20,24h4v-4h-4V24z M8,36
			h4v-4H8V36z M8,48h4v-4H8V48z M32,48h4v-4h-4V48z"/>
	</g>
</g>
<g>
</g>
<g>
</g>
<g>
</g>
<g>
</g>
<g>
</g>
<g>
</g>
<g>
</g>
<g>
</g>
<g>
</g>
<g>
</g>
<g>
</g>
<g>
</g>
<g>
</g>
<g>
</g>
<g>
</g>
</svg>
