<?xml version="1.0" encoding="iso-8859-1"?>
<!-- Generator: Adobe Illustrator 16.0.4, SVG Export Plug-In . SVG Version: 6.00 Build 0)  -->
<!DOCTYPE svg PUBLIC "-//W3C//DTD SVG 1.1//EN" "http://www.w3.org/Graphics/SVG/1.1/DTD/svg11.dtd">
<svg version="1.1" id="Layer_1" xmlns="http://www.w3.org/2000/svg" xmlns:xlink="http://www.w3.org/1999/xlink" x="0px" y="0px"
	 width="56px" height="48px" viewBox="0 0 56 48" style="enable-background:new 0 0 56 48;" xml:space="preserve">
<g id="_x38_52-map-selected_x40_2x.png">
	<g>
		<path d="M38,4v28.25c0.329-0.428,0.938-0.52,1.377-0.202c0.551,0.401,1.063,0.726,1.567,0.992
			c0.488,0.258,0.675,0.863,0.417,1.353c-0.179,0.34-0.525,0.533-0.885,0.533c-0.157,0-0.317-0.037-0.466-0.115
			c-0.59-0.312-1.183-0.687-1.812-1.145c-0.083-0.061-0.141-0.14-0.199-0.218V48l18-4V0L38,4z M42.436,17.535l1.548-3.475
			l-3.213-1.071c-0.523-0.174-0.807-0.741-0.632-1.266c0.174-0.524,0.739-0.81,1.265-0.633l3.398,1.134l1.111-2.491
			c0.224-0.506,0.815-0.733,1.32-0.507c0.504,0.225,0.73,0.817,0.506,1.321l-1.031,2.313l2.695,0.898
			c0.524,0.175,0.808,0.741,0.633,1.266c-0.14,0.42-0.53,0.685-0.949,0.685c-0.104,0-0.211-0.017-0.316-0.052l-2.881-0.961
			l-1.628,3.652c-0.166,0.373-0.531,0.594-0.914,0.594c-0.136,0-0.274-0.027-0.406-0.087C42.437,18.632,42.21,18.039,42.436,17.535z
			 M46.509,35.795c-0.181,0.042-0.368,0.077-0.562,0.105c-0.459,0.065-0.92,0.099-1.372,0.099l-0.312-0.007
			c-0.553-0.017-0.986-0.479-0.969-1.031c0.018-0.552,0.484-0.997,1.031-0.969l0.26,0.005c0.348,0,0.714-0.026,1.079-0.079
			c0.133-0.019,0.262-0.041,0.386-0.072c0.536-0.121,1.076,0.206,1.203,0.744S47.047,35.667,46.509,35.795z M47.46,21.125
			c-0.251-0.605-0.523-1.185-0.811-1.722c-0.26-0.487-0.076-1.093,0.41-1.354c0.488-0.26,1.093-0.077,1.354,0.411
			c0.317,0.594,0.618,1.233,0.895,1.899c0.211,0.511-0.031,1.097-0.541,1.308c-0.125,0.052-0.255,0.076-0.383,0.076
			C47.991,21.743,47.619,21.511,47.46,21.125z M50.191,32.859c-0.175,0.351-0.528,0.554-0.896,0.554
			c-0.15,0-0.302-0.033-0.445-0.104c-0.494-0.247-0.695-0.848-0.449-1.343c0.231-0.464,0.405-1.014,0.518-1.632
			c0.098-0.545,0.618-0.903,1.161-0.808c0.544,0.099,0.905,0.62,0.807,1.163C50.741,31.495,50.508,32.225,50.191,32.859z
			 M50.062,27.518c-0.042,0.006-0.083,0.008-0.125,0.008c-0.497,0-0.928-0.371-0.99-0.878c-0.075-0.602-0.187-1.232-0.33-1.874
			c-0.121-0.539,0.218-1.074,0.757-1.195c0.537-0.122,1.073,0.217,1.194,0.758c0.158,0.703,0.28,1.398,0.363,2.065
			C51,26.95,50.61,27.449,50.062,27.518z M0,48l18-4V0L0,4V48z M16.636,34.039c-0.009,0.548-0.454,0.985-0.999,0.985
			c-0.006,0-0.011,0-0.017,0c-0.928-0.015-1.744-0.241-2.425-0.675c-0.466-0.297-0.604-0.915-0.308-1.381
			c0.296-0.467,0.914-0.604,1.381-0.309c0.364,0.232,0.83,0.354,1.383,0.363S16.645,33.487,16.636,34.039z M13.812,24.071
			c0.095-0.339,0.136-0.636,0.136-0.935c0.001-0.189-0.016-0.376-0.049-0.559c-0.099-0.544,0.262-1.064,0.805-1.164
			c0.547-0.095,1.063,0.263,1.163,0.806c0.055,0.302,0.082,0.611,0.081,0.919c0,0.479-0.065,0.957-0.195,1.421l-0.037,0.126
			c-0.137,0.424-0.529,0.693-0.951,0.693c-0.102,0-0.205-0.016-0.308-0.048C13.932,25.162,13.644,24.598,13.812,24.071z
			 M14.168,28.445c-0.271,0.692-0.46,1.271-0.578,1.77c-0.109,0.459-0.52,0.769-0.973,0.769c-0.076,0-0.154-0.009-0.232-0.027
			c-0.537-0.127-0.869-0.667-0.741-1.204c0.141-0.591,0.357-1.257,0.663-2.037c0.201-0.515,0.781-0.766,1.296-0.565
			C14.117,27.351,14.37,27.932,14.168,28.445z M9.973,19.015l0.168-0.062c0.815-0.272,1.604-0.347,2.304-0.243
			c0.546,0.082,0.923,0.591,0.842,1.138c-0.082,0.546-0.598,0.915-1.137,0.842c-0.403-0.062-0.866-0.009-1.362,0.157l-0.093,0.034
			c-0.118,0.047-0.24,0.067-0.36,0.067c-0.401,0-0.779-0.242-0.933-0.639C9.202,19.793,9.458,19.214,9.973,19.015z M5.226,23.676
			c0.267-0.593,0.692-1.251,1.232-1.902c0.353-0.427,0.984-0.484,1.408-0.132c0.425,0.352,0.484,0.983,0.132,1.408
			c-0.42,0.507-0.757,1.021-0.946,1.445c-0.167,0.371-0.531,0.591-0.914,0.591c-0.137,0-0.275-0.028-0.408-0.088
			C5.226,24.772,5,24.18,5.226,23.676z M20,31.563c0.196-0.126,0.39-0.255,0.576-0.396c0.441-0.329,1.068-0.24,1.399,0.202
			s0.241,1.069-0.2,1.401c-0.269,0.2-0.544,0.391-0.83,0.568c-0.278,0.173-0.603,0.351-0.945,0.522V44l16,4V31.199
			c-0.101,0.034-0.203,0.067-0.308,0.067c-0.225,0-0.448-0.081-0.633-0.247c-0.53-0.48-1-0.906-1.476-1.317
			c-0.418-0.361-0.464-0.992-0.104-1.411c0.361-0.418,0.991-0.464,1.411-0.104c0.372,0.322,0.74,0.656,1.108,0.988V4L20,0V31.563z
			 M29.05,25.174c0.002,0,0.005,0,0.008,0c0.754,0.006,1.54,0.195,2.337,0.562c0.502,0.231,0.722,0.825,0.491,1.327
			c-0.168,0.367-0.53,0.583-0.909,0.583c-0.14,0-0.281-0.029-0.417-0.091c-0.546-0.251-1.042-0.375-1.519-0.379
			c-0.552-0.005-0.996-0.457-0.991-1.009C28.054,25.617,28.501,25.174,29.05,25.174z M23.374,28.541
			c0.469-0.485,0.97-0.997,1.476-1.452c0.412-0.369,1.043-0.336,1.413,0.076c0.368,0.41,0.335,1.043-0.076,1.413
			c-0.458,0.411-0.93,0.895-1.374,1.355c-0.196,0.203-0.458,0.305-0.72,0.305c-0.25,0-0.501-0.094-0.694-0.281
			C23.001,29.572,22.99,28.939,23.374,28.541z"/>
	</g>
</g>
<g>
</g>
<g>
</g>
<g>
</g>
<g>
</g>
<g>
</g>
<g>
</g>
<g>
</g>
<g>
</g>
<g>
</g>
<g>
</g>
<g>
</g>
<g>
</g>
<g>
</g>
<g>
</g>
<g>
</g>
</svg>
