<?xml version="1.0" encoding="iso-8859-1"?>
<!-- Generator: Adobe Illustrator 16.0.4, SVG Export Plug-In . SVG Version: 6.00 Build 0)  -->
<!DOCTYPE svg PUBLIC "-//W3C//DTD SVG 1.1//EN" "http://www.w3.org/Graphics/SVG/1.1/DTD/svg11.dtd">
<svg version="1.1" id="Layer_1" xmlns="http://www.w3.org/2000/svg" xmlns:xlink="http://www.w3.org/1999/xlink" x="0px" y="0px"
	 width="28px" height="55.997px" viewBox="0 0 28 55.997" style="enable-background:new 0 0 28 55.997;" xml:space="preserve">
<g id="_x38_57-rocket-selected_x40_2x.png">
	<g>
		<path d="M14,24.002c-1.104,0-2,0.896-2,2s0.896,2,2,2s2-0.896,2-2S15.104,24.002,14,24.002z M14,14.002c-1.104,0-2,0.896-2,2
			s0.896,2,2,2s2-0.896,2-2S15.104,14.002,14,14.002z M21,37.055c2.566-3.995,5-9.168,5-15.022C26,9.644,16,0,14,0S2,9.644,2,22.032
			c0,5.854,2.434,11.027,5,15.022l-7,8.011v10.932l10-9.93l4,9.93l4-9.93l10,9.93V45.065L21,37.055z M14,30.002
			c-2.209,0-4-1.791-4-4s1.791-4,4-4s4,1.791,4,4S16.209,30.002,14,30.002z M14,20.002c-2.209,0-4-1.791-4-4s1.791-4,4-4
			s4,1.791,4,4S16.209,20.002,14,20.002z"/>
	</g>
</g>
<g>
</g>
<g>
</g>
<g>
</g>
<g>
</g>
<g>
</g>
<g>
</g>
<g>
</g>
<g>
</g>
<g>
</g>
<g>
</g>
<g>
</g>
<g>
</g>
<g>
</g>
<g>
</g>
<g>
</g>
</svg>
