<?xml version="1.0" encoding="iso-8859-1"?>
<!-- Generator: Adobe Illustrator 16.0.4, SVG Export Plug-In . SVG Version: 6.00 Build 0)  -->
<!DOCTYPE svg PUBLIC "-//W3C//DTD SVG 1.1//EN" "http://www.w3.org/Graphics/SVG/1.1/DTD/svg11.dtd">
<svg version="1.1" id="Layer_1" xmlns="http://www.w3.org/2000/svg" xmlns:xlink="http://www.w3.org/1999/xlink" x="0px" y="0px"
	 width="56px" height="56.001px" viewBox="0 0 56 56.001" style="enable-background:new 0 0 56 56.001;" xml:space="preserve">
<g id="_x38_62-sun-cloud-selected_x40_2x.png">
	<g>
		<path d="M1,29h3.696c2.624-1.881,5.83-3,9.304-3c2.49,0,4.839,0.586,6.94,1.601C24.453,21.851,30.769,18,38,18
			c4.031,0,7.776,1.203,10.917,3.255c-0.983-3.026-2.589-5.773-4.688-8.07l3.569-3.569c0.391-0.391,0.391-1.023,0-1.414
			s-1.023-0.391-1.414,0l-3.569,3.569C39.135,8.409,34.318,6.291,29,6.051V1c0-0.552-0.447-1-1-1s-1,0.448-1,1v5.051
			c-5.318,0.24-10.135,2.358-13.815,5.72L9.615,8.201c-0.391-0.391-1.023-0.391-1.414,0s-0.391,1.023,0,1.414l3.569,3.569
			C8.409,16.865,6.29,21.682,6.051,27H1c-0.553,0-1,0.447-1,1S0.447,29,1,29z M38,20c-7.195,0-13.386,4.232-16.268,10.333
			C19.517,28.861,16.859,28,14,28C6.268,28,0,34.269,0,42c0,7.732,6.268,14,14,14v0.001h24V56c9.941,0,18-8.059,18-18
			S47.941,20,38,20z"/>
	</g>
</g>
<g>
</g>
<g>
</g>
<g>
</g>
<g>
</g>
<g>
</g>
<g>
</g>
<g>
</g>
<g>
</g>
<g>
</g>
<g>
</g>
<g>
</g>
<g>
</g>
<g>
</g>
<g>
</g>
<g>
</g>
</svg>
