<?xml version="1.0" encoding="iso-8859-1"?>
<!-- Generator: Adobe Illustrator 16.0.4, SVG Export Plug-In . SVG Version: 6.00 Build 0)  -->
<!DOCTYPE svg PUBLIC "-//W3C//DTD SVG 1.1//EN" "http://www.w3.org/Graphics/SVG/1.1/DTD/svg11.dtd">
<svg version="1.1" id="Layer_1" xmlns="http://www.w3.org/2000/svg" xmlns:xlink="http://www.w3.org/1999/xlink" x="0px" y="0px"
	 width="56px" height="56px" viewBox="0 0 56 56" style="enable-background:new 0 0 56 56;" xml:space="preserve">
<g id="_x38_64-rain-cloud-selected_x40_2x.png">
	<g>
		<path d="M25,47c0,1.657,1.343,3,3,3s3-1.343,3-3c0-1.656-3-7-3-7S25,45.344,25,47z M15,53c0,1.657,1.343,3,3,3s3-1.343,3-3
			c0-1.656-3-7-3-7S15,51.344,15,53z M56,26c0-9.941-8.059-18-18-18c-1.959-4.697-6.593-8-12-8c-7.18,0-13,5.82-13,13
			c0,1.046,0.137,2.058,0.37,3.032C5.933,16.364,0,22.48,0,30c0,7.732,6.268,14,14,14v0.001h9.785C25.192,40.54,28,36,28,36
			s2.808,4.54,4.215,8.001H38c-0.003,0.005-3,5.343-3,6.999c0,1.657,1.343,3,3,3s3-1.343,3-3s-3-7-3-7C47.941,44,56,35.941,56,26z"
			/>
	</g>
</g>
<g>
</g>
<g>
</g>
<g>
</g>
<g>
</g>
<g>
</g>
<g>
</g>
<g>
</g>
<g>
</g>
<g>
</g>
<g>
</g>
<g>
</g>
<g>
</g>
<g>
</g>
<g>
</g>
<g>
</g>
</svg>
