<?xml version="1.0" encoding="iso-8859-1"?>
<!-- Generator: Adobe Illustrator 16.0.4, SVG Export Plug-In . SVG Version: 6.00 Build 0)  -->
<!DOCTYPE svg PUBLIC "-//W3C//DTD SVG 1.1//EN" "http://www.w3.org/Graphics/SVG/1.1/DTD/svg11.dtd">
<svg version="1.1" id="Layer_1" xmlns="http://www.w3.org/2000/svg" xmlns:xlink="http://www.w3.org/1999/xlink" x="0px" y="0px"
	 width="56px" height="56px" viewBox="0 0 56 56" style="enable-background:new 0 0 56 56;" xml:space="preserve">
<g id="_x38_65-storm-cloud-selected_x40_2x.png">
	<g>
		<path d="M32.833,39.521C32.93,39.367,33,39.195,33,39c0-0.553-0.447-1-1-1h-5c-0.421,0-0.778,0.262-0.925,0.63l-0.004-0.001
			l-5.985,11.972c-0.003,0.006-0.006,0.011-0.009,0.017l-0.006,0.012l0.004,0.001C20.028,50.745,20,50.869,20,51
			c0,0.553,0.447,1,1,1h2.729l-0.657,2.629l0.009,0.003C23.031,54.746,23,54.868,23,55c0,0.553,0.447,1,1,1
			c0.304,0,0.566-0.143,0.75-0.356l0.009,0.008l7-8l-0.009-0.008C31.9,47.469,32,47.249,32,47c0-0.553-0.447-1-1-1h-1.387
			l3.234-6.47L32.833,39.521z M38,8c-1.959-4.697-6.593-8-12-8c-7.18,0-13,5.82-13,13c0,1.046,0.137,2.058,0.37,3.032
			C5.933,16.364,0,22.48,0,30c0,7.732,6.268,14,14,14h7.146l3.171-6.342l0.011,0.006C24.82,36.681,25.826,36,27,36h5
			c1.657,0,3,1.344,3,3c0,0.482-0.125,0.933-0.327,1.336l0.011,0.006L32.854,44H38c9.941,0,18-8.059,18-18S47.941,8,38,8z"/>
	</g>
</g>
<g>
</g>
<g>
</g>
<g>
</g>
<g>
</g>
<g>
</g>
<g>
</g>
<g>
</g>
<g>
</g>
<g>
</g>
<g>
</g>
<g>
</g>
<g>
</g>
<g>
</g>
<g>
</g>
<g>
</g>
</svg>
