<?xml version="1.0" encoding="iso-8859-1"?>
<!-- Generator: Adobe Illustrator 16.0.4, SVG Export Plug-In . SVG Version: 6.00 Build 0)  -->
<!DOCTYPE svg PUBLIC "-//W3C//DTD SVG 1.1//EN" "http://www.w3.org/Graphics/SVG/1.1/DTD/svg11.dtd">
<svg version="1.1" id="Layer_1" xmlns="http://www.w3.org/2000/svg" xmlns:xlink="http://www.w3.org/1999/xlink" x="0px" y="0px"
	 width="56px" height="56px" viewBox="0 0 56 56" style="enable-background:new 0 0 56 56;" xml:space="preserve">
<g id="_x38_66-snow-cloud-selected_x40_2x.png">
	<g>
		<path d="M21,50h-1.586l1.121-1.121c0.391-0.391,0.391-1.023,0-1.414s-1.023-0.391-1.414,0L18,48.586V47c0-0.553-0.447-1-1-1
			s-1,0.447-1,1v1.586l-1.121-1.121c-0.391-0.391-1.023-0.391-1.414,0s-0.391,1.023,0,1.414L14.586,50H13c-0.553,0-1,0.448-1,1
			c0,0.553,0.447,1,1,1h1.586l-1.121,1.121c-0.391,0.391-0.391,1.023,0,1.415c0.391,0.39,1.023,0.39,1.414,0L16,53.414V55
			c0,0.553,0.447,1,1,1s1-0.447,1-1v-1.586l1.121,1.122c0.391,0.39,1.023,0.39,1.414,0c0.391-0.392,0.391-1.024,0-1.415L19.414,52
			H21c0.553,0,1-0.447,1-1C22,50.448,21.553,50,21,50z M32,42h-1.586l1.121-1.121c0.391-0.391,0.391-1.023,0-1.414
			s-1.023-0.391-1.414,0L29,40.586V39c0-0.553-0.447-1-1-1s-1,0.447-1,1v1.586l-1.121-1.121c-0.391-0.391-1.023-0.391-1.414,0
			s-0.391,1.023,0,1.414L25.586,42H24c-0.553,0-1,0.448-1,1c0,0.553,0.447,1,1,1h1.586l-1.121,1.121
			c-0.391,0.391-0.391,1.023,0,1.415c0.391,0.39,1.023,0.39,1.414,0L27,45.414V47c0,0.553,0.447,1,1,1s1-0.447,1-1v-1.586
			l1.121,1.122c0.391,0.39,1.023,0.39,1.414,0c0.391-0.392,0.391-1.024,0-1.415L30.414,44H32c0.553,0,1-0.447,1-1
			C33,42.448,32.553,42,32,42z M38,8c-1.959-4.697-6.593-8-12-8c-7.18,0-13,5.82-13,13c0,1.046,0.137,2.058,0.37,3.032
			C5.933,16.364,0,22.48,0,30c0,7.732,6.268,14,14,14h7.195C21.081,43.686,21,43.355,21,43c0-0.984,0.48-1.85,1.213-2.397
			c-0.131-0.904,0.142-1.856,0.838-2.552c0.695-0.696,1.647-0.969,2.552-0.838C26.15,36.48,27.016,36,28,36s1.85,0.48,2.397,1.213
			c0.904-0.131,1.856,0.142,2.553,0.838c0.695,0.695,0.968,1.647,0.837,2.552C34.52,41.15,35,42.016,35,43
			c0,0.355-0.081,0.686-0.195,1H38c9.941,0,18-8.059,18-18S47.941,8,38,8z M43,48h-1.586l1.121-1.121
			c0.391-0.391,0.391-1.023,0-1.414s-1.023-0.391-1.414,0L40,46.586V45c0-0.553-0.447-1-1-1s-1,0.447-1,1v1.586l-1.121-1.121
			c-0.391-0.391-1.023-0.391-1.414,0s-0.391,1.023,0,1.414L36.586,48H35c-0.553,0-1,0.448-1,1c0,0.553,0.447,1,1,1h1.586
			l-1.121,1.121c-0.391,0.391-0.391,1.024,0,1.414c0.391,0.391,1.023,0.391,1.414,0L38,51.414V53c0,0.553,0.447,1,1,1s1-0.447,1-1
			v-1.586l1.121,1.121c0.391,0.391,1.023,0.391,1.414,0c0.391-0.39,0.391-1.023,0-1.414L41.414,50H43c0.553,0,1-0.447,1-1
			C44,48.448,43.553,48,43,48z"/>
	</g>
</g>
<g>
</g>
<g>
</g>
<g>
</g>
<g>
</g>
<g>
</g>
<g>
</g>
<g>
</g>
<g>
</g>
<g>
</g>
<g>
</g>
<g>
</g>
<g>
</g>
<g>
</g>
<g>
</g>
<g>
</g>
</svg>
