<?xml version="1.0" encoding="iso-8859-1"?>
<!-- Generator: Adobe Illustrator 16.0.4, SVG Export Plug-In . SVG Version: 6.00 Build 0)  -->
<!DOCTYPE svg PUBLIC "-//W3C//DTD SVG 1.1//EN" "http://www.w3.org/Graphics/SVG/1.1/DTD/svg11.dtd">
<svg version="1.1" id="Layer_1" xmlns="http://www.w3.org/2000/svg" xmlns:xlink="http://www.w3.org/1999/xlink" x="0px" y="0px"
	 width="56px" height="48px" viewBox="0 0 56 48" style="enable-background:new 0 0 56 48;" xml:space="preserve">
<g id="_x38_67-swords-selected_x40_2x.png">
	<g>
		<path d="M0.294,42.293C0.112,42.474,0,42.724,0,43s0.112,0.526,0.293,0.707l4,4C4.474,47.889,4.724,48,5,48
			s0.526-0.111,0.707-0.293l6.887-6.887L7.18,35.406L0.294,42.293z M35.414,20L47.707,7.707C47.888,7.526,48,7.276,48,7V1
			c0-0.553-0.447-1-1-1c-0.552,0-1,0.447-1,1V0h-6v0.586l-12,12l-0.003-0.002l-7.414,7.414L20.586,20L13,27.586l-3.293-3.293
			C9.526,24.112,9.276,24,9,24s-0.526,0.112-0.707,0.293l-4,4C4.112,28.475,4,28.725,4,29c0,0.276,0.112,0.526,0.293,0.707
			l1.969,1.969l0.008-0.008l10,10l-0.008,0.008l2.031,2.031C18.474,43.888,18.724,44,19,44s0.526-0.111,0.707-0.293l4-4
			C23.888,39.526,24,39.276,24,39s-0.112-0.525-0.293-0.707L20.414,35L28,27.414l0.002,0.003l7.415-7.414L35.414,20z M19.169,18.584
			l7.414-7.415L16,0.586V0h-6v1c0-0.553-0.447-1-1-1S8,0.447,8,1v6c0,0.276,0.112,0.526,0.293,0.707L19.169,18.584z M55.706,42.293
			l-6.886-6.887l-5.414,5.414l6.887,6.887C50.474,47.889,50.724,48,51,48s0.526-0.111,0.707-0.293l4-4
			C55.888,43.526,56,43.276,56,43S55.888,42.474,55.706,42.293z M49.73,31.668l0.008,0.008l1.969-1.969
			C51.888,29.526,52,29.276,52,29s-0.112-0.525-0.293-0.707l-4-4C47.526,24.112,47.276,24,47,24s-0.526,0.112-0.707,0.293L43,27.586
			l-6.169-6.169l-7.414,7.414L35.586,35l-3.293,3.293C32.112,38.475,32,38.725,32,39c0,0.276,0.112,0.526,0.293,0.707l4,4
			C36.474,43.889,36.724,44,37,44s0.526-0.111,0.707-0.293l2.031-2.031l-0.008-0.008L49.73,31.668z"/>
	</g>
</g>
<g>
</g>
<g>
</g>
<g>
</g>
<g>
</g>
<g>
</g>
<g>
</g>
<g>
</g>
<g>
</g>
<g>
</g>
<g>
</g>
<g>
</g>
<g>
</g>
<g>
</g>
<g>
</g>
<g>
</g>
</svg>
