<?xml version="1.0" encoding="iso-8859-1"?>
<!-- Generator: Adobe Illustrator 16.0.4, SVG Export Plug-In . SVG Version: 6.00 Build 0)  -->
<!DOCTYPE svg PUBLIC "-//W3C//DTD SVG 1.1//EN" "http://www.w3.org/Graphics/SVG/1.1/DTD/svg11.dtd">
<svg version="1.1" id="Layer_1" xmlns="http://www.w3.org/2000/svg" xmlns:xlink="http://www.w3.org/1999/xlink" x="0px" y="0px"
	 width="56px" height="56px" viewBox="0 0 56 56" style="enable-background:new 0 0 56 56;" xml:space="preserve">
<g id="_x38_70-smile-selected_x40_2x.png">
	<g>
		<path d="M32,0h-8C6,0,0,6,0,24v8c0,18,6,24,24,24h8c18,0,24-6,24-24v-8C56,6,50,0,32,0z M14,22c0-2.209,1.791-4,4-4s4,1.791,4,4
			s-1.791,4-4,4S14,24.209,14,22z M28,40.991c-8-0.009-11.301-3.015-11.515-3.143l1.028-1.715C17.562,36.162,21,38.982,28,38.991
			s10.438-2.829,10.486-2.857l1.028,1.715C39.301,37.977,36,41,28,40.991z M38,26c-2.209,0-4-1.791-4-4s1.791-4,4-4s4,1.791,4,4
			S40.209,26,38,26z"/>
	</g>
</g>
<g>
</g>
<g>
</g>
<g>
</g>
<g>
</g>
<g>
</g>
<g>
</g>
<g>
</g>
<g>
</g>
<g>
</g>
<g>
</g>
<g>
</g>
<g>
</g>
<g>
</g>
<g>
</g>
<g>
</g>
</svg>
