<?xml version="1.0" encoding="iso-8859-1"?>
<!-- Generator: Adobe Illustrator 16.0.4, SVG Export Plug-In . SVG Version: 6.00 Build 0)  -->
<!DOCTYPE svg PUBLIC "-//W3C//DTD SVG 1.1//EN" "http://www.w3.org/Graphics/SVG/1.1/DTD/svg11.dtd">
<svg version="1.1" id="Layer_1" xmlns="http://www.w3.org/2000/svg" xmlns:xlink="http://www.w3.org/1999/xlink" x="0px" y="0px"
	 width="44px" height="56px" viewBox="0 0 44 56" style="enable-background:new 0 0 44 56;" xml:space="preserve">
<g id="_x38_72-podium-selected_x40_2x.png">
	<g>
		<path d="M37.965,10.737l-0.017,0.005C37.832,10.318,37.461,10,37,10H12V5c0-1.656,1.343-3,3-3c1.132,0,2.105,0.635,2.616,1.561
			C17.238,3.925,17,4.434,17,5c0,1.104,0.896,2,2,2s2-0.896,2-2c0-0.885-0.579-1.627-1.376-1.891C18.878,1.286,17.092,0,15,0
			c-2.762,0-5,2.238-5,5v5H7c-0.461,0-0.832,0.318-0.948,0.742l-0.017-0.005L1.327,28h41.346L37.965,10.737z M43.948,32.742
			l0.017-0.005L43.219,30H0.782l-0.747,2.737l0.017,0.005C0.029,32.826,0,32.908,0,33c0,0.553,0.447,1,1,1h42c0.553,0,1-0.447,1-1
			C44,32.908,43.971,32.826,43.948,32.742z M28,50h-3V36h-6v14h-3c-2.209,0-4,1.791-4,4v2h20v-2C32,51.791,30.209,50,28,50z"/>
	</g>
</g>
<g>
</g>
<g>
</g>
<g>
</g>
<g>
</g>
<g>
</g>
<g>
</g>
<g>
</g>
<g>
</g>
<g>
</g>
<g>
</g>
<g>
</g>
<g>
</g>
<g>
</g>
<g>
</g>
<g>
</g>
</svg>
