<?xml version="1.0" encoding="iso-8859-1"?>
<!-- Generator: Adobe Illustrator 16.0.4, SVG Export Plug-In . SVG Version: 6.00 Build 0)  -->
<!DOCTYPE svg PUBLIC "-//W3C//DTD SVG 1.1//EN" "http://www.w3.org/Graphics/SVG/1.1/DTD/svg11.dtd">
<svg version="1.1" id="Layer_1" xmlns="http://www.w3.org/2000/svg" xmlns:xlink="http://www.w3.org/1999/xlink" x="0px" y="0px"
	 width="55.99px" height="55.99px" viewBox="0 0 55.99 55.99" style="enable-background:new 0 0 55.99 55.99;" xml:space="preserve"
	>
<g id="_x38_73-magic-wand-selected_x40_2x.png">
	<g>
		<path d="M27,14l0.667-2.333L30,11l-2.333-0.666L27,8l-0.667,2.334L24,11l2.333,0.667L27,14z M13,10l1.111-3.889L18,5l-3.889-1.111
			L13,0l-1.111,3.889L8,5l3.889,1.111L13,10z M55.717,48.646L23.354,16.283c-0.781-0.781-2.997,0.169-4.95,2.121
			c-1.952,1.953-2.902,4.169-2.121,4.95l32.362,32.362c0.781,0.781,2.997-0.168,4.95-2.121
			C55.548,51.644,56.498,49.427,55.717,48.646z M29.256,29.256c-1.171,1.172-1.805,2.438-1.414,2.829
			c0.002,0.001,0.005,0.002,0.007,0.003l-0.002,0.002l-0.005-0.005l-9.02-9.02l-0.418-0.418c-0.391-0.391,0.243-1.657,1.414-2.829
			c1.172-1.171,2.438-1.805,2.829-1.414l1.414,1.414l8.022,8.023C31.693,27.452,30.428,28.085,29.256,29.256z M32.088,27.849
			c-0.001-0.002-0.002-0.005-0.003-0.007l0.005,0.005L32.088,27.849z M39,14l1.556-5.444L46,7l-5.444-1.555L39,0l-1.556,5.445L32,7
			l5.444,1.556L39,14z M39.889,19.889L36,21l3.889,1.111L41,26l1.111-3.889L46,21l-3.889-1.111L41,16L39.889,19.889z M19,38
			l-0.667,2.334L16,41l2.333,0.667L19,44l0.667-2.333L22,41l-2.333-0.666L19,38z M9,27l-1.333,4.667L3,33l4.667,1.334L9,39
			l1.333-4.666L15,33l-4.667-1.333L9,27z M3.667,17.667L6,17l-2.333-0.666L3,14l-0.667,2.334L0,17l2.333,0.667L3,20L3.667,17.667z"
			/>
	</g>
</g>
<g>
</g>
<g>
</g>
<g>
</g>
<g>
</g>
<g>
</g>
<g>
</g>
<g>
</g>
<g>
</g>
<g>
</g>
<g>
</g>
<g>
</g>
<g>
</g>
<g>
</g>
<g>
</g>
<g>
</g>
</svg>
