<?xml version="1.0" encoding="iso-8859-1"?>
<!-- Generator: Adobe Illustrator 16.0.4, SVG Export Plug-In . SVG Version: 6.00 Build 0)  -->
<!DOCTYPE svg PUBLIC "-//W3C//DTD SVG 1.1//EN" "http://www.w3.org/Graphics/SVG/1.1/DTD/svg11.dtd">
<svg version="1.1" id="Layer_1" xmlns="http://www.w3.org/2000/svg" xmlns:xlink="http://www.w3.org/1999/xlink" x="0px" y="0px"
	 width="56px" height="44px" viewBox="0 0 56 44" style="enable-background:new 0 0 56 44;" xml:space="preserve">
<g id="_x38_74-newspaper-selected_x40_2x.png">
	<g>
		<path d="M28,8H16v16h12V8z M54,0H10C8.896,0,8,0.896,8,2v3v3v29c0,0.553-0.447,1-1,1s-1-0.447-1-1V8H2c-1.104,0-2,0.896-2,2v2v21
			v5c0,3.313,2.687,6,6,6h4h4h40c1.104,0,2-0.896,2-2V2C56,0.896,55.104,0,54,0z M14,7c0-0.552,0.447-1,1-1h14c0.553,0,1,0.448,1,1
			v18c0,0.553-0.447,1-1,1H15c-0.553,0-1-0.447-1-1V7z M49,38H15c-0.553,0-1-0.447-1-1c0-0.552,0.447-1,1-1h34c0.553,0,1,0.448,1,1
			C50,37.553,49.553,38,49,38z M49,32H15c-0.553,0-1-0.447-1-1s0.447-1,1-1h34c0.553,0,1,0.447,1,1S49.553,32,49,32z M49,26H35
			c-0.553,0-1-0.447-1-1s0.447-1,1-1h14c0.553,0,1,0.447,1,1S49.553,26,49,26z M49,20H35c-0.553,0-1-0.447-1-1c0-0.552,0.447-1,1-1
			h14c0.553,0,1,0.448,1,1C50,19.553,49.553,20,49,20z M49,14H35c-0.553,0-1-0.447-1-1s0.447-1,1-1h14c0.553,0,1,0.447,1,1
			S49.553,14,49,14z M49,8H35c-0.553,0-1-0.447-1-1c0-0.552,0.447-1,1-1h14c0.553,0,1,0.448,1,1C50,7.553,49.553,8,49,8z"/>
	</g>
</g>
<g>
</g>
<g>
</g>
<g>
</g>
<g>
</g>
<g>
</g>
<g>
</g>
<g>
</g>
<g>
</g>
<g>
</g>
<g>
</g>
<g>
</g>
<g>
</g>
<g>
</g>
<g>
</g>
<g>
</g>
</svg>
