<?xml version="1.0" encoding="iso-8859-1"?>
<!-- Generator: Adobe Illustrator 16.0.4, SVG Export Plug-In . SVG Version: 6.00 Build 0)  -->
<!DOCTYPE svg PUBLIC "-//W3C//DTD SVG 1.1//EN" "http://www.w3.org/Graphics/SVG/1.1/DTD/svg11.dtd">
<svg version="1.1" id="Layer_1" xmlns="http://www.w3.org/2000/svg" xmlns:xlink="http://www.w3.org/1999/xlink" x="0px" y="0px"
	 width="56px" height="48px" viewBox="0 0 56 48" style="enable-background:new 0 0 56 48;" xml:space="preserve">
<g id="_x38_76-store-selected_x40_2x.png">
	<g>
		<path d="M42,4h2V1c0-0.552-0.447-1-1-1H13c-0.553,0-1,0.448-1,1v3h2H42z M0,16v3c0,0.553,0.447,1,1,1h3c1,0,2,2,4,2s3-2,4-2h2
			c1,0,2,2,4,2s3-2,4-2h2c1,0,2,2,4,2s3-2,4-2h2c1,0,2,2,4,2s3-2,4-2h2c1,0,2,2,4,2s3-2,4-2h3c0.553,0,1-0.447,1-1v-3H0z M45.762,6
			H10.238l-9.601,8h54.725L45.762,6z M50,39l-6.4-4.8l-0.01,0.014C43.423,34.089,43.225,34,43,34H13
			c-0.225,0-0.423,0.089-0.59,0.214L12.4,34.2L6,39V24H4v22c0,1.104,0.896,2,2,2h44c1.104,0,2-0.896,2-2V24h-2V39z"/>
	</g>
</g>
<g>
</g>
<g>
</g>
<g>
</g>
<g>
</g>
<g>
</g>
<g>
</g>
<g>
</g>
<g>
</g>
<g>
</g>
<g>
</g>
<g>
</g>
<g>
</g>
<g>
</g>
<g>
</g>
<g>
</g>
</svg>
