<?xml version="1.0" encoding="iso-8859-1"?>
<!-- Generator: Adobe Illustrator 16.0.4, SVG Export Plug-In . SVG Version: 6.00 Build 0)  -->
<!DOCTYPE svg PUBLIC "-//W3C//DTD SVG 1.1//EN" "http://www.w3.org/Graphics/SVG/1.1/DTD/svg11.dtd">
<svg version="1.1" id="Layer_1" xmlns="http://www.w3.org/2000/svg" xmlns:xlink="http://www.w3.org/1999/xlink" x="0px" y="0px"
	 width="44px" height="56px" viewBox="0 0 44 56" style="enable-background:new 0 0 44 56;" xml:space="preserve">
<g id="_x38_77-slingshot-selected_x40_2x.png">
	<g>
		<path d="M43,9h-0.942C42.655,7.111,43,5.101,43,3c0-1.656-1.343-3-3-3s-3,1.344-3,3c0,2.166-0.496,4.204-1.361,6H35
			c-0.553,0-1,0.447-1,1c0,0.382,0.221,0.702,0.535,0.871C32.343,13.983,28.893,16,25,16s-7.343-2.017-9.535-5.129
			C15.779,10.702,16,10.382,16,10c0-0.553-0.447-1-1-1h-0.639C13.496,7.204,13,5.166,13,3c0-1.656-1.343-3-3-3S7,1.344,7,3
			c0,2.103,0.354,4.111,0.954,6H7c-0.553,0-1,0.447-1,1c0,0.426,0.269,0.784,0.644,0.928C2.735,14.38,0,21.727,0,29.497
			c0,12.7,12.707,14.965,12.836,14.986l0.004-0.021c0.012,0,0.022,0.007,0.035,0.007c0.553,0,1-0.447,1-1
			c0-0.45-0.304-0.817-0.714-0.942l0.003-0.016C12.709,42.435,2,40.523,2,29.497c0-8.384,3.337-15.519,6.994-17.831
			C11.98,17.798,18.02,22,25,22c6.265,0,11.776-3.381,15-8.506c0,2.452,0,6.15,0,11.003c0,9.294-5.331,13.017-5.555,13.168
			l0.017,0.025c-0.237,0.183-0.399,0.456-0.399,0.778c0,0.553,0.447,1,1,1c0.181,0,0.342-0.062,0.488-0.146l0.004,0.006
			c0.021-0.014,0.09-0.063,0.18-0.129c0.012-0.012,0.027-0.019,0.039-0.03C36.892,38.33,42,33.977,42,24.497
			c0-6.642,0-11.128,0-13.497h1c0.553,0,1-0.447,1-1S43.553,9,43,9z M25,24c-1.449,0-2.859-0.171-4.222-0.479L19,52
			c0,2.209,2.687,4,6,4s6-1.791,6-4l-1.778-28.479C27.859,23.829,26.449,24,25,24z"/>
	</g>
</g>
<g>
</g>
<g>
</g>
<g>
</g>
<g>
</g>
<g>
</g>
<g>
</g>
<g>
</g>
<g>
</g>
<g>
</g>
<g>
</g>
<g>
</g>
<g>
</g>
<g>
</g>
<g>
</g>
<g>
</g>
</svg>
