<?xml version="1.0" encoding="iso-8859-1"?>
<!-- Generator: Adobe Illustrator 16.0.4, SVG Export Plug-In . SVG Version: 6.00 Build 0)  -->
<!DOCTYPE svg PUBLIC "-//W3C//DTD SVG 1.1//EN" "http://www.w3.org/Graphics/SVG/1.1/DTD/svg11.dtd">
<svg version="1.1" id="Layer_1" xmlns="http://www.w3.org/2000/svg" xmlns:xlink="http://www.w3.org/1999/xlink" x="0px" y="0px"
	 width="56px" height="40px" viewBox="0 0 56 40" style="enable-background:new 0 0 56 40;" xml:space="preserve">
<g id="_x38_78-binoculars-selected_x40_2x.png">
	<g>
		<path d="M54.662,22.509l0.016-0.01L43.365,2.562l-0.02,0.012C42.49,1.045,40.876,0,39,0c-2.419,0-4.436,1.718-4.899,4h-0.013
			L33.6,9.56L32.344,24h-8.688L22.4,9.558L21.912,4h-0.013C21.436,1.718,19.419,0,17,0c-1.876,0-3.49,1.045-4.346,2.573l-0.02-0.012
			L1.322,22.499l0.016,0.01C0.488,24.155,0,26.02,0,28c0,6.628,5.373,12,12,12c5.944,0,10.866-4.326,11.82-10h2.382h3.596h2.382
			c0.954,5.674,5.876,10,11.82,10c6.627,0,12-5.372,12-12C56,26.02,55.512,24.155,54.662,22.509z M12,38C6.478,38,2,33.523,2,28
			c0-5.522,4.478-10,10-10c4.96,0,9.065,3.615,9.853,8.353l0.146,1.676C21.983,33.538,17.514,38,12,38z M32.157,26.149
			c-0.089,0.571-0.146,1.152-0.152,1.748l-0.001,0.017C32.004,27.943,32,27.971,32,28h-8c0-0.029-0.004-0.057-0.004-0.086
			l-0.001-0.017c-0.005-0.596-0.063-1.177-0.152-1.748L23.83,26h2.021h4.299h2.021L32.157,26.149z M44,38
			c-5.514,0-9.983-4.463-9.999-9.973l0.146-1.674C34.934,21.616,39.04,18,44,18c5.522,0,10,4.478,10,10C54,33.523,49.522,38,44,38z
			 M30.5,22l1.58-18h-8.16l1.58,18H30.5z M25,10c0-0.553,0.447-1,1-1h4c0.553,0,1,0.447,1,1s-0.447,1-1,1h-4
			C25.447,11,25,10.553,25,10z"/>
	</g>
</g>
<g>
</g>
<g>
</g>
<g>
</g>
<g>
</g>
<g>
</g>
<g>
</g>
<g>
</g>
<g>
</g>
<g>
</g>
<g>
</g>
<g>
</g>
<g>
</g>
<g>
</g>
<g>
</g>
<g>
</g>
</svg>
