<?xml version="1.0" encoding="iso-8859-1"?>
<!-- Generator: Adobe Illustrator 16.0.4, SVG Export Plug-In . SVG Version: 6.00 Build 0)  -->
<!DOCTYPE svg PUBLIC "-//W3C//DTD SVG 1.1//EN" "http://www.w3.org/Graphics/SVG/1.1/DTD/svg11.dtd">
<svg version="1.1" id="Layer_1" xmlns="http://www.w3.org/2000/svg" xmlns:xlink="http://www.w3.org/1999/xlink" x="0px" y="0px"
	 width="56px" height="52px" viewBox="0 0 56 52" style="enable-background:new 0 0 56 52;" xml:space="preserve">
<g id="_x38_80-bank-selected_x40_2x.png">
	<g>
		<path d="M54,44c0-1.104-0.896-2-2-2h-2V20h3c0.553,0,1-0.447,1-1v-2c0-0.354-0.194-0.649-0.471-0.827l0.01-0.015l-25-16
			l-0.01,0.015C28.374,0.073,28.199,0,28,0s-0.373,0.073-0.529,0.173l-0.01-0.015l-25,16l0.01,0.015C2.194,16.351,2,16.646,2,17v2
			c0,0.553,0.447,1,1,1h3v22H4c-1.104,0-2,0.896-2,2v2h52V44z M18,42h-4V20h4V42z M30,42h-4V20h4V42z M42,42h-4V20h4V42z M0,48v2
			c0,1.104,0.896,2,2,2h52c1.104,0,2-0.896,2-2v-2H0z"/>
	</g>
</g>
<g>
</g>
<g>
</g>
<g>
</g>
<g>
</g>
<g>
</g>
<g>
</g>
<g>
</g>
<g>
</g>
<g>
</g>
<g>
</g>
<g>
</g>
<g>
</g>
<g>
</g>
<g>
</g>
<g>
</g>
</svg>
