<?xml version="1.0" encoding="iso-8859-1"?>
<!-- Generator: Adobe Illustrator 16.0.4, SVG Export Plug-In . SVG Version: 6.00 Build 0)  -->
<!DOCTYPE svg PUBLIC "-//W3C//DTD SVG 1.1//EN" "http://www.w3.org/Graphics/SVG/1.1/DTD/svg11.dtd">
<svg version="1.1" id="Layer_1" xmlns="http://www.w3.org/2000/svg" xmlns:xlink="http://www.w3.org/1999/xlink" x="0px" y="0px"
	 width="56px" height="56px" viewBox="0 0 56 56" style="enable-background:new 0 0 56 56;" xml:space="preserve">
<g id="_x38_81-globe-selected_x40_2x.png">
	<g>
		<path d="M28,0C12.536,0,0,12.536,0,28s12.536,28,28,28s28-12.536,28-28S43.464,0,28,0z M20,24c-4,1-1,4-1,4c4,2,2,3,2,3
			c-3-1-6-3-6-3s-4-3-3-5s3-5,0-8c-0.939-0.939-1.868-1.561-2.716-2.004c1.514-1.886,3.297-3.546,5.306-4.902
			C16.021,10.61,20,13,20,13c2-5,5-2,5-2c1-2,5-1,3,1s-6,1-3,4s1-2,5-2s4,4,2,4s-1,1-5,3s-2,5-4,5S23,23,20,24z M34.218,40.266
			c-2.805,2.883-3.285,9.141-4.129,9.609s-1.479-0.961-2.415-1.922s-1.87-2.883-0.935-7.688c0,0-3.739-0.961-3.739-6.727
			c0-2.883,2.805-4.805,7.479-2.883s1.87,1.922,3.739,2.883C36.088,34.5,37.022,37.383,34.218,40.266z M37,10c-4,0-2-3-1-4
			c0.146-0.145,0.238-0.314,0.309-0.492c3.682,1.361,6.931,3.592,9.509,6.453C43.212,10.729,40.605,16,38,16C35,16,37,10,37,10z
			 M42,23c0-6.193,6.25-6.13,5.613-8.803C50.368,18.104,52,22.857,52,28c0,2.03-0.279,3.99-0.754,5.872
			C47.679,32.023,42,28.035,42,23z"/>
	</g>
</g>
<g>
</g>
<g>
</g>
<g>
</g>
<g>
</g>
<g>
</g>
<g>
</g>
<g>
</g>
<g>
</g>
<g>
</g>
<g>
</g>
<g>
</g>
<g>
</g>
<g>
</g>
<g>
</g>
<g>
</g>
</svg>
