<?xml version="1.0" encoding="iso-8859-1"?>
<!-- Generator: Adobe Illustrator 16.0.4, SVG Export Plug-In . SVG Version: 6.00 Build 0)  -->
<!DOCTYPE svg PUBLIC "-//W3C//DTD SVG 1.1//EN" "http://www.w3.org/Graphics/SVG/1.1/DTD/svg11.dtd">
<svg version="1.1" id="Layer_1" xmlns="http://www.w3.org/2000/svg" xmlns:xlink="http://www.w3.org/1999/xlink" x="0px" y="0px"
	 width="56px" height="56px" viewBox="0 0 56 56" style="enable-background:new 0 0 56 56;" xml:space="preserve">
<g id="_x38_83-beaker-selected_x40_2x.png">
	<g>
		<path d="M23,36c-1.104,0-2,0.896-2,2s0.896,2,2,2s2-0.896,2-2S24.104,36,23,36z M29,22c-2.209,0-4,1.791-4,4s1.791,4,4,4
			s4-1.791,4-4S31.209,22,29,22z M32,44c-0.553,0-1,0.448-1,1c0,0.553,0.447,1,1,1s1-0.447,1-1C33,44.448,32.553,44,32,44z
			 M40,22.588V6h3c0.553,0,1-0.447,1-1V1c0-0.553-0.447-1-1-1H13c-0.553,0-1,0.447-1,1v4c0,0.553,0.447,1,1,1h3v16.588
			C13.669,24.9,0,38.853,0,48c0,4.418,3.582,8,8,8h40c4.418,0,8-3.582,8-8C56,38.853,42.331,24.9,40,22.588z M14,4V2h28v2H14z
			 M23,42c-2.209,0-4-1.791-4-4s1.791-4,4-4s4,1.791,4,4S25.209,42,23,42z M32,48c-1.657,0-3-1.343-3-3c0-1.656,1.343-3,3-3
			s3,1.344,3,3C35,46.657,33.657,48,32,48z M29,32c-3.313,0-6-2.687-6-6s2.687-6,6-6s6,2.687,6,6S32.313,32,29,32z M38,13.683
			c-4.99,3.015-9.062,0.12-9.425-0.154c-0.479-0.424-3.59-2.808-10.575-0.652V6h20V13.683z"/>
	</g>
</g>
<g>
</g>
<g>
</g>
<g>
</g>
<g>
</g>
<g>
</g>
<g>
</g>
<g>
</g>
<g>
</g>
<g>
</g>
<g>
</g>
<g>
</g>
<g>
</g>
<g>
</g>
<g>
</g>
<g>
</g>
</svg>
