<?xml version="1.0" encoding="iso-8859-1"?>
<!-- Generator: Adobe Illustrator 16.0.4, SVG Export Plug-In . SVG Version: 6.00 Build 0)  -->
<!DOCTYPE svg PUBLIC "-//W3C//DTD SVG 1.1//EN" "http://www.w3.org/Graphics/SVG/1.1/DTD/svg11.dtd">
<svg version="1.1" id="Layer_1" xmlns="http://www.w3.org/2000/svg" xmlns:xlink="http://www.w3.org/1999/xlink" x="0px" y="0px"
	 width="56px" height="34px" viewBox="0 0 56 34" style="enable-background:new 0 0 56 34;" xml:space="preserve">
<g id="_x38_85-trailer-selected_x40_2x.png">
	<g>
		<path d="M8,14h16V8H8V14z M24,24c-2.762,0-5,2.239-5,5c0,2.762,2.238,5,5,5s5-2.238,5-5C29,26.239,26.762,24,24,24z M55,24
			c-0.553,0-1,0.448-1,1v3h-5.558C49.4,26.938,50,25.544,50,24V6c0-3.313-2.687-6-6-6H6C2.687,0,0,2.687,0,6v18c0,3.313,2.687,6,6,6
			h11.08C17.032,29.673,17,29.341,17,29c0-3.866,3.134-7,7-7s7,3.134,7,7c0,0.341-0.032,0.673-0.079,1H43h1h11c0.553,0,1-0.447,1-1
			v-4C56,24.448,55.553,24,55,24z M26,14c0,1.104-0.896,2-2,2H8c-1.104,0-2-0.896-2-2V8c0-1.104,0.896-2,2-2h16c1.104,0,2,0.896,2,2
			V14z M44,14c0,1.104-0.896,2-2,2H32c-1.104,0-2-0.896-2-2V8c0-1.104,0.896-2,2-2h10c1.104,0,2,0.896,2,2V14z M32,14h10V8H32V14z"
			/>
	</g>
</g>
<g>
</g>
<g>
</g>
<g>
</g>
<g>
</g>
<g>
</g>
<g>
</g>
<g>
</g>
<g>
</g>
<g>
</g>
<g>
</g>
<g>
</g>
<g>
</g>
<g>
</g>
<g>
</g>
<g>
</g>
</svg>
