<?xml version="1.0" encoding="iso-8859-1"?>
<!-- Generator: Adobe Illustrator 16.0.4, SVG Export Plug-In . SVG Version: 6.00 Build 0)  -->
<!DOCTYPE svg PUBLIC "-//W3C//DTD SVG 1.1//EN" "http://www.w3.org/Graphics/SVG/1.1/DTD/svg11.dtd">
<svg version="1.1" id="Layer_1" xmlns="http://www.w3.org/2000/svg" xmlns:xlink="http://www.w3.org/1999/xlink" x="0px" y="0px"
	 width="40px" height="56px" viewBox="0 0 40 56" style="enable-background:new 0 0 40 56;" xml:space="preserve">
<g id="_x38_86-ice-cream-cone-selected_x40_2x.png">
	<g>
		<path d="M19.069,55.366l0.004-0.002C19.22,55.735,19.577,56,20,56s0.78-0.265,0.927-0.636l0.004,0.002L30.896,30H9.104
			L19.069,55.366z M32,12c0-6.627-5.373-12-12-12C14.041,0,9.11,4.349,8.174,10.042C3.591,10.46,0,14.309,0,19
			c0,4.736,3.66,8.609,8.305,8.965L8.318,28h23.687C36.421,27.998,40,24.417,40,20C40,15.582,36.418,12,32,12z"/>
	</g>
</g>
<g>
</g>
<g>
</g>
<g>
</g>
<g>
</g>
<g>
</g>
<g>
</g>
<g>
</g>
<g>
</g>
<g>
</g>
<g>
</g>
<g>
</g>
<g>
</g>
<g>
</g>
<g>
</g>
<g>
</g>
</svg>
