<?xml version="1.0" encoding="iso-8859-1"?>
<!-- Generator: Adobe Illustrator 16.0.4, SVG Export Plug-In . SVG Version: 6.00 Build 0)  -->
<!DOCTYPE svg PUBLIC "-//W3C//DTD SVG 1.1//EN" "http://www.w3.org/Graphics/SVG/1.1/DTD/svg11.dtd">
<svg version="1.1" id="Layer_1" xmlns="http://www.w3.org/2000/svg" xmlns:xlink="http://www.w3.org/1999/xlink" x="0px" y="0px"
	 width="48px" height="56px" viewBox="0 0 48 56" style="enable-background:new 0 0 48 56;" xml:space="preserve">
<g id="_x38_87-notepad-selected_x40_2x.png">
	<g>
		<path d="M16,1c0-0.553-0.447-1-1-1s-1,0.447-1,1v5h2V1z M22,1c0-0.553-0.447-1-1-1c-0.552,0-1,0.447-1,1v5h2V1z M10,1
			c0-0.553-0.447-1-1-1S8,0.447,8,1v5h2V1z M34,1c0-0.553-0.447-1-1-1s-1,0.447-1,1v5h2V1z M44,6h-4v7c0,0.553-0.447,1-1,1
			s-1-0.447-1-1V6h-4v7c0,0.553-0.447,1-1,1s-1-0.447-1-1V6h-4v7c0,0.553-0.447,1-1,1s-1-0.447-1-1V6h-4v7c0,0.553-0.447,1-1,1
			c-0.552,0-1-0.447-1-1V6h-4v7c0,0.553-0.447,1-1,1s-1-0.447-1-1V6h-4v7c0,0.553-0.447,1-1,1s-1-0.447-1-1V6H4
			c-2.209,0-4,1.791-4,4v42c0,2.209,1.791,4,4,4h40c2.209,0,4-1.791,4-4V10C48,7.791,46.209,6,44,6z M39,42H9c-0.553,0-1-0.447-1-1
			s0.447-1,1-1h30c0.553,0,1,0.447,1,1S39.553,42,39,42z M8,35c0-0.552,0.447-1,1-1h24c0.553,0,1,0.448,1,1c0,0.553-0.447,1-1,1H9
			C8.447,36,8,35.553,8,35z M39,30H9c-0.553,0-1-0.447-1-1c0-0.552,0.447-1,1-1h30c0.553,0,1,0.448,1,1C40,29.553,39.553,30,39,30z
			 M39,24H9c-0.553,0-1-0.447-1-1c0-0.552,0.447-1,1-1h30c0.553,0,1,0.448,1,1C40,23.553,39.553,24,39,24z M28,1
			c0-0.553-0.447-1-1-1s-1,0.447-1,1v5h2V1z M40,1c0-0.553-0.447-1-1-1s-1,0.447-1,1v5h2V1z"/>
	</g>
</g>
<g>
</g>
<g>
</g>
<g>
</g>
<g>
</g>
<g>
</g>
<g>
</g>
<g>
</g>
<g>
</g>
<g>
</g>
<g>
</g>
<g>
</g>
<g>
</g>
<g>
</g>
<g>
</g>
<g>
</g>
</svg>
