<?xml version="1.0" encoding="iso-8859-1"?>
<!-- Generator: Adobe Illustrator 16.0.4, SVG Export Plug-In . SVG Version: 6.00 Build 0)  -->
<!DOCTYPE svg PUBLIC "-//W3C//DTD SVG 1.1//EN" "http://www.w3.org/Graphics/SVG/1.1/DTD/svg11.dtd">
<svg version="1.1" id="Layer_1" xmlns="http://www.w3.org/2000/svg" xmlns:xlink="http://www.w3.org/1999/xlink" x="0px" y="0px"
	 width="56px" height="56px" viewBox="0 0 56 56" style="enable-background:new 0 0 56 56;" xml:space="preserve">
<g id="_x38_88-checkmark-selected_x40_2x.png">
	<g>
		<path d="M32,0h-8C6,0,0,6,0,24v8c0,18,6,24,24,24h8c18,0,24-6,24-24v-8C56,6,50,0,32,0z M41.707,20.708l-16,15.999
			C25.526,36.889,25.276,37,25,37s-0.526-0.111-0.707-0.293l-10-10C14.112,26.526,14,26.276,14,26c0-0.552,0.448-1,1-1
			c0.276,0,0.526,0.112,0.707,0.293L25,34.586l15.293-15.292C40.474,19.112,40.724,19,41,19c0.553,0,1,0.447,1,1
			C42,20.276,41.888,20.526,41.707,20.708z"/>
	</g>
</g>
<g>
</g>
<g>
</g>
<g>
</g>
<g>
</g>
<g>
</g>
<g>
</g>
<g>
</g>
<g>
</g>
<g>
</g>
<g>
</g>
<g>
</g>
<g>
</g>
<g>
</g>
<g>
</g>
<g>
</g>
</svg>
