<?xml version="1.0" encoding="iso-8859-1"?>
<!-- Generator: Adobe Illustrator 16.0.4, SVG Export Plug-In . SVG Version: 6.00 Build 0)  -->
<!DOCTYPE svg PUBLIC "-//W3C//DTD SVG 1.1//EN" "http://www.w3.org/Graphics/SVG/1.1/DTD/svg11.dtd">
<svg version="1.1" id="Layer_1" xmlns="http://www.w3.org/2000/svg" xmlns:xlink="http://www.w3.org/1999/xlink" x="0px" y="0px"
	 width="56px" height="40px" viewBox="0 0 56 40" style="enable-background:new 0 0 56 40;" xml:space="preserve">
<g id="_x38_91-shuffle-selected_x40_2x.png">
	<g>
		<path d="M44,12v3c0,0.553,0.447,1,1,1c0.214,0,0.4-0.082,0.562-0.195l0.011,0.015l10-7l-0.011-0.015C55.82,8.623,56,8.339,56,8
			s-0.18-0.623-0.437-0.805l0.01-0.015l-10-7l-0.01,0.016C45.4,0.082,45.214,0,45,0c-0.553,0-1,0.448-1,1v3H34
			c-1.234,0-2.325,0.572-3.059,1.451l-0.015-0.012L12.126,28H4c-2.209,0-4,1.791-4,4s1.791,4,4,4h10
			c1.235,0,2.325-0.571,3.059-1.451l0.014,0.012L35.873,12H44z M4,12h8.126l4.513,5.416l0.012-0.014
			c0.183,0.243,0.459,0.41,0.786,0.41c0.297,0,0.557-0.136,0.74-0.342l3.948-4.713l-0.015-0.015c0.138-0.171,0.233-0.38,0.233-0.618
			c0-0.35-0.19-0.643-0.462-0.821l0.04-0.046l-4.849-5.818l-0.014,0.012C16.325,4.572,15.235,4,14,4H4C1.791,4,0,5.791,0,8
			S1.791,12,4,12z M55.563,31.196l0.01-0.016l-10-7l-0.011,0.016C45.4,24.082,45.214,24,45,24c-0.553,0-1,0.447-1,1v3h-8.126
			l-4.726-5.67c-0.002-0.002-0.004-0.005-0.006-0.007l-0.04-0.048l-0.011,0.013c-0.177-0.154-0.401-0.257-0.654-0.257
			c-0.26,0-0.492,0.105-0.67,0.268l-0.002-0.002l-0.006,0.008c-0.031,0.029-0.055,0.064-0.083,0.099l-3.942,4.706l0.014,0.014
			c-0.128,0.168-0.218,0.368-0.218,0.596c0,0.289,0.126,0.544,0.322,0.727l-0.011,0.013l5.085,6.103l0.015-0.012
			C31.675,35.429,32.766,36,34,36h10v3c0,0.553,0.447,1,1,1c0.214,0,0.4-0.082,0.563-0.195l0.01,0.015l10-7l-0.011-0.015
			C55.82,32.623,56,32.339,56,32S55.82,31.377,55.563,31.196z"/>
	</g>
</g>
<g>
</g>
<g>
</g>
<g>
</g>
<g>
</g>
<g>
</g>
<g>
</g>
<g>
</g>
<g>
</g>
<g>
</g>
<g>
</g>
<g>
</g>
<g>
</g>
<g>
</g>
<g>
</g>
<g>
</g>
</svg>
