<?xml version="1.0" encoding="iso-8859-1"?>
<!-- Generator: Adobe Illustrator 16.0.4, SVG Export Plug-In . SVG Version: 6.00 Build 0)  -->
<!DOCTYPE svg PUBLIC "-//W3C//DTD SVG 1.1//EN" "http://www.w3.org/Graphics/SVG/1.1/DTD/svg11.dtd">
<svg version="1.1" id="Layer_1" xmlns="http://www.w3.org/2000/svg" xmlns:xlink="http://www.w3.org/1999/xlink" x="0px" y="0px"
	 width="52px" height="56px" viewBox="0 0 52 56" style="enable-background:new 0 0 52 56;" xml:space="preserve">
<g id="_x38_93-airplane-selected_x40_2x.png">
	<g>
		<path d="M51.563,34.195l0.01-0.015L32,20.479V6c0-3.313-2.687-6-6-6s-6,2.687-6,6v14.479L0.427,34.181l0.011,0.015
			C0.18,34.377,0,34.661,0,35v4c0,0.553,0.447,1,1,1c0.131,0,0.255-0.028,0.37-0.074l0.001,0.003l0.018-0.007
			c0.001,0,0.001,0,0.001,0L20,32.477v12.109l-5.707,5.707C14.112,50.474,14,50.725,14,51v4c0,0.553,0.447,1,1,1
			c0.174,0,0.33-0.057,0.472-0.135l0.007,0.013L26,50.14l10.521,5.738l0.007-0.013C36.671,55.943,36.826,56,37,56
			c0.553,0,1-0.447,1-1v-4c0-0.275-0.112-0.525-0.293-0.707L32,44.586V32.477l18.61,7.445h0.001l0.018,0.007l0.001-0.003
			C50.745,39.972,50.869,40,51,40c0.553,0,1-0.447,1-1v-4C52,34.661,51.82,34.377,51.563,34.195z"/>
	</g>
</g>
<g>
</g>
<g>
</g>
<g>
</g>
<g>
</g>
<g>
</g>
<g>
</g>
<g>
</g>
<g>
</g>
<g>
</g>
<g>
</g>
<g>
</g>
<g>
</g>
<g>
</g>
<g>
</g>
<g>
</g>
</svg>
