<?xml version="1.0" encoding="iso-8859-1"?>
<!-- Generator: Adobe Illustrator 16.0.4, SVG Export Plug-In . SVG Version: 6.00 Build 0)  -->
<!DOCTYPE svg PUBLIC "-//W3C//DTD SVG 1.1//EN" "http://www.w3.org/Graphics/SVG/1.1/DTD/svg11.dtd">
<svg version="1.1" id="Layer_1" xmlns="http://www.w3.org/2000/svg" xmlns:xlink="http://www.w3.org/1999/xlink" x="0px" y="0px"
	 width="56.031px" height="40px" viewBox="0 0 56.031 40" style="enable-background:new 0 0 56.031 40;" xml:space="preserve">
<g id="_x38_95-user-group-selected_x40_2x.png">
	<g>
		<path d="M15.332,25.635c0,0,1.005-0.466,1.973-0.719c-1.129-1.044-1.351-1.144-1.351-2.816c0-4.899,2.034-3.5,2.034-8.399
			c0-7.7-5.609-7.7-6.309-7.7s-5.652,0-5.652,7.7c0,4.899,1.972,3.5,1.972,8.399c0,2.101-1.011,1.9-3.407,3.5
			C1.201,27.863,0,28.4,0,34h5.829c0.261-0.707,0.593-1.367,0.966-2C9.416,27.938,15.332,25.635,15.332,25.635z M51.432,25.6
			c-2.4-1.6-3.413-1.399-3.413-3.5c0-4.899,1.976-3.5,1.976-8.399c0-7.7-4.963-7.7-5.663-7.7s-6.319,0-6.319,7.7
			c0,4.899,2.038,3.5,2.038,8.399c0,1.673-0.223,1.772-1.354,2.816c0.97,0.253,1.977,0.719,1.977,0.719S46.6,27.938,49.225,32
			c0.374,0.633,0.706,1.293,0.968,2h5.839C56.031,28.4,54.828,27.863,51.432,25.6z M41,28c-6-3-8-2-8-5c0-7,3-5,3-12c0-11-7-11-8-11
			s-8,0-8,11c0,7,3,5,3,12c0,3-2,2-8,5c-5.215,2.607-8,4-8,12h42C49,32,46.215,30.607,41,28z"/>
	</g>
</g>
<g>
</g>
<g>
</g>
<g>
</g>
<g>
</g>
<g>
</g>
<g>
</g>
<g>
</g>
<g>
</g>
<g>
</g>
<g>
</g>
<g>
</g>
<g>
</g>
<g>
</g>
<g>
</g>
<g>
</g>
</svg>
