<?xml version="1.0" encoding="iso-8859-1"?>
<!-- Generator: Adobe Illustrator 16.0.4, SVG Export Plug-In . SVG Version: 6.00 Build 0)  -->
<!DOCTYPE svg PUBLIC "-//W3C//DTD SVG 1.1//EN" "http://www.w3.org/Graphics/SVG/1.1/DTD/svg11.dtd">
<svg version="1.1" id="Layer_1" xmlns="http://www.w3.org/2000/svg" xmlns:xlink="http://www.w3.org/1999/xlink" x="0px" y="0px"
	 width="56px" height="44px" viewBox="0 0 56 44" style="enable-background:new 0 0 56 44;" xml:space="preserve">
<g id="_x38_97-graduation-cap-selected_x40_2x.png">
	<g>
		<path d="M7.989,42.852L5.401,25.599C6.34,25.094,7,24.142,7,23c0-1.178-0.685-2.187-1.672-2.678
			c0.316-1.411,0.832-2.788,1.375-4.019L4.83,15.61c-0.603,1.265-1.183,2.792-1.521,4.478C1.986,20.401,1,21.582,1,23
			c0,1.276,0.801,2.359,1.925,2.793c-0.43,8.146-2.448,15.455-2.841,16.811c-0.006,0.014-0.007,0.028-0.013,0.043
			c-0.035,0.121-0.061,0.205-0.061,0.205l0.019,0.003C0.021,42.904,0,42.948,0,43c0,0.553,0.447,1,1,1
			c0.501,0,0.897-0.374,0.971-0.854l0.019,0.003c0,0,1.42-5.28,2.304-11.457l1.718,11.457l0.019-0.003C6.103,43.626,6.499,44,7,44
			c0.553,0,1-0.447,1-1c0-0.052-0.021-0.096-0.029-0.146L7.989,42.852z M56,11c0-0.43-0.274-0.789-0.655-0.931l0.003-0.007l-27-10
			l-0.003,0.007C28.236,0.029,28.122,0,28,0s-0.236,0.029-0.345,0.069l-0.003-0.007l-27,10l0.003,0.007C0.274,10.211,0,10.57,0,11
			s0.274,0.789,0.655,0.931l-0.003,0.007l0.692,0.257l0.003-0.007L28,22.059l26.652-9.871l0.003,0.007l0.692-0.257l-0.003-0.007
			C55.726,11.789,56,11.43,56,11z M44.994,34.896l-1.722-16.36l-14.925,5.527l-0.003-0.007c-0.108,0.04-0.223,0.069-0.345,0.069
			s-0.236-0.029-0.345-0.069l-0.003,0.007l-14.925-5.527l-1.722,16.36l0.024,0.003C11.026,34.935,11,34.963,11,35
			c0,0.553,0.447,1,1,1c0.161,0,0.308-0.047,0.442-0.114l0.005,0.009l7.447-3.724L27.4,37.8l0.01-0.014
			C27.577,37.912,27.775,38,28,38c0.226,0,0.423-0.088,0.59-0.214L28.6,37.8l7.506-5.629l7.447,3.724l0.005-0.009
			C43.692,35.953,43.839,36,44,36c0.553,0,1-0.447,1-1c0-0.037-0.026-0.065-0.03-0.102L44.994,34.896z"/>
	</g>
</g>
<g>
</g>
<g>
</g>
<g>
</g>
<g>
</g>
<g>
</g>
<g>
</g>
<g>
</g>
<g>
</g>
<g>
</g>
<g>
</g>
<g>
</g>
<g>
</g>
<g>
</g>
<g>
</g>
<g>
</g>
</svg>
