<?xml version="1.0" encoding="iso-8859-1"?>
<!-- Generator: Adobe Illustrator 16.0.4, SVG Export Plug-In . SVG Version: 6.00 Build 0)  -->
<!DOCTYPE svg PUBLIC "-//W3C//DTD SVG 1.1//EN" "http://www.w3.org/Graphics/SVG/1.1/DTD/svg11.dtd">
<svg version="1.1" id="Layer_1" xmlns="http://www.w3.org/2000/svg" xmlns:xlink="http://www.w3.org/1999/xlink" x="0px" y="0px"
	 width="56.015px" height="55.984px" viewBox="0 0 56.015 55.984" style="enable-background:new 0 0 56.015 55.984;"
	 xml:space="preserve">
<g id="_x38_98-music-note-selected_x40_2x.png">
	<g>
		<path d="M55.013,0c-0.036,0-0.067,0.018-0.104,0.021l-0.001-0.016l-38,4l0.001,0.016C16.408,4.075,16.013,4.484,16.013,5v33.197
			c-1.978-0.306-4.159-0.222-6.366,0.345c-6.503,1.669-10.716,6.809-9.409,11.48c1.308,4.671,7.639,7.104,14.142,5.437
			c5.112-1.312,8.796-4.771,9.508-8.459h0.126v-1.077c0.004-0.126,0.003-0.252,0-0.379V12.892l24-2.77v24.075
			c-1.978-0.306-4.159-0.222-6.366,0.345c-6.503,1.669-10.716,6.809-9.409,11.479c1.308,4.672,7.639,7.106,14.142,5.437
			c5.112-1.312,8.795-4.77,9.508-8.458h0.126v-1.078c0.004-0.125,0.003-0.251,0-0.377V1C56.013,0.448,55.565,0,55.013,0z"/>
	</g>
</g>
<g>
</g>
<g>
</g>
<g>
</g>
<g>
</g>
<g>
</g>
<g>
</g>
<g>
</g>
<g>
</g>
<g>
</g>
<g>
</g>
<g>
</g>
<g>
</g>
<g>
</g>
<g>
</g>
<g>
</g>
</svg>
