<?xml version="1.0" encoding="iso-8859-1"?>
<!-- Generator: Adobe Illustrator 16.0.4, SVG Export Plug-In . SVG Version: 6.00 Build 0)  -->
<!DOCTYPE svg PUBLIC "-//W3C//DTD SVG 1.1//EN" "http://www.w3.org/Graphics/SVG/1.1/DTD/svg11.dtd">
<svg version="1.1" id="Layer_1" xmlns="http://www.w3.org/2000/svg" xmlns:xlink="http://www.w3.org/1999/xlink" x="0px" y="0px"
	 width="56px" height="56px" viewBox="0 0 56 56" style="enable-background:new 0 0 56 56;" xml:space="preserve">
<g id="_x38_99-key-selected_x40_2x.png">
	<g>
		<path d="M14,10c-2.209,0-4,1.791-4,4s1.791,4,4,4s4-1.791,4-4S16.209,10,14,10z M55.707,44.293l-20.63-20.63
			C35.668,21.881,36,19.98,36,18c0-9.941-8.059-18-18-18S0,8.059,0,18s8.059,18,18,18c1.981,0,3.882-0.331,5.662-0.924l8.631,8.631
			C32.474,43.888,32.724,44,33,44h5v5c0,0.553,0.447,1,1,1h5v5c0,0.553,0.447,1,1,1h10c0.553,0,1-0.447,1-1V45
			C56,44.724,55.888,44.474,55.707,44.293z M14,20c-3.313,0-6-2.686-6-6c0-3.313,2.687-6,6-6s6,2.687,6,6C20,17.314,17.313,20,14,20
			z"/>
	</g>
</g>
<g>
</g>
<g>
</g>
<g>
</g>
<g>
</g>
<g>
</g>
<g>
</g>
<g>
</g>
<g>
</g>
<g>
</g>
<g>
</g>
<g>
</g>
<g>
</g>
<g>
</g>
<g>
</g>
<g>
</g>
</svg>
