<?xml version="1.0" encoding="iso-8859-1"?>
<!-- Generator: Adobe Illustrator 16.0.4, SVG Export Plug-In . SVG Version: 6.00 Build 0)  -->
<!DOCTYPE svg PUBLIC "-//W3C//DTD SVG 1.1//EN" "http://www.w3.org/Graphics/SVG/1.1/DTD/svg11.dtd">
<svg version="1.1" id="Layer_1" xmlns="http://www.w3.org/2000/svg" xmlns:xlink="http://www.w3.org/1999/xlink" x="0px" y="0px"
	 width="56px" height="54px" viewBox="0 0 56 54" style="enable-background:new 0 0 56 54;" xml:space="preserve">
<g id="_x39_00-telescope-selected_x40_2x.png">
	<g>
		<path d="M7.333,20.176L8,22.056l-0.009,0.003l1.998,5.639l0.012-0.004l0.668,1.88l9.125-3.405l-3.33-9.399L7.333,20.176z
			 M6.117,22.758L2.5,24.108l-0.668-1.881L0,22.911l0.668,1.881H0.667l0.968,2.725l1.701,4.793l1.833-0.685l-0.668-1.88l3.614-1.349
			L6.117,22.758z M39.628,5.997l-21.956,8.192l4.051,11.433l0.613,1.727l6.309-2.354l-8.6,27.709
			c-0.164,0.528,0.131,1.088,0.658,1.252C20.803,53.985,20.902,54,21,54c0.427,0,0.822-0.274,0.955-0.703L27.323,36h5.354
			l5.368,17.297C38.178,53.726,38.573,54,39,54c0.098,0,0.198-0.015,0.297-0.045c0.527-0.164,0.822-0.724,0.658-1.252l-8.881-28.615
			l13.216-4.932L39.628,5.997z M32.057,34h-4.113L30,27.374L32.057,34z M49.995,0l-9.159,3.418l5.328,15.038h0.002l0.668,1.879
			L56,16.915L49.995,0z"/>
	</g>
</g>
<g>
</g>
<g>
</g>
<g>
</g>
<g>
</g>
<g>
</g>
<g>
</g>
<g>
</g>
<g>
</g>
<g>
</g>
<g>
</g>
<g>
</g>
<g>
</g>
<g>
</g>
<g>
</g>
<g>
</g>
</svg>
