<?xml version="1.0" encoding="iso-8859-1"?>
<!-- Generator: Adobe Illustrator 16.0.4, SVG Export Plug-In . SVG Version: 6.00 Build 0)  -->
<!DOCTYPE svg PUBLIC "-//W3C//DTD SVG 1.1//EN" "http://www.w3.org/Graphics/SVG/1.1/DTD/svg11.dtd">
<svg version="1.1" id="Layer_1" xmlns="http://www.w3.org/2000/svg" xmlns:xlink="http://www.w3.org/1999/xlink" x="0px" y="0px"
	 width="56px" height="28px" viewBox="0 0 56 28" style="enable-background:new 0 0 56 28;" xml:space="preserve">
<g id="_x31_002-bow-tie-selected_x40_2x.png">
	<g>
		<path d="M3.409,0.092C3.283,0.035,3.146,0,3,0C2,0,0,0,0,14s2,14,3,14c0.146,0,0.283-0.035,0.409-0.092l0.001,0.004L20,20.446
			V7.554L3.41,0.088L3.409,0.092z M53.052,0c-0.144,0-0.278,0.035-0.401,0.092l-0.002-0.004L36,7.713v12.575l16.648,7.624
			l0.002-0.004C52.773,27.965,52.908,28,53.052,28C54.035,28,56,28,56,14S54.035,0,53.052,0z M32,8h-8c-1.104,0-2,0.896-2,2v8
			c0,1.104,0.896,2,2,2h8c1.104,0,2-0.896,2-2v-8C34,8.896,33.104,8,32,8z"/>
	</g>
</g>
<g>
</g>
<g>
</g>
<g>
</g>
<g>
</g>
<g>
</g>
<g>
</g>
<g>
</g>
<g>
</g>
<g>
</g>
<g>
</g>
<g>
</g>
<g>
</g>
<g>
</g>
<g>
</g>
<g>
</g>
</svg>
