<?xml version="1.0" encoding="iso-8859-1"?>
<!-- Generator: Adobe Illustrator 16.0.4, SVG Export Plug-In . SVG Version: 6.00 Build 0)  -->
<!DOCTYPE svg PUBLIC "-//W3C//DTD SVG 1.1//EN" "http://www.w3.org/Graphics/SVG/1.1/DTD/svg11.dtd">
<svg version="1.1" id="Layer_1" xmlns="http://www.w3.org/2000/svg" xmlns:xlink="http://www.w3.org/1999/xlink" x="0px" y="0px"
	 width="56px" height="44px" viewBox="0 0 56 44" style="enable-background:new 0 0 56 44;" xml:space="preserve">
<g id="_x31_003-game-controller-selected_x40_2x.png">
	<g>
		<path d="M42,16H29c0-14,8-14,8-14c0.553,0,1-0.447,1-1s-0.447-1-1-1c0,0-10,0-10,16H14C6.268,16,0,22.268,0,30s6.268,14,14,14
			c4.755,0,8.95-2.376,11.48-6h5.039c2.53,3.624,6.726,6,11.48,6c7.732,0,14-6.268,14-14S49.732,16,42,16z M20,31h-5v5h-2v-5H8v-2h5
			v-5h2v5h5V31z M39,35c-1.104,0-2-0.896-2-2s0.896-2,2-2s2,0.896,2,2S40.104,35,39,35z M45,29c-1.104,0-2-0.896-2-2s0.896-2,2-2
			s2,0.896,2,2S46.104,29,45,29z"/>
	</g>
</g>
<g>
</g>
<g>
</g>
<g>
</g>
<g>
</g>
<g>
</g>
<g>
</g>
<g>
</g>
<g>
</g>
<g>
</g>
<g>
</g>
<g>
</g>
<g>
</g>
<g>
</g>
<g>
</g>
<g>
</g>
</svg>
