<?xml version="1.0" encoding="iso-8859-1"?>
<!-- Generator: Adobe Illustrator 16.0.4, SVG Export Plug-In . SVG Version: 6.00 Build 0)  -->
<!DOCTYPE svg PUBLIC "-//W3C//DTD SVG 1.1//EN" "http://www.w3.org/Graphics/SVG/1.1/DTD/svg11.dtd">
<svg version="1.1" id="Layer_1" xmlns="http://www.w3.org/2000/svg" xmlns:xlink="http://www.w3.org/1999/xlink" x="0px" y="0px"
	 width="56px" height="56px" viewBox="0 0 56 56" style="enable-background:new 0 0 56 56;" xml:space="preserve">
<g id="_x31_006-eight-ball-selected_x40_2x.png">
	<g>
		<path d="M32.682,24.742c-1.244,0.778-1.765,1.951-1.435,3.191c0.292,1.275,1.53,2.173,3.062,1.761
			c1.443-0.389,2.146-1.587,1.805-2.873C35.709,25.307,34.401,24.772,32.682,24.742z M32,12c-6.627,0-12,5.373-12,12s5.373,12,12,12
			s12-5.373,12-12S38.627,12,32,12z M34.752,31.716c-3.374,0.907-5.659-0.618-6.216-2.708c-0.495-1.86,0.212-3.404,1.675-4.609
			l-0.019-0.069c-1.711-0.352-2.729-1.406-3.077-2.716c-0.648-2.434,0.998-4.648,3.729-5.383c3.107-0.836,5.041,0.711,5.53,2.548
			c0.336,1.263,0.041,2.745-1.321,3.973l0.019,0.069c1.741,0.196,3.26,1.165,3.755,3.025C39.535,28.51,37.837,30.886,34.752,31.716z
			 M33.856,19.775c-0.275-1.033-1.161-1.951-2.627-1.557c-1.376,0.37-1.836,1.502-1.548,2.582c0.323,1.217,1.496,1.688,2.977,1.709
			C33.555,21.948,34.156,20.9,33.856,19.775z M28,0C12.536,0,0,12.536,0,28s12.536,28,28,28s28-12.536,28-28S43.464,0,28,0z M32,38
			c-7.732,0-14-6.268-14-14s6.268-14,14-14s14,6.268,14,14S39.732,38,32,38z"/>
	</g>
</g>
<g>
</g>
<g>
</g>
<g>
</g>
<g>
</g>
<g>
</g>
<g>
</g>
<g>
</g>
<g>
</g>
<g>
</g>
<g>
</g>
<g>
</g>
<g>
</g>
<g>
</g>
<g>
</g>
<g>
</g>
</svg>
