<?xml version="1.0" encoding="iso-8859-1"?>
<!-- Generator: Adobe Illustrator 16.0.4, SVG Export Plug-In . SVG Version: 6.00 Build 0)  -->
<!DOCTYPE svg PUBLIC "-//W3C//DTD SVG 1.1//EN" "http://www.w3.org/Graphics/SVG/1.1/DTD/svg11.dtd">
<svg version="1.1" id="Layer_1" xmlns="http://www.w3.org/2000/svg" xmlns:xlink="http://www.w3.org/1999/xlink" x="0px" y="0px"
	 width="56px" height="56.001px" viewBox="0 0 56 56.001" style="enable-background:new 0 0 56 56.001;" xml:space="preserve">
<g id="_x31_007-price-tag-selected_x40_2x.png">
	<g>
		<path d="M35,24.001c0,1.657-1.343,3-3,3s-3-1.343-3-3c0-1.546,1.175-2.805,2.678-2.968c0.613-2.07,1.717-4.899,3.592-7.177
			l-1.562-1.562c-0.181-0.181-0.431-0.293-0.707-0.293H23c-0.276,0-0.526,0.112-0.707,0.293l-22,22C0.112,34.475,0,34.725,0,35.001
			s0.112,0.526,0.293,0.707l20,20c0.181,0.182,0.431,0.293,0.707,0.293s0.526-0.111,0.707-0.293l22-22
			C43.888,33.527,44,33.277,44,33.001v-10c0-0.276-0.112-0.526-0.293-0.707l-6.995-6.995c-1.556,1.946-2.515,4.373-3.07,6.195
			C34.458,22.03,35,22.951,35,24.001z M25.86,32.86c-0.482-0.382-1.353-1.143-2.899-1.559c-1.593-0.427-2.368,0.191-2.563,0.92
			c-0.235,0.879,0.452,1.592,2.191,2.839c2.308,1.584,3.136,3.046,2.626,4.953c-0.488,1.821-2.261,3.068-4.867,2.782l-0.591,2.207
			l-1.866-0.5l0.557-2.078c-1.422-0.428-2.753-1.198-3.434-1.933l1.153-1.849c0.755,0.73,1.909,1.522,3.298,1.895
			c1.434,0.385,2.59-0.017,2.865-1.046c0.258-0.964-0.372-1.799-1.901-2.829c-2.172-1.455-3.444-2.899-2.911-4.892
			c0.494-1.843,2.237-2.892,4.64-2.66l0.562-2.1l1.866,0.5l-0.533,1.993c1.422,0.428,2.314,1.011,2.951,1.549L25.86,32.86z
			 M55.427,0.098c-0.5-0.239-1.095-0.021-1.331,0.478C54.051,0.669,49.57,10.001,43,10.001c-3.452,0-5.938,1.678-7.73,3.855
			l1.442,1.442c1.494-1.868,3.524-3.298,6.288-3.298c7.824,0,12.7-10.141,12.904-10.572C56.14,0.929,55.927,0.333,55.427,0.098z
			 M31.678,21.034c-0.456,1.538-0.643,2.659-0.666,2.815c-0.084,0.546,0.29,1.056,0.836,1.14c0.052,0.009,0.103,0.013,0.153,0.013
			c0.485,0,0.911-0.354,0.987-0.849c0.006-0.036,0.189-1.138,0.653-2.659c-0.473-0.31-1.035-0.493-1.642-0.493
			C31.89,21.001,31.785,21.022,31.678,21.034z"/>
	</g>
</g>
<g>
</g>
<g>
</g>
<g>
</g>
<g>
</g>
<g>
</g>
<g>
</g>
<g>
</g>
<g>
</g>
<g>
</g>
<g>
</g>
<g>
</g>
<g>
</g>
<g>
</g>
<g>
</g>
<g>
</g>
</svg>
