<?xml version="1.0" encoding="iso-8859-1"?>
<!-- Generator: Adobe Illustrator 16.0.4, SVG Export Plug-In . SVG Version: 6.00 Build 0)  -->
<!DOCTYPE svg PUBLIC "-//W3C//DTD SVG 1.1//EN" "http://www.w3.org/Graphics/SVG/1.1/DTD/svg11.dtd">
<svg version="1.1" id="Layer_1" xmlns="http://www.w3.org/2000/svg" xmlns:xlink="http://www.w3.org/1999/xlink" x="0px" y="0px"
	 width="56px" height="44px" viewBox="0 0 56 44" style="enable-background:new 0 0 56 44;" xml:space="preserve">
<g id="_x31_009-laptop-selected_x40_2x.png">
	<g>
		<path d="M53.441,36C53.788,35.41,54,34.733,54,34V4c0-2.209-1.791-4-4-4H6C3.791,0,2,1.791,2,4v30c0,0.733,0.212,1.41,0.559,2
			H53.441z M55.937,42.688l0.012-0.004l-0.023-0.055c-0.005-0.012-0.009-0.023-0.015-0.034L53.941,38H2.059L0.09,42.595
			c-0.005,0.011-0.01,0.022-0.015,0.034l-0.023,0.055l0.012,0.004C0.029,42.787,0,42.89,0,43c0,0.553,0.447,1,1,1h54
			c0.553,0,1-0.447,1-1C56,42.89,55.971,42.787,55.937,42.688z"/>
	</g>
</g>
<g>
</g>
<g>
</g>
<g>
</g>
<g>
</g>
<g>
</g>
<g>
</g>
<g>
</g>
<g>
</g>
<g>
</g>
<g>
</g>
<g>
</g>
<g>
</g>
<g>
</g>
<g>
</g>
<g>
</g>
</svg>
