<?xml version="1.0" encoding="iso-8859-1"?>
<!-- Generator: Adobe Illustrator 16.0.4, SVG Export Plug-In . SVG Version: 6.00 Build 0)  -->
<!DOCTYPE svg PUBLIC "-//W3C//DTD SVG 1.1//EN" "http://www.w3.org/Graphics/SVG/1.1/DTD/svg11.dtd">
<svg version="1.1" id="Layer_1" xmlns="http://www.w3.org/2000/svg" xmlns:xlink="http://www.w3.org/1999/xlink" x="0px" y="0px"
	 width="44px" height="56px" viewBox="0 0 44 56" style="enable-background:new 0 0 44 56;" xml:space="preserve">
<g id="_x31_010-tablet-selected_x40_2x.png">
	<g>
		<path d="M40,0H4C1.791,0,0,1.791,0,4v48c0,2.209,1.791,4,4,4h36c2.209,0,4-1.791,4-4V4C44,1.791,42.209,0,40,0z M22,52
			c-0.553,0-1-0.447-1-1s0.447-1,1-1s1,0.447,1,1S22.553,52,22,52z M40,48H4V4h36V48z M38,6H6v40h32V6z"/>
	</g>
</g>
<g>
</g>
<g>
</g>
<g>
</g>
<g>
</g>
<g>
</g>
<g>
</g>
<g>
</g>
<g>
</g>
<g>
</g>
<g>
</g>
<g>
</g>
<g>
</g>
<g>
</g>
<g>
</g>
<g>
</g>
</svg>
