<?xml version="1.0" encoding="iso-8859-1"?>
<!-- Generator: Adobe Illustrator 16.0.4, SVG Export Plug-In . SVG Version: 6.00 Build 0)  -->
<!DOCTYPE svg PUBLIC "-//W3C//DTD SVG 1.1//EN" "http://www.w3.org/Graphics/SVG/1.1/DTD/svg11.dtd">
<svg version="1.1" id="Layer_1" xmlns="http://www.w3.org/2000/svg" xmlns:xlink="http://www.w3.org/1999/xlink" x="0px" y="0px"
	 width="44px" height="56px" viewBox="0 0 44 56" style="enable-background:new 0 0 44 56;" xml:space="preserve">
<g id="_x31_011-notepad-selected_x40_2x.png">
	<g>
		<path d="M42,4h-3V1c0-0.552-0.447-1-1-1s-1,0.448-1,1v3h-6V1c0-0.552-0.447-1-1-1s-1,0.448-1,1v3h-6V1c0-0.552-0.447-1-1-1
			c-0.552,0-1,0.448-1,1v3h-6V1c0-0.552-0.448-1-1-1s-1,0.448-1,1v3H7V1c0-0.552-0.448-1-1-1S5,0.448,5,1v3H2C0.896,4,0,4.896,0,6
			v48c0,1.104,0.896,2,2,2h40c1.104,0,2-0.896,2-2V6C44,4.896,43.104,4,42,4z M26,44H8v-2h18V44z M36,38H8v-2h28V38z M36,32H8v-2h28
			V32z M36,26H8v-2h28V26z M36,20H8v-2h28V20z M36,14H8v-2h28V14z"/>
	</g>
</g>
<g>
</g>
<g>
</g>
<g>
</g>
<g>
</g>
<g>
</g>
<g>
</g>
<g>
</g>
<g>
</g>
<g>
</g>
<g>
</g>
<g>
</g>
<g>
</g>
<g>
</g>
<g>
</g>
<g>
</g>
</svg>
