<?xml version="1.0" encoding="iso-8859-1"?>
<!-- Generator: Adobe Illustrator 16.0.4, SVG Export Plug-In . SVG Version: 6.00 Build 0)  -->
<!DOCTYPE svg PUBLIC "-//W3C//DTD SVG 1.1//EN" "http://www.w3.org/Graphics/SVG/1.1/DTD/svg11.dtd">
<svg version="1.1" id="Layer_1" xmlns="http://www.w3.org/2000/svg" xmlns:xlink="http://www.w3.org/1999/xlink" x="0px" y="0px"
	 width="56px" height="36px" viewBox="0 0 56 36" style="enable-background:new 0 0 56 36;" xml:space="preserve">
<g id="_x31_015-magic-lamp-selected_x40_2x.png">
	<g>
		<path d="M29,4c0-2.209-1.791-4-4-4s-4,1.791-4,4s1.791,4,4,4S29,6.209,29,4z M34.922,12C32.801,9.655,29.543,8,25,8
			c-4.545,0-7.811,1.654-9.934,4H34.922z M56,17c0-0.553-0.447-1-1-1H37.301c-0.241-0.685-0.555-1.354-0.926-2H15.699
			C14.153,12.479,11.15,9.994,8,9.994c-4.785,0-8,4.435-8,8.781c0,2.214,1.568,5.166,4.567,6.527
			c0.776,0.352,1.884,0.693,3.258,0.693c1.515,0,3.36-0.438,5.44-1.709c1.609,2.596,4.627,4.575,8.299,5.349l-1.387,2.772
			l-1.885,1.885C18.112,34.474,18,34.724,18,35c0,0.553,0.447,1,1,1h12c0.553,0,1-0.447,1-1c0-0.276-0.112-0.526-0.293-0.707
			l-1.885-1.885l-1.385-2.769c1.062-0.226,2.069-0.55,3.005-0.962l0.006,0.013l23.969-10.781l-0.003-0.005
			C55.759,17.746,56,17.403,56,17z M12,20c0,0.853,0.141,1.68,0.401,2.469c-2.5,1.578-4.935,1.951-7.008,1.013
			C3.189,22.48,2,20.31,2,18.775c0-3.311,2.464-6.781,6-6.781c1.937,0,3.941,1.355,5.347,2.562C12.458,16.304,12,18.197,12,20z"/>
	</g>
</g>
<g>
</g>
<g>
</g>
<g>
</g>
<g>
</g>
<g>
</g>
<g>
</g>
<g>
</g>
<g>
</g>
<g>
</g>
<g>
</g>
<g>
</g>
<g>
</g>
<g>
</g>
<g>
</g>
<g>
</g>
</svg>
