<?xml version="1.0" encoding="iso-8859-1"?>
<!-- Generator: Adobe Illustrator 16.0.4, SVG Export Plug-In . SVG Version: 6.00 Build 0)  -->
<!DOCTYPE svg PUBLIC "-//W3C//DTD SVG 1.1//EN" "http://www.w3.org/Graphics/SVG/1.1/DTD/svg11.dtd">
<svg version="1.1" id="Layer_1" xmlns="http://www.w3.org/2000/svg" xmlns:xlink="http://www.w3.org/1999/xlink" x="0px" y="0px"
	 width="56px" height="44px" viewBox="0 0 56 44" style="enable-background:new 0 0 56 44;" xml:space="preserve">
<g id="_x31_018-box-selected_x40_2x.png">
	<g>
		<path d="M50,33c0,0.553-0.447,1-1,1c-0.276,0-0.526-0.112-0.707-0.293L45,30.414l-3.293,3.293C41.526,33.889,41.276,34,41,34
			c-0.553,0-1-0.447-1-1V12H0v30c0,1.104,0.896,2,2,2h52c1.104,0,2-0.896,2-2V12h-6V33z M36,22c0,1.104-0.896,2-2,2H22
			c-1.104,0-2-0.896-2-2v-2c0-1.104,0.896-2,2-2h12c1.104,0,2,0.896,2,2V22z M54,0H2C0.896,0,0,0.896,0,2v8h56V2
			C56,0.896,55.104,0,54,0z M45.707,28.293L48,30.586V12h-6v18.586l2.293-2.293C44.474,28.112,44.724,28,45,28
			S45.526,28.112,45.707,28.293z"/>
	</g>
</g>
<g>
</g>
<g>
</g>
<g>
</g>
<g>
</g>
<g>
</g>
<g>
</g>
<g>
</g>
<g>
</g>
<g>
</g>
<g>
</g>
<g>
</g>
<g>
</g>
<g>
</g>
<g>
</g>
<g>
</g>
</svg>
