<?xml version="1.0" encoding="iso-8859-1"?>
<!-- Generator: Adobe Illustrator 16.0.4, SVG Export Plug-In . SVG Version: 6.00 Build 0)  -->
<!DOCTYPE svg PUBLIC "-//W3C//DTD SVG 1.1//EN" "http://www.w3.org/Graphics/SVG/1.1/DTD/svg11.dtd">
<svg version="1.1" id="Layer_1" xmlns="http://www.w3.org/2000/svg" xmlns:xlink="http://www.w3.org/1999/xlink" x="0px" y="0px"
	 width="55.981px" height="51.977px" viewBox="0 0 55.981 51.977" style="enable-background:new 0 0 55.981 51.977;"
	 xml:space="preserve">
<g id="_x31_021-radiation-selected_x40_2x.png">
	<g>
		<path d="M18.981,23.984c0-3.048,1.53-5.867,4.091-7.542l0.829-0.541L13.531,0l-0.83,0.543C4.748,5.741,0,14.504,0,23.984v0.992
			h18.981V23.984z M27.99,28.989c2.76,0,5.005-2.244,5.005-5.005c0-2.76-2.245-5.004-5.005-5.004s-5.005,2.244-5.005,5.004
			C22.985,26.745,25.23,28.989,27.99,28.989z M32.908,31.528c-2.936,1.919-6.9,1.917-9.835-0.001l-0.83-0.543l-10.37,15.901
			l0.828,0.54c4.554,2.977,9.841,4.551,15.29,4.551c5.448,0,10.735-1.574,15.289-4.551l0.828-0.54l-10.37-15.901L32.908,31.528z
			 M43.279,0.543L42.449,0L32.08,15.901l0.828,0.541C35.47,18.117,37,20.937,37,23.984v0.992h18.981v-0.992
			C55.981,14.504,51.233,5.741,43.279,0.543z"/>
	</g>
</g>
<g>
</g>
<g>
</g>
<g>
</g>
<g>
</g>
<g>
</g>
<g>
</g>
<g>
</g>
<g>
</g>
<g>
</g>
<g>
</g>
<g>
</g>
<g>
</g>
<g>
</g>
<g>
</g>
<g>
</g>
</svg>
