<?xml version="1.0" encoding="iso-8859-1"?>
<!-- Generator: Adobe Illustrator 16.0.4, SVG Export Plug-In . SVG Version: 6.00 Build 0)  -->
<!DOCTYPE svg PUBLIC "-//W3C//DTD SVG 1.1//EN" "http://www.w3.org/Graphics/SVG/1.1/DTD/svg11.dtd">
<svg version="1.1" id="Layer_1" xmlns="http://www.w3.org/2000/svg" xmlns:xlink="http://www.w3.org/1999/xlink" x="0px" y="0px"
	 width="40px" height="56px" viewBox="0 0 40 56" style="enable-background:new 0 0 40 56;" xml:space="preserve">
<g id="_x31_024-airplay-speaker-selected_x40_2x.png">
	<g>
		<path d="M20,10c-5.522,0-10,4.478-10,10s4.478,10,10,10s10-4.478,10-10S25.522,10,20,10z M20,24c-2.209,0-4-1.791-4-4s1.791-4,4-4
			s4,1.791,4,4S22.209,24,20,24z M0,0v56h40V0H0z M11,48c-1.657,0-3-1.343-3-3c0-1.656,1.343-3,3-3s3,1.344,3,3
			C14,46.657,12.657,48,11,48z M20,32c-6.627,0-12-5.373-12-12S13.373,8,20,8s12,5.373,12,12S26.627,32,20,32z"/>
	</g>
</g>
<g>
</g>
<g>
</g>
<g>
</g>
<g>
</g>
<g>
</g>
<g>
</g>
<g>
</g>
<g>
</g>
<g>
</g>
<g>
</g>
<g>
</g>
<g>
</g>
<g>
</g>
<g>
</g>
<g>
</g>
</svg>
