<?xml version="1.0" encoding="iso-8859-1"?>
<!-- Generator: Adobe Illustrator 16.0.4, SVG Export Plug-In . SVG Version: 6.00 Build 0)  -->
<!DOCTYPE svg PUBLIC "-//W3C//DTD SVG 1.1//EN" "http://www.w3.org/Graphics/SVG/1.1/DTD/svg11.dtd">
<svg version="1.1" id="Layer_1" xmlns="http://www.w3.org/2000/svg" xmlns:xlink="http://www.w3.org/1999/xlink" x="0px" y="0px"
	 width="56px" height="27.998px" viewBox="0 0 56 27.998" style="enable-background:new 0 0 56 27.998;" xml:space="preserve">
<g id="_x31_028-whale-selected_x40_2x.png">
	<g>
		<path d="M41,21.994c6.274,0,11.24-0.976,14.354-1.814C55.76,18.979,56,17.599,56,15.998c0-5.779-4.694-12-15-12
			c-13.04,0-14.286,5.615-15.287,10.128c-0.784,3.536-1.303,5.872-6.713,5.872c-3.508,0-5.513-1.422-5.958-4.226
			c-0.021-0.235-0.044-0.773-0.044-0.773s1.291,0.003,2.113,0.003c6.284,0,9.889-2.414,9.889-7.004c0-4.364-1.949-5.957-2.043-6.051
			L21.008,0L21,1.996c0,0.038-0.089,3.749-1.793,3.749c-0.447,0-1.033-0.208-1.692-0.604l-0.198-0.09
			c-0.509-0.171-1.026-0.257-1.538-0.257c-1.616,0-2.873,0.84-3.664,1.574c-0.709-0.88-1.88-1.93-3.442-1.93
			c-0.753,0-1.502,0.245-2.227,0.728C5.695,5.666,5.27,5.74,5.083,5.74c-0.001,0-0.002,0-0.002,0c-0.122,0-0.402-0.004-0.677-0.729
			C4.136,4.299,4,3.2,4,1.748V0.006c0,0-1.593,1.2-1.968,1.738C1.305,2.79,0,3.751,0,8.998c0,4.02,3.145,6.015,8.855,6.015
			c0.814,0,2.113-0.037,2.113-0.037s0.039,0.723,0.088,1.044C11.403,19.646,13.461,27.998,25,27.998h18
			c0.1,0,7.646-0.087,11.193-5.432c-2.997,0.725-7.386,1.428-13.193,1.428c-0.553,0-1-0.447-1-1S40.447,21.994,41,21.994z
			 M39,18.994c-1.104,0-2-0.896-2-2s0.896-2,2-2s2,0.896,2,2S40.104,18.994,39,18.994z"/>
	</g>
</g>
<g>
</g>
<g>
</g>
<g>
</g>
<g>
</g>
<g>
</g>
<g>
</g>
<g>
</g>
<g>
</g>
<g>
</g>
<g>
</g>
<g>
</g>
<g>
</g>
<g>
</g>
<g>
</g>
<g>
</g>
</svg>
