<?xml version="1.0" encoding="iso-8859-1"?>
<!-- Generator: Adobe Illustrator 16.0.4, SVG Export Plug-In . SVG Version: 6.00 Build 0)  -->
<!DOCTYPE svg PUBLIC "-//W3C//DTD SVG 1.1//EN" "http://www.w3.org/Graphics/SVG/1.1/DTD/svg11.dtd">
<svg version="1.1" id="Layer_1" xmlns="http://www.w3.org/2000/svg" xmlns:xlink="http://www.w3.org/1999/xlink" x="0px" y="0px"
	 width="56px" height="28px" viewBox="0 0 56 28" style="enable-background:new 0 0 56 28;" xml:space="preserve">
<g id="_x31_029-fish-selected_x40_2x.png">
	<g>
		<path d="M52.414,14l3.293-3.293C55.888,10.526,56,10.276,56,10c0-0.528-0.413-0.949-0.933-0.986C53.057,3.747,47.973,0,42,0
			c-0.518,0-1.06,0.022-1.611,0.055C39.058,2.441,36,8.519,36,14s3.058,11.559,4.388,13.945C40.94,27.978,41.482,28,42,28
			c5.973,0,11.057-3.747,13.067-9.014C55.587,18.949,56,18.528,56,18c0-0.276-0.112-0.526-0.293-0.707L52.414,14z M45,11
			c-1.104,0-2-0.896-2-2s0.896-2,2-2s2,0.896,2,2S46.104,11,45,11z M38.2,0.251C29.12,1.344,17.02,5.849,11.285,9.947l-9.66-7.729
			L1.615,2.23C1.444,2.094,1.236,2,1,2C0.447,2,0,2.447,0,3v22c0,0.553,0.447,1,1,1c0.236,0,0.444-0.094,0.615-0.23l0.01,0.012
			l9.66-7.729c5.734,4.099,17.835,8.604,26.915,9.696C36.788,25.389,34,19.975,34,14S36.788,2.611,38.2,0.251z"/>
	</g>
</g>
<g>
</g>
<g>
</g>
<g>
</g>
<g>
</g>
<g>
</g>
<g>
</g>
<g>
</g>
<g>
</g>
<g>
</g>
<g>
</g>
<g>
</g>
<g>
</g>
<g>
</g>
<g>
</g>
<g>
</g>
</svg>
