<?xml version="1.0" encoding="iso-8859-1"?>
<!-- Generator: Adobe Illustrator 16.0.4, SVG Export Plug-In . SVG Version: 6.00 Build 0)  -->
<!DOCTYPE svg PUBLIC "-//W3C//DTD SVG 1.1//EN" "http://www.w3.org/Graphics/SVG/1.1/DTD/svg11.dtd">
<svg version="1.1" id="Layer_1" xmlns="http://www.w3.org/2000/svg" xmlns:xlink="http://www.w3.org/1999/xlink" x="0px" y="0px"
	 width="56px" height="52px" viewBox="0 0 56 52" style="enable-background:new 0 0 56 52;" xml:space="preserve">
<g id="_x31_031-stamp-selected_x40_2x.png">
	<g>
		<path d="M24,19.162V35c0,2.209,1.791,4,4,4s4-1.791,4-4V19.162c3.53-1.543,6-5.062,6-9.162c0-5.522-4.478-10-10-10
			c-5.523,0-10,4.478-10,10C18,14.1,20.47,17.619,24,19.162z M49.929,34.629l-0.003,0.001C49.777,34.262,49.421,34,49,34H35
			c-0.553,0-1,0.447-1,1c0,3.313-2.687,6-6,6s-6-2.687-6-6c0-0.553-0.448-1-1-1H7c-0.421,0-0.778,0.262-0.925,0.63l-0.003-0.001
			L2.323,44h51.354L49.929,34.629z M0,46v5c0,0.553,0.448,1,1,1h54c0.553,0,1-0.447,1-1v-5H0z"/>
	</g>
</g>
<g>
</g>
<g>
</g>
<g>
</g>
<g>
</g>
<g>
</g>
<g>
</g>
<g>
</g>
<g>
</g>
<g>
</g>
<g>
</g>
<g>
</g>
<g>
</g>
<g>
</g>
<g>
</g>
<g>
</g>
</svg>
