<?xml version="1.0" encoding="iso-8859-1"?>
<!-- Generator: Adobe Illustrator 16.0.4, SVG Export Plug-In . SVG Version: 6.00 Build 0)  -->
<!DOCTYPE svg PUBLIC "-//W3C//DTD SVG 1.1//EN" "http://www.w3.org/Graphics/SVG/1.1/DTD/svg11.dtd">
<svg version="1.1" id="Layer_1" xmlns="http://www.w3.org/2000/svg" xmlns:xlink="http://www.w3.org/1999/xlink" x="0px" y="0px"
	 width="56px" height="55.949px" viewBox="0 0 56 55.949" style="enable-background:new 0 0 56 55.949;" xml:space="preserve">
<g id="_x31_035-pie-chart-selected_x40_2x.png">
	<g>
		<path d="M29,0v26.527l24.988-8.977C49.974,7.545,40.35,0.401,29,0z M27.206,28.527C27.085,28.362,27,28.169,27,27.949V0
			C12.003,0.53,0,12.823,0,27.949c0,15.464,12.536,28,28,28c5.789,0,11.167-1.758,15.631-4.768L27.191,28.537L27.206,28.527z
			 M54.663,19.434l-25.071,9.006l15.643,21.547C51.778,44.861,56,36.906,56,27.949C56,24.977,55.521,22.119,54.663,19.434z"/>
	</g>
</g>
<g>
</g>
<g>
</g>
<g>
</g>
<g>
</g>
<g>
</g>
<g>
</g>
<g>
</g>
<g>
</g>
<g>
</g>
<g>
</g>
<g>
</g>
<g>
</g>
<g>
</g>
<g>
</g>
<g>
</g>
</svg>
