<?xml version="1.0" encoding="iso-8859-1"?>
<!-- Generator: Adobe Illustrator 16.0.4, SVG Export Plug-In . SVG Version: 6.00 Build 0)  -->
<!DOCTYPE svg PUBLIC "-//W3C//DTD SVG 1.1//EN" "http://www.w3.org/Graphics/SVG/1.1/DTD/svg11.dtd">
<svg version="1.1" id="Layer_1" xmlns="http://www.w3.org/2000/svg" xmlns:xlink="http://www.w3.org/1999/xlink" x="0px" y="0px"
	 width="56px" height="48px" viewBox="0 0 56 48" style="enable-background:new 0 0 56 48;" xml:space="preserve">
<g id="_x31_036-sword-selected_x40_2x.png">
	<g>
		<path d="M18.216,27.474L0.276,46.311l0.003,0.003C0.108,46.493,0,46.732,0,47c0,0.553,0.447,1,1,1h7.05l15.13-15.562
			L18.216,27.474z M10.839,48H20c0.276,0,0.526-0.111,0.707-0.293l8.871-8.871l-4.984-4.984L10.839,48z M50,0c-3.313,0-6,2.687-6,6
			c0,0.417,0.043,0.824,0.124,1.217L28.695,21.459l6.563,6.562l13.734-16.123C49.322,11.954,49.655,12,50,12c3.313,0,6-2.687,6-6
			S53.313,0,50,0z M38.129,33.715l-0.003,0.003l-14-14l0.003-0.003l-7.422-7.422C16.526,12.112,16.276,12,16,12
			s-0.526,0.112-0.707,0.293l-6,6C9.112,18.474,9,18.724,9,19c0,0.553,0.447,1,1,1h3.586l6.017,6.018l-0.007,0.008l11.396,11.396
			L31,37.414l6,6V47c0,0.553,0.447,1,1,1c0.276,0,0.526-0.111,0.707-0.293l6-6C44.888,41.526,45,41.276,45,41
			s-0.112-0.526-0.293-0.707L38.129,33.715z"/>
	</g>
</g>
<g>
</g>
<g>
</g>
<g>
</g>
<g>
</g>
<g>
</g>
<g>
</g>
<g>
</g>
<g>
</g>
<g>
</g>
<g>
</g>
<g>
</g>
<g>
</g>
<g>
</g>
<g>
</g>
<g>
</g>
</svg>
