<?xml version="1.0" encoding="iso-8859-1"?>
<!-- Generator: Adobe Illustrator 16.0.4, SVG Export Plug-In . SVG Version: 6.00 Build 0)  -->
<!DOCTYPE svg PUBLIC "-//W3C//DTD SVG 1.1//EN" "http://www.w3.org/Graphics/SVG/1.1/DTD/svg11.dtd">
<svg version="1.1" id="Layer_1" xmlns="http://www.w3.org/2000/svg" xmlns:xlink="http://www.w3.org/1999/xlink" x="0px" y="0px"
	 width="56px" height="56px" viewBox="0 0 56 56" style="enable-background:new 0 0 56 56;" xml:space="preserve">
<g id="_x31_042-album-selected_x40_2x.png">
	<g>
		<path d="M13.712,37.365C9.918,38.45,7.42,41.63,8.131,44.466c0.712,2.836,4.364,4.255,8.157,3.17
			c3.794-1.086,6.292-4.265,5.581-7.102C21.157,37.698,17.505,36.279,13.712,37.365z M54,0H2C0.896,0,0,0.896,0,2v52
			c0,1.104,0.896,2,2,2h52c1.104,0,2-0.896,2-2V2C56,0.896,55.104,0,54,0z M46,39h-0.017c0.257,3.595-2.754,7.278-7.209,8.549
			c-4.877,1.391-9.626-0.638-10.605-4.53c-0.98-3.893,2.179-8.177,7.057-9.567c3.399-0.969,6.732-0.273,8.774,1.553V8.095L24,9.913
			V41h-0.017c0.257,3.596-2.754,7.278-7.209,8.549c-4.877,1.391-9.625-0.638-10.605-4.53c-0.98-3.894,2.179-8.177,7.057-9.567
			c3.399-0.969,6.732-0.273,8.774,1.553V9c0-0.521,0.402-0.935,0.911-0.981l-0.002-0.015l22-2l0.002,0.015
			C44.941,6.016,44.969,6,45,6c0.553,0,1,0.448,1,1V39z M35.712,35.365c-3.794,1.085-6.292,4.265-5.581,7.101
			c0.712,2.836,4.364,4.255,8.157,3.17c3.794-1.086,6.292-4.265,5.581-7.102C43.157,35.698,39.505,34.279,35.712,35.365z"/>
	</g>
</g>
<g>
</g>
<g>
</g>
<g>
</g>
<g>
</g>
<g>
</g>
<g>
</g>
<g>
</g>
<g>
</g>
<g>
</g>
<g>
</g>
<g>
</g>
<g>
</g>
<g>
</g>
<g>
</g>
<g>
</g>
</svg>
