<?xml version="1.0" encoding="iso-8859-1"?>
<!-- Generator: Adobe Illustrator 16.0.4, SVG Export Plug-In . SVG Version: 6.00 Build 0)  -->
<!DOCTYPE svg PUBLIC "-//W3C//DTD SVG 1.1//EN" "http://www.w3.org/Graphics/SVG/1.1/DTD/svg11.dtd">
<svg version="1.1" id="Layer_1" xmlns="http://www.w3.org/2000/svg" xmlns:xlink="http://www.w3.org/1999/xlink" x="0px" y="0px"
	 width="56px" height="40px" viewBox="0 0 56 40" style="enable-background:new 0 0 56 40;" xml:space="preserve">
<g id="_x31_043-album-disc-selected_x40_2x.png">
	<g>
		<path d="M25.264,24.199c-2.168,0.592-3.596,2.326-3.188,3.873c0.406,1.547,2.493,2.321,4.661,1.729
			c2.168-0.592,3.596-2.326,3.188-3.873C29.519,24.381,27.432,23.607,25.264,24.199z M11.264,26.199
			c-2.168,0.592-3.596,2.326-3.188,3.873c0.406,1.547,2.493,2.321,4.661,1.729c2.168-0.592,3.596-2.326,3.188-3.873
			C15.519,26.381,13.432,25.607,11.264,26.199z M38,0H2C0.896,0,0,0.896,0,2v36c0,1.104,0.896,2,2,2h36c1.104,0,2-0.896,2-2V2
			C40,0.896,39.104,0,38,0z M32,27h-0.101c-0.355,2.043-2.174,3.96-4.721,4.687c-3.24,0.925-6.395-0.424-7.046-3.013
			c-0.651-2.588,1.448-5.436,4.688-6.359c1.932-0.552,3.82-0.281,5.179,0.564V8.153L18,9.867V29h-0.101
			c-0.355,2.043-2.174,3.96-4.721,4.687c-3.24,0.925-6.395-0.424-7.046-3.013c-0.651-2.588,1.448-5.436,4.688-6.359
			c1.932-0.552,3.82-0.281,5.179,0.564V9c0-0.503,0.378-0.901,0.861-0.972L16.858,8.01l14-2l0.003,0.019C30.908,6.021,30.951,6,31,6
			c0.553,0,1,0.448,1,1V27z M42,2.462v13.096c1.219,1.098,2,2.673,2,4.442c0,1.771-0.781,3.345-2,4.443v13.096
			C50.014,35.718,56,28.564,56,20S50.014,4.282,42,2.462z"/>
	</g>
</g>
<g>
</g>
<g>
</g>
<g>
</g>
<g>
</g>
<g>
</g>
<g>
</g>
<g>
</g>
<g>
</g>
<g>
</g>
<g>
</g>
<g>
</g>
<g>
</g>
<g>
</g>
<g>
</g>
<g>
</g>
</svg>
