<?xml version="1.0" encoding="iso-8859-1"?>
<!-- Generator: Adobe Illustrator 16.0.4, SVG Export Plug-In . SVG Version: 6.00 Build 0)  -->
<!DOCTYPE svg PUBLIC "-//W3C//DTD SVG 1.1//EN" "http://www.w3.org/Graphics/SVG/1.1/DTD/svg11.dtd">
<svg version="1.1" id="Layer_1" xmlns="http://www.w3.org/2000/svg" xmlns:xlink="http://www.w3.org/1999/xlink" x="0px" y="0px"
	 width="56.016px" height="35.986px" viewBox="0 0 56.016 35.986" style="enable-background:new 0 0 56.016 35.986;"
	 xml:space="preserve">
<g id="_x31_044-drama-masks-selected_x40_2x.png">
	<g>
		<path d="M30.719,1.458L30.422,0l-1.238,0.825C20.454,6.645,17.158,7.001,1.27,7.001H0l0.298,1.234
			c0.25,1.035,5.738,25.751,19.02,25.751c1.225,0,2.481-0.212,3.737-0.631C36.399,28.908,30.957,2.628,30.719,1.458z M9.969,16.349
			c-0.14,0.419-0.53,0.684-0.949,0.684c-0.104,0-0.211-0.017-0.316-0.052c-0.523-0.174-0.807-0.74-0.632-1.265
			c0.125-0.377,1.304-3.684,3.948-3.684c2.347,0,4.473,2.059,4.707,2.293c0.391,0.39,0.391,1.021,0.001,1.412
			c-0.389,0.392-1.021,0.394-1.413,0.003c-0.479-0.475-2.005-1.708-3.295-1.708C10.958,14.032,10.132,15.859,9.969,16.349z
			 M20.188,26.833c-0.607,0.121-1.183,0.176-1.726,0.176c-3.519,0-5.663-2.307-6.365-3.709c-0.247-0.494-0.047-1.096,0.447-1.342
			c0.492-0.245,1.091-0.049,1.34,0.442c0.074,0.144,1.762,3.294,5.911,2.472c4.148-0.83,4.196-3.987,4.196-4.02c0-0.553,0.448-1,1-1
			c0.553,0,1,0.447,1,1C25.992,22.52,24.779,25.915,20.188,26.833z M26.948,12.709c-0.43,0.344-1.06,0.276-1.405-0.154
			c-0.4-0.494-1.756-1.813-2.728-1.462c-1.214,0.449-2.235,2.175-2.497,2.743c-0.169,0.366-0.531,0.582-0.909,0.582
			c-0.14,0-0.282-0.029-0.418-0.092c-0.501-0.23-0.721-0.825-0.489-1.326c0.139-0.302,1.42-2.97,3.62-3.782
			c2.48-0.921,4.732,1.775,4.98,2.086C27.448,11.734,27.379,12.363,26.948,12.709z M54.747,9.001
			c-10.749,0-15.729-0.17-20.532-2.082c0.139,2.258,0.192,4.457,0.15,6.577c0.723-0.396,1.347-0.915,1.621-1.188
			c0.392-0.391,1.024-0.389,1.413,0.003c0.389,0.391,0.389,1.022-0.001,1.412c-0.18,0.18-1.468,1.421-3.112,1.996
			c-0.126,2.264-0.38,4.414-0.78,6.421c0.612-0.171,1.27-0.288,2.001-0.288c0.543,0,1.117,0.055,1.725,0.176
			c4.587,0.919,5.798,4.314,5.798,5.98c0,0.553-0.447,1-0.999,1s-0.999-0.447-0.999-1c0-0.031-0.048-3.189-4.191-4.019
			c-1.686-0.335-2.958-0.009-3.888,0.501c-0.903,3.257-2.277,6.034-4.234,8.152c1.146,1.198,2.547,2.139,4.266,2.712
			c1.255,0.419,2.511,0.631,3.733,0.631c13.269,0,18.752-24.716,19.002-25.751l0.297-1.234H54.747z M47.764,16.745
			c-0.248,0.311-2.498,3.007-4.976,2.086c-2.198-0.812-3.479-3.48-3.617-3.782c-0.23-0.501-0.012-1.096,0.489-1.326
			c0.136-0.062,0.278-0.092,0.418-0.092c0.377,0,0.739,0.216,0.907,0.582c0.263,0.568,1.282,2.294,2.495,2.743
			c0.972,0.352,2.325-0.968,2.725-1.462c0.346-0.431,0.975-0.498,1.404-0.154C48.039,15.686,48.108,16.314,47.764,16.745z"/>
	</g>
</g>
<g>
</g>
<g>
</g>
<g>
</g>
<g>
</g>
<g>
</g>
<g>
</g>
<g>
</g>
<g>
</g>
<g>
</g>
<g>
</g>
<g>
</g>
<g>
</g>
<g>
</g>
<g>
</g>
<g>
</g>
</svg>
