<?xml version="1.0" encoding="iso-8859-1"?>
<!-- Generator: Adobe Illustrator 16.0.4, SVG Export Plug-In . SVG Version: 6.00 Build 0)  -->
<!DOCTYPE svg PUBLIC "-//W3C//DTD SVG 1.1//EN" "http://www.w3.org/Graphics/SVG/1.1/DTD/svg11.dtd">
<svg version="1.1" id="Layer_1" xmlns="http://www.w3.org/2000/svg" xmlns:xlink="http://www.w3.org/1999/xlink" x="0px" y="0px"
	 width="56px" height="36px" viewBox="0 0 56 36" style="enable-background:new 0 0 56 36;" xml:space="preserve">
<g id="_x31_046-crown-selected_x40_2x.png">
	<g>
		<path d="M51,0c-2.762,0-5,2.238-5,5c0,0.571,0.116,1.111,0.292,1.622l-9.071,10.584l-4.882-9.765C32.747,6.717,33,5.892,33,5
			c0-2.762-2.238-5-5-5s-5,2.238-5,5c0,0.892,0.253,1.717,0.661,2.441l-4.882,9.765L9.708,6.622C9.884,6.111,10,5.571,10,5
			c0-2.762-2.238-5-5-5S0,2.238,0,5c0,2.098,1.295,3.888,3.127,4.63L7.719,28h40.562l4.592-18.37C54.705,8.888,56,7.098,56,5
			C56,2.238,53.762,0,51,0z M16,26c-1.104,0-2-0.896-2-2s0.896-2,2-2s2,0.896,2,2S17.104,26,16,26z M24,26c-1.104,0-2-0.896-2-2
			s0.896-2,2-2s2,0.896,2,2S25.104,26,24,26z M32,26c-1.104,0-2-0.896-2-2s0.896-2,2-2s2,0.896,2,2S33.104,26,32,26z M40,26
			c-1.104,0-2-0.896-2-2s0.896-2,2-2s2,0.896,2,2S41.104,26,40,26z M6.548,30C6.203,30.588,6,31.268,6,32c0,2.209,1.791,4,4,4h36
			c2.209,0,4-1.791,4-4c0-0.732-0.203-1.412-0.548-2H6.548z"/>
	</g>
</g>
<g>
</g>
<g>
</g>
<g>
</g>
<g>
</g>
<g>
</g>
<g>
</g>
<g>
</g>
<g>
</g>
<g>
</g>
<g>
</g>
<g>
</g>
<g>
</g>
<g>
</g>
<g>
</g>
<g>
</g>
</svg>
