<?xml version="1.0" encoding="iso-8859-1"?>
<!-- Generator: Adobe Illustrator 16.0.4, SVG Export Plug-In . SVG Version: 6.00 Build 0)  -->
<!DOCTYPE svg PUBLIC "-//W3C//DTD SVG 1.1//EN" "http://www.w3.org/Graphics/SVG/1.1/DTD/svg11.dtd">
<svg version="1.1" id="Layer_1" xmlns="http://www.w3.org/2000/svg" xmlns:xlink="http://www.w3.org/1999/xlink" x="0px" y="0px"
	 width="56.015px" height="51.973px" viewBox="0 0 56.015 51.973" style="enable-background:new 0 0 56.015 51.973;"
	 xml:space="preserve">
<g id="_x31_047-credit-cards-selected_x40_2x.png">
	<g>
		<path d="M11.318,27.391l6.822-11.775l1.753,1.008l-4.983,8.602l3.517-2.033l6.749-11.653l1.753,1.009l-4.989,8.613l17.477-10.103
			c-0.344-0.575-0.819-1.083-1.442-1.441L22.2,0.542c-1.936-1.113-4.408-0.458-5.522,1.465L0.54,29.861
			c-1.114,1.922-0.448,4.384,1.487,5.498l11.625,6.688l-3.927-6.811C8.182,32.56,8.926,29.215,11.318,27.391z M21.671,9.521
			l1.753,1.009l-2.018,3.481l-1.752-1.008L21.671,9.521z M55.475,29.764l-9.057-15.736c-1.111-1.931-3.573-2.593-5.498-1.478
			L13.032,28.701c-1.925,1.115-2.585,3.584-1.473,5.516l9.057,15.736c1.111,1.931,3.573,2.593,5.498,1.478l27.887-16.151
			C55.927,34.164,56.586,31.695,55.475,29.764z M41.459,21.562l1.006,1.748l-3.485,2.02l-1.007-1.749L41.459,21.562z M20.544,33.676
			l14.814-8.58l1.007,1.748l-14.815,8.58L20.544,33.676z M23.562,38.921l-1.006-1.748l8.714-5.048l1.007,1.749L23.562,38.921z
			 M34.021,32.864l-1.007-1.748l10.458-6.057l1.006,1.748L34.021,32.864z"/>
	</g>
</g>
<g>
</g>
<g>
</g>
<g>
</g>
<g>
</g>
<g>
</g>
<g>
</g>
<g>
</g>
<g>
</g>
<g>
</g>
<g>
</g>
<g>
</g>
<g>
</g>
<g>
</g>
<g>
</g>
<g>
</g>
</svg>
