<?xml version="1.0" encoding="iso-8859-1"?>
<!-- Generator: Adobe Illustrator 16.0.4, SVG Export Plug-In . SVG Version: 6.00 Build 0)  -->
<!DOCTYPE svg PUBLIC "-//W3C//DTD SVG 1.1//EN" "http://www.w3.org/Graphics/SVG/1.1/DTD/svg11.dtd">
<svg version="1.1" id="Layer_1" xmlns="http://www.w3.org/2000/svg" xmlns:xlink="http://www.w3.org/1999/xlink" x="0px" y="0px"
	 width="56px" height="36px" viewBox="0 0 56 36" style="enable-background:new 0 0 56 36;" xml:space="preserve">
<g id="_x31_055-ticket-selected_x40_2x.png">
	<g>
		<path d="M20.615,19.231C20.844,19.414,21,19.684,21,20c0,0.111-0.029,0.213-0.063,0.312l0.012,0.004l-0.929,2.787l2.355-1.885
			l0.01,0.013C22.556,21.094,22.764,21,23,21s0.444,0.094,0.615,0.231l0.01-0.013l2.355,1.885l-0.929-2.787L26,20l-0.625-0.781
			L28.149,17H25c-0.441,0-0.805-0.291-0.937-0.688l-0.012,0.004L23,13.162l-1.052,3.154l-0.012-0.004C21.805,16.709,21.441,17,21,17
			h-3.149l2.774,2.219L20.615,19.231z M55,13c0.553,0,1-0.447,1-1V1c0-0.553-0.447-1-1-1H1C0.447,0,0,0.447,0,1v11
			c0,0.553,0.447,1,1,1c2.762,0,5,2.238,5,5s-2.238,5-5,5c-0.553,0-1,0.447-1,1v11c0,0.553,0.447,1,1,1h54c0.553,0,1-0.447,1-1V24
			c0-0.553-0.447-1-1-1c-2.762,0-5-2.238-5-5S52.238,13,55,13z M46,26c0,3.313-2.687,6-6,6H16c-3.313,0-6-2.687-6-6V10
			c0-3.313,2.687-6,6-6h24c3.313,0,6,2.687,6,6V26z M12,10v16c0,2.209,1.791,4,4,4h18V6H16C13.791,6,12,7.791,12,10z M22.052,9.684
			l0.012,0.004C22.195,9.291,22.559,9,23,9s0.805,0.291,0.937,0.688l0.013-0.004L25.721,15H31c0.553,0,1,0.447,1,1
			c0,0.316-0.156,0.586-0.385,0.77l0.01,0.012l-4.456,3.564l1.779,5.338l-0.023,0.008C28.96,25.791,29,25.888,29,26
			c0,0.553-0.447,1-1,1c-0.236,0-0.444-0.094-0.615-0.23l-0.01,0.012L23,23.281l-4.375,3.5l-0.008-0.01
			C18.448,26.911,18.238,27,18,27c-0.553,0-1-0.447-1-1c0-0.11,0.03-0.213,0.063-0.312l-0.012-0.004l1.779-5.338l-4.456-3.564
			l0.01-0.012C14.156,16.586,14,16.316,14,16c0-0.553,0.447-1,1-1h5.279L22.052,9.684z M40,6h-4v24h4c2.209,0,4-1.791,4-4V10
			C44,7.791,42.209,6,40,6z"/>
	</g>
</g>
<g>
</g>
<g>
</g>
<g>
</g>
<g>
</g>
<g>
</g>
<g>
</g>
<g>
</g>
<g>
</g>
<g>
</g>
<g>
</g>
<g>
</g>
<g>
</g>
<g>
</g>
<g>
</g>
<g>
</g>
</svg>
