<?xml version="1.0" encoding="iso-8859-1"?>
<!-- Generator: Adobe Illustrator 16.0.4, SVG Export Plug-In . SVG Version: 6.00 Build 0)  -->
<!DOCTYPE svg PUBLIC "-//W3C//DTD SVG 1.1//EN" "http://www.w3.org/Graphics/SVG/1.1/DTD/svg11.dtd">
<svg version="1.1" id="Layer_1" xmlns="http://www.w3.org/2000/svg" xmlns:xlink="http://www.w3.org/1999/xlink" x="0px" y="0px"
	 width="56px" height="48px" viewBox="0 0 56 48" style="enable-background:new 0 0 56 48;" xml:space="preserve">
<g id="_x31_062-layers-2-selected_x40_2x.png">
	<g>
		<path d="M0.499,17.846L0.49,17.86l27,16l0.009-0.015C27.648,33.936,27.813,34,28,34s0.352-0.064,0.501-0.154l0.009,0.015l27-16
			l-0.009-0.015C55.794,17.672,56,17.365,56,17s-0.206-0.672-0.499-0.846l0.009-0.015l-27-16l-0.009,0.015
			C28.352,0.065,28.187,0,28,0s-0.352,0.065-0.501,0.154L27.49,0.14l-27,16l0.009,0.015C0.206,16.328,0,16.635,0,17
			S0.206,17.672,0.499,17.846z M55.501,30.154l0.009-0.015l-2.493-1.478L29.529,42.581l-0.006-0.01C29.075,42.837,28.559,43,28,43
			s-1.075-0.163-1.523-0.429l-0.006,0.01L2.983,28.662L0.49,30.14l0.009,0.015C0.206,30.328,0,30.635,0,31s0.206,0.672,0.499,0.846
			L0.49,31.86l27,16l0.009-0.015C27.648,47.936,27.813,48,28,48s0.352-0.064,0.501-0.154l0.009,0.015l27-16l-0.009-0.015
			C55.794,31.672,56,31.365,56,31S55.794,30.328,55.501,30.154z M55.501,23.154l0.009-0.015l-2.493-1.478L29.529,35.581l-0.006-0.01
			C29.075,35.837,28.559,36,28,36s-1.075-0.163-1.523-0.429l-0.006,0.01L2.983,21.662L0.49,23.14l0.009,0.015
			C0.206,23.328,0,23.635,0,24s0.206,0.672,0.499,0.846L0.49,24.86l27,16l0.009-0.015C27.648,40.936,27.813,41,28,41
			s0.352-0.064,0.501-0.154l0.009,0.015l27-16l-0.009-0.015C55.794,24.672,56,24.365,56,24S55.794,23.328,55.501,23.154z"/>
	</g>
</g>
<g>
</g>
<g>
</g>
<g>
</g>
<g>
</g>
<g>
</g>
<g>
</g>
<g>
</g>
<g>
</g>
<g>
</g>
<g>
</g>
<g>
</g>
<g>
</g>
<g>
</g>
<g>
</g>
<g>
</g>
</svg>
