<?xml version="1.0" encoding="iso-8859-1"?>
<!-- Generator: Adobe Illustrator 16.0.4, SVG Export Plug-In . SVG Version: 6.00 Build 0)  -->
<!DOCTYPE svg PUBLIC "-//W3C//DTD SVG 1.1//EN" "http://www.w3.org/Graphics/SVG/1.1/DTD/svg11.dtd">
<svg version="1.1" id="Layer_1" xmlns="http://www.w3.org/2000/svg" xmlns:xlink="http://www.w3.org/1999/xlink" x="0px" y="0px"
	 width="56px" height="52px" viewBox="0 0 56 52" style="enable-background:new 0 0 56 52;" xml:space="preserve">
<g id="_x31_064-layers-4-selected_x40_2x.png">
	<g>
		<path d="M0.595,13.911l-0.001,0.003l0.017,0.007l0.001,0.001l26.982,11.992l0.001-0.003C27.72,25.967,27.855,26,28,26
			s0.28-0.033,0.405-0.089l0.001,0.003l26.982-11.992l0.001-0.001l0.017-0.007l-0.001-0.003C55.754,13.755,56,13.407,56,13
			s-0.246-0.755-0.595-0.911l0.001-0.003l-0.017-0.007c0,0-0.001,0-0.001-0.001L28.406,0.086l-0.001,0.003
			C28.28,0.033,28.145,0,28,0s-0.28,0.033-0.405,0.089l-0.001-0.003L0.611,12.078c0,0.001-0.001,0.001-0.001,0.001l-0.017,0.007
			l0.001,0.003C0.245,12.245,0,12.593,0,13S0.245,13.755,0.595,13.911z M55.405,25.089l0.001-0.003l-0.017-0.007
			c0,0-0.001,0-0.001-0.001L45.3,20.595l-16.081,7.146l-0.002-0.004C28.844,27.903,28.435,28,28,28s-0.844-0.097-1.217-0.263
			l-0.002,0.004L10.7,20.595L0.611,25.078c0,0.001-0.001,0.001-0.001,0.001l-0.017,0.007l0.001,0.003C0.245,25.245,0,25.593,0,26
			s0.245,0.755,0.595,0.911l-0.001,0.003l0.017,0.007c0,0.001,0.001,0.001,0.001,0.001l26.982,11.992l0.001-0.003
			C27.72,38.967,27.855,39,28,39s0.28-0.033,0.405-0.089l0.001,0.003l26.982-11.992c0,0,0.001,0,0.001-0.001l0.017-0.007
			l-0.001-0.003C55.754,26.755,56,26.407,56,26S55.754,25.245,55.405,25.089z M55.405,38.089l0.001-0.003l-0.017-0.007l-0.001-0.001
			L45.3,33.595l-16.081,7.146l-0.002-0.004C28.844,40.903,28.435,41,28,41s-0.844-0.097-1.217-0.263l-0.002,0.004L10.7,33.595
			L0.611,38.078L0.61,38.079l-0.017,0.007l0.001,0.003C0.245,38.245,0,38.593,0,39s0.245,0.755,0.595,0.911l-0.001,0.003
			l0.017,0.007l0.001,0.001l26.982,11.992l0.001-0.003C27.72,51.967,27.855,52,28,52s0.28-0.033,0.405-0.089l0.001,0.003
			l26.982-11.992l0.001-0.001l0.017-0.007l-0.001-0.003C55.754,39.755,56,39.407,56,39S55.754,38.245,55.405,38.089z"/>
	</g>
</g>
<g>
</g>
<g>
</g>
<g>
</g>
<g>
</g>
<g>
</g>
<g>
</g>
<g>
</g>
<g>
</g>
<g>
</g>
<g>
</g>
<g>
</g>
<g>
</g>
<g>
</g>
<g>
</g>
<g>
</g>
</svg>
