<?xml version="1.0" encoding="iso-8859-1"?>
<!-- Generator: Adobe Illustrator 16.0.4, SVG Export Plug-In . SVG Version: 6.00 Build 0)  -->
<!DOCTYPE svg PUBLIC "-//W3C//DTD SVG 1.1//EN" "http://www.w3.org/Graphics/SVG/1.1/DTD/svg11.dtd">
<svg version="1.1" id="Layer_1" xmlns="http://www.w3.org/2000/svg" xmlns:xlink="http://www.w3.org/1999/xlink" x="0px" y="0px"
	 width="56px" height="40px" viewBox="0 0 56 40" style="enable-background:new 0 0 56 40;" xml:space="preserve">
<g id="_x31_066-fried-egg-selected_x40_2x.png">
	<g>
		<path d="M19.006,0c-0.412,0-0.812,0.011-1.199,0.032c-7.396,0.41-12.304,3.545-15.06,8.454c-2.124,3.781-2.971,8.614-2.697,14.069
			c0.245,4.896,1.306,12.852,5.666,15.905C7.273,39.552,8.808,40,10.298,40c2.979,0,5.782-1.789,8.247-3.814
			c2.813-2.313,6.192-3.529,9.642-3.529c1.554,0,3.124,0.247,4.661,0.752c3.885,1.276,7.986,3.84,12.232,3.84
			c1.162,0,2.336-0.192,3.519-0.656C54.071,34.447,56,28.958,56,23.503C56,10.021,31.654,0,19.006,0z M19,26c-4.418,0-8-3.582-8-8
			s3.582-8,8-8s8,3.582,8,8S23.418,26,19,26z"/>
	</g>
</g>
<g>
</g>
<g>
</g>
<g>
</g>
<g>
</g>
<g>
</g>
<g>
</g>
<g>
</g>
<g>
</g>
<g>
</g>
<g>
</g>
<g>
</g>
<g>
</g>
<g>
</g>
<g>
</g>
<g>
</g>
</svg>
