<?xml version="1.0" encoding="iso-8859-1"?>
<!-- Generator: Adobe Illustrator 16.0.4, SVG Export Plug-In . SVG Version: 6.00 Build 0)  -->
<!DOCTYPE svg PUBLIC "-//W3C//DTD SVG 1.1//EN" "http://www.w3.org/Graphics/SVG/1.1/DTD/svg11.dtd">
<svg version="1.1" id="Layer_1" xmlns="http://www.w3.org/2000/svg" xmlns:xlink="http://www.w3.org/1999/xlink" x="0px" y="0px"
	 width="40px" height="56px" viewBox="0 0 40 56" style="enable-background:new 0 0 40 56;" xml:space="preserve">
<g id="_x31_069-basketball-shirt-selected_x40_2x.png">
	<g>
		<path d="M20,9.007c5.473,0,7.738-3.305,7.832-3.445c0.307-0.46,0.182-1.08-0.277-1.387c-0.46-0.307-1.08-0.182-1.387,0.277
			C26.15,4.478,24.414,7.007,20,7.007c-4.346,0-6.094-2.448-6.172-2.561c-0.308-0.454-0.924-0.574-1.383-0.271
			c-0.459,0.307-0.584,0.927-0.277,1.387C12.262,5.702,14.527,9.007,20,9.007z M40,26.734c0-1.632-1.499-3.133-4-4.346V1
			c0-0.553-0.447-1-1-1h-4c-0.553,0-1,0.447-1,1h-0.024C29.983,1.167,30,1.331,30,1.5C30,7.299,25.522,12,20,12S10,7.299,10,1.5
			c0-0.169,0.017-0.333,0.024-0.5H10c0-0.553-0.447-1-1-1H5C4.447,0,4,0.447,4,1v21.389c-2.501,1.213-4,2.714-4,4.346
			c0,0.09,0.028,0.177,0.037,0.266H0v22c0,3.866,8.954,7,20,7s20-3.134,20-7V27h-0.037C39.972,26.911,40,26.824,40,26.734z
			 M27.387,41.212c-0.429,0.989-1.015,1.843-1.759,2.56s-1.618,1.275-2.621,1.673c-1.004,0.397-2.069,0.597-3.196,0.597
			c-1.105,0-2.126-0.165-3.062-0.494c-0.936-0.33-1.747-0.808-2.436-1.434c-0.688-0.626-1.234-1.394-1.64-2.304
			c-0.406-0.91-0.621-1.935-0.643-3.072h2.131c0.021,0.819,0.186,1.57,0.49,2.253s0.716,1.269,1.234,1.758s1.127,0.865,1.826,1.126
			c0.699,0.262,1.455,0.393,2.267,0.393c0.925,0,1.747-0.176,2.469-0.529c0.722-0.353,1.342-0.83,1.86-1.434
			c0.519-0.603,0.914-1.297,1.185-2.082c0.271-0.784,0.405-1.609,0.405-2.475c0-0.887-0.152-1.706-0.456-2.457
			c-0.305-0.751-0.722-1.405-1.252-1.963c-0.53-0.557-1.167-0.995-1.911-1.313s-1.556-0.479-2.436-0.479
			c-1.082,0-2.086,0.245-3.01,0.734c-0.925,0.489-1.681,1.189-2.267,2.099h-1.826l2.3-12.39H26.88v1.979H16.529l-1.521,7.919
			l0.067,0.068c0.586-0.705,1.33-1.252,2.232-1.639c0.901-0.387,1.826-0.58,2.773-0.58c1.218,0,2.317,0.205,3.298,0.614
			s1.814,0.979,2.503,1.706c0.688,0.729,1.218,1.6,1.59,2.611c0.372,1.013,0.558,2.122,0.558,3.328
			C28.029,39.146,27.815,40.222,27.387,41.212z"/>
	</g>
</g>
<g>
</g>
<g>
</g>
<g>
</g>
<g>
</g>
<g>
</g>
<g>
</g>
<g>
</g>
<g>
</g>
<g>
</g>
<g>
</g>
<g>
</g>
<g>
</g>
<g>
</g>
<g>
</g>
<g>
</g>
</svg>
