<?xml version="1.0" encoding="iso-8859-1"?>
<!-- Generator: Adobe Illustrator 16.0.4, SVG Export Plug-In . SVG Version: 6.00 Build 0)  -->
<!DOCTYPE svg PUBLIC "-//W3C//DTD SVG 1.1//EN" "http://www.w3.org/Graphics/SVG/1.1/DTD/svg11.dtd">
<svg version="1.1" id="Layer_1" xmlns="http://www.w3.org/2000/svg" xmlns:xlink="http://www.w3.org/1999/xlink" x="0px" y="0px"
	 width="44px" height="55.998px" viewBox="0 0 44 55.998" style="enable-background:new 0 0 44 55.998;" xml:space="preserve">
<g id="_x31_071-target-dummy-selected_x40_2x.png">
	<g>
		<path d="M22,37.998c-2.209,0-4,1.791-4,4s1.791,4,4,4s4-1.791,4-4S24.209,37.998,22,37.998z M22,43.998c-1.104,0-2-0.896-2-2
			s0.896-2,2-2s2,0.896,2,2S23.104,43.998,22,43.998z M22,11.998c1.104,0,2-0.896,2-2s-0.896-2-2-2s-2,0.896-2,2
			S20.896,11.998,22,11.998z M44,38.94c0-2.505-8.537-9.361-15.623-10.752c1.248-1.526,2.888-4.388,4.515-9.741
			C33.256,18.029,34,17.041,34,15.94c0-1.148-0.809-2.251-1.858-2.739c0.538-3.767-0.648-5.236-1.312-5.799
			c-2.637-6.857-5.396-7.552-7.519-7.381c-0.071,0.006-0.134,0.013-0.186,0.013c-0.846,0-2.352,0.584-3.155,0.923
			c-2.433-0.65-5.091,2.584-5.727,3.42c-3.253,3.295-2.906,7.049-2.486,8.875c-1,0.51-1.757,1.576-1.757,2.688
			c0,1.101,0.745,2.089,1.109,2.507c1.626,5.354,3.266,8.215,4.514,9.741C8.538,29.579,0,36.436,0,38.94
			c0,0.01,0.005,0.019,0.006,0.028c0,0.011-0.006,0.02-0.006,0.029v16c0,0.553,0.448,1,1,1h42c0.553,0,1-0.447,1-1v-16
			c0-0.01-0.006-0.019-0.006-0.029C43.994,38.959,44,38.95,44,38.94z M22,5.998c2.209,0,4,1.791,4,4s-1.791,4-4,4s-4-1.791-4-4
			S19.791,5.998,22,5.998z M22,51.998c-5.523,0-10-4.478-10-10s4.477-10,10-10c5.522,0,10,4.478,10,10S27.522,51.998,22,51.998z
			 M22,33.998c-4.418,0-8,3.582-8,8s3.582,8,8,8c4.418,0,8-3.582,8-8S26.418,33.998,22,33.998z M22,47.998c-3.313,0-6-2.687-6-6
			s2.687-6,6-6s6,2.687,6,6S25.313,47.998,22,47.998z"/>
	</g>
</g>
<g>
</g>
<g>
</g>
<g>
</g>
<g>
</g>
<g>
</g>
<g>
</g>
<g>
</g>
<g>
</g>
<g>
</g>
<g>
</g>
<g>
</g>
<g>
</g>
<g>
</g>
<g>
</g>
<g>
</g>
</svg>
