<?xml version="1.0" encoding="iso-8859-1"?>
<!-- Generator: Adobe Illustrator 16.0.4, SVG Export Plug-In . SVG Version: 6.00 Build 0)  -->
<!DOCTYPE svg PUBLIC "-//W3C//DTD SVG 1.1//EN" "http://www.w3.org/Graphics/SVG/1.1/DTD/svg11.dtd">
<svg version="1.1" id="Layer_1" xmlns="http://www.w3.org/2000/svg" xmlns:xlink="http://www.w3.org/1999/xlink" x="0px" y="0px"
	 width="56px" height="44px" viewBox="0 0 56 44" style="enable-background:new 0 0 56 44;" xml:space="preserve">
<g id="_x31_072-terminal-selected_x40_2x.png">
	<g>
		<path d="M52,0H4C1.791,0,0,1.791,0,4v36c0,2.209,1.791,4,4,4h48c2.209,0,4-1.791,4-4V4C56,1.791,54.209,0,52,0z M9.57,27.799
			C9.407,27.916,9.217,28,9,28c-0.553,0-1-0.447-1-1c0-0.335,0.176-0.617,0.43-0.799l-0.011-0.015l12.729-9.093L8.504,9.868
			l0.008-0.014C8.211,9.682,8,9.371,8,9c0-0.552,0.447-1,1-1c0.181,0,0.342,0.062,0.488,0.146l0.008-0.014l14,8l-0.008,0.014
			C23.789,16.318,24,16.629,24,17c0,0.336-0.176,0.617-0.43,0.799l0.011,0.015l-14,10L9.57,27.799z M32,30H22c-0.553,0-1-0.447-1-1
			s0.447-1,1-1h10c0.553,0,1,0.447,1,1S32.553,30,32,30z"/>
	</g>
</g>
<g>
</g>
<g>
</g>
<g>
</g>
<g>
</g>
<g>
</g>
<g>
</g>
<g>
</g>
<g>
</g>
<g>
</g>
<g>
</g>
<g>
</g>
<g>
</g>
<g>
</g>
<g>
</g>
<g>
</g>
</svg>
