<?xml version="1.0" encoding="iso-8859-1"?>
<!-- Generator: Adobe Illustrator 16.0.4, SVG Export Plug-In . SVG Version: 6.00 Build 0)  -->
<!DOCTYPE svg PUBLIC "-//W3C//DTD SVG 1.1//EN" "http://www.w3.org/Graphics/SVG/1.1/DTD/svg11.dtd">
<svg version="1.1" id="Layer_1" xmlns="http://www.w3.org/2000/svg" xmlns:xlink="http://www.w3.org/1999/xlink" x="0px" y="0px"
	 width="56px" height="48px" viewBox="0 0 56 48" style="enable-background:new 0 0 56 48;" xml:space="preserve">
<g id="_x31_075-grid-3-selected_x40_2x.png">
	<g>
		<path d="M25.01,6H5.99v36h19.02V6z M52,0H4C1.791,0,0,1.791,0,4v40c0,2.209,1.791,4,4,4h48c2.209,0,4-1.791,4-4V4
			C56,1.791,54.209,0,52,0z M27,44H4V4h23V44z M52,44H29V25h23V44z M52,23H29V4h23V23z M50.01,27H30.99v15h19.02V27z M50.01,6H30.99
			v15h19.02V6z"/>
	</g>
</g>
<g>
</g>
<g>
</g>
<g>
</g>
<g>
</g>
<g>
</g>
<g>
</g>
<g>
</g>
<g>
</g>
<g>
</g>
<g>
</g>
<g>
</g>
<g>
</g>
<g>
</g>
<g>
</g>
<g>
</g>
</svg>
