<?xml version="1.0" encoding="iso-8859-1"?>
<!-- Generator: Adobe Illustrator 16.0.4, SVG Export Plug-In . SVG Version: 6.00 Build 0)  -->
<!DOCTYPE svg PUBLIC "-//W3C//DTD SVG 1.1//EN" "http://www.w3.org/Graphics/SVG/1.1/DTD/svg11.dtd">
<svg version="1.1" id="Layer_1" xmlns="http://www.w3.org/2000/svg" xmlns:xlink="http://www.w3.org/1999/xlink" x="0px" y="0px"
	 width="48px" height="56px" viewBox="0 0 48 56" style="enable-background:new 0 0 48 56;" xml:space="preserve">
<g id="_x31_082-merge-selected_x40_2x.png">
	<g>
		<path d="M14,7c0-3.866-3.134-7-7-7S0,3.134,0,7c0,3.523,2.612,6.41,6,6.899v28.201C2.612,42.59,0,45.477,0,49c0,3.866,3.134,7,7,7
			s7-3.134,7-7c0-3.523-2.612-6.41-6-6.899V13.899C11.388,13.41,14,10.523,14,7z M42,42.101V16c0-5.522-4.478-10-10-10H21.414
			l4.293-4.293C25.888,1.526,26,1.276,26,1c0-0.553-0.447-1-1-1c-0.276,0-0.526,0.112-0.707,0.293l-6,6C18.112,6.474,18,6.724,18,7
			s0.112,0.526,0.293,0.707l6,6C24.474,13.889,24.724,14,25,14c0.553,0,1-0.447,1-1c0-0.276-0.112-0.526-0.293-0.707L21.414,8H32
			c4.418,0,8,3.582,8,8v26.101c-3.388,0.489-6,3.376-6,6.899c0,3.866,3.134,7,7,7s7-3.134,7-7C48,45.477,45.388,42.59,42,42.101z"/>
	</g>
</g>
<g>
</g>
<g>
</g>
<g>
</g>
<g>
</g>
<g>
</g>
<g>
</g>
<g>
</g>
<g>
</g>
<g>
</g>
<g>
</g>
<g>
</g>
<g>
</g>
<g>
</g>
<g>
</g>
<g>
</g>
</svg>
