<?xml version="1.0" encoding="iso-8859-1"?>
<!-- Generator: Adobe Illustrator 16.0.4, SVG Export Plug-In . SVG Version: 6.00 Build 0)  -->
<!DOCTYPE svg PUBLIC "-//W3C//DTD SVG 1.1//EN" "http://www.w3.org/Graphics/SVG/1.1/DTD/svg11.dtd">
<svg version="1.1" id="Layer_1" xmlns="http://www.w3.org/2000/svg" xmlns:xlink="http://www.w3.org/1999/xlink" x="0px" y="0px"
	 width="56px" height="48px" viewBox="0 0 56 48" style="enable-background:new 0 0 56 48;" xml:space="preserve">
<g id="_x31_083-baseball-field-selected_x40_2x.png">
	<g>
		<path d="M56,22c0-2-10.536-22-28-22S0,20,0,22c0,0.284,0.121,0.537,0.312,0.72l-0.003,0.003l5.52,5.441L24.512,9.48l0.005,0.005
			C25.415,8.575,26.648,8,28.031,8c1.389,0,2.644,0.567,3.55,1.481l0.001-0.001l18.453,18.817l5.656-5.575l-0.003-0.003
			C55.879,22.537,56,22.284,56,22z M46,28.219c0,1.657-1.343,3-3,3s-3-1.343-3-3s1.343-3,3-3c0.719,0,1.37,0.264,1.887,0.686
			L30.271,11h-0.019c0.479,0.531,0.778,1.229,0.778,2c0,1.657-1.343,3-3,3s-3-1.343-3-3c0-0.743,0.28-1.415,0.729-1.939
			L10.967,25.854c0.524-0.448,1.196-0.729,1.939-0.729c1.657,0,3,1.344,3,3c0,1.657-1.343,3-3,3s-3-1.343-3-3
			c0-0.743,0.28-1.415,0.729-1.939l-3.383,3.383l17.213,16.967c0.317,0.317,0.688,0.573,1.081,0.797
			c0.037,0.021,0.075,0.04,0.113,0.061c0.2,0.107,0.404,0.205,0.62,0.285c0.093,0.034,0.188,0.059,0.283,0.088
			c0.181,0.054,0.358,0.11,0.547,0.145c0.227,0.043,0.461,0.06,0.697,0.07C27.872,47.983,27.934,48,28,48
			c0.005,0,0.01-0.002,0.015-0.002c0.006,0,0.011,0.002,0.017,0.002c0.33,0,0.649-0.039,0.961-0.1
			c0.025-0.006,0.049-0.015,0.074-0.021c0.294-0.062,0.576-0.151,0.848-0.263c0.03-0.013,0.059-0.027,0.089-0.041
			c0.268-0.116,0.521-0.254,0.763-0.414c0.02-0.013,0.038-0.025,0.058-0.039c0.348-0.237,0.672-0.506,0.949-0.821l16.839-16.6
			l-3.252-3.316C45.755,26.894,46,27.524,46,28.219z M28.031,46c-1.657,0-3-1.343-3-3s1.343-3,3-3s3,1.343,3,3S29.688,46,28.031,46z
			"/>
	</g>
</g>
<g>
</g>
<g>
</g>
<g>
</g>
<g>
</g>
<g>
</g>
<g>
</g>
<g>
</g>
<g>
</g>
<g>
</g>
<g>
</g>
<g>
</g>
<g>
</g>
<g>
</g>
<g>
</g>
<g>
</g>
</svg>
