<?xml version="1.0" encoding="iso-8859-1"?>
<!-- Generator: Adobe Illustrator 16.0.4, SVG Export Plug-In . SVG Version: 6.00 Build 0)  -->
<!DOCTYPE svg PUBLIC "-//W3C//DTD SVG 1.1//EN" "http://www.w3.org/Graphics/SVG/1.1/DTD/svg11.dtd">
<svg version="1.1" id="Layer_1" xmlns="http://www.w3.org/2000/svg" xmlns:xlink="http://www.w3.org/1999/xlink" x="0px" y="0px"
	 width="55.909px" height="55.952px" viewBox="0 0 55.909 55.952" style="enable-background:new 0 0 55.909 55.952;"
	 xml:space="preserve">
<g id="_x31_084-baseball-selected_x40_2x.png">
	<g>
		<path d="M26.237,46.222l1.947,0.521c0.525-1.715,1.215-3.355,2.043-4.913l-1.752-1.012c-0.479-0.276-0.643-0.888-0.366-1.366
			s0.888-0.643,1.366-0.366l1.77,1.022c0.947-1.509,2.03-2.917,3.238-4.214l-1.447-1.448c-0.391-0.391-0.391-1.023,0-1.414
			s1.023-0.391,1.414,0l1.448,1.447c1.297-1.208,2.705-2.291,4.214-3.238l-1.022-1.77c-0.276-0.479-0.112-1.09,0.366-1.366
			s1.09-0.112,1.366,0.366l1.012,1.752c1.558-0.828,3.198-1.518,4.913-2.043l-0.521-1.947c-0.143-0.533,0.174-1.082,0.707-1.225
			c0.533-0.144,1.082,0.174,1.225,0.707l0.527,1.967c2.019-0.463,4.112-0.73,6.271-0.73c0.321,0,0.634,0.037,0.953,0.048
			C55.413,12.301,43.608,0.496,28.908,0c0.011,0.319,0.048,0.631,0.048,0.952c0,2.159-0.268,4.252-0.73,6.271l1.967,0.527
			c0.534,0.143,0.851,0.691,0.707,1.225c-0.143,0.533-0.691,0.85-1.225,0.707l-1.947-0.521c-0.525,1.715-1.215,3.356-2.043,4.913
			l1.752,1.012c0.479,0.276,0.643,0.888,0.366,1.366s-0.888,0.643-1.366,0.366l-1.77-1.022c-0.947,1.509-2.03,2.917-3.238,4.215
			l1.447,1.447c0.391,0.391,0.391,1.024,0,1.414c-0.39,0.391-1.023,0.391-1.414,0l-1.447-1.447
			c-1.298,1.208-2.706,2.291-4.215,3.238l1.022,1.77c0.276,0.479,0.112,1.09-0.366,1.366s-1.09,0.112-1.366-0.366l-1.012-1.752
			c-1.557,0.828-3.198,1.518-4.913,2.043l0.521,1.947c0.143,0.534-0.174,1.082-0.707,1.225c-0.533,0.144-1.082-0.174-1.225-0.707
			l-0.527-1.967c-2.019,0.463-4.112,0.73-6.271,0.73c-0.322,0-0.636-0.037-0.956-0.048c0.465,13.781,10.871,25.02,24.286,26.78
			c0.178,0.162,0.41,0.268,0.67,0.268h2.051c-0.012-0.335-0.051-0.662-0.051-1c0-2.159,0.268-4.252,0.73-6.271l-1.967-0.527
			c-0.533-0.143-0.851-0.691-0.707-1.225C25.155,46.396,25.704,46.079,26.237,46.222z M6.711,26.292l-0.509-1.898
			c-0.144-0.533,0.173-1.082,0.707-1.225c0.533-0.144,1.082,0.173,1.225,0.707l0.514,1.918c1.545-0.479,3.022-1.105,4.429-1.849
			l-0.986-1.708c-0.276-0.479-0.112-1.09,0.366-1.366s1.09-0.112,1.366,0.366l0.979,1.695c1.358-0.857,2.627-1.836,3.799-2.922
			l-1.38-1.381c-0.391-0.391-0.391-1.023,0-1.414s1.023-0.391,1.414,0l1.381,1.38c1.086-1.172,2.064-2.44,2.922-3.799l-1.696-0.979
			c-0.478-0.276-0.642-0.888-0.365-1.366c0.275-0.479,0.888-0.642,1.365-0.366l1.709,0.986c0.743-1.406,1.37-2.884,1.849-4.429
			L23.88,8.13c-0.534-0.143-0.851-0.691-0.707-1.225c0.143-0.533,0.69-0.851,1.225-0.707l1.898,0.508
			c0.419-1.853,0.66-3.773,0.66-5.754c0-0.319-0.036-0.63-0.048-0.947C12.284,0.548,0.552,12.28,0.009,26.904
			c0.317,0.012,0.628,0.048,0.947,0.048C2.937,26.952,4.857,26.711,6.711,26.292z M49.201,29.612l0.509,1.898
			c0.144,0.534-0.173,1.082-0.707,1.226c-0.533,0.143-1.081-0.174-1.225-0.708l-0.514-1.918c-1.545,0.479-3.022,1.105-4.429,1.849
			l0.986,1.709c0.276,0.478,0.112,1.09-0.366,1.365c-0.479,0.276-1.09,0.112-1.366-0.365l-0.979-1.696
			c-1.358,0.857-2.626,1.836-3.799,2.922l1.38,1.381c0.391,0.391,0.391,1.023,0,1.414s-1.023,0.391-1.414,0l-1.381-1.38
			c-1.086,1.173-2.064,2.44-2.922,3.799l1.696,0.979c0.478,0.276,0.642,0.888,0.365,1.366c-0.275,0.479-0.888,0.643-1.365,0.366
			l-1.709-0.986c-0.743,1.406-1.37,2.884-1.849,4.429l1.918,0.514c0.534,0.143,0.851,0.691,0.708,1.225
			c-0.144,0.533-0.691,0.851-1.226,0.707l-1.898-0.508c-0.419,1.854-0.66,3.773-0.66,5.754c0,0.338,0.038,0.666,0.051,1h1.949
			c0.26,0,0.492-0.105,0.67-0.268C45.01,53.928,55.397,42.737,55.907,29c-0.318-0.012-0.63-0.048-0.951-0.048
			C52.976,28.952,51.055,29.193,49.201,29.612z"/>
	</g>
</g>
<g>
</g>
<g>
</g>
<g>
</g>
<g>
</g>
<g>
</g>
<g>
</g>
<g>
</g>
<g>
</g>
<g>
</g>
<g>
</g>
<g>
</g>
<g>
</g>
<g>
</g>
<g>
</g>
<g>
</g>
</svg>
