<?xml version="1.0" encoding="iso-8859-1"?>
<!-- Generator: Adobe Illustrator 16.0.4, SVG Export Plug-In . SVG Version: 6.00 Build 0)  -->
<!DOCTYPE svg PUBLIC "-//W3C//DTD SVG 1.1//EN" "http://www.w3.org/Graphics/SVG/1.1/DTD/svg11.dtd">
<svg version="1.1" id="Layer_1" xmlns="http://www.w3.org/2000/svg" xmlns:xlink="http://www.w3.org/1999/xlink" x="0px" y="0px"
	 width="55.972px" height="55.991px" viewBox="0 0 55.972 55.991" style="enable-background:new 0 0 55.972 55.991;"
	 xml:space="preserve">
<g id="_x31_085-football-selected_x40_2x.png">
	<g>
		<path d="M2.398,53.591c1.43,1.428,5.248,2.4,10.225,2.4c3.611,0,7.837-0.525,12.199-1.745L1.744,31.167
			C-1.17,41.538-0.072,51.124,2.398,53.591z M53.927,2.12C52.737,0.874,49.099,0,44.252,0c-3.79,0-8.321,0.545-12.996,1.852
			l22.913,22.913C57.101,14.171,56.044,4.338,53.927,2.12z M12.431,12.474C7.517,17.383,4.326,23.245,2.407,29.002l24.581,24.581
			c5.772-1.916,11.651-5.097,16.573-10.014c4.891-4.886,8.046-10.803,9.953-16.632L29.087,2.511
			C23.244,4.436,17.314,7.597,12.431,12.474z M36.279,17.288c0.181-0.181,0.431-0.293,0.707-0.293c0.553,0,1,0.448,1,1
			c0,0.276-0.112,0.526-0.293,0.707L33.9,22.495l3.536,3.535c0.39,0.391,0.39,1.024,0,1.415c-0.391,0.39-1.024,0.39-1.415,0
			l-3.535-3.536L28.9,27.495l3.536,3.535c0.39,0.391,0.39,1.024,0,1.415c-0.391,0.39-1.024,0.39-1.415,0l-3.535-3.536L23.9,32.495
			l3.536,3.535c0.39,0.391,0.39,1.024,0,1.415c-0.391,0.39-1.024,0.39-1.415,0l-3.535-3.536l-3.793,3.793
			c-0.181,0.181-0.431,0.293-0.707,0.293c-0.553,0-1-0.447-1-1c0-0.276,0.112-0.526,0.293-0.707l3.793-3.793l-3.536-3.535
			c-0.39-0.391-0.39-1.024,0-1.414c0.391-0.391,1.024-0.391,1.415,0l3.535,3.535l3.586-3.586l-3.536-3.535
			c-0.39-0.391-0.39-1.024,0-1.414c0.391-0.391,1.024-0.391,1.415,0l3.535,3.535l3.586-3.586l-3.535-3.535
			c-0.391-0.391-0.391-1.023,0-1.414c0.39-0.391,1.023-0.391,1.414,0l3.535,3.535L36.279,17.288z"/>
	</g>
</g>
<g>
</g>
<g>
</g>
<g>
</g>
<g>
</g>
<g>
</g>
<g>
</g>
<g>
</g>
<g>
</g>
<g>
</g>
<g>
</g>
<g>
</g>
<g>
</g>
<g>
</g>
<g>
</g>
<g>
</g>
</svg>
