<?xml version="1.0" encoding="iso-8859-1"?>
<!-- Generator: Adobe Illustrator 16.0.4, SVG Export Plug-In . SVG Version: 6.00 Build 0)  -->
<!DOCTYPE svg PUBLIC "-//W3C//DTD SVG 1.1//EN" "http://www.w3.org/Graphics/SVG/1.1/DTD/svg11.dtd">
<svg version="1.1" id="Layer_1" xmlns="http://www.w3.org/2000/svg" xmlns:xlink="http://www.w3.org/1999/xlink" x="0px" y="0px"
	 width="55.908px" height="55.908px" viewBox="0 0 55.908 55.908" style="enable-background:new 0 0 55.908 55.908;"
	 xml:space="preserve">
<g id="_x31_086-basketball-selected_x40_2x.png">
	<g>
		<path d="M47.013,7.481c-4.761-4.434-11.058-7.217-18.011-7.477c-0.012,0.317-0.048,0.629-0.048,0.949
			c0,6.819,2.646,13.007,6.942,17.645L47.013,7.481z M34.481,20.013c-4.656-5.001-7.527-11.687-7.527-19.059
			c0-0.322,0.037-0.635,0.048-0.954C20.011,0.237,13.679,3.028,8.896,7.481L27.954,26.54L34.481,20.013z M54.954,26.954
			c0.32,0,0.632-0.036,0.949-0.048c-0.26-6.953-3.043-13.25-7.477-18.01L37.311,20.013C41.947,24.308,48.135,26.954,54.954,26.954z
			 M20.013,34.481l6.527-6.527L7.481,8.896C3.028,13.679,0.237,20.011,0,27.002c0.319-0.011,0.632-0.048,0.954-0.048
			C8.326,26.954,15.012,29.825,20.013,34.481z M21.427,35.896c4.656,5,7.527,11.686,7.527,19.058c0,0.322-0.037,0.635-0.048,0.954
			c6.991-0.237,13.323-3.028,18.106-7.481L27.954,29.368L21.427,35.896z M54.954,28.954c-7.372,0-14.058-2.871-19.059-7.527
			l-6.527,6.527l19.059,19.059c4.453-4.783,7.244-11.115,7.481-18.106C55.589,28.917,55.276,28.954,54.954,28.954z M8.896,48.427
			c4.76,4.434,11.057,7.217,18.01,7.477c0.012-0.317,0.048-0.629,0.048-0.949c0-6.819-2.646-13.006-6.941-17.644L8.896,48.427z
			 M0.954,28.954c-0.32,0-0.632,0.036-0.949,0.048c0.26,6.953,3.044,13.25,7.477,18.011l11.116-11.116
			C13.961,31.601,7.773,28.954,0.954,28.954z"/>
	</g>
</g>
<g>
</g>
<g>
</g>
<g>
</g>
<g>
</g>
<g>
</g>
<g>
</g>
<g>
</g>
<g>
</g>
<g>
</g>
<g>
</g>
<g>
</g>
<g>
</g>
<g>
</g>
<g>
</g>
<g>
</g>
</svg>
