<?xml version="1.0" encoding="iso-8859-1"?>
<!-- Generator: Adobe Illustrator 16.0.4, SVG Export Plug-In . SVG Version: 6.00 Build 0)  -->
<!DOCTYPE svg PUBLIC "-//W3C//DTD SVG 1.1//EN" "http://www.w3.org/Graphics/SVG/1.1/DTD/svg11.dtd">
<svg version="1.1" id="Layer_1" xmlns="http://www.w3.org/2000/svg" xmlns:xlink="http://www.w3.org/1999/xlink" x="0px" y="0px"
	 width="56px" height="56px" viewBox="0 0 56 56" style="enable-background:new 0 0 56 56;" xml:space="preserve">
<g id="_x31_087-soccer-ball-selected_x40_2x.png">
	<g>
		<path d="M28,0C12.536,0,0,12.536,0,28s12.536,28,28,28s28-12.536,28-28S43.464,0,28,0z M40.197,44.119l7.56,0.757
			c-2.935,3.432-6.748,6.075-11.091,7.613c-0.408,0.145-0.812,0.293-1.229,0.418l3.079-7.699L32.725,37H22.131l-4.752,7.391
			l2.237,8.202c-4.272-1.457-8.034-3.992-10.98-7.285c-0.161-0.181-0.331-0.353-0.487-0.537l7.585-1.517l4.918-7.65l-2.364-9.453
			l-9.536-3.18l-6.74,5.243C2.01,28.142,2,28.072,2,28c0-4.837,1.345-9.349,3.645-13.228c0.001,0,0.001,0,0.001,0
			c0.216-0.365,0.426-0.733,0.659-1.086l3.319,7.468l9.306,3.102L27,17.8V8.25l-6.761-5.07C22.69,2.414,25.297,2,28,2
			c1.922,0,3.79,0.224,5.594,0.619c0.021,0.005,0.041,0.012,0.062,0.016c0.423,0.094,0.837,0.208,1.251,0.322L29,8.125v9.764
			l7.126,6.334l10.294-3.167l3.275-7.369c2.596,3.926,4.138,8.597,4.27,13.624l-6.654-4.437l-10.594,3.26l-2.41,9.64L40.197,44.119z
			"/>
	</g>
</g>
<g>
</g>
<g>
</g>
<g>
</g>
<g>
</g>
<g>
</g>
<g>
</g>
<g>
</g>
<g>
</g>
<g>
</g>
<g>
</g>
<g>
</g>
<g>
</g>
<g>
</g>
<g>
</g>
<g>
</g>
</svg>
