<?xml version="1.0" encoding="iso-8859-1"?>
<!-- Generator: Adobe Illustrator 16.0.4, SVG Export Plug-In . SVG Version: 6.00 Build 0)  -->
<!DOCTYPE svg PUBLIC "-//W3C//DTD SVG 1.1//EN" "http://www.w3.org/Graphics/SVG/1.1/DTD/svg11.dtd">
<svg version="1.1" id="Layer_1" xmlns="http://www.w3.org/2000/svg" xmlns:xlink="http://www.w3.org/1999/xlink" x="0px" y="0px"
	 width="55.905px" height="55.905px" viewBox="0 0 55.905 55.905" style="enable-background:new 0 0 55.905 55.905;"
	 xml:space="preserve">
<g id="_x31_088-tennis-ball-selected_x40_2x.png">
	<g>
		<path d="M54.952,26.952c0.321,0,0.634,0.037,0.953,0.048C55.409,12.301,43.604,0.496,28.904,0
			c0.011,0.319,0.048,0.631,0.048,0.952c0,15.464-12.536,28-28,28c-0.321,0-0.633-0.037-0.952-0.048
			c0.496,14.7,12.301,26.505,27,27.001c-0.011-0.319-0.048-0.631-0.048-0.953C26.952,39.488,39.488,26.952,54.952,26.952z
			 M26.952,0.952c0-0.319-0.036-0.63-0.048-0.947C12.28,0.548,0.548,12.28,0.005,26.904c0.317,0.012,0.628,0.048,0.947,0.048
			C15.312,26.952,26.952,15.312,26.952,0.952z M28.952,54.952c0,0.32,0.036,0.63,0.048,0.947C43.624,55.356,55.356,43.624,55.899,29
			c-0.317-0.012-0.628-0.048-0.947-0.048C40.593,28.952,28.952,40.593,28.952,54.952z"/>
	</g>
</g>
<g>
</g>
<g>
</g>
<g>
</g>
<g>
</g>
<g>
</g>
<g>
</g>
<g>
</g>
<g>
</g>
<g>
</g>
<g>
</g>
<g>
</g>
<g>
</g>
<g>
</g>
<g>
</g>
<g>
</g>
</svg>
