<?xml version="1.0" encoding="iso-8859-1"?>
<!-- Generator: Adobe Illustrator 16.0.4, SVG Export Plug-In . SVG Version: 6.00 Build 0)  -->
<!DOCTYPE svg PUBLIC "-//W3C//DTD SVG 1.1//EN" "http://www.w3.org/Graphics/SVG/1.1/DTD/svg11.dtd">
<svg version="1.1" id="Layer_1" xmlns="http://www.w3.org/2000/svg" xmlns:xlink="http://www.w3.org/1999/xlink" x="0px" y="0px"
	 width="56px" height="56px" viewBox="0 0 56 56" style="enable-background:new 0 0 56 56;" xml:space="preserve">
<g id="_x31_090-ping-pong-paddle-selected_x40_2x.png">
	<g>
		<path d="M12,22c0,11.211,11.12,22,22,22c0.793,0,1.585-0.084,2.373-0.212l-24.16-24.161C12.084,20.415,12,21.207,12,22z
			 M14.536,35.63l-14.2,12.623l0.006,0.007C0.136,48.443,0,48.703,0,49c0,0.276,0.112,0.526,0.293,0.707l6,6
			C6.474,55.888,6.724,56,7,56c0.298,0,0.557-0.136,0.74-0.342l0.007,0.006l12.634-14.212C18.17,39.816,16.182,37.842,14.536,35.63z
			 M56,20C56,8.954,47.046,0,36,0c-9.481,0-20.345,8.075-23.238,17.348l25.891,25.891C47.925,40.345,56,29.481,56,20z M50,44
			c-3.313,0-6,2.687-6,6s2.687,6,6,6s6-2.687,6-6S53.313,44,50,44z"/>
	</g>
</g>
<g>
</g>
<g>
</g>
<g>
</g>
<g>
</g>
<g>
</g>
<g>
</g>
<g>
</g>
<g>
</g>
<g>
</g>
<g>
</g>
<g>
</g>
<g>
</g>
<g>
</g>
<g>
</g>
<g>
</g>
</svg>
