<?xml version="1.0" encoding="iso-8859-1"?>
<!-- Generator: Adobe Illustrator 16.0.4, SVG Export Plug-In . SVG Version: 6.00 Build 0)  -->
<!DOCTYPE svg PUBLIC "-//W3C//DTD SVG 1.1//EN" "http://www.w3.org/Graphics/SVG/1.1/DTD/svg11.dtd">
<svg version="1.1" id="Layer_1" xmlns="http://www.w3.org/2000/svg" xmlns:xlink="http://www.w3.org/1999/xlink" x="0px" y="0px"
	 width="56px" height="56px" viewBox="0 0 56 56" style="enable-background:new 0 0 56 56;" xml:space="preserve">
<g id="_x31_091-weights-selected_x40_2x.png">
	<g>
		<path d="M0,41.969c0,1.107,0.449,2.109,1.176,2.835h0l4.306,4.301l-1.188,1.188C4.112,50.474,4,50.724,4,51c0,0.553,0.448,1,1,1
			c0.276,0,0.526-0.112,0.707-0.293l1.189-1.189l4.312,4.308C11.935,55.551,12.938,56,14.047,56c1.471,0,2.738-0.801,3.433-1.98
			L1.993,38.532C0.806,39.226,0,40.495,0,41.969z M56,14.047c0-1.108-0.449-2.111-1.175-2.838l-4.308-4.312l1.189-1.189
			C51.888,5.526,52,5.276,52,5c0-0.553-0.447-1-1-1c-0.276,0-0.526,0.112-0.707,0.293l-1.188,1.188l-4.301-4.306
			C44.078,0.449,43.076,0,41.969,0c-1.501,0-2.789,0.837-3.473,2.061l15.456,15.457C55.169,16.831,56,15.545,56,14.047z
			 M33.674,0.066C33.455,0.038,33.238,0,33.011,0C30.243,0,28,2.246,28,5.017c0,1.386,0.561,2.64,1.468,3.548l6.279,6.274
			l-0.008,0.008l5.414,5.414l0.009-0.009l6.283,6.278c0.907,0.908,2.159,1.47,3.544,1.47C53.757,28,56,25.754,56,22.983
			c0-0.225-0.037-0.439-0.066-0.656L33.674,0.066z M20.251,41.162l0.02-0.019l-5.415-5.414l-0.017,0.017l-6.275-6.278
			C7.656,28.561,6.402,28,5.017,28C2.246,28,0,30.244,0,33.012c0,0.266,0.039,0.522,0.079,0.777l22.133,22.133
			C22.465,55.962,22.719,56,22.983,56C25.754,56,28,53.757,28,50.988c0-1.383-0.562-2.636-1.469-3.543L20.251,41.162z
			 M16.271,34.314l5.414,5.415l18.054-18.055l-5.414-5.414L16.271,34.314z"/>
	</g>
</g>
<g>
</g>
<g>
</g>
<g>
</g>
<g>
</g>
<g>
</g>
<g>
</g>
<g>
</g>
<g>
</g>
<g>
</g>
<g>
</g>
<g>
</g>
<g>
</g>
<g>
</g>
<g>
</g>
<g>
</g>
</svg>
