<?xml version="1.0" encoding="iso-8859-1"?>
<!-- Generator: Adobe Illustrator 16.0.4, SVG Export Plug-In . SVG Version: 6.00 Build 0)  -->
<!DOCTYPE svg PUBLIC "-//W3C//DTD SVG 1.1//EN" "http://www.w3.org/Graphics/SVG/1.1/DTD/svg11.dtd">
<svg version="1.1" id="Layer_1" xmlns="http://www.w3.org/2000/svg" xmlns:xlink="http://www.w3.org/1999/xlink" x="0px" y="0px"
	 width="42.96px" height="56px" viewBox="0 0 42.96 56" style="enable-background:new 0 0 42.96 56;" xml:space="preserve">
<g id="_x31_092-boxing-glove-selected_x40_2x.png">
	<g>
		<path d="M37.98,44h-24c-1.104,0-2,0.896-2,2v3h11c0.553,0,1,0.448,1,1c0,0.553-0.447,1-1,1h-11v3c0,1.104,0.896,2,2,2h24
			c1.104,0,2-0.896,2-2v-8C39.98,44.896,39.084,44,37.98,44z M24.96,0c-8.765,0-19,3.929-19,15c0,0.352-0.036,0.647-0.065,0.953
			c1.027,1.018,7.441,6.798,16.995,5.932c10.403-0.945,14.221-6.503,14.258-6.559c0.306-0.46,0.926-0.584,1.387-0.277
			c0.46,0.307,0.584,0.927,0.277,1.387c-0.174,0.262-4.396,6.41-15.742,7.441c-0.885,0.08-1.733,0.117-2.546,0.117
			c-7.379,0-12.896-3.907-15.169-5.847c-0.673,1.47-1.677,1.891-1.767,1.924c-0.103,0.042-2.542,1.041-3.339,3.408
			c-0.518,1.535-0.229,3.229,0.854,5.035c1.004,1.673,2.02,2.635,3.001,3.564c0.942,0.893,1.917,1.815,3.024,3.476
			C9.241,38.724,11.425,42,14.96,42h23c2.77,0,4-3.623,4-5c0-0.181,0.055-0.81,0.124-1.605C42.346,32.391,42.96,25.355,42.96,16
			C42.96,4.344,31.92,0,24.96,0z"/>
	</g>
</g>
<g>
</g>
<g>
</g>
<g>
</g>
<g>
</g>
<g>
</g>
<g>
</g>
<g>
</g>
<g>
</g>
<g>
</g>
<g>
</g>
<g>
</g>
<g>
</g>
<g>
</g>
<g>
</g>
<g>
</g>
</svg>
