<?xml version="1.0" encoding="iso-8859-1"?>
<!-- Generator: Adobe Illustrator 16.0.4, SVG Export Plug-In . SVG Version: 6.00 Build 0)  -->
<!DOCTYPE svg PUBLIC "-//W3C//DTD SVG 1.1//EN" "http://www.w3.org/Graphics/SVG/1.1/DTD/svg11.dtd">
<svg version="1.1" id="Layer_1" xmlns="http://www.w3.org/2000/svg" xmlns:xlink="http://www.w3.org/1999/xlink" x="0px" y="0px"
	 width="56px" height="52px" viewBox="0 0 56 52" style="enable-background:new 0 0 56 52;" xml:space="preserve">
<g id="_x31_095-viking-ship-selected_x40_2x.png">
	<g>
		<path d="M29.63,30h5.625c0.987-1.468,4.729-7.476,4.729-14.031c0-6.476-3.647-12.409-4.688-13.969h-5.629
			c1.58,2.607,4.318,7.991,4.318,13.969C33.985,21.993,31.203,27.417,29.63,30z M32,34c-2.209,0-4,1.791-4,4s1.791,4,4,4
			s4-1.791,4-4S34.209,34,32,34z M42,34c-2.209,0-4,1.791-4,4s1.791,4,4,4s4-1.791,4-4S44.209,34,42,34z M37.63,30H45
			c0.415,0,0.771-0.253,0.922-0.613c0.753-1.023,4.021-5.893,4.06-13.293C49.984,16.062,50,16.033,50,16
			c0-0.029-0.015-0.054-0.017-0.082C49.967,7.692,45.938,2.56,45.766,2.344L45.75,2.356C45.566,2.143,45.304,2,45,2h-7.333
			c1.58,2.607,4.318,7.991,4.318,13.969C41.985,21.993,39.203,27.417,37.63,30z M13.63,30h5.625
			c0.987-1.468,4.729-7.476,4.729-14.031c0-6.476-3.647-12.409-4.688-13.969h-5.629c1.58,2.607,4.317,7.991,4.317,13.969
			C17.984,21.993,15.203,27.417,13.63,30z M5,30h6.255c0.987-1.468,4.729-7.476,4.729-14.031c0-6.476-3.647-12.409-4.688-13.969H5
			C4.447,2,4,2.447,4,3c0,0.224,0.087,0.419,0.211,0.585L4.203,3.592C4.24,3.64,7.984,8.446,7.984,15.969S4.24,28.298,4.204,28.344
			l0.035,0.028C4.097,28.545,4,28.758,4,29C4,29.553,4.447,30,5,30z M8,42c2.209,0,4-1.791,4-4s-1.791-4-4-4s-4,1.791-4,4
			S5.791,42,8,42z M14,38c0,2.209,1.791,4,4,4s4-1.791,4-4s-1.791-4-4-4S14,35.791,14,38z M52,38c-0.738,0-1.376,0.404-1.723,1H49
			c-0.553,0-1,0.447-1,1v3h-0.069c-0.043,0.344-0.135,0.671-0.22,1H26V30h1.255c0.987-1.468,4.729-7.476,4.729-14.031
			c0-6.476-3.647-12.409-4.688-13.969H26V1c0-0.553-0.447-1-1-1s-1,0.447-1,1v1h-2.333c1.58,2.607,4.317,7.991,4.317,13.969
			c0,6.024-2.781,11.448-4.354,14.031H24v14H2.289c-0.085-0.329-0.177-0.656-0.22-1H2v-3c0-0.553-0.447-1-1-1s-1,0.447-1,1v3h0.051
			c0.502,5.053,4.764,9,9.949,9h30c5.186,0,9.447-3.947,9.949-9H50v-2h0.277c0.347,0.596,0.984,1,1.723,1c0,0,4-1,4-2S52,38,52,38z"
			/>
	</g>
</g>
<g>
</g>
<g>
</g>
<g>
</g>
<g>
</g>
<g>
</g>
<g>
</g>
<g>
</g>
<g>
</g>
<g>
</g>
<g>
</g>
<g>
</g>
<g>
</g>
<g>
</g>
<g>
</g>
<g>
</g>
</svg>
