<?xml version="1.0" encoding="iso-8859-1"?>
<!-- Generator: Adobe Illustrator 16.0.4, SVG Export Plug-In . SVG Version: 6.00 Build 0)  -->
<!DOCTYPE svg PUBLIC "-//W3C//DTD SVG 1.1//EN" "http://www.w3.org/Graphics/SVG/1.1/DTD/svg11.dtd">
<svg version="1.1" id="Layer_1" xmlns="http://www.w3.org/2000/svg" xmlns:xlink="http://www.w3.org/1999/xlink" x="0px" y="0px"
	 width="56px" height="56px" viewBox="0 0 56 56" style="enable-background:new 0 0 56 56;" xml:space="preserve">
<g id="_x31_097-timer-2-selected_x40_2x.png">
	<g>
		<path d="M28,0C12.536,0,0,12.536,0,28s12.536,28,28,28s28-12.536,28-28S43.464,0,28,0z M30.118,25.855
			c1.176,1.172,1.176,3.071,0,4.242c-1.174,1.17-3.076,1.171-4.253,0.006l-0.006,0.007c-2.829-2.829-14.002-18.252-14.002-18.252
			s15.187,11.001,18.18,13.932C30.063,25.814,30.093,25.831,30.118,25.855z M28,3c1.104,0,2,0.896,2,2s-0.896,2-2,2s-2-0.896-2-2
			S26.896,3,28,3z M14.895,7.909c-1.53,1.106-2.939,2.304-4.2,3.489C11.956,10.083,13.362,8.91,14.895,7.909z M28,52
			C14.745,52,4,41.255,4,28c0-2.981,0.572-5.823,1.566-8.457c0.086-0.465,0.475-0.824,0.965-0.824c0.553,0,1,0.448,1,1
			c0,0.115-0.029,0.221-0.065,0.323l0.037,0.013C6.546,22.521,6,25.194,6,28c0,12.15,9.85,22,22,22s22-9.85,22-22
			c0-9.073-5.495-16.86-13.337-20.225C36.278,7.637,36,7.276,36,6.844c0-0.553,0.447-1,1-1c0.136,0,0.266,0.028,0.384,0.077
			l0.006-0.012C45.978,9.564,52,18.078,52,28C52,41.255,41.255,52,28,52z"/>
	</g>
</g>
<g>
</g>
<g>
</g>
<g>
</g>
<g>
</g>
<g>
</g>
<g>
</g>
<g>
</g>
<g>
</g>
<g>
</g>
<g>
</g>
<g>
</g>
<g>
</g>
<g>
</g>
<g>
</g>
<g>
</g>
</svg>
