<?xml version="1.0" encoding="iso-8859-1"?>
<!-- Generator: Adobe Illustrator 16.0.4, SVG Export Plug-In . SVG Version: 6.00 Build 0)  -->
<!DOCTYPE svg PUBLIC "-//W3C//DTD SVG 1.1//EN" "http://www.w3.org/Graphics/SVG/1.1/DTD/svg11.dtd">
<svg version="1.1" id="Layer_1" xmlns="http://www.w3.org/2000/svg" xmlns:xlink="http://www.w3.org/1999/xlink" x="0px" y="0px"
	 width="56px" height="20px" viewBox="0 0 56 20" style="enable-background:new 0 0 56 20;" xml:space="preserve">
<g id="_x31_098-level-selected_x40_2x.png">
	<g>
		<path d="M28,10c5.522,0,10-4.477,10-10H18C18,5.523,22.478,10,28,10z M0,10c0,5.522,4.478,10,10,10h2V0h-2C4.478,0,0,4.478,0,10z
			 M28,12c-6.627,0-12-5.373-12-12h-2v20h28V0h-2C40,6.627,34.627,12,28,12z M46,0h-2v20h2c5.522,0,10-4.478,10-10S51.522,0,46,0z"
			/>
	</g>
</g>
<g>
</g>
<g>
</g>
<g>
</g>
<g>
</g>
<g>
</g>
<g>
</g>
<g>
</g>
<g>
</g>
<g>
</g>
<g>
</g>
<g>
</g>
<g>
</g>
<g>
</g>
<g>
</g>
<g>
</g>
</svg>
