<?xml version="1.0" encoding="iso-8859-1"?>
<!-- Generator: Adobe Illustrator 16.0.4, SVG Export Plug-In . SVG Version: 6.00 Build 0)  -->
<!DOCTYPE svg PUBLIC "-//W3C//DTD SVG 1.1//EN" "http://www.w3.org/Graphics/SVG/1.1/DTD/svg11.dtd">
<svg version="1.1" id="Layer_1" xmlns="http://www.w3.org/2000/svg" xmlns:xlink="http://www.w3.org/1999/xlink" x="0px" y="0px"
	 width="56px" height="56px" viewBox="0 0 56 56" style="enable-background:new 0 0 56 56;" xml:space="preserve">
<g id="_x39_08-target-selected_x40_2x.png">
	<g>
		<path d="M28,14c-7.732,0-14,6.269-14,14c0,7.732,6.268,14,14,14s14-6.268,14-14C42,20.269,35.732,14,28,14z M28,32
			c-2.209,0-4-1.791-4-4s1.791-4,4-4s4,1.791,4,4S30.209,32,28,32z M28,0C12.536,0,0,12.536,0,28s12.536,28,28,28s28-12.536,28-28
			S43.464,0,28,0z M28,44c-8.837,0-16-7.163-16-16c0-8.836,7.163-16,16-16s16,7.164,16,16C44,36.837,36.837,44,28,44z"/>
	</g>
</g>
<g>
</g>
<g>
</g>
<g>
</g>
<g>
</g>
<g>
</g>
<g>
</g>
<g>
</g>
<g>
</g>
<g>
</g>
<g>
</g>
<g>
</g>
<g>
</g>
<g>
</g>
<g>
</g>
<g>
</g>
</svg>
