<?xml version="1.0" encoding="iso-8859-1"?>
<!-- Generator: Adobe Illustrator 16.0.4, SVG Export Plug-In . SVG Version: 6.00 Build 0)  -->
<!DOCTYPE svg PUBLIC "-//W3C//DTD SVG 1.1//EN" "http://www.w3.org/Graphics/SVG/1.1/DTD/svg11.dtd">
<svg version="1.1" id="Layer_1" xmlns="http://www.w3.org/2000/svg" xmlns:xlink="http://www.w3.org/1999/xlink" x="0px" y="0px"
	 width="55.977px" height="55.981px" viewBox="0 0 55.977 55.981" style="enable-background:new 0 0 55.977 55.981;"
	 xml:space="preserve">
<g id="_x39_09-tags-selected_x40_2x.png">
	<g>
		<path d="M32.031,2.001l19.4,0.004c-0.688-1.195-1.96-2-3.45-2L28.296,0.001c-1.058-0.028-2.125,0.353-2.933,1.161L1.17,25.369
			c-1.561,1.562-1.561,4.093,0,5.654l0.864,0.864c-0.005-1.359,0.42-2.722,1.279-3.567L28.318,3.251
			C29.203,2.381,30.872,1.971,32.031,2.001z M51.979,4.005L32.294,4.001c-1.059-0.028-2.125,0.353-2.933,1.161L5.168,29.369
			c-1.561,1.562-1.561,4.093,0,5.654l19.777,19.788c1.56,1.561,4.09,1.561,5.65,0l24.193-24.207c0.809-0.809,1.188-1.877,1.16-2.936
			l0.027-19.663C55.977,5.779,54.204,4.005,51.979,4.005z M44.991,18.996c-2.207,0-3.996-1.79-3.996-3.998S42.784,11,44.991,11
			c2.206,0,3.995,1.79,3.995,3.998S47.197,18.996,44.991,18.996z"/>
	</g>
</g>
<g>
</g>
<g>
</g>
<g>
</g>
<g>
</g>
<g>
</g>
<g>
</g>
<g>
</g>
<g>
</g>
<g>
</g>
<g>
</g>
<g>
</g>
<g>
</g>
<g>
</g>
<g>
</g>
<g>
</g>
</svg>
