<?xml version="1.0" encoding="iso-8859-1"?>
<!-- Generator: Adobe Illustrator 16.0.4, SVG Export Plug-In . SVG Version: 6.00 Build 0)  -->
<!DOCTYPE svg PUBLIC "-//W3C//DTD SVG 1.1//EN" "http://www.w3.org/Graphics/SVG/1.1/DTD/svg11.dtd">
<svg version="1.1" id="Layer_1" xmlns="http://www.w3.org/2000/svg" xmlns:xlink="http://www.w3.org/1999/xlink" x="0px" y="0px"
	 width="56px" height="44px" viewBox="0 0 56 44" style="enable-background:new 0 0 56 44;" xml:space="preserve">
<g id="_x39_10-graph-selected_x40_2x.png">
	<g>
		<path d="M54,0H2C0.896,0,0,0.896,0,2v40c0,1.104,0.896,2,2,2h52c1.104,0,2-0.896,2-2V2C56,0.896,55.104,0,54,0z M49.943,7.333
			l-6,17l-0.01-0.004C43.796,24.718,43.436,25,43,25c-0.371,0-0.682-0.211-0.854-0.512l-0.014,0.008l-7.351-12.863l-4.959,4.96
			l-9.928,19.854l-0.009-0.005C19.721,36.77,19.391,37,19,37c-0.436,0-0.796-0.282-0.934-0.67l-0.01,0.003l-5.378-15.238L7.8,27.6
			l-0.014-0.01C7.604,27.832,7.327,28,7,28c-0.553,0-1-0.447-1-1c0-0.226,0.088-0.423,0.214-0.59L6.2,26.4l6-8l0.014,0.01
			C12.396,18.167,12.673,18,13,18c0.436,0,0.796,0.282,0.934,0.671l0.01-0.004l5.216,14.779l8.946-17.894l0.009,0.005
			c0.049-0.096,0.114-0.18,0.188-0.255l-0.01-0.01l6-6C34.474,9.112,34.724,9,35,9c0.371,0,0.682,0.212,0.854,0.512l0.014-0.008
			l6.916,12.103l5.272-14.939l0.01,0.004C48.204,6.282,48.564,6,49,6c0.553,0,1,0.448,1,1c0,0.117-0.029,0.226-0.066,0.329
			L49.943,7.333z"/>
	</g>
</g>
<g>
</g>
<g>
</g>
<g>
</g>
<g>
</g>
<g>
</g>
<g>
</g>
<g>
</g>
<g>
</g>
<g>
</g>
<g>
</g>
<g>
</g>
<g>
</g>
<g>
</g>
<g>
</g>
<g>
</g>
</svg>
