<?xml version="1.0" encoding="iso-8859-1"?>
<!-- Generator: Adobe Illustrator 16.0.4, SVG Export Plug-In . SVG Version: 6.00 Build 0)  -->
<!DOCTYPE svg PUBLIC "-//W3C//DTD SVG 1.1//EN" "http://www.w3.org/Graphics/SVG/1.1/DTD/svg11.dtd">
<svg version="1.1" id="Layer_1" xmlns="http://www.w3.org/2000/svg" xmlns:xlink="http://www.w3.org/1999/xlink" x="0px" y="0px"
	 width="56px" height="56px" viewBox="0 0 56 56" style="enable-background:new 0 0 56 56;" xml:space="preserve">
<g id="_x39_12-gears-selected_x40_2x.png">
	<g>
		<path d="M37.264,34.436c0.312-0.312,0.363-0.774,0.176-1.149l0.012-0.006l-2.385-4.769c0.49-0.92,0.924-1.875,1.23-2.89
			l5.02-1.673l-0.004-0.013C41.709,23.805,42,23.441,42,23v-4c0-0.441-0.291-0.805-0.688-0.937l0.004-0.012l-5.02-1.674
			c-0.307-1.015-0.74-1.97-1.23-2.89l2.385-4.769l-0.012-0.006c0.188-0.375,0.136-0.837-0.176-1.148l-2.829-2.829
			c-0.312-0.312-0.774-0.363-1.148-0.176L33.28,4.549l-4.765,2.383c-0.921-0.492-1.878-0.927-2.896-1.234l-1.672-5.014l-0.012,0.004
			C23.805,0.291,23.441,0,23,0h-4c-0.441,0-0.805,0.291-0.937,0.688l-0.012-0.004L16.38,5.697c-1.018,0.308-1.974,0.742-2.896,1.234
			L8.72,4.549L8.714,4.561C8.34,4.373,7.877,4.425,7.565,4.736L4.736,7.565C4.425,7.877,4.373,8.339,4.561,8.714L4.549,8.72
			l2.385,4.769c-0.49,0.92-0.924,1.875-1.23,2.89l-5.02,1.674l0.004,0.012C0.291,18.195,0,18.559,0,19v4
			c0,0.441,0.291,0.805,0.688,0.937l-0.004,0.013l5.02,1.673c0.307,1.015,0.74,1.97,1.23,2.89L4.549,33.28l0.012,0.006
			c-0.188,0.375-0.136,0.837,0.176,1.149l2.829,2.828c0.312,0.312,0.774,0.363,1.148,0.176l0.006,0.012l4.765-2.383
			c0.921,0.492,1.878,0.927,2.896,1.234l1.672,5.014l0.012-0.004C18.195,41.709,18.559,42,19,42h4c0.441,0,0.805-0.291,0.937-0.688
			l0.012,0.004l1.672-5.014c1.018-0.308,1.975-0.742,2.896-1.234l4.765,2.383l0.006-0.012c0.374,0.188,0.837,0.137,1.148-0.176
			L37.264,34.436z M21,28c-3.866,0-7-3.134-7-7s3.134-7,7-7s7,3.134,7,7S24.866,28,21,28z M55.192,42.039l0.004-0.02l-1.859-0.372
			c-0.022-0.056-0.056-0.105-0.078-0.161l1.059-1.589l-0.017-0.011c0.258-0.388,0.234-0.908-0.108-1.251l-2.828-2.828
			c-0.343-0.342-0.862-0.366-1.251-0.108l-0.011-0.017l-1.589,1.06c-0.056-0.023-0.105-0.057-0.161-0.079l-0.372-1.859l-0.02,0.004
			C47.869,34.351,47.484,34,47,34h-4c-0.484,0-0.869,0.351-0.961,0.808l-0.02-0.004l-0.372,1.859
			c-0.056,0.022-0.105,0.056-0.161,0.079l-1.589-1.06l-0.011,0.017c-0.388-0.258-0.908-0.234-1.251,0.108l-2.828,2.828
			c-0.342,0.343-0.366,0.863-0.108,1.251l-0.017,0.011l1.06,1.589c-0.023,0.056-0.057,0.105-0.079,0.161l-1.859,0.372l0.004,0.02
			C34.351,42.131,34,42.516,34,43v4c0,0.484,0.351,0.869,0.808,0.961l-0.004,0.02l1.859,0.372c0.022,0.056,0.056,0.105,0.078,0.161
			l-1.059,1.589l0.017,0.011c-0.258,0.389-0.233,0.908,0.108,1.251l2.828,2.828c0.343,0.343,0.862,0.366,1.251,0.108l0.011,0.017
			l1.589-1.059c0.056,0.022,0.105,0.056,0.161,0.078l0.372,1.859l0.02-0.004C42.131,55.649,42.516,56,43,56h4
			c0.484,0,0.869-0.351,0.961-0.808l0.02,0.004l0.372-1.859c0.056-0.022,0.105-0.056,0.161-0.078l1.589,1.059l0.011-0.017
			c0.389,0.258,0.908,0.234,1.251-0.108l2.828-2.828c0.343-0.343,0.366-0.862,0.108-1.251l0.017-0.011l-1.059-1.589
			c0.022-0.056,0.056-0.105,0.078-0.161l1.859-0.372l-0.004-0.02C55.649,47.869,56,47.484,56,47v-4
			C56,42.516,55.649,42.131,55.192,42.039z M45,48c-1.657,0-3-1.343-3-3c0-1.656,1.343-3,3-3s3,1.344,3,3C48,46.657,46.657,48,45,48
			z"/>
	</g>
</g>
<g>
</g>
<g>
</g>
<g>
</g>
<g>
</g>
<g>
</g>
<g>
</g>
<g>
</g>
<g>
</g>
<g>
</g>
<g>
</g>
<g>
</g>
<g>
</g>
<g>
</g>
<g>
</g>
<g>
</g>
</svg>
