<?xml version="1.0" encoding="iso-8859-1"?>
<!-- Generator: Adobe Illustrator 16.0.4, SVG Export Plug-In . SVG Version: 6.00 Build 0)  -->
<!DOCTYPE svg PUBLIC "-//W3C//DTD SVG 1.1//EN" "http://www.w3.org/Graphics/SVG/1.1/DTD/svg11.dtd">
<svg version="1.1" id="Layer_1" xmlns="http://www.w3.org/2000/svg" xmlns:xlink="http://www.w3.org/1999/xlink" x="0px" y="0px"
	 width="52px" height="56px" viewBox="0 0 52 56" style="enable-background:new 0 0 52 56;" xml:space="preserve">
<g id="_x39_13-skull-selected_x40_2x.png">
	<g>
		<path d="M26,0C11.641,0,0,10.298,0,23c0,5.578,2.262,10.677,6,14.654V46c0,4.418,3.582,8,8,8c2.162,0,4.121-0.861,5.561-2.256
			C20.628,54.246,23.108,56,26,56s5.372-1.754,6.439-4.256C33.879,53.139,35.838,54,38,54c4.418,0,8-3.582,8-8v-8.346
			c3.738-3.978,6-9.076,6-14.654C52,10.298,40.359,0,26,0z M15,28c-3.313,0-6-2.687-6-6s2.687-6,6-6s6,2.687,6,6S18.313,28,15,28z
			 M29,38h-6c-0.553,0-1-0.447-1-1c0-0.552,0.447-1,1-1c2,0,2-2,2-2v-1c0-0.553,0.447-1,1-1s1,0.447,1,1v1c0,2,2,2,2,2
			c0.553,0,1,0.448,1,1C30,37.553,29.553,38,29,38z M37,28c-3.313,0-6-2.687-6-6s2.687-6,6-6s6,2.687,6,6S40.313,28,37,28z"/>
	</g>
</g>
<g>
</g>
<g>
</g>
<g>
</g>
<g>
</g>
<g>
</g>
<g>
</g>
<g>
</g>
<g>
</g>
<g>
</g>
<g>
</g>
<g>
</g>
<g>
</g>
<g>
</g>
<g>
</g>
<g>
</g>
</svg>
