<?xml version="1.0" encoding="iso-8859-1"?>
<!-- Generator: Adobe Illustrator 16.0.4, SVG Export Plug-In . SVG Version: 6.00 Build 0)  -->
<!DOCTYPE svg PUBLIC "-//W3C//DTD SVG 1.1//EN" "http://www.w3.org/Graphics/SVG/1.1/DTD/svg11.dtd">
<svg version="1.1" id="Layer_1" xmlns="http://www.w3.org/2000/svg" xmlns:xlink="http://www.w3.org/1999/xlink" x="0px" y="0px"
	 width="50px" height="56px" viewBox="0 0 50 56" style="enable-background:new 0 0 50 56;" xml:space="preserve">
<g id="_x39_14-skull-and-crossbones-selected_x40_2x.png">
	<g>
		<path d="M45.5,41c-1.618,0-3.025,0.862-3.818,2.145l-3.701-1.701l-9.296,4.31l9.548,4.386C38.095,50.57,38,51.022,38,51.5
			c0,2.485,2.015,4.5,4.5,4.5s4.5-2.015,4.5-4.5c0-0.593-0.121-1.155-0.329-1.673C48.585,49.309,50,47.577,50,45.5
			C50,43.015,47.985,41,45.5,41z M15,25c0,2.209,1.791,4,4,4c0.627,0,1.212-0.157,1.74-0.414C21.617,30.028,23.189,31,25,31
			s3.383-0.972,4.26-2.414C29.788,28.843,30.373,29,31,29c2.209,0,4-1.791,4-4v-5.351c1.872-2.074,3-4.737,3-7.649
			c0-6.627-5.82-12-13-12S12,5.373,12,12c0,2.912,1.129,5.575,3,7.65V25z M30,10c1.104,0,2,0.896,2,2s-0.896,2-2,2s-2-0.896-2-2
			S28.896,10,30,10z M23,21c0,0,1-1,1-2c0-0.553,0.447-1,1-1s1,0.447,1,1c0,1,1,2,1,2c0.553,0,1,0.448,1,1c0,0.553-0.447,1-1,1h-4
			c-0.553,0-1-0.447-1-1C22,21.448,22.447,21,23,21z M20,10c1.104,0,2,0.896,2,2s-0.896,2-2,2s-2-0.896-2-2S18.896,10,20,10z
			 M4.5,38c0.359,0,0.708-0.043,1.042-0.124c0.051-0.012,0.095-0.039,0.145-0.053c0.938-0.263,1.755-0.812,2.341-1.561l3.93,1.806
			l9.307-4.304l-9.668-4.441C11.847,28.766,12,28.153,12,27.5c0-2.485-2.015-4.5-4.5-4.5S3,25.015,3,27.5
			c0,0.593,0.121,1.155,0.329,1.674c-0.666,0.18-1.266,0.515-1.772,0.952C0.607,30.945,0,32.146,0,33.5C0,35.985,2.015,38,4.5,38z
			 M41.973,36.263C42.796,37.313,44.062,38,45.5,38c2.485,0,4.5-2.015,4.5-4.5c0-2.077-1.415-3.809-3.329-4.326
			C46.879,28.655,47,28.093,47,27.5c0-2.485-2.015-4.5-4.5-4.5S38,25.015,38,27.5c0,0.653,0.153,1.266,0.404,1.823L8.318,43.145
			C7.525,41.862,6.118,41,4.5,41C2.015,41,0,43.015,0,45.5c0,2.077,1.416,3.809,3.329,4.327C3.121,50.345,3,50.907,3,51.5
			C3,53.985,5.015,56,7.5,56s4.5-2.015,4.5-4.5c0-0.478-0.095-0.93-0.232-1.361L41.973,36.263z"/>
	</g>
</g>
<g>
</g>
<g>
</g>
<g>
</g>
<g>
</g>
<g>
</g>
<g>
</g>
<g>
</g>
<g>
</g>
<g>
</g>
<g>
</g>
<g>
</g>
<g>
</g>
<g>
</g>
<g>
</g>
<g>
</g>
</svg>
