<?xml version="1.0" encoding="iso-8859-1"?>
<!-- Generator: Adobe Illustrator 16.0.4, SVG Export Plug-In . SVG Version: 6.00 Build 0)  -->
<!DOCTYPE svg PUBLIC "-//W3C//DTD SVG 1.1//EN" "http://www.w3.org/Graphics/SVG/1.1/DTD/svg11.dtd">
<svg version="1.1" id="Layer_1" xmlns="http://www.w3.org/2000/svg" xmlns:xlink="http://www.w3.org/1999/xlink" x="0px" y="0px"
	 width="55.924px" height="56px" viewBox="0 0 55.924 56" style="enable-background:new 0 0 55.924 56;" xml:space="preserve">
<g id="_x39_15-bird-selected_x40_2x.png">
	<g>
		<path d="M55.141,9.594C54.967,9.202,50.54,0,42.977,0c-5.158,0-8,2.841-8,8c0,6.407-6.933,25-32.562,25H0l3.727,3.726
			l-3.654,1.827l0.447,0.895C0.65,39.708,1.926,42,6.414,42c4.87,0,7.771,0.606,11.601,1.142c3.132,0.437,5.757,0.395,8.732,1.001
			c0.889,0.287,2.246,1.165,2.246,3.857v6h-2c-0.553,0-1,0.448-1,1c0,0.553,0.447,1,1,1h12c0.553,0,1-0.447,1-1c0-0.552-0.447-1-1-1
			h-8v-5.656c0-4.594,3.281-5.219,3.281-5.219l-0.058-0.001c7.062-1.774,12.76-6.322,12.76-14.124c0-5.242-1.107-8.268-1.916-10.477
			c-1.031-2.817-1.135-3.781,1.801-6.744c1.336-0.849,3.173-1.029,4.49-1.029c1.496,0,2.669,0.229,2.68,0.23l1.893,0.374
			L55.141,9.594z M43.993,8c-1.104,0-2-0.896-2-2s0.896-2,2-2s2,0.896,2,2S45.098,8,43.993,8z"/>
	</g>
</g>
<g>
</g>
<g>
</g>
<g>
</g>
<g>
</g>
<g>
</g>
<g>
</g>
<g>
</g>
<g>
</g>
<g>
</g>
<g>
</g>
<g>
</g>
<g>
</g>
<g>
</g>
<g>
</g>
<g>
</g>
</svg>
