<?xml version="1.0" encoding="iso-8859-1"?>
<!-- Generator: Adobe Illustrator 16.0.4, SVG Export Plug-In . SVG Version: 6.00 Build 0)  -->
<!DOCTYPE svg PUBLIC "-//W3C//DTD SVG 1.1//EN" "http://www.w3.org/Graphics/SVG/1.1/DTD/svg11.dtd">
<svg version="1.1" id="Layer_1" xmlns="http://www.w3.org/2000/svg" xmlns:xlink="http://www.w3.org/1999/xlink" x="0px" y="0px"
	 width="55.988px" height="36px" viewBox="0 0 55.988 36" style="enable-background:new 0 0 55.988 36;" xml:space="preserve">
<g id="_x39_16-planet-selected_x40_2x.png">
	<g>
		<path d="M45.963,17.378C45.633,7.728,37.726,0,27.994,0c-9.941,0-18,8.059-18,18c0,4.336,1.534,8.313,4.089,11.421
			c4.874-0.778,10.606-2.329,16.37-4.496C36.356,22.704,41.739,20.073,45.963,17.378z M55.768,8.083
			c-0.785-2.045-3.414-3.082-7.815-3.082c-1.385,0-2.914,0.112-4.539,0.309c0.497,0.604,0.967,1.231,1.391,1.892
			c1.15-0.113,2.256-0.192,3.252-0.192c3.253,0,5.443,0.651,5.86,1.742c0.431,1.121-0.793,3.543-5.512,6.979
			c-0.755,0.551-1.583,1.1-2.441,1.647c0.007,0.209,0.031,0.412,0.031,0.622c0,0.626-0.032,1.244-0.095,1.854
			c1.317-0.798,2.546-1.604,3.656-2.41C54.572,13.8,56.721,10.563,55.768,8.083z M14.083,29.421c-2.261,0.36-4.354,0.57-6.149,0.57
			c-3.254,0-5.444-0.651-5.861-1.742c-0.431-1.121,0.793-3.543,5.512-6.979c0.202-0.147,0.428-0.294,0.637-0.44
			c-0.113-0.775-0.186-1.562-0.204-2.365c-0.547,0.364-1.081,0.729-1.584,1.093c-5.017,3.644-7.165,6.88-6.212,9.36
			c0.784,2.045,3.414,3.082,7.816,3.082c2.267,0,4.894-0.275,7.756-0.792C15.188,30.646,14.607,30.059,14.083,29.421z
			 M15.793,31.207C19.002,34.173,23.279,36,27.994,36c9.315,0,16.978-7.076,17.905-16.146c-4.141,2.505-9.214,4.922-14.707,6.981
			C25.768,28.87,20.464,30.363,15.793,31.207z"/>
	</g>
</g>
<g>
</g>
<g>
</g>
<g>
</g>
<g>
</g>
<g>
</g>
<g>
</g>
<g>
</g>
<g>
</g>
<g>
</g>
<g>
</g>
<g>
</g>
<g>
</g>
<g>
</g>
<g>
</g>
<g>
</g>
</svg>
