<?xml version="1.0" encoding="iso-8859-1"?>
<!-- Generator: Adobe Illustrator 16.0.4, SVG Export Plug-In . SVG Version: 6.00 Build 0)  -->
<!DOCTYPE svg PUBLIC "-//W3C//DTD SVG 1.1//EN" "http://www.w3.org/Graphics/SVG/1.1/DTD/svg11.dtd">
<svg version="1.1" id="Layer_1" xmlns="http://www.w3.org/2000/svg" xmlns:xlink="http://www.w3.org/1999/xlink" x="0px" y="0px"
	 width="56px" height="56px" viewBox="0 0 56 56" style="enable-background:new 0 0 56 56;" xml:space="preserve">
<g id="_x39_17-speedometer-selected_x40_2x.png">
	<g>
		<path d="M18,44c0-4.418-3.582-8-8-8c-3.097,0-5.777,1.763-7.106,4.337c2.241,4.554,5.668,8.408,9.898,11.152
			C15.831,50.355,18,47.435,18,44z M46,36c-4.418,0-8,3.582-8,8c0,3.435,2.169,6.355,5.209,7.489
			c4.229-2.744,7.656-6.599,9.897-11.152C51.777,37.763,49.097,36,46,36z M28,0C12.536,0,0,12.536,0,28
			c0,3.576,0.696,6.983,1.918,10.128C3.736,35.63,6.674,34,10,34c5.522,0,10,4.478,10,10c0,3.752-2.068,7.017-5.125,8.728
			C18.791,54.811,23.255,56,28,56s9.209-1.189,13.125-3.272C38.069,51.017,36,47.752,36,44c0-5.522,4.478-10,10-10
			c3.326,0,6.264,1.63,8.082,4.128C55.304,34.983,56,31.576,56,28C56,12.536,43.464,0,28,0z M9,29c-0.553,0-1-0.447-1-1
			c0-0.552,0.447-1,1-1s1,0.448,1,1C10,28.553,9.553,29,9,29z M12.411,19c-0.275,0.479-0.888,0.643-1.365,0.366
			C10.567,19.09,10.403,18.479,10.68,18s0.888-0.642,1.366-0.366C12.523,17.91,12.688,18.521,12.411,19z M19,12.411
			c-0.479,0.276-1.09,0.112-1.366-0.365c-0.276-0.479-0.112-1.09,0.366-1.366s1.09-0.112,1.366,0.366
			C19.643,11.523,19.479,12.136,19,12.411z M28,8c0.553,0,1,0.447,1,1s-0.447,1-1,1s-1-0.447-1-1S27.447,8,28,8z M29,29.732
			c-0.957,0.552-2.18,0.225-2.732-0.732c-0.019-0.033-0.028-0.068-0.046-0.103l-0.017,0.009l-0.075-0.213
			c-0.014-0.036-0.027-0.072-0.039-0.109L22.5,18.474l6.8,8.018c0.166,0.143,0.316,0.309,0.433,0.509
			C30.284,27.957,29.957,29.18,29,29.732z M38.366,12.046c-0.276,0.478-0.888,0.642-1.366,0.365
			c-0.479-0.275-0.643-0.888-0.366-1.365c0.276-0.479,0.888-0.643,1.366-0.366S38.643,11.567,38.366,12.046z M44.954,19.366
			c-0.478,0.276-1.09,0.112-1.365-0.366c-0.276-0.479-0.112-1.09,0.365-1.366c0.479-0.275,1.091-0.112,1.366,0.366
			C45.597,18.479,45.433,19.09,44.954,19.366z M47,29c-0.553,0-1-0.447-1-1c0-0.552,0.447-1,1-1s1,0.448,1,1
			C48,28.553,47.553,29,47,29z"/>
	</g>
</g>
<g>
</g>
<g>
</g>
<g>
</g>
<g>
</g>
<g>
</g>
<g>
</g>
<g>
</g>
<g>
</g>
<g>
</g>
<g>
</g>
<g>
</g>
<g>
</g>
<g>
</g>
<g>
</g>
<g>
</g>
</svg>
