<?xml version="1.0" encoding="iso-8859-1"?>
<!-- Generator: Adobe Illustrator 16.0.4, SVG Export Plug-In . SVG Version: 6.00 Build 0)  -->
<!DOCTYPE svg PUBLIC "-//W3C//DTD SVG 1.1//EN" "http://www.w3.org/Graphics/SVG/1.1/DTD/svg11.dtd">
<svg version="1.1" id="Layer_1" xmlns="http://www.w3.org/2000/svg" xmlns:xlink="http://www.w3.org/1999/xlink" x="0px" y="0px"
	 width="36px" height="56px" viewBox="0 0 36 56" style="enable-background:new 0 0 36 56;" xml:space="preserve">
<g id="_x39_18-ipod-classic-selected_x40_2x.png">
	<g>
		<path d="M18,26c-6.627,0-12,5.373-12,12c0,6.628,5.373,12,12,12s12-5.372,12-12C30,31.373,24.627,26,18,26z M18,42
			c-2.209,0-4-1.791-4-4s1.791-4,4-4s4,1.791,4,4S20.209,42,18,42z M30,6H6v14h24V6z M32,0H4C1.791,0,0,1.791,0,4v48
			c0,2.209,1.791,4,4,4h28c2.209,0,4-1.791,4-4V4C36,1.791,34.209,0,32,0z M18,52c-7.732,0-14-6.268-14-14c0-7.731,6.268-14,14-14
			s14,6.269,14,14C32,45.732,25.732,52,18,52z M32,22H4V4h28V22z"/>
	</g>
</g>
<g>
</g>
<g>
</g>
<g>
</g>
<g>
</g>
<g>
</g>
<g>
</g>
<g>
</g>
<g>
</g>
<g>
</g>
<g>
</g>
<g>
</g>
<g>
</g>
<g>
</g>
<g>
</g>
<g>
</g>
</svg>
