<?xml version="1.0" encoding="iso-8859-1"?>
<!-- Generator: Adobe Illustrator 16.0.4, SVG Export Plug-In . SVG Version: 6.00 Build 0)  -->
<!DOCTYPE svg PUBLIC "-//W3C//DTD SVG 1.1//EN" "http://www.w3.org/Graphics/SVG/1.1/DTD/svg11.dtd">
<svg version="1.1" id="Layer_1" xmlns="http://www.w3.org/2000/svg" xmlns:xlink="http://www.w3.org/1999/xlink" x="0px" y="0px"
	 width="56px" height="44px" viewBox="0 0 56 44" style="enable-background:new 0 0 56 44;" xml:space="preserve">
<g id="_x39_21-toolbox-selected_x40_2x.png">
	<g>
		<path d="M16,20h-4v6h4V20z M46,26c0,1.104-0.896,2-2,2h-4c-1.104,0-2-0.896-2-2v-2H18v2c0,1.104-0.896,2-2,2h-4
			c-1.104,0-2-0.896-2-2v-2H2v16c0,2.209,1.791,4,4,4h44c2.209,0,4-1.791,4-4V24h-8V26z M44,20h-4v6h4V20z M52,8H40V4
			c0-2.209-1.791-4-4-4H20c-2.209,0-4,1.791-4,4v4H4c-2.209,0-4,1.791-4,4v10h10v-2c0-1.104,0.896-2,2-2h4c1.104,0,2,0.896,2,2v2h20
			v-2c0-1.104,0.896-2,2-2h4c1.104,0,2,0.896,2,2v2h10V12C56,9.791,54.209,8,52,8z M38,8H18V4c0-1.104,0.896-2,2-2h16
			c1.104,0,2,0.896,2,2V8z"/>
	</g>
</g>
<g>
</g>
<g>
</g>
<g>
</g>
<g>
</g>
<g>
</g>
<g>
</g>
<g>
</g>
<g>
</g>
<g>
</g>
<g>
</g>
<g>
</g>
<g>
</g>
<g>
</g>
<g>
</g>
<g>
</g>
</svg>
