<?xml version="1.0" encoding="iso-8859-1"?>
<!-- Generator: Adobe Illustrator 16.0.4, SVG Export Plug-In . SVG Version: 6.00 Build 0)  -->
<!DOCTYPE svg PUBLIC "-//W3C//DTD SVG 1.1//EN" "http://www.w3.org/Graphics/SVG/1.1/DTD/svg11.dtd">
<svg version="1.1" id="Layer_1" xmlns="http://www.w3.org/2000/svg" xmlns:xlink="http://www.w3.org/1999/xlink" x="0px" y="0px"
	 width="56px" height="48px" viewBox="0 0 56 48" style="enable-background:new 0 0 56 48;" xml:space="preserve">
<g id="_x39_22-suitcase-selected_x40_2x.png">
	<g>
		<path d="M0,12v32c0,2.209,1.791,4,4,4h4V8H4C1.791,8,0,9.791,0,12z M40,4c0-2.209-1.791-4-4-4H20c-2.209,0-4,1.791-4,4v4h-6v40h36
			V8h-6V4z M38,8H18V4c0-1.104,0.896-2,2-2h16c1.104,0,2,0.896,2,2V8z M52,8h-4v40h4c2.209,0,4-1.791,4-4V12C56,9.791,54.209,8,52,8
			z"/>
	</g>
</g>
<g>
</g>
<g>
</g>
<g>
</g>
<g>
</g>
<g>
</g>
<g>
</g>
<g>
</g>
<g>
</g>
<g>
</g>
<g>
</g>
<g>
</g>
<g>
</g>
<g>
</g>
<g>
</g>
<g>
</g>
</svg>
