<?xml version="1.0" encoding="iso-8859-1"?>
<!-- Generator: Adobe Illustrator 16.0.4, SVG Export Plug-In . SVG Version: 6.00 Build 0)  -->
<!DOCTYPE svg PUBLIC "-//W3C//DTD SVG 1.1//EN" "http://www.w3.org/Graphics/SVG/1.1/DTD/svg11.dtd">
<svg version="1.1" id="Layer_1" xmlns="http://www.w3.org/2000/svg" xmlns:xlink="http://www.w3.org/1999/xlink" x="0px" y="0px"
	 width="56px" height="52px" viewBox="0 0 56 52" style="enable-background:new 0 0 56 52;" xml:space="preserve">
<g id="_x39_28-inbox-files-selected_x40_2x.png">
	<g>
		<path d="M14,16h28v4h2v-5c0-0.552-0.447-1-1-1H13c-0.553,0-1,0.448-1,1v5h2V16z M16,8h24v4h2V7c0-0.552-0.447-1-1-1H15
			c-0.553,0-1,0.448-1,1v5h2V8z M45,22H11c-0.553,0-1,0.448-1,1v5h2v-4h32v4h2v-5C46,22.448,45.553,22,45,22z M55.949,30.747
			l0.017-0.005l-8-30l-0.017,0.005C47.835,0.32,47.463,0,47,0H9C8.537,0,8.165,0.32,8.051,0.747L8.034,0.742l-8,30l0.017,0.005
			C0.029,30.83,0,30.91,0,31v20c0,0.553,0.447,1,1,1h54c0.553,0,1-0.447,1-1V31C56,30.91,55.971,30.83,55.949,30.747z M41,30
			c-5,0-6,8-8,8s-5,0-5,0s-3,0-5,0s-3-8-8-8H2.302L9.769,2h36.463l7.467,28H41z"/>
	</g>
</g>
<g>
</g>
<g>
</g>
<g>
</g>
<g>
</g>
<g>
</g>
<g>
</g>
<g>
</g>
<g>
</g>
<g>
</g>
<g>
</g>
<g>
</g>
<g>
</g>
<g>
</g>
<g>
</g>
<g>
</g>
</svg>
