<?xml version="1.0" encoding="iso-8859-1"?>
<!-- Generator: Adobe Illustrator 16.0.4, SVG Export Plug-In . SVG Version: 6.00 Build 0)  -->
<!DOCTYPE svg PUBLIC "-//W3C//DTD SVG 1.1//EN" "http://www.w3.org/Graphics/SVG/1.1/DTD/svg11.dtd">
<svg version="1.1" id="Layer_1" xmlns="http://www.w3.org/2000/svg" xmlns:xlink="http://www.w3.org/1999/xlink" x="0px" y="0px"
	 width="44px" height="56px" viewBox="0 0 44 56" style="enable-background:new 0 0 44 56;" xml:space="preserve">
<g id="_x39_36-tree-selected_x40_2x.png">
	<g>
		<path d="M18,55c0,0.553,0.447,1,1,1h6c0.553,0,1-0.447,1-1v-7h-8V55z M43.816,44.455l0.016-0.01L36.868,34H39c0.553,0,1-0.447,1-1
			c0-0.225-0.088-0.423-0.214-0.59L39.8,32.4L32,22h2c0.553,0,1-0.447,1-1c0-0.226-0.088-0.423-0.214-0.59L34.8,20.4L27,10h1
			c0.553,0,1-0.447,1-1c0-0.225-0.088-0.423-0.214-0.59L28.8,8.4l-6-8l-0.014,0.01C22.604,0.168,22.327,0,22,0
			s-0.604,0.168-0.786,0.41L21.2,0.4l-6,8l0.014,0.01C15.088,8.577,15,8.775,15,9c0,0.553,0.447,1,1,1h1L9.2,20.4l0.014,0.01
			C9.088,20.577,9,20.774,9,21c0,0.553,0.447,1,1,1h2L4.2,32.4l0.014,0.01C4.088,32.577,4,32.775,4,33c0,0.553,0.447,1,1,1h2.132
			L0.168,44.445l0.016,0.01C0.077,44.614,0,44.795,0,45c0,0.553,0.447,1,1,1h16h1h8h1h16c0.553,0,1-0.447,1-1
			C44,44.795,43.923,44.614,43.816,44.455z"/>
	</g>
</g>
<g>
</g>
<g>
</g>
<g>
</g>
<g>
</g>
<g>
</g>
<g>
</g>
<g>
</g>
<g>
</g>
<g>
</g>
<g>
</g>
<g>
</g>
<g>
</g>
<g>
</g>
<g>
</g>
<g>
</g>
</svg>
