<?xml version="1.0" encoding="iso-8859-1"?>
<!-- Generator: Adobe Illustrator 16.0.4, SVG Export Plug-In . SVG Version: 6.00 Build 0)  -->
<!DOCTYPE svg PUBLIC "-//W3C//DTD SVG 1.1//EN" "http://www.w3.org/Graphics/SVG/1.1/DTD/svg11.dtd">
<svg version="1.1" id="Layer_1" xmlns="http://www.w3.org/2000/svg" xmlns:xlink="http://www.w3.org/1999/xlink" x="0px" y="0px"
	 width="56px" height="42.008px" viewBox="0 0 56 42.008" style="enable-background:new 0 0 56 42.008;" xml:space="preserve">
<g id="_x39_37-wifi-signal-selected_x40_2x.png">
	<g>
		<path d="M39.781,29.376C39.605,29.156,35.396,24,28,24s-11.605,5.156-11.781,5.376l0.016,0.012C16.095,29.56,16,29.77,16,30.008
			c0,0.276,0.112,0.526,0.293,0.707l3,3c0.181,0.181,0.431,0.293,0.707,0.293c0.328,0,0.606-0.169,0.788-0.413l0.011,0.008
			C20.825,33.566,23.582,30,28,30s7.175,3.566,7.2,3.601l0.01-0.008c0.183,0.245,0.461,0.415,0.79,0.415
			c0.276,0,0.526-0.112,0.707-0.293l3-3C39.888,30.534,40,30.284,40,30.008c0-0.238-0.095-0.448-0.234-0.62L39.781,29.376z
			 M31.895,37.553C31.843,37.449,30.588,35,28,35s-3.843,2.449-3.895,2.553l0.013,0.007C24.049,37.696,24,37.844,24,38.008
			c0,0.276,0.112,0.526,0.293,0.707l3,3c0.181,0.181,0.431,0.293,0.707,0.293s0.526-0.112,0.707-0.293l3-3
			C31.888,38.534,32,38.284,32,38.008c0-0.164-0.049-0.312-0.118-0.448L31.895,37.553z M47.789,21.387
			C47.491,21.003,40.347,12,28,12S8.509,21.003,8.211,21.387l0.016,0.012C8.093,21.569,8,21.774,8,22.008
			c0,0.276,0.112,0.526,0.293,0.707l3,3c0.181,0.181,0.431,0.293,0.707,0.293c0.329,0,0.606-0.169,0.789-0.414l0.01,0.008
			C12.856,25.525,18.641,18,28,18s15.144,7.525,15.201,7.602l0.01-0.008c0.183,0.245,0.46,0.414,0.789,0.414
			c0.276,0,0.526-0.112,0.707-0.293l3-3C47.888,22.534,48,22.284,48,22.008c0-0.233-0.093-0.438-0.227-0.609L47.789,21.387z
			 M55.833,13.487l0.019-0.011C55.513,12.926,47.337,0,28,0S0.487,12.926,0.148,13.477l0.019,0.011C0.07,13.642,0,13.812,0,14.008
			c0,0.276,0.112,0.526,0.293,0.707l3,3C3.474,17.896,3.724,18.008,4,18.008c0.35,0,0.642-0.189,0.82-0.461l0.012,0.008
			C4.909,17.439,12.712,6,28,6c15.247,0,23.091,11.44,23.169,11.556l0.012-0.008c0.179,0.271,0.471,0.46,0.819,0.46
			c0.276,0,0.526-0.111,0.707-0.293l3-3C55.888,14.534,56,14.284,56,14.008C56,13.812,55.93,13.642,55.833,13.487z"/>
	</g>
</g>
<g>
</g>
<g>
</g>
<g>
</g>
<g>
</g>
<g>
</g>
<g>
</g>
<g>
</g>
<g>
</g>
<g>
</g>
<g>
</g>
<g>
</g>
<g>
</g>
<g>
</g>
<g>
</g>
<g>
</g>
</svg>
