<?xml version="1.0" encoding="iso-8859-1"?>
<!-- Generator: Adobe Illustrator 16.0.4, SVG Export Plug-In . SVG Version: 6.00 Build 0)  -->
<!DOCTYPE svg PUBLIC "-//W3C//DTD SVG 1.1//EN" "http://www.w3.org/Graphics/SVG/1.1/DTD/svg11.dtd">
<svg version="1.1" id="Layer_1" xmlns="http://www.w3.org/2000/svg" xmlns:xlink="http://www.w3.org/1999/xlink" x="0px" y="0px"
	 width="44px" height="56px" viewBox="0 0 44 56" style="enable-background:new 0 0 44 56;" xml:space="preserve">
<g id="_x39_39-download-rectangle-selected_x40_2x.png">
	<g>
		<path d="M42,0H2C0.896,0,0,0.896,0,2v52c0,1.104,0.896,2,2,2h40c1.104,0,2-0.896,2-2V2C44,0.896,43.104,0,42,0z M30.707,34.707
			l-8,8C22.526,42.889,22.276,43,22,43s-0.526-0.111-0.707-0.293l-8-8C13.112,34.526,13,34.276,13,34c0-0.552,0.447-1,1-1
			c0.276,0,0.526,0.112,0.707,0.293L21,39.586V12c0-0.552,0.448-1,1-1c0.553,0,1,0.448,1,1v27.586l6.293-6.293
			C29.474,33.112,29.724,33,30,33c0.553,0,1,0.448,1,1C31,34.276,30.888,34.526,30.707,34.707z"/>
	</g>
</g>
<g>
</g>
<g>
</g>
<g>
</g>
<g>
</g>
<g>
</g>
<g>
</g>
<g>
</g>
<g>
</g>
<g>
</g>
<g>
</g>
<g>
</g>
<g>
</g>
<g>
</g>
<g>
</g>
<g>
</g>
</svg>
