<?xml version="1.0" encoding="iso-8859-1"?>
<!-- Generator: Adobe Illustrator 16.0.4, SVG Export Plug-In . SVG Version: 6.00 Build 0)  -->
<!DOCTYPE svg PUBLIC "-//W3C//DTD SVG 1.1//EN" "http://www.w3.org/Graphics/SVG/1.1/DTD/svg11.dtd">
<svg version="1.1" id="Layer_1" xmlns="http://www.w3.org/2000/svg" xmlns:xlink="http://www.w3.org/1999/xlink" x="0px" y="0px"
	 width="55.9px" height="55.949px" viewBox="0 0 55.9 55.949" style="enable-background:new 0 0 55.9 55.949;" xml:space="preserve"
	>
<g id="_x39_45-radar-selected_x40_2x.png">
	<g>
		<path d="M36.95,37.949c0-2.209,1.791-4,4-4c0.591,0,1.147,0.136,1.652,0.366c0.723-1.662,1.182-3.466,1.299-5.366h-8.044
			c-0.455,3.613-3.292,6.479-6.907,6.932v8.019c3.363-0.209,6.436-1.465,8.916-3.432C37.303,39.778,36.95,38.909,36.95,37.949z
			 M45.901,26.949H55.9C55.382,12.288,43.612,0.519,28.95,0v10C38.091,10.504,45.397,17.811,45.901,26.949z M33.859,28.949H28.95
			v4.899C31.459,33.426,33.437,31.456,33.859,28.949z M9.999,28.949H0C0.519,43.61,12.288,55.38,26.95,55.898v-10
			C17.81,45.396,10.503,38.088,9.999,28.949z M35.857,26.949h8.044C43.403,18.915,36.986,12.498,28.95,12v8.019
			C32.564,20.471,35.402,23.337,35.857,26.949z M28.95,22.051v4.898h4.909C33.437,24.443,31.459,22.474,28.95,22.051z
			 M20.044,28.949h-8.045c0.498,8.035,6.915,14.451,14.951,14.95v-8.019C23.336,35.429,20.499,32.562,20.044,28.949z M44.199,35.631
			c0.469,0.654,0.751,1.451,0.751,2.318c0,2.209-1.791,4-4,4c-0.495,0-0.964-0.102-1.401-0.266
			c-2.893,2.443-6.565,3.993-10.599,4.215v10C43.612,55.38,55.382,43.61,55.9,28.949h-9.999
			C45.771,31.332,45.167,33.585,44.199,35.631z M0,26.949h9.999c0.278-5.04,2.632-9.515,6.215-12.606
			c-0.163-0.436-0.264-0.901-0.264-1.394c0-2.209,1.791-4,4-4c1.339,0,2.518,0.664,3.243,1.675c1.208-0.331,2.461-0.553,3.757-0.624
			V0C12.288,0.519,0.52,12.288,0,26.949z M26.95,33.849v-4.899h-4.909C22.464,31.456,24.441,33.426,26.95,33.849z M23.95,12.949
			c0,2.209-1.791,4-4,4c-0.987,0-1.88-0.371-2.577-0.965c-3.076,2.721-5.104,6.6-5.374,10.965h8.045
			c0.455-3.612,3.292-6.479,6.906-6.931V12c-1.047,0.064-2.063,0.234-3.046,0.491C23.922,12.644,23.95,12.792,23.95,12.949z
			 M22.041,26.949h4.909v-4.898C24.441,22.474,22.464,24.443,22.041,26.949z"/>
	</g>
</g>
<g>
</g>
<g>
</g>
<g>
</g>
<g>
</g>
<g>
</g>
<g>
</g>
<g>
</g>
<g>
</g>
<g>
</g>
<g>
</g>
<g>
</g>
<g>
</g>
<g>
</g>
<g>
</g>
<g>
</g>
</svg>
