<?xml version="1.0" encoding="iso-8859-1"?>
<!-- Generator: Adobe Illustrator 16.0.4, SVG Export Plug-In . SVG Version: 6.00 Build 0)  -->
<!DOCTYPE svg PUBLIC "-//W3C//DTD SVG 1.1//EN" "http://www.w3.org/Graphics/SVG/1.1/DTD/svg11.dtd">
<svg version="1.1" id="Layer_1" xmlns="http://www.w3.org/2000/svg" xmlns:xlink="http://www.w3.org/1999/xlink" x="0px" y="0px"
	 width="55.9px" height="55.898px" viewBox="0 0 55.9 55.898" style="enable-background:new 0 0 55.9 55.898;" xml:space="preserve"
	>
<g id="_x39_47-target-reticle-selected_x40_2x.png">
	<g>
		<path d="M43.95,27.949c0-0.553,0.447-1,1-1H55.9C55.382,12.288,43.612,0.519,28.95,0v10.949c0,0.553-0.447,1-1,1s-1-0.447-1-1V0
			C12.288,0.519,0.519,12.288,0,26.949h10.95c0.553,0,1,0.447,1,1s-0.447,1-1,1H0C0.519,43.61,12.288,55.38,26.95,55.898V44.949
			c0-0.553,0.447-1,1-1s1,0.447,1,1v10.949C43.612,55.38,55.382,43.61,55.9,28.949H44.95C44.397,28.949,43.95,28.502,43.95,27.949z"
			/>
	</g>
</g>
<g>
</g>
<g>
</g>
<g>
</g>
<g>
</g>
<g>
</g>
<g>
</g>
<g>
</g>
<g>
</g>
<g>
</g>
<g>
</g>
<g>
</g>
<g>
</g>
<g>
</g>
<g>
</g>
<g>
</g>
</svg>
