<?xml version="1.0" encoding="iso-8859-1"?>
<!-- Generator: Adobe Illustrator 16.0.4, SVG Export Plug-In . SVG Version: 6.00 Build 0)  -->
<!DOCTYPE svg PUBLIC "-//W3C//DTD SVG 1.1//EN" "http://www.w3.org/Graphics/SVG/1.1/DTD/svg11.dtd">
<svg version="1.1" id="Layer_1" xmlns="http://www.w3.org/2000/svg" xmlns:xlink="http://www.w3.org/1999/xlink" x="0px" y="0px"
	 width="55.978px" height="55.98px" viewBox="0 0 55.978 55.98" style="enable-background:new 0 0 55.978 55.98;"
	 xml:space="preserve">
<g id="_x39_49-paint-brush-selected_x40_2x.png">
	<g>
		<path d="M0.789,30.003c-0.303,0.065-0.559,0.268-0.691,0.546s-0.131,0.603,0.007,0.879c7.038,14.076,21.718,23.971,22.339,24.385
			c0.166,0.111,0.359,0.168,0.556,0.168c0.104,0,0.212-0.017,0.314-0.051c0.291-0.097,0.522-0.322,0.626-0.612
			c2.938-8.226,7.277-12.887,10.479-15.515L15.627,21.012C7.611,28.441,0.865,29.986,0.789,30.003z M55.018,0.961
			C54.38,0.323,53.506,0,52.418,0c-6.42,0-22.001,12.921-24.955,20.03l-2.758-2.757c-0.973-0.974-1.883-1.447-2.781-1.447
			c-1.186,0-1.988,0.803-2.672,1.488c-0.735,0.825-1.465,1.58-2.189,2.305l18.954,18.954c0.61-0.438,1.148-0.796,1.565-1.07
			c0.561-0.368,0.9-0.591,1.123-0.815c0.947-0.945,2.708-2.707,0-5.414l-2.779-2.78c5.632-2.416,15.612-12.646,19.146-21.174
			C56.297,4.361,56.279,2.222,55.018,0.961z M48.02,9.99c-1.104,0-2-0.896-2-2s0.896-2,2-2s2,0.896,2,2S49.124,9.99,48.02,9.99z"/>
	</g>
</g>
<g>
</g>
<g>
</g>
<g>
</g>
<g>
</g>
<g>
</g>
<g>
</g>
<g>
</g>
<g>
</g>
<g>
</g>
<g>
</g>
<g>
</g>
<g>
</g>
<g>
</g>
<g>
</g>
<g>
</g>
</svg>
