<?xml version="1.0" encoding="iso-8859-1"?>
<!-- Generator: Adobe Illustrator 16.0.4, SVG Export Plug-In . SVG Version: 6.00 Build 0)  -->
<!DOCTYPE svg PUBLIC "-//W3C//DTD SVG 1.1//EN" "http://www.w3.org/Graphics/SVG/1.1/DTD/svg11.dtd">
<svg version="1.1" id="Layer_1" xmlns="http://www.w3.org/2000/svg" xmlns:xlink="http://www.w3.org/1999/xlink" x="0px" y="0px"
	 width="37.656px" height="56px" viewBox="0 0 37.656 56" style="enable-background:new 0 0 37.656 56;" xml:space="preserve">
<g id="_x39_51-baby-selected_x40_2x.png">
	<g>
		<path d="M36.535,24.293l-10-10C26.354,14.112,26.104,14,25.828,14h-1.721c1.665-1.466,2.721-3.607,2.721-6c0-4.418-3.582-8-8-8
			c-4.418,0-8,3.582-8,8c0,2.393,1.056,4.534,2.721,6h-1.721c-0.276,0-0.526,0.112-0.707,0.293l-10,10C0.429,24.986,0,25.943,0,27
			c0,2.114,1.714,3.828,3.828,3.828c1.057,0,2.014-0.429,2.707-1.121l2.293-2.293v5.283l-3.832,5.748l0.015,0.01
			C4.905,38.614,4.828,38.795,4.828,39v6c0,0.257,0.104,0.486,0.263,0.663l-0.006,0.006l8.517,9.325
			C14.151,55.607,14.94,56,15.828,56c1.657,0,3-1.343,3-3c0-0.769-0.298-1.463-0.773-1.993l0.001-0.001l-4.985-6.067L16.363,40h4.93
			l3.292,4.938l-4.984,6.067l0.001,0.001c-0.476,0.53-0.773,1.225-0.773,1.993c0,1.657,1.343,3,3,3c0.888,0,1.677-0.393,2.227-1.006
			l8.517-9.325l-0.007-0.006c0.16-0.177,0.264-0.406,0.264-0.663v-6c0-0.205-0.077-0.386-0.184-0.545l0.016-0.01l-3.832-5.748
			v-5.283l2.293,2.293c0.693,0.692,1.65,1.121,2.707,1.121c2.114,0,3.828-1.714,3.828-3.828
			C37.656,25.943,37.228,24.986,36.535,24.293z"/>
	</g>
</g>
<g>
</g>
<g>
</g>
<g>
</g>
<g>
</g>
<g>
</g>
<g>
</g>
<g>
</g>
<g>
</g>
<g>
</g>
<g>
</g>
<g>
</g>
<g>
</g>
<g>
</g>
<g>
</g>
<g>
</g>
</svg>
