<?xml version="1.0" encoding="iso-8859-1"?>
<!-- Generator: Adobe Illustrator 16.0.4, SVG Export Plug-In . SVG Version: 6.00 Build 0)  -->
<!DOCTYPE svg PUBLIC "-//W3C//DTD SVG 1.1//EN" "http://www.w3.org/Graphics/SVG/1.1/DTD/svg11.dtd">
<svg version="1.1" id="Layer_1" xmlns="http://www.w3.org/2000/svg" xmlns:xlink="http://www.w3.org/1999/xlink" x="0px" y="0px"
	 width="56px" height="40px" viewBox="0 0 56 40" style="enable-background:new 0 0 56 40;" xml:space="preserve">
<g id="_x39_52-shopping-cart-selected_x40_2x.png">
	<g>
		<path d="M19.665,19h4.618l-0.431-4h-4.865L19.665,19z M23.637,13l-0.754-7h-5.418l1.185,7H23.637z M19.161,28l-1.186-7h-6.147
			l1.189,6.188l0.02-0.003C13.127,27.646,13.514,28,14,28H19.161z M15.437,6h-4.457L9.982,0.812l-0.02,0.003
			C9.873,0.354,9.486,0,9,0H1C0.447,0,0,0.447,0,1s0.447,1,1,1h7.174l2.115,11h6.333L15.437,6z M16.96,15h-6.286l0.77,4h6.194
			L16.96,15z M39.074,6H33v7h5.32L39.074,6z M19,30c-2.762,0-5,2.238-5,5s2.238,5,5,5s5-2.238,5-5S21.762,30,19,30z M45.275,15
			h-5.159l-0.431,4h4.746L45.275,15z M47.175,6h-6.089l-0.754,7h5.365L47.175,6z M42.532,28l1.478-7h-4.539l-0.754,7H42.532z M43,30
			c-2.762,0-5,2.238-5,5s2.238,5,5,5s5-2.238,5-5S45.762,30,43,30z M20.004,21l1.185,7h4.063l-0.754-7H20.004z M44.575,28H49
			c0.452,0,0.819-0.306,0.943-0.717l0.015,0.004L51.844,21h-5.791L44.575,28z M56,7c0-0.552-0.447-1-1-1h-5.782l-1.478,7h6.504
			l1.714-5.713l-0.015-0.004C55.971,7.191,56,7.101,56,7z M33,15v4h4.674l0.432-4H33z M46.475,19h5.97l1.2-4h-6.326L46.475,19z
			 M26.295,19H31v-4h-5.137L26.295,19z M27.264,28H31v-7h-4.49L27.264,28z M25.648,13H31V6h-6.105L25.648,13z M33,28h3.705l0.754-7
			H33V28z"/>
	</g>
</g>
<g>
</g>
<g>
</g>
<g>
</g>
<g>
</g>
<g>
</g>
<g>
</g>
<g>
</g>
<g>
</g>
<g>
</g>
<g>
</g>
<g>
</g>
<g>
</g>
<g>
</g>
<g>
</g>
<g>
</g>
</svg>
