<?xml version="1.0" encoding="iso-8859-1"?>
<!-- Generator: Adobe Illustrator 16.0.4, SVG Export Plug-In . SVG Version: 6.00 Build 0)  -->
<!DOCTYPE svg PUBLIC "-//W3C//DTD SVG 1.1//EN" "http://www.w3.org/Graphics/SVG/1.1/DTD/svg11.dtd">
<svg version="1.1" id="Layer_1" xmlns="http://www.w3.org/2000/svg" xmlns:xlink="http://www.w3.org/1999/xlink" x="0px" y="0px"
	 width="55.995px" height="55.989px" viewBox="0 0 55.995 55.989" style="enable-background:new 0 0 55.995 55.989;"
	 xml:space="preserve">
<g id="_x39_53-paw-print-selected_x40_2x.png">
	<g>
		<path d="M34.719,17.822c3.652,1.015,7.634-2.109,8.893-6.979c1.258-4.868-0.683-9.638-4.336-10.652
			c-3.652-1.015-7.634,2.109-8.893,6.979C29.125,12.038,31.066,16.808,34.719,17.822z M51.276,12.191
			c-3.652-1.015-7.634,2.109-8.893,6.979c-1.258,4.868,0.683,9.638,4.336,10.652c3.652,1.015,7.634-2.109,8.893-6.979
			C56.87,17.976,54.929,13.206,51.276,12.191z M21.276,17.822c3.653-1.015,5.594-5.784,4.336-10.652
			c-1.259-4.869-5.24-7.993-8.893-6.979c-3.653,1.015-5.594,5.784-4.336,10.652C13.642,15.713,17.624,18.837,21.276,17.822z
			 M9.276,29.822c3.653-1.015,5.594-5.784,4.336-10.652c-1.259-4.869-5.24-7.993-8.893-6.979c-3.653,1.015-5.594,5.784-4.336,10.652
			C1.642,27.713,5.624,30.837,9.276,29.822z M45.399,37.844c-1.975-0.814-4.016-1.658-5.625-3.641
			c-1.731-2.134-2.429-4.465-3.104-6.719c-1.153-3.853-2.241-7.491-8.401-7.491h-0.543c-6.161,0-7.25,3.639-8.401,7.491
			c-0.675,2.253-1.371,4.584-3.104,6.719c-1.609,1.982-3.65,2.826-5.625,3.641c-3.243,1.34-6.599,2.726-6.599,8.989
			c0,4.328,1.265,8.938,10.645,9.15c3.953,0.097,5.471-1.124,6.949-2.146c1.37-0.947,2.664-1.873,6.406-1.873
			s5.037,0.926,6.406,1.873c1.42,0.981,2.887,2.152,6.487,2.152c0.001,0,0.002,0,0.002,0c0.149,0,0.303-0.002,0.46-0.006
			c9.38-0.213,10.645-4.822,10.645-9.15C51.998,40.569,48.642,39.184,45.399,37.844z"/>
	</g>
</g>
<g>
</g>
<g>
</g>
<g>
</g>
<g>
</g>
<g>
</g>
<g>
</g>
<g>
</g>
<g>
</g>
<g>
</g>
<g>
</g>
<g>
</g>
<g>
</g>
<g>
</g>
<g>
</g>
<g>
</g>
</svg>
