<?xml version="1.0" encoding="iso-8859-1"?>
<!-- Generator: Adobe Illustrator 16.0.4, SVG Export Plug-In . SVG Version: 6.00 Build 0)  -->
<!DOCTYPE svg PUBLIC "-//W3C//DTD SVG 1.1//EN" "http://www.w3.org/Graphics/SVG/1.1/DTD/svg11.dtd">
<svg version="1.1" id="Layer_1" xmlns="http://www.w3.org/2000/svg" xmlns:xlink="http://www.w3.org/1999/xlink" x="0px" y="0px"
	 width="36px" height="56px" viewBox="0 0 36 56" style="enable-background:new 0 0 36 56;" xml:space="preserve">
<g id="_x39_54-light-bulb-selected_x40_2x.png">
	<g>
		<path d="M19,54h-2c-0.553,0-1,0.447-1,1s0.447,1,1,1h2c0.553,0,1-0.447,1-1S19.553,54,19,54z M22,50h-8c-0.553,0-1,0.448-1,1
			c0,0.553,0.447,1,1,1h8c0.553,0,1-0.447,1-1C23,50.448,22.553,50,22,50z M24,42H12c-0.553,0-1,0.448-1,1c0,0.553,0.447,1,1,1h12
			c0.553,0,1-0.447,1-1C25,42.448,24.553,42,24,42z M36,19C36,8.507,27.941,0,18,0S0,8.507,0,19c0,7.919,4.592,14.7,11.116,17.555
			C11.048,36.69,11,36.838,11,37v2c0,0.553,0.447,1,1,1h12c0.553,0,1-0.447,1-1v-2c0-0.162-0.048-0.31-0.116-0.445
			C31.408,33.7,36,26.919,36,19z M24,46H12c-0.553,0-1,0.448-1,1c0,0.553,0.447,1,1,1h12c0.553,0,1-0.447,1-1
			C25,46.448,24.553,46,24,46z"/>
	</g>
</g>
<g>
</g>
<g>
</g>
<g>
</g>
<g>
</g>
<g>
</g>
<g>
</g>
<g>
</g>
<g>
</g>
<g>
</g>
<g>
</g>
<g>
</g>
<g>
</g>
<g>
</g>
<g>
</g>
<g>
</g>
</svg>
