<?xml version="1.0" encoding="iso-8859-1"?>
<!-- Generator: Adobe Illustrator 16.0.4, SVG Export Plug-In . SVG Version: 6.00 Build 0)  -->
<!DOCTYPE svg PUBLIC "-//W3C//DTD SVG 1.1//EN" "http://www.w3.org/Graphics/SVG/1.1/DTD/svg11.dtd">
<svg version="1.1" id="Layer_1" xmlns="http://www.w3.org/2000/svg" xmlns:xlink="http://www.w3.org/1999/xlink" x="0px" y="0px"
	 width="32px" height="56px" viewBox="0 0 32 56" style="enable-background:new 0 0 32 56;" xml:space="preserve">
<g id="_x39_56-wine-glass-selected_x40_2x.png">
	<g>
		<path d="M32,16V1c0-0.553-0.447-1-1-1H1C0.447,0,0,0.447,0,1v15c0,8.499,6.632,15.431,15,15.949V54H1c-0.553,0-1,0.447-1,1
			s0.447,1,1,1h14h2h14c0.553,0,1-0.447,1-1s-0.447-1-1-1H17V31.949C25.368,31.431,32,24.499,32,16z M2,8.302V8.293
			c0.002-0.001,0.004-0.002,0.006-0.002C2.004,8.294,2.002,8.298,2,8.302z M16.352,6.72C10.013,3.834,4.488,5.217,2,6.142V2h28
			v4.941C28.102,7.538,21.962,9.115,16.352,6.72z"/>
	</g>
</g>
<g>
</g>
<g>
</g>
<g>
</g>
<g>
</g>
<g>
</g>
<g>
</g>
<g>
</g>
<g>
</g>
<g>
</g>
<g>
</g>
<g>
</g>
<g>
</g>
<g>
</g>
<g>
</g>
<g>
</g>
</svg>
