<?xml version="1.0" encoding="iso-8859-1"?>
<!-- Generator: Adobe Illustrator 16.0.4, SVG Export Plug-In . SVG Version: 6.00 Build 0)  -->
<!DOCTYPE svg PUBLIC "-//W3C//DTD SVG 1.1//EN" "http://www.w3.org/Graphics/SVG/1.1/DTD/svg11.dtd">
<svg version="1.1" id="Layer_1" xmlns="http://www.w3.org/2000/svg" xmlns:xlink="http://www.w3.org/1999/xlink" x="0px" y="0px"
	 width="44px" height="56px" viewBox="0 0 44 56" style="enable-background:new 0 0 44 56;" xml:space="preserve">
<g id="_x39_57-beer-mug-selected_x40_2x.png">
	<g>
		<path d="M38,2c-1.071,0-2.062,0.304-2.932,0.795C33.601,1.087,31.429,0,29,0c-2.259,0-4.295,0.939-5.75,2.445
			C22.555,2.163,21.797,2,21,2c-1.455,0-2.772,0.539-3.811,1.401C16.02,2.525,14.573,2,13,2C9.134,2,6,5.134,6,9s3.134,7,7,7
			c2.196,0,4.153-1.013,5.438-2.595C19.217,13.775,20.079,14,21,14c0.797,0,1.555-0.163,2.251-0.445C24.705,15.061,26.741,16,29,16
			c2.429,0,4.601-1.086,6.068-2.795C35.938,13.696,36.929,14,38,14c3.313,0,6-2.687,6-6S41.313,2,38,2z M35.495,15.595
			C33.747,17.091,31.481,18,29,18c-2.365,0-4.535-0.825-6.247-2.198C22.188,15.928,21.603,16,21,16
			c-0.705,0-1.386-0.101-2.037-0.271C17.375,17.138,15.29,18,13,18c-2.142,0-4.105-0.751-5.651-2H2c-1.104,0-2,0.896-2,2v24
			c0,1.104,0.896,2,2,2h6v10c0,1.104,0.896,2,2,2h30c1.104,0,2-0.896,2-2V14.921C40.822,15.604,39.459,16,38,16
			C37.124,16,36.284,15.854,35.495,15.595z M8,42H2V18h6V42z M18,48c0,0.553-0.447,1-1,1s-1-0.447-1-1V20c0-0.553,0.447-1,1-1
			s1,0.447,1,1V48z M26,48c0,0.553-0.447,1-1,1s-1-0.447-1-1V20c0-0.553,0.447-1,1-1s1,0.447,1,1V48z M34,48c0,0.553-0.447,1-1,1
			s-1-0.447-1-1V20c0-0.553,0.447-1,1-1s1,0.447,1,1V48z"/>
	</g>
</g>
<g>
</g>
<g>
</g>
<g>
</g>
<g>
</g>
<g>
</g>
<g>
</g>
<g>
</g>
<g>
</g>
<g>
</g>
<g>
</g>
<g>
</g>
<g>
</g>
<g>
</g>
<g>
</g>
<g>
</g>
</svg>
