<?xml version="1.0" encoding="iso-8859-1"?>
<!-- Generator: Adobe Illustrator 16.0.4, SVG Export Plug-In . SVG Version: 6.00 Build 0)  -->
<!DOCTYPE svg PUBLIC "-//W3C//DTD SVG 1.1//EN" "http://www.w3.org/Graphics/SVG/1.1/DTD/svg11.dtd">
<svg version="1.1" id="Layer_1" xmlns="http://www.w3.org/2000/svg" xmlns:xlink="http://www.w3.org/1999/xlink" x="0px" y="0px"
	 width="56px" height="56px" viewBox="0 0 56 56" style="enable-background:new 0 0 56 56;" xml:space="preserve">
<g id="_x39_58-life-preserver-selected_x40_2x.png">
	<g>
		<path d="M14,28c0-2.993,0.947-5.762,2.548-8.037L6.575,9.989C2.478,14.859,0,21.138,0,28s2.478,13.141,6.575,18.011l9.973-9.973
			C14.947,33.762,14,30.994,14,28z M28,14c2.994,0,5.762,0.948,8.038,2.548l9.973-9.973C41.141,2.478,34.862,0,28,0
			S14.859,2.478,9.989,6.575l9.974,9.973C22.238,14.947,25.006,14,28,14z M49.425,9.99l-9.973,9.973C41.053,22.238,42,25.007,42,28
			c0,2.994-0.947,5.762-2.548,8.038l9.973,9.973C53.522,41.141,56,34.862,56,28S53.522,14.859,49.425,9.99z M28,42
			c-2.994,0-5.762-0.947-8.037-2.548L9.99,49.425C14.859,53.522,21.138,56,28,56s13.141-2.478,18.011-6.575l-9.973-9.973
			C33.762,41.053,30.994,42,28,42z"/>
	</g>
</g>
<g>
</g>
<g>
</g>
<g>
</g>
<g>
</g>
<g>
</g>
<g>
</g>
<g>
</g>
<g>
</g>
<g>
</g>
<g>
</g>
<g>
</g>
<g>
</g>
<g>
</g>
<g>
</g>
<g>
</g>
</svg>
