<?xml version="1.0" encoding="iso-8859-1"?>
<!-- Generator: Adobe Illustrator 16.0.4, SVG Export Plug-In . SVG Version: 6.00 Build 0)  -->
<!DOCTYPE svg PUBLIC "-//W3C//DTD SVG 1.1//EN" "http://www.w3.org/Graphics/SVG/1.1/DTD/svg11.dtd">
<svg version="1.1" id="Layer_1" xmlns="http://www.w3.org/2000/svg" xmlns:xlink="http://www.w3.org/1999/xlink" x="0px" y="0px"
	 width="24px" height="56px" viewBox="0 0 24 56" style="enable-background:new 0 0 24 56;" xml:space="preserve">
<g id="_x39_59-thermometer-selected_x40_2x.png">
	<g>
		<path d="M20,35.074V8c0-4.418-3.582-8-8-8S4,3.582,4,8v2h7c0.553,0,1,0.447,1,1s-0.447,1-1,1H4v4h5c0.553,0,1,0.448,1,1
			c0,0.553-0.447,1-1,1H4v4h7c0.553,0,1,0.447,1,1s-0.447,1-1,1H4v4h5c0.553,0,1,0.447,1,1s-0.447,1-1,1H4v5.074
			C1.551,37.271,0,40.45,0,44c0,6.627,5.373,12,12,12s12-5.373,12-12C24,40.45,22.449,37.271,20,35.074z M12,52
			c-4.418,0-8-3.582-8-8c0-2.965,1.618-5.543,4.016-6.923C8.014,37.051,8,37.027,8,37v-3c0-0.552,0.447-1,1-1s1,0.448,1,1v2.263V37
			v1.349C7.671,39.174,6,41.389,6,44c0,3.313,2.687,6,6,6s6-2.687,6-6c0-2.611-1.671-4.827-4-5.651v-2.086V35V17
			c0-0.552,0.447-1,1-1s1,0.448,1,1v20.079c2.389,1.384,4,3.962,4,6.921C20,48.418,16.418,52,12,52z"/>
	</g>
</g>
<g>
</g>
<g>
</g>
<g>
</g>
<g>
</g>
<g>
</g>
<g>
</g>
<g>
</g>
<g>
</g>
<g>
</g>
<g>
</g>
<g>
</g>
<g>
</g>
<g>
</g>
<g>
</g>
<g>
</g>
</svg>
