<?xml version="1.0" encoding="iso-8859-1"?>
<!-- Generator: Adobe Illustrator 16.0.4, SVG Export Plug-In . SVG Version: 6.00 Build 0)  -->
<!DOCTYPE svg PUBLIC "-//W3C//DTD SVG 1.1//EN" "http://www.w3.org/Graphics/SVG/1.1/DTD/svg11.dtd">
<svg version="1.1" id="Layer_1" xmlns="http://www.w3.org/2000/svg" xmlns:xlink="http://www.w3.org/1999/xlink" x="0px" y="0px"
	 width="48px" height="56px" viewBox="0 0 48 56" style="enable-background:new 0 0 48 56;" xml:space="preserve">
<g id="_x39_63-coffee-cup-selected_x40_2x.png">
	<g>
		<path d="M6.758,42h34.484l1.715-18H5.043L6.758,42z M8.004,55.091l0.014-0.002C8.065,55.598,8.479,56,9,56h30
			c0.521,0,0.935-0.402,0.982-0.911l0.014,0.002L41.052,44H6.948L8.004,55.091z M4.853,22h38.295l0.762-8H4.091L4.853,22z M46,8
			h-0.382l-3.724-7.447l-0.009,0.005C41.721,0.23,41.391,0,41,0H7C6.609,0,6.279,0.23,6.114,0.558L6.105,0.553L2.382,8H2
			c-1.104,0-2,0.896-2,2v2h48v-2C48,8.896,47.104,8,46,8z M27,9h-6c-0.553,0-1-0.447-1-1c0-0.552,0.447-1,1-1h6c0.553,0,1,0.448,1,1
			C28,8.553,27.553,9,27,9z"/>
	</g>
</g>
<g>
</g>
<g>
</g>
<g>
</g>
<g>
</g>
<g>
</g>
<g>
</g>
<g>
</g>
<g>
</g>
<g>
</g>
<g>
</g>
<g>
</g>
<g>
</g>
<g>
</g>
<g>
</g>
<g>
</g>
</svg>
