<?xml version="1.0" encoding="iso-8859-1"?>
<!-- Generator: Adobe Illustrator 16.0.4, SVG Export Plug-In . SVG Version: 6.00 Build 0)  -->
<!DOCTYPE svg PUBLIC "-//W3C//DTD SVG 1.1//EN" "http://www.w3.org/Graphics/SVG/1.1/DTD/svg11.dtd">
<svg version="1.1" id="Layer_1" xmlns="http://www.w3.org/2000/svg" xmlns:xlink="http://www.w3.org/1999/xlink" x="0px" y="0px"
	 width="56px" height="40px" viewBox="0 0 56 40" style="enable-background:new 0 0 56 40;" xml:space="preserve">
<g id="_x39_66-contact-cards-selected_x40_2x.png">
	<g>
		<path d="M50,2c0-1.104-0.896-2-2-2H2C0.896,0,0,0.896,0,2v28c0,1.104,0.896,2,2,2v-2V2h46H50z M54,6c0-1.104-0.896-2-2-2H6
			C4.896,4,4,4.896,4,6v28c0,1.104,0.896,2,2,2v-2V6h46H54z M54,8H10c-1.104,0-2,0.896-2,2v28c0,1.104,0.896,2,2,2h11v-4h-2
			c-0.553,0-1-0.447-1-1c0-0.552,0.447-1,1-1h6c0.553,0,1,0.448,1,1c0,0.553-0.447,1-1,1h-2v4h18v-4h-2c-0.553,0-1-0.447-1-1
			c0-0.552,0.447-1,1-1h6c0.553,0,1,0.448,1,1c0,0.553-0.447,1-1,1h-2v4h11c1.104,0,2-0.896,2-2V10C56,8.896,55.104,8,54,8z M26,24
			H14v-2h12V24z M30,20H14v-2h16V20z M30,16H14v-2h16V16z M46,24H34v-2h12V24z M50,20H34v-2h16V20z M50,16H34v-2h16V16z"/>
	</g>
</g>
<g>
</g>
<g>
</g>
<g>
</g>
<g>
</g>
<g>
</g>
<g>
</g>
<g>
</g>
<g>
</g>
<g>
</g>
<g>
</g>
<g>
</g>
<g>
</g>
<g>
</g>
<g>
</g>
<g>
</g>
</svg>
