<?xml version="1.0" encoding="iso-8859-1"?>
<!-- Generator: Adobe Illustrator 16.0.4, SVG Export Plug-In . SVG Version: 6.00 Build 0)  -->
<!DOCTYPE svg PUBLIC "-//W3C//DTD SVG 1.1//EN" "http://www.w3.org/Graphics/SVG/1.1/DTD/svg11.dtd">
<svg version="1.1" id="Layer_1" xmlns="http://www.w3.org/2000/svg" xmlns:xlink="http://www.w3.org/1999/xlink" x="0px" y="0px"
	 width="56px" height="23.923px" viewBox="0 0 56 23.923" style="enable-background:new 0 0 56 23.923;" xml:space="preserve">
<g id="_x39_71-chicken-leg-selected_x40_2x.png">
	<g>
		<path d="M10.979,7.923C10.989,7.758,11,7.593,11,7.423c0-3.037-1.687-5.5-5-5.5s-6,2.463-6,5.5c0,1.862,1.012,3.505,2.557,4.5
			C1.012,12.918,0,14.561,0,16.423c0,3.038,2.687,5.5,6,5.5s5-2.462,5-5.5c0-0.169-0.011-0.334-0.021-0.5h7.861
			c-0.54-1.269-0.839-2.609-0.839-4s0.3-2.731,0.839-4H10.979z M52.153,4.543c0.003-0.003,0.007-0.006,0.01-0.009
			c-0.085-0.073-0.188-0.135-0.275-0.207c-0.168-0.136-0.327-0.277-0.504-0.408c-0.006,0.006-0.013,0.012-0.019,0.019
			c-0.266-0.2-0.513-0.411-0.8-0.599C49.121,4.898,46.723,5.923,44,5.923c-4.383,0-7.934-2.646-7.989-5.923
			c-0.34,0.024-0.666,0.075-0.998,0.114c0-0.005-0.001-0.009-0.001-0.013c-0.146,0.017-0.287,0.043-0.433,0.062
			c-0.185,0.024-0.377,0.036-0.56,0.064c0,0.005,0.001,0.01,0.001,0.016C26,1.452,20,6.21,20,11.923c0,6.627,8.059,12,18,12
			s18-5.373,18-12C56,9.134,54.551,6.58,52.153,4.543z"/>
	</g>
</g>
<g>
</g>
<g>
</g>
<g>
</g>
<g>
</g>
<g>
</g>
<g>
</g>
<g>
</g>
<g>
</g>
<g>
</g>
<g>
</g>
<g>
</g>
<g>
</g>
<g>
</g>
<g>
</g>
<g>
</g>
</svg>
