<?xml version="1.0" encoding="iso-8859-1"?>
<!-- Generator: Adobe Illustrator 16.0.4, SVG Export Plug-In . SVG Version: 6.00 Build 0)  -->
<!DOCTYPE svg PUBLIC "-//W3C//DTD SVG 1.1//EN" "http://www.w3.org/Graphics/SVG/1.1/DTD/svg11.dtd">
<svg version="1.1" id="Layer_1" xmlns="http://www.w3.org/2000/svg" xmlns:xlink="http://www.w3.org/1999/xlink" x="0px" y="0px"
	 width="56px" height="56px" viewBox="0 0 56 56" style="enable-background:new 0 0 56 56;" xml:space="preserve">
<g id="_x39_72-bug-selected_x40_2x.png">
	<g>
		<path d="M9,2c5.656,0,9.532,5.331,9.958,9.293c-1.834,1.435-3.471,3.269-4.815,5.447C16.35,19.322,22.212,22,28,22
			s11.65-2.678,13.857-5.26c-1.345-2.179-2.981-4.013-4.814-5.447C37.468,7.331,41.344,2,47,2c0.553,0,1-0.447,1-1
			c0-0.552-0.447-1-1-1c-5.348,0-10.683,4.768-11.782,10.051C33.008,8.75,30.574,8,28,8s-5.008,0.75-7.218,2.051
			C19.683,4.768,14.348,0,9,0C8.447,0,8,0.448,8,1C8,1.553,8.447,2,9,2z M55,31h-9.038c-0.069-2.241-0.381-4.397-0.88-6.439
			l8.419-4.694c0.495-0.276,0.664-0.888,0.379-1.366c-0.286-0.479-0.919-0.643-1.415-0.366l-7.947,4.433
			c-0.46-1.434-1.029-2.788-1.68-4.062C40.009,21.256,33.921,24,28,24s-12.009-2.744-14.838-5.496
			c-0.65,1.274-1.22,2.629-1.68,4.062l-7.947-4.433C3.039,17.857,2.406,18.021,2.12,18.5c-0.285,0.479-0.116,1.09,0.379,1.366
			l8.419,4.694c-0.499,2.042-0.811,4.198-0.88,6.439H1c-0.553,0-1,0.448-1,1c0,0.553,0.447,1,1,1h9.038
			c0.069,2.242,0.381,4.397,0.88,6.439l-8.419,4.694C2.004,44.41,1.835,45.021,2.12,45.5c0.286,0.479,0.919,0.643,1.415,0.366
			l7.947-4.433C14.228,49.992,20.575,56,28,56s13.772-6.008,16.518-14.566l7.947,4.433c0.496,0.276,1.129,0.112,1.415-0.366
			c0.285-0.479,0.116-1.09-0.379-1.366l-8.419-4.694c0.499-2.042,0.811-4.197,0.88-6.439H55c0.553,0,1-0.447,1-1
			C56,31.448,55.553,31,55,31z M22,36c-1.657,0-3-1.343-3-3s1.343-3,3-3s3,1.343,3,3S23.657,36,22,36z M31,47c-2.762,0-5-2.238-5-5
			s2.238-5,5-5s5,2.238,5,5S33.762,47,31,47z"/>
	</g>
</g>
<g>
</g>
<g>
</g>
<g>
</g>
<g>
</g>
<g>
</g>
<g>
</g>
<g>
</g>
<g>
</g>
<g>
</g>
<g>
</g>
<g>
</g>
<g>
</g>
<g>
</g>
<g>
</g>
<g>
</g>
</svg>
