<?xml version="1.0" encoding="iso-8859-1"?>
<!-- Generator: Adobe Illustrator 16.0.4, SVG Export Plug-In . SVG Version: 6.00 Build 0)  -->
<!DOCTYPE svg PUBLIC "-//W3C//DTD SVG 1.1//EN" "http://www.w3.org/Graphics/SVG/1.1/DTD/svg11.dtd">
<svg version="1.1" id="Layer_1" xmlns="http://www.w3.org/2000/svg" xmlns:xlink="http://www.w3.org/1999/xlink" x="0px" y="0px"
	 width="56.003px" height="36.059px" viewBox="0 0 56.003 36.059" style="enable-background:new 0 0 56.003 36.059;"
	 xml:space="preserve">
<g id="_x39_74-users-selected_x40_2x.png">
	<g>
		<path d="M35.348,23.453c-1.244-0.543-2.104-1.245-2.309-2.088c-0.377-1.546,1.122-3.267,1.114-3.267
			c0.12-0.121,2.875-1.989,2.875-7.766C37.029,5.897,35.87,0,28.001,0c-7.867,0-9.027,5.897-9.027,10.333
			c0,5.792,2.769,7.659,2.812,7.697c0.015,0.018,1.559,1.766,1.177,3.335c-0.205,0.843-1.064,1.545-2.309,2.088
			c-9.177,2.829-14.653,6.086-14.653,8.717v2.111c0,1.154,0.916,1.777,1.777,1.777h40.445c0.861,0,1.777-0.623,1.777-1.777V32.17
			C50.001,29.539,44.525,26.282,35.348,23.453z M18.251,22.037c-0.564-0.271-1.211-0.532-1.957-0.777
			c-0.66-0.29-1.095-0.688-1.205-1.153c-0.18-0.757,0.076-1.72,0.255-1.937c0.015-0.009,1.658-1.841,1.658-5.866
			c0-1.799,0.124-7.272-6.045-7.272c-6.168,0-5.949,5.474-5.949,7.272c0,4.025,1.55,5.857,1.624,5.934
			c0.172,0.221,0.496,1.14,0.318,1.874c-0.113,0.463-0.547,0.86-1.289,1.182c-5.91,1.969-5.66,5.004-5.66,6.146v2.088
			c0,0.995,0.781,1.531,1.518,1.531h2.603c0.154-0.698,0.474-1.368,0.97-2.019c0,0,2.823-3.236,10.323-5.986
			C16.462,22.669,17.247,22.381,18.251,22.037z M50.341,21.293c-0.742-0.321-1.176-0.719-1.289-1.182
			c-0.178-0.734,0.146-1.653,0.318-1.874c0.074-0.076,1.624-1.908,1.624-5.934c0-1.799,0.219-7.272-5.949-7.272
			c-6.17,0-6.045,5.474-6.045,7.272c0,4.025,1.644,5.857,1.658,5.866c0.179,0.217,0.435,1.18,0.255,1.937
			c-0.11,0.465-0.545,0.863-1.205,1.153c-0.746,0.245-1.393,0.507-1.957,0.777c1.005,0.344,1.789,0.632,2.837,1.017
			c7.5,2.75,10.323,5.986,10.323,5.986c0.496,0.65,0.815,1.32,0.97,2.019h2.603c0.736,0,1.518-0.536,1.518-1.531v-2.088
			C56.001,26.297,56.251,23.262,50.341,21.293z"/>
	</g>
</g>
<g>
</g>
<g>
</g>
<g>
</g>
<g>
</g>
<g>
</g>
<g>
</g>
<g>
</g>
<g>
</g>
<g>
</g>
<g>
</g>
<g>
</g>
<g>
</g>
<g>
</g>
<g>
</g>
<g>
</g>
</svg>
