<?xml version="1.0" encoding="iso-8859-1"?>
<!-- Generator: Adobe Illustrator 16.0.4, SVG Export Plug-In . SVG Version: 6.00 Build 0)  -->
<!DOCTYPE svg PUBLIC "-//W3C//DTD SVG 1.1//EN" "http://www.w3.org/Graphics/SVG/1.1/DTD/svg11.dtd">
<svg version="1.1" id="Layer_1" xmlns="http://www.w3.org/2000/svg" xmlns:xlink="http://www.w3.org/1999/xlink" x="0px" y="0px"
	 width="44.04px" height="55.999px" viewBox="0 0 44.04 55.999" style="enable-background:new 0 0 44.04 55.999;"
	 xml:space="preserve">
<g id="_x39_75-balloon-selected_x40_2x.png">
	<g>
		<path d="M28.197,0.698C16.527-2.463,4.301,5.408,0.89,18.278c-3.412,12.87,3.283,25.866,14.953,29.027s23.896-4.71,27.307-17.58
			C46.562,16.855,39.867,3.859,28.197,0.698z M16.383,9.921c-0.282,0.123-6.395,2.877-6.395,10.081c0,0.552-0.448,1-1,1
			s-1-0.448-1-1c0-8.561,7.295-11.786,7.606-11.919c0.508-0.217,1.096,0.018,1.312,0.525C17.125,9.115,16.891,9.703,16.383,9.921z
			 M15.282,49.248c-0.783-0.211-1.546-0.464-2.287-0.753c-0.753,1.122-1.083,2.185-0.955,3.194c0.204,1.617,1.494,2.854,3.831,3.679
			c1.205,0.424,2.198,0.631,3.035,0.631c0,0,0,0,0.001,0c1.46,0,2.208-0.663,2.578-1.221c0.802-1.207,0.6-2.999,0.122-4.812
			C19.512,50.025,17.39,49.814,15.282,49.248z"/>
	</g>
</g>
<g>
</g>
<g>
</g>
<g>
</g>
<g>
</g>
<g>
</g>
<g>
</g>
<g>
</g>
<g>
</g>
<g>
</g>
<g>
</g>
<g>
</g>
<g>
</g>
<g>
</g>
<g>
</g>
<g>
</g>
</svg>
