<?xml version="1.0" encoding="iso-8859-1"?>
<!-- Generator: Adobe Illustrator 16.0.4, SVG Export Plug-In . SVG Version: 6.00 Build 0)  -->
<!DOCTYPE svg PUBLIC "-//W3C//DTD SVG 1.1//EN" "http://www.w3.org/Graphics/SVG/1.1/DTD/svg11.dtd">
<svg version="1.1" id="Layer_1" xmlns="http://www.w3.org/2000/svg" xmlns:xlink="http://www.w3.org/1999/xlink" x="0px" y="0px"
	 width="56px" height="56px" viewBox="0 0 56 56" style="enable-background:new 0 0 56 56;" xml:space="preserve">
<g id="_x39_77-checkbox-selected_x40_2x.png">
	<g>
		<path d="M24.764,39.623C24.58,39.848,24.312,40,24,40c-0.276,0-0.526-0.111-0.707-0.293l-14-14C9.112,25.526,9,25.276,9,25
			c0-0.553,0.447-1,1-1c0.276,0,0.526,0.112,0.707,0.293l13.218,13.218l22.48-27.557C45.309,8.761,43.749,8,42,8H6
			c-3.313,0-6,2.687-6,6v36c0,3.313,2.687,6,6,6h36c3.313,0,6-2.687,6-6V14c0-0.809-0.165-1.577-0.454-2.28L24.774,39.632
			L24.764,39.623z M55.764,1.623L55.764,1.623l-0.712-0.581L55.764,1.623C55.904,1.451,56,1.24,56,1c0-0.552-0.447-1-1-1
			c-0.312,0-0.58,0.152-0.764,0.377l-0.011-0.009l-7.82,9.586c0.475,0.517,0.869,1.106,1.141,1.766l8.229-10.088L55.764,1.623z"/>
	</g>
</g>
<g>
</g>
<g>
</g>
<g>
</g>
<g>
</g>
<g>
</g>
<g>
</g>
<g>
</g>
<g>
</g>
<g>
</g>
<g>
</g>
<g>
</g>
<g>
</g>
<g>
</g>
<g>
</g>
<g>
</g>
</svg>
