<?xml version="1.0" encoding="iso-8859-1"?>
<!-- Generator: Adobe Illustrator 16.0.4, SVG Export Plug-In . SVG Version: 6.00 Build 0)  -->
<!DOCTYPE svg PUBLIC "-//W3C//DTD SVG 1.1//EN" "http://www.w3.org/Graphics/SVG/1.1/DTD/svg11.dtd">
<svg version="1.1" id="Layer_1" xmlns="http://www.w3.org/2000/svg" xmlns:xlink="http://www.w3.org/1999/xlink" x="0px" y="0px"
	 width="56px" height="40px" viewBox="0 0 56 40" style="enable-background:new 0 0 56 40;" xml:space="preserve">
<g id="_x39_79-piggy-bank-selected_x40_2x.png">
	<g>
		<path d="M50.696,12.07c-1.051-2.354-2.717-4.478-4.832-6.271C46.58,4.964,47.689,4,49,4c0.553,0,1-0.447,1-1c0-0.552-0.447-1-1-1
			c-1.79,0-3.576,1.423-4.729,2.571C40.214,1.734,34.873,0,29,0C16.298,0,6,8.059,6,18c0,0.243,0.031,0.48,0.044,0.721
			C3.956,16.863,2,14.263,2,11c0-0.553-0.447-1-1-1s-1,0.447-1,1c0,4.826,3.635,8.55,6.522,10.753
			c0.867,3.168,2.79,6.028,5.478,8.341V35c0,2.762,2.238,5,5,5c2.713,0,4.909-2.164,4.986-4.859C24.198,35.695,26.553,36,29,36
			c2.448,0,4.803-0.305,7.014-0.859C36.09,37.835,38.287,40,41,40c2.762,0,5-2.238,5-5v-4.911c2.051-1.771,3.668-3.854,4.696-6.159
			C53.678,23.581,56,21.075,56,18S53.678,12.419,50.696,12.07z M37.705,8.676c-0.194,0.195-0.45,0.293-0.706,0.293
			c-0.257,0-0.513-0.098-0.707-0.293c-0.007-0.005-1.893-1.707-7.293-1.707c-5.401,0-7.288,1.702-7.306,1.719
			c-0.4,0.372-1.029,0.362-1.408-0.03c-0.379-0.392-0.379-1.01,0.007-1.396c0.233-0.234,2.472-2.293,8.707-2.293
			c6.234,0,8.473,2.059,8.706,2.293C38.097,7.652,38.097,8.285,37.705,8.676z"/>
	</g>
</g>
<g>
</g>
<g>
</g>
<g>
</g>
<g>
</g>
<g>
</g>
<g>
</g>
<g>
</g>
<g>
</g>
<g>
</g>
<g>
</g>
<g>
</g>
<g>
</g>
<g>
</g>
<g>
</g>
<g>
</g>
</svg>
