<?xml version="1.0" encoding="iso-8859-1"?>
<!-- Generator: Adobe Illustrator 16.0.4, SVG Export Plug-In . SVG Version: 6.00 Build 0)  -->
<!DOCTYPE svg PUBLIC "-//W3C//DTD SVG 1.1//EN" "http://www.w3.org/Graphics/SVG/1.1/DTD/svg11.dtd">
<svg version="1.1" id="Layer_1" xmlns="http://www.w3.org/2000/svg" xmlns:xlink="http://www.w3.org/1999/xlink" x="0px" y="0px"
	 width="56px" height="40px" viewBox="0 0 56 40" style="enable-background:new 0 0 56 40;" xml:space="preserve">
<g id="_x39_81-contact-card-selected_x40_2x.png">
	<g>
		<path d="M54,0H2C0.896,0,0,0.896,0,2v36c0,1.104,0.896,2,2,2h52c1.104,0,2-0.896,2-2V2C56,0.896,55.104,0,54,0z M23,32H7
			c-0.552,0-1-0.447-1-1c0,0,0.004-9.108,5.285-12.074C9.314,17.688,8,15.5,8,13c0-3.866,3.134-7,7-7s7,3.134,7,7
			c0,2.5-1.314,4.688-3.285,5.926C23.997,21.892,24,31,24,31C24,31.553,23.552,32,23,32z M50,32H30v-2h20V32z M50,28H30v-2h20V28z
			 M50,24H30v-2h20V24z M50,20H30v-2h20V20z M50,16H30v-2h20V16z M50,12H30v-2h20V12z M50,8H30V6h20V8z"/>
	</g>
</g>
<g>
</g>
<g>
</g>
<g>
</g>
<g>
</g>
<g>
</g>
<g>
</g>
<g>
</g>
<g>
</g>
<g>
</g>
<g>
</g>
<g>
</g>
<g>
</g>
<g>
</g>
<g>
</g>
<g>
</g>
</svg>
