<?xml version="1.0" encoding="iso-8859-1"?>
<!-- Generator: Adobe Illustrator 16.0.4, SVG Export Plug-In . SVG Version: 6.00 Build 0)  -->
<!DOCTYPE svg PUBLIC "-//W3C//DTD SVG 1.1//EN" "http://www.w3.org/Graphics/SVG/1.1/DTD/svg11.dtd">
<svg version="1.1" id="Layer_1" xmlns="http://www.w3.org/2000/svg" xmlns:xlink="http://www.w3.org/1999/xlink" x="0px" y="0px"
	 width="56px" height="44px" viewBox="0 0 56 44" style="enable-background:new 0 0 56 44;" xml:space="preserve">
<g id="_x39_82-food-selected_x40_2x.png">
	<g>
		<path d="M31,44h20c0,0,4.298-0.007,4.919-4H26.121C26.413,41.458,27.431,44,31,44z M26.121,32h29.798C55.298,28.007,51,28,51,28
			H31C27.431,28,26.413,30.542,26.121,32z M26,9c0-0.552-0.447-1-1-1h-8.452l1.264-6H29c0.553,0,1-0.447,1-1s-0.447-1-1-1H17
			c-0.48,0-0.863,0.346-0.959,0.798l-0.02-0.004L14.505,8H1C0.447,8,0,8.448,0,9c0,0.04,0.019,0.073,0.022,0.111L0.007,9.113l4,34
			l0.016-0.002C4.08,43.609,4.487,44,5,44h16c0.513,0,0.92-0.391,0.978-0.889l0.016,0.002l4-34l-0.016-0.002
			C25.982,9.073,26,9.04,26,9z M3.083,18.149L2.125,10h11.958l-1.941,9.225C8.704,17.924,5.563,17.827,3.083,18.149z M22.599,20.854
			c-2.479,0.282-5.571,0.229-8.571-0.88L9.979,39.206l-0.02-0.004C9.863,39.654,9.48,40,9,40c-0.553,0-1-0.447-1-1
			c0-0.071,0.026-0.135,0.041-0.202l-0.02-0.004l4.119-19.563c0.4,0.151,0.803,0.304,1.211,0.489
			c0.225,0.096,0.451,0.166,0.677,0.25L16.127,10h7.749L22.599,20.854z M26,34v4h30v-4H26z"/>
	</g>
</g>
<g>
</g>
<g>
</g>
<g>
</g>
<g>
</g>
<g>
</g>
<g>
</g>
<g>
</g>
<g>
</g>
<g>
</g>
<g>
</g>
<g>
</g>
<g>
</g>
<g>
</g>
<g>
</g>
<g>
</g>
</svg>
