<?xml version="1.0" encoding="iso-8859-1"?>
<!-- Generator: Adobe Illustrator 16.0.4, SVG Export Plug-In . SVG Version: 6.00 Build 0)  -->
<!DOCTYPE svg PUBLIC "-//W3C//DTD SVG 1.1//EN" "http://www.w3.org/Graphics/SVG/1.1/DTD/svg11.dtd">
<svg version="1.1" id="Layer_1" xmlns="http://www.w3.org/2000/svg" xmlns:xlink="http://www.w3.org/1999/xlink" x="0px" y="0px"
	 width="40px" height="56px" viewBox="0 0 40 56" style="enable-background:new 0 0 40 56;" xml:space="preserve">
<g id="_x39_83-sock-selected_x40_2x.png">
	<g>
		<path d="M22,8H0v2h22V8z M22,1c0-0.552-0.447-1-1-1H0v1v1v4h22V1z M0.5,37c-0.171,0-0.333,0.035-0.5,0.051V41
			c0,0.356,0.197,0.655,0.479,0.832l-0.004,0.007l0.073,0.04c0.029,0.016,0.055,0.035,0.085,0.047l4.934,2.719
			C5.846,43.985,6,43.261,6,42.5C6,39.463,3.537,37,0.5,37z M37.286,37.81L26.722,55.73C27.458,55.892,28.214,56,29,56
			c6.075,0,11-4.925,11-11C40,42.241,38.966,39.738,37.286,37.81z M34.496,35.481l0.004-0.008l-0.235-0.133
			c-0.011-0.006-0.021-0.013-0.032-0.019L22,28.409V12H0v23.025C0.166,35.015,0.331,35,0.5,35C4.643,35,8,38.357,8,42.5
			c0,1.111-0.248,2.162-0.682,3.11L23.5,54.526l0.017-0.028c0.398,0.233,0.813,0.442,1.241,0.626l11.048-18.742
			C35.39,36.054,34.957,35.748,34.496,35.481z"/>
	</g>
</g>
<g>
</g>
<g>
</g>
<g>
</g>
<g>
</g>
<g>
</g>
<g>
</g>
<g>
</g>
<g>
</g>
<g>
</g>
<g>
</g>
<g>
</g>
<g>
</g>
<g>
</g>
<g>
</g>
<g>
</g>
</svg>
