<?xml version="1.0" encoding="iso-8859-1"?>
<!-- Generator: Adobe Illustrator 16.0.4, SVG Export Plug-In . SVG Version: 6.00 Build 0)  -->
<!DOCTYPE svg PUBLIC "-//W3C//DTD SVG 1.1//EN" "http://www.w3.org/Graphics/SVG/1.1/DTD/svg11.dtd">
<svg version="1.1" id="Layer_1" xmlns="http://www.w3.org/2000/svg" xmlns:xlink="http://www.w3.org/1999/xlink" x="0px" y="0px"
	 width="56px" height="20px" viewBox="0 0 56 20" style="enable-background:new 0 0 56 20;" xml:space="preserve">
<g id="_x39_84-bone-selected_x40_2x.png">
	<g>
		<path d="M53.443,10C54.988,9.005,56,7.362,56,5.5C56,2.463,53.313,0,50,0s-5,2.463-5,5.5c0,0.17,0.011,0.335,0.021,0.5H37H19
			h-8.021C10.989,5.835,11,5.67,11,5.5C11,2.463,9.313,0,6,0S0,2.463,0,5.5C0,7.362,1.012,9.005,2.557,10
			C1.012,10.995,0,12.638,0,14.5C0,17.538,2.687,20,6,20s5-2.462,5-5.5c0-0.169-0.011-0.334-0.021-0.5H19h18h8.021
			C45.011,14.166,45,14.331,45,14.5c0,3.038,1.687,5.5,5,5.5s6-2.462,6-5.5C56,12.638,54.988,10.995,53.443,10z"/>
	</g>
</g>
<g>
</g>
<g>
</g>
<g>
</g>
<g>
</g>
<g>
</g>
<g>
</g>
<g>
</g>
<g>
</g>
<g>
</g>
<g>
</g>
<g>
</g>
<g>
</g>
<g>
</g>
<g>
</g>
<g>
</g>
</svg>
