<?xml version="1.0" encoding="iso-8859-1"?>
<!-- Generator: Adobe Illustrator 16.0.4, SVG Export Plug-In . SVG Version: 6.00 Build 0)  -->
<!DOCTYPE svg PUBLIC "-//W3C//DTD SVG 1.1//EN" "http://www.w3.org/Graphics/SVG/1.1/DTD/svg11.dtd">
<svg version="1.1" id="Layer_1" xmlns="http://www.w3.org/2000/svg" xmlns:xlink="http://www.w3.org/1999/xlink" x="0px" y="0px"
	 width="48px" height="56px" viewBox="0 0 48 56" style="enable-background:new 0 0 48 56;" xml:space="preserve">
<g id="_x39_86-ghost-selected_x40_2x.png">
	<g>
		<path d="M24,0C10.745,0,0,10.745,0,24v31c0,0.553,0.447,1,1,1s1-0.447,1-1c0-1.104,1.119-2,2.5-2S7,53.896,7,55
			c0,0.553,0.447,1,1,1s1-0.447,1-1c0-1.104,1.343-2,3-2s3,0.896,3,2c0,0.553,0.447,1,1,1s1-0.447,1-1c0-1.104,1.343-2,3-2
			s3,0.896,3,2c0,0.553,0.447,1,1,1s1-0.447,1-1c0-1.104,1.343-2,3-2s3,0.896,3,2c0,0.553,0.447,1,1,1s1-0.447,1-1
			c0-1.104,1.343-2,3-2s3,0.896,3,2c0,0.553,0.447,1,1,1s1-0.447,1-1c0-1.104,1.119-2,2.5-2s2.5,0.896,2.5,2c0,0.553,0.447,1,1,1
			s1-0.447,1-1V24C48,10.745,37.255,0,24,0z M14,28c-2.762,0-5-2.687-5-6s2.238-6,5-6s5,2.687,5,6S16.762,28,14,28z M24,43
			c-2.209,0-4-1.791-4-4s1.791-4,4-4s4,1.791,4,4S26.209,43,24,43z M34,28c-2.762,0-5-2.687-5-6s2.238-6,5-6s5,2.687,5,6
			S36.762,28,34,28z"/>
	</g>
</g>
<g>
</g>
<g>
</g>
<g>
</g>
<g>
</g>
<g>
</g>
<g>
</g>
<g>
</g>
<g>
</g>
<g>
</g>
<g>
</g>
<g>
</g>
<g>
</g>
<g>
</g>
<g>
</g>
<g>
</g>
</svg>
