<?xml version="1.0" encoding="iso-8859-1"?>
<!-- Generator: Adobe Illustrator 16.0.4, SVG Export Plug-In . SVG Version: 6.00 Build 0)  -->
<!DOCTYPE svg PUBLIC "-//W3C//DTD SVG 1.1//EN" "http://www.w3.org/Graphics/SVG/1.1/DTD/svg11.dtd">
<svg version="1.1" id="Layer_1" xmlns="http://www.w3.org/2000/svg" xmlns:xlink="http://www.w3.org/1999/xlink" x="0px" y="0px"
	 width="52px" height="56px" viewBox="0 0 52 56" style="enable-background:new 0 0 52 56;" xml:space="preserve">
<g id="_x39_87-ufo-selected_x40_2x.png">
	<g>
		<path d="M52,18c0-3.208-6.152-5.968-15.012-7.242C36.857,4.795,31.993,0,26,0S15.143,4.795,15.013,10.758
			C6.152,12.032,0,14.792,0,18c0,3.54,7.48,6.538,17.837,7.592l-5.723,24.799c-0.035,0.104-0.056,0.209-0.072,0.315l-0.017,0.069
			l0.006,0.001C12.022,50.852,12,50.925,12,51c0,2.762,6.268,5,14,5s14-2.238,14-5c0-0.072-0.021-0.144-0.03-0.215l0.007-0.002
			l-0.018-0.077c-0.018-0.105-0.038-0.212-0.073-0.316l-5.723-24.798C44.52,24.538,52,21.54,52,18z M37.294,48.054
			C34.747,46.811,30.644,46,26,46s-8.747,0.811-11.294,2.054l5.144-22.288C21.825,25.913,23.877,26,26,26s4.175-0.087,6.15-0.234
			L37.294,48.054z"/>
	</g>
</g>
<g>
</g>
<g>
</g>
<g>
</g>
<g>
</g>
<g>
</g>
<g>
</g>
<g>
</g>
<g>
</g>
<g>
</g>
<g>
</g>
<g>
</g>
<g>
</g>
<g>
</g>
<g>
</g>
<g>
</g>
</svg>
