<?xml version="1.0" encoding="iso-8859-1"?>
<!-- Generator: Adobe Illustrator 16.0.4, SVG Export Plug-In . SVG Version: 6.00 Build 0)  -->
<!DOCTYPE svg PUBLIC "-//W3C//DTD SVG 1.1//EN" "http://www.w3.org/Graphics/SVG/1.1/DTD/svg11.dtd">
<svg version="1.1" id="Layer_1" xmlns="http://www.w3.org/2000/svg" xmlns:xlink="http://www.w3.org/1999/xlink" x="0px" y="0px"
	 width="56.078px" height="36.012px" viewBox="0 0 56.078 36.012" style="enable-background:new 0 0 56.078 36.012;"
	 xml:space="preserve">
<g id="_x39_88-helmet-selected_x40_2x.png">
	<g>
		<path d="M6.008,35.012c0,0.553,0.447,1,1,1h16v-6h-17V35.012z M3.943,1.991L3.32,0L2.162,1.735C2.073,1.868,0,5.048,0,11.258
			c0,5.647,2.395,10.324,4.615,13.449c0.905-4.003,2.811-7.617,5.439-10.585C7.12,10.543,4.822,4.795,3.943,1.991z M33.008,8.606
			v19.405h16.899C49.047,18.483,42.111,10.728,33.008,8.606z M6.108,28.012h16.899V8.606C13.904,10.728,6.969,18.483,6.108,28.012z
			 M33.008,36.012h16c0.553,0,1-0.447,1-1v-5h-17V36.012z M25.008,8.239v19.772h6V8.239c-0.983-0.135-1.979-0.228-3-0.228
			S25.991,8.104,25.008,8.239z M29.008,26.012h-2v-2h2V26.012z M29.008,22.012h-2v-2h2V22.012z M29.008,18.012h-2v-2h2V18.012z
			 M29.008,14.012h-2v-2h2V14.012z M53.916,1.735L52.758,0l-0.623,1.991c-0.879,2.804-3.177,8.552-6.111,12.131
			c2.629,2.968,4.534,6.582,5.439,10.585c2.221-3.125,4.615-7.802,4.615-13.449C56.078,5.048,54.005,1.868,53.916,1.735z
			 M25.008,36.012h6v-6h-6V36.012z"/>
	</g>
</g>
<g>
</g>
<g>
</g>
<g>
</g>
<g>
</g>
<g>
</g>
<g>
</g>
<g>
</g>
<g>
</g>
<g>
</g>
<g>
</g>
<g>
</g>
<g>
</g>
<g>
</g>
<g>
</g>
<g>
</g>
</svg>
