<?xml version="1.0" encoding="iso-8859-1"?>
<!-- Generator: Adobe Illustrator 16.0.4, SVG Export Plug-In . SVG Version: 6.00 Build 0)  -->
<!DOCTYPE svg PUBLIC "-//W3C//DTD SVG 1.1//EN" "http://www.w3.org/Graphics/SVG/1.1/DTD/svg11.dtd">
<svg version="1.1" id="Layer_1" xmlns="http://www.w3.org/2000/svg" xmlns:xlink="http://www.w3.org/1999/xlink" x="0px" y="0px"
	 width="44px" height="56px" viewBox="0 0 44 56" style="enable-background:new 0 0 44 56;" xml:space="preserve">
<g id="_x39_89-hockey-mask-selected_x40_2x.png">
	<g>
		<path d="M22,0C9.85,0,0,9.85,0,22v12c0,12.15,9.85,22,22,22s22-9.85,22-22V22C44,9.85,34.15,0,22,0z M17,48c-1.104,0-2-0.896-2-2
			s0.896-2,2-2s2,0.896,2,2S18.104,48,17,48z M17,40c-1.104,0-2-0.896-2-2s0.896-2,2-2s2,0.896,2,2S18.104,40,17,40z M14,28
			c-2.762,0-5-1.791-5-4s2.238-4,5-4s5,1.791,5,4S16.762,28,14,28z M17,14c-1.104,0-2-0.896-2-2s0.896-2,2-2s2,0.896,2,2
			S18.104,14,17,14z M27,10c1.104,0,2,0.896,2,2s-0.896,2-2,2s-2-0.896-2-2S25.896,10,27,10z M27,48c-1.104,0-2-0.896-2-2
			s0.896-2,2-2s2,0.896,2,2S28.104,48,27,48z M27,40c-1.104,0-2-0.896-2-2s0.896-2,2-2s2,0.896,2,2S28.104,40,27,40z M30,28
			c-2.762,0-5-1.791-5-4s2.238-4,5-4s5,1.791,5,4S32.762,28,30,28z"/>
	</g>
</g>
<g>
</g>
<g>
</g>
<g>
</g>
<g>
</g>
<g>
</g>
<g>
</g>
<g>
</g>
<g>
</g>
<g>
</g>
<g>
</g>
<g>
</g>
<g>
</g>
<g>
</g>
<g>
</g>
<g>
</g>
</svg>
