<?xml version="1.0" encoding="iso-8859-1"?>
<!-- Generator: Adobe Illustrator 16.0.4, SVG Export Plug-In . SVG Version: 6.00 Build 0)  -->
<!DOCTYPE svg PUBLIC "-//W3C//DTD SVG 1.1//EN" "http://www.w3.org/Graphics/SVG/1.1/DTD/svg11.dtd">
<svg version="1.1" id="Layer_1" xmlns="http://www.w3.org/2000/svg" xmlns:xlink="http://www.w3.org/1999/xlink" x="0px" y="0px"
	 width="56px" height="52px" viewBox="0 0 56 52" style="enable-background:new 0 0 56 52;" xml:space="preserve">
<g id="_x39_90-presentation-selected_x40_2x.png">
	<g>
		<path d="M55,4H29V1c0-0.552-0.447-1-1-1s-1,0.448-1,1v3H1C0.447,4,0,4.447,0,5v3h56V5C56,4.447,55.553,4,55,4z M2,41
			c0,0.553,0.447,1,1,1h23.52l0.2,0.25l-6.501,8.125l0.012,0.01C20.094,50.556,20,50.764,20,51c0,0.553,0.447,1,1,1
			c0.316,0,0.586-0.155,0.77-0.385l0.012,0.01L28,43.851l6.219,7.774l0.012-0.01C34.414,51.845,34.684,52,35,52c0.553,0,1-0.447,1-1
			c0-0.236-0.094-0.444-0.23-0.615l0.012-0.01L29.28,42.25l0.2-0.25H53c0.553,0,1-0.447,1-1V10H2V41z M32,18h14v2H32V18z M32,24h14
			v2H32V24z M32,30h14v2H32V30z M19,34v-8h8C27,30.418,23.418,34,19,34z M17,16c4.418,0,8,3.582,8,8h-8v8c-4.418,0-8-3.582-8-8
			S12.582,16,17,16z"/>
	</g>
</g>
<g>
</g>
<g>
</g>
<g>
</g>
<g>
</g>
<g>
</g>
<g>
</g>
<g>
</g>
<g>
</g>
<g>
</g>
<g>
</g>
<g>
</g>
<g>
</g>
<g>
</g>
<g>
</g>
<g>
</g>
</svg>
