<?xml version="1.0" encoding="iso-8859-1"?>
<!-- Generator: Adobe Illustrator 16.0.4, SVG Export Plug-In . SVG Version: 6.00 Build 0)  -->
<!DOCTYPE svg PUBLIC "-//W3C//DTD SVG 1.1//EN" "http://www.w3.org/Graphics/SVG/1.1/DTD/svg11.dtd">
<svg version="1.1" id="Layer_1" xmlns="http://www.w3.org/2000/svg" xmlns:xlink="http://www.w3.org/1999/xlink" x="0px" y="0px"
	 width="20px" height="56px" viewBox="0 0 20 56" style="enable-background:new 0 0 20 56;" xml:space="preserve">
<g id="_x39_93-wine-bottle-selected_x40_2x.png">
	<g>
		<path d="M14,1c0-0.553-0.447-1-1-1H7C6.447,0,6,0.447,6,1v3h8V1z M0,52c0,2.209,1.791,4,4,4h12c2.209,0,4-1.791,4-4v-8H0V52z
			 M14,12.11V6H6v6.11C4.068,12.452,0,13.896,0,20v6h20v-6C20,13.896,15.932,12.452,14,12.11z M0,42h20V28H0V42z"/>
	</g>
</g>
<g>
</g>
<g>
</g>
<g>
</g>
<g>
</g>
<g>
</g>
<g>
</g>
<g>
</g>
<g>
</g>
<g>
</g>
<g>
</g>
<g>
</g>
<g>
</g>
<g>
</g>
<g>
</g>
<g>
</g>
</svg>
