<?xml version="1.0" encoding="iso-8859-1"?>
<!-- Generator: Adobe Illustrator 16.0.4, SVG Export Plug-In . SVG Version: 6.00 Build 0)  -->
<!DOCTYPE svg PUBLIC "-//W3C//DTD SVG 1.1//EN" "http://www.w3.org/Graphics/SVG/1.1/DTD/svg11.dtd">
<svg version="1.1" id="Layer_1" xmlns="http://www.w3.org/2000/svg" xmlns:xlink="http://www.w3.org/1999/xlink" x="0px" y="0px"
	 width="36px" height="56px" viewBox="0 0 36 56" style="enable-background:new 0 0 36 56;" xml:space="preserve">
<g id="_x39_94-rum-jug-selected_x40_2x.png">
	<g>
		<path d="M0,52c0,2.209,1.791,4,4,4h28c2.209,0,4-1.791,4-4v-8H0V52z M24,1c0-0.553-0.447-1-1-1H13c-0.553,0-1,0.447-1,1v3h12V1z
			 M24,12.04V6H12v6.04C8.96,12.23,0,13.356,0,20v6h36v-6C36,13.356,27.04,12.23,24,12.04z M0,42h36V28H0V42z"/>
	</g>
</g>
<g>
</g>
<g>
</g>
<g>
</g>
<g>
</g>
<g>
</g>
<g>
</g>
<g>
</g>
<g>
</g>
<g>
</g>
<g>
</g>
<g>
</g>
<g>
</g>
<g>
</g>
<g>
</g>
<g>
</g>
</svg>
