<?xml version="1.0" encoding="iso-8859-1"?>
<!-- Generator: Adobe Illustrator 16.0.4, SVG Export Plug-In . SVG Version: 6.00 Build 0)  -->
<!DOCTYPE svg PUBLIC "-//W3C//DTD SVG 1.1//EN" "http://www.w3.org/Graphics/SVG/1.1/DTD/svg11.dtd">
<svg version="1.1" id="Layer_1" xmlns="http://www.w3.org/2000/svg" xmlns:xlink="http://www.w3.org/1999/xlink" x="0px" y="0px"
	 width="52px" height="56px" viewBox="0 0 52 56" style="enable-background:new 0 0 52 56;" xml:space="preserve">
<g id="_x39_95-martini-glass-selected_x40_2x.png">
	<g>
		<path d="M51.692,5.722L51.69,5.719C51.88,5.537,52,5.283,52,5c0-0.552-0.447-1-1-1H36.202l1.63-2.445l-0.016-0.01
			C37.923,1.386,38,1.205,38,1c0-0.553-0.447-1-1-1c-0.347,0-0.638,0.188-0.816,0.455l-0.016-0.01L33.798,4H1C0.447,4,0,4.448,0,5
			c0,0.283,0.12,0.537,0.311,0.719L0.308,5.722L25,29.427V54H11c-0.553,0-1,0.448-1,1c0,0.553,0.447,1,1,1h30c0.553,0,1-0.447,1-1
			c0-0.552-0.447-1-1-1H27V29.427L51.692,5.722z M34.868,6h13.646l-7.093,6.809c-0.861,0.272-6.294,1.849-11.688,0.893L34.868,6z
			 M10.678,12.904L3.485,6h28.979l-4.8,7.2c-0.442-0.14-0.882-0.296-1.313-0.48c-8.445-3.845-15.445-0.111-15.745,0.018
			L10.678,12.904z M25.832,19.555l-2.852,2.443l1.188-3.553l0.438-0.655c0.405,0.542,0.986,0.939,1.663,1.109L25.832,19.555z M25,16
			c0-1.104,0.896-2,2-2s2,0.896,2,2s-0.896,2-2,2S25,17.104,25,16z"/>
	</g>
</g>
<g>
</g>
<g>
</g>
<g>
</g>
<g>
</g>
<g>
</g>
<g>
</g>
<g>
</g>
<g>
</g>
<g>
</g>
<g>
</g>
<g>
</g>
<g>
</g>
<g>
</g>
<g>
</g>
<g>
</g>
</svg>
