<?xml version="1.0" encoding="iso-8859-1"?>
<!-- Generator: Adobe Illustrator 16.0.4, SVG Export Plug-In . SVG Version: 6.00 Build 0)  -->
<!DOCTYPE svg PUBLIC "-//W3C//DTD SVG 1.1//EN" "http://www.w3.org/Graphics/SVG/1.1/DTD/svg11.dtd">
<svg version="1.1" id="Layer_1" xmlns="http://www.w3.org/2000/svg" xmlns:xlink="http://www.w3.org/1999/xlink" x="0px" y="0px"
	 width="56px" height="56px" viewBox="0 0 56 56" style="enable-background:new 0 0 56 56;" xml:space="preserve">
<g id="_x39_96-gavel-selected_x40_2x.png">
	<g>
		<path d="M12.558,19.886l-0.005,0.009l2.759,1.38L33.274,3.312l-1.38-2.759l-0.009,0.005C31.721,0.23,31.391,0,31,0
			c-0.276,0-0.526,0.112-0.707,0.293l-18,18C12.112,18.474,12,18.724,12,19C12,19.391,12.23,19.721,12.558,19.886z M1.881,46.965
			l0.086,0.085C0.778,47.964,0,49.385,0,51c0,2.762,2.238,5,5,5c1.615,0,3.036-0.778,3.95-1.967l0.002,0.002l18.25-18.312
			l-7.071-7.07L1.881,46.965z M55.442,24.114l0.005-0.009l-2.759-1.379L34.727,40.688l1.379,2.759l0.009-0.005
			C36.279,43.77,36.609,44,37,44c0.276,0,0.526-0.111,0.707-0.293l18-18C55.888,25.526,56,25.276,56,25
			C56,24.609,55.77,24.279,55.442,24.114z M34.414,5L17,22.414L33.586,39L51,21.586L34.414,5z"/>
	</g>
</g>
<g>
</g>
<g>
</g>
<g>
</g>
<g>
</g>
<g>
</g>
<g>
</g>
<g>
</g>
<g>
</g>
<g>
</g>
<g>
</g>
<g>
</g>
<g>
</g>
<g>
</g>
<g>
</g>
<g>
</g>
</svg>
