<?xml version="1.0" encoding="iso-8859-1"?>
<!-- Generator: Adobe Illustrator 16.0.4, SVG Export Plug-In . SVG Version: 6.00 Build 0)  -->
<!DOCTYPE svg PUBLIC "-//W3C//DTD SVG 1.1//EN" "http://www.w3.org/Graphics/SVG/1.1/DTD/svg11.dtd">
<svg version="1.1" id="Layer_1" xmlns="http://www.w3.org/2000/svg" xmlns:xlink="http://www.w3.org/1999/xlink" x="0px" y="0px"
	 width="56px" height="40px" viewBox="0 0 56 40" style="enable-background:new 0 0 56 40;" xml:space="preserve">
<g id="_x39_99-contact-card-2-selected_x40_2x.png">
	<g>
		<path d="M52,0H4C1.791,0,0,1.791,0,4v32c0,2.209,1.791,4,4,4h5c0.553,0,1-0.447,1-1c0-1.841,2.687-3,6-3s6,1.159,6,3
			c0,0.553,0.447,1,1,1h10c0.553,0,1-0.447,1-1c0-1.841,2.687-3,6-3s6,1.159,6,3c0,0.553,0.447,1,1,1h5c2.209,0,4-1.791,4-4V4
			C56,1.791,54.209,0,52,0z M32,22H8v-2h24V22z M48,16H8v-2h40V16z M48,10H8V8h40V10z"/>
	</g>
</g>
<g>
</g>
<g>
</g>
<g>
</g>
<g>
</g>
<g>
</g>
<g>
</g>
<g>
</g>
<g>
</g>
<g>
</g>
<g>
</g>
<g>
</g>
<g>
</g>
<g>
</g>
<g>
</g>
<g>
</g>
</svg>
