<?xml version="1.0" encoding="iso-8859-1"?>
<!-- Generator: Adobe Illustrator 16.0.4, SVG Export Plug-In . SVG Version: 6.00 Build 0)  -->
<!DOCTYPE svg PUBLIC "-//W3C//DTD SVG 1.1//EN" "http://www.w3.org/Graphics/SVG/1.1/DTD/svg11.dtd">
<svg version="1.1" id="Layer_1" xmlns="http://www.w3.org/2000/svg" xmlns:xlink="http://www.w3.org/1999/xlink" x="0px" y="0px"
	 width="26px" height="36px" viewBox="0 0 26 36" style="enable-background:new 0 0 26 36;" xml:space="preserve">
<g id="_x31_101-pointing-finger_x40_2x.png">
	<g>
		<path d="M23,12c-0.395,0-0.77,0.081-1.116,0.22C21.539,10.943,20.385,10,19,10c-0.395,0-0.77,0.081-1.116,0.22
			C17.54,8.943,16.385,8,15,8c-0.353,0-0.686,0.072-1,0.184V3c0-1.657-1.343-3-3-3S8,1.343,8,3v15.868l-2.584-3.644
			C5.416,15.225,4.763,14,3,14c-1.657,0-3,1.343-3,3c0,0.389,0.08,0.757,0.214,1.098l3.229,9.552C4.815,32.468,9.24,36,14.498,36
			c6.351,0,11.5-5.148,11.502-11.5V15C26,13.343,24.657,12,23,12z"/>
	</g>
</g>
<g>
</g>
<g>
</g>
<g>
</g>
<g>
</g>
<g>
</g>
<g>
</g>
<g>
</g>
<g>
</g>
<g>
</g>
<g>
</g>
<g>
</g>
<g>
</g>
<g>
</g>
<g>
</g>
<g>
</g>
</svg>
