<?xml version="1.0" encoding="iso-8859-1"?>
<!-- Generator: Adobe Illustrator 16.0.4, SVG Export Plug-In . SVG Version: 6.00 Build 0)  -->
<!DOCTYPE svg PUBLIC "-//W3C//DTD SVG 1.1//EN" "http://www.w3.org/Graphics/SVG/1.1/DTD/svg11.dtd">
<svg version="1.1" id="Layer_1" xmlns="http://www.w3.org/2000/svg" xmlns:xlink="http://www.w3.org/1999/xlink" x="0px" y="0px"
	 width="26px" height="42px" viewBox="0 0 26 42" style="enable-background:new 0 0 26 42;" xml:space="preserve">
<g id="_x31_103-two-finger-tap_x40_2x.png">
	<g>
		<path d="M5,10c0.552,0,1-0.447,1-1c0-3.866,3.134-7,7-7s7,3.134,7,7c0,0.553,0.448,1,1,1s1-0.447,1-1c0-4.971-4.029-9-9-9
			S4,4.029,4,9C4,9.553,4.448,10,5,10z M23,18c-0.395,0-0.77,0.081-1.116,0.22C21.539,16.943,20.385,16,19,16
			c-0.353,0-0.686,0.072-1,0.184V9c0-1.657-1.343-3-3-3c-1.385,0-2.539,0.943-2.884,2.22C11.77,8.081,11.395,8,11,8
			c-1.657,0-3,1.344-3,3v13.861l-2.616-3.699C5.384,21.162,4.592,20,3,20c-1.657,0-3,1.343-3,3c0,0.603,0.202,1.104,0.202,1.104
			l3.241,9.546C4.815,38.468,9.24,42,14.498,42c6.351,0,11.5-5.148,11.502-11.5V21C26,19.343,24.657,18,23,18z"/>
	</g>
</g>
<g>
</g>
<g>
</g>
<g>
</g>
<g>
</g>
<g>
</g>
<g>
</g>
<g>
</g>
<g>
</g>
<g>
</g>
<g>
</g>
<g>
</g>
<g>
</g>
<g>
</g>
<g>
</g>
<g>
</g>
</svg>
