<?xml version="1.0" encoding="iso-8859-1"?>
<!-- Generator: Adobe Illustrator 16.0.4, SVG Export Plug-In . SVG Version: 6.00 Build 0)  -->
<!DOCTYPE svg PUBLIC "-//W3C//DTD SVG 1.1//EN" "http://www.w3.org/Graphics/SVG/1.1/DTD/svg11.dtd">
<svg version="1.1" id="Layer_1" xmlns="http://www.w3.org/2000/svg" xmlns:xlink="http://www.w3.org/1999/xlink" x="0px" y="0px"
	 width="26px" height="42px" viewBox="0 0 26 42" style="enable-background:new 0 0 26 42;" xml:space="preserve">
<g id="_x31_104-three-finger-tap_x40_2x.png">
	<g>
		<path d="M23,18c-0.351,0-0.687,0.063-1,0.175V11c0-1.656-1.343-3-3-3c-0.395,0-0.77,0.081-1.116,0.22C17.539,6.943,16.385,6,15,6
			s-2.539,0.943-2.884,2.22C11.77,8.081,11.395,8,11,8c-1.657,0-3,1.344-3,3v13.861l-2.616-3.699C5.384,21.162,4.677,20,3,20
			c-1.657,0-3,1.343-3,3c0,0.564,0.202,1.104,0.202,1.104l3.241,9.546C4.815,38.468,9.24,42,14.498,42
			c6.351,0,11.5-5.148,11.502-11.5V21C26,19.343,24.657,18,23,18z M5,12c0.552,0,1-0.447,1-1c0-4.971,4.029-9,9-9s9,4.029,9,9
			c0,0.553,0.448,1,1,1s1-0.447,1-1c0-6.075-4.925-11-11-11S4,4.925,4,11C4,11.553,4.448,12,5,12z"/>
	</g>
</g>
<g>
</g>
<g>
</g>
<g>
</g>
<g>
</g>
<g>
</g>
<g>
</g>
<g>
</g>
<g>
</g>
<g>
</g>
<g>
</g>
<g>
</g>
<g>
</g>
<g>
</g>
<g>
</g>
<g>
</g>
</svg>
