<?xml version="1.0" encoding="iso-8859-1"?>
<!-- Generator: Adobe Illustrator 16.0.4, SVG Export Plug-In . SVG Version: 6.00 Build 0)  -->
<!DOCTYPE svg PUBLIC "-//W3C//DTD SVG 1.1//EN" "http://www.w3.org/Graphics/SVG/1.1/DTD/svg11.dtd">
<svg version="1.1" id="Layer_1" xmlns="http://www.w3.org/2000/svg" xmlns:xlink="http://www.w3.org/1999/xlink" x="0px" y="0px"
	 width="44px" height="44px" viewBox="0 0 44 44" style="enable-background:new 0 0 44 44;" xml:space="preserve">
<g id="_x31_105-finger-drag_x40_2x.png">
	<g>
		<path d="M3.414,12H7c0.552,0,1-0.447,1-1s-0.448-1-1-1H3.414l1.293-1.293C4.888,8.526,5,8.276,5,8c0-0.552-0.448-1-1-1
			C3.724,7,3.474,7.112,3.293,7.293l-3,3C0.112,10.474,0,10.724,0,11s0.112,0.526,0.293,0.707l3,3C3.474,14.889,3.724,15,4,15
			c0.552,0,1-0.447,1-1c0-0.276-0.112-0.526-0.293-0.707L3.414,12z M8,5c0.276,0,0.526-0.112,0.707-0.293L10,3.414V7
			c0,0.553,0.448,1,1,1s1-0.447,1-1V3.414l1.293,1.293C13.474,4.888,13.724,5,14,5c0.552,0,1-0.447,1-1
			c0-0.276-0.112-0.526-0.293-0.707l-3-3C11.526,0.112,11.276,0,11,0s-0.526,0.112-0.707,0.293l-3,3C7.112,3.474,7,3.724,7,4
			C7,4.553,7.448,5,8,5z M41,20c-0.395,0-0.77,0.081-1.116,0.22C39.539,18.943,38.385,18,37,18c-0.395,0-0.77,0.081-1.116,0.22
			C35.539,16.943,34.385,16,33,16c-0.353,0-0.686,0.072-1,0.184V11c0-1.657-1.343-3-3-3s-3,1.343-3,3v15.861l-2.616-3.699
			c0,0-0.746-1.162-2.384-1.162c-1.657,0-3,1.343-3,3c0,0.571,0.202,1.104,0.202,1.104l3.241,9.546
			C22.815,40.468,27.24,44,32.498,44c6.351,0,11.5-5.148,11.502-11.5V23C44,21.343,42.657,20,41,20z M18.707,14.707l3-3
			C21.888,11.526,22,11.276,22,11s-0.112-0.526-0.293-0.707l-3-3C18.526,7.112,18.276,7,18,7c-0.552,0-1,0.448-1,1
			c0,0.276,0.112,0.526,0.293,0.707L18.586,10H15c-0.552,0-1,0.447-1,1s0.448,1,1,1h3.586l-1.293,1.293
			C17.112,13.474,17,13.724,17,14c0,0.553,0.448,1,1,1C18.276,15,18.526,14.889,18.707,14.707z M14,17
			c-0.276,0-0.526,0.112-0.707,0.293L12,18.586V15c0-0.552-0.448-1-1-1s-1,0.448-1,1v3.586l-1.293-1.293C8.526,17.112,8.276,17,8,17
			c-0.552,0-1,0.448-1,1c0,0.276,0.112,0.526,0.293,0.707l3,3C10.474,21.889,10.724,22,11,22c0.276,0,0.526-0.111,0.707-0.293l3-3
			C14.888,18.526,15,18.276,15,18C15,17.448,14.552,17,14,17z"/>
	</g>
</g>
<g>
</g>
<g>
</g>
<g>
</g>
<g>
</g>
<g>
</g>
<g>
</g>
<g>
</g>
<g>
</g>
<g>
</g>
<g>
</g>
<g>
</g>
<g>
</g>
<g>
</g>
<g>
</g>
<g>
</g>
</svg>
