<?xml version="1.0" encoding="iso-8859-1"?>
<!-- Generator: Adobe Illustrator 16.0.4, SVG Export Plug-In . SVG Version: 6.00 Build 0)  -->
<!DOCTYPE svg PUBLIC "-//W3C//DTD SVG 1.1//EN" "http://www.w3.org/Graphics/SVG/1.1/DTD/svg11.dtd">
<svg version="1.1" id="Layer_1" xmlns="http://www.w3.org/2000/svg" xmlns:xlink="http://www.w3.org/1999/xlink" x="0px" y="0px"
	 width="44px" height="44px" viewBox="0 0 44 44" style="enable-background:new 0 0 44 44;" xml:space="preserve">
<g id="_x31_106-horizontal-swipe_x40_2x.png">
	<g>
		<path d="M17.707,14.293l-4-4C13.526,10.112,13.276,10,13,10c-0.553,0-1,0.447-1,1c0,0.276,0.112,0.526,0.293,0.707L14.586,14H5
			c-0.553,0-1,0.448-1,1c0,0.553,0.447,1,1,1h9.586l-2.293,2.293C12.112,18.474,12,18.724,12,19c0,0.553,0.447,1,1,1
			c0.276,0,0.526-0.112,0.707-0.293l4-4C17.888,15.526,18,15.276,18,15S17.888,14.474,17.707,14.293z M5,10c0.553,0,1-0.447,1-1
			c0-0.276-0.112-0.526-0.293-0.707L3.414,6H13c0.553,0,1-0.447,1-1s-0.447-1-1-1H3.414l2.293-2.293C5.888,1.526,6,1.276,6,1
			c0-0.553-0.447-1-1-1C4.724,0,4.474,0.112,4.293,0.293l-4,4C0.112,4.474,0,4.724,0,5s0.112,0.526,0.293,0.707l4,4
			C4.474,9.888,4.724,10,5,10z M41,20c-0.395,0-0.771,0.081-1.115,0.22C39.539,18.943,38.385,18,37,18
			c-0.395,0-0.771,0.081-1.115,0.22C35.539,16.943,34.385,16,33,16c-0.353,0-0.686,0.072-1,0.184V11c0-1.657-1.343-3-3-3
			s-3,1.343-3,3v15.861l-2.615-3.699c0,0-0.971-1.162-2.385-1.162c-1.657,0-3,1.343-3,3c0,0.517,0.202,1.104,0.202,1.104
			l3.241,9.546C22.815,40.468,27.239,44,32.497,44c6.352,0,11.5-5.148,11.503-11.5V23C44,21.343,42.657,20,41,20z"/>
	</g>
</g>
<g>
</g>
<g>
</g>
<g>
</g>
<g>
</g>
<g>
</g>
<g>
</g>
<g>
</g>
<g>
</g>
<g>
</g>
<g>
</g>
<g>
</g>
<g>
</g>
<g>
</g>
<g>
</g>
<g>
</g>
</svg>
