<?xml version="1.0" encoding="iso-8859-1"?>
<!-- Generator: Adobe Illustrator 16.0.4, SVG Export Plug-In . SVG Version: 6.00 Build 0)  -->
<!DOCTYPE svg PUBLIC "-//W3C//DTD SVG 1.1//EN" "http://www.w3.org/Graphics/SVG/1.1/DTD/svg11.dtd">
<svg version="1.1" id="Layer_1" xmlns="http://www.w3.org/2000/svg" xmlns:xlink="http://www.w3.org/1999/xlink" x="0px" y="0px"
	 width="44px" height="44px" viewBox="0 0 44 44" style="enable-background:new 0 0 44 44;" xml:space="preserve">
<g id="_x31_107-vertical-swipe_x40_2x.png">
	<g>
		<path d="M9,12c-0.276,0-0.526,0.112-0.707,0.293L6,14.586V5c0-0.553-0.447-1-1-1S4,4.447,4,5v9.586l-2.292-2.292
			C1.526,12.112,1.276,12,1,12c-0.553,0-1,0.448-1,1c0,0.276,0.112,0.526,0.293,0.707l4,4C4.474,17.889,4.724,18,5,18
			s0.526-0.111,0.707-0.293l4-4C9.888,13.526,10,13.276,10,13C10,12.448,9.553,12,9,12z M41,20c-0.395,0-0.771,0.081-1.115,0.22
			C39.539,18.943,38.385,18,37,18c-0.395,0-0.771,0.081-1.115,0.22C35.539,16.943,34.385,16,33,16c-0.353,0-0.686,0.072-1,0.184V11
			c0-1.657-1.343-3-3-3s-3,1.343-3,3v15.861l-2.615-3.699c0,0-0.771-1.162-2.385-1.162c-1.657,0-3,1.343-3,3
			c0,0.518,0.202,1.104,0.202,1.104l3.241,9.546C22.815,40.468,27.239,44,32.498,44C38.849,44,43.997,38.852,44,32.5V23
			C44,21.343,42.657,20,41,20z M19,6c0.553,0,1-0.447,1-1c0-0.276-0.112-0.526-0.293-0.707l-4-4C15.526,0.112,15.276,0,15,0
			s-0.526,0.112-0.707,0.293l-4,4C10.112,4.474,10,4.724,10,5c0,0.553,0.447,1,1,1c0.276,0,0.526-0.111,0.707-0.293L14,3.414V13
			c0,0.553,0.448,1,1,1c0.553,0,1-0.447,1-1V3.414l2.293,2.293C18.474,5.889,18.724,6,19,6z"/>
	</g>
</g>
<g>
</g>
<g>
</g>
<g>
</g>
<g>
</g>
<g>
</g>
<g>
</g>
<g>
</g>
<g>
</g>
<g>
</g>
<g>
</g>
<g>
</g>
<g>
</g>
<g>
</g>
<g>
</g>
<g>
</g>
</svg>
