<?xml version="1.0" encoding="iso-8859-1"?>
<!-- Generator: Adobe Illustrator 16.0.4, SVG Export Plug-In . SVG Version: 6.00 Build 0)  -->
<!DOCTYPE svg PUBLIC "-//W3C//DTD SVG 1.1//EN" "http://www.w3.org/Graphics/SVG/1.1/DTD/svg11.dtd">
<svg version="1.1" id="Layer_1" xmlns="http://www.w3.org/2000/svg" xmlns:xlink="http://www.w3.org/1999/xlink" x="0px" y="0px"
	 width="40px" height="40px" viewBox="0 0 40 40" style="enable-background:new 0 0 40 40;" xml:space="preserve">
<g id="_x31_111-flick-left_x40_2x.png">
	<g>
		<path d="M3.522,6.107c4.811-0.079,6.39,0.122,13.057,1.797c0.529,0.134,1.087,0.003,1.31-0.491
			c0.224-0.493,0.024-1.146-0.503-1.296c-6.558-1.88-8.877-2.09-14.115-1.973l2.437-2.438C5.888,1.526,6,1.276,6,1
			c0-0.553-0.448-1-1-1C4.724,0,4.474,0.112,4.293,0.293l-4,4C0.112,4.474,0,4.724,0,5s0.112,0.526,0.293,0.707l4,4
			C4.474,9.889,4.724,10,5,10c0.552,0,1-0.447,1-1c0-0.276-0.112-0.526-0.293-0.707L3.522,6.107z M37,16
			c-0.395,0-0.77,0.081-1.116,0.22C35.54,14.943,34.385,14,33,14c-0.395,0-0.77,0.081-1.116,0.22C31.54,12.943,30.385,12,29,12
			c-0.353,0-0.686,0.072-1,0.184V7c0-1.657-1.343-3-3-3s-3,1.343-3,3v15.861l-2.616-3.699c0,0-0.76-1.162-2.384-1.162
			c-1.657,0-3,1.343-3,3c0,0.44,0.202,1.104,0.202,1.104l3.241,9.546C18.815,36.468,23.239,40,28.498,40
			c6.351,0,11.5-5.148,11.502-11.5V19C40,17.343,38.657,16,37,16z"/>
	</g>
</g>
<g>
</g>
<g>
</g>
<g>
</g>
<g>
</g>
<g>
</g>
<g>
</g>
<g>
</g>
<g>
</g>
<g>
</g>
<g>
</g>
<g>
</g>
<g>
</g>
<g>
</g>
<g>
</g>
<g>
</g>
</svg>
