<?xml version="1.0" encoding="iso-8859-1"?>
<!-- Generator: Adobe Illustrator 16.0.4, SVG Export Plug-In . SVG Version: 6.00 Build 0)  -->
<!DOCTYPE svg PUBLIC "-//W3C//DTD SVG 1.1//EN" "http://www.w3.org/Graphics/SVG/1.1/DTD/svg11.dtd">
<svg version="1.1" id="Layer_1" xmlns="http://www.w3.org/2000/svg" xmlns:xlink="http://www.w3.org/1999/xlink" x="0px" y="0px"
	 width="36px" height="40px" viewBox="0 0 36 40" style="enable-background:new 0 0 36 40;" xml:space="preserve">
<g id="_x31_112-flick-right_x40_2x.png">
	<g>
		<path d="M23,16c-0.395,0-0.77,0.081-1.116,0.22C21.539,14.943,20.385,14,19,14c-0.395,0-0.77,0.081-1.116,0.22
			C17.539,12.943,16.385,12,15,12c-0.353,0-0.686,0.072-1,0.184V7c0-1.657-1.343-3-3-3S8,5.343,8,7v15.861l-2.616-3.699
			C5.384,19.162,4.398,18,3,18c-1.657,0-3,1.343-3,3c0,0.479,0.202,1.104,0.202,1.104l3.241,9.545C4.815,36.468,9.239,40,14.498,40
			c6.351,0,11.5-5.148,11.502-11.5V19C26,17.343,24.657,16,23,16z M35.707,4.293l-4-4C31.526,0.112,31.276,0,31,0
			c-0.552,0-1,0.447-1,1c0,0.276,0.112,0.526,0.293,0.707l2.437,2.438c-5.238-0.117-7.557,0.093-14.115,1.973
			c-0.527,0.15-0.727,0.803-0.503,1.296c0.223,0.494,0.781,0.625,1.31,0.491c6.667-1.675,8.247-1.876,13.057-1.797l-2.185,2.186
			C30.112,8.474,30,8.724,30,9c0,0.553,0.448,1,1,1c0.276,0,0.526-0.111,0.707-0.293l4-4C35.888,5.526,36,5.276,36,5
			S35.888,4.474,35.707,4.293z"/>
	</g>
</g>
<g>
</g>
<g>
</g>
<g>
</g>
<g>
</g>
<g>
</g>
<g>
</g>
<g>
</g>
<g>
</g>
<g>
</g>
<g>
</g>
<g>
</g>
<g>
</g>
<g>
</g>
<g>
</g>
<g>
</g>
</svg>
