<?xml version="1.0" encoding="iso-8859-1"?>
<!-- Generator: Adobe Illustrator 16.0.4, SVG Export Plug-In . SVG Version: 6.00 Build 0)  -->
<!DOCTYPE svg PUBLIC "-//W3C//DTD SVG 1.1//EN" "http://www.w3.org/Graphics/SVG/1.1/DTD/svg11.dtd">
<svg version="1.1" id="Layer_1" xmlns="http://www.w3.org/2000/svg" xmlns:xlink="http://www.w3.org/1999/xlink" x="0px" y="0px"
	 width="24px" height="28px" viewBox="0 0 24 28" style="enable-background:new 0 0 24 28;" xml:space="preserve">
<g id="_x31_113-grab-hand-1_x40_2x.png">
	<g>
		<path d="M21,4c-0.395,0-0.77,0.081-1.116,0.22C19.539,2.943,18.385,2,17,2c-0.395,0-0.77,0.081-1.116,0.22
			C15.539,0.943,14.385,0,13,0s-2.539,0.943-2.884,2.22C9.77,2.081,9.395,2,9,2C7.343,2,6,3.343,6,5v3.466L5.7,7.634
			C5.7,7.634,4.976,6,3,6C1.343,6,0,7.344,0,9c0,0.198,0.05,0.545,0.066,0.621l0.973,7.747C1.486,23.312,6.439,28,12.498,28
			c6.351,0,11.5-5.148,11.502-11.5V7C24,5.344,22.657,4,21,4z"/>
	</g>
</g>
<g>
</g>
<g>
</g>
<g>
</g>
<g>
</g>
<g>
</g>
<g>
</g>
<g>
</g>
<g>
</g>
<g>
</g>
<g>
</g>
<g>
</g>
<g>
</g>
<g>
</g>
<g>
</g>
<g>
</g>
</svg>
