<?xml version="1.0" encoding="iso-8859-1"?>
<!-- Generator: Adobe Illustrator 16.0.4, SVG Export Plug-In . SVG Version: 6.00 Build 0)  -->
<!DOCTYPE svg PUBLIC "-//W3C//DTD SVG 1.1//EN" "http://www.w3.org/Graphics/SVG/1.1/DTD/svg11.dtd">
<svg version="1.1" id="Layer_1" xmlns="http://www.w3.org/2000/svg" xmlns:xlink="http://www.w3.org/1999/xlink" x="0px" y="0px"
	 width="24.005px" height="28px" viewBox="0 0 24.005 28" style="enable-background:new 0 0 24.005 28;" xml:space="preserve">
<g id="_x31_114-fist_x40_2x.png">
	<g>
		<path d="M24,16v-2c0-2.209-1.791-4-4-4h-2V5c0-1.657-1.343-3-3-3c-0.395,0-0.77,0.081-1.116,0.22C13.539,0.943,12.385,0,11,0
			S8.461,0.943,8.116,2.22C7.77,2.081,7.395,2,7,2C5.615,2,4.461,2.943,4.116,4.22C3.77,4.081,3.395,4,3,4C1.343,4,0,5.344,0,7v9h0
			c0.002,6.628,5.375,12,12.002,12s12-5.372,12.002-12H24z"/>
	</g>
</g>
<g>
</g>
<g>
</g>
<g>
</g>
<g>
</g>
<g>
</g>
<g>
</g>
<g>
</g>
<g>
</g>
<g>
</g>
<g>
</g>
<g>
</g>
<g>
</g>
<g>
</g>
<g>
</g>
<g>
</g>
</svg>
