<?xml version="1.0" encoding="iso-8859-1"?>
<!-- Generator: Adobe Illustrator 16.0.4, SVG Export Plug-In . SVG Version: 6.00 Build 0)  -->
<!DOCTYPE svg PUBLIC "-//W3C//DTD SVG 1.1//EN" "http://www.w3.org/Graphics/SVG/1.1/DTD/svg11.dtd">
<svg version="1.1" id="Layer_1" xmlns="http://www.w3.org/2000/svg" xmlns:xlink="http://www.w3.org/1999/xlink" x="0px" y="0px"
	 width="24.005px" height="36px" viewBox="0 0 24.005 36" style="enable-background:new 0 0 24.005 36;" xml:space="preserve">
<g id="_x31_115-peace-sign_x40_2x.png">
	<g>
		<path d="M23.995,16c-0.023-1.305-0.887-2.491-2.21-2.846c-0.382-0.103-0.765-0.121-1.134-0.077
			c-0.003-1.321-0.874-2.531-2.212-2.891c-0.591-0.158-1.188-0.126-1.728,0.056l1.271-7.004c0.006-0.08,0.024-0.157,0.024-0.238
			c0-1.656-1.343-3-3-3c-1.461,0-2.675,1.045-2.942,2.428l-2.236,9.107L7.797,5.871L7.783,5.878C7.338,4.777,6.264,4,5.005,4
			c-1.657,0-3,1.343-3,3c0,0.088,0.06,0.596,0.06,0.596C2.066,7.6,2.066,7.604,2.067,7.609l1.757,10.409
			c-2.124,0.096-3.82,1.834-3.82,3.981v2H0c0.002,6.628,5.375,12,12.002,12s12-5.372,12.002-12v-8H23.995z"/>
	</g>
</g>
<g>
</g>
<g>
</g>
<g>
</g>
<g>
</g>
<g>
</g>
<g>
</g>
<g>
</g>
<g>
</g>
<g>
</g>
<g>
</g>
<g>
</g>
<g>
</g>
<g>
</g>
<g>
</g>
<g>
</g>
</svg>
