<?xml version="1.0" encoding="iso-8859-1"?>
<!-- Generator: Adobe Illustrator 16.0.4, SVG Export Plug-In . SVG Version: 6.00 Build 0)  -->
<!DOCTYPE svg PUBLIC "-//W3C//DTD SVG 1.1//EN" "http://www.w3.org/Graphics/SVG/1.1/DTD/svg11.dtd">
<svg version="1.1" id="Layer_1" xmlns="http://www.w3.org/2000/svg" xmlns:xlink="http://www.w3.org/1999/xlink" x="0px" y="0px"
	 width="26px" height="36px" viewBox="0 0 26 36" style="enable-background:new 0 0 26 36;" xml:space="preserve">
<g id="_x31_116-slayer-hand_x40_2x.png">
	<g>
		<path d="M23,4c-1.657,0-3,1.343-3,3v3.184C19.686,10.072,19.353,10,19,10c-0.395,0-0.771,0.081-1.115,0.22
			C17.539,8.943,16.385,8,15,8c-0.353,0-0.686,0.072-1,0.184V3c0-1.656-1.343-3-3-3S8,1.344,8,3v15.861l-2.615-3.699
			C5.385,15.162,4.577,14,3,14c-1.657,0-3,1.343-3,3c0,0.597,0.202,1.104,0.202,1.104l3.241,9.546C4.815,32.468,9.239,36,14.498,36
			C20.849,36,25.997,30.852,26,24.5V7C26,5.343,24.657,4,23,4z"/>
	</g>
</g>
<g>
</g>
<g>
</g>
<g>
</g>
<g>
</g>
<g>
</g>
<g>
</g>
<g>
</g>
<g>
</g>
<g>
</g>
<g>
</g>
<g>
</g>
<g>
</g>
<g>
</g>
<g>
</g>
<g>
</g>
</svg>
