<?xml version="1.0" encoding="iso-8859-1"?>
<!-- Generator: Adobe Illustrator 16.0.4, SVG Export Plug-In . SVG Version: 6.00 Build 0)  -->
<!DOCTYPE svg PUBLIC "-//W3C//DTD SVG 1.1//EN" "http://www.w3.org/Graphics/SVG/1.1/DTD/svg11.dtd">
<svg version="1.1" id="Layer_1" xmlns="http://www.w3.org/2000/svg" xmlns:xlink="http://www.w3.org/1999/xlink" x="0px" y="0px"
	 width="26px" height="36px" viewBox="0 0 26 36" style="enable-background:new 0 0 26 36;" xml:space="preserve">
<g id="_x31_117-stop-hand-1_x40_2x.png">
	<g>
		<path d="M23,4c-0.395,0-0.771,0.081-1.115,0.22C21.539,2.943,20.385,2,19,2c-0.395,0-0.771,0.081-1.115,0.22
			C17.539,0.943,16.385,0,15,0s-2.539,0.943-2.885,2.22C11.771,2.081,11.396,2,11,2C9.343,2,8,3.343,8,5v13.861l-2.615-3.699
			C5.385,15.162,4.569,14,3,14c-1.657,0-3,1.343-3,3c0,0.532,0.202,1.104,0.202,1.104l3.241,9.546C4.815,32.468,9.239,36,14.497,36
			c6.352,0,11.5-5.148,11.503-11.5V7C26,5.343,24.657,4,23,4z"/>
	</g>
</g>
<g>
</g>
<g>
</g>
<g>
</g>
<g>
</g>
<g>
</g>
<g>
</g>
<g>
</g>
<g>
</g>
<g>
</g>
<g>
</g>
<g>
</g>
<g>
</g>
<g>
</g>
<g>
</g>
<g>
</g>
</svg>
