<?xml version="1.0" encoding="iso-8859-1"?>
<!-- Generator: Adobe Illustrator 16.0.4, SVG Export Plug-In . SVG Version: 6.00 Build 0)  -->
<!DOCTYPE svg PUBLIC "-//W3C//DTD SVG 1.1//EN" "http://www.w3.org/Graphics/SVG/1.1/DTD/svg11.dtd">
<svg version="1.1" id="Layer_1" xmlns="http://www.w3.org/2000/svg" xmlns:xlink="http://www.w3.org/1999/xlink" x="0px" y="0px"
	 width="32.004px" height="44px" viewBox="0 0 32.004 44" style="enable-background:new 0 0 32.004 44;" xml:space="preserve">
<g id="_x31_118-two-fingers_x40_2x.png">
	<g>
		<path d="M26.986,13.854c0.002,0.049,0.015,0.096,0.015,0.146C27.001,13.846,26.995,13.812,26.986,13.854z M32.001,18
			c0-1.657-1.343-3-3-3c-0.858,0-1.627,0.366-2.173,0.945c0,0,0.116-1.895,0.158-2.091C26.909,12.267,25.608,11,24.001,11
			c-1.034,0-1.931,0.532-2.466,1.329L22.001,3c0-1.657-1.343-3-3-3c-1.491,0-2.719,1.091-2.951,2.516l-0.012-0.001l-1.466,13.259
			l-2.748-9.805L11.802,5.98c-0.416-1.157-1.51-1.988-2.807-1.988C7.341,3.992,6,5.336,6,6.994c0,0.14,0.022,0.272,0.041,0.407
			L6.028,7.403l2.26,15.703L5.5,18.358c0,0-0.755-1.366-2.505-1.366C1.341,16.992,0,18.336,0,19.994
			c0,0.217,0.025,0.428,0.069,0.632l-0.017,0.003l4.594,14.438l0.001-0.001C6.355,40.252,11.235,44,17,44
			c6.802,0,12.377-5.218,12.95-11.864l0.041,0.006l1.921-13.445C32.029,18.201,32.001,17.984,32.001,18z"/>
	</g>
</g>
<g>
</g>
<g>
</g>
<g>
</g>
<g>
</g>
<g>
</g>
<g>
</g>
<g>
</g>
<g>
</g>
<g>
</g>
<g>
</g>
<g>
</g>
<g>
</g>
<g>
</g>
<g>
</g>
<g>
</g>
</svg>
