<?xml version="1.0" encoding="iso-8859-1"?>
<!-- Generator: Adobe Illustrator 16.0.4, SVG Export Plug-In . SVG Version: 6.00 Build 0)  -->
<!DOCTYPE svg PUBLIC "-//W3C//DTD SVG 1.1//EN" "http://www.w3.org/Graphics/SVG/1.1/DTD/svg11.dtd">
<svg version="1.1" id="Layer_1" xmlns="http://www.w3.org/2000/svg" xmlns:xlink="http://www.w3.org/1999/xlink" x="0px" y="0px"
	 width="36.018px" height="44px" viewBox="0 0 36.018 44" style="enable-background:new 0 0 36.018 44;" xml:space="preserve">
<g id="_x31_119-fingers-spread-left_x40_2x.png">
	<g>
		<path d="M36.018,20.002c0-1.657-1.348-3.002-3.009-3.002c-2.029,0-2.638,1.521-2.621,1.542L27.2,23.986L28.008,7h-0.001
			c0-0.002,0.001-0.004,0.001-0.006c0-1.658-1.345-3.002-3.003-3.002c-2.57,0-2.987,2.679-2.987,2.679l-0.893,6.332l-1.109-9.987
			c0-0.005,0.001-0.009,0.001-0.014C20.017,1.345,18.67,0,17.009,0C15.347,0,14,1.345,14,3.002C14,3,14.008,14.384,14.008,14.384
			l-2.005-8.521C11.929,4.271,10.622,3,9.009,3C7.347,3,6,4.345,6,6.002c0,0.269,0.047,0.523,0.112,0.771l1.793,11.949l-2.26-5.136
			C5.138,12.646,4.153,12,3.009,12C1.347,12,0,13.344,0,15.002c0,0.444,0.103,0.863,0.276,1.242l6.493,19.08
			C8.551,40.375,13.354,44,19.014,44c5.829,0,10.762-3.837,12.409-9.122l4.472-14.03l-0.012-0.004
			C35.961,20.575,36.018,20.297,36.018,20.002z"/>
	</g>
</g>
<g>
</g>
<g>
</g>
<g>
</g>
<g>
</g>
<g>
</g>
<g>
</g>
<g>
</g>
<g>
</g>
<g>
</g>
<g>
</g>
<g>
</g>
<g>
</g>
<g>
</g>
<g>
</g>
<g>
</g>
</svg>
