<?xml version="1.0" encoding="iso-8859-1"?>
<!-- Generator: Adobe Illustrator 16.0.4, SVG Export Plug-In . SVG Version: 6.00 Build 0)  -->
<!DOCTYPE svg PUBLIC "-//W3C//DTD SVG 1.1//EN" "http://www.w3.org/Graphics/SVG/1.1/DTD/svg11.dtd">
<svg version="1.1" id="Layer_1" xmlns="http://www.w3.org/2000/svg" xmlns:xlink="http://www.w3.org/1999/xlink" x="0px" y="0px"
	 width="36.017px" height="44px" viewBox="0 0 36.017 44" style="enable-background:new 0 0 36.017 44;" xml:space="preserve">
<g id="_x31_120-fingers-spread-right_x40_2x.png">
	<g>
		<path d="M33.008,12c-1.145,0-2.129,0.646-2.637,1.586l-2.26,5.136l1.793-11.949c0.065-0.247,0.112-0.502,0.112-0.771
			C30.017,4.345,28.67,3,27.008,3c-1.613,0-2.92,1.271-2.994,2.863l-2.005,8.521c0,0,0.008-11.384,0.008-11.382
			C22.017,1.345,20.67,0,19.008,0C17.347,0,16,1.345,16,3.002c0,0.005,0.001,0.009,0.001,0.014l-1.109,9.987l-0.893-6.332
			c0,0-0.417-2.679-2.987-2.679c-1.658,0-3.003,1.344-3.003,3.002C8.009,6.996,8.01,6.998,8.01,7H8.009l0.808,16.986l-3.188-5.444
			C5.646,18.521,5.037,17,3.008,17C1.347,17,0,18.345,0,20.002c0,0.295,0.056,0.573,0.134,0.842l-0.012,0.004l4.472,14.03
			C6.241,40.163,11.174,44,17.003,44c5.66,0,10.463-3.625,12.244-8.676l6.493-19.08c0.174-0.379,0.276-0.798,0.276-1.242
			C36.017,13.344,34.67,12,33.008,12z"/>
	</g>
</g>
<g>
</g>
<g>
</g>
<g>
</g>
<g>
</g>
<g>
</g>
<g>
</g>
<g>
</g>
<g>
</g>
<g>
</g>
<g>
</g>
<g>
</g>
<g>
</g>
<g>
</g>
<g>
</g>
<g>
</g>
</svg>
