<?xml version="1.0" encoding="iso-8859-1"?>
<!-- Generator: Adobe Illustrator 16.0.4, SVG Export Plug-In . SVG Version: 6.00 Build 0)  -->
<!DOCTYPE svg PUBLIC "-//W3C//DTD SVG 1.1//EN" "http://www.w3.org/Graphics/SVG/1.1/DTD/svg11.dtd">
<svg version="1.1" id="Layer_1" xmlns="http://www.w3.org/2000/svg" xmlns:xlink="http://www.w3.org/1999/xlink" x="0px" y="0px"
	 width="36px" height="44px" viewBox="0 0 36 44" style="enable-background:new 0 0 36 44;" xml:space="preserve">
<g id="_x31_121-dress-shirt_x40_2x.png">
	<g>
		<path d="M25.549,2.015C24.461,0.843,21.497,0,18,0s-6.461,0.843-7.549,2.015C6.545,2.167,0,3.961,0,10v27v1.5
			C0,39.328,0.671,40,1.5,40H3h3V15c0-0.552,0.448-1,1-1s1,0.448,1,1v25v1v1.5C8,43.328,8.672,44,9.5,44H11h14h1.5
			c0.829,0,1.5-0.672,1.5-1.5V41V15c0-0.552,0.448-1,1-1s1,0.448,1,1v25h3h1.5c0.829,0,1.5-0.672,1.5-1.5V37V10
			C36,3.961,29.455,2.167,25.549,2.015z M18,38c-0.552,0-1-0.447-1-1s0.448-1,1-1s1,0.447,1,1S18.552,38,18,38z M18,32
			c-0.552,0-1-0.447-1-1c0-0.552,0.448-1,1-1s1,0.448,1,1C19,31.553,18.552,32,18,32z M18,26c-0.552,0-1-0.447-1-1s0.448-1,1-1
			s1,0.447,1,1S18.552,26,18,26z M18,20c-0.552,0-1-0.447-1-1c0-0.552,0.448-1,1-1s1,0.448,1,1C19,19.553,18.552,20,18,20z M18,14
			c-0.552,0-1-0.447-1-1c0-0.552,0.448-1,1-1s1,0.448,1,1C19,13.553,18.552,14,18,14z M21.701,7.732l-3.253-1.627l-0.004,0.01
			C18.308,6.047,18.161,6,18,6s-0.308,0.047-0.443,0.115l-0.004-0.01l-3.253,1.627L12.317,5.09C13.769,5.646,15.763,6,18,6
			s4.231-0.354,5.683-0.91L21.701,7.732z M18,4c-3.319,0-6.009-0.447-6.009-1c0-0.552,2.69-1,6.009-1s6.009,0.448,6.009,1
			C24.009,3.553,21.319,4,18,4z"/>
	</g>
</g>
<g>
</g>
<g>
</g>
<g>
</g>
<g>
</g>
<g>
</g>
<g>
</g>
<g>
</g>
<g>
</g>
<g>
</g>
<g>
</g>
<g>
</g>
<g>
</g>
<g>
</g>
<g>
</g>
<g>
</g>
</svg>
