<?xml version="1.0" encoding="iso-8859-1"?>
<!-- Generator: Adobe Illustrator 16.0.4, SVG Export Plug-In . SVG Version: 6.00 Build 0)  -->
<!DOCTYPE svg PUBLIC "-//W3C//DTD SVG 1.1//EN" "http://www.w3.org/Graphics/SVG/1.1/DTD/svg11.dtd">
<svg version="1.1" id="Layer_1" xmlns="http://www.w3.org/2000/svg" xmlns:xlink="http://www.w3.org/1999/xlink" x="0px" y="0px"
	 width="36px" height="44px" viewBox="0 0 36 44" style="enable-background:new 0 0 36 44;" xml:space="preserve">
<g id="_x31_122-suit_x40_2x.png">
	<g>
		<path d="M25.275,2.008l-2.565-1.71c-0.093-0.095-0.206-0.17-0.331-0.222l-0.007-0.005L22.37,0.075C22.255,0.028,22.131,0,22,0h0
			H14c0,0,0,0,0,0c-0.131,0-0.255,0.028-0.37,0.075l-0.001-0.004l-0.007,0.005c-0.125,0.052-0.238,0.127-0.332,0.222l-2.565,1.71
			C6.861,2.084,0,3.816,0,10v27v1.5C0,39.328,0.671,40,1.5,40H3h3V20c0-0.552,0.448-1,1-1s1,0.448,1,1v20v1v1.5
			C8,43.328,8.671,44,9.5,44H11h6V31.414l0.293,0.293C17.474,31.888,17.724,32,18,32c0.276,0,0.526-0.112,0.707-0.293L19,31.414V44
			h6h1.5c0.829,0,1.5-0.672,1.5-1.5V41V20c0-0.552,0.448-1,1-1s1,0.448,1,1v20h3h1.5c0.829,0,1.5-0.672,1.5-1.5V37V10
			C36,3.816,29.139,2.084,25.275,2.008z M12,3.51L14.264,2h7.472L24,3.51v1.149l-2.093,2.093l-3.075-2.307l-0.015,0.011
			C18.638,4.188,18.347,4,18,4s-0.637,0.188-0.817,0.456l-0.015-0.011l-3.062,2.297L12,4.636V3.51z M19,8c0,0.553-0.448,1-1,1
			s-1-0.447-1-1s0.448-1,1-1S19,7.447,19,8z M14.587,22.657L7.2,9.113l2.977-3.572l0.014,0.014c0.069,0.102,0.153,0.186,0.255,0.255
			l1.058,1.058l3.425,12.724L14.587,22.657z M18,28.913l-1.741-3.191l1.637-14.732C17.932,10.991,17.964,11,18,11
			s0.068-0.009,0.104-0.011l1.637,14.732L18,28.913z M21.413,22.657l-0.341-3.066l3.434-12.755l0.963-0.964
			c0.141-0.081,0.261-0.196,0.352-0.334L28.8,9.113L21.413,22.657z"/>
	</g>
</g>
<g>
</g>
<g>
</g>
<g>
</g>
<g>
</g>
<g>
</g>
<g>
</g>
<g>
</g>
<g>
</g>
<g>
</g>
<g>
</g>
<g>
</g>
<g>
</g>
<g>
</g>
<g>
</g>
<g>
</g>
</svg>
