<?xml version="1.0" encoding="iso-8859-1"?>
<!-- Generator: Adobe Illustrator 16.0.4, SVG Export Plug-In . SVG Version: 6.00 Build 0)  -->
<!DOCTYPE svg PUBLIC "-//W3C//DTD SVG 1.1//EN" "http://www.w3.org/Graphics/SVG/1.1/DTD/svg11.dtd">
<svg version="1.1" id="Layer_1" xmlns="http://www.w3.org/2000/svg" xmlns:xlink="http://www.w3.org/1999/xlink" x="0px" y="0px"
	 width="36px" height="44px" viewBox="0 0 36 44" style="enable-background:new 0 0 36 44;" xml:space="preserve">
<g id="_x31_123-jacket_x40_2x.png">
	<g>
		<path d="M25.275,2.008l-2.565-1.71c-0.093-0.095-0.206-0.17-0.331-0.222l-0.007-0.005L22.37,0.075C22.255,0.028,22.131,0,22,0h0
			H14h0c-0.131,0-0.255,0.028-0.37,0.075l-0.001-0.004l-0.007,0.005c-0.125,0.052-0.238,0.127-0.332,0.222l-2.565,1.71
			C6.861,2.084,0,3.816,0,10v27v1.5C0,39.328,0.671,40,1.5,40H3h3V17c0-0.552,0.448-1,1-1s1,0.448,1,1v23v1v1.5
			C8,43.328,8.672,44,9.5,44H11h4c0.552,0,1-0.447,1-1v-1h4v1c0,0.553,0.448,1,1,1h4h1.5c0.829,0,1.5-0.672,1.5-1.5V41V17
			c0-0.552,0.448-1,1-1s1,0.448,1,1v23h3h1.5c0.829,0,1.5-0.672,1.5-1.5V37V10C36,3.816,29.139,2.084,25.275,2.008z M20,40h-4V7.679
			l2-1.5l2,1.5V40z M18.832,4.445l-0.015,0.011C18.638,4.188,18.347,4,18,4s-0.637,0.188-0.817,0.456l-0.015-0.011l-3.062,2.297
			L12,4.636V3.51L14.264,2h7.472L24,3.51v1.149l-2.093,2.093L18.832,4.445z M27,14h-2c-0.552,0-1-0.447-1-1c0-0.552,0.448-1,1-1h2
			c0.552,0,1,0.448,1,1C28,13.553,27.552,14,27,14z"/>
	</g>
</g>
<g>
</g>
<g>
</g>
<g>
</g>
<g>
</g>
<g>
</g>
<g>
</g>
<g>
</g>
<g>
</g>
<g>
</g>
<g>
</g>
<g>
</g>
<g>
</g>
<g>
</g>
<g>
</g>
<g>
</g>
</svg>
