<?xml version="1.0" encoding="iso-8859-1"?>
<!-- Generator: Adobe Illustrator 16.0.4, SVG Export Plug-In . SVG Version: 6.00 Build 0)  -->
<!DOCTYPE svg PUBLIC "-//W3C//DTD SVG 1.1//EN" "http://www.w3.org/Graphics/SVG/1.1/DTD/svg11.dtd">
<svg version="1.1" id="Layer_1" xmlns="http://www.w3.org/2000/svg" xmlns:xlink="http://www.w3.org/1999/xlink" x="0px" y="0px"
	 width="28px" height="44px" viewBox="0 0 28 44" style="enable-background:new 0 0 28 44;" xml:space="preserve">
<g id="_x31_124-pants_x40_2x.png">
	<g>
		<path d="M18.059,6H9.941C9.443,10.499,5.632,14,1,14c-0.338,0-0.671-0.022-1-0.059V41v1c0,1.104,0.896,2,2,2h1h7
			c0.484,0,0.869-0.351,0.961-0.808l0.019,0.004L14,22.061l3.02,21.136l0.02-0.004C17.131,43.649,17.516,44,18,44h7h1
			c1.104,0,2-0.896,2-2v-1V13.941C27.671,13.978,27.338,14,27,14C22.368,14,18.557,10.499,18.059,6z M7.92,6H0v5.899
			C0.33,11.946,0.657,12,1,12C4.525,12,7.434,9.391,7.92,6z M27,12c0.343,0,0.67-0.054,1-0.101V6h-7.92
			C20.566,9.391,23.475,12,27,12z M26,0h-1H3H2C0.896,0,0,0.896,0,2v1v1h28V3V2C28,0.896,27.104,0,26,0z"/>
	</g>
</g>
<g>
</g>
<g>
</g>
<g>
</g>
<g>
</g>
<g>
</g>
<g>
</g>
<g>
</g>
<g>
</g>
<g>
</g>
<g>
</g>
<g>
</g>
<g>
</g>
<g>
</g>
<g>
</g>
<g>
</g>
</svg>
