<?xml version="1.0" encoding="iso-8859-1"?>
<!-- Generator: Adobe Illustrator 16.0.4, SVG Export Plug-In . SVG Version: 6.00 Build 0)  -->
<!DOCTYPE svg PUBLIC "-//W3C//DTD SVG 1.1//EN" "http://www.w3.org/Graphics/SVG/1.1/DTD/svg11.dtd">
<svg version="1.1" id="Layer_1" xmlns="http://www.w3.org/2000/svg" xmlns:xlink="http://www.w3.org/1999/xlink" x="0px" y="0px"
	 width="36px" height="36px" viewBox="0 0 36 36" style="enable-background:new 0 0 36 36;" xml:space="preserve">
<g id="_x31_125-shorts_x40_2x.png">
	<g>
		<path d="M9.941,6H0v7.941C0.329,13.978,0.662,14,1,14C5.632,14,9.443,10.499,9.941,6z M34,0H2C0.896,0,0,0.896,0,2v2h36V2
			C36,0.896,35.104,0,34,0z M24.051,6H11.95C11.979,5.67,12,5.338,12,5c0,6.075-4.925,11-11,11c-0.337,0-0.67-0.021-1-0.051V34
			c0,1.104,0.896,2,2,2h12c0.484,0,0.869-0.351,0.961-0.808l0.019,0.004L18,20.099l3.02,15.098l0.02-0.004
			C21.131,35.649,21.516,36,22,36h12c1.104,0,2-0.896,2-2V15.949C35.67,15.979,35.337,16,35,16C29.263,16,24.557,11.605,24.051,6z
			 M35,14c0.338,0,0.671-0.022,1-0.059V6h-9.941C26.557,10.499,30.368,14,35,14z"/>
	</g>
</g>
<g>
</g>
<g>
</g>
<g>
</g>
<g>
</g>
<g>
</g>
<g>
</g>
<g>
</g>
<g>
</g>
<g>
</g>
<g>
</g>
<g>
</g>
<g>
</g>
<g>
</g>
<g>
</g>
<g>
</g>
</svg>
