<?xml version="1.0" encoding="iso-8859-1"?>
<!-- Generator: Adobe Illustrator 16.0.4, SVG Export Plug-In . SVG Version: 6.00 Build 0)  -->
<!DOCTYPE svg PUBLIC "-//W3C//DTD SVG 1.1//EN" "http://www.w3.org/Graphics/SVG/1.1/DTD/svg11.dtd">
<svg version="1.1" id="Layer_1" xmlns="http://www.w3.org/2000/svg" xmlns:xlink="http://www.w3.org/1999/xlink" x="0px" y="0px"
	 width="43.971px" height="21.998px" viewBox="0 0 43.971 21.998" style="enable-background:new 0 0 43.971 21.998;"
	 xml:space="preserve">
<g id="_x31_126-bowtie_x40_2x.png">
	<g>
		<path d="M40.674,0.351C40.528,0.134,40.288,0,40.026,0c-0.025,0-0.051,0.001-0.076,0.004c-0.371,0.03-8.512,0.755-13.597,4.736
			c-1.198-1.096-2.715-1.755-4.368-1.755s-3.17,0.659-4.368,1.755C12.532,0.759,4.392,0.034,4.021,0.004C3.995,0.001,3.97,0,3.944,0
			C3.683,0,3.442,0.134,3.297,0.351C3.162,0.552,0,5.327,0,10.999s3.162,10.449,3.297,10.649c0.142,0.21,0.376,0.34,0.63,0.349
			c0.01,0.001,0.056,0.001,0.065,0.001c0.389,0,8.899-0.065,13.745-4.638c1.179,1.032,2.648,1.652,4.248,1.652
			s3.069-0.62,4.249-1.652c4.845,4.572,13.355,4.638,13.744,4.638c0.01,0,0.056,0,0.065-0.001c0.254-0.009,0.488-0.139,0.63-0.349
			c0.135-0.2,3.297-4.978,3.297-10.649S40.809,0.552,40.674,0.351z M12.416,14.915c-3.096,1.493-6.146,2.074-6.274,2.098
			c-0.549,0.105-1.069-0.259-1.171-0.806s0.258-1.073,0.803-1.176c0.029-0.005,2.926-0.561,5.773-1.934
			c0.14-0.067,0.288-0.099,0.434-0.099c0.374,0,0.733,0.21,0.906,0.571C13.126,14.072,12.916,14.674,12.416,14.915z M12.887,8.428
			C12.714,8.789,12.354,9,11.98,9c-0.146,0-0.294-0.032-0.434-0.1C8.699,7.527,5.803,6.972,5.773,6.967
			C5.229,6.864,4.869,6.338,4.971,5.791S5.593,4.88,6.142,4.985C6.271,5.009,9.32,5.59,12.416,7.083
			C12.916,7.324,13.126,7.927,12.887,8.428z M37.829,17.013c-0.129-0.023-3.179-0.604-6.274-2.098c-0.5-0.241-0.71-0.843-0.47-1.345
			c0.172-0.361,0.531-0.571,0.905-0.571c0.146,0,0.294,0.031,0.434,0.099c2.848,1.373,5.744,1.929,5.773,1.934
			c0.545,0.103,0.904,0.629,0.803,1.176S38.378,17.118,37.829,17.013z M38.197,6.967c-0.029,0.005-2.926,0.561-5.773,1.934
			C32.284,8.968,32.136,9,31.99,9c-0.374,0-0.733-0.211-0.905-0.572c-0.24-0.501-0.03-1.104,0.47-1.345
			C34.65,5.59,37.7,5.009,37.829,4.985C38.378,4.88,38.898,5.244,39,5.791S38.742,6.864,38.197,6.967z"/>
	</g>
</g>
<g>
</g>
<g>
</g>
<g>
</g>
<g>
</g>
<g>
</g>
<g>
</g>
<g>
</g>
<g>
</g>
<g>
</g>
<g>
</g>
<g>
</g>
<g>
</g>
<g>
</g>
<g>
</g>
<g>
</g>
</svg>
