<?xml version="1.0" encoding="iso-8859-1"?>
<!-- Generator: Adobe Illustrator 16.0.4, SVG Export Plug-In . SVG Version: 6.00 Build 0)  -->
<!DOCTYPE svg PUBLIC "-//W3C//DTD SVG 1.1//EN" "http://www.w3.org/Graphics/SVG/1.1/DTD/svg11.dtd">
<svg version="1.1" id="Layer_1" xmlns="http://www.w3.org/2000/svg" xmlns:xlink="http://www.w3.org/1999/xlink" x="0px" y="0px"
	 width="36px" height="44px" viewBox="0 0 36 44" style="enable-background:new 0 0 36 44;" xml:space="preserve">
<g id="_x31_127-purse_x40_2x.png">
	<g>
		<path d="M14.062,29.525C14.277,28.651,15.06,28,16,28h4c0.94,0,1.723,0.651,1.938,1.525c5.862-1.401,9.535-5.71,11.459-8.744
			c-0.154-0.636-0.291-1.112-0.396-1.328C32.589,18.611,31.952,18,31.089,18c-0.71,0-1.573,0.414-2.589,1.453
			c-0.15,0.154-0.32,0.298-0.503,0.434C27.967,8.894,23.504,0,18,0S8.033,8.894,8.003,19.887C7.82,19.751,7.65,19.607,7.5,19.453
			C6.484,18.414,5.621,18,4.911,18c-0.862,0-1.5,0.611-1.911,1.453c-0.105,0.216-0.242,0.692-0.396,1.328
			C4.527,23.815,8.2,28.124,14.062,29.525z M18,6c2.209,0,4,6.268,4,14c0,0.604-0.024,1.187-0.047,1.77
			c-1.594,0.187-3.066,0.227-3.953,0.227s-2.359-0.04-3.953-0.227C14.025,21.187,14,20.604,14,20C14,12.268,15.791,6,18,6z
			 M33.963,23.449c-2.368,3.183-6.249,6.867-11.963,8.1V32c0,1.104-0.896,2-2,2h-4c-1.104,0-2-0.896-2-2v-0.451
			c-5.714-1.232-9.595-4.917-11.962-8.1C1.115,28.224,0,35.698,0,37.86c0,0,0,6.14,6,6.14s18,0,24,0s6-6.14,6-6.14
			C36,35.698,34.885,28.224,33.963,23.449z M16,32h4v-2h-4V32z"/>
	</g>
</g>
<g>
</g>
<g>
</g>
<g>
</g>
<g>
</g>
<g>
</g>
<g>
</g>
<g>
</g>
<g>
</g>
<g>
</g>
<g>
</g>
<g>
</g>
<g>
</g>
<g>
</g>
<g>
</g>
<g>
</g>
</svg>
