<?xml version="1.0" encoding="iso-8859-1"?>
<!-- Generator: Adobe Illustrator 16.0.4, SVG Export Plug-In . SVG Version: 6.00 Build 0)  -->
<!DOCTYPE svg PUBLIC "-//W3C//DTD SVG 1.1//EN" "http://www.w3.org/Graphics/SVG/1.1/DTD/svg11.dtd">
<svg version="1.1" id="Layer_1" xmlns="http://www.w3.org/2000/svg" xmlns:xlink="http://www.w3.org/1999/xlink" x="0px" y="0px"
	 width="27.994px" height="44.003px" viewBox="0 0 27.994 44.003" style="enable-background:new 0 0 27.994 44.003;"
	 xml:space="preserve">
<g id="_x31_130-dress_x40_2x.png">
	<g>
		<path d="M0.851,32.568c2.471,2.244,7.036,5.422,13.131,5.422c0.006,0,0.011,0.003,0.016,0.003c0.006,0,0.01-0.003,0.016-0.003
			c6.091,0,10.654-3.174,13.126-5.418c-2.239-13.016-5.413-16.214-5.93-16.656c-0.25-0.264-2.458-2.888-1.263-5.35
			c1.594-3.283,1.982-9.541,1.975-9.806c-0.009-0.289-0.171-0.55-0.423-0.679C21.391,0.026,21.273,0,21.157,0
			c-0.154,0-0.309,0.048-0.439,0.144l-6.721,4.859L7.222,0.144C7.091,0.048,6.938,0,6.784,0C6.669,0,6.553,0.026,6.446,0.082
			c-0.25,0.129-0.411,0.39-0.42,0.679c-0.008,0.265,0.382,6.522,1.965,9.806c1.188,2.462-1.005,5.086-1.253,5.35
			C6.226,16.358,3.074,19.556,0.851,32.568z M27.515,34.917c-2.853,2.347-7.455,5.07-13.502,5.07c-0.006,0-0.01-0.003-0.016-0.003
			c-0.005,0-0.01,0.003-0.016,0.003c-6.049,0-10.652-2.726-13.504-5.073c-0.164,1.105-0.323,2.259-0.472,3.491
			c-0.017,0.134,0.001,0.269,0.05,0.393c0.081,0.208,2.869,4.994,13.941,5.205c11.069-0.234,13.859-4.997,13.941-5.205
			c0.049-0.124,0.066-0.259,0.05-0.393C27.839,37.174,27.679,36.021,27.515,34.917z"/>
	</g>
</g>
<g>
</g>
<g>
</g>
<g>
</g>
<g>
</g>
<g>
</g>
<g>
</g>
<g>
</g>
<g>
</g>
<g>
</g>
<g>
</g>
<g>
</g>
<g>
</g>
<g>
</g>
<g>
</g>
<g>
</g>
</svg>
