<?xml version="1.0" encoding="iso-8859-1"?>
<!-- Generator: Adobe Illustrator 16.0.4, SVG Export Plug-In . SVG Version: 6.00 Build 0)  -->
<!DOCTYPE svg PUBLIC "-//W3C//DTD SVG 1.1//EN" "http://www.w3.org/Graphics/SVG/1.1/DTD/svg11.dtd">
<svg version="1.1" id="Layer_1" xmlns="http://www.w3.org/2000/svg" xmlns:xlink="http://www.w3.org/1999/xlink" x="0px" y="0px"
	 width="40px" height="44px" viewBox="0 0 40 44" style="enable-background:new 0 0 40 44;" xml:space="preserve">
<g id="_x31_131-skirt-1_x40_2x.png">
	<g>
		<path d="M3.758,9.434L0,37c0,1.657,2.239,3,5,3c0.677,0,1.307-0.099,1.895-0.247L10.33,11.31
			C7.387,10.825,5.269,10.143,3.758,9.434z M36.242,9.434c-1.512,0.71-3.642,1.392-6.594,1.874l3.464,28.446
			C33.697,39.901,34.325,40,35,40c2.761,0,5-1.343,5-3L36.242,9.434z M35.888,3.359C35.005,0.859,28.875,0,20,0
			S4.995,0.859,4.112,3.359C6.424,4.585,11.032,5.996,20,5.997C28.968,5.996,33.576,4.585,35.888,3.359z M36,7.299V5.543
			c-2.854,1.28-7.72,2.454-15.993,2.455c0,0,0,0,0,0c-0.002,0-0.004,0-0.006,0c-0.002,0-0.004,0-0.006,0c0,0,0,0,0,0
			C11.72,7.997,6.854,6.823,4,5.543v1.756c2.274,1.238,6.882,2.697,16,2.698C29.117,9.996,33.726,8.538,36,7.299z M8.728,41.253
			C9.604,41.714,10.741,42,12,42c1.133,0,2.157-0.24,2.991-0.624l0.969-29.482c-1.32-0.071-2.536-0.175-3.649-0.307L8.728,41.253z
			 M24.023,11.894l0.967,29.475C25.827,41.757,26.859,42,28,42c1.262,0,2.402-0.287,3.279-0.751l-3.612-29.667
			C26.549,11.714,25.35,11.823,24.023,11.894z M20.007,11.998C20.007,11.998,20.007,11.998,20.007,11.998c-0.002,0-0.004,0-0.007,0
			c-0.002,0-0.004,0-0.006,0c0,0,0,0,0,0c-0.705,0-1.379-0.01-2.035-0.026l-1.031,31.375C17.773,43.75,18.832,44,20,44
			c1.16,0,2.211-0.246,3.054-0.646l-1.03-31.384C21.373,11.987,20.707,11.998,20.007,11.998z"/>
	</g>
</g>
<g>
</g>
<g>
</g>
<g>
</g>
<g>
</g>
<g>
</g>
<g>
</g>
<g>
</g>
<g>
</g>
<g>
</g>
<g>
</g>
<g>
</g>
<g>
</g>
<g>
</g>
<g>
</g>
<g>
</g>
</svg>
