<?xml version="1.0" encoding="iso-8859-1"?>
<!-- Generator: Adobe Illustrator 16.0.4, SVG Export Plug-In . SVG Version: 6.00 Build 0)  -->
<!DOCTYPE svg PUBLIC "-//W3C//DTD SVG 1.1//EN" "http://www.w3.org/Graphics/SVG/1.1/DTD/svg11.dtd">
<svg version="1.1" id="Layer_1" xmlns="http://www.w3.org/2000/svg" xmlns:xlink="http://www.w3.org/1999/xlink" x="0px" y="0px"
	 width="43.997px" height="40px" viewBox="0 0 43.997 40" style="enable-background:new 0 0 43.997 40;" xml:space="preserve">
<g id="_x31_132-skirt-2_x40_2x.png">
	<g>
		<path d="M35.998,4.382V2c0-1.274-0.698-2-2-2c-3.785,0-6,2-11.999,2s-8.213-2-11.998-2c-1.302,0-2,0.726-2,2v2.383
			C11.348,5.163,16.259,6,21.997,6C27.738,6,32.651,5.163,35.998,4.382z M35.997,11c0.653,0,1.271-0.131,1.859-0.323
			c-0.535-1.674-1.023-3.167-1.411-4.336c-1.636,0.383-3.64,0.772-5.918,1.079C31.459,9.523,33.548,11,35.997,11z M13.496,7.424
			c-2.277-0.306-4.28-0.694-5.917-1.076C7.208,7.519,6.73,9.012,6.201,10.687C6.78,10.873,7.387,11,8.028,11
			C10.476,11,12.563,9.525,13.496,7.424z M38.469,12.606C37.69,12.859,36.86,13,35.997,13c-3.481,0-6.425-2.23-7.525-5.335
			C26.476,7.869,24.308,8,21.998,8h0c-2.299,0-4.457-0.129-6.445-0.332C14.452,10.771,11.508,13,8.028,13
			c-0.85,0-1.668-0.135-2.437-0.381C3.149,20.401-0.002,30.941,0,34.615C0.002,39.23,18.857,40,22,40
			c3.143,0,21.998-0.77,21.998-5.385C43.997,30.939,40.918,20.39,38.469,12.606z M11.978,16.196l-3,15l-0.019-0.004
			C8.866,31.649,8.481,32,7.997,32c-0.552,0-1-0.447-1-1c0-0.068,0.026-0.128,0.039-0.192l-0.02-0.004l3-15l0.02,0.004
			C10.128,15.351,10.513,15,10.997,15c0.552,0,1,0.448,1,1c0,0.068-0.026,0.128-0.039,0.192L11.978,16.196z M17.992,13.1l-2,20
			l-0.015-0.002C15.926,33.602,15.515,34,14.997,34c-0.552,0-1-0.447-1-1c0-0.034,0.017-0.064,0.02-0.098L14.002,32.9l2-20
			l0.015,0.002C16.068,12.398,16.479,12,16.997,12c0.552,0,1,0.448,1,1c0,0.035-0.016,0.064-0.02,0.098L17.992,13.1z M22.997,33
			c0,0.553-0.448,1-1,1s-1-0.447-1-1V11c0-0.552,0.448-1,1-1s1,0.448,1,1V33z M28.997,34c-0.518,0-0.929-0.398-0.98-0.902
			L28.002,33.1l-2-20l0.015-0.002c-0.003-0.033-0.02-0.062-0.02-0.098c0-0.552,0.448-1,1-1c0.518,0,0.929,0.398,0.98,0.902
			l0.015-0.002l2,20l-0.015,0.002c0.003,0.033,0.02,0.063,0.02,0.098C29.997,33.553,29.549,34,28.997,34z M35.997,32
			c-0.484,0-0.869-0.351-0.961-0.808l-0.019,0.004l-3-15l0.019-0.004c-0.013-0.064-0.039-0.124-0.039-0.192c0-0.552,0.448-1,1-1
			c0.484,0,0.869,0.351,0.961,0.808l0.019-0.004l3,15l-0.019,0.004c0.013,0.064,0.039,0.124,0.039,0.192
			C36.997,31.553,36.549,32,35.997,32z"/>
	</g>
</g>
<g>
</g>
<g>
</g>
<g>
</g>
<g>
</g>
<g>
</g>
<g>
</g>
<g>
</g>
<g>
</g>
<g>
</g>
<g>
</g>
<g>
</g>
<g>
</g>
<g>
</g>
<g>
</g>
<g>
</g>
</svg>
