<?xml version="1.0" encoding="iso-8859-1"?>
<!-- Generator: Adobe Illustrator 16.0.4, SVG Export Plug-In . SVG Version: 6.00 Build 0)  -->
<!DOCTYPE svg PUBLIC "-//W3C//DTD SVG 1.1//EN" "http://www.w3.org/Graphics/SVG/1.1/DTD/svg11.dtd">
<svg version="1.1" id="Layer_1" xmlns="http://www.w3.org/2000/svg" xmlns:xlink="http://www.w3.org/1999/xlink" x="0px" y="0px"
	 width="44px" height="36.003px" viewBox="0 0 44 36.003" style="enable-background:new 0 0 44 36.003;" xml:space="preserve">
<g id="_x31_133-tophat_x40_2x.png">
	<g>
		<path d="M36.536,20.278l-0.525,5.702c0.001,0.006,0.003,0.012,0.003,0.018c0,0.018-0.009,0.036-0.01,0.054l-0.003,0.032
			l-0.003,0.003c-0.168,2.166-6.364,3.908-13.999,3.908c-7.619,0-13.804-1.735-13.996-3.896L8,26.097l-0.003-0.04
			c-0.001-0.021-0.011-0.039-0.011-0.059c0-0.007,0.002-0.013,0.003-0.02l-0.521-5.702C2.908,21.924,0,24.318,0,27.003
			c0,4.971,9.85,9,22,9s22-4.029,22-9C44,24.319,41.093,21.926,36.536,20.278z M6.004,4.094l1.445,15.889
			c0,0.006-0.004,0.011-0.004,0.017c0,0.013,0.008,0.024,0.009,0.037l0.02,0.216c0.002,0.001,0.03,0.014,0.038,0.018
			c0.664,1.528,6.878,2.728,14.489,2.728c7.647,0,13.88-1.21,14.495-2.749c0.007-0.003,0.031-0.015,0.034-0.016l0.018-0.196
			c0.001-0.013,0.009-0.024,0.009-0.037c0-0.006-0.004-0.012-0.004-0.018l1.444-15.888l-0.014-0.001C37.985,4.062,38,4.032,38,4.002
			C38,1.792,30.836,0,22,0S6,1.792,6,4.002c0,0.03,0.015,0.06,0.018,0.091L6.004,4.094z M35.997,26.088
			c0,0.001-0.005,0.004-0.006,0.005l0.006,0.001L35.997,26.088z"/>
	</g>
</g>
<g>
</g>
<g>
</g>
<g>
</g>
<g>
</g>
<g>
</g>
<g>
</g>
<g>
</g>
<g>
</g>
<g>
</g>
<g>
</g>
<g>
</g>
<g>
</g>
<g>
</g>
<g>
</g>
<g>
</g>
</svg>
