<?xml version="1.0" encoding="iso-8859-1"?>
<!-- Generator: Adobe Illustrator 16.0.4, SVG Export Plug-In . SVG Version: 6.00 Build 0)  -->
<!DOCTYPE svg PUBLIC "-//W3C//DTD SVG 1.1//EN" "http://www.w3.org/Graphics/SVG/1.1/DTD/svg11.dtd">
<svg version="1.1" id="Layer_1" xmlns="http://www.w3.org/2000/svg" xmlns:xlink="http://www.w3.org/1999/xlink" x="0px" y="0px"
	 width="40.001px" height="43.979px" viewBox="0 0 40.001 43.979" style="enable-background:new 0 0 40.001 43.979;"
	 xml:space="preserve">
<g id="_x31_134-scarf_x40_2x.png">
	<g>
		<path d="M5.337,19.481c0.348-0.445,0.701-0.886,1.07-1.319c0.002-0.002,0.004-0.004,0.005-0.007
			c1.271-1.489,2.665-2.896,4.177-4.17c0.001,0.004,0.002,0.008,0.003,0.012c0.597-0.502,1.208-0.982,1.84-1.438
			c-0.861-3.758,1.043-7.958,2.488-10.639c0.029-0.055,0.031-0.112,0.049-0.169c0.285-0.56,0.571-1.122,0.855-1.638
			c-0.789,0.088-1.517,0.237-2.216,0.416c-0.011,0.003-0.021,0.005-0.032,0.009c-6.954,1.79-9.574,7.85-9.574,13.604
			c0,2.426,0.531,4.264,1.125,5.598C5.195,19.652,5.27,19.568,5.337,19.481z M15.709,35.901c-4.48-2.042-10.861-2.19-15.386-1.671
			C0.111,35.237,0,36.166,0,36.987c0,0.197-0.002,0.293,0.014,0.343c-0.017,1.554,0.094,3.679,0.659,5.816
			c0.146,0.554,0.705,0.919,1.249,0.815c0.188-0.035,0.351-0.123,0.476-0.245c0.235-0.23,0.338-0.582,0.243-0.943
			c-0.452-1.709-0.575-3.427-0.586-4.785c0.563,0.01,1.331,0.037,2.218,0.096c0.026,1.457,0.175,3.251,0.654,5.062
			c0.146,0.554,0.705,0.919,1.249,0.815c0.188-0.035,0.35-0.123,0.475-0.245c0.235-0.23,0.339-0.582,0.243-0.943
			c-0.421-1.592-0.557-3.195-0.583-4.508c0.795,0.088,1.629,0.199,2.479,0.349c0.053,1.354,0.218,2.938,0.64,4.532
			c0.146,0.554,0.705,0.919,1.249,0.815c0.188-0.035,0.35-0.123,0.475-0.245c0.235-0.23,0.338-0.582,0.243-0.943
			c-0.339-1.283-0.494-2.578-0.556-3.722c0.777,0.193,1.545,0.41,2.268,0.681c0.092,1.075,0.265,2.244,0.574,3.414
			c0.146,0.554,0.705,0.919,1.249,0.815c0.188-0.035,0.351-0.123,0.476-0.245c0.234-0.23,0.338-0.582,0.243-0.943
			c-0.307-1.163-0.707-2.763-0.541-4.423C15.216,37.801,15.403,36.959,15.709,35.901z M15.04,7.022c-0.007,0-0.015,0-0.021,0.001
			c-0.082,0.251-0.15,0.5-0.219,0.749c-0.02,0.072-0.051,0.146-0.07,0.219c0.002,0,0.004,0,0.006,0
			c-0.098,0.373-0.183,0.743-0.247,1.108c0.985-0.157,2.167-0.184,3.43,0.092c0.175-0.131,0.323-0.272,0.483-0.409
			c0.004,0.001,0.009,0.003,0.013,0.004c0.043-0.037,0.075-0.077,0.117-0.115c0.274-0.242,0.527-0.49,0.761-0.745
			c0.067-0.072,0.138-0.142,0.202-0.214c0.034-0.04,0.076-0.077,0.109-0.117c-0.005-0.002-0.01-0.002-0.015-0.004
			c1.953-2.305,2.414-4.806,2.45-5.024c0,0,0,0,0,0c0.001-0.006,0.004-0.022,0.004-0.025c0.083-0.605,0.183-1.312,0.371-1.939
			C21.236,0.246,19.885,0.027,18.328,0c-0.166,0.293-0.338,0.601-0.512,0.916c-0.001,0.002-0.002,0.004-0.003,0.006
			c-0.2,0.361-0.402,0.732-0.604,1.116c0.002,0,0.005,0,0.007,0C16.389,3.603,15.593,5.316,15.04,7.022z M28.983,9.348
			c-0.008-0.103-0.016-0.188-0.016-0.262c0-2.34-0.899-4.893-3.097-6.696c-0.013,0.004-0.029,0.007-0.042,0.011
			c-0.155-0.214-0.39-0.368-0.672-0.407c-0.542-0.072-1.052,0.308-1.127,0.855c-0.009,0.062-0.923,6.287-6.837,9.242
			C9.014,16.177,3.03,25.31,0.882,32.165c4.398-0.412,10.658-0.288,15.445,1.811c1.13-3.219,3.158-7.583,6.731-11.981
			C29.365,14.231,29.097,10.81,28.983,9.348z M39.801,31.65c-1.25-1.999-2.505-3.003-3.206-3.465
			c-0.018-0.013-0.025-0.034-0.043-0.046c-0.097-0.061-0.849-0.527-2.003-1.201c-5.309,2.341-8.723,6.227-10.401,8.564
			c1.354,1.165,2.037,2.014,2.075,2.063c0.004,0.009,0.005,0.016,0.008,0.024c-0.01-0.024,0.944,0.822,3.248,3.712
			c0.233,0.293,0.535,0.472,0.863,0.452c0.175-0.011,0.349-0.071,0.501-0.187c0.441-0.333,0.545-0.991,0.233-1.47
			c-1.228-1.881-2.121-2.874-2.711-3.42c0.331-0.499,0.753-0.991,1.205-1.477c0.4,0.301,1.246,1.122,2.542,3.397
			c0.185,0.324,0.505,0.503,0.834,0.503c0.175,0,0.352-0.051,0.511-0.157c0.46-0.306,0.604-0.955,0.321-1.452
			c-1.253-2.198-2.172-3.229-2.727-3.724c0.465-0.406,0.939-0.801,1.412-1.166c0.464,0.311,1.359,1.086,2.763,3.072
			c0.215,0.305,0.552,0.451,0.879,0.42c0.174-0.018,0.345-0.085,0.494-0.206c0.428-0.349,0.508-1.01,0.178-1.477
			c-1.133-1.604-1.992-2.517-2.604-3.056c0.692-0.477,1.301-0.867,1.721-1.127c0.516,0.436,1.295,1.233,2.38,2.711
			c0.221,0.301,0.56,0.441,0.887,0.403c0.173-0.021,0.344-0.091,0.49-0.215C40.072,32.773,40.104,32.135,39.801,31.65z M32.44,25.74
			c-2.027-1.125-4.56-2.446-7.056-3.52c-0.264,0.341-0.523,0.678-0.812,1.034c-0.161,0.199-0.306,0.396-0.46,0.595
			c0.007,0.004,0.015,0.007,0.022,0.01c-1.743,2.238-3.07,4.444-4.081,6.477c-0.009-0.005-0.017-0.01-0.026-0.015
			c-0.31,0.623-0.588,1.226-0.841,1.809c1.333,0.716,2.444,1.441,3.383,2.127C24.262,31.9,27.481,28.252,32.44,25.74z"/>
	</g>
</g>
<g>
</g>
<g>
</g>
<g>
</g>
<g>
</g>
<g>
</g>
<g>
</g>
<g>
</g>
<g>
</g>
<g>
</g>
<g>
</g>
<g>
</g>
<g>
</g>
<g>
</g>
<g>
</g>
<g>
</g>
</svg>
