<?xml version="1.0" encoding="iso-8859-1"?>
<!-- Generator: Adobe Illustrator 16.0.4, SVG Export Plug-In . SVG Version: 6.00 Build 0)  -->
<!DOCTYPE svg PUBLIC "-//W3C//DTD SVG 1.1//EN" "http://www.w3.org/Graphics/SVG/1.1/DTD/svg11.dtd">
<svg version="1.1" id="Layer_1" xmlns="http://www.w3.org/2000/svg" xmlns:xlink="http://www.w3.org/1999/xlink" x="0px" y="0px"
	 width="36px" height="44px" viewBox="0 0 36 44" style="enable-background:new 0 0 36 44;" xml:space="preserve">
<g id="_x31_135-sweater_x40_2x.png">
	<g>
		<path d="M25.97,2.037C25.823,0.886,25.001,0,24,0H12c-1.001,0-1.823,0.886-1.97,2.037C6.094,2.299,0,4.174,0,10v28.5
			C0,39.328,0.671,40,1.5,40H6V12c0-0.552,0.448-1,1-1s1,0.448,1,1v30.5C8,43.328,8.672,44,9.5,44h17c0.829,0,1.5-0.672,1.5-1.5V12
			c0-0.552,0.448-1,1-1s1,0.448,1,1v28h4.5c0.829,0,1.5-0.672,1.5-1.5V10C36,4.174,29.906,2.299,25.97,2.037z M12.109,2h11.781
			C23.935,2.062,24,2.195,24,2.4c0,0.04-0.004,0.08-0.009,0.119c-0.003,0.026-0.007,0.053-0.009,0.078C23.815,4.241,21.373,6,18,6
			s-5.815-1.759-5.981-3.402c-0.002-0.025-0.006-0.052-0.009-0.078C12.004,2.48,12,2.44,12,2.4C12,2.195,12.066,2.062,12.109,2z
			 M13.888,29.416l-1.333,2.25l-0.01-0.008C12.425,31.859,12.231,32,12,32c-0.231,0-0.425-0.141-0.544-0.342l-0.01,0.008
			l-1.333-2.25l0.01-0.008C10.051,29.289,10,29.154,10,29s0.051-0.289,0.122-0.408l-0.01-0.008l1.333-2.25l0.01,0.008
			C11.575,26.141,11.769,26,12,26c0.231,0,0.425,0.141,0.544,0.342l0.01-0.008l1.333,2.25l-0.01,0.008
			C13.949,28.711,14,28.846,14,29s-0.051,0.289-0.122,0.408L13.888,29.416z M13.878,20.408l0.01,0.008l-1.333,2.25l-0.01-0.008
			C12.425,22.859,12.231,23,12,23c-0.231,0-0.425-0.141-0.544-0.342l-0.01,0.008l-1.333-2.25l0.01-0.008
			C10.051,20.289,10,20.154,10,20s0.051-0.289,0.122-0.408l-0.01-0.008l1.333-2.25l0.01,0.008C11.575,17.141,11.769,17,12,17
			c0.231,0,0.425,0.141,0.544,0.342l0.01-0.008l1.333,2.25l-0.01,0.008C13.949,19.711,14,19.846,14,20S13.949,20.289,13.878,20.408z
			 M19.888,27.416l-1.333,2.25l-0.01-0.008C18.425,29.859,18.231,30,18,30c-0.231,0-0.425-0.141-0.544-0.342l-0.01,0.008
			l-1.333-2.25l0.01-0.008C16.051,27.289,16,27.154,16,27s0.051-0.289,0.122-0.408l-0.01-0.008l1.333-2.25l0.01,0.008
			C17.575,24.141,17.769,24,18,24c0.231,0,0.425,0.141,0.544,0.342l0.01-0.008l1.333,2.25l-0.01,0.008
			C19.949,26.711,20,26.846,20,27s-0.051,0.289-0.122,0.408L19.888,27.416z M19.878,18.408l0.01,0.008l-1.333,2.25l-0.01-0.008
			C18.425,20.859,18.231,21,18,21c-0.231,0-0.425-0.141-0.544-0.342l-0.01,0.008l-1.333-2.25l0.01-0.008
			C16.051,18.289,16,18.154,16,18s0.051-0.289,0.122-0.408l-0.01-0.008l1.333-2.25l0.01,0.008C17.575,15.141,17.769,15,18,15
			c0.231,0,0.425,0.141,0.544,0.342l0.01-0.008l1.333,2.25l-0.01,0.008C19.949,17.711,20,17.846,20,18S19.949,18.289,19.878,18.408z
			 M25.888,25.416l-1.333,2.25l-0.01-0.008C24.425,27.859,24.231,28,24,28c-0.231,0-0.425-0.141-0.544-0.342l-0.01,0.008
			l-1.333-2.25l0.01-0.008C22.051,25.289,22,25.154,22,25s0.051-0.289,0.122-0.408l-0.01-0.008l1.333-2.25l0.01,0.008
			C23.575,22.141,23.769,22,24,22c0.231,0,0.425,0.141,0.544,0.342l0.01-0.008l1.333,2.25l-0.01,0.008
			C25.949,24.711,26,24.846,26,25s-0.051,0.289-0.122,0.408L25.888,25.416z M25.878,16.408l0.01,0.008l-1.333,2.25l-0.01-0.008
			C24.425,18.859,24.231,19,24,19c-0.231,0-0.425-0.141-0.544-0.342l-0.01,0.008l-1.333-2.25l0.01-0.008
			C22.051,16.289,22,16.154,22,16s0.051-0.289,0.122-0.408l-0.01-0.008l1.333-2.25l0.01,0.008C23.575,13.141,23.769,13,24,13
			c0.231,0,0.425,0.141,0.544,0.342l0.01-0.008l1.333,2.25l-0.01,0.008C25.949,15.711,26,15.846,26,16S25.949,16.289,25.878,16.408z
			"/>
	</g>
</g>
<g>
</g>
<g>
</g>
<g>
</g>
<g>
</g>
<g>
</g>
<g>
</g>
<g>
</g>
<g>
</g>
<g>
</g>
<g>
</g>
<g>
</g>
<g>
</g>
<g>
</g>
<g>
</g>
<g>
</g>
</svg>
