<?xml version="1.0" encoding="iso-8859-1"?>
<!-- Generator: Adobe Illustrator 16.0.4, SVG Export Plug-In . SVG Version: 6.00 Build 0)  -->
<!DOCTYPE svg PUBLIC "-//W3C//DTD SVG 1.1//EN" "http://www.w3.org/Graphics/SVG/1.1/DTD/svg11.dtd">
<svg version="1.1" id="Layer_1" xmlns="http://www.w3.org/2000/svg" xmlns:xlink="http://www.w3.org/1999/xlink" x="0px" y="0px"
	 width="43.98px" height="44.005px" viewBox="0 0 43.98 44.005" style="enable-background:new 0 0 43.98 44.005;"
	 xml:space="preserve">
<g id="_x31_136-gloves_x40_2x.png">
	<g>
		<path d="M25.99,9.614c5.212,3.013,7.316,9.296,5.152,14.77l9.309-4.649l-0.472-0.891V6.333C40.044,5.548,39.884,4.736,39.459,4
			c-1.106-1.918-3.558-2.575-5.475-1.468c-0.802,0.464-1.367,1.168-1.691,1.965c-2.89-4.386-8.723-5.819-13.329-3.158
			c-3.092,1.787-4.854,4.976-4.973,8.3c1.801-1.048,3.866-1.633,6.023-1.633C22.104,8.006,24.171,8.562,25.99,9.614z M3.525,29.734
			l17.894,8.946l7.409-13.995l-0.016-0.009c2.504-4.732,0.847-10.637-3.822-13.337c-4.601-2.661-10.428-1.228-13.314,3.158
			c-0.324-0.797-0.889-1.501-1.69-1.965C8.07,11.425,5.622,12.083,4.517,14c-0.424,0.735-0.584,1.548-0.52,2.333v12.51L3.525,29.734
			z M43.518,20.448l-0.004-0.007l-13.831,6.908l-3.216,6.071l15.429-7.452C43.813,24.909,44.539,22.437,43.518,20.448z
			 M0.463,30.448c-1.021,1.989-0.296,4.461,1.62,5.521l15.877,7.677c0.442,0.245,0.917,0.36,1.385,0.36
			c1.054,0,2.074-0.588,2.604-1.621l0.491-0.956L0.467,30.441L0.463,30.448z"/>
	</g>
</g>
<g>
</g>
<g>
</g>
<g>
</g>
<g>
</g>
<g>
</g>
<g>
</g>
<g>
</g>
<g>
</g>
<g>
</g>
<g>
</g>
<g>
</g>
<g>
</g>
<g>
</g>
<g>
</g>
<g>
</g>
</svg>
