<?xml version="1.0" encoding="iso-8859-1"?>
<!-- Generator: Adobe Illustrator 16.0.4, SVG Export Plug-In . SVG Version: 6.00 Build 0)  -->
<!DOCTYPE svg PUBLIC "-//W3C//DTD SVG 1.1//EN" "http://www.w3.org/Graphics/SVG/1.1/DTD/svg11.dtd">
<svg version="1.1" id="Layer_1" xmlns="http://www.w3.org/2000/svg" xmlns:xlink="http://www.w3.org/1999/xlink" x="0px" y="0px"
	 width="36px" height="44px" viewBox="0 0 36 44" style="enable-background:new 0 0 36 44;" xml:space="preserve">
<g id="_x31_137-tshirt_x40_2x.png">
	<g>
		<path d="M25.001,0L25.001,0c-0.237,0-0.445,0.094-0.616,0.23l-0.01-0.012l-0.038,0.045c-0.04,0.035-0.07,0.077-0.104,0.118
			L18,7.505l-6.232-7.123c-0.034-0.041-0.064-0.083-0.104-0.118l-0.038-0.045l-0.01,0.012C11.444,0.094,11.236,0,11,0h-0.001
			C7.194,0,0,1.672,0,8v11v1.5C0,21.328,0.672,22,1.5,22H3h3v-9c0-0.552,0.447-1,1-1s1,0.448,1,1v9v19v1.5C8,43.328,8.672,44,9.5,44
			H11h14h1.5c0.828,0,1.5-0.672,1.5-1.5V41V13c0-0.552,0.447-1,1-1s1,0.448,1,1v9h3h1.5c0.828,0,1.5-0.672,1.5-1.5V19V8
			C36,1.672,28.806,0,25.001,0z"/>
	</g>
</g>
<g>
</g>
<g>
</g>
<g>
</g>
<g>
</g>
<g>
</g>
<g>
</g>
<g>
</g>
<g>
</g>
<g>
</g>
<g>
</g>
<g>
</g>
<g>
</g>
<g>
</g>
<g>
</g>
<g>
</g>
</svg>
