<?xml version="1.0" encoding="iso-8859-1"?>
<!-- Generator: Adobe Illustrator 16.0.4, SVG Export Plug-In . SVG Version: 6.00 Build 0)  -->
<!DOCTYPE svg PUBLIC "-//W3C//DTD SVG 1.1//EN" "http://www.w3.org/Graphics/SVG/1.1/DTD/svg11.dtd">
<svg version="1.1" id="Layer_1" xmlns="http://www.w3.org/2000/svg" xmlns:xlink="http://www.w3.org/1999/xlink" x="0px" y="0px"
	 width="44px" height="28px" viewBox="0 0 44 28" style="enable-background:new 0 0 44 28;" xml:space="preserve">
<g id="_x31_138-shoes_x40_2x.png">
	<g>
		<path d="M0.005,24.019v-2.032h43.646c-0.713-1.905-2.529-3.236-5.455-3.967c-4.861-0.973-7.979-1.886-11.358-4.443l-4.101,4.101
			c-0.184,0.204-0.442,0.337-0.737,0.337c-0.556,0-1.006-0.455-1.006-1.016c0-0.305,0.14-0.569,0.35-0.756l3.939-3.939
			c-0.53-0.468-1.072-0.975-1.636-1.536l-3.91,3.91c-0.184,0.204-0.442,0.337-0.737,0.337c-0.556,0-1.006-0.455-1.006-1.016
			c0-0.305,0.14-0.569,0.35-0.756l3.915-3.915c-0.486-0.522-0.983-1.067-1.507-1.665l-4.015,4.015
			c-0.184,0.204-0.442,0.337-0.737,0.337c-0.556,0-1.006-0.455-1.006-1.016c0-0.305,0.14-0.569,0.35-0.756l4.101-4.101
			c-1.389-1.646-2.922-3.55-4.658-5.759C14.597,0.142,14.307,0,14,0H1C0.449,0,0.003,0.446,0.001,0.997H0V1v24v1.5
			C0,27.328,0.672,28,1.5,28H3h36c2.484,0,5-1.374,5-4L0.005,24.019z M6.998,8.014C8.656,8.014,10,9.351,10,11
			s-1.344,2.986-3.002,2.986S3.996,12.649,3.996,11S5.34,8.014,6.998,8.014z"/>
	</g>
</g>
<g>
</g>
<g>
</g>
<g>
</g>
<g>
</g>
<g>
</g>
<g>
</g>
<g>
</g>
<g>
</g>
<g>
</g>
<g>
</g>
<g>
</g>
<g>
</g>
<g>
</g>
<g>
</g>
<g>
</g>
</svg>
