<?xml version="1.0" encoding="iso-8859-1"?>
<!-- Generator: Adobe Illustrator 16.0.4, SVG Export Plug-In . SVG Version: 6.00 Build 0)  -->
<!DOCTYPE svg PUBLIC "-//W3C//DTD SVG 1.1//EN" "http://www.w3.org/Graphics/SVG/1.1/DTD/svg11.dtd">
<svg version="1.1" id="Layer_1" xmlns="http://www.w3.org/2000/svg" xmlns:xlink="http://www.w3.org/1999/xlink" x="0px" y="0px"
	 width="28px" height="44px" viewBox="0 0 28 44" style="enable-background:new 0 0 28 44;" xml:space="preserve">
<g id="_x31_139-sock_x40_2x.png">
	<g>
		<path d="M16,8H0v2h16V8z M24.437,29.345L24.437,29.345L16,23.719V12H0v12.262C0.641,24.097,1.309,24,2,24c4.418,0,8,3.582,8,8
			c0,2.127-0.836,4.056-2.189,5.488l7.705,5.138c0.009,0.006,0.018,0.011,0.026,0.017l0.021,0.014v-0.001
			C16.833,43.504,18.358,44,20,44c4.418,0,8-3.582,8-8C28,33.224,26.585,30.779,24.437,29.345z M16,3V2c0-1.104-0.896-2-2-2h-1H3H2
			C0.896,0,0,0.896,0,2v1v3h16V3z M2,26c-0.705,0-1.371,0.145-2,0.367V28c0,2.776,1.416,5.221,3.562,6.655v0.001l2.546,1.697
			C7.268,35.26,8,33.72,8,32C8,28.687,5.313,26,2,26z"/>
	</g>
</g>
<g>
</g>
<g>
</g>
<g>
</g>
<g>
</g>
<g>
</g>
<g>
</g>
<g>
</g>
<g>
</g>
<g>
</g>
<g>
</g>
<g>
</g>
<g>
</g>
<g>
</g>
<g>
</g>
<g>
</g>
</svg>
