<?xml version="1.0" encoding="iso-8859-1"?>
<!-- Generator: Adobe Illustrator 16.0.4, SVG Export Plug-In . SVG Version: 6.00 Build 0)  -->
<!DOCTYPE svg PUBLIC "-//W3C//DTD SVG 1.1//EN" "http://www.w3.org/Graphics/SVG/1.1/DTD/svg11.dtd">
<svg version="1.1" id="Layer_1" xmlns="http://www.w3.org/2000/svg" xmlns:xlink="http://www.w3.org/1999/xlink" x="0px" y="0px"
	 width="44px" height="30px" viewBox="0 0 44 30" style="enable-background:new 0 0 44 30;" xml:space="preserve">
<g id="_x31_141-basketball-court_x40_2x.png">
	<g>
		<path d="M16,15c0-2.971,2.165-5.421,5-5.899V0H2C0.896,0,0,0.896,0,2v1c6.627,0,12,5.373,12,12c0,6.628-5.373,12-12,12v1
			c0,1.104,0.896,2,2,2h19v-9.101C18.165,20.421,16,17.972,16,15z M8.651,20H0v5C3.699,25,6.921,22.986,8.651,20z M10,15
			c0-1.045-0.162-2.053-0.459-3H0v6h9.541C9.838,17.053,10,16.046,10,15z M0,5v5h8.651C6.921,7.014,3.699,5,0,5z M34,15
			c0,1.05,0.164,2.062,0.464,3.013H44v-6.025h-9.536C34.164,12.938,34,13.95,34,15z M42,0H23v9.101c2.835,0.479,5,2.929,5,5.899
			c0,2.972-2.165,5.421-5,5.899V30h19c1.104,0,2-0.896,2-2v-1c-6.627,0-12-5.372-12-12c0-6.627,5.373-12,12-12V2
			C44,0.896,43.104,0,42,0z M35.349,10H44V5C40.301,5,37.079,7.014,35.349,10z M26,15c0-2.209-1.791-4-4-4s-4,1.791-4,4s1.791,4,4,4
			S26,17.209,26,15z M44,25v-5h-8.651C37.079,22.986,40.301,25,44,25z"/>
	</g>
</g>
<g>
</g>
<g>
</g>
<g>
</g>
<g>
</g>
<g>
</g>
<g>
</g>
<g>
</g>
<g>
</g>
<g>
</g>
<g>
</g>
<g>
</g>
<g>
</g>
<g>
</g>
<g>
</g>
<g>
</g>
</svg>
