<?xml version="1.0" encoding="iso-8859-1"?>
<!-- Generator: Adobe Illustrator 16.0.4, SVG Export Plug-In . SVG Version: 6.00 Build 0)  -->
<!DOCTYPE svg PUBLIC "-//W3C//DTD SVG 1.1//EN" "http://www.w3.org/Graphics/SVG/1.1/DTD/svg11.dtd">
<svg version="1.1" id="Layer_1" xmlns="http://www.w3.org/2000/svg" xmlns:xlink="http://www.w3.org/1999/xlink" x="0px" y="0px"
	 width="43.993px" height="44px" viewBox="0 0 43.993 44" style="enable-background:new 0 0 43.993 44;" xml:space="preserve">
<g id="_x31_142-basketball-net_x40_2x.png">
	<g>
		<path d="M27.79,30.379c0.145-0.411,0.288-0.807,0.43-1.188L27.41,30L27.79,30.379z M21.997,0C9.853,0,0.008,6.017,0.008,13.439
			v15.697c-0.045,0.328,0.107,0.661,0.417,0.817c0.268,0.135,5.549,2.743,14.759,3.698c-1.069-3.421-2.311-6.424-2.838-7.652h-1.35
			c-0.552,0-1-0.447-1-1s0.448-1,1-1h1V14c0-1.104,0.896-2,2-2h16c1.104,0,2,0.896,2,2v10h1c0.552,0,1,0.447,1,1s-0.448,1-1,1h-1.35
			c-0.527,1.229-1.769,4.231-2.838,7.652c9.21-0.956,14.492-3.563,14.759-3.698c0.308-0.155,0.462-0.485,0.419-0.812V13.439
			C43.986,6.017,34.141,0,21.997,0z M27.077,32.495l-1.081-1.081l-2.561,2.561c1.115-0.023,2.203-0.064,3.234-0.137
			C26.803,33.387,26.937,32.933,27.077,32.495z M17.996,31.414l-1.081,1.081c0.14,0.438,0.273,0.892,0.408,1.343
			c1.031,0.072,2.118,0.113,3.233,0.137L17.996,31.414z M13.996,24h16V14h-16V24z M15.41,26l2.586,2.586L20.582,26H15.41z M19.41,30
			l2.586,2.586L24.582,30l-2.586-2.586L19.41,30z M16.203,30.379L16.582,30l-0.809-0.809C15.915,29.572,16.058,29.968,16.203,30.379
			z M25.934,36.523L23.41,34l0.025-0.025C22.958,33.984,22.489,34,21.996,34s-0.962-0.016-1.439-0.025L20.582,34l-2.524,2.523
			c-0.22-0.908-0.473-1.804-0.735-2.686c-0.735-0.052-1.448-0.114-2.139-0.186c0.975,3.118,1.804,6.573,1.804,9.339
			c0,0.552,0.447,1,0.998,1c0.007,0,0.012-0.004,0.019-0.004V44h7.981v-0.013c0.007,0,0.012,0.004,0.019,0.004
			c0.551,0,0.998-0.448,0.998-1c0-2.766,0.83-6.221,1.804-9.339c-0.691,0.071-1.404,0.134-2.139,0.186
			C26.407,34.72,26.154,35.615,25.934,36.523z M18.945,41.988c-0.033-0.586-0.103-1.194-0.186-1.812l1.812,1.812H18.945z M19.41,38
			l2.586-2.586L24.582,38l-2.586,2.586L19.41,38z M25.047,41.988h-1.625l1.812-1.812C25.15,40.794,25.081,41.402,25.047,41.988z
			 M25.996,28.586L28.582,26H23.41L25.996,28.586z"/>
	</g>
</g>
<g>
</g>
<g>
</g>
<g>
</g>
<g>
</g>
<g>
</g>
<g>
</g>
<g>
</g>
<g>
</g>
<g>
</g>
<g>
</g>
<g>
</g>
<g>
</g>
<g>
</g>
<g>
</g>
<g>
</g>
</svg>
