<?xml version="1.0" encoding="iso-8859-1"?>
<!-- Generator: Adobe Illustrator 16.0.4, SVG Export Plug-In . SVG Version: 6.00 Build 0)  -->
<!DOCTYPE svg PUBLIC "-//W3C//DTD SVG 1.1//EN" "http://www.w3.org/Graphics/SVG/1.1/DTD/svg11.dtd">
<svg version="1.1" id="Layer_1" xmlns="http://www.w3.org/2000/svg" xmlns:xlink="http://www.w3.org/1999/xlink" x="0px" y="0px"
	 width="43.968px" height="44.022px" viewBox="0 0 43.968 44.022" style="enable-background:new 0 0 43.968 44.022;"
	 xml:space="preserve">
<g id="_x31_143-baseball-and-bat_x40_2x.png">
	<g>
		<path d="M16.012,13.019c0,3.921-2.515,7.247-6.017,8.48c0.636,0.525,1.336,0.974,2.081,1.347l6.285-7.362
			c-0.225-0.785-0.364-1.607-0.364-2.465c0-3.923,2.516-7.25,6.019-8.482c-1.904-1.573-4.347-2.519-7.011-2.519
			s-5.107,0.945-7.011,2.519C13.497,5.77,16.012,9.097,16.012,13.019z M19.997,13.02c0,0.169,0.032,0.329,0.043,0.495l5.895-6.905
			c-0.109-0.15-0.215-0.304-0.331-0.449C22.405,6.808,19.997,9.632,19.997,13.02z M14.009,13.02c0-3.387-2.407-6.211-5.604-6.859
			C6.9,8.041,5.995,10.422,5.995,13.018c0,2.597,0.906,4.979,2.412,6.86C11.604,19.228,14.009,16.404,14.009,13.02z M42.009,1.943
			C40.703,0.647,38.992,0,37.28,0c-2.935,0-4.786,1.995-4.786,1.995l-7.359,8.633l-4.495,5.266c0.001,0.001,0.002,0.003,0.003,0.005
			l-1.398,1.64c-0.001-0.002-0.003-0.004-0.004-0.006l-5.191,6.081c0.004,0.001,0.009,0.002,0.014,0.003l-1.866,2.189l5.654,5.654
			c9.829-8.189,24.147-20.122,24.157-20.136C44.621,8.733,44.621,4.533,42.009,1.943z M0.628,36.094l0.001,0.004
			C0.262,36.245,0,36.602,0,37.022c0,0.276,0.112,0.526,0.293,0.707l6,6C6.474,43.91,6.724,44.022,7,44.022
			c0.421,0,0.778-0.262,0.925-0.63l0.003,0.001l1.437-3.592l-5.145-5.145L0.628,36.094z M5.755,33.363l4.46,4.46
			c1.326-1.104,3.489-2.906,6.094-5.077l-5.413-5.413L5.755,33.363z"/>
	</g>
</g>
<g>
</g>
<g>
</g>
<g>
</g>
<g>
</g>
<g>
</g>
<g>
</g>
<g>
</g>
<g>
</g>
<g>
</g>
<g>
</g>
<g>
</g>
<g>
</g>
<g>
</g>
<g>
</g>
<g>
</g>
</svg>
