<?xml version="1.0" encoding="iso-8859-1"?>
<!-- Generator: Adobe Illustrator 16.0.4, SVG Export Plug-In . SVG Version: 6.00 Build 0)  -->
<!DOCTYPE svg PUBLIC "-//W3C//DTD SVG 1.1//EN" "http://www.w3.org/Graphics/SVG/1.1/DTD/svg11.dtd">
<svg version="1.1" id="Layer_1" xmlns="http://www.w3.org/2000/svg" xmlns:xlink="http://www.w3.org/1999/xlink" x="0px" y="0px"
	 width="44.015px" height="36px" viewBox="0 0 44.015 36" style="enable-background:new 0 0 44.015 36;" xml:space="preserve">
<g id="_x31_144-baseball-helmet_x40_2x.png">
	<g>
		<path d="M42.886,21.859c-0.787-0.576-4.705-3.083-5.952-3.881C36.921,11.983,36.454,0,18.076,0c-5.75,0-9.982,1.5-12.938,4.586
			c-5.179,5.407-5.157,14.029-5.136,22.078l0.002,1.473c0,0.452,0.352,0.818,0.786,0.818c2.912,0,4.681,1.205,6.728,2.602
			C10.23,33.404,12.007,36,19.618,36c2.512,0,4.62-1.22,5.937-3.437c1.368-2.303,1.407-4.896,0.771-7.581h16.108
			c0.742,0,1.34-0.391,1.524-0.997C44.082,23.575,44.109,22.755,42.886,21.859z M18.007,30c-1.104,0-2-0.896-2-2s0.896-2,2-2
			s2,0.896,2,2S19.112,30,18.007,30z"/>
	</g>
</g>
<g>
</g>
<g>
</g>
<g>
</g>
<g>
</g>
<g>
</g>
<g>
</g>
<g>
</g>
<g>
</g>
<g>
</g>
<g>
</g>
<g>
</g>
<g>
</g>
<g>
</g>
<g>
</g>
<g>
</g>
</svg>
