<?xml version="1.0" encoding="iso-8859-1"?>
<!-- Generator: Adobe Illustrator 16.0.4, SVG Export Plug-In . SVG Version: 6.00 Build 0)  -->
<!DOCTYPE svg PUBLIC "-//W3C//DTD SVG 1.1//EN" "http://www.w3.org/Graphics/SVG/1.1/DTD/svg11.dtd">
<svg version="1.1" id="Layer_1" xmlns="http://www.w3.org/2000/svg" xmlns:xlink="http://www.w3.org/1999/xlink" x="0px" y="0px"
	 width="44.012px" height="44px" viewBox="0 0 44.012 44" style="enable-background:new 0 0 44.012 44;" xml:space="preserve">
<g id="_x31_146-baseball-glove_x40_2x.png">
	<g>
		<path d="M27.306,1.669c-1.892-0.608-3.667-0.999-5.295-1.242v11.56c1.138,0.001,2.235,0.174,3.268,0.495L27.306,1.669z
			 M30.266,15.756L34.678,5.04c-1.892-1.126-3.723-2.015-5.465-2.692l-2.049,10.926C28.348,13.903,29.389,14.756,30.266,15.756z
			 M25.011,23c0,2.629,1.452,4.912,3.596,6.107c1.48-1.605,2.39-3.748,2.39-6.106c0-2.359-0.913-4.5-2.396-6.106
			C26.46,18.091,25.011,20.373,25.011,23z M21.011,23c0,3.075-1.554,5.773-3.908,7.396C18.403,30.161,20.01,30,22.009,30
			c2.001,0,3.609,0.162,4.91,0.396c-2.354-1.621-3.908-4.32-3.908-7.396c0-3.122,1.599-5.859,4.013-7.473
			c-1.433-0.968-3.16-1.533-5.019-1.533c-1.856,0-3.58,0.564-5.013,1.53C19.41,17.136,21.011,19.876,21.011,23z M19.999,6.308
			C11.909,5.865,7.095,10.8,5.947,12.131c0.386,1.032,0.82,2.031,1.313,2.995c1.704-2.18,5.708-6.183,12.738-7.21V6.308z
			 M42.293,10.787c-0.014-0.012-0.026-0.023-0.04-0.035l-6.348,12.695l-0.009-0.005C35.731,23.77,35.401,24,35.011,24
			c-0.553,0-1-0.447-1-1c0-0.161,0.047-0.308,0.114-0.442l-0.009-0.005l6.587-13.174c-1.463-1.244-2.9-2.319-4.309-3.256
			l-4.768,11.578c0.866,1.57,1.378,3.364,1.378,5.285c0,3.193-1.371,6.058-3.546,8.066c1.509,0.546,2.139,1.122,2.257,1.24
			c0.391,0.391,0.391,1.023,0,1.414C31.521,33.902,31.265,34,31.009,34s-0.512-0.098-0.707-0.293C30.299,33.706,28.354,32,22.009,32
			s-8.29,1.706-8.31,1.723c-0.4,0.365-1.029,0.354-1.405-0.04c-0.375-0.393-0.376-1.005,0.008-1.39
			c0.117-0.118,0.747-0.694,2.254-1.239c-2.016-1.858-3.327-4.455-3.514-7.364c-4.624-4.66-7.44-10.132-8.617-16.846
			c-1.85,2.411-2.896,5.402-2.217,8.922C4.63,34.903,13.477,43.979,24.617,43.979C24.829,43.993,25.04,44,25.25,44
			C38.354,44,48.107,16.031,42.293,10.787z M19.999,4.409V0.181C18.212,0.017,16.645,0,15.358,0C12.444,0,7.671,1.73,4.216,4.894
			c0.228,1.724,0.553,3.371,0.996,4.931C7.233,7.84,12.182,4.005,19.999,4.409z M19.999,12.177V9.859
			c-7.058,1.146-10.666,5.665-11.662,7.118c0.837,1.362,1.796,2.658,2.878,3.891C12.076,16.458,15.571,12.994,19.999,12.177z
			 M19.011,23c0-2.63-1.453-4.914-3.598-6.109c-1.485,1.606-2.399,3.749-2.399,6.11c0,2.363,0.92,4.5,2.407,6.104
			C17.562,27.909,19.011,25.627,19.011,23z"/>
	</g>
</g>
<g>
</g>
<g>
</g>
<g>
</g>
<g>
</g>
<g>
</g>
<g>
</g>
<g>
</g>
<g>
</g>
<g>
</g>
<g>
</g>
<g>
</g>
<g>
</g>
<g>
</g>
<g>
</g>
<g>
</g>
</svg>
