<?xml version="1.0" encoding="iso-8859-1"?>
<!-- Generator: Adobe Illustrator 16.0.4, SVG Export Plug-In . SVG Version: 6.00 Build 0)  -->
<!DOCTYPE svg PUBLIC "-//W3C//DTD SVG 1.1//EN" "http://www.w3.org/Graphics/SVG/1.1/DTD/svg11.dtd">
<svg version="1.1" id="Layer_1" xmlns="http://www.w3.org/2000/svg" xmlns:xlink="http://www.w3.org/1999/xlink" x="0px" y="0px"
	 width="43.681px" height="36px" viewBox="0 0 43.681 36" style="enable-background:new 0 0 43.681 36;" xml:space="preserve">
<g id="_x31_147-football-helmet_x40_2x.png">
	<g>
		<path d="M20.681,27c-0.553,0-1,0.447-1,1s0.447,1,1,1s1-0.447,1-1S21.233,27,20.681,27z M43.681,27c0-0.553-0.447-1-1-1
			c0,0,0,0-0.001,0H28.428c1.062-4.651,4.684-4.869,6.757-4.869c2.447,0,2.339-1.686,2.339-3.131c0-5.801-4.145-18-18.381-18
			C4.907,0,0.217,10.36,0.317,16.342c0.1,5.981,0.458,9.051-0.251,10.854c-0.454,0.852,1.456,0.979,4.612,0.979
			c8.751,0,8.577,7.826,15.594,7.826c0.59,0,4.77-0.452,6.775-3.377l13.391,3.347l0.004-0.018C40.521,35.972,40.597,36,40.681,36
			c0.441,0,0.805-0.291,0.937-0.688l0.013,0.004l2-8l-0.012-0.004C43.651,27.213,43.681,27.111,43.681,27z M20.681,31
			c-1.657,0-3-1.343-3-3s1.343-3,3-3s3,1.343,3,3S22.338,31,20.681,31z M34.414,32.402l-6.535-1.634
			c0.146-0.549,0.239-1.144,0.239-1.812c0-0.338,0.02-0.646,0.038-0.956h7.246L34.414,32.402z M39.956,33.788l-3.6-0.899L37.474,28
			h3.93L39.956,33.788z"/>
	</g>
</g>
<g>
</g>
<g>
</g>
<g>
</g>
<g>
</g>
<g>
</g>
<g>
</g>
<g>
</g>
<g>
</g>
<g>
</g>
<g>
</g>
<g>
</g>
<g>
</g>
<g>
</g>
<g>
</g>
<g>
</g>
</svg>
