<?xml version="1.0" encoding="iso-8859-1"?>
<!-- Generator: Adobe Illustrator 16.0.4, SVG Export Plug-In . SVG Version: 6.00 Build 0)  -->
<!DOCTYPE svg PUBLIC "-//W3C//DTD SVG 1.1//EN" "http://www.w3.org/Graphics/SVG/1.1/DTD/svg11.dtd">
<svg version="1.1" id="Layer_1" xmlns="http://www.w3.org/2000/svg" xmlns:xlink="http://www.w3.org/1999/xlink" x="0px" y="0px"
	 width="44px" height="32px" viewBox="0 0 44 32" style="enable-background:new 0 0 44 32;" xml:space="preserve">
<g id="_x31_149-football-field_x40_2x.png">
	<g>
		<path d="M9,8h2v2H9v12h2v2H9v8h5v-8h-2v-2h2V10h-2V8h2V0H9V8z M0,2v28c0,1.104,0.896,2,2,2h5v-8H5v-2h2V10H5V8h2V0H2
			C0.896,0,0,0.896,0,2z M16,8h2v2h-2v12h2v2h-2v8h5v-8h-2v-2h2V10h-2V8h2V0h-5V8z M23,8h2v2h-2v12h2v2h-2v8h5v-8h-2v-2h2V10h-2V8h2
			V0h-5V8z M42,0h-5v8h2v2h-2v12h2v2h-2v8h5c1.104,0,2-0.896,2-2V2C44,0.896,43.104,0,42,0z M30,8h2v2h-2v12h2v2h-2v8h5v-8h-2v-2h2
			V10h-2V8h2V0h-5V8z"/>
	</g>
</g>
<g>
</g>
<g>
</g>
<g>
</g>
<g>
</g>
<g>
</g>
<g>
</g>
<g>
</g>
<g>
</g>
<g>
</g>
<g>
</g>
<g>
</g>
<g>
</g>
<g>
</g>
<g>
</g>
<g>
</g>
</svg>
