<?xml version="1.0" encoding="iso-8859-1"?>
<!-- Generator: Adobe Illustrator 16.0.4, SVG Export Plug-In . SVG Version: 6.00 Build 0)  -->
<!DOCTYPE svg PUBLIC "-//W3C//DTD SVG 1.1//EN" "http://www.w3.org/Graphics/SVG/1.1/DTD/svg11.dtd">
<svg version="1.1" id="Layer_1" xmlns="http://www.w3.org/2000/svg" xmlns:xlink="http://www.w3.org/1999/xlink" x="0px" y="0px"
	 width="40.01px" height="36px" viewBox="0 0 40.01 36" style="enable-background:new 0 0 40.01 36;" xml:space="preserve">
<g id="_x31_150-football-jersey_x40_2x.png">
	<g>
		<path d="M18.887,15.753c0.323,0.216,0.703,0.323,1.138,0.323c0.455,0,0.834-0.107,1.138-0.323
			c0.303-0.215,0.455-0.529,0.455-0.941c0-0.128-0.021-0.268-0.061-0.419c-0.041-0.151-0.119-0.296-0.235-0.434
			c-0.116-0.137-0.278-0.252-0.485-0.343c-0.208-0.092-0.479-0.138-0.812-0.138c-0.213,0-0.417,0.029-0.614,0.089
			s-0.372,0.145-0.523,0.255c-0.151,0.109-0.271,0.247-0.356,0.412s-0.129,0.357-0.129,0.577
			C18.401,15.224,18.562,15.538,18.887,15.753z M32.004,16h8.006v-2h-8.006V16z M32.004,22h5.006h1.5c0.828,0,1.5-0.672,1.5-1.5V19
			v-1h-8.006V22z M21.321,17.809c-0.167-0.138-0.359-0.243-0.576-0.316c-0.218-0.073-0.453-0.11-0.706-0.11
			c-0.525,0-0.971,0.131-1.334,0.393c-0.364,0.261-0.547,0.639-0.547,1.134c0,0.248,0.051,0.473,0.152,0.674
			c0.101,0.201,0.234,0.373,0.401,0.516c0.167,0.142,0.367,0.252,0.6,0.329c0.232,0.079,0.475,0.117,0.728,0.117
			c0.263,0,0.503-0.038,0.721-0.117c0.218-0.077,0.409-0.188,0.576-0.329c0.167-0.143,0.296-0.314,0.387-0.516
			c0.092-0.201,0.137-0.422,0.137-0.66c0-0.229-0.048-0.438-0.144-0.625C21.619,18.108,21.488,17.946,21.321,17.809z M29.01,0h-2
			c-0.329,0-0.606,0.169-0.789,0.414C25.219,1.698,22.868,2,20.01,2c-2.857,0-5.264-0.332-6.211-1.586
			C13.616,0.169,13.339,0,13.01,0h-2c-10.874,0-11,9.9-11,10H0v9h0.01v1.5c0,0.828,0.672,1.5,1.5,1.5h1.5h4.984v-4H0.01v-2h7.984v-2
			H0.01v-2h7.984v-1H8.01c0-0.552,0.447-1,1-1s1,0.448,1,1c0,0.011-0.006,0.02-0.006,0.03V12h0.006v2h-0.006v2h0.006v2h-0.006v4
			h0.006v-1h0.006v12H10.01v1.5c0,0.828,0.672,1.5,1.5,1.5h1.5h14h1.5c0.828,0,1.5-0.672,1.5-1.5V33h-0.016V11h0.016
			c0-0.552,0.447-1,1-1s1,0.448,1,1c0,0.011-0.006,0.02-0.006,0.03V12h8.006v-2C40.01,9.9,39.884,0,29.01,0z M23.672,20.324
			c-0.228,0.376-0.528,0.688-0.902,0.935c-0.374,0.248-0.799,0.434-1.274,0.557c-0.475,0.124-0.96,0.186-1.456,0.186
			c-0.516,0-1.014-0.057-1.494-0.172c-0.479-0.114-0.909-0.295-1.289-0.542c-0.379-0.248-0.683-0.56-0.91-0.936
			c-0.227-0.376-0.341-0.824-0.341-1.347c0-0.614,0.175-1.128,0.523-1.54s0.842-0.688,1.479-0.825v-0.027
			c-0.516-0.128-0.905-0.371-1.168-0.729s-0.395-0.774-0.395-1.251c0-0.431,0.106-0.811,0.319-1.141
			c0.212-0.33,0.487-0.605,0.826-0.825s0.721-0.385,1.146-0.495c0.425-0.109,0.854-0.165,1.289-0.165
			c0.657,0,1.213,0.092,1.668,0.275s0.821,0.405,1.1,0.667c0.278,0.261,0.479,0.541,0.6,0.838c0.121,0.298,0.182,0.566,0.182,0.805
			c0,0.477-0.129,0.894-0.387,1.251s-0.645,0.614-1.16,0.77v0.027c0.637,0.129,1.127,0.401,1.472,0.818
			c0.343,0.417,0.516,0.928,0.516,1.533C24.014,19.504,23.899,19.948,23.672,20.324z"/>
	</g>
</g>
<g>
</g>
<g>
</g>
<g>
</g>
<g>
</g>
<g>
</g>
<g>
</g>
<g>
</g>
<g>
</g>
<g>
</g>
<g>
</g>
<g>
</g>
<g>
</g>
<g>
</g>
<g>
</g>
<g>
</g>
</svg>
