<?xml version="1.0" encoding="iso-8859-1"?>
<!-- Generator: Adobe Illustrator 16.0.4, SVG Export Plug-In . SVG Version: 6.00 Build 0)  -->
<!DOCTYPE svg PUBLIC "-//W3C//DTD SVG 1.1//EN" "http://www.w3.org/Graphics/SVG/1.1/DTD/svg11.dtd">
<svg version="1.1" id="Layer_1" xmlns="http://www.w3.org/2000/svg" xmlns:xlink="http://www.w3.org/1999/xlink" x="0px" y="0px"
	 width="44px" height="44px" viewBox="0 0 44 44" style="enable-background:new 0 0 44 44;" xml:space="preserve">
<g id="_x31_151-scoreboard_x40_2x.png">
	<g>
		<path d="M42,6l-4.224,0.005C35.078,2.303,29.036,0,22,0S8.922,2.303,6.224,6.005L2,6C1,6,0,7,0,8v14h44V8C44,7,43,6,42,6z M14,20
			H4v-6h10V20z M14,12H4v-2h10V12z M26,20h-8v-6h8V20z M28,12H16v-2h12V12z M40,20H30v-6h10V20z M40,12H30v-2h10V12z M0,34
			c0,1,1,2,2,2h2v8h2v-8h32v8h2v-8h2c1,0,2-1,2-2V24H0V34z M30,28h10v2H30V28z M16,28h12v2H16V28z M4,28h10v2H4V28z M38,16h-6v2h6
			V16z M12,16H6v2h6V16z M24,16h-4v2h4V16z"/>
	</g>
</g>
<g>
</g>
<g>
</g>
<g>
</g>
<g>
</g>
<g>
</g>
<g>
</g>
<g>
</g>
<g>
</g>
<g>
</g>
<g>
</g>
<g>
</g>
<g>
</g>
<g>
</g>
<g>
</g>
<g>
</g>
</svg>
