<?xml version="1.0" encoding="iso-8859-1"?>
<!-- Generator: Adobe Illustrator 16.0.4, SVG Export Plug-In . SVG Version: 6.00 Build 0)  -->
<!DOCTYPE svg PUBLIC "-//W3C//DTD SVG 1.1//EN" "http://www.w3.org/Graphics/SVG/1.1/DTD/svg11.dtd">
<svg version="1.1" id="Layer_1" xmlns="http://www.w3.org/2000/svg" xmlns:xlink="http://www.w3.org/1999/xlink" x="0px" y="0px"
	 width="43.943px" height="44px" viewBox="0 0 43.943 44" style="enable-background:new 0 0 43.943 44;" xml:space="preserve">
<g id="_x31_153-bowling-pins_x40_2x.png">
	<g>
		<path d="M25.63,10c0.459-1.679,1.049-2.917,1.049-5.285c0,0,0-4.715-4.747-4.715c-4.75,0-4.75,4.715-4.75,4.715
			c0,2.368,0.591,3.606,1.051,5.285H25.63z M16.187,13c0.125-0.465,0.259-0.895,0.384-1.331c-0.144-0.805-0.347-1.471-0.559-2.151
			c-0.387-1.246-0.826-2.658-0.826-4.803c0-0.04,0.004-0.083,0.005-0.123C14.623,4.236,13.89,4,12.925,4
			C8.768,4,8.768,8.286,8.768,8.286c0,2.108,0.496,3.235,0.895,4.714H16.187z M18.625,12c0.082,0.629,0.142,1.311,0.142,2.143
			c0,0.68-0.048,1.283-0.116,1.857h6.563c-0.068-0.574-0.116-1.178-0.116-1.857c0-0.832,0.061-1.514,0.142-2.143H18.625z M28.068,15
			c0.064,0.549,0.113,1.142,0.113,1.857c0,0.404-0.018,0.78-0.044,1.143h5.653c-0.026-0.362-0.044-0.738-0.044-1.143
			c0-0.716,0.048-1.309,0.113-1.857H28.068z M41.559,11.857c0,0,0-3.857-3.579-3.857c-0.315,0-0.594,0.039-0.857,0.094
			c0.002,0.063,0.008,0.13,0.008,0.192c0,1.967-0.388,3.26-0.731,4.4c-0.286,0.953-0.547,1.895-0.628,3.313h5.044
			C41.154,14.719,41.559,13.707,41.559,11.857z M34.24,13c0.4-1.479,0.898-2.605,0.898-4.714c0,0,0-4.286-4.175-4.286
			c-0.953,0-1.68,0.23-2.248,0.575c0.001,0.046,0.006,0.094,0.006,0.14c0,2.145-0.438,3.557-0.824,4.802
			c-0.218,0.704-0.427,1.394-0.572,2.235c0.119,0.408,0.244,0.813,0.362,1.248H34.24z M35.785,18c0.065,0.763,0.199,1.412,0.377,2
			h4.218c-0.004-0.145-0.016-0.277-0.016-0.429c0-0.6,0.035-1.104,0.084-1.571H35.785z M7.748,20c0.177-0.588,0.311-1.237,0.375-2
			H3.479c0.049,0.468,0.084,0.972,0.084,1.571c0,0.151-0.012,0.284-0.016,0.429H7.748z M34.098,20h-5.412
			c0.179,0.314,0.363,0.628,0.555,0.948c1.271,2.122,2.712,4.527,2.657,9.041c-0.065,5.248-2.688,10.89-4.086,13.53
			c0.163,0.3,0.268,0.48,0.268,0.48h2.884h2.885c0,0,4.001-6.811,4.072-12.76C37.989,25.367,35.111,24.182,34.098,20z M40.585,22
			h-3.57c0.176,0.326,0.359,0.648,0.55,0.979c1.126,1.944,2.403,4.148,2.354,8.285c-0.061,5.07-2.642,10.529-3.803,12.735h1.864
			h2.472c0,0,3.429-6.13,3.49-11.483C44.004,27.05,41.366,26.093,40.585,22z M25.604,18H18.26
			c-1.236,4.282-4.318,5.694-4.241,11.965C14.099,36.509,18.651,44,18.651,44h3.281h3.281c0,0,4.552-7.491,4.632-14.035
			C29.923,23.694,26.841,22.282,25.604,18z M10.042,15c0.064,0.549,0.112,1.142,0.112,1.857c0,0.404-0.018,0.78-0.044,1.143h5.629
			c-0.026-0.362-0.043-0.738-0.043-1.143c0-0.716,0.048-1.309,0.112-1.857H10.042z M8.137,16c-0.081-1.419-0.341-2.36-0.626-3.313
			c-0.341-1.141-0.728-2.434-0.728-4.4c0-0.062,0.005-0.129,0.007-0.192C6.53,8.039,6.252,8,5.938,8
			c-3.562,0-3.562,3.857-3.562,3.857c0,1.85,0.402,2.861,0.739,4.143H8.137z M14.671,20.948c0.191-0.32,0.375-0.634,0.555-0.948
			H9.804c-1.009,4.182-3.875,5.367-3.806,11.24C6.068,37.189,10.053,44,10.053,44h2.872h2.873c0,0,0.111-0.192,0.285-0.515
			c-1.402-2.654-4.004-8.27-4.068-13.496C11.958,25.476,13.399,23.07,14.671,20.948z M6.351,22.979
			c0.19-0.331,0.373-0.653,0.548-0.979H3.343c-0.777,4.093-3.404,5.05-3.342,10.517C0.062,37.87,3.476,44,3.476,44h2.461h1.856
			c-1.156-2.206-3.727-7.665-3.787-12.735C3.958,27.128,5.229,24.924,6.351,22.979z"/>
	</g>
</g>
<g>
</g>
<g>
</g>
<g>
</g>
<g>
</g>
<g>
</g>
<g>
</g>
<g>
</g>
<g>
</g>
<g>
</g>
<g>
</g>
<g>
</g>
<g>
</g>
<g>
</g>
<g>
</g>
<g>
</g>
</svg>
