<?xml version="1.0" encoding="iso-8859-1"?>
<!-- Generator: Adobe Illustrator 16.0.4, SVG Export Plug-In . SVG Version: 6.00 Build 0)  -->
<!DOCTYPE svg PUBLIC "-//W3C//DTD SVG 1.1//EN" "http://www.w3.org/Graphics/SVG/1.1/DTD/svg11.dtd">
<svg version="1.1" id="Layer_1" xmlns="http://www.w3.org/2000/svg" xmlns:xlink="http://www.w3.org/1999/xlink" x="0px" y="0px"
	 width="44px" height="20px" viewBox="0 0 44 20" style="enable-background:new 0 0 44 20;" xml:space="preserve">
<g id="_x31_156-tennis-net_x40_2x.png">
	<g>
		<path d="M43.816,18.456l0.016-0.011l-0.068-0.068c-0.043-0.053-0.088-0.098-0.141-0.141L37.387,12H39c0.553,0,1-0.447,1-1V1
			c0-0.552-0.447-1-1-1h-0.001H5.001H5C4.447,0,4,0.448,4,1v10c0,0.553,0.447,1,1,1h1.613l-6.236,6.236
			c-0.053,0.043-0.098,0.089-0.141,0.142l-0.068,0.067l0.016,0.011C0.077,18.614,0,18.795,0,19c0,0.553,0.447,1,1,1h1.586l8-8h2.828
			l-6,6H21v-6h2v6h13.586l-6-6h2.828l8,8H43c0.553,0,1-0.447,1-1C44,18.795,43.923,18.614,43.816,18.456z M8,10H6V9h2V10z M8,7H6V5
			h2V7z M8,3H6V2h2V3z M12,10h-2V9h2V10z M12,7h-2V5h2V7z M12,3h-2V2h2V3z M16,10h-2V9h2V10z M16,7h-2V5h2V7z M16,3h-2V2h2V3z
			 M21,10h-3V9h3V10z M21,7h-3V5h3V7z M21,3h-3V2h3V3z M26,10h-3V9h3V10z M26,7h-3V5h3V7z M26,3h-3V2h3V3z M30,10h-2V9h2V10z M30,7
			h-2V5h2V7z M30,3h-2V2h2V3z M36,2h2v1h-2V2z M36,5h2v2h-2V5z M34,10h-2V9h2V10z M34,7h-2V5h2V7z M34,3h-2V2h2V3z M36,9h2v1h-2V9z"
			/>
	</g>
</g>
<g>
</g>
<g>
</g>
<g>
</g>
<g>
</g>
<g>
</g>
<g>
</g>
<g>
</g>
<g>
</g>
<g>
</g>
<g>
</g>
<g>
</g>
<g>
</g>
<g>
</g>
<g>
</g>
<g>
</g>
</svg>
