<?xml version="1.0" encoding="iso-8859-1"?>
<!-- Generator: Adobe Illustrator 16.0.4, SVG Export Plug-In . SVG Version: 6.00 Build 0)  -->
<!DOCTYPE svg PUBLIC "-//W3C//DTD SVG 1.1//EN" "http://www.w3.org/Graphics/SVG/1.1/DTD/svg11.dtd">
<svg version="1.1" id="Layer_1" xmlns="http://www.w3.org/2000/svg" xmlns:xlink="http://www.w3.org/1999/xlink" x="0px" y="0px"
	 width="44px" height="36px" viewBox="0 0 44 36" style="enable-background:new 0 0 44 36;" xml:space="preserve">
<g id="_x31_157-tennis-court_x40_2x.png">
	<g>
		<path d="M30,28H14h-2H0v4c0,1.104,0.896,2,2,2h19v-2h2v2h19c1.104,0,2-0.896,2-2v-4H32H30z M23,31h-2v-2h2V31z M21,35
			c0,0.553,0.447,1,1,1s1-0.447,1-1v-1h-2V35z M12,10H0v16h12V10z M14,10v7h7v-2h2v2h7v-7h-7v1h-2v-1H14z M23,12v2h-2v-2H23z M23,1
			c0-0.553-0.447-1-1-1s-1,0.447-1,1v1h2V1z M42,2H23v2h-2V2H2C0.896,2,0,2.896,0,4v4h12h2h16h2h12V4C44,2.896,43.104,2,42,2z M23,7
			h-2V5h2V7z M14,26h7v-1h2v1h7v-7h-7v2h-2v-2h-7V26z M21,22h2v2h-2V22z M32,26h12V10H32V26z"/>
	</g>
</g>
<g>
</g>
<g>
</g>
<g>
</g>
<g>
</g>
<g>
</g>
<g>
</g>
<g>
</g>
<g>
</g>
<g>
</g>
<g>
</g>
<g>
</g>
<g>
</g>
<g>
</g>
<g>
</g>
<g>
</g>
</svg>
