<?xml version="1.0" encoding="iso-8859-1"?>
<!-- Generator: Adobe Illustrator 16.0.4, SVG Export Plug-In . SVG Version: 6.00 Build 0)  -->
<!DOCTYPE svg PUBLIC "-//W3C//DTD SVG 1.1//EN" "http://www.w3.org/Graphics/SVG/1.1/DTD/svg11.dtd">
<svg version="1.1" id="Layer_1" xmlns="http://www.w3.org/2000/svg" xmlns:xlink="http://www.w3.org/1999/xlink" x="0px" y="0px"
	 width="44px" height="32px" viewBox="0 0 44 32" style="enable-background:new 0 0 44 32;" xml:space="preserve">
<g id="_x31_158-hockey-stick-and-puck_x40_2x.png">
	<g>
		<path d="M41,0c-0.829,0-1.579,0.337-2.122,0.88L13.938,25.819L3.625,24.062v0.005C3.423,24.024,3.215,24,3,24
			c-1.657,0-3,1.344-3,3v2c0,1.657,1.343,3,3,3h12c0.828,0,1.578-0.336,2.121-0.879l26-26C43.664,4.579,44,3.828,44,3
			C44,1.343,42.657,0,41,0z M10,8c5.522,0,10-1.791,10-4s-4.478-4-10-4S0,1.791,0,4S4.478,8,10,8z M10,16c5.522,0,10-2.238,10-5
			V7.314C17.851,8.933,14.176,10,10,10S2.149,8.933,0,7.314V11C0,13.762,4.478,16,10,16z"/>
	</g>
</g>
<g>
</g>
<g>
</g>
<g>
</g>
<g>
</g>
<g>
</g>
<g>
</g>
<g>
</g>
<g>
</g>
<g>
</g>
<g>
</g>
<g>
</g>
<g>
</g>
<g>
</g>
<g>
</g>
<g>
</g>
</svg>
