<?xml version="1.0" encoding="iso-8859-1"?>
<!-- Generator: Adobe Illustrator 16.0.4, SVG Export Plug-In . SVG Version: 6.00 Build 0)  -->
<!DOCTYPE svg PUBLIC "-//W3C//DTD SVG 1.1//EN" "http://www.w3.org/Graphics/SVG/1.1/DTD/svg11.dtd">
<svg version="1.1" id="Layer_1" xmlns="http://www.w3.org/2000/svg" xmlns:xlink="http://www.w3.org/1999/xlink" x="0px" y="0px"
	 width="40px" height="44px" viewBox="0 0 40 44" style="enable-background:new 0 0 40 44;" xml:space="preserve">
<g id="_x31_159-badminton-birdie_x40_2x.png">
	<g>
		<path d="M12,31.988h16v-2.002H12V31.988z M12,36c0,4.418,3.582,8,8,8s8-3.582,8-8v-2H12V36z M40,1c0-0.552-0.447-1-1-1
			c-0.226,0-0.429,0.079-0.596,0.205L38.4,0.2L31.094,5.68l-5.387-5.387C25.526,0.112,25.276,0,25,0
			c-0.309,0-0.574,0.148-0.758,0.368l-0.011-0.009L20,5.438l-4.231-5.079l-0.011,0.009C15.574,0.148,15.309,0,15,0
			s-0.574,0.148-0.758,0.368l-0.011-0.009L9.808,5.67L1.555,0.168v0.001C1.396,0.062,1.205,0,1,0C0.447,0,0,0.448,0,1
			c0,0.14,0.029,0.272,0.082,0.394H0.081l11.405,26.612h17.027L39.919,1.394h-0.001C39.971,1.272,40,1.14,40,1z M16,25
			c-0.441,0-0.805-0.291-0.937-0.688l-0.012,0.004l-4-12l0.012-0.004C11.029,12.213,11,12.111,11,12c0-0.553,0.447-1,1-1
			c0.441,0,0.805,0.291,0.937,0.688l0.012-0.004l4,12l-0.011,0.004C16.971,23.787,17,23.89,17,24C17,24.553,16.553,25,16,25z M21,24
			c0,0.553-0.447,1-1,1s-1-0.447-1-1V12c0-0.553,0.447-1,1-1s1,0.447,1,1V24z M28.948,12.316l-4,12l-0.012-0.004
			C24.805,24.709,24.441,25,24,25c-0.553,0-1-0.447-1-1c0-0.11,0.03-0.213,0.063-0.312l-0.012-0.004l4-12l0.012,0.004
			C27.195,11.291,27.559,11,28,11c0.553,0,1,0.447,1,1c0,0.111-0.029,0.213-0.063,0.312L28.948,12.316z"/>
	</g>
</g>
<g>
</g>
<g>
</g>
<g>
</g>
<g>
</g>
<g>
</g>
<g>
</g>
<g>
</g>
<g>
</g>
<g>
</g>
<g>
</g>
<g>
</g>
<g>
</g>
<g>
</g>
<g>
</g>
<g>
</g>
</svg>
