<?xml version="1.0" encoding="iso-8859-1"?>
<!-- Generator: Adobe Illustrator 16.0.4, SVG Export Plug-In . SVG Version: 6.00 Build 0)  -->
<!DOCTYPE svg PUBLIC "-//W3C//DTD SVG 1.1//EN" "http://www.w3.org/Graphics/SVG/1.1/DTD/svg11.dtd">
<svg version="1.1" id="Layer_1" xmlns="http://www.w3.org/2000/svg" xmlns:xlink="http://www.w3.org/1999/xlink" x="0px" y="0px"
	 width="44px" height="36px" viewBox="0 0 44 36" style="enable-background:new 0 0 44 36;" xml:space="preserve">
<g id="_x31_160-whistle_x40_2x.png">
	<g>
		<path d="M18,18c-2.209,0-4,1.791-4,4s1.791,4,4,4s4-1.791,4-4S20.209,18,18,18z M44,4c0-0.205-0.077-0.386-0.184-0.544
			l0.016-0.011l-2-3l-0.016,0.01C41.638,0.188,41.347,0,41,0c-0.1,0-0.189,0.029-0.279,0.057l-0.005-0.016l-5.601,1.791l4.164,6.355
			l4.339-3.401l-0.01-0.012C43.841,4.591,44,4.319,44,4z M33.139,2.465L13.747,8.666l0.005,0.015
			c-2.699,0.864-5.049,2.509-6.761,4.688C6.259,12.536,5.197,12,4,12c-2.209,0-4,1.791-4,4s1.791,4,4,4
			c0.056,0,0.106-0.014,0.161-0.017C4.066,20.644,4,21.313,4,22c0,7.732,6.268,14,14,14s14-6.268,14-14
			c0-2.446-0.661-4.723-1.767-6.721l7.466-5.854L33.139,2.465z M4.615,17.894C4.42,17.957,4.216,18,4,18c-1.104,0-2-0.896-2-2
			s0.896-2,2-2c0.797,0,1.479,0.47,1.801,1.145C5.313,16.009,4.911,16.928,4.615,17.894z M18,28c-3.313,0-6-2.687-6-6s2.687-6,6-6
			s6,2.687,6,6S21.313,28,18,28z"/>
	</g>
</g>
<g>
</g>
<g>
</g>
<g>
</g>
<g>
</g>
<g>
</g>
<g>
</g>
<g>
</g>
<g>
</g>
<g>
</g>
<g>
</g>
<g>
</g>
<g>
</g>
<g>
</g>
<g>
</g>
<g>
</g>
</svg>
