<?xml version="1.0" encoding="iso-8859-1"?>
<!-- Generator: Adobe Illustrator 16.0.4, SVG Export Plug-In . SVG Version: 6.00 Build 0)  -->
<!DOCTYPE svg PUBLIC "-//W3C//DTD SVG 1.1//EN" "http://www.w3.org/Graphics/SVG/1.1/DTD/svg11.dtd">
<svg version="1.1" id="Layer_1" xmlns="http://www.w3.org/2000/svg" xmlns:xlink="http://www.w3.org/1999/xlink" x="0px" y="0px"
	 width="40px" height="44px" viewBox="0 0 40 44" style="enable-background:new 0 0 40 44;" xml:space="preserve">
<g id="_x31_163-islamic-moon-and-star_x40_2x.png">
	<g>
		<path d="M8.999,22c0-10.414,8.206-18.857,18.232-18.857c2.39,0,4.666,0.492,6.755,1.363C30.427,1.691,25.999,0,21.18,0
			C9.482,0,0,9.85,0,22s9.482,22,21.18,22c4.819,0,9.247-1.69,12.806-4.506c-2.089,0.871-4.365,1.363-6.755,1.363
			C17.205,40.857,8.999,32.414,8.999,22z M40,22.402c0-0.342-0.211-0.628-0.506-0.742l0.002-0.005l-5.509-2.24v-6.606
			c0-0.441-0.351-0.8-0.783-0.8c-0.261,0-0.481,0.14-0.624,0.34l-0.011-0.008l-3.868,5.115l-5.646-2.196l-0.007,0.02
			c-0.085-0.036-0.172-0.072-0.271-0.072c-0.432,0-0.783,0.357-0.783,0.8c0,0.175,0.066,0.327,0.16,0.459l-0.012,0.009l3.627,5.128
			l-3.627,5.128l0.012,0.009c-0.093,0.132-0.16,0.284-0.16,0.46c0,0.441,0.351,0.799,0.783,0.799c0.076,0,0.14-0.033,0.208-0.055
			l0.007,0.024l6.033-1.761l3.544,5.457l0.011-0.008c0.142,0.2,0.362,0.34,0.624,0.34c0.432,0,0.783-0.358,0.783-0.8v-6.364
			l5.445-1.661l-0.003-0.013C39.756,23.062,40,22.768,40,22.402z"/>
	</g>
</g>
<g>
</g>
<g>
</g>
<g>
</g>
<g>
</g>
<g>
</g>
<g>
</g>
<g>
</g>
<g>
</g>
<g>
</g>
<g>
</g>
<g>
</g>
<g>
</g>
<g>
</g>
<g>
</g>
<g>
</g>
</svg>
