<?xml version="1.0" encoding="iso-8859-1"?>
<!-- Generator: Adobe Illustrator 16.0.4, SVG Export Plug-In . SVG Version: 6.00 Build 0)  -->
<!DOCTYPE svg PUBLIC "-//W3C//DTD SVG 1.1//EN" "http://www.w3.org/Graphics/SVG/1.1/DTD/svg11.dtd">
<svg version="1.1" id="Layer_1" xmlns="http://www.w3.org/2000/svg" xmlns:xlink="http://www.w3.org/1999/xlink" x="0px" y="0px"
	 width="44px" height="44px" viewBox="0 0 44 44" style="enable-background:new 0 0 44 44;" xml:space="preserve">
<g id="_x31_165-taoism-yin-yang_x40_2x.png">
	<g>
		<path d="M23.171,0.06C22.785,0.021,22.394,0,22,0C9.85,0,0,9.85,0,22s9.85,22,22,22s22-9.85,22-22
			C44,10.245,34.774,0.672,23.171,0.06z M22,8c2.209,0,4,1.791,4,4s-1.791,4-4,4s-4-1.791-4-4S19.791,8,22,8z M22,42L22,42
			c-0.358,0-0.707-0.035-1.06-0.054C15.993,41.467,12,37.671,12,33c0-5.424,4.576-10.214,10-10.214
			c6.292,0,11.786-5.102,11.786-11.394c0-2.736-1.041-5.245-2.732-7.21C37.544,7.488,42,14.217,42,22C42,33.046,33.046,42,22,42z
			 M22,28c-2.209,0-4,1.791-4,4s1.791,4,4,4s4-1.791,4-4S24.209,28,22,28z"/>
	</g>
</g>
<g>
</g>
<g>
</g>
<g>
</g>
<g>
</g>
<g>
</g>
<g>
</g>
<g>
</g>
<g>
</g>
<g>
</g>
<g>
</g>
<g>
</g>
<g>
</g>
<g>
</g>
<g>
</g>
<g>
</g>
</svg>
