<?xml version="1.0" encoding="iso-8859-1"?>
<!-- Generator: Adobe Illustrator 16.0.4, SVG Export Plug-In . SVG Version: 6.00 Build 0)  -->
<!DOCTYPE svg PUBLIC "-//W3C//DTD SVG 1.1//EN" "http://www.w3.org/Graphics/SVG/1.1/DTD/svg11.dtd">
<svg version="1.1" id="Layer_1" xmlns="http://www.w3.org/2000/svg" xmlns:xlink="http://www.w3.org/1999/xlink" x="0px" y="0px"
	 width="44px" height="44px" viewBox="0 0 44 44" style="enable-background:new 0 0 44 44;" xml:space="preserve">
<g id="_x31_166-hindu-om-symbol_x40_2x.png">
	<g>
		<path d="M28.577,5.834C28.685,5.943,28.835,6.01,29,6.01s0.315-0.066,0.424-0.176l2.395-2.404
			c0.107-0.108,0.175-0.259,0.175-0.425s-0.067-0.316-0.175-0.425l-2.395-2.404C29.315,0.067,29.165,0,29,0
			s-0.315,0.067-0.423,0.176L26.183,2.58c-0.108,0.108-0.176,0.259-0.176,0.425s0.067,0.316,0.175,0.425L28.577,5.834z
			 M29.216,14.011c6.533,0,11.349-4.37,11.551-4.571c0.307-0.308,0.307-0.805,0-1.112l-3.142-3.144
			c-0.152-0.153-0.354-0.23-0.556-0.23c-0.178,0-0.356,0.061-0.503,0.182C36.521,5.173,32.021,9,27.645,9
			c-4.193,0-7.144-5.548-7.172-5.599c-0.144-0.249-0.406-0.396-0.682-0.396c-0.067,0-0.135,0.009-0.202,0.026
			c-0.344,0.092-0.583,0.403-0.583,0.76C19.006,3.894,19.122,14.011,29.216,14.011z M34.571,15.966
			c-8.643,0-7.071,9.076-13.357,9.076c-0.785,0-1.571-0.315-2.356-0.693C22,23.592,22,21.325,22,16.79
			c0-3.023-2.357-6.803-7.071-6.803c-4.715,0-10.214,3.779-10.214,3.779l3.143,5.291C11,16.79,14,16.034,14,16.034s2,0,2,3.023
			c0,2.942-1.857,3.023-1.857,3.023s-2.356,0-3.143,0s-0.786,0.756-0.786,0.756s1.572,3.778,2.357,4.534
			c0.786,0.756,0.786,1.512,2.357,1.512c3.232,0,3.054,4.535,3.054,4.535s-0.152,4.535-5.062,4.535C2.705,37.953,0,25.104,0,25.104
			C0,37.197,5.849,44,13.705,44c7.857,0,10.215-6.047,10.215-9.826c0-3.778-1.134-4.174-1.134-4.174S24,30,25,30
			c4.071,0,6-8.05,9-8.05c1.643,0,4,2.268,4,5.29c0,5.291-1,6.809-5,6.809S27,32,27,32s0,7.971,7.571,7.971
			c8.644,0,9.429-9.575,9.429-12.6C44,24.349,42.429,15.966,34.571,15.966z"/>
	</g>
</g>
<g>
</g>
<g>
</g>
<g>
</g>
<g>
</g>
<g>
</g>
<g>
</g>
<g>
</g>
<g>
</g>
<g>
</g>
<g>
</g>
<g>
</g>
<g>
</g>
<g>
</g>
<g>
</g>
<g>
</g>
</svg>
