<?xml version="1.0" encoding="iso-8859-1"?>
<!-- Generator: Adobe Illustrator 16.0.4, SVG Export Plug-In . SVG Version: 6.00 Build 0)  -->
<!DOCTYPE svg PUBLIC "-//W3C//DTD SVG 1.1//EN" "http://www.w3.org/Graphics/SVG/1.1/DTD/svg11.dtd">
<svg version="1.1" id="Layer_1" xmlns="http://www.w3.org/2000/svg" xmlns:xlink="http://www.w3.org/1999/xlink" x="0px" y="0px"
	 width="38px" height="44px" viewBox="0 0 38 44" style="enable-background:new 0 0 38 44;" xml:space="preserve">
<g id="_x31_168-sikh-symbol_x40_2x.png">
	<g>
		<path d="M29.5,8c0,0,3.5,6.512,3.5,10.511c0,4.281-2.042,7.805-9.69,13.82l-2.46,1.844c-0.273-0.054-0.547-0.108-0.85-0.137
			v-1.624l3.707-3.707c0.033-0.033,0.051-0.079,0.079-0.116s0.054-0.074,0.076-0.114c0.035-0.062,0.061-0.127,0.081-0.197
			c0.021-0.064,0.033-0.127,0.039-0.194C23.985,28.056,24,28.03,24,28c0-0.021-0.015-0.038-0.017-0.06
			c-0.008-0.175-0.046-0.35-0.149-0.506c-0.003-0.005-0.068-0.109-0.172-0.323C27.967,25.44,31,21.555,31,17
			c0-4.651-3.158-8.611-7.609-10.219c0.283-0.876,0.5-1.333,0.507-1.346c0.007-0.016,0.006-0.032,0.013-0.049
			c0.034-0.076,0.052-0.158,0.064-0.245c0.007-0.039,0.02-0.076,0.021-0.115C23.996,5.017,24,5.01,24,5
			c0-0.043-0.02-0.079-0.024-0.12c-0.01-0.084-0.019-0.167-0.05-0.245c-0.015-0.039-0.041-0.071-0.061-0.107
			c-0.042-0.079-0.086-0.154-0.148-0.22c-0.004-0.004-0.006-0.011-0.01-0.015l-4-4C19.526,0.112,19.276,0,19,0
			s-0.526,0.112-0.707,0.293l-4,4c-0.004,0.004-0.006,0.011-0.01,0.015c-0.062,0.065-0.106,0.142-0.148,0.22
			c-0.02,0.036-0.045,0.068-0.061,0.107c-0.031,0.079-0.04,0.161-0.05,0.245C14.02,4.922,14,4.958,14,5
			c0,0.009,0.005,0.016,0.005,0.024c0.002,0.06,0.022,0.116,0.035,0.176c0.017,0.075,0.026,0.15,0.059,0.219
			c0.003,0.006,0.002,0.011,0.004,0.017c0.007,0.013,0.224,0.47,0.507,1.346C10.158,8.389,7,12.349,7,17
			c0,4.555,3.033,8.44,7.338,10.111c-0.104,0.214-0.169,0.318-0.172,0.323c-0.104,0.156-0.142,0.331-0.149,0.506
			C14.015,27.962,14,27.979,14,28c0,0.03,0.015,0.056,0.018,0.085c0.006,0.067,0.019,0.13,0.039,0.194
			c0.021,0.07,0.046,0.135,0.081,0.197c0.022,0.04,0.048,0.077,0.076,0.114s0.046,0.083,0.079,0.116L18,32.414v1.624
			c-0.303,0.028-0.576,0.083-0.85,0.137l-2.461-1.845C7.041,26.315,5,22.792,5,18.511C5,14.512,8.5,8,8.5,8S0,11.513,0,19.352
			C0,28.271,9,33.946,9,38c0,0,2.161-3.348,4.947-3.727l0.961,0.721c-1.383,0.812-2.182,1.999-2.576,3.129
			C11.558,38.398,11,39.131,11,40c0,1.104,0.896,2,2,2s2-0.896,2-2c0-0.593-0.263-1.119-0.672-1.485
			c0.426-1.008,1.414-2.191,3.672-2.464v2.133c-1.162,0.413-2,1.512-2,2.816c0,1.657,1.343,3,3,3s3-1.343,3-3
			c0-1.305-0.838-2.403-2-2.816v-2.133c2.259,0.272,3.247,1.457,3.673,2.463C23.263,38.88,23,39.407,23,40c0,1.104,0.896,2,2,2
			s2-0.896,2-2c0-0.869-0.558-1.602-1.332-1.877c-0.395-1.13-1.193-2.317-2.576-3.129l0.961-0.721C26.839,34.652,29,38,29,38
			c0-4.054,9-9.729,9-18.648C38,11.513,29.5,8,29.5,8z M22.858,8.733C26.457,10.096,29,13.267,29,17c0,3.694-2.489,6.84-6.027,8.227
			C22.496,23.567,22,20.909,22,16.99C22,13.405,22.416,10.656,22.858,8.733z M15.027,25.227C11.489,23.84,9,20.694,9,17
			c0-3.733,2.543-6.904,6.142-8.267C15.584,10.656,16,13.405,16,16.99C16,20.909,15.504,23.567,15.027,25.227z"/>
	</g>
</g>
<g>
</g>
<g>
</g>
<g>
</g>
<g>
</g>
<g>
</g>
<g>
</g>
<g>
</g>
<g>
</g>
<g>
</g>
<g>
</g>
<g>
</g>
<g>
</g>
<g>
</g>
<g>
</g>
<g>
</g>
</svg>
