<?xml version="1.0" encoding="iso-8859-1"?>
<!-- Generator: Adobe Illustrator 16.0.4, SVG Export Plug-In . SVG Version: 6.00 Build 0)  -->
<!DOCTYPE svg PUBLIC "-//W3C//DTD SVG 1.1//EN" "http://www.w3.org/Graphics/SVG/1.1/DTD/svg11.dtd">
<svg version="1.1" id="Layer_1" xmlns="http://www.w3.org/2000/svg" xmlns:xlink="http://www.w3.org/1999/xlink" x="0px" y="0px"
	 width="44px" height="44px" viewBox="0 0 44 44" style="enable-background:new 0 0 44 44;" xml:space="preserve">
<g id="_x31_169-bah&#xE1;_x27_&#xED;-star_x40_2x.png">
	<g>
		<path d="M44,18.857c0-0.416-0.325-0.747-0.734-0.775l0.001-0.009l-10.731-0.716l4.344-11.581l-0.006-0.002
			c0.032-0.086,0.056-0.177,0.056-0.274c0-0.434-0.352-0.785-0.786-0.785c-0.171,0-0.327,0.056-0.454,0.148l-0.002-0.002
			l-10.062,7.186L22.763,0.595l-0.015,0.004C22.662,0.258,22.367,0,22,0s-0.662,0.258-0.748,0.599l-0.015-0.004l-2.862,11.452
			L8.313,4.861L8.306,4.872C8.177,4.78,8.027,4.715,7.857,4.715c-0.435,0-0.786,0.352-0.786,0.785c0,0.099,0.036,0.184,0.07,0.269
			L7.121,5.776l4.344,11.581L0.733,18.073l0.001,0.009C0.325,18.11,0,18.441,0,18.857c0,0.314,0.188,0.582,0.456,0.707l-0.003,0.005
			l10.815,5.047L3.35,33.255l0.011,0.011c-0.131,0.137-0.218,0.314-0.218,0.521c0,0.434,0.353,0.785,0.786,0.785
			c0.075,0,0.144-0.022,0.212-0.043l0.004,0.013l9.873-2.856v11.53c0,0.434,0.353,0.785,0.786,0.785
			c0.277,0,0.509-0.151,0.648-0.368l0.013,0.008L22,33.667l6.535,9.973l0.013-0.008C28.688,43.849,28.92,44,29.196,44
			c0.435,0,0.786-0.352,0.786-0.785v-11.53l9.873,2.856l0.004-0.013c0.068,0.021,0.137,0.043,0.212,0.043
			c0.435,0,0.786-0.352,0.786-0.785c0-0.206-0.087-0.384-0.218-0.521l0.011-0.011l-7.919-8.639l10.815-5.047l-0.002-0.005
			C43.812,19.439,44,19.172,44,18.857z"/>
	</g>
</g>
<g>
</g>
<g>
</g>
<g>
</g>
<g>
</g>
<g>
</g>
<g>
</g>
<g>
</g>
<g>
</g>
<g>
</g>
<g>
</g>
<g>
</g>
<g>
</g>
<g>
</g>
<g>
</g>
<g>
</g>
</svg>
