<?xml version="1.0" encoding="iso-8859-1"?>
<!-- Generator: Adobe Illustrator 16.0.4, SVG Export Plug-In . SVG Version: 6.00 Build 0)  -->
<!DOCTYPE svg PUBLIC "-//W3C//DTD SVG 1.1//EN" "http://www.w3.org/Graphics/SVG/1.1/DTD/svg11.dtd">
<svg version="1.1" id="Layer_1" xmlns="http://www.w3.org/2000/svg" xmlns:xlink="http://www.w3.org/1999/xlink" x="0px" y="0px"
	 width="44.001px" height="44px" viewBox="0 0 44.001 44" style="enable-background:new 0 0 44.001 44;" xml:space="preserve">
<g id="_x31_181-dog_x40_2x.png">
	<g>
		<path d="M25.675,40.136C24.622,39.37,23.86,39,22,39c-1.86,0-2.621,0.37-3.674,1.136C17.183,40.966,15.759,42,13.201,42h-0.246
			c1.714,1.219,4.63,2,9.046,2c4.417,0,7.332-0.781,9.047-2H30.8C28.242,42,26.818,40.966,25.675,40.136z M11.624,1.171
			C10.243,0.479,8.718,0,7.287,0C6.17,0,5.114,0.286,4.239,0.976C0.554,3.875-0.318,7.645,0.094,10.35
			c0.259,1.698,1.02,2.962,1.987,3.298C2.769,13.887,3.393,14,3.964,14c0.464,0,0.897-0.083,1.31-0.227l0.327-4.882
			C5.619,6.633,6.502,2.915,11.624,1.171z M39.762,0.976C38.887,0.286,37.831,0,36.714,0c-1.442,0-2.979,0.485-4.368,1.188
			c3.798,1.373,6.027,4.289,6.055,8.101l0.308,4.478C39.125,13.914,39.565,14,40.037,14c0.571,0,1.196-0.113,1.883-0.353
			c0.967-0.336,1.729-1.6,1.988-3.298C44.319,7.645,43.447,3.875,39.762,0.976z M30,2.598c-2-0.398-5-0.598-8-0.598
			s-6,0.199-8,0.598c-4,0.795-6.399,2.85-6.399,6.365l-1.6,23.876c0,3.516,2.865,7.161,6.4,7.161h0.8
			c3.993,0,4.001-2.988,8.776-2.999c-0.184-0.076-7.985-3.322-7.985-7.316c0-3.145,3.583-5.692,8.001-5.692
			c4.419,0,8.002,2.548,8.002,5.692c0,3.991-7.789,7.235-7.984,7.316C26.8,37.006,26.804,40,30.8,40h0.8
			C35.135,40,38,36.155,38,32.64L36.4,9.361C36.4,5.845,34,3.393,30,2.598z M18,18c-1.104,0-2-0.896-2-2s0.896-2,2-2s2,0.896,2,2
			S19.105,18,18,18z M26,18c-1.104,0-2-0.896-2-2s0.896-2,2-2s2,0.896,2,2S27.105,18,26,18z"/>
	</g>
</g>
<g>
</g>
<g>
</g>
<g>
</g>
<g>
</g>
<g>
</g>
<g>
</g>
<g>
</g>
<g>
</g>
<g>
</g>
<g>
</g>
<g>
</g>
<g>
</g>
<g>
</g>
<g>
</g>
<g>
</g>
</svg>
