<?xml version="1.0" encoding="iso-8859-1"?>
<!-- Generator: Adobe Illustrator 16.0.4, SVG Export Plug-In . SVG Version: 6.00 Build 0)  -->
<!DOCTYPE svg PUBLIC "-//W3C//DTD SVG 1.1//EN" "http://www.w3.org/Graphics/SVG/1.1/DTD/svg11.dtd">
<svg version="1.1" id="Layer_1" xmlns="http://www.w3.org/2000/svg" xmlns:xlink="http://www.w3.org/1999/xlink" x="0px" y="0px"
	 width="44px" height="40.004px" viewBox="0 0 44 40.004" style="enable-background:new 0 0 44 40.004;" xml:space="preserve">
<g id="_x31_182-cat_x40_2x.png">
	<g>
		<path d="M40.083,12.774c1.052-4.29,2.369-9.979,1.802-11.251c-0.168-0.378-0.603-0.896-1.719-1.221C39.485,0.104,38.733,0,37.9,0
			c-2.23,0-5.055,0.761-8.647,2.429C34.029,4.334,37.904,8.057,40.083,12.774z M44,19.004c0-0.553-0.448-1-1-1
			c-0.049,0-0.091,0.021-0.139,0.028l-0.003-0.019l-3.111,0.445c0.106,0.652,0.176,1.315,0.213,1.989l-10.819,1.546l-0.003-0.019
			c-0.047,0.007-0.089,0.028-0.139,0.028c-0.552,0-1-0.447-1-1c0-0.503,0.377-0.901,0.861-0.972l-0.003-0.019l10.889-1.555
			C38.327,9.701,30.933,3.019,22,3.019S5.673,9.701,4.253,18.459l10.889,1.555l-0.003,0.019C15.623,20.103,16,20.501,16,21.004
			c0,0.553-0.448,1-1,1c-0.049,0-0.091-0.021-0.139-0.028l-0.003,0.019L4.04,20.448c0.038-0.674,0.107-1.337,0.213-1.989
			l-3.111-0.445l-0.003,0.019C1.092,18.025,1.049,18.004,1,18.004c-0.552,0-1,0.447-1,1c0,0.503,0.377,0.902,0.861,0.972
			l-0.003,0.019l3.179,0.454c-0.023,0.353-0.05,0.704-0.05,1.063c0,0.219,0.019,0.432,0.028,0.647l-0.874-0.146l-0.003,0.019
			C3.091,22.025,3.049,22.004,3,22.004c-0.552,0-1,0.448-1,1c0,0.503,0.377,0.901,0.861,0.972l-0.003,0.019l1.343,0.224
			c-0.097-0.675-0.159-1.36-0.183-2.058l11.123,1.854l-0.003,0.019C15.623,24.103,16,24.501,16,25.004c0,0.553-0.448,1-1,1
			c-0.049,0-0.091-0.021-0.139-0.028l-0.003,0.019L4.202,24.218C5.48,33.145,12.95,40.004,22,40.004s16.52-6.859,17.798-15.786
			l-10.657,1.776l-0.003-0.019c-0.047,0.007-0.089,0.028-0.139,0.028c-0.552,0-1-0.447-1-1c0-0.503,0.377-0.901,0.861-0.972
			l-0.003-0.019l11.123-1.854c-0.023,0.697-0.085,1.383-0.183,2.058l1.343-0.224l-0.003-0.019C41.623,23.905,42,23.507,42,23.004
			c0-0.552-0.448-1-1-1c-0.049,0-0.091,0.021-0.139,0.028l-0.003-0.019l-0.874,0.146c0.009-0.216,0.028-0.429,0.028-0.647
			c0-0.359-0.027-0.711-0.05-1.063l3.179-0.454l-0.003-0.019C43.623,19.906,44,19.507,44,19.004z M18,12.004c1.104,0,2,0.896,2,2
			s-0.896,2-2,2s-2-0.896-2-2S16.896,12.004,18,12.004z M32.043,27.688c0.175-0.523,0.735-0.808,1.264-0.633
			c0.523,0.176,0.806,0.742,0.631,1.266c-0.05,0.15-1.28,3.684-5.943,3.684c-2.974,0-4.941-0.995-6.012-2.323
			c-1.064,1.326-3.007,2.323-5.979,2.323c-4.663,0-5.893-3.533-5.943-3.684c-0.174-0.523,0.108-1.09,0.631-1.266
			c0.529-0.175,1.089,0.109,1.264,0.633c0.031,0.086,0.863,2.316,4.048,2.316c3.054,0,4.732-1.31,4.951-2.693
			c-0.862-0.673-1.943-1.791-1.943-3.2c0-1.56,0-3.118,2.987-3.118s2.987,1.559,2.987,3.118c0,1.409-1.081,2.529-1.943,3.202
			c0.221,1.383,1.899,2.691,4.951,2.691C31.18,30.004,32.012,27.773,32.043,27.688z M26,16.004c-1.104,0-2-0.896-2-2s0.896-2,2-2
			s2,0.896,2,2S27.104,16.004,26,16.004z M14.748,2.429C11.155,0.761,8.331,0,6.1,0C5.267,0,4.515,0.104,3.833,0.303
			c-1.116,0.324-1.55,0.843-1.719,1.221c-0.567,1.272,0.75,6.961,1.802,11.251C6.096,8.057,9.971,4.334,14.748,2.429z"/>
	</g>
</g>
<g>
</g>
<g>
</g>
<g>
</g>
<g>
</g>
<g>
</g>
<g>
</g>
<g>
</g>
<g>
</g>
<g>
</g>
<g>
</g>
<g>
</g>
<g>
</g>
<g>
</g>
<g>
</g>
<g>
</g>
</svg>
