<?xml version="1.0" encoding="iso-8859-1"?>
<!-- Generator: Adobe Illustrator 16.0.4, SVG Export Plug-In . SVG Version: 6.00 Build 0)  -->
<!DOCTYPE svg PUBLIC "-//W3C//DTD SVG 1.1//EN" "http://www.w3.org/Graphics/SVG/1.1/DTD/svg11.dtd">
<svg version="1.1" id="Layer_1" xmlns="http://www.w3.org/2000/svg" xmlns:xlink="http://www.w3.org/1999/xlink" x="0px" y="0px"
	 width="43.977px" height="44.003px" viewBox="0 0 43.977 44.003" style="enable-background:new 0 0 43.977 44.003;"
	 xml:space="preserve">
<g id="_x31_183-pig_x40_2x.png">
	<g>
		<path d="M11.632,4.584C9.752,1.653,5.979,0,0.764,0H0v0.791c0,5.7,1.018,9.669,3.087,11.998C5.136,9.336,8.085,6.483,11.632,4.584
			z M21.988,3.99c-11.041,0-19.991,8.957-19.991,20.007c0,11.049,8.95,20.006,19.991,20.006s19.991-8.957,19.991-20.006
			C41.979,12.947,33.029,3.99,21.988,3.99z M25.988,14.003c1.104,0,2,0.896,2,2s-0.896,2-2,2s-2-0.896-2-2
			S24.884,14.003,25.988,14.003z M17.988,14.003c1.104,0,2,0.896,2,2s-0.896,2-2,2s-2-0.896-2-2S16.884,14.003,17.988,14.003z
			 M21.988,40.003c-5.523,0-10-4.478-10-10s4.477-10,10-10s10,4.478,10,10S27.511,40.003,21.988,40.003z M43.213,0
			c-5.215,0-8.988,1.653-10.869,4.584c3.547,1.899,6.496,4.752,8.545,8.205c2.069-2.329,3.087-6.298,3.087-11.998V0H43.213z
			 M21.988,22.003c-4.418,0-8,3.582-8,8s3.582,8,8,8s8-3.582,8-8S26.407,22.003,21.988,22.003z M19.988,33.003c0,0.553-0.448,1-1,1
			s-1-0.447-1-1v-6c0-0.552,0.448-1,1-1s1,0.448,1,1V33.003z M25.988,33.003c0,0.553-0.448,1-1,1s-1-0.447-1-1v-6
			c0-0.552,0.448-1,1-1s1,0.448,1,1V33.003z"/>
	</g>
</g>
<g>
</g>
<g>
</g>
<g>
</g>
<g>
</g>
<g>
</g>
<g>
</g>
<g>
</g>
<g>
</g>
<g>
</g>
<g>
</g>
<g>
</g>
<g>
</g>
<g>
</g>
<g>
</g>
<g>
</g>
</svg>
