<?xml version="1.0" encoding="iso-8859-1"?>
<!-- Generator: Adobe Illustrator 16.0.4, SVG Export Plug-In . SVG Version: 6.00 Build 0)  -->
<!DOCTYPE svg PUBLIC "-//W3C//DTD SVG 1.1//EN" "http://www.w3.org/Graphics/SVG/1.1/DTD/svg11.dtd">
<svg version="1.1" id="Layer_1" xmlns="http://www.w3.org/2000/svg" xmlns:xlink="http://www.w3.org/1999/xlink" x="0px" y="0px"
	 width="44.021px" height="44.006px" viewBox="0 0 44.021 44.006" style="enable-background:new 0 0 44.021 44.006;"
	 xml:space="preserve">
<g id="_x31_184-cow_x40_2x.png">
	<g>
		<path d="M10.306,4.979c0.132-0.706,0.261-1.329,0.39-1.912C8.519,1.102,5.153,0,0.793,0H0v0.8c0,6.015,1.169,10.096,3.517,12.396
			C5.156,9.867,7.506,6.956,10.306,4.979z M8.01,21.506c0-2.643-1.207-5.004-3.099-6.562c-1.199,2.699-1.913,5.676-1.913,8.633
			c0,1.915,0.105,3.758,0.337,5.513C6.106,27.688,8.01,24.822,8.01,21.506z M35.01,16.006c0,3.716,2.537,6.83,5.97,7.73
			c0-0.055,0.005-0.105,0.005-0.16c0-4.512-1.65-9.071-4.182-12.614C35.684,12.339,35.01,14.093,35.01,16.006z M22.01,30.006
			c-7.82,0-14.389,2.799-16.373,6.605c2.587,4.517,7.479,7.395,16.354,7.395c8.898,0,13.794-2.891,16.375-7.427
			C36.364,32.789,29.808,30.006,22.01,30.006z M20.01,38.006c0,1.104-0.896,2-2,2s-2-0.896-2-2v-4c0-1.104,0.896-2,2-2s2,0.896,2,2
			V38.006z M28.01,38.006c0,1.104-0.896,2-2,2s-2-0.896-2-2v-4c0-1.104,0.896-2,2-2s2,0.896,2,2V38.006z M43.227,0
			c-4.359,0-7.725,1.102-9.902,3.067c0.128,0.583,0.258,1.206,0.389,1.912c2.8,1.977,5.15,4.888,6.789,8.216
			c2.348-2.3,3.518-6.381,3.518-12.396V0H43.227z M33.01,16.006c0-2.552,0.964-4.873,2.537-6.64
			c-1.118-1.278-2.356-2.369-3.671-3.195c-0.29-1.641-0.702-3.714-1.129-4.988c-0.264-0.784-0.708-1.177-1.389-1.177
			c-1.131,0-2.914,0.895-5.596,3.058c-0.594-0.067-1.186-0.104-1.77-0.104c-0.583,0-1.175,0.036-1.769,0.104
			c-2.682-2.162-4.465-3.058-5.596-3.058c-0.681,0-1.125,0.393-1.389,1.177c-0.428,1.274-0.84,3.348-1.13,4.988
			c-2.467,1.551-4.668,4.024-6.291,6.954c2.542,1.916,4.193,4.952,4.193,8.381c0,4.309-2.597,8.006-6.309,9.625
			c0.247,1.185,0.544,2.336,0.962,3.4c2.962-3.843,9.608-6.525,17.347-6.525c7.718,0,14.347,2.669,17.321,6.495
			c1.005-2.572,1.452-5.538,1.59-8.717C36.402,24.823,33.01,20.812,33.01,16.006z M18.01,18.006c-1.104,0-2-0.896-2-2s0.896-2,2-2
			s2,0.896,2,2S19.115,18.006,18.01,18.006z M26.01,18.006c-1.104,0-2-0.896-2-2s0.896-2,2-2s2,0.896,2,2
			S27.115,18.006,26.01,18.006z"/>
	</g>
</g>
<g>
</g>
<g>
</g>
<g>
</g>
<g>
</g>
<g>
</g>
<g>
</g>
<g>
</g>
<g>
</g>
<g>
</g>
<g>
</g>
<g>
</g>
<g>
</g>
<g>
</g>
<g>
</g>
<g>
</g>
</svg>
