<?xml version="1.0" encoding="iso-8859-1"?>
<!-- Generator: Adobe Illustrator 16.0.4, SVG Export Plug-In . SVG Version: 6.00 Build 0)  -->
<!DOCTYPE svg PUBLIC "-//W3C//DTD SVG 1.1//EN" "http://www.w3.org/Graphics/SVG/1.1/DTD/svg11.dtd">
<svg version="1.1" id="Layer_1" xmlns="http://www.w3.org/2000/svg" xmlns:xlink="http://www.w3.org/1999/xlink" x="0px" y="0px"
	 width="31.977px" height="44.021px" viewBox="0 0 31.977 44.021" style="enable-background:new 0 0 31.977 44.021;"
	 xml:space="preserve">
<g id="_x31_185-horse_x40_2x.png">
	<g>
		<path d="M30.684,10.119c0.182,0.539,0.362,1.195,0.541,1.916c1.04-2.678,0.947-6.402-0.326-11.296L30.707,0l-0.71,0.196
			c-3.442,0.95-5.977,2.505-7.542,4.474C25.914,5.398,29.607,6.922,30.684,10.119z M1.293,10.119
			c1.074-3.188,4.751-4.713,8.203-5.443C7.931,2.704,5.395,1.147,1.949,0.196L1.239,0L1.046,0.739
			c-1.28,4.924-1.368,8.664-0.307,11.346C0.922,11.344,1.107,10.671,1.293,10.119z M15.988,30.008
			c-7.054,0-13.103,2.275-15.676,5.514c1.492,4.248,7.97,8.499,15.676,8.499s14.184-4.251,15.676-8.499
			C29.091,32.283,23.042,30.008,15.988,30.008z M13.988,38.008c0,1.104-0.896,2-2,2s-2-0.896-2-2v-4c0-1.104,0.896-2,2-2
			s2,0.896,2,2V38.008z M21.988,38.008c0,1.104-0.896,2-2,2s-2-0.896-2-2v-4c0-1.104,0.896-2,2-2s2,0.896,2,2V38.008z M31.977,33.08
			c-0.123-5.212-1.653-17.766-3.188-22.324c-0.756-2.245-3.654-3.422-6.501-4.047c-0.455-2.714-2.298-5.13-2.298-5.13l-1.2,1.179
			c-0.8-1.571-2-2.75-2-2.75c-0.8,0.786-1.6,3.929-1.6,3.929c-0.8-2.357-2.4-3.929-2.4-3.929C11.2,2.608,10.315,5.201,9.896,6.663
			c-2.913,0.612-5.934,1.793-6.708,4.093C1.653,15.314,0.123,27.868,0,33.08c3.378-3.048,9.27-5.072,15.988-5.072
			S28.598,30.032,31.977,33.08z M19.988,14.008c1.104,0,2,0.896,2,2s-0.896,2-2,2s-2-0.896-2-2S18.884,14.008,19.988,14.008z
			 M11.988,18.008c-1.104,0-2-0.896-2-2s0.896-2,2-2s2,0.896,2,2S13.093,18.008,11.988,18.008z"/>
	</g>
</g>
<g>
</g>
<g>
</g>
<g>
</g>
<g>
</g>
<g>
</g>
<g>
</g>
<g>
</g>
<g>
</g>
<g>
</g>
<g>
</g>
<g>
</g>
<g>
</g>
<g>
</g>
<g>
</g>
<g>
</g>
</svg>
