<?xml version="1.0" encoding="iso-8859-1"?>
<!-- Generator: Adobe Illustrator 16.0.4, SVG Export Plug-In . SVG Version: 6.00 Build 0)  -->
<!DOCTYPE svg PUBLIC "-//W3C//DTD SVG 1.1//EN" "http://www.w3.org/Graphics/SVG/1.1/DTD/svg11.dtd">
<svg version="1.1" id="Layer_1" xmlns="http://www.w3.org/2000/svg" xmlns:xlink="http://www.w3.org/1999/xlink" x="0px" y="0px"
	 width="32px" height="43.962px" viewBox="0 0 32 43.962" style="enable-background:new 0 0 32 43.962;" xml:space="preserve">
<g id="_x31_186-chicken_x40_2x.png">
	<g>
		<path d="M20.863,30.071c-2.791-2.418-4.418-2.948-4.855-3.054c-0.438,0.105-2.064,0.636-4.855,3.054
			c-1.781,1.544-2.055,5.031,3.459,12.096c0.438,0.561,0.904,1.159,1.396,1.795c0.492-0.636,0.959-1.234,1.396-1.795
			C22.918,35.103,22.645,31.615,20.863,30.071z M23.236,7.354c0.191-0.232,0.319-0.397,0.319-0.397
			c0.907-1.598,0.391-3.629-1.153-4.536c-0.502-0.294-1.049-0.435-1.592-0.435c-0.492,0-0.973,0.13-1.414,0.354
			C18.693,0.94,17.44,0,15.999,0c-1.442,0-2.694,0.94-3.397,2.337c-0.441-0.222-0.921-0.352-1.412-0.352
			c-0.543,0-1.09,0.141-1.592,0.435C8.054,3.327,7.537,5.358,8.444,6.956c0,0,0.106,0.136,0.256,0.318
			C1.999,9.932,0,16.227,0,20.782c0,8.08,4.255,14.573,9.656,17.51c-2.144-4.334-2.322-7.558,0.185-9.729
			c4.111-3.563,6.167-3.563,6.167-3.563s2.056,0,6.168,3.563c2.504,2.17,2.327,5.39,0.189,9.717C27.756,35.338,32,28.852,32,20.782
			C32,16.273,29.661,10.057,23.236,7.354z M12,18c-1.104,0-2-0.896-2-2s0.896-2,2-2s2,0.896,2,2S13.104,18,12,18z M20,18
			c-1.104,0-2-0.896-2-2s0.896-2,2-2s2,0.896,2,2S21.104,18,20,18z"/>
	</g>
</g>
<g>
</g>
<g>
</g>
<g>
</g>
<g>
</g>
<g>
</g>
<g>
</g>
<g>
</g>
<g>
</g>
<g>
</g>
<g>
</g>
<g>
</g>
<g>
</g>
<g>
</g>
<g>
</g>
<g>
</g>
</svg>
