<?xml version="1.0" encoding="iso-8859-1"?>
<!-- Generator: Adobe Illustrator 16.0.4, SVG Export Plug-In . SVG Version: 6.00 Build 0)  -->
<!DOCTYPE svg PUBLIC "-//W3C//DTD SVG 1.1//EN" "http://www.w3.org/Graphics/SVG/1.1/DTD/svg11.dtd">
<svg version="1.1" id="Layer_1" xmlns="http://www.w3.org/2000/svg" xmlns:xlink="http://www.w3.org/1999/xlink" x="0px" y="0px"
	 width="43.969px" height="44px" viewBox="0 0 43.969 44" style="enable-background:new 0 0 43.969 44;" xml:space="preserve">
<g id="_x31_187-elephant_x40_2x.png">
	<g>
		<path d="M8.669,2.529C7.583,2.194,6.567,2,5.656,2c-1.132,0-2.122,0.254-2.95,0.764C0.91,3.87,0,6.029,0,9.181
			c0,2.218,0.281,3.806,0.554,5.675c0.524,3.6,1.02,7-0.521,12.117c-0.072,0.241-0.026,0.503,0.125,0.706
			C0.309,27.881,0.548,28,0.801,28c0.151,0,2.8-0.039,5.84-1.64c-1.727-3.616-2.672-7.859-2.672-12.273
			C3.969,10.49,5.146,5.889,8.669,2.529z M33.678,29.37c-0.051-0.159-0.116-0.284-0.174-0.43c2.856-3.802,4.465-9.009,4.465-14.503
			c0-5.775-4-14.438-16-14.438c-12.666,0-16,8.662-16,14.438c0,5.494,1.611,10.691,4.474,14.481
			c-0.061,0.151-0.129,0.284-0.183,0.451l-2.184,6.856c-0.346,1.398,0.256,1.77,0.965,1.77c0.67,0,1.435-0.332,1.585-0.439
			c0.75-0.455,2.804-2.237,4.855-4.234c0.465,0.25,0.939,0.481,1.433,0.678h3.055c0.553,0,1,0.448,1,1c0,0.553-0.447,1-1,1h-3.041
			c-0.099,0.736-0.227,1.424-0.374,2h5.415c0.553,0,1,0.447,1,1s-0.447,1-1,1h-5.946c-0.155,0.894-0.134,1.863,0.433,2.648
			C17.318,43.847,18.626,44,19.969,44h4c1.343,0,2.65-0.153,3.514-1.352c0.866-1.201,0.467-2.838,0.091-3.965
			c-0.354-1.063-0.663-2.817-0.735-4.598c0.568-0.21,1.126-0.441,1.655-0.729c2.04,1.982,4.073,3.747,4.818,4.199
			c0.15,0.107,0.915,0.439,1.585,0.439c0.709,0,1.311-0.371,0.965-1.77L33.678,29.37z M17.969,18c-1.104,0-2-0.896-2-2s0.896-2,2-2
			s2,0.896,2,2S19.073,18,17.969,18z M25.969,18c-1.104,0-2-0.896-2-2s0.896-2,2-2s2,0.896,2,2S27.073,18,25.969,18z M43.415,14.855
			c0.272-1.869,0.554-3.457,0.554-5.675c0-3.151-0.91-5.311-2.706-6.417C40.435,2.254,39.444,2,38.312,2
			c-0.984,0-2.088,0.221-3.275,0.61c3.538,3.353,4.932,7.907,4.932,11.477c0,4.408-0.943,8.647-2.666,12.261
			C40.354,27.962,43.016,28,43.168,28c0.253,0,0.492-0.119,0.643-0.321c0.151-0.203,0.197-0.465,0.125-0.706
			C42.396,21.855,42.891,18.455,43.415,14.855z"/>
	</g>
</g>
<g>
</g>
<g>
</g>
<g>
</g>
<g>
</g>
<g>
</g>
<g>
</g>
<g>
</g>
<g>
</g>
<g>
</g>
<g>
</g>
<g>
</g>
<g>
</g>
<g>
</g>
<g>
</g>
<g>
</g>
</svg>
