<?xml version="1.0" encoding="iso-8859-1"?>
<!-- Generator: Adobe Illustrator 16.0.4, SVG Export Plug-In . SVG Version: 6.00 Build 0)  -->
<!DOCTYPE svg PUBLIC "-//W3C//DTD SVG 1.1//EN" "http://www.w3.org/Graphics/SVG/1.1/DTD/svg11.dtd">
<svg version="1.1" id="Layer_1" xmlns="http://www.w3.org/2000/svg" xmlns:xlink="http://www.w3.org/1999/xlink" x="0px" y="0px"
	 width="44px" height="35.994px" viewBox="0 0 44 35.994" style="enable-background:new 0 0 44 35.994;" xml:space="preserve">
<g id="_x31_188-fish_x40_2x.png">
	<g>
		<path d="M35.445,11.568C33.328,13.938,32,17.282,32,21c0,3.725,1.333,7.075,3.457,9.445C40.578,27.637,44,23.239,44,21.008
			C44,18.774,40.573,14.374,35.445,11.568z M38,23c-1.104,0-2-0.896-2-2s0.896-2,2-2s2,0.896,2,2S39.104,23,38,23z M40,10
			c0,1.104,0.896,2,2,2s2-0.896,2-2s-0.896-2-2-2S40,8.896,40,10z M39,6c1.657,0,3-1.343,3-3s-1.343-3-3-3s-3,1.343-3,3
			S37.343,6,39,6z M33.596,10.663c-0.3-0.13-0.599-0.26-0.906-0.376C32.096,9.609,26.827,4,15.008,4
			c-0.404,0-0.77,0.244-0.923,0.617c-0.155,0.374-0.069,0.804,0.216,1.09c0.025,0.025,2.328,2.404,2.642,5.599
			c-3.659,1.883-6.496,4.6-7.914,6.911c-2.102-2.125-3.945-3.209-5.486-3.209C2.478,15.008,0,15.593,0,21.007
			s2.478,5.998,3.542,5.998c1.541,0,3.385-1.083,5.485-3.208c1.406,2.294,4.209,4.986,7.825,6.868
			c-0.721,1.699-1.159,3.413-0.608,4.402c0.192,0.347,0.669,0.927,1.698,0.927c2.879,0.003,5.038-1.384,6.605-3.045
			c0.481,0.039,0.968,0.06,1.459,0.06c2.72,0,5.288-0.654,7.6-1.657C31.377,28.658,30,25.018,30,21
			C30,16.989,31.373,13.354,33.596,10.663z"/>
	</g>
</g>
<g>
</g>
<g>
</g>
<g>
</g>
<g>
</g>
<g>
</g>
<g>
</g>
<g>
</g>
<g>
</g>
<g>
</g>
<g>
</g>
<g>
</g>
<g>
</g>
<g>
</g>
<g>
</g>
<g>
</g>
</svg>
