<?xml version="1.0" encoding="iso-8859-1"?>
<!-- Generator: Adobe Illustrator 16.0.4, SVG Export Plug-In . SVG Version: 6.00 Build 0)  -->
<!DOCTYPE svg PUBLIC "-//W3C//DTD SVG 1.1//EN" "http://www.w3.org/Graphics/SVG/1.1/DTD/svg11.dtd">
<svg version="1.1" id="Layer_1" xmlns="http://www.w3.org/2000/svg" xmlns:xlink="http://www.w3.org/1999/xlink" x="0px" y="0px"
	 width="44.011px" height="44px" viewBox="0 0 44.011 44" style="enable-background:new 0 0 44.011 44;" xml:space="preserve">
<g id="_x31_190-worm_x40_2x.png">
	<g>
		<path d="M20.091,23.536C20.599,23.393,22.171,23,24.133,23c1.227,0,2.366,0.183,3.426,0.489c-0.693-1.93-0.941-3.476-0.821-4.729
			c-2.869-1.84-5.674-2.836-7.349-3.316c-0.72,2.445-0.716,5.218,0.03,8.26C19.638,23.644,19.847,23.576,20.091,23.536z M42.86,1.15
			C42.093,0.384,41.087,0,40.081,0c-1.005,0-2.011,0.384-2.778,1.15c-2.174,2.174-3.349,2.928-5.522,3.851
			c0.814,1.614,2.27,3.96,4.735,6.464c1.968-0.981,3.856-2.271,6.345-4.759C44.395,5.172,44.395,2.685,42.86,1.15z M41.007,4
			c-0.985,0-1.8-0.714-1.965-1.652C39.354,2.143,39.7,2,40.081,2c0.516,0,1,0.201,1.364,0.564c0.313,0.312,0.476,0.722,0.524,1.154
			C41.681,3.884,41.362,4,41.007,4z M3.93,36.143c-2.17,0-3.93,1.759-3.93,3.929S1.76,44,3.93,44c2.108,0,5.487-0.146,9.071-0.851
			c-0.212-3.343-1.369-5.941-2.334-7.556C8.608,35.948,6.33,36.143,3.93,36.143z M3.732,41.98C2.763,41.88,2,41.067,2,40.071
			c0-0.384,0.116-0.74,0.311-1.041C3.27,39.178,4.007,39.999,4.007,41C4.007,41.36,3.901,41.69,3.732,41.98z M27.875,6.624
			c-3.753,1.668-6.349,4.027-7.767,6.947c1.729,0.506,4.408,1.477,7.22,3.202c0.731-1.323,2.055-2.221,3.739-2.969
			c0.95-0.423,1.815-0.77,2.652-1.105c0.301-0.121,0.589-0.24,0.877-0.36c-2.407-2.553-3.851-4.917-4.67-6.581
			C29.288,6.018,28.616,6.295,27.875,6.624z M19.646,37.973c-0.938-1.658-1.308-1.834-2.402-2.354
			c-0.686-0.325-1.219-0.809-1.601-1.382c-0.884,0.351-1.851,0.666-2.916,0.928c0.975,1.772,1.986,4.336,2.237,7.545
			c2.264-0.576,4.521-1.418,6.539-2.595C20.863,39.659,20.218,38.982,19.646,37.973z M27.357,25.492
			C26.261,25.123,25.133,25,24.117,25c-2.032,0-3.617,0.492-3.617,0.492c-2.441,0.355-1.715,1.642-1.715,1.642
			s0.362,2.265-0.856,3.284c-1.22,1.02-1.356,2.686,0.137,3.394c1.492,0.707,2.156,1.174,3.292,3.174
			C22.141,38.367,23.116,39,24.176,39c0.476,0,0.968-0.127,1.468-0.372c4.373-4.214,4.286-9.031,4.286-9.031
			S30.649,26.599,27.357,25.492z"/>
	</g>
</g>
<g>
</g>
<g>
</g>
<g>
</g>
<g>
</g>
<g>
</g>
<g>
</g>
<g>
</g>
<g>
</g>
<g>
</g>
<g>
</g>
<g>
</g>
<g>
</g>
<g>
</g>
<g>
</g>
<g>
</g>
</svg>
