<?xml version="1.0" encoding="iso-8859-1"?>
<!-- Generator: Adobe Illustrator 16.0.4, SVG Export Plug-In . SVG Version: 6.00 Build 0)  -->
<!DOCTYPE svg PUBLIC "-//W3C//DTD SVG 1.1//EN" "http://www.w3.org/Graphics/SVG/1.1/DTD/svg11.dtd">
<svg version="1.1" id="Layer_1" xmlns="http://www.w3.org/2000/svg" xmlns:xlink="http://www.w3.org/1999/xlink" x="0px" y="0px"
	 width="32px" height="44px" viewBox="0 0 32 44" style="enable-background:new 0 0 32 44;" xml:space="preserve">
<g id="_x31_192-file-type-music_x40_2x.png">
	<g>
		<path d="M20,11V0H2C0.896,0,0,0.896,0,2v40c0,1.105,0.896,2,2,2h28c1.104,0,2-0.895,2-2V12H21C20.448,12,20,11.553,20,11z
			 M22.808,16.039C22.872,16.025,22.932,16,23,16c0.552,0,1,0.448,1,1v15h-0.245c-0.551,1.163-2.016,2-3.755,2c-2.209,0-4-1.343-4-3
			c0-1.656,1.791-3,4-3c0.732,0,1.41,0.158,2,0.416V18.22l-8,1.601V34h-0.245c-0.551,1.163-2.016,2-3.755,2c-2.209,0-4-1.343-4-3
			c0-1.656,1.791-3,4-3c0.732,0,1.41,0.158,2,0.416V19c0-0.484,0.351-0.869,0.808-0.961l-0.004-0.02l10-2L22.808,16.039z M22,0v10
			h10L22,0z"/>
	</g>
</g>
<g>
</g>
<g>
</g>
<g>
</g>
<g>
</g>
<g>
</g>
<g>
</g>
<g>
</g>
<g>
</g>
<g>
</g>
<g>
</g>
<g>
</g>
<g>
</g>
<g>
</g>
<g>
</g>
<g>
</g>
</svg>
