<?xml version="1.0" encoding="iso-8859-1"?>
<!-- Generator: Adobe Illustrator 16.0.4, SVG Export Plug-In . SVG Version: 6.00 Build 0)  -->
<!DOCTYPE svg PUBLIC "-//W3C//DTD SVG 1.1//EN" "http://www.w3.org/Graphics/SVG/1.1/DTD/svg11.dtd">
<svg version="1.1" id="Layer_1" xmlns="http://www.w3.org/2000/svg" xmlns:xlink="http://www.w3.org/1999/xlink" x="0px" y="0px"
	 width="32px" height="44px" viewBox="0 0 32 44" style="enable-background:new 0 0 32 44;" xml:space="preserve">
<g id="_x31_195-file-type-html_x40_2x.png">
	<g>
		<path d="M22,0v10h10L22,0z M20,11V0H2C0.896,0,0,0.896,0,2v40c0,1.105,0.896,2,2,2h28c1.104,0,2-0.895,2-2V12H21
			C20.448,12,20,11.553,20,11z M12.515,23.857L8.944,26l3.571,2.143l-0.009,0.015C12.796,28.332,13,28.637,13,29
			c0,0.553-0.448,1-1,1c-0.188,0-0.355-0.066-0.506-0.157l-0.009,0.015l-5-3l0.009-0.015C6.204,26.668,6,26.363,6,26
			s0.204-0.668,0.494-0.843l-0.009-0.015l5-3l0.009,0.015C11.645,22.066,11.812,22,12,22c0.552,0,1,0.447,1,1
			c0,0.363-0.204,0.668-0.494,0.843L12.515,23.857z M17.929,21.371l-2,10l-0.003-0.001C15.778,31.738,15.421,32,15,32
			c-0.552,0-1-0.447-1-1c0-0.131,0.029-0.255,0.075-0.37l-0.003-0.001l2-10l0.003,0.001C16.222,20.262,16.579,20,17,20
			c0.552,0,1,0.448,1,1c0,0.132-0.029,0.256-0.075,0.37L17.929,21.371z M26,26c0,0.363-0.204,0.668-0.494,0.843l0.009,0.015l-5,3
			l-0.009-0.015C20.355,29.934,20.188,30,20,30c-0.552,0-1-0.447-1-1c0-0.363,0.204-0.668,0.494-0.843l-0.009-0.015L23.056,26
			l-3.571-2.143l0.009-0.015C19.204,23.668,19,23.363,19,23c0-0.553,0.448-1,1-1c0.188,0,0.355,0.066,0.506,0.157l0.009-0.015l5,3
			l-0.009,0.015C25.796,25.332,26,25.637,26,26z"/>
	</g>
</g>
<g>
</g>
<g>
</g>
<g>
</g>
<g>
</g>
<g>
</g>
<g>
</g>
<g>
</g>
<g>
</g>
<g>
</g>
<g>
</g>
<g>
</g>
<g>
</g>
<g>
</g>
<g>
</g>
<g>
</g>
</svg>
