<?xml version="1.0" encoding="iso-8859-1"?>
<!-- Generator: Adobe Illustrator 16.0.4, SVG Export Plug-In . SVG Version: 6.00 Build 0)  -->
<!DOCTYPE svg PUBLIC "-//W3C//DTD SVG 1.1//EN" "http://www.w3.org/Graphics/SVG/1.1/DTD/svg11.dtd">
<svg version="1.1" id="Layer_1" xmlns="http://www.w3.org/2000/svg" xmlns:xlink="http://www.w3.org/1999/xlink" x="0px" y="0px"
	 width="32px" height="44px" viewBox="0 0 32 44" style="enable-background:new 0 0 32 44;" xml:space="preserve">
<g id="_x31_196-file-type-code_x40_2x.png">
	<g>
		<path d="M22,0v10h10L22,0z M20,11V0H2C0.896,0,0,0.896,0,2v40c0,1.105,0.896,2,2,2h28c1.104,0,2-0.895,2-2V12H21
			C20.448,12,20,11.553,20,11z M14,20h-1c0,0-1,0-1,1s0,1,0,3s-1.5,2-1.5,2s1.5,0,1.5,2s0,3,0,3s0,1,1,1s1,0,1,0v2h-2c0,0-2,0-2-2
			s0-1,0-3s-2-2-2-2v-2c0,0,2,0,2-2s0-3,0-3s0-2,2-2s2,0,2,0V20z M22,20c0,0,0,1,0,3s2,2,2,2v2c0,0-2,0-2,2s0,1,0,3s-2,2-2,2h-2v-2
			c0,0,0,0,1,0s1-1,1-1s0-1,0-3s1.5-2,1.5-2S20,26,20,24s0-2,0-3s-1-1-1-1h-1v-2c0,0,0,0,2,0S22,20,22,20z"/>
	</g>
</g>
<g>
</g>
<g>
</g>
<g>
</g>
<g>
</g>
<g>
</g>
<g>
</g>
<g>
</g>
<g>
</g>
<g>
</g>
<g>
</g>
<g>
</g>
<g>
</g>
<g>
</g>
<g>
</g>
<g>
</g>
</svg>
