<?xml version="1.0" encoding="iso-8859-1"?>
<!-- Generator: Adobe Illustrator 16.0.4, SVG Export Plug-In . SVG Version: 6.00 Build 0)  -->
<!DOCTYPE svg PUBLIC "-//W3C//DTD SVG 1.1//EN" "http://www.w3.org/Graphics/SVG/1.1/DTD/svg11.dtd">
<svg version="1.1" id="Layer_1" xmlns="http://www.w3.org/2000/svg" xmlns:xlink="http://www.w3.org/1999/xlink" x="0px" y="0px"
	 width="32px" height="44px" viewBox="0 0 32 44" style="enable-background:new 0 0 32 44;" xml:space="preserve">
<g id="_x31_197-file-type-zip_x40_2x.png">
	<g>
		<path d="M22,0v10h10L22,0z M20,11V0h-2h-2v2h2v2h-2v2h2v2h-2v2h2v2h-2v2h2v2h-2v2h2v2h-2v2h2v2h-2v2h0.002H18v2c0,0,2,6,2,8
			c0,1-1,2-2,2h-4c-1,0-2-1-2-2c0-2,2-8,2-8v-2v-2h2v-2h-2v-2h2v-2h-2v-2h2v-2h-2v-2h2v-2h-2V8h2V6h-2V4h2V2h-2V0H2
			C0.896,0,0,0.896,0,2v40c0,1.105,0.896,2,2,2h28c1.104,0,2-0.895,2-2V12H21C20.448,12,20,11.553,20,11z M15,36h2
			c0.483,0,0.956-0.545,0.988-1.108C17.927,33.864,16.968,32,16,32s-1.927,1.864-1.988,2.892C14.044,35.455,14.517,36,15,36z"/>
	</g>
</g>
<g>
</g>
<g>
</g>
<g>
</g>
<g>
</g>
<g>
</g>
<g>
</g>
<g>
</g>
<g>
</g>
<g>
</g>
<g>
</g>
<g>
</g>
<g>
</g>
<g>
</g>
<g>
</g>
<g>
</g>
</svg>
