<?xml version="1.0" encoding="iso-8859-1"?>
<!-- Generator: Adobe Illustrator 16.0.4, SVG Export Plug-In . SVG Version: 6.00 Build 0)  -->
<!DOCTYPE svg PUBLIC "-//W3C//DTD SVG 1.1//EN" "http://www.w3.org/Graphics/SVG/1.1/DTD/svg11.dtd">
<svg version="1.1" id="Layer_1" xmlns="http://www.w3.org/2000/svg" xmlns:xlink="http://www.w3.org/1999/xlink" x="0px" y="0px"
	 width="32px" height="44px" viewBox="0 0 32 44" style="enable-background:new 0 0 32 44;" xml:space="preserve">
<g id="_x31_199-file-type-tabular-data_x40_2x.png">
	<g>
		<path d="M24,32h-7v4h7V32z M24,26h-7v4h7V26z M24,20h-7v4h7V20z M22,0v10h10L22,0z M20,11V0H2C0.896,0,0,0.896,0,2v40
			c0,1.105,0.896,2,2,2h28c1.104,0,2-0.895,2-2V12H21C20.448,12,20,11.553,20,11z M26,38H6V18h20V38z M15,32H8v4h7V32z M15,26H8v4h7
			V26z M15,20H8v4h7V20z"/>
	</g>
</g>
<g>
</g>
<g>
</g>
<g>
</g>
<g>
</g>
<g>
</g>
<g>
</g>
<g>
</g>
<g>
</g>
<g>
</g>
<g>
</g>
<g>
</g>
<g>
</g>
<g>
</g>
<g>
</g>
<g>
</g>
</svg>
