<?xml version="1.0" encoding="iso-8859-1"?>
<!-- Generator: Adobe Illustrator 16.0.4, SVG Export Plug-In . SVG Version: 6.00 Build 0)  -->
<!DOCTYPE svg PUBLIC "-//W3C//DTD SVG 1.1//EN" "http://www.w3.org/Graphics/SVG/1.1/DTD/svg11.dtd">
<svg version="1.1" id="Layer_1" xmlns="http://www.w3.org/2000/svg" xmlns:xlink="http://www.w3.org/1999/xlink" x="0px" y="0px"
	 width="32px" height="44px" viewBox="0 0 32 44" style="enable-background:new 0 0 32 44;" xml:space="preserve">
<g id="_x31_201-file-type-film_x40_2x.png">
	<g>
		<path d="M20,11V0H2C0.896,0,0,0.896,0,2v40c0,1.105,0.896,2,2,2h28c1.104,0,2-0.895,2-2V12H21C20.448,12,20,11.553,20,11z M26,17
			v18c0,0.553-0.448,1-1,1H7c-0.552,0-1-0.447-1-1V17c0-0.553,0.448-1,1-1h18C25.552,16,26,16.447,26,17z M20,18h-8v7h8V18z M24,22
			h-2v3h2V22z M24,32h-2v2h2V32z M22,0v10h10L22,0z M24,18h-2v2h2V18z M24,27h-2v3h2V27z M10,27H8v3h2V27z M20,27h-8v7h8V27z M10,32
			H8v2h2V32z M10,22H8v3h2V22z M10,18H8v2h2V18z"/>
	</g>
</g>
<g>
</g>
<g>
</g>
<g>
</g>
<g>
</g>
<g>
</g>
<g>
</g>
<g>
</g>
<g>
</g>
<g>
</g>
<g>
</g>
<g>
</g>
<g>
</g>
<g>
</g>
<g>
</g>
<g>
</g>
</svg>
