<?xml version="1.0" encoding="iso-8859-1"?>
<!-- Generator: Adobe Illustrator 16.0.4, SVG Export Plug-In . SVG Version: 6.00 Build 0)  -->
<!DOCTYPE svg PUBLIC "-//W3C//DTD SVG 1.1//EN" "http://www.w3.org/Graphics/SVG/1.1/DTD/svg11.dtd">
<svg version="1.1" id="Layer_1" xmlns="http://www.w3.org/2000/svg" xmlns:xlink="http://www.w3.org/1999/xlink" x="0px" y="0px"
	 width="32px" height="44px" viewBox="0 0 32 44" style="enable-background:new 0 0 32 44;" xml:space="preserve">
<g id="_x31_206-file-type-bar-chart_x40_2x.png">
	<g>
		<path d="M22,0v10h10L22,0z M20,11V0H2C0.896,0,0,0.896,0,2v40c0,1.105,0.896,2,2,2h28c1.104,0,2-0.895,2-2V12H21
			C20.448,12,20,11.553,20,11z M12,36H8V26h4V36z M18,36h-4V22h4V36z M24,36h-4V16h4V36z"/>
	</g>
</g>
<g>
</g>
<g>
</g>
<g>
</g>
<g>
</g>
<g>
</g>
<g>
</g>
<g>
</g>
<g>
</g>
<g>
</g>
<g>
</g>
<g>
</g>
<g>
</g>
<g>
</g>
<g>
</g>
<g>
</g>
</svg>
