<?xml version="1.0" encoding="iso-8859-1"?>
<!-- Generator: Adobe Illustrator 16.0.4, SVG Export Plug-In . SVG Version: 6.00 Build 0)  -->
<!DOCTYPE svg PUBLIC "-//W3C//DTD SVG 1.1//EN" "http://www.w3.org/Graphics/SVG/1.1/DTD/svg11.dtd">
<svg version="1.1" id="Layer_1" xmlns="http://www.w3.org/2000/svg" xmlns:xlink="http://www.w3.org/1999/xlink" x="0px" y="0px"
	 width="32px" height="44px" viewBox="0 0 32 44" style="enable-background:new 0 0 32 44;" xml:space="preserve">
<g id="_x31_208-file-type-pencil_x40_2x.png">
	<g>
		<path d="M22,0v10h10L22,0z M20,11V0H2C0.896,0,0,0.896,0,2v40c0,1.105,0.896,2,2,2h28c1.104,0,2-0.895,2-2V12H21
			C20.448,12,20,11.553,20,11z M11.121,35.121C9.949,36.293,6,36,6,36s-0.293-3.949,0.879-5.121l0.293-0.293l4.242,4.242
			L11.121,35.121z M12.828,33.414l-4.242-4.242l10.586-10.586l4.242,4.242L12.828,33.414z M26,19c0,0.828-0.336,1.578-0.879,2.121
			l-0.293,0.293l-4.242-4.242l0.292-0.292C21.421,16.336,22.171,16,23,16C24.657,16,26,17.344,26,19z"/>
	</g>
</g>
<g>
</g>
<g>
</g>
<g>
</g>
<g>
</g>
<g>
</g>
<g>
</g>
<g>
</g>
<g>
</g>
<g>
</g>
<g>
</g>
<g>
</g>
<g>
</g>
<g>
</g>
<g>
</g>
<g>
</g>
</svg>
