<?xml version="1.0" encoding="iso-8859-1"?>
<!-- Generator: Adobe Illustrator 16.0.4, SVG Export Plug-In . SVG Version: 6.00 Build 0)  -->
<!DOCTYPE svg PUBLIC "-//W3C//DTD SVG 1.1//EN" "http://www.w3.org/Graphics/SVG/1.1/DTD/svg11.dtd">
<svg version="1.1" id="Layer_1" xmlns="http://www.w3.org/2000/svg" xmlns:xlink="http://www.w3.org/1999/xlink" x="0px" y="0px"
	 width="32px" height="44px" viewBox="0 0 32 44" style="enable-background:new 0 0 32 44;" xml:space="preserve">
<g id="_x31_209-file-type-vector_x40_2x.png">
	<g>
		<path d="M22,0v10h10L22,0z M20,11V0H2C0.896,0,0,0.896,0,2v40c0,1.105,0.896,2,2,2h28c1.104,0,2-0.895,2-2V12H21
			C20.448,12,20,11.553,20,11z M23,27c0,0.161-0.047,0.308-0.114,0.442l0.009,0.005L21,31.236V32h1c0.553,0,1,0.447,1,1
			s-0.447,1-1,1h-1v1c0,0.553-0.447,1-1,1s-1-0.447-1-1v-1h-6v1c0,0.553-0.447,1-1,1s-1-0.447-1-1v-1h-1c-0.553,0-1-0.447-1-1
			s0.447-1,1-1h1v-0.764l-1.895-3.789l0.009-0.005C9.047,27.308,9,27.161,9,27c0-0.188,0.066-0.355,0.157-0.506l-0.015-0.009l6-10
			l0.015,0.009C15.332,16.204,15.637,16,16,16s0.668,0.204,0.843,0.494l0.015-0.009l6,10l-0.015,0.009
			C22.934,26.645,23,26.812,23,27z M17,27c0,0.553-0.447,1-1,1s-1-0.447-1-1v-6.39l-3.86,6.434l1.755,3.509l-0.009,0.005
			C12.953,30.692,13,30.839,13,31v1h6v-1c0-0.161,0.047-0.308,0.114-0.442l-0.009-0.005l1.755-3.509L17,20.61V27z"/>
	</g>
</g>
<g>
</g>
<g>
</g>
<g>
</g>
<g>
</g>
<g>
</g>
<g>
</g>
<g>
</g>
<g>
</g>
<g>
</g>
<g>
</g>
<g>
</g>
<g>
</g>
<g>
</g>
<g>
</g>
<g>
</g>
</svg>
