<?xml version="1.0" encoding="iso-8859-1"?>
<!-- Generator: Adobe Illustrator 16.0.4, SVG Export Plug-In . SVG Version: 6.00 Build 0)  -->
<!DOCTYPE svg PUBLIC "-//W3C//DTD SVG 1.1//EN" "http://www.w3.org/Graphics/SVG/1.1/DTD/svg11.dtd">
<svg version="1.1" id="Layer_1" xmlns="http://www.w3.org/2000/svg" xmlns:xlink="http://www.w3.org/1999/xlink" x="0px" y="0px"
	 width="32px" height="44px" viewBox="0 0 32 44" style="enable-background:new 0 0 32 44;" xml:space="preserve">
<g id="_x31_210-file-type-secure_x40_2x.png">
	<g>
		<path d="M22,0v10h10L22,0z M16,28c-1.104,0-2,0.896-2,2s0.896,2,2,2s2-0.896,2-2S17.104,28,16,28z M16,18c-2.209,0-4,1.791-4,4v2
			h8v-2C20,19.791,18.209,18,16,18z M20,11V0H2C0.896,0,0,0.896,0,2v40c0,1.105,0.896,2,2,2h28c1.104,0,2-0.895,2-2V12H21
			C20.448,12,20,11.553,20,11z M24,26v8c0,1.104-0.896,2-2,2H10c-1.104,0-2-0.896-2-2v-8c0-1.104,0.896-2,2-2v-2
			c0-3.313,2.687-6,6-6s6,2.687,6,6v2C23.104,24,24,24.896,24,26z"/>
	</g>
</g>
<g>
</g>
<g>
</g>
<g>
</g>
<g>
</g>
<g>
</g>
<g>
</g>
<g>
</g>
<g>
</g>
<g>
</g>
<g>
</g>
<g>
</g>
<g>
</g>
<g>
</g>
<g>
</g>
<g>
</g>
</svg>
