<?xml version="1.0" encoding="iso-8859-1"?>
<!-- Generator: Adobe Illustrator 16.0.4, SVG Export Plug-In . SVG Version: 6.00 Build 0)  -->
<!DOCTYPE svg PUBLIC "-//W3C//DTD SVG 1.1//EN" "http://www.w3.org/Graphics/SVG/1.1/DTD/svg11.dtd">
<svg version="1.1" id="Layer_1" xmlns="http://www.w3.org/2000/svg" xmlns:xlink="http://www.w3.org/1999/xlink" x="0px" y="0px"
	 width="40px" height="44px" viewBox="0 0 40 44" style="enable-background:new 0 0 40 44;" xml:space="preserve">
<g id="_x31_214-document-delete_x40_2x.png">
	<g>
		<path d="M20,0.586V10h9.415L20,0.586z M29,20c0.338,0,0.669,0.025,1,0.051V12H19c-0.552,0-1-0.447-1-1V0H2C0.896,0,0,0.896,0,2v32
			c0,1.104,0.896,2,2,2h14.362C16.134,35.035,16,34.034,16,33C16,25.82,21.82,20,29,20z M29,22c-6.075,0-11,4.925-11,11
			s4.925,11,11,11s11-4.925,11-11S35.075,22,29,22z M33.786,36.371l-1.414,1.415L29,34.414l-3.371,3.372l-1.414-1.415L27.586,33
			l-3.372-3.371l1.415-1.414L29,31.586l3.372-3.371l1.414,1.414L30.415,33L33.786,36.371z"/>
	</g>
</g>
<g>
</g>
<g>
</g>
<g>
</g>
<g>
</g>
<g>
</g>
<g>
</g>
<g>
</g>
<g>
</g>
<g>
</g>
<g>
</g>
<g>
</g>
<g>
</g>
<g>
</g>
<g>
</g>
<g>
</g>
</svg>
