<?xml version="1.0" encoding="iso-8859-1"?>
<!-- Generator: Adobe Illustrator 16.0.4, SVG Export Plug-In . SVG Version: 6.00 Build 0)  -->
<!DOCTYPE svg PUBLIC "-//W3C//DTD SVG 1.1//EN" "http://www.w3.org/Graphics/SVG/1.1/DTD/svg11.dtd">
<svg version="1.1" id="Layer_1" xmlns="http://www.w3.org/2000/svg" xmlns:xlink="http://www.w3.org/1999/xlink" x="0px" y="0px"
	 width="44px" height="44px" viewBox="0 0 44 44" style="enable-background:new 0 0 44 44;" xml:space="preserve">
<g id="_x31_220-folder-error_x40_2x.png">
	<g>
		<path d="M40,8c0-2.209-1.791-4-4-4c0,0-10.279,0-17,0c-4,0-5-4-10-4C8.508,0,4,0,4,0C1.791,0,0,1.791,0,4v6h40V8z M33,20
			c2.58,0,4.979,0.761,7,2.057V12H0v18c0,2.21,1.791,4,4,4h16.051C20.025,33.67,20,33.338,20,33C20,25.82,25.82,20,33,20z M33,22
			c-6.075,0-11,4.925-11,11s4.925,11,11,11s11-4.925,11-11S39.075,22,33,22z M34,38h-2v-2h2V38z M34,34h-2v-6h2V34z"/>
	</g>
</g>
<g>
</g>
<g>
</g>
<g>
</g>
<g>
</g>
<g>
</g>
<g>
</g>
<g>
</g>
<g>
</g>
<g>
</g>
<g>
</g>
<g>
</g>
<g>
</g>
<g>
</g>
<g>
</g>
<g>
</g>
</svg>
