<?xml version="1.0" encoding="iso-8859-1"?>
<!-- Generator: Adobe Illustrator 16.0.4, SVG Export Plug-In . SVG Version: 6.00 Build 0)  -->
<!DOCTYPE svg PUBLIC "-//W3C//DTD SVG 1.1//EN" "http://www.w3.org/Graphics/SVG/1.1/DTD/svg11.dtd">
<svg version="1.1" id="Layer_1" xmlns="http://www.w3.org/2000/svg" xmlns:xlink="http://www.w3.org/1999/xlink" x="0px" y="0px"
	 width="44px" height="44px" viewBox="0 0 44 44" style="enable-background:new 0 0 44 44;" xml:space="preserve">
<g id="_x31_224-basket-delete_x40_2x.png">
	<g>
		<path d="M34.332,9.135C34.744,9.647,35,10.291,35,11c0,1.656-1.342,2.999-2.999,3H40l2-4h1h0c0.552,0,1-0.447,1-1s-0.448-1-1-1h-3
			h-6.558l0.901,1.126L34.332,9.135z M23.219,1.625l8,10l0.012-0.01C31.414,11.844,31.684,12,32,12c0.552,0,1-0.447,1-1
			c0-0.236-0.094-0.444-0.231-0.615l0.012-0.01l-8-10l-0.012,0.01C24.586,0.156,24.316,0,24,0c-0.552,0-1,0.447-1,1
			c0,0.236,0.094,0.444,0.231,0.615L23.219,1.625z M29.668,12.866l-0.011,0.008L25.758,8h-7.517l-3.899,4.874l-0.01-0.008
			C13.783,13.552,12.948,14,12.001,14h19.998C31.052,14,30.217,13.552,29.668,12.866z M22,26.094c0.567-0.9,1.236-1.727,2-2.461V21
			c0-0.553,0.448-1,1-1s1,0.447,1,1v1.058C28.022,20.762,30.42,20,33,20c1.82,0,3.551,0.377,5.123,1.052
			c0.245-1.918,0.469-3.744,0.626-5.052H5.251c0.424,3.522,1.343,10.909,1.788,13.191C7.67,32.427,9.298,34,12.016,34h8.035
			C20.025,33.669,20,33.338,20,33c0-1.772,0.357-3.461,1-5c-0.552,0-1-0.447-1-1v-6c0-0.553,0.448-1,1-1s1,0.447,1,1V26.094z M14,27
			c0,0.553-0.448,1-1,1s-1-0.447-1-1v-6c0-0.553,0.448-1,1-1s1,0.447,1,1V27z M18,27c0,0.553-0.448,1-1,1s-1-0.447-1-1v-6
			c0-0.553,0.448-1,1-1s1,0.447,1,1V27z M33,22c-6.075,0-11,4.925-11,11s4.925,11,11,11s11-4.925,11-11S39.075,22,33,22z
			 M37.786,36.371l-1.414,1.415L33,34.414l-3.371,3.372l-1.414-1.415L31.586,33l-3.372-3.371l1.415-1.414L33,31.586l3.372-3.371
			l1.414,1.414L34.415,33L37.786,36.371z M9,11c0-0.709,0.256-1.352,0.668-1.865L9.657,9.126L10.558,8H4H1C0.448,8,0,8.447,0,9
			s0.448,1,1,1c0,0,0,0,0,0h1l2,4h7.999C10.343,13.999,9,12.656,9,11z M12,12c0.316,0,0.586-0.156,0.769-0.385l0.012,0.01l8-10
			l-0.012-0.01C20.906,1.444,21,1.236,21,1c0-0.553-0.448-1-1-1c-0.316,0-0.586,0.156-0.769,0.385l-0.012-0.01l-8,10l0.012,0.01
			C11.094,10.556,11,10.764,11,11C11,11.553,11.448,12,12,12z"/>
	</g>
</g>
<g>
</g>
<g>
</g>
<g>
</g>
<g>
</g>
<g>
</g>
<g>
</g>
<g>
</g>
<g>
</g>
<g>
</g>
<g>
</g>
<g>
</g>
<g>
</g>
<g>
</g>
<g>
</g>
<g>
</g>
</svg>
