<?xml version="1.0" encoding="iso-8859-1"?>
<!-- Generator: Adobe Illustrator 16.0.4, SVG Export Plug-In . SVG Version: 6.00 Build 0)  -->
<!DOCTYPE svg PUBLIC "-//W3C//DTD SVG 1.1//EN" "http://www.w3.org/Graphics/SVG/1.1/DTD/svg11.dtd">
<svg version="1.1" id="Layer_1" xmlns="http://www.w3.org/2000/svg" xmlns:xlink="http://www.w3.org/1999/xlink" x="0px" y="0px"
	 width="44px" height="44px" viewBox="0 0 44 44" style="enable-background:new 0 0 44 44;" xml:space="preserve">
<g id="_x31_228-chat-checked_x40_2x.png">
	<g>
		<path d="M33,22c-6.075,0-11,4.925-11,11s4.925,11,11,11s11-4.925,11-11S39.075,22,33,22z M32.629,36.786l-0.016-0.016
			C32.442,36.906,32.235,37,32,37s-0.442-0.094-0.613-0.229l-0.016,0.016l-4.156-4.157l1.414-1.414L32,34.586l5.871-5.871
			l1.414,1.414L32.629,36.786z M33,20c3.812,0,7.229,1.65,9.606,4.263C43.492,22.311,44,20.208,44,18.004C44,8.061,34.15,0,22,0
			S0,8.061,0,18.004c0,5.902,3.486,11.125,8.85,14.409C8.475,34.588,7.215,37.228,3.995,40c0,0,7.936-0.007,12.628-4.557
			c1.201,0.248,2.449,0.39,3.718,0.475C20.125,34.979,20,34.005,20,33C20,25.82,25.82,20,33,20z"/>
	</g>
</g>
<g>
</g>
<g>
</g>
<g>
</g>
<g>
</g>
<g>
</g>
<g>
</g>
<g>
</g>
<g>
</g>
<g>
</g>
<g>
</g>
<g>
</g>
<g>
</g>
<g>
</g>
<g>
</g>
<g>
</g>
</svg>
