<?xml version="1.0" encoding="iso-8859-1"?>
<!-- Generator: Adobe Illustrator 16.0.4, SVG Export Plug-In . SVG Version: 6.00 Build 0)  -->
<!DOCTYPE svg PUBLIC "-//W3C//DTD SVG 1.1//EN" "http://www.w3.org/Graphics/SVG/1.1/DTD/svg11.dtd">
<svg version="1.1" id="Layer_1" xmlns="http://www.w3.org/2000/svg" xmlns:xlink="http://www.w3.org/1999/xlink" x="0px" y="0px"
	 width="44px" height="44px" viewBox="0 0 44 44" style="enable-background:new 0 0 44 44;" xml:space="preserve">
<g id="_x31_229-chat-delete_x40_2x.png">
	<g>
		<path d="M33,20c3.812,0,7.229,1.65,9.606,4.263C43.492,22.311,44,20.208,44,18.004C44,8.061,34.15,0,22,0S0,8.061,0,18.004
			c0,5.902,3.486,11.125,8.85,14.409C8.475,34.588,7.215,37.228,3.995,40c0,0,7.936-0.007,12.627-4.557
			c1.202,0.248,2.45,0.39,3.719,0.475C20.125,34.979,20,34.005,20,33C20,25.82,25.82,20,33,20z M33,22c-6.075,0-11,4.925-11,11
			s4.925,11,11,11s11-4.925,11-11S39.075,22,33,22z M37.785,36.371l-1.414,1.415L33,34.414l-3.371,3.372l-1.414-1.415L31.586,33
			l-3.371-3.371l1.414-1.414L33,31.586l3.371-3.371l1.414,1.414L34.414,33L37.785,36.371z"/>
	</g>
</g>
<g>
</g>
<g>
</g>
<g>
</g>
<g>
</g>
<g>
</g>
<g>
</g>
<g>
</g>
<g>
</g>
<g>
</g>
<g>
</g>
<g>
</g>
<g>
</g>
<g>
</g>
<g>
</g>
<g>
</g>
</svg>
