<?xml version="1.0" encoding="iso-8859-1"?>
<!-- Generator: Adobe Illustrator 16.0.4, SVG Export Plug-In . SVG Version: 6.00 Build 0)  -->
<!DOCTYPE svg PUBLIC "-//W3C//DTD SVG 1.1//EN" "http://www.w3.org/Graphics/SVG/1.1/DTD/svg11.dtd">
<svg version="1.1" id="Layer_1" xmlns="http://www.w3.org/2000/svg" xmlns:xlink="http://www.w3.org/1999/xlink" x="0px" y="0px"
	 width="44.006px" height="44px" viewBox="0 0 44.006 44" style="enable-background:new 0 0 44.006 44;" xml:space="preserve">
<g id="_x31_233-user-checked_x40_2x.png">
	<g>
		<path d="M23.241,24.438c-0.115-0.409-0.177-0.93-0.177-1.653c0-3.272,2.843-5.384,2.869-5.403l0.149-0.107l0.083-0.159
			c0.953-1.838,0.487-3.387,0.169-4.085c2.072-4.331-0.436-7.913-0.968-8.598C24.018,0.772,21.141,0,18.954,0
			c-2.593,0-4.897,1.072-4.934,1.092C11.622,1.997,9.985,3.44,9.158,5.384c-1.336,3.137-0.124,6.583,0.315,7.642
			c-1.077,2.45,0.165,4.124,0.22,4.197l0.167,0.161c0.029,0.021,2.865,2.088,2.865,5.4c0,3.209-1.866,3.514-4.228,4.257
			l-0.309,0.096C5.53,27.961,0,29.676,0,35.25V36h20.368c-0.228-0.965-0.362-1.966-0.362-3
			C20.006,29.717,21.233,26.727,23.241,24.438z M33.006,22c-6.075,0-11,4.925-11,11s4.925,11,11,11s11-4.925,11-11
			S39.082,22,33.006,22z M32.635,36.785l-0.016-0.015C32.449,36.906,32.242,37,32.006,37s-0.442-0.094-0.613-0.229l-0.016,0.015
			l-4.157-4.156l1.415-1.414l3.371,3.371l5.872-5.871l1.414,1.414L32.635,36.785z"/>
	</g>
</g>
<g>
</g>
<g>
</g>
<g>
</g>
<g>
</g>
<g>
</g>
<g>
</g>
<g>
</g>
<g>
</g>
<g>
</g>
<g>
</g>
<g>
</g>
<g>
</g>
<g>
</g>
<g>
</g>
<g>
</g>
</svg>
