<?xml version="1.0" encoding="iso-8859-1"?>
<!-- Generator: Adobe Illustrator 16.0.4, SVG Export Plug-In . SVG Version: 6.00 Build 0)  -->
<!DOCTYPE svg PUBLIC "-//W3C//DTD SVG 1.1//EN" "http://www.w3.org/Graphics/SVG/1.1/DTD/svg11.dtd">
<svg version="1.1" id="Layer_1" xmlns="http://www.w3.org/2000/svg" xmlns:xlink="http://www.w3.org/1999/xlink" x="0px" y="0px"
	 width="44.007px" height="44px" viewBox="0 0 44.007 44" style="enable-background:new 0 0 44.007 44;" xml:space="preserve">
<g id="_x31_237-group-minus_x40_2x.png">
	<g>
		<path d="M28.392,13.099c0.318,1.136,0.497,2.932-0.537,4.93l-0.082,0.158c-0.144,0.277-0.351,0.518-0.605,0.701l-0.118,0.086
			c-0.011,0.008-0.516,0.4-1.022,1.061c0.041,0.251,0.077,0.506,0.077,0.778c0,0.523-0.076,0.935-0.186,1.299
			C27.958,20.78,30.39,20,33.007,20c0.54,0,1.069,0.043,1.593,0.107c0.341-2.221,2.144-3.631,2.162-3.646l0.139-0.104l0.077-0.153
			c0.755-1.506,0.414-2.787,0.155-3.397c1.619-3.561-0.339-6.507-0.789-7.112C35.25,2.645,32.926,2,31.156,2
			c-2.083,0-3.934,0.891-3.955,0.904c-0.123,0.048-0.221,0.113-0.339,0.165c0.061,0.137,0.135,0.259,0.191,0.399
			C27.909,4.672,30.168,8.479,28.392,13.099z M33.007,22c-6.075,0-11,4.925-11,11s4.925,11,11,11s11-4.925,11-11
			S39.082,22,33.007,22z M38.007,34h-10v-2h10V34z M23.242,24.438c-0.115-0.409-0.177-0.93-0.177-1.653
			c0-3.272,2.842-5.384,2.868-5.403l0.149-0.107l0.082-0.159c0.953-1.838,0.487-3.387,0.17-4.085
			c2.072-4.331-0.436-7.913-0.968-8.598C24.019,0.772,21.142,0,18.955,0c-2.594,0-4.897,1.072-4.934,1.092
			C11.622,1.997,9.985,3.44,9.158,5.384c-1.336,3.137-0.124,6.583,0.315,7.642c-1.076,2.45,0.165,4.124,0.22,4.197l0.167,0.161
			c0.029,0.021,2.865,2.088,2.865,5.4c0,3.209-1.865,3.514-4.229,4.257l-0.309,0.096C5.53,27.961,0,29.676,0,35.25V36h20.369
			c-0.229-0.965-0.362-1.966-0.362-3C20.007,29.717,21.233,26.727,23.242,24.438z"/>
	</g>
</g>
<g>
</g>
<g>
</g>
<g>
</g>
<g>
</g>
<g>
</g>
<g>
</g>
<g>
</g>
<g>
</g>
<g>
</g>
<g>
</g>
<g>
</g>
<g>
</g>
<g>
</g>
<g>
</g>
<g>
</g>
</svg>
