<?xml version="1.0" encoding="iso-8859-1"?>
<!-- Generator: Adobe Illustrator 16.0.4, SVG Export Plug-In . SVG Version: 6.00 Build 0)  -->
<!DOCTYPE svg PUBLIC "-//W3C//DTD SVG 1.1//EN" "http://www.w3.org/Graphics/SVG/1.1/DTD/svg11.dtd">
<svg version="1.1" id="Layer_1" xmlns="http://www.w3.org/2000/svg" xmlns:xlink="http://www.w3.org/1999/xlink" x="0px" y="0px"
	 width="44px" height="44px" viewBox="0 0 44 44" style="enable-background:new 0 0 44 44;" xml:space="preserve">
<g id="_x31_245-rewind_x40_2x.png">
	<g>
		<path d="M22,0C9.85,0,0,9.85,0,22s9.85,22,22,22s22-9.85,22-22S34.15,0,22,0z M32,31c0,0.553-0.448,1-1,1
			c-0.239,0-0.449-0.096-0.621-0.235l-0.01,0.012L22,25.499V31c0,0.553-0.448,1-1,1c-0.239,0-0.449-0.096-0.621-0.235l-0.009,0.012
			l-12-9l0.009-0.012C8.153,22.582,8,22.313,8,22s0.153-0.581,0.378-0.765l-0.009-0.011l12-9l0.009,0.011
			C20.551,12.096,20.761,12,21,12c0.552,0,1,0.448,1,1v5.501l8.369-6.276l0.009,0.011C30.551,12.096,30.761,12,31,12
			c0.552,0,1,0.448,1,1V31z"/>
	</g>
</g>
<g>
</g>
<g>
</g>
<g>
</g>
<g>
</g>
<g>
</g>
<g>
</g>
<g>
</g>
<g>
</g>
<g>
</g>
<g>
</g>
<g>
</g>
<g>
</g>
<g>
</g>
<g>
</g>
<g>
</g>
</svg>
