<?xml version="1.0" encoding="iso-8859-1"?>
<!-- Generator: Adobe Illustrator 16.0.4, SVG Export Plug-In . SVG Version: 6.00 Build 0)  -->
<!DOCTYPE svg PUBLIC "-//W3C//DTD SVG 1.1//EN" "http://www.w3.org/Graphics/SVG/1.1/DTD/svg11.dtd">
<svg version="1.1" id="Layer_1" xmlns="http://www.w3.org/2000/svg" xmlns:xlink="http://www.w3.org/1999/xlink" x="0px" y="0px"
	 width="44px" height="44px" viewBox="0 0 44 44" style="enable-background:new 0 0 44 44;" xml:space="preserve">
<g id="_x31_247-skip-back_x40_2x.png">
	<g>
		<path d="M22,0C9.85,0,0,9.85,0,22s9.85,22,22,22s22-9.85,22-22S34.15,0,22,0z M32,31c0,0.553-0.447,1-1,1
			c-0.239,0-0.449-0.096-0.621-0.235l-0.01,0.012l-12-9l0.01-0.012C18.153,22.582,18,22.313,18,22v9c0,0.553-0.447,1-1,1h-4
			c-0.552,0-1-0.447-1-1V13c0-0.552,0.447-1,1-1c0,0,0,0,0.001,0h3.998C17,12,17,12,17,12c0.553,0,1,0.448,1,1v9
			c0-0.313,0.153-0.581,0.379-0.765l-0.01-0.011l12-9l0.01,0.011C30.551,12.096,30.761,12,31,12c0.553,0,1,0.448,1,1V31z"/>
	</g>
</g>
<g>
</g>
<g>
</g>
<g>
</g>
<g>
</g>
<g>
</g>
<g>
</g>
<g>
</g>
<g>
</g>
<g>
</g>
<g>
</g>
<g>
</g>
<g>
</g>
<g>
</g>
<g>
</g>
<g>
</g>
</svg>
