<?xml version="1.0" encoding="iso-8859-1"?>
<!-- Generator: Adobe Illustrator 16.0.4, SVG Export Plug-In . SVG Version: 6.00 Build 0)  -->
<!DOCTYPE svg PUBLIC "-//W3C//DTD SVG 1.1//EN" "http://www.w3.org/Graphics/SVG/1.1/DTD/svg11.dtd">
<svg version="1.1" id="Layer_1" xmlns="http://www.w3.org/2000/svg" xmlns:xlink="http://www.w3.org/1999/xlink" x="0px" y="0px"
	 width="44px" height="44px" viewBox="0 0 44 44" style="enable-background:new 0 0 44 44;" xml:space="preserve">
<g id="_x31_249-slowmo_x40_2x.png">
	<g>
		<path d="M22,0C9.85,0,0,9.85,0,22s9.85,22,22,22s22-9.85,22-22S34.15,0,22,0z M20,31c0,0.553-0.447,1-1,1h-4c-0.553,0-1-0.447-1-1
			V13c0-0.552,0.447-1,1-1h4c0.553,0,1,0.448,1,1V31z M34.743,22.669l-0.023,0.02c-0.021,0.022-0.048,0.038-0.072,0.059
			l-10.904,8.922l-0.007-0.006C23.554,31.867,23.295,32,23,32c-0.553,0-1-0.447-1-1V13c0-0.552,0.447-1,1-1
			c0.295,0,0.554,0.134,0.736,0.337l0.007-0.006l10.905,8.923c0.023,0.02,0.05,0.035,0.071,0.058l0.023,0.02l-0.007,0.006
			C34.896,21.514,35,21.743,35,22s-0.104,0.486-0.264,0.663L34.743,22.669z"/>
	</g>
</g>
<g>
</g>
<g>
</g>
<g>
</g>
<g>
</g>
<g>
</g>
<g>
</g>
<g>
</g>
<g>
</g>
<g>
</g>
<g>
</g>
<g>
</g>
<g>
</g>
<g>
</g>
<g>
</g>
<g>
</g>
</svg>
