<?xml version="1.0" encoding="iso-8859-1"?>
<!-- Generator: Adobe Illustrator 16.0.4, SVG Export Plug-In . SVG Version: 6.00 Build 0)  -->
<!DOCTYPE svg PUBLIC "-//W3C//DTD SVG 1.1//EN" "http://www.w3.org/Graphics/SVG/1.1/DTD/svg11.dtd">
<svg version="1.1" id="Layer_1" xmlns="http://www.w3.org/2000/svg" xmlns:xlink="http://www.w3.org/1999/xlink" x="0px" y="0px"
	 width="44px" height="44px" viewBox="0 0 44 44" style="enable-background:new 0 0 44 44;" xml:space="preserve">
<g id="_x31_250-eject_x40_2x.png">
	<g>
		<path d="M22,0C9.85,0,0,9.85,0,22s9.85,22,22,22s22-9.85,22-22S34.15,0,22,0z M32,29c0,0.553-0.447,1-1,1H13c-0.553,0-1-0.447-1-1
			v-4c0-0.553,0.447-1,1-1h18c0.553,0,1,0.447,1,1V29z M31,22H13c-0.553,0-1-0.447-1-1c0-0.295,0.134-0.554,0.337-0.736
			l-0.006-0.007l8.958-8.958c0.003-0.003,0.007-0.007,0.01-0.01l0.032-0.032l0.006,0.007C21.514,11.104,21.743,11,22,11
			s0.486,0.104,0.663,0.264l0.006-0.007l0.032,0.032c0.004,0.003,0.007,0.007,0.01,0.01l8.958,8.958l-0.006,0.007
			C31.866,20.446,32,20.705,32,21C32,21.553,31.553,22,31,22z"/>
	</g>
</g>
<g>
</g>
<g>
</g>
<g>
</g>
<g>
</g>
<g>
</g>
<g>
</g>
<g>
</g>
<g>
</g>
<g>
</g>
<g>
</g>
<g>
</g>
<g>
</g>
<g>
</g>
<g>
</g>
<g>
</g>
</svg>
