<?xml version="1.0" encoding="iso-8859-1"?>
<!-- Generator: Adobe Illustrator 16.0.4, SVG Export Plug-In . SVG Version: 6.00 Build 0)  -->
<!DOCTYPE svg PUBLIC "-//W3C//DTD SVG 1.1//EN" "http://www.w3.org/Graphics/SVG/1.1/DTD/svg11.dtd">
<svg version="1.1" id="Layer_1" xmlns="http://www.w3.org/2000/svg" xmlns:xlink="http://www.w3.org/1999/xlink" x="0px" y="0px"
	 width="44px" height="44px" viewBox="0 0 44 44" style="enable-background:new 0 0 44 44;" xml:space="preserve">
<g id="_x31_251-amazon_x40_2x.png">
	<g>
		<path d="M22,0C9.85,0,0,9.85,0,22s9.85,22,22,22s22-9.85,22-22S34.15,0,22,0z M21.246,12.211c-1.265,0-2.126,0.788-2.346,1.854
			c-0.059,0.271-0.357,0.474-0.648,0.442l-3.041-0.325c-0.163-0.018-0.316-0.103-0.413-0.228s-0.134-0.289-0.101-0.438
			c0.731-3.387,3.567-4.429,6.548-4.526c4.976,0,7.746,1.582,7.746,4.318v7.593c0,0.569-0.131,1.572,0.051,1.799l0.866,1.107
			c0.166,0.216,0.133,0.546-0.071,0.729l-2.44,2.193c-0.114,0.103-0.273,0.158-0.432,0.153c-0.158-0.007-0.312-0.075-0.418-0.186
			l-1.875-1.961c-1.304,1.367-3.024,2.159-4.997,2.254c-3.312,0.162-5.739-1.474-5.682-4.909c0.062-3.729,3.019-5.676,6.196-5.903
			l3.756-0.266v-1.585C23.946,13.121,23.13,12.211,21.246,12.211z M32.738,31.188c-1.951,1.718-5.363,3.559-9.876,3.796
			c-0.32,0.017-0.637,0.024-0.953,0.024c0,0,0,0,0,0c-5.177,0-9.801-2.167-13.745-6.443c-0.201-0.22-0.234-0.521-0.082-0.718
			c0.088-0.118,0.206-0.18,0.348-0.18c0.129,0,0.266,0.05,0.46,0.166c0.29,0.176,0.553,0.351,0.713,0.457l0.123,0.079
			c3.794,2.408,8.109,3.681,12.479,3.681c0,0,0.001,0,0.001,0c3.513,0,6.451-0.549,9.656-2.124c0.229-0.112,0.466-0.174,0.672-0.174
			c0.237,0,0.431,0.083,0.547,0.233C33.317,30.291,33.169,30.808,32.738,31.188z M34.431,33.172
			c-0.002,0.004-0.393,0.393-0.746,0.393c-0.135,0-0.256-0.058-0.333-0.157c-0.119-0.155-0.117-0.372,0.006-0.728
			c0.355-1.018,0.486-1.629,0.705-2.71c0.072-0.359,0.14-0.792,0.023-0.943c-0.02-0.024-0.075-0.096-0.336-0.122
			c-0.21-0.022-0.433-0.031-0.665-0.031c-0.508,0-1.073,0.043-1.671,0.088l-0.215,0.017c-0.088,0.007-0.168,0.01-0.24,0.01
			c-0.147,0-0.534,0-0.653-0.288c-0.126-0.307,0.203-0.596,0.343-0.72c0.821-0.721,2.179-0.979,3.173-0.979
			c0.447,0,1.538,0.055,1.995,0.56C36.446,28.254,35.527,31.978,34.431,33.172z M18.819,21.413
			c-0.046,1.464,1.176,2.839,3.058,2.306c0.955-0.27,2.11-1.663,2.11-3.299v-2.107l-1.913,0.068
			C20.61,18.435,18.877,19.562,18.819,21.413z"/>
	</g>
</g>
<g>
</g>
<g>
</g>
<g>
</g>
<g>
</g>
<g>
</g>
<g>
</g>
<g>
</g>
<g>
</g>
<g>
</g>
<g>
</g>
<g>
</g>
<g>
</g>
<g>
</g>
<g>
</g>
<g>
</g>
</svg>
