<?xml version="1.0" encoding="iso-8859-1"?>
<!-- Generator: Adobe Illustrator 16.0.4, SVG Export Plug-In . SVG Version: 6.00 Build 0)  -->
<!DOCTYPE svg PUBLIC "-//W3C//DTD SVG 1.1//EN" "http://www.w3.org/Graphics/SVG/1.1/DTD/svg11.dtd">
<svg version="1.1" id="Layer_1" xmlns="http://www.w3.org/2000/svg" xmlns:xlink="http://www.w3.org/1999/xlink" x="0px" y="0px"
	 width="44px" height="44px" viewBox="0 0 44 44" style="enable-background:new 0 0 44 44;" xml:space="preserve">
<g id="_x31_252-apple_x40_2x.png">
	<g>
		<path d="M22,0C9.85,0,0,9.85,0,22s9.85,22,22,22s22-9.85,22-22S34.15,0,22,0z M23.458,9.955c0.972-1.099,2.612-1.914,3.967-1.967
			c0.173,1.521-0.462,3.048-1.402,4.146c-0.941,1.098-2.484,1.952-3.996,1.838C21.824,12.48,22.585,10.929,23.458,9.955z
			 M30.295,30.025c-1.023,1.471-2.079,2.938-3.751,2.968c-1.645,0.031-2.179-0.907-4.059-0.907c-1.879,0-2.563,0.847-4.119,0.907
			c-1.613,0.061-2.746-1.562-3.778-3.026c-2.109-2.997-3.721-8.943-1.555-12.637c1.073-1.834,2.994-2.995,5.079-3.026
			c1.585-0.027,3.082,1.051,4.049,1.051c0.971,0,2.79-1.297,4.701-1.106c0.8,0.032,3.047,0.317,4.49,2.391
			c-0.115,0.073-2.683,1.539-2.651,4.597c0.033,3.65,3.257,4.865,3.295,4.882C31.967,26.2,31.479,28.323,30.295,30.025z"/>
	</g>
</g>
<g>
</g>
<g>
</g>
<g>
</g>
<g>
</g>
<g>
</g>
<g>
</g>
<g>
</g>
<g>
</g>
<g>
</g>
<g>
</g>
<g>
</g>
<g>
</g>
<g>
</g>
<g>
</g>
<g>
</g>
</svg>
