<?xml version="1.0" encoding="iso-8859-1"?>
<!-- Generator: Adobe Illustrator 16.0.4, SVG Export Plug-In . SVG Version: 6.00 Build 0)  -->
<!DOCTYPE svg PUBLIC "-//W3C//DTD SVG 1.1//EN" "http://www.w3.org/Graphics/SVG/1.1/DTD/svg11.dtd">
<svg version="1.1" id="Layer_1" xmlns="http://www.w3.org/2000/svg" xmlns:xlink="http://www.w3.org/1999/xlink" x="0px" y="0px"
	 width="44px" height="44px" viewBox="0 0 44 44" style="enable-background:new 0 0 44 44;" xml:space="preserve">
<g id="_x31_253-audioscrobbler_x40_2x.png">
	<g>
		<path d="M22,0C9.85,0,0,9.85,0,22s9.85,22,22,22s22-9.85,22-22S34.15,0,22,0z M30.658,31.014c0,0-4.371,0.406-6.411-5.233
			c-1.2-2.192-1.503-9.798-7.595-9.798c-3.375,0-5.66,2.504-5.66,6.018s2.284,6.019,5.66,6.019c2.153,0,4.042-0.818,5.131-2.569
			l1.549,2.257c-1.583,2.016-3.982,3.308-6.68,3.308c-4.782,0-8.658-4.036-8.658-9.014s3.876-9.013,8.658-9.013
			c3.936,0,7.333,3.002,8.305,6.478c1.026,2.528,1.339,7.531,5.032,8.546c-0.008,0.049,3.033,0.841,3.033-2.3
			c0-2.308-2.364-2.65-2.364-2.65s-4.682-0.791-4.682-5.068c0-2.781,1.896-5.005,4.427-5.005c1.842,0,3.833,0.946,4.561,3.263
			l-2.628,1.322c-0.36-0.826-0.749-1.622-1.677-1.622c-1.266,0-1.698,0.787-1.698,2.104c0,1.912,1.729,2.136,1.729,2.136
			s1.845,0.478,3.095,1.226c0.667,0.479,1.219,1.105,1.606,1.832c0.486,1.039,0.615,2.463,0.615,2.463
			C36.006,28.64,33.612,31.014,30.658,31.014z"/>
	</g>
</g>
<g>
</g>
<g>
</g>
<g>
</g>
<g>
</g>
<g>
</g>
<g>
</g>
<g>
</g>
<g>
</g>
<g>
</g>
<g>
</g>
<g>
</g>
<g>
</g>
<g>
</g>
<g>
</g>
<g>
</g>
</svg>
