<?xml version="1.0" encoding="iso-8859-1"?>
<!-- Generator: Adobe Illustrator 16.0.4, SVG Export Plug-In . SVG Version: 6.00 Build 0)  -->
<!DOCTYPE svg PUBLIC "-//W3C//DTD SVG 1.1//EN" "http://www.w3.org/Graphics/SVG/1.1/DTD/svg11.dtd">
<svg version="1.1" id="Layer_1" xmlns="http://www.w3.org/2000/svg" xmlns:xlink="http://www.w3.org/1999/xlink" x="0px" y="0px"
	 width="44px" height="44px" viewBox="0 0 44 44" style="enable-background:new 0 0 44 44;" xml:space="preserve">
<g id="_x31_254-basecamp_x40_2x.png">
	<g>
		<path d="M33.975,27.239c-0.009-0.036-0.01-0.072-0.023-0.108c-0.296-1.414-1.795-6.694-8.215-10.633
			c-1.869,0-5.606,5.502-6.54,5.502c-0.935,0-2.803-2.751-3.737-2.751c0,0-5.48,4.585-5.48,8.253c0,1.939,5.382,3.512,12.021,3.512
			s12.021-1.572,12.021-3.512c0,0,0-0.001,0-0.002C34.02,27.497,34.007,27.403,33.975,27.239z M22,0C9.85,0,0,9.85,0,22
			s9.85,22,22,22s22-9.85,22-22S34.15,0,22,0z M22,33.004c-7.74,0-14.014-2.463-14.014-5.502c0-0.269,0.066-0.53,0.16-0.788
			C8.871,23.437,12.265,10.996,22,10.996s13.129,12.44,13.854,15.718c0.095,0.258,0.16,0.52,0.16,0.788
			C36.014,30.541,29.74,33.004,22,33.004z"/>
	</g>
</g>
<g>
</g>
<g>
</g>
<g>
</g>
<g>
</g>
<g>
</g>
<g>
</g>
<g>
</g>
<g>
</g>
<g>
</g>
<g>
</g>
<g>
</g>
<g>
</g>
<g>
</g>
<g>
</g>
<g>
</g>
</svg>
