<?xml version="1.0" encoding="iso-8859-1"?>
<!-- Generator: Adobe Illustrator 16.0.4, SVG Export Plug-In . SVG Version: 6.00 Build 0)  -->
<!DOCTYPE svg PUBLIC "-//W3C//DTD SVG 1.1//EN" "http://www.w3.org/Graphics/SVG/1.1/DTD/svg11.dtd">
<svg version="1.1" id="Layer_1" xmlns="http://www.w3.org/2000/svg" xmlns:xlink="http://www.w3.org/1999/xlink" x="0px" y="0px"
	 width="44px" height="44px" viewBox="0 0 44 44" style="enable-background:new 0 0 44 44;" xml:space="preserve">
<g id="_x31_255-blogger_x40_2x.png">
	<g>
		<path d="M26.304,25.002H17.76c-0.802,0-1.452,0.706-1.452,1.502c0,0.783,0.65,1.501,1.452,1.501h8.544
			c0.798,0,1.445-0.718,1.445-1.501C27.749,25.708,27.102,25.002,26.304,25.002z M17.76,18.998h4.205
			c0.801,0,1.451-0.711,1.451-1.505s-0.65-1.497-1.451-1.497H17.76c-0.802,0-1.452,0.703-1.452,1.497S16.958,18.998,17.76,18.998z
			 M22,0C9.85,0,0,9.85,0,22s9.85,22,22,22s22-9.85,22-22S34.15,0,22,0z M33.96,26.434c-0.022,4.164-3.412,7.575-7.584,7.575h-8.713
			c-4.172,0-7.671-3.411-7.671-7.575v-8.852c0-4.173,3.5-7.59,7.671-7.59h5.303c1.958,0.232,4.808,1.91,5.859,4.141
			c0.288,0.626,0.441,0.722,0.68,2.576c0.129,0.955,0.194,1.661,0.622,2.054c0.6,0.545,2.83,0.178,3.272,0.522l0.337,0.265
			l0.202,0.418l0.071,0.335L33.96,26.434z"/>
	</g>
</g>
<g>
</g>
<g>
</g>
<g>
</g>
<g>
</g>
<g>
</g>
<g>
</g>
<g>
</g>
<g>
</g>
<g>
</g>
<g>
</g>
<g>
</g>
<g>
</g>
<g>
</g>
<g>
</g>
<g>
</g>
</svg>
