<?xml version="1.0" encoding="iso-8859-1"?>
<!-- Generator: Adobe Illustrator 16.0.4, SVG Export Plug-In . SVG Version: 6.00 Build 0)  -->
<!DOCTYPE svg PUBLIC "-//W3C//DTD SVG 1.1//EN" "http://www.w3.org/Graphics/SVG/1.1/DTD/svg11.dtd">
<svg version="1.1" id="Layer_1" xmlns="http://www.w3.org/2000/svg" xmlns:xlink="http://www.w3.org/1999/xlink" x="0px" y="0px"
	 width="44px" height="44px" viewBox="0 0 44 44" style="enable-background:new 0 0 44 44;" xml:space="preserve">
<g id="_x31_256-blogger_x40_2x.png">
	<g>
		<path d="M12.506,24.015h1.009v-4.018h-1.009V24.015z M22,0C9.85,0,0,9.85,0,22s9.85,22,22,22s22-9.85,22-22S34.15,0,22,0z
			 M16.014,26.007H9.988L10,18h3v-3l3.014-0.013V26.007z M19.988,26.006h-2.975v-7.994h2.975V26.006z M19.988,16.99h-2.975v-2.004
			h2.975V16.99z M27,29.012h-5.986v-2.578h3.433v-0.859h-3.433v-7.562H27V29.012z M34.012,29.012h-6.017v-2.578h3.491v-0.859h-3.491
			v-7.562h6.017V29.012z M31.5,20.014h-0.995v4H31.5V20.014z M24.49,20.014h-0.985v4h0.985V20.014z"/>
	</g>
</g>
<g>
</g>
<g>
</g>
<g>
</g>
<g>
</g>
<g>
</g>
<g>
</g>
<g>
</g>
<g>
</g>
<g>
</g>
<g>
</g>
<g>
</g>
<g>
</g>
<g>
</g>
<g>
</g>
<g>
</g>
</svg>
