<?xml version="1.0" encoding="iso-8859-1"?>
<!-- Generator: Adobe Illustrator 16.0.4, SVG Export Plug-In . SVG Version: 6.00 Build 0)  -->
<!DOCTYPE svg PUBLIC "-//W3C//DTD SVG 1.1//EN" "http://www.w3.org/Graphics/SVG/1.1/DTD/svg11.dtd">
<svg version="1.1" id="Layer_1" xmlns="http://www.w3.org/2000/svg" xmlns:xlink="http://www.w3.org/1999/xlink" x="0px" y="0px"
	 width="44px" height="44px" viewBox="0 0 44 44" style="enable-background:new 0 0 44 44;" xml:space="preserve">
<g id="_x31_257-dribbble_x40_2x.png">
	<g>
		<path d="M21.19,17.284c-2.425-4.266-5.035-7.85-5.42-8.373c-4.057,1.932-7.079,5.688-8.003,10.195
			C8.417,19.112,14.402,19.114,21.19,17.284z M23.017,22.145c0.188-0.062,0.38-0.119,0.571-0.175
			c-0.368-0.823-0.769-1.646-1.188-2.458c-7.246,2.198-14.286,2.136-14.922,2.125c-0.004,0.147-0.006,0.295-0.006,0.443
			c0.016,3.729,1.443,7.127,3.774,9.69C11.574,31.207,15.534,24.595,23.017,22.145z M31.586,11.126
			c-2.574-2.264-5.954-3.634-9.645-3.618c-1.173,0.004-2.312,0.149-3.403,0.417c0.404,0.535,3.057,4.115,5.455,8.476
			C29.151,14.445,31.326,11.499,31.586,11.126z M26.092,20.652c0.107,0.251,0.213,0.5,0.315,0.748
			c4.832-0.627,9.639,0.327,10.118,0.427c-0.046-3.426-1.284-6.567-3.317-9.028c-0.305,0.415-2.727,3.543-8.089,5.755
			C25.46,19.244,25.787,19.946,26.092,20.652z M22,0C9.85,0,0,9.85,0,22s9.85,22,22,22s22-9.85,22-22S34.15,0,22,0z M22.069,38.994
			C12.691,39.031,5.03,31.438,4.992,22.068S12.553,5.044,21.931,5.007c9.378-0.038,17.039,7.555,17.077,16.925
			S31.447,38.956,22.069,38.994z M24.489,24.398c-8.182,2.887-11.101,8.575-11.359,9.11c2.471,1.909,5.571,3.042,8.93,3.028
			c2.013-0.008,3.929-0.427,5.67-1.176c-0.222-1.272-1.083-5.708-3.145-10.995C24.554,24.377,24.521,24.388,24.489,24.398z
			 M27.302,23.685c1.921,5.21,2.712,9.455,2.864,10.338c3.25-2.215,5.556-5.712,6.188-9.753
			C35.855,24.114,31.852,22.938,27.302,23.685z"/>
	</g>
</g>
<g>
</g>
<g>
</g>
<g>
</g>
<g>
</g>
<g>
</g>
<g>
</g>
<g>
</g>
<g>
</g>
<g>
</g>
<g>
</g>
<g>
</g>
<g>
</g>
<g>
</g>
<g>
</g>
<g>
</g>
</svg>
