<?xml version="1.0" encoding="iso-8859-1"?>
<!-- Generator: Adobe Illustrator 16.0.4, SVG Export Plug-In . SVG Version: 6.00 Build 0)  -->
<!DOCTYPE svg PUBLIC "-//W3C//DTD SVG 1.1//EN" "http://www.w3.org/Graphics/SVG/1.1/DTD/svg11.dtd">
<svg version="1.1" id="Layer_1" xmlns="http://www.w3.org/2000/svg" xmlns:xlink="http://www.w3.org/1999/xlink" x="0px" y="0px"
	 width="44px" height="44px" viewBox="0 0 44 44" style="enable-background:new 0 0 44 44;" xml:space="preserve">
<g id="_x31_258-dropbox_x40_2x.png">
	<g>
		<path d="M22,0C9.85,0,0,9.85,0,22s9.85,22,22,22s22-9.85,22-22S34.15,0,22,0z M30.383,30.795l-8.387,5.351l-8.453-5.351V29.2
			l2.795,1.562l5.625-4.22l5.788,4.22l2.632-1.562V30.795z M30.186,19.365l-0.002,0.001l5.955,4.79l-8.359,5.028l-5.816-4.237
			l-5.645,4.241l-8.451-5.026l5.861-4.69l8.238,5.049l8.217-5.154l-0.002-0.001l0.002-0.002l-8.221-5.049l-8.22,5.147l-5.885-4.498
			l8.458-5.535l5.646,4.886l5.962-4.889l8.217,5.276l-5.958,4.661L30.186,19.365z"/>
	</g>
</g>
<g>
</g>
<g>
</g>
<g>
</g>
<g>
</g>
<g>
</g>
<g>
</g>
<g>
</g>
<g>
</g>
<g>
</g>
<g>
</g>
<g>
</g>
<g>
</g>
<g>
</g>
<g>
</g>
<g>
</g>
</svg>
