<?xml version="1.0" encoding="iso-8859-1"?>
<!-- Generator: Adobe Illustrator 16.0.4, SVG Export Plug-In . SVG Version: 6.00 Build 0)  -->
<!DOCTYPE svg PUBLIC "-//W3C//DTD SVG 1.1//EN" "http://www.w3.org/Graphics/SVG/1.1/DTD/svg11.dtd">
<svg version="1.1" id="Layer_1" xmlns="http://www.w3.org/2000/svg" xmlns:xlink="http://www.w3.org/1999/xlink" x="0px" y="0px"
	 width="44px" height="44px" viewBox="0 0 44 44" style="enable-background:new 0 0 44 44;" xml:space="preserve">
<g id="_x31_259-evernote_x40_2x.png">
	<g>
		<path d="M27.325,19.639c-1.155-0.039-1.481,0.906-1.579,1.678c0.348-0.055,0.721-0.079,1.107-0.065
			c0.728,0.024,1.395,0.174,1.934,0.409C28.782,20.861,28.604,19.682,27.325,19.639z M22,0C9.85,0,0,9.85,0,22s9.85,22,22,22
			s22-9.85,22-22S34.15,0,22,0z M9.459,13.848l5.228-5.061c0.011-0.01,0.021-0.016,0.031-0.017l-0.092,0.169
			c-0.192,0.375-0.304,0.823-0.304,1.338v0.007c0,0.626,0.033,2.877,0.033,2.878c-0.001,0.149-0.125,0.271-0.278,0.271h-2.691
			c-0.001,0-0.001,0-0.001,0c-0.661,0-1.213,0.11-1.668,0.311c-0.021,0.01-0.169,0.081-0.277,0.133
			C9.442,13.866,9.449,13.855,9.459,13.848z M32.909,24.873c-0.375,3.967-0.994,6.329-1.251,7.104
			c-1.295,3.922-2.4,4.021-5.536,4.021c-3.999,0-5.224-0.58-5.224-3.703c0-3.439,1.658-3.512,4.476-3.437
			c0.404,0.01-0.022,0.395-0.022,1.061c0,0.67,0.264,0.935-0.1,0.935c-0.815,0-1.915-0.114-1.915,0.971
			c0,1.343,0.66,1.299,2.392,1.299c2.136,0,2.545-0.26,2.545-2.159c0-3.121-0.905-3.6-2.151-3.739
			c-1.378-0.158-2.734-0.359-3.389-0.586c-1.656-0.574-1.538-2.715-1.538-3.32c0-0.091-0.131-0.086-0.131,0
			c0,0.857-0.062,2.041-0.514,3.375c-0.141,0.385-0.243,0.646-0.245,0.649c-0.52,1.063-1.392,0.698-2.781,0.525
			c-1.392-0.173-4.36-0.777-5.66-1.321c-0.584-0.264-0.782-0.514-1.079-1.114c-0.766-1.542-1.572-6.612-1.672-7.339
			c-0.119-0.938-0.124-1.422-0.124-1.422c-0.002-0.594,0.061-1.175,0.42-1.646c0.181-0.237,0.418-0.438,0.754-0.587
			c0.335-0.148,0.773-0.242,1.348-0.242h2.69c0.587-0.001,1.061-0.465,1.061-1.035c0-0.004-0.009-0.576-0.017-1.217
			c-0.008-0.639-0.017-1.356-0.017-1.662c0.001-0.539,0.141-0.925,0.357-1.226c0.322-0.45,0.901-0.743,1.424-0.886
			c0.659-0.181,3.223-0.338,4.883,0.314c0.623,0.245,1.18,0.953,1.296,1.728c0.965-0.029,2.563-0.042,3.924,0.114
			c1.69,0.195,3.036,0.438,3.699,0.672c0.615,0.216,1.295,0.767,1.509,1.883C32.686,14.794,33.146,22.364,32.909,24.873z"/>
	</g>
</g>
<g>
</g>
<g>
</g>
<g>
</g>
<g>
</g>
<g>
</g>
<g>
</g>
<g>
</g>
<g>
</g>
<g>
</g>
<g>
</g>
<g>
</g>
<g>
</g>
<g>
</g>
<g>
</g>
<g>
</g>
</svg>
