<?xml version="1.0" encoding="iso-8859-1"?>
<!-- Generator: Adobe Illustrator 16.0.4, SVG Export Plug-In . SVG Version: 6.00 Build 0)  -->
<!DOCTYPE svg PUBLIC "-//W3C//DTD SVG 1.1//EN" "http://www.w3.org/Graphics/SVG/1.1/DTD/svg11.dtd">
<svg version="1.1" id="Layer_1" xmlns="http://www.w3.org/2000/svg" xmlns:xlink="http://www.w3.org/1999/xlink" x="0px" y="0px"
	 width="44px" height="44px" viewBox="0 0 44 44" style="enable-background:new 0 0 44 44;" xml:space="preserve">
<g id="_x31_262-fancy_x40_2x.png">
	<g>
		<path d="M22,0C9.85,0,0,9.85,0,22s9.85,22,22,22s22-9.85,22-22S34.15,0,22,0z M14.008,28.005c-3.311,0-5.996-2.688-5.996-6.005
			c0-3.315,2.685-6.004,5.996-6.004s5.995,2.688,5.995,6.004C20.003,25.316,17.319,28.005,14.008,28.005z M29.992,28.005
			c-3.311,0-5.995-2.688-5.995-6.005c0-3.315,2.684-6.004,5.995-6.004c3.312,0,5.996,2.688,5.996,6.004
			C35.987,25.316,33.303,28.005,29.992,28.005z M29.992,17.997c-2.211,0-4.003,1.792-4.003,4.003s1.792,4.003,4.003,4.003
			c2.211,0,4.004-1.792,4.004-4.003S32.204,17.997,29.992,17.997z"/>
	</g>
</g>
<g>
</g>
<g>
</g>
<g>
</g>
<g>
</g>
<g>
</g>
<g>
</g>
<g>
</g>
<g>
</g>
<g>
</g>
<g>
</g>
<g>
</g>
<g>
</g>
<g>
</g>
<g>
</g>
<g>
</g>
</svg>
