<?xml version="1.0" encoding="iso-8859-1"?>
<!-- Generator: Adobe Illustrator 16.0.4, SVG Export Plug-In . SVG Version: 6.00 Build 0)  -->
<!DOCTYPE svg PUBLIC "-//W3C//DTD SVG 1.1//EN" "http://www.w3.org/Graphics/SVG/1.1/DTD/svg11.dtd">
<svg version="1.1" id="Layer_1" xmlns="http://www.w3.org/2000/svg" xmlns:xlink="http://www.w3.org/1999/xlink" x="0px" y="0px"
	 width="44px" height="44px" viewBox="0 0 44 44" style="enable-background:new 0 0 44 44;" xml:space="preserve">
<g id="_x31_263-foursquare_x40_2x.png">
	<g>
		<path d="M22,0C9.85,0,0,9.85,0,22s9.85,22,22,22s22-9.85,22-22S34.15,0,22,0z M34.207,11.482c0.276-0.001,0.532,0.107,0.729,0.304
			l2.446,2.462c0.402,0.405,0.402,1.06,0,1.463L22.502,30.666c-0.196,0.196-0.459,0.306-0.736,0.305h-0.001
			c-0.002,0-0.005,0-0.007,0c-0.04,0-0.079-0.002-0.118-0.008c-0.229-0.024-0.445-0.128-0.611-0.296l-8.295-8.351
			c-0.404-0.404-0.402-1.06,0.001-1.464l2.451-2.459c0.193-0.192,0.458-0.302,0.729-0.303c0.273-0.001,0.537,0.11,0.729,0.304
			l5.125,5.159l11.708-11.769C33.672,11.59,33.931,11.481,34.207,11.482z M36.52,24.602L24.544,36.635
			c-1.432,1.438-3.774,1.438-5.207,0L7.361,24.602c-1.432-1.438-1.432-3.792,0-5.23L19.337,7.339c1.432-1.438,3.774-1.438,5.206,0
			l5.409,5.435l-8.122,8.163l-3.823-3.848c-0.532-0.537-1.272-0.848-2.029-0.848c-0.759,0.002-1.497,0.309-2.03,0.841l-2.453,2.462
			c-0.543,0.545-0.843,1.27-0.843,2.042c0,0.77,0.299,1.494,0.843,2.039l8.292,8.349c0.375,0.378,0.85,0.644,1.363,0.767l0.118,0.08
			h0.56c0.767,0,1.486-0.298,2.031-0.84l12.603-12.667l0.058,0.058C37.952,20.81,37.952,23.164,36.52,24.602z"/>
	</g>
</g>
<g>
</g>
<g>
</g>
<g>
</g>
<g>
</g>
<g>
</g>
<g>
</g>
<g>
</g>
<g>
</g>
<g>
</g>
<g>
</g>
<g>
</g>
<g>
</g>
<g>
</g>
<g>
</g>
<g>
</g>
</svg>
