<?xml version="1.0" encoding="iso-8859-1"?>
<!-- Generator: Adobe Illustrator 16.0.4, SVG Export Plug-In . SVG Version: 6.00 Build 0)  -->
<!DOCTYPE svg PUBLIC "-//W3C//DTD SVG 1.1//EN" "http://www.w3.org/Graphics/SVG/1.1/DTD/svg11.dtd">
<svg version="1.1" id="Layer_1" xmlns="http://www.w3.org/2000/svg" xmlns:xlink="http://www.w3.org/1999/xlink" x="0px" y="0px"
	 width="44px" height="44px" viewBox="0 0 44 44" style="enable-background:new 0 0 44 44;" xml:space="preserve">
<g id="_x31_264-github_x40_2x.png">
	<g>
		<path d="M22,0C9.85,0,0,9.85,0,22s9.85,22,22,22s22-9.85,22-22S34.15,0,22,0z M25.704,31.17c0.733,0.634,1.387,1.888,1.387,3.803
			c0,2.746-0.025,4.961-0.025,5.634c0,0.229,0.083,0.46,0.232,0.652c-1.69,0.464-3.461,0.732-5.298,0.732
			c-1.838,0-3.609-0.269-5.3-0.732c0.15-0.192,0.235-0.425,0.235-0.652c0-0.487-0.018-1.778-0.027-3.493
			c-5.684,1.242-6.883-2.752-6.883-2.752c-0.929-2.373-2.269-3.004-2.269-3.004c-1.855-1.274,0.141-1.249,0.141-1.249
			c2.05,0.146,3.129,2.116,3.129,2.116c1.823,3.139,4.782,2.232,5.947,1.707c0.186-1.327,0.713-2.232,1.297-2.746
			c-4.538-0.518-9.307-2.279-9.307-10.149c0-2.241,0.796-4.075,2.103-5.511c-0.21-0.52-0.911-2.607,0.2-5.435
			c0,0,1.716-0.553,5.619,2.105c1.629-0.456,3.377-0.684,5.115-0.691c1.735,0.008,3.483,0.235,5.115,0.691
			c3.901-2.658,5.613-2.105,5.613-2.105c1.115,2.827,0.414,4.915,0.204,5.435c1.31,1.436,2.1,3.27,2.1,5.511
			C35.033,28.926,30.256,30.661,25.704,31.17z"/>
	</g>
</g>
<g>
</g>
<g>
</g>
<g>
</g>
<g>
</g>
<g>
</g>
<g>
</g>
<g>
</g>
<g>
</g>
<g>
</g>
<g>
</g>
<g>
</g>
<g>
</g>
<g>
</g>
<g>
</g>
<g>
</g>
</svg>
