<?xml version="1.0" encoding="iso-8859-1"?>
<!-- Generator: Adobe Illustrator 16.0.4, SVG Export Plug-In . SVG Version: 6.00 Build 0)  -->
<!DOCTYPE svg PUBLIC "-//W3C//DTD SVG 1.1//EN" "http://www.w3.org/Graphics/SVG/1.1/DTD/svg11.dtd">
<svg version="1.1" id="Layer_1" xmlns="http://www.w3.org/2000/svg" xmlns:xlink="http://www.w3.org/1999/xlink" x="0px" y="0px"
	 width="44px" height="44px" viewBox="0 0 44 44" style="enable-background:new 0 0 44 44;" xml:space="preserve">
<g id="_x31_265-google_x40_2x.png">
	<g>
		<path d="M22,0C9.85,0,0,9.85,0,22s9.85,22,22,22s22-9.85,22-22S34.15,0,22,0z M27.441,15.495c0,1.571-0.843,2.921-2.035,3.882
			c-1.162,0.938-1.382,1.33-1.382,2.126c0,0.681,1.202,1.795,1.854,2.271c1.903,1.389,2.391,2.72,2.391,4.873
			c0,2.685-2.519,5.354-7.079,5.354c-4,0-7.204-1.68-7.204-4.364c0-2.726,3.079-5.354,7.079-5.354c0.435,0,0.835-0.013,1.249-0.013
			c-0.547-0.549-0.98-1.223-0.98-2.053c0-0.493,0.152-0.968,0.366-1.389c-0.217,0.016-0.439,0.021-0.667,0.021
			c-3.285,0-5.487-2.411-5.487-5.4c0-2.924,3.039-5.449,6.269-5.449h7.203l-1.612,1.203h-2.284
			C26.634,11.803,27.441,13.626,27.441,15.495z M21.825,24.974c-2.764-0.031-5.241,1.739-5.241,3.865
			c0,2.169,1.826,3.976,4.591,3.976c3.887,0,5.241-1.695,5.241-3.865c0-0.262-0.031-0.518-0.088-0.767
			c-0.303-1.228-1.209-1.836-2.71-2.913C23.072,25.088,22.471,24.98,21.825,24.974z M20.912,11.052
			c-1.855-0.057-3.1,1.867-2.779,4.383c0.32,2.515,2.083,4.6,3.939,4.657c1.855,0.057,3.099-1.936,2.78-4.45
			C24.531,13.127,22.767,11.109,20.912,11.052z"/>
	</g>
</g>
<g>
</g>
<g>
</g>
<g>
</g>
<g>
</g>
<g>
</g>
<g>
</g>
<g>
</g>
<g>
</g>
<g>
</g>
<g>
</g>
<g>
</g>
<g>
</g>
<g>
</g>
<g>
</g>
<g>
</g>
</svg>
