<?xml version="1.0" encoding="iso-8859-1"?>
<!-- Generator: Adobe Illustrator 16.0.4, SVG Export Plug-In . SVG Version: 6.00 Build 0)  -->
<!DOCTYPE svg PUBLIC "-//W3C//DTD SVG 1.1//EN" "http://www.w3.org/Graphics/SVG/1.1/DTD/svg11.dtd">
<svg version="1.1" id="Layer_1" xmlns="http://www.w3.org/2000/svg" xmlns:xlink="http://www.w3.org/1999/xlink" x="0px" y="0px"
	 width="44px" height="44px" viewBox="0 0 44 44" style="enable-background:new 0 0 44 44;" xml:space="preserve">
<g id="_x31_266-googleplus_x40_2x.png">
	<g>
		<path d="M21.049,15.642c-0.326-2.515-2.122-4.532-4.011-4.59c-1.888-0.057-3.154,1.867-2.828,4.383
			c0.326,2.515,2.121,4.6,4.01,4.657C20.107,20.148,21.374,18.156,21.049,15.642z M22,0C9.85,0,0,9.85,0,22s9.85,22,22,22
			s22-9.85,22-22S34.15,0,22,0z M17.321,34.001c-4.071,0-7.332-1.68-7.332-4.364c0-2.726,3.134-5.354,7.204-5.354
			c0.443,0,0.85-0.013,1.271-0.013c-0.557-0.549-0.997-1.223-0.997-2.053c0-0.493,0.154-0.968,0.371-1.389
			c-0.221,0.016-0.446,0.021-0.679,0.021c-3.344,0-5.584-2.411-5.584-5.4c0-2.924,3.093-5.449,6.379-5.449h7.331l-1.641,1.203H21.32
			c1.541,0.601,2.362,2.424,2.362,4.293c0,1.571-0.857,2.921-2.07,3.882c-1.182,0.938-1.406,1.33-1.406,2.126
			c0,0.681,1.224,1.795,1.886,2.271c1.937,1.389,2.433,2.72,2.433,4.873C24.524,31.331,21.962,34.001,17.321,34.001z M35.986,15.989
			h-4.594v4.514h-1.523v-4.514h-4.59v-1.496h4.59V9.992h1.523v4.501h4.594V15.989z M19.792,25.27
			c-0.556-0.182-1.167-0.289-1.824-0.296c-2.812-0.031-5.333,1.739-5.333,3.865c0,2.169,1.857,3.976,4.672,3.976
			c3.955,0,5.334-1.695,5.334-3.865c0-0.262-0.032-0.518-0.09-0.767C22.241,26.955,21.319,26.347,19.792,25.27z"/>
	</g>
</g>
<g>
</g>
<g>
</g>
<g>
</g>
<g>
</g>
<g>
</g>
<g>
</g>
<g>
</g>
<g>
</g>
<g>
</g>
<g>
</g>
<g>
</g>
<g>
</g>
<g>
</g>
<g>
</g>
<g>
</g>
</svg>
