<?xml version="1.0" encoding="iso-8859-1"?>
<!-- Generator: Adobe Illustrator 16.0.4, SVG Export Plug-In . SVG Version: 6.00 Build 0)  -->
<!DOCTYPE svg PUBLIC "-//W3C//DTD SVG 1.1//EN" "http://www.w3.org/Graphics/SVG/1.1/DTD/svg11.dtd">
<svg version="1.1" id="Layer_1" xmlns="http://www.w3.org/2000/svg" xmlns:xlink="http://www.w3.org/1999/xlink" x="0px" y="0px"
	 width="44px" height="44px" viewBox="0 0 44 44" style="enable-background:new 0 0 44 44;" xml:space="preserve">
<g id="_x31_267-icloud_x40_2x.png">
	<g>
		<path d="M22,0C9.85,0,0,9.85,0,22s9.85,22,22,22s22-9.85,22-22S34.15,0,22,0z M30.551,30.014c-0.227,0-0.444-0.032-0.663-0.06
			v0.06H14.274c-3.458,0-6.261-2.825-6.261-6.311c0-2.833,1.853-5.23,4.403-6.028c0.068-2.293,1.924-4.134,4.216-4.134
			c0.501,0,0.974,0.103,1.42,0.264C19.393,12.099,21.462,11,23.789,11c4.042,0,7.318,3.303,7.318,7.376
			c0,0.204-0.014,0.405-0.03,0.605c2.752,0.273,4.909,2.611,4.909,5.489C35.986,27.532,33.553,30.014,30.551,30.014z"/>
	</g>
</g>
<g>
</g>
<g>
</g>
<g>
</g>
<g>
</g>
<g>
</g>
<g>
</g>
<g>
</g>
<g>
</g>
<g>
</g>
<g>
</g>
<g>
</g>
<g>
</g>
<g>
</g>
<g>
</g>
<g>
</g>
</svg>
