<?xml version="1.0" encoding="iso-8859-1"?>
<!-- Generator: Adobe Illustrator 16.0.4, SVG Export Plug-In . SVG Version: 6.00 Build 0)  -->
<!DOCTYPE svg PUBLIC "-//W3C//DTD SVG 1.1//EN" "http://www.w3.org/Graphics/SVG/1.1/DTD/svg11.dtd">
<svg version="1.1" id="Layer_1" xmlns="http://www.w3.org/2000/svg" xmlns:xlink="http://www.w3.org/1999/xlink" x="0px" y="0px"
	 width="44px" height="44px" viewBox="0 0 44 44" style="enable-background:new 0 0 44 44;" xml:space="preserve">
<g id="_x31_268-instagram_x40_2x.png">
	<g>
		<path d="M22,26c2.209,0,4-1.791,4-4s-1.791-4-4-4s-4,1.791-4,4S19.791,26,22,26z M29,22c0,3.866-3.134,7-7,7s-7-3.134-7-7
			c0-0.7,0.134-1.362,0.325-2H13v11h18V20h-2.325C28.866,20.638,29,21.3,29,22z M30,13h-2c-0.553,0-1,0.447-1,1v2
			c0,0.553,0.447,1,1,1h2c0.553,0,1-0.447,1-1v-2C31,13.447,30.553,13,30,13z M22,0C9.85,0,0,9.85,0,22s9.85,22,22,22s22-9.85,22-22
			S34.15,0,22,0z M34,31c0,1.657-1.343,3-3,3H13c-1.657,0-3-1.343-3-3V13c0-1.657,1.343-3,3-3h18c1.657,0,3,1.343,3,3V31z"/>
	</g>
</g>
<g>
</g>
<g>
</g>
<g>
</g>
<g>
</g>
<g>
</g>
<g>
</g>
<g>
</g>
<g>
</g>
<g>
</g>
<g>
</g>
<g>
</g>
<g>
</g>
<g>
</g>
<g>
</g>
<g>
</g>
</svg>
