<?xml version="1.0" encoding="iso-8859-1"?>
<!-- Generator: Adobe Illustrator 16.0.4, SVG Export Plug-In . SVG Version: 6.00 Build 0)  -->
<!DOCTYPE svg PUBLIC "-//W3C//DTD SVG 1.1//EN" "http://www.w3.org/Graphics/SVG/1.1/DTD/svg11.dtd">
<svg version="1.1" id="Layer_1" xmlns="http://www.w3.org/2000/svg" xmlns:xlink="http://www.w3.org/1999/xlink" x="0px" y="0px"
	 width="44px" height="44px" viewBox="0 0 44 44" style="enable-background:new 0 0 44 44;" xml:space="preserve">
<g id="_x31_269-itunes_x40_2x.png">
	<g>
		<path d="M22,0C9.85,0,0,9.85,0,22s9.85,22,22,22s22-9.85,22-22S34.15,0,22,0z M30,11v18c0,1.657-1.343,3-3,3h-2
			c-1.657,0-3-1.343-3-3c0-1.656,1.343-3,3-3h1c2,0,2-2,2-2s0-6.091,0-7c0-0.764-0.374-1.115-1-1
			c-0.626,0.116-7.141,1.662-8.134,1.867c-0.76,0.158-0.864,0.516-0.864,0.909C18.002,18.981,18,28.073,18,31c0,1.657-1.343,3-3,3
			h-2c-1.657,0-3-1.343-3-3c0-1.656,1.343-3,3-3h1c0,0,2,0,2-2s0-11.546,0-12c0-0.55,0.161-1.283,1.447-1.586
			c1.286-0.304,9.617-2.08,11.225-2.383S30,11,30,11z"/>
	</g>
</g>
<g>
</g>
<g>
</g>
<g>
</g>
<g>
</g>
<g>
</g>
<g>
</g>
<g>
</g>
<g>
</g>
<g>
</g>
<g>
</g>
<g>
</g>
<g>
</g>
<g>
</g>
<g>
</g>
<g>
</g>
</svg>
