<?xml version="1.0" encoding="iso-8859-1"?>
<!-- Generator: Adobe Illustrator 16.0.4, SVG Export Plug-In . SVG Version: 6.00 Build 0)  -->
<!DOCTYPE svg PUBLIC "-//W3C//DTD SVG 1.1//EN" "http://www.w3.org/Graphics/SVG/1.1/DTD/svg11.dtd">
<svg version="1.1" id="Layer_1" xmlns="http://www.w3.org/2000/svg" xmlns:xlink="http://www.w3.org/1999/xlink" x="0px" y="0px"
	 width="44px" height="44px" viewBox="0 0 44 44" style="enable-background:new 0 0 44 44;" xml:space="preserve">
<g id="_x31_270-linkedin_x40_2x.png">
	<g>
		<path d="M16.496,14.995c-0.829,0-1.501,0.672-1.501,1.501s0.672,1.501,1.501,1.501s1.501-0.672,1.501-1.501
			S17.325,14.995,16.496,14.995z M14.995,28.005h3.002v-9.007h-3.002V28.005z M26.003,18.998c-2.443,0-3.002,1.501-3.002,1.501
			v-1.501h-3.002v9.007h3.002v-5.004c0,0-0.044-1.666,1.636-1.666c1.034,0,1.366,0.552,1.366,1.666v5.004h3.002v-5.004
			C29.005,20.455,27.884,18.998,26.003,18.998z M22,0C9.85,0,0,9.85,0,22s9.85,22,22,22s22-9.85,22-22S34.15,0,22,0z M34,30
			c0,2.209-1.791,4-4,4H14c-2.209,0-4-1.791-4-4V14c0-2.209,1.791-4,4-4h16c2.209,0,4,1.791,4,4V30z"/>
	</g>
</g>
<g>
</g>
<g>
</g>
<g>
</g>
<g>
</g>
<g>
</g>
<g>
</g>
<g>
</g>
<g>
</g>
<g>
</g>
<g>
</g>
<g>
</g>
<g>
</g>
<g>
</g>
<g>
</g>
<g>
</g>
</svg>
