<?xml version="1.0" encoding="iso-8859-1"?>
<!-- Generator: Adobe Illustrator 16.0.4, SVG Export Plug-In . SVG Version: 6.00 Build 0)  -->
<!DOCTYPE svg PUBLIC "-//W3C//DTD SVG 1.1//EN" "http://www.w3.org/Graphics/SVG/1.1/DTD/svg11.dtd">
<svg version="1.1" id="Layer_1" xmlns="http://www.w3.org/2000/svg" xmlns:xlink="http://www.w3.org/1999/xlink" x="0px" y="0px"
	 width="44px" height="44px" viewBox="0 0 44 44" style="enable-background:new 0 0 44 44;" xml:space="preserve">
<g id="_x31_271-paypal_x40_2x.png">
	<g>
		<path d="M20.27,20.373c1.585,0,5.813-0.518,5.813-3.626c0-3.107-2.642-2.849-3.699-2.849h-0.792c0,0-1.321,0-1.585,1.036
			l-0.793,3.885C19.213,18.819,18.685,20.373,20.27,20.373z M22,0C9.85,0,0,9.85,0,22s9.85,22,22,22s22-9.85,22-22S34.15,0,22,0z
			 M11.022,29.956l4.228-18.647c0,0,0.264-1.295,1.585-1.295h7.927c0,0,8.191-0.26,7.134,6.733
			c-1.057,6.993-9.249,7.512-11.098,7.512h-1.585c0,0-1.585-0.26-1.85,1.554l-0.792,4.144c0,0-0.264,1.036-1.585,1.036
			s-3.171,0-3.171,0S10.757,30.992,11.022,29.956z M34.898,19.742c-1.057,6.993-9.248,7.511-11.098,7.511h-1.585
			c0,0-1.585-0.259-1.85,1.554l-0.793,4.145c0,0-0.264,1.036-1.585,1.036c-1.321,0-3.171,0-3.171,0s-1.057,0-0.792-1.036
			l0.104-0.461c0.658,0,1.592,0,2.358,0c1.321,0,1.585-1.036,1.585-1.036l0.792-4.145c0.265-1.812,1.85-1.554,1.85-1.554h1.585
			c1.85,0,10.041-0.519,11.098-7.512c0.258-1.707-0.041-2.977-0.631-3.928C34.223,15.267,35.328,16.898,34.898,19.742z"/>
	</g>
</g>
<g>
</g>
<g>
</g>
<g>
</g>
<g>
</g>
<g>
</g>
<g>
</g>
<g>
</g>
<g>
</g>
<g>
</g>
<g>
</g>
<g>
</g>
<g>
</g>
<g>
</g>
<g>
</g>
<g>
</g>
</svg>
