<?xml version="1.0" encoding="iso-8859-1"?>
<!-- Generator: Adobe Illustrator 16.0.4, SVG Export Plug-In . SVG Version: 6.00 Build 0)  -->
<!DOCTYPE svg PUBLIC "-//W3C//DTD SVG 1.1//EN" "http://www.w3.org/Graphics/SVG/1.1/DTD/svg11.dtd">
<svg version="1.1" id="Layer_1" xmlns="http://www.w3.org/2000/svg" xmlns:xlink="http://www.w3.org/1999/xlink" x="0px" y="0px"
	 width="44px" height="44px" viewBox="0 0 44 44" style="enable-background:new 0 0 44 44;" xml:space="preserve">
<g id="_x31_272-pinterest_x40_2x.png">
	<g>
		<path d="M22,0C9.85,0,0,9.85,0,22s9.85,22,22,22s22-9.85,22-22S34.15,0,22,0z M24.193,28.231c-1.763,0-3.42-0.938-3.988-2.003
			c0,0-0.948,3.702-1.148,4.417c-0.707,2.524-2.787,5.052-2.947,5.259c-0.113,0.145-0.362,0.099-0.388-0.092
			c-0.044-0.322-0.575-3.508,0.049-6.106c0.313-1.306,2.1-8.756,2.1-8.756s-0.521-1.026-0.521-2.543
			c0-2.382,1.402-4.159,3.148-4.159c1.484,0,2.202,1.097,2.202,2.412c0,1.47-0.951,3.666-1.441,5.702
			c-0.41,1.705,0.869,3.095,2.577,3.095c3.092,0,5.175-3.91,5.175-8.543c0-3.521-2.408-6.158-6.792-6.158
			c-4.95,0-8.037,3.635-8.037,7.696c0,1.399,0.42,2.388,1.078,3.151c0.302,0.352,0.344,0.492,0.235,0.896
			c-0.08,0.296-0.258,1.007-0.333,1.289c-0.108,0.407-0.443,0.553-0.817,0.402C12.062,23.274,11,20.815,11,18.052
			c0-4.564,3.911-10.038,11.667-10.038C28.899,8.014,33,12.452,33,17.219C33,23.522,29.44,28.231,24.193,28.231z"/>
	</g>
</g>
<g>
</g>
<g>
</g>
<g>
</g>
<g>
</g>
<g>
</g>
<g>
</g>
<g>
</g>
<g>
</g>
<g>
</g>
<g>
</g>
<g>
</g>
<g>
</g>
<g>
</g>
<g>
</g>
<g>
</g>
</svg>
