<?xml version="1.0" encoding="iso-8859-1"?>
<!-- Generator: Adobe Illustrator 16.0.4, SVG Export Plug-In . SVG Version: 6.00 Build 0)  -->
<!DOCTYPE svg PUBLIC "-//W3C//DTD SVG 1.1//EN" "http://www.w3.org/Graphics/SVG/1.1/DTD/svg11.dtd">
<svg version="1.1" id="Layer_1" xmlns="http://www.w3.org/2000/svg" xmlns:xlink="http://www.w3.org/1999/xlink" x="0px" y="0px"
	 width="44px" height="44px" viewBox="0 0 44 44" style="enable-background:new 0 0 44 44;" xml:space="preserve">
<g id="_x31_273-quora_x40_2x.png">
	<g>
		<path d="M22.063,12.471c0,0-6.042-0.149-6.042,9.109c0,9.258,3.596,9.258,5.754,9.557c0,0,0.908,0.148,2.026-0.249
			c-1.364-2.615-3.282-2.001-3.282-2.001l-0.31-2.108c0.396-0.257,4.061-1.051,6.281,1.814c0.847-1.402,1.469-3.554,1.469-6.864
			C27.96,11.873,22.063,12.471,22.063,12.471z M22,0C9.85,0,0,9.85,0,22s9.85,22,22,22s22-9.85,22-22S34.15,0,22,0z M33.997,21.898
			c0,0-0.185,6.982-5.484,10.621c1.587,2.493,3.151,1.79,3.151,1.79l0.31,2.409c-3.111,0.758-5.449,0.008-6.858-2.637
			c-1.006,0.289-2.1,0.504-3.348,0.567C9.538,34.189,9.985,22.053,9.985,22.053c0.447-11.83,10.44-13.079,12.081-13.059
			C34.563,9.147,33.997,21.898,33.997,21.898z"/>
	</g>
</g>
<g>
</g>
<g>
</g>
<g>
</g>
<g>
</g>
<g>
</g>
<g>
</g>
<g>
</g>
<g>
</g>
<g>
</g>
<g>
</g>
<g>
</g>
<g>
</g>
<g>
</g>
<g>
</g>
<g>
</g>
</svg>
