<?xml version="1.0" encoding="iso-8859-1"?>
<!-- Generator: Adobe Illustrator 16.0.4, SVG Export Plug-In . SVG Version: 6.00 Build 0)  -->
<!DOCTYPE svg PUBLIC "-//W3C//DTD SVG 1.1//EN" "http://www.w3.org/Graphics/SVG/1.1/DTD/svg11.dtd">
<svg version="1.1" id="Layer_1" xmlns="http://www.w3.org/2000/svg" xmlns:xlink="http://www.w3.org/1999/xlink" x="0px" y="0px"
	 width="44px" height="44px" viewBox="0 0 44 44" style="enable-background:new 0 0 44 44;" xml:space="preserve">
<g id="_x31_274-rdio_x40_2x.png">
	<g>
		<path d="M22,0C9.85,0,0,9.85,0,22s9.85,22,22,22s22-9.85,22-22S34.15,0,22,0z M33.107,21.345c0.013,0.224,0.049,0.44,0.049,0.666
			c0,6.626-5.635,11.998-12.585,11.998S7.985,28.637,7.985,22.011s5.635-11.997,12.585-11.997c1.245,0,2.445,0.179,3.581,0.499
			l-0.004,8.455c-1.305-0.679-3.006-0.909-4.731-0.487c-3.105,0.76-5.061,3.294-4.368,5.658c0.694,2.364,3.773,3.665,6.878,2.904
			c2.667-0.652,4.474-2.614,4.495-4.653h0.033V11.408c0.333,0.168,0.643,0.37,0.958,0.565l-0.016-0.041c0,0,5.76,3.84,10.601,3.84
			C37.997,15.772,37.981,20.383,33.107,21.345z"/>
	</g>
</g>
<g>
</g>
<g>
</g>
<g>
</g>
<g>
</g>
<g>
</g>
<g>
</g>
<g>
</g>
<g>
</g>
<g>
</g>
<g>
</g>
<g>
</g>
<g>
</g>
<g>
</g>
<g>
</g>
<g>
</g>
</svg>
