<?xml version="1.0" encoding="iso-8859-1"?>
<!-- Generator: Adobe Illustrator 16.0.4, SVG Export Plug-In . SVG Version: 6.00 Build 0)  -->
<!DOCTYPE svg PUBLIC "-//W3C//DTD SVG 1.1//EN" "http://www.w3.org/Graphics/SVG/1.1/DTD/svg11.dtd">
<svg version="1.1" id="Layer_1" xmlns="http://www.w3.org/2000/svg" xmlns:xlink="http://www.w3.org/1999/xlink" x="0px" y="0px"
	 width="44px" height="44px" viewBox="0 0 44 44" style="enable-background:new 0 0 44 44;" xml:space="preserve">
<g id="_x31_275-reddit_x40_2x.png">
	<g>
		<path d="M12.323,18.412c-0.406-0.407-0.962-0.66-1.576-0.66c-1.243,0-2.25,1.03-2.25,2.301c0,0.862,0.47,1.605,1.157,1.999
			C10.171,20.689,11.091,19.452,12.323,18.412z M31.828,13.534c1.078,0,1.951-0.893,1.951-1.993c0-1.102-0.873-1.994-1.951-1.994
			c-1.077,0-1.95,0.893-1.95,1.994C29.877,12.642,30.75,13.534,31.828,13.534z M33.253,17.752c-0.58,0-1.104,0.23-1.502,0.599
			c1.247,1.035,2.188,2.269,2.722,3.632c0.619-0.41,1.031-1.119,1.031-1.93C35.504,18.782,34.496,17.752,33.253,17.752z
			 M22.075,16.755c-6.298,0-11.403,3.502-11.403,7.822c0,4.319,5.105,7.821,11.403,7.821s11.403-3.502,11.403-7.821
			C33.479,20.257,28.373,16.755,22.075,16.755z M15.473,22.967c0-1.017,0.806-1.841,1.8-1.841c0.995,0,1.801,0.824,1.801,1.841
			s-0.806,1.84-1.801,1.84C16.279,24.807,15.473,23.983,15.473,22.967z M27.32,28.912l0.007,0.01c0,0-2.326,1.713-5.327,1.713
			s-5.32-1.706-5.32-1.706l0.008-0.012c-0.229-0.132-0.389-0.372-0.389-0.659c0-0.424,0.336-0.767,0.75-0.767
			c0.169,0,0.317,0.067,0.443,0.164l0.007-0.011c0,0,2.591,1.457,4.501,1.457c2.849,0,4.501-1.457,4.501-1.457l0.007,0.011
			c0.125-0.097,0.274-0.164,0.443-0.164c0.415,0,0.75,0.343,0.75,0.767C27.702,28.541,27.544,28.779,27.32,28.912z M26.727,24.807
			c-0.995,0-1.801-0.823-1.801-1.84s0.806-1.841,1.801-1.841c0.994,0,1.8,0.824,1.8,1.841S27.721,24.807,26.727,24.807z M22,0
			C9.85,0,0,9.85,0,22s9.85,22,22,22s22-9.85,22-22S34.15,0,22,0z M34.886,23.489c0.056,0.357,0.092,0.72,0.092,1.088
			c0,5.209-5.777,9.432-12.903,9.432S9.171,29.786,9.171,24.577c0-0.343,0.028-0.681,0.077-1.013
			c-1.325-0.592-2.252-1.939-2.252-3.512c0-2.118,1.68-3.834,3.751-3.834c1.116,0,2.106,0.507,2.793,1.297
			c2.118-1.368,4.85-2.232,7.859-2.348c-0.005-0.515,0.041-4.625,2.852-5.774c0,0,2.082-0.79,4.487,0.605
			c0.561-1.172,1.728-1.985,3.09-1.985c1.906,0,3.451,1.579,3.451,3.527s-1.545,3.527-3.451,3.527c-1.906,0-3.451-1.579-3.451-3.527
			c0-0.004,0.001-0.008,0.001-0.012c-0.511-0.298-2.333-1.256-3.677-0.602c-1.554,0.756-1.721,3.15-1.797,4.245
			c2.902,0.136,5.542,0.969,7.608,2.278c0.685-0.754,1.655-1.232,2.741-1.232c2.071,0,3.751,1.716,3.751,3.834
			C37.004,21.568,36.136,22.867,34.886,23.489z"/>
	</g>
</g>
<g>
</g>
<g>
</g>
<g>
</g>
<g>
</g>
<g>
</g>
<g>
</g>
<g>
</g>
<g>
</g>
<g>
</g>
<g>
</g>
<g>
</g>
<g>
</g>
<g>
</g>
<g>
</g>
<g>
</g>
</svg>
