<?xml version="1.0" encoding="iso-8859-1"?>
<!-- Generator: Adobe Illustrator 16.0.4, SVG Export Plug-In . SVG Version: 6.00 Build 0)  -->
<!DOCTYPE svg PUBLIC "-//W3C//DTD SVG 1.1//EN" "http://www.w3.org/Graphics/SVG/1.1/DTD/svg11.dtd">
<svg version="1.1" id="Layer_1" xmlns="http://www.w3.org/2000/svg" xmlns:xlink="http://www.w3.org/1999/xlink" x="0px" y="0px"
	 width="44px" height="44px" viewBox="0 0 44 44" style="enable-background:new 0 0 44 44;" xml:space="preserve">
<g id="_x31_276-share_x40_2x.png">
	<g>
		<path d="M22,0C9.85,0,0,9.85,0,22s9.85,22,22,22s22-9.85,22-22S34.15,0,22,0z M17.619,21.932c0,0.219-0.022,0.433-0.055,0.643
			l8.234,4.106c0.766-0.681,1.778-1.099,2.895-1.099c2.379,0,4.308,1.887,4.308,4.214s-1.929,4.214-4.308,4.214
			c-2.38,0-4.308-1.887-4.308-4.214c0-0.077,0.007-0.151,0.011-0.227l-8.526-4.253c-0.716,0.519-1.6,0.829-2.559,0.829
			c-2.379,0-4.308-1.886-4.308-4.214c0-2.327,1.929-4.213,4.308-4.213c1.065,0,2.039,0.38,2.791,1.007l8.303-4.14
			c-0.012-0.126-0.02-0.253-0.02-0.381c0-2.327,1.928-4.214,4.308-4.214c2.379,0,4.308,1.887,4.308,4.214s-1.929,4.213-4.308,4.213
			c-1.061,0-2.029-0.376-2.78-0.997l-8.312,4.146C17.61,21.688,17.619,21.809,17.619,21.932z"/>
	</g>
</g>
<g>
</g>
<g>
</g>
<g>
</g>
<g>
</g>
<g>
</g>
<g>
</g>
<g>
</g>
<g>
</g>
<g>
</g>
<g>
</g>
<g>
</g>
<g>
</g>
<g>
</g>
<g>
</g>
<g>
</g>
</svg>
