<?xml version="1.0" encoding="iso-8859-1"?>
<!-- Generator: Adobe Illustrator 16.0.4, SVG Export Plug-In . SVG Version: 6.00 Build 0)  -->
<!DOCTYPE svg PUBLIC "-//W3C//DTD SVG 1.1//EN" "http://www.w3.org/Graphics/SVG/1.1/DTD/svg11.dtd">
<svg version="1.1" id="Layer_1" xmlns="http://www.w3.org/2000/svg" xmlns:xlink="http://www.w3.org/1999/xlink" x="0px" y="0px"
	 width="44px" height="44px" viewBox="0 0 44 44" style="enable-background:new 0 0 44 44;" xml:space="preserve">
<g id="_x31_277-skype_x40_2x.png">
	<g>
		<path d="M24.62,20.817l-2.898-0.655c-1.101-0.254-2.37-0.593-2.37-1.65s0.889-1.799,2.497-1.799c3.236,0,2.94,2.264,4.549,2.264
			c0.846,0,1.586-0.507,1.586-1.375c0-2.03-3.194-3.554-5.902-3.554c-2.94,0-6.072,1.27-6.072,4.654
			c0,1.629,0.571,3.364,3.724,4.168l3.914,0.994c1.185,0.297,1.481,0.974,1.481,1.587c0,1.016-0.995,2.01-2.793,2.01
			c-3.512,0-3.025-2.75-4.908-2.75c-0.847,0-1.46,0.592-1.46,1.438c0,1.65,1.968,3.851,6.368,3.851c4.189,0,6.263-2.053,6.263-4.803
			C28.598,23.42,27.793,21.537,24.62,20.817z M22,0C9.85,0,0,9.85,0,22s9.85,22,22,22s22-9.85,22-22S34.15,0,22,0z M28.455,35.987
			c-1.558,0-3.006-0.474-4.207-1.284c-0.731,0.128-1.479,0.208-2.248,0.208c-7.131,0-12.911-5.78-12.911-12.911
			c0-0.769,0.08-1.517,0.209-2.248c-0.811-1.201-1.284-2.648-1.284-4.207c0-4.159,3.371-7.531,7.531-7.531
			c1.558,0,3.006,0.474,4.207,1.284C20.483,9.169,21.231,9.09,22,9.09c7.131,0,12.911,5.78,12.911,12.91
			c0,0.769-0.08,1.517-0.209,2.248c0.812,1.202,1.284,2.649,1.284,4.207C35.986,32.615,32.615,35.987,28.455,35.987z"/>
	</g>
</g>
<g>
</g>
<g>
</g>
<g>
</g>
<g>
</g>
<g>
</g>
<g>
</g>
<g>
</g>
<g>
</g>
<g>
</g>
<g>
</g>
<g>
</g>
<g>
</g>
<g>
</g>
<g>
</g>
<g>
</g>
</svg>
