<?xml version="1.0" encoding="iso-8859-1"?>
<!-- Generator: Adobe Illustrator 16.0.4, SVG Export Plug-In . SVG Version: 6.00 Build 0)  -->
<!DOCTYPE svg PUBLIC "-//W3C//DTD SVG 1.1//EN" "http://www.w3.org/Graphics/SVG/1.1/DTD/svg11.dtd">
<svg version="1.1" id="Layer_1" xmlns="http://www.w3.org/2000/svg" xmlns:xlink="http://www.w3.org/1999/xlink" x="0px" y="0px"
	 width="44px" height="44px" viewBox="0 0 44 44" style="enable-background:new 0 0 44 44;" xml:space="preserve">
<g id="_x31_278-spotify_x40_2x.png">
	<g>
		<path d="M22,0C9.85,0,0,9.85,0,22s9.85,22,22,22s22-9.85,22-22S34.15,0,22,0z M30.587,30.405
			c-0.226,0.374-0.631,0.583-1.047,0.583c-0.208,0-0.419-0.053-0.612-0.162c-2.797-1.595-5.761-2.453-9.061-2.627
			c-3.204-0.167-6.23,0.372-8.228,0.792c-0.654,0.138-1.3-0.267-1.441-0.902s0.274-1.264,0.929-1.401
			c5.215-1.097,12.09-1.85,19.027,2.105C30.732,29.122,30.926,29.844,30.587,30.405z M33.017,25.197
			c-0.277,0.466-0.78,0.727-1.297,0.727c-0.255,0-0.513-0.063-0.749-0.196c-3.199-1.802-6.762-2.856-10.59-3.137
			c-3.083-0.226-6.325,0.086-9.129,0.876c-0.795,0.224-1.625-0.222-1.855-0.993c-0.229-0.772,0.228-1.58,1.021-1.804
			c2.221-0.626,5.791-1.304,10.188-0.982c4.281,0.313,8.273,1.498,11.866,3.521C33.188,23.611,33.432,24.502,33.017,25.197z
			 M35.746,19.141c-0.332,0.571-0.943,0.893-1.574,0.893c-0.301,0-0.606-0.073-0.887-0.228c-4.34-2.382-9.221-3.077-12.55-3.241
			c-3.731-0.183-7.62,0.197-10.401,1.016c-0.955,0.281-1.963-0.243-2.252-1.172c-0.289-0.928,0.25-1.908,1.205-2.189
			c5.538-1.631,16.974-2.303,25.774,2.529C35.931,17.225,36.237,18.296,35.746,19.141z"/>
	</g>
</g>
<g>
</g>
<g>
</g>
<g>
</g>
<g>
</g>
<g>
</g>
<g>
</g>
<g>
</g>
<g>
</g>
<g>
</g>
<g>
</g>
<g>
</g>
<g>
</g>
<g>
</g>
<g>
</g>
<g>
</g>
</svg>
