<?xml version="1.0" encoding="iso-8859-1"?>
<!-- Generator: Adobe Illustrator 16.0.4, SVG Export Plug-In . SVG Version: 6.00 Build 0)  -->
<!DOCTYPE svg PUBLIC "-//W3C//DTD SVG 1.1//EN" "http://www.w3.org/Graphics/SVG/1.1/DTD/svg11.dtd">
<svg version="1.1" id="Layer_1" xmlns="http://www.w3.org/2000/svg" xmlns:xlink="http://www.w3.org/1999/xlink" x="0px" y="0px"
	 width="44px" height="44px" viewBox="0 0 44 44" style="enable-background:new 0 0 44 44;" xml:space="preserve">
<g id="_x31_279-steam_x40_2x.png">
	<g>
		<path d="M10.203,16.56c-1.23-0.081-2.296,0.817-2.381,2.008c-0.084,1.19,0.846,2.222,2.076,2.303
			c0.426,0.028,1.072-0.212,1.248-0.288c-0.585-0.057-2.291-0.429-2.2-1.712c0.056-0.797,0.77-1.398,1.593-1.344
			c0.353,0.023,1.021,0.329,1.67,0.67C11.981,17.311,11.195,16.625,10.203,16.56z M24.847,24.207
			c0.021-0.013,0.043-0.021,0.063-0.031C24.707,24.155,24.64,24.173,24.847,24.207z M11.219,20.552
			c-0.004,0.003-0.049,0.021-0.072,0.03C11.354,20.603,11.428,20.585,11.219,20.552z M26.168,23.894
			c-0.457-0.032-0.888,0.078-1.258,0.282c0.578,0.057,2.298,0.436,2.2,1.724c-0.061,0.796-0.776,1.395-1.6,1.336
			c-0.354-0.025-1.019-0.335-1.667-0.679c0.224,0.887,1.006,1.576,1.997,1.646c1.23,0.088,2.301-0.807,2.392-1.996
			C28.322,25.017,27.398,23.981,26.168,23.894z M32.937,16.282c-1.504,0-2.726,1.183-2.726,2.638s1.222,2.633,2.726,2.633
			c1.505,0,2.727-1.178,2.727-2.633S34.441,16.282,32.937,16.282z M32.946,20.512c-0.916,0-1.658-0.719-1.658-1.604
			c0-0.886,0.742-1.604,1.658-1.604c0.915,0,1.658,0.719,1.658,1.604C34.604,19.793,33.861,20.512,32.946,20.512z M22,0
			C9.85,0,0,9.85,0,22s9.85,22,22,22s22-9.85,22-22S34.15,0,22,0z M32.937,22.849l-3.895,3.491c-0.15,1.483-1.447,2.649-3.02,2.649
			c-1.451,0-2.668-0.993-2.965-2.313l-11.476-5.438c-0.454,0.263-0.983,0.413-1.549,0.413c-1.673,0-3.036-1.319-3.036-2.937
			c0-1.618,1.363-2.941,3.036-2.941c1.448,0,2.665,0.992,2.965,2.31l11.475,5.445c0.455-0.263,0.983-0.413,1.55-0.413
			c0.106,0,0.211,0.006,0.314,0.017l2.533-4.249c0.021-2.155,1.834-3.896,4.066-3.896c2.245,0,4.066,1.762,4.066,3.934
			C37.003,21.09,35.182,22.849,32.937,22.849z"/>
	</g>
</g>
<g>
</g>
<g>
</g>
<g>
</g>
<g>
</g>
<g>
</g>
<g>
</g>
<g>
</g>
<g>
</g>
<g>
</g>
<g>
</g>
<g>
</g>
<g>
</g>
<g>
</g>
<g>
</g>
<g>
</g>
</svg>
