<?xml version="1.0" encoding="iso-8859-1"?>
<!-- Generator: Adobe Illustrator 16.0.4, SVG Export Plug-In . SVG Version: 6.00 Build 0)  -->
<!DOCTYPE svg PUBLIC "-//W3C//DTD SVG 1.1//EN" "http://www.w3.org/Graphics/SVG/1.1/DTD/svg11.dtd">
<svg version="1.1" id="Layer_1" xmlns="http://www.w3.org/2000/svg" xmlns:xlink="http://www.w3.org/1999/xlink" x="0px" y="0px"
	 width="44px" height="44px" viewBox="0 0 44 44" style="enable-background:new 0 0 44 44;" xml:space="preserve">
<g id="_x31_280-stumbleupon_x40_2x.png">
	<g>
		<path d="M22,0C9.85,0,0,9.85,0,22s9.85,22,22,22s22-9.85,22-22S34.15,0,22,0z M22.009,14.493c-0.76,0-1.444,0.62-1.444,1.386
			l-0.006,8.354c-0.045,3.194-2.557,5.771-5.74,5.771c-3.21,0-5.813-2.621-5.813-5.856c0-0.041,0-3.141,0-3.141h4.337v3.094
			c0,0.766,0.661,1.386,1.421,1.386c0.761,0,1.467-0.62,1.467-1.386v-8.459C16.342,12.508,18.869,10,22.009,10
			c3.151,0,5.686,2.526,5.779,5.678v2.163l-2.626,0.797l-1.709-0.834v-1.925C23.453,15.113,22.77,14.493,22.009,14.493z
			 M35.013,24.148c0,3.235-2.603,5.856-5.813,5.856c-3.193,0-5.719-2.594-5.746-5.804v-3.293l1.709,0.834l2.626-0.797v3.323
			c0,0.766,0.684,1.431,1.444,1.431c0.76,0,1.444-0.665,1.444-1.431v-3.261h4.336C35.013,21.008,35.013,24.107,35.013,24.148z"/>
	</g>
</g>
<g>
</g>
<g>
</g>
<g>
</g>
<g>
</g>
<g>
</g>
<g>
</g>
<g>
</g>
<g>
</g>
<g>
</g>
<g>
</g>
<g>
</g>
<g>
</g>
<g>
</g>
<g>
</g>
<g>
</g>
</svg>
