<?xml version="1.0" encoding="iso-8859-1"?>
<!-- Generator: Adobe Illustrator 16.0.4, SVG Export Plug-In . SVG Version: 6.00 Build 0)  -->
<!DOCTYPE svg PUBLIC "-//W3C//DTD SVG 1.1//EN" "http://www.w3.org/Graphics/SVG/1.1/DTD/svg11.dtd">
<svg version="1.1" id="Layer_1" xmlns="http://www.w3.org/2000/svg" xmlns:xlink="http://www.w3.org/1999/xlink" x="0px" y="0px"
	 width="44px" height="44px" viewBox="0 0 44 44" style="enable-background:new 0 0 44 44;" xml:space="preserve">
<g id="_x31_281-tumblr_x40_2x.png">
	<g>
		<path d="M22,0C9.85,0,0,9.85,0,22s9.85,22,22,22s22-9.85,22-22S34.15,0,22,0z M23.781,33.985c-5.308,0.093-7.32-3.88-7.32-6.676
			v-8.169h-2.466v-3.229c3.696-1.367,4.586-4.788,4.794-6.737c0.015-0.134,0.117-0.187,0.175-0.187c0.059,0,3.57,0,3.57,0v6.368
			h4.875v3.784h-4.893v7.782c0.017,1.06,0.395,2.519,2.345,2.465c0.646-0.018,1.513-0.211,1.966-0.432l1.172,3.565
			C27.561,33.184,25.572,33.953,23.781,33.985z"/>
	</g>
</g>
<g>
</g>
<g>
</g>
<g>
</g>
<g>
</g>
<g>
</g>
<g>
</g>
<g>
</g>
<g>
</g>
<g>
</g>
<g>
</g>
<g>
</g>
<g>
</g>
<g>
</g>
<g>
</g>
<g>
</g>
</svg>
