<?xml version="1.0" encoding="iso-8859-1"?>
<!-- Generator: Adobe Illustrator 16.0.4, SVG Export Plug-In . SVG Version: 6.00 Build 0)  -->
<!DOCTYPE svg PUBLIC "-//W3C//DTD SVG 1.1//EN" "http://www.w3.org/Graphics/SVG/1.1/DTD/svg11.dtd">
<svg version="1.1" id="Layer_1" xmlns="http://www.w3.org/2000/svg" xmlns:xlink="http://www.w3.org/1999/xlink" x="0px" y="0px"
	 width="44px" height="44px" viewBox="0 0 44 44" style="enable-background:new 0 0 44 44;" xml:space="preserve">
<g id="_x31_282-twitter_x40_2x.png">
	<g>
		<path d="M22,0C9.85,0,0,9.85,0,22s9.85,22,22,22s22-9.85,22-22S34.15,0,22,0z M32.555,16.982c0.009,0.217,0.013,0.435,0.013,0.653
			c0,6.671-4.956,14.362-14.019,14.362c-2.783,0-5.374-0.836-7.554-2.268c0.385,0.047,0.775,0.071,1.174,0.071
			c2.309,0,4.43-0.808,6.116-2.161c-2.156-0.041-3.983-1.501-4.61-3.507c0.301,0.059,0.596,0.092,0.914,0.092
			c0.449,0,0.858-0.062,1.271-0.177c-2.253-0.465-4.005-2.505-4.005-4.951c0-0.021,0-0.042,0-0.062
			c0.857,0.377,1.478,0.604,2.286,0.631c-1.322-0.905-2.138-2.45-2.138-4.201c0-0.926,0.242-1.793,0.667-2.538
			c2.43,3.054,6.061,5.063,10.156,5.274c-0.084-0.37-0.127-0.755-0.127-1.15c0-2.788,2.206-5.049,4.928-5.049
			c1.416,0,2.697,0.613,3.596,1.595c1.124-0.226,2.177-0.646,3.129-1.225c-0.368,1.179-1.149,2.168-2.167,2.792
			c0.997-0.122,1.947-0.393,2.831-0.795C34.353,15.382,33.519,16.271,32.555,16.982z"/>
	</g>
</g>
<g>
</g>
<g>
</g>
<g>
</g>
<g>
</g>
<g>
</g>
<g>
</g>
<g>
</g>
<g>
</g>
<g>
</g>
<g>
</g>
<g>
</g>
<g>
</g>
<g>
</g>
<g>
</g>
<g>
</g>
</svg>
