<?xml version="1.0" encoding="iso-8859-1"?>
<!-- Generator: Adobe Illustrator 16.0.4, SVG Export Plug-In . SVG Version: 6.00 Build 0)  -->
<!DOCTYPE svg PUBLIC "-//W3C//DTD SVG 1.1//EN" "http://www.w3.org/Graphics/SVG/1.1/DTD/svg11.dtd">
<svg version="1.1" id="Layer_1" xmlns="http://www.w3.org/2000/svg" xmlns:xlink="http://www.w3.org/1999/xlink" x="0px" y="0px"
	 width="44px" height="44px" viewBox="0 0 44 44" style="enable-background:new 0 0 44 44;" xml:space="preserve">
<g id="_x31_283-vimeo_x40_2x.png">
	<g>
		<path d="M22,0C9.85,0,0,9.85,0,22s9.85,22,22,22s22-9.85,22-22S34.15,0,22,0z M28.116,26.864
			c-3.266,4.085-6.028,6.126-8.289,6.126c-1.399,0-2.583-1.246-3.553-3.737c-0.646-2.284-1.292-4.568-1.938-6.853
			c-0.718-2.492-1.489-3.738-2.314-3.738c-0.18,0-0.808,0.363-1.884,1.09l-1.13-1.401c1.184-1.003,2.35-2.007,3.499-3.011
			c1.579-1.315,2.763-2.007,3.553-2.076c1.865-0.174,3.014,1.056,3.445,3.686c0.466,2.838,0.789,4.604,0.969,5.295
			c0.538,2.354,1.13,3.53,1.776,3.53c0.502,0,1.255-0.761,2.261-2.284c1.004-1.522,1.542-2.682,1.615-3.479
			c0.143-1.314-0.396-1.973-1.615-1.973c-0.575,0-1.167,0.122-1.776,0.363c1.184-3.703,3.445-5.503,6.782-5.398
			c2.476,0.069,3.642,1.609,3.499,4.62C32.907,19.874,31.273,22.954,28.116,26.864z"/>
	</g>
</g>
<g>
</g>
<g>
</g>
<g>
</g>
<g>
</g>
<g>
</g>
<g>
</g>
<g>
</g>
<g>
</g>
<g>
</g>
<g>
</g>
<g>
</g>
<g>
</g>
<g>
</g>
<g>
</g>
<g>
</g>
</svg>
