<?xml version="1.0" encoding="iso-8859-1"?>
<!-- Generator: Adobe Illustrator 16.0.4, SVG Export Plug-In . SVG Version: 6.00 Build 0)  -->
<!DOCTYPE svg PUBLIC "-//W3C//DTD SVG 1.1//EN" "http://www.w3.org/Graphics/SVG/1.1/DTD/svg11.dtd">
<svg version="1.1" id="Layer_1" xmlns="http://www.w3.org/2000/svg" xmlns:xlink="http://www.w3.org/1999/xlink" x="0px" y="0px"
	 width="44px" height="44px" viewBox="0 0 44 44" style="enable-background:new 0 0 44 44;" xml:space="preserve">
<g id="_x31_285-wordpress_x40_2x.png">
	<g>
		<path d="M22.256,23.276l-4.379,12.723c1.308,0.385,2.69,0.595,4.123,0.595c1.699,0,3.329-0.293,4.846-0.827
			c-0.039-0.062-0.075-0.129-0.104-0.201L22.256,23.276z M22,0C9.85,0,0,9.85,0,22s9.85,22,22,22s22-9.85,22-22S34.15,0,22,0z
			 M22,39.005c-9.391,0-17.004-7.613-17.004-17.005c0-9.391,7.613-17.004,17.004-17.004S39.004,12.609,39.004,22
			C39.004,31.392,31.391,39.005,22,39.005z M7.407,22c0,5.775,3.356,10.769,8.225,13.133L8.67,16.061
			C7.86,17.875,7.407,19.884,7.407,22z M34.806,14.999c0.062,0.465,0.098,0.963,0.098,1.5c0,1.48-0.277,3.146-1.11,5.228
			l-4.457,12.887c4.338-2.529,7.256-7.229,7.256-12.613C36.593,19.463,35.945,17.077,34.806,14.999z M31.852,21.264
			c0-1.805-0.648-3.053-1.203-4.024c-0.74-1.203-1.434-2.221-1.434-3.423c0-1.342,1.017-2.59,2.451-2.59
			c0.065,0,0.126,0.008,0.189,0.012C29.258,8.859,25.799,7.406,22,7.406c-5.099,0-9.584,2.616-12.193,6.578
			c0.343,0.011,0.666,0.018,0.939,0.018c1.526,0,3.889-0.186,3.889-0.186c0.787-0.046,0.879,1.109,0.093,1.202
			c0,0-0.791,0.093-1.67,0.139l5.314,15.808l3.194-9.578l-2.273-6.229c-0.787-0.046-1.531-0.139-1.531-0.139
			c-0.787-0.046-0.694-1.248,0.092-1.202c0,0,2.41,0.186,3.844,0.186c1.526,0,3.89-0.186,3.89-0.186
			c0.787-0.046,0.879,1.109,0.093,1.202c0,0-0.792,0.093-1.67,0.139l5.274,15.688l1.456-4.863
			C31.371,23.962,31.852,22.513,31.852,21.264z"/>
	</g>
</g>
<g>
</g>
<g>
</g>
<g>
</g>
<g>
</g>
<g>
</g>
<g>
</g>
<g>
</g>
<g>
</g>
<g>
</g>
<g>
</g>
<g>
</g>
<g>
</g>
<g>
</g>
<g>
</g>
<g>
</g>
</svg>
