<?xml version="1.0" encoding="iso-8859-1"?>
<!-- Generator: Adobe Illustrator 16.0.4, SVG Export Plug-In . SVG Version: 6.00 Build 0)  -->
<!DOCTYPE svg PUBLIC "-//W3C//DTD SVG 1.1//EN" "http://www.w3.org/Graphics/SVG/1.1/DTD/svg11.dtd">
<svg version="1.1" id="Layer_1" xmlns="http://www.w3.org/2000/svg" xmlns:xlink="http://www.w3.org/1999/xlink" x="0px" y="0px"
	 width="44px" height="44px" viewBox="0 0 44 44" style="enable-background:new 0 0 44 44;" xml:space="preserve">
<g id="_x31_286-yahoo_x40_2x.png">
	<g>
		<path d="M22,0C9.85,0,0,9.85,0,22s9.85,22,22,22s22-9.85,22-22S34.15,0,22,0z M21.143,33c0,0-0.771-0.14-1.39-0.14
			c-0.559,0-1.448,0.14-1.448,0.14l0.18-9.373C17.188,21.391,13.378,14.577,11,11c1.198,0.272,1.7,0.256,2.9,0
			c1.515,2.68,3.839,6.427,5.803,9.674c1.936-3.178,4.977-8.14,5.801-9.674c0.937,0.245,1.879,0.237,2.924,0l-0.001,0.002
			c0.001-0.001,0.001-0.001,0.002-0.002c-1.097,1.479-5.089,8.391-7.508,12.627L21.143,33z M28.669,32.905
			c-0.87,0-1.574-0.45-1.574-1.327c0-0.745,0.455-1.438,1.366-1.438c0.872,0,1.524,0.52,1.524,1.35
			C29.985,32.524,29.299,32.905,28.669,32.905z M32.825,13.454c-0.487,2.142-2.392,9.708-3.193,14.759l0.001,0.003
			c-0.321-0.13-0.652-0.24-1.08-0.167H28.55c-0.001,0-0.002,0-0.003,0l0.004-0.003c0.706-4.973,1.136-10.199,1.548-15.411
			c0-1.039,0.689-1.445,1.385-1.445c0.122,0,0.302,0.025,0.302,0.025v0.001l0.001-0.001C32.514,11.336,33,11.78,33,12.544
			C33,12.797,32.896,13.153,32.825,13.454z"/>
	</g>
</g>
<g>
</g>
<g>
</g>
<g>
</g>
<g>
</g>
<g>
</g>
<g>
</g>
<g>
</g>
<g>
</g>
<g>
</g>
<g>
</g>
<g>
</g>
<g>
</g>
<g>
</g>
<g>
</g>
<g>
</g>
</svg>
