<?xml version="1.0" encoding="iso-8859-1"?>
<!-- Generator: Adobe Illustrator 16.0.4, SVG Export Plug-In . SVG Version: 6.00 Build 0)  -->
<!DOCTYPE svg PUBLIC "-//W3C//DTD SVG 1.1//EN" "http://www.w3.org/Graphics/SVG/1.1/DTD/svg11.dtd">
<svg version="1.1" id="Layer_1" xmlns="http://www.w3.org/2000/svg" xmlns:xlink="http://www.w3.org/1999/xlink" x="0px" y="0px"
	 width="44px" height="44px" viewBox="0 0 44 44" style="enable-background:new 0 0 44 44;" xml:space="preserve">
<g id="_x31_287-youtube_x40_2x.png">
	<g>
		<path d="M22,0C9.85,0,0,9.85,0,22s9.85,22,22,22s22-9.85,22-22S34.15,0,22,0z M24.357,11.752h1.238v4.196c0,0,0,0.299,0.413,0.299
			c0.412,0,0.825-0.499,0.825-0.499v-3.996h1.238v5.292h-1.238v-0.598c0,0-0.723,0.697-1.548,0.697
			c-0.826,0-0.929-0.797-0.929-0.797V11.752z M19.507,13.243c0-0.809,0.739-1.464,1.651-1.464h0.412
			c0.912,0,1.651,0.655,1.651,1.464v2.38c0,0.809-0.739,1.464-1.651,1.464h-0.412c-0.912,0-1.651-0.655-1.651-1.464V13.243z
			 M15.998,9.987l1.032,2.474l1.032-2.474h1.341l-1.651,3.968v3.089h-1.444v-3.089l-1.755-3.968H15.998z M33.004,29.51
			c0,1.935-1.642,3.504-3.668,3.504H14.664c-2.026,0-3.668-1.569-3.668-3.504v-7.007c0-1.935,1.642-3.503,3.668-3.503h14.672
			c2.026,0,3.668,1.568,3.668,3.503V29.51z M21.364,16.247c0.342,0,0.619-0.23,0.619-0.515V13.33c0-0.284-0.277-0.515-0.619-0.515
			s-0.619,0.23-0.619,0.515v2.402C20.745,16.017,21.022,16.247,21.364,16.247z M20.229,28.948c0,0-0.413,0.485-0.826,0.485
			c-0.412,0-0.412-0.291-0.412-0.291v-5.409h-1.239v5.797c0,0,0.104,0.776,0.93,0.776c0.825,0,1.548-0.679,1.548-0.679v0.582h1.238
			v-6.477h-1.238V28.948z M13.005,23.061h1.548v7.149h1.445v-7.149h1.548v-1.262h-4.541V23.061z M29.311,23.733
			c-1.961,0-1.961,1.649-1.961,1.649v3.565c0,0,0.31,1.358,1.961,1.358s1.857-1.358,1.857-1.358v-1.067h-1.341v0.68
			c0,0,0,0.679-0.619,0.679c-0.62,0-0.62-0.679-0.62-0.679v-1.236h2.58v-1.941C31.168,25.383,31.271,23.733,29.311,23.733z
			 M29.827,26.354h-1.239V25.48c0,0,0-0.68,0.62-0.68c0.619,0,0.619,0.68,0.619,0.68V26.354z M25.183,23.733
			c-0.631,0-1.136,0.449-1.342,0.663v-2.598H22.5v8.411h1.341v-0.549c0.225,0.282,0.646,0.646,1.342,0.646
			c1.136,0,1.136-1.553,1.136-1.553s0-2.595,0-3.468S26.009,23.733,25.183,23.733z M25.08,28.561c0,0,0,0.679-0.62,0.679
			c-0.294,0-0.489-0.133-0.619-0.271v-3.86c0.143-0.151,0.352-0.308,0.619-0.308c0.517,0,0.62,0.68,0.62,0.68V28.561z"/>
	</g>
</g>
<g>
</g>
<g>
</g>
<g>
</g>
<g>
</g>
<g>
</g>
<g>
</g>
<g>
</g>
<g>
</g>
<g>
</g>
<g>
</g>
<g>
</g>
<g>
</g>
<g>
</g>
<g>
</g>
<g>
</g>
</svg>
