<?xml version="1.0" encoding="iso-8859-1"?>
<!-- Generator: Adobe Illustrator 16.0.4, SVG Export Plug-In . SVG Version: 6.00 Build 0)  -->
<!DOCTYPE svg PUBLIC "-//W3C//DTD SVG 1.1//EN" "http://www.w3.org/Graphics/SVG/1.1/DTD/svg11.dtd">
<svg version="1.1" id="Layer_1" xmlns="http://www.w3.org/2000/svg" xmlns:xlink="http://www.w3.org/1999/xlink" x="0px" y="0px"
	 width="44px" height="44px" viewBox="0 0 44 44" style="enable-background:new 0 0 44 44;" xml:space="preserve">
<g id="_x31_288-500px_x40_2x.png">
	<g>
		<path d="M29.99,21.934c-1.034,0-2.784,1.669-2.784,1.903c0,0.235,1.75,1.903,2.784,1.903c1.214,0,1.872-0.853,1.872-1.903
			S31.204,21.934,29.99,21.934z M21.69,21.934c-1.215,0-1.872,0.853-1.872,1.903s0.657,1.903,1.872,1.903
			c1.034,0,2.783-1.668,2.783-1.903C24.474,23.603,22.725,21.934,21.69,21.934z M22,0C9.85,0,0,9.85,0,22s9.85,22,22,22
			s22-9.85,22-22S34.15,0,22,0z M29.965,28.003c-1.427,0-3.211-1.38-4.125-2.7c-0.914,1.32-2.697,2.7-4.124,2.7
			c-1.706,0-3.155-0.886-3.74-2.505c-0.502,1.206-1.586,2.473-3.927,2.473c-4.1,0-4.049-3.725-4.049-3.725h2.277
			c0,0.957,0.86,1.809,1.771,1.809s2.024-0.798,2.024-2.182s-0.76-2.342-1.924-2.342c-1.163,0-1.771,1.012-1.771,1.012h-2.024
			l1.113-6.546h6.275v1.969h-4.656l-0.404,2.661c1.012-1.011,2.378-0.852,2.378-0.852c1.657,0,2.538,1.157,2.973,2.192
			c0.621-1.528,2.034-2.297,3.683-2.297c1.427,0,3.21,1.381,4.124,2.7c0.914-1.319,2.698-2.7,4.125-2.7
			c2.222,0,4.023,1.389,4.023,4.166C33.988,26.512,32.187,28.003,29.965,28.003z"/>
	</g>
</g>
<g>
</g>
<g>
</g>
<g>
</g>
<g>
</g>
<g>
</g>
<g>
</g>
<g>
</g>
<g>
</g>
<g>
</g>
<g>
</g>
<g>
</g>
<g>
</g>
<g>
</g>
<g>
</g>
<g>
</g>
</svg>
