<?xml version="1.0" encoding="iso-8859-1"?>
<!-- Generator: Adobe Illustrator 16.0.4, SVG Export Plug-In . SVG Version: 6.00 Build 0)  -->
<!DOCTYPE svg PUBLIC "-//W3C//DTD SVG 1.1//EN" "http://www.w3.org/Graphics/SVG/1.1/DTD/svg11.dtd">
<svg version="1.1" id="Layer_1" xmlns="http://www.w3.org/2000/svg" xmlns:xlink="http://www.w3.org/1999/xlink" x="0px" y="0px"
	 width="44px" height="44px" viewBox="0 0 44 44" style="enable-background:new 0 0 44 44;" xml:space="preserve">
<g id="_x31_289-appstore_x40_2x.png">
	<g>
		<path d="M22,0C9.85,0,0,9.85,0,22s9.85,22,22,22s22-9.85,22-22S34.15,0,22,0z M18.675,14.48c0.217-0.376,0.697-0.504,1.073-0.287
			l1.361,0.785c0.375,0.217,0.504,0.696,0.287,1.072l-0.659,1.146l-2.729-1.558L18.675,14.48z M9.429,21.207h4.268l-1.576,2.716
			H9.429V21.207z M13.933,29.046l-3.686,3.044l0.964-4.614l0.076-0.133l2.729,1.558L13.933,29.046z M11.812,26.43l5.68-9.872
			l2.721,1.554l-1.764,3.071h0.002l-3.914,6.803L11.812,26.43z M17.992,23.923l1.576-2.716h4.997l1.586,2.716H17.992z
			 M20.442,12.178c-0.217-0.375-0.088-0.855,0.288-1.072l1.36-0.785c0.376-0.217,0.856-0.088,1.073,0.287l6.58,11.374l-2.728,1.591
			L20.442,12.178z M27.551,24.479l2.721-1.586l0.596,1.029h-0.01l0.465,0.803l-2.715,1.583L27.551,24.479z M32.509,32.215
			c0,0,0.073-1.374-1.522-2.135c-1.577-0.752-1.882-2.053-1.842-2.841l-0.01-0.019l0.01-0.006c0.001-0.002,0-0.004,0-0.005
			l2.689-1.57c0.003,0,0.006,0.002,0.009,0.002l0.007-0.003l0.003,0.006c0.638,0.023,1.54,1.293,1.54,3.553
			C33.393,31.773,32.509,32.215,32.509,32.215z M34.571,23.923h-2.604l-1.585-2.716h4.188V23.923z"/>
	</g>
</g>
<g>
</g>
<g>
</g>
<g>
</g>
<g>
</g>
<g>
</g>
<g>
</g>
<g>
</g>
<g>
</g>
<g>
</g>
<g>
</g>
<g>
</g>
<g>
</g>
<g>
</g>
<g>
</g>
<g>
</g>
</svg>
