<?xml version="1.0" encoding="iso-8859-1"?>
<!-- Generator: Adobe Illustrator 16.0.4, SVG Export Plug-In . SVG Version: 6.00 Build 0)  -->
<!DOCTYPE svg PUBLIC "-//W3C//DTD SVG 1.1//EN" "http://www.w3.org/Graphics/SVG/1.1/DTD/svg11.dtd">
<svg version="1.1" id="Layer_1" xmlns="http://www.w3.org/2000/svg" xmlns:xlink="http://www.w3.org/1999/xlink" x="0px" y="0px"
	 width="44px" height="44px" viewBox="0 0 44 44" style="enable-background:new 0 0 44 44;" xml:space="preserve">
<g id="_x31_291-bing_x40_2x.png">
	<g>
		<path d="M21.997,19.653c-4.562,0-8.26,2.282-8.26,5.097c0,2.815,3.698,5.098,8.26,5.098c4.562,0,8.26-2.282,8.26-5.098
			C30.257,21.936,26.56,19.653,21.997,19.653z M22,0C9.85,0,0,9.85,0,22s9.85,22,22,22s22-9.85,22-22S34.15,0,22,0z M22,33
			c-6.629,0-12.003-3.693-12.003-8.25H9.996V11h3.74v7.777C15.889,17.369,18.794,16.5,22,16.5c6.629,0,12.003,3.693,12.003,8.25
			S28.629,33,22,33z"/>
	</g>
</g>
<g>
</g>
<g>
</g>
<g>
</g>
<g>
</g>
<g>
</g>
<g>
</g>
<g>
</g>
<g>
</g>
<g>
</g>
<g>
</g>
<g>
</g>
<g>
</g>
<g>
</g>
<g>
</g>
<g>
</g>
</svg>
