<?xml version="1.0" encoding="iso-8859-1"?>
<!-- Generator: Adobe Illustrator 16.0.4, SVG Export Plug-In . SVG Version: 6.00 Build 0)  -->
<!DOCTYPE svg PUBLIC "-//W3C//DTD SVG 1.1//EN" "http://www.w3.org/Graphics/SVG/1.1/DTD/svg11.dtd">
<svg version="1.1" id="Layer_1" xmlns="http://www.w3.org/2000/svg" xmlns:xlink="http://www.w3.org/1999/xlink" x="0px" y="0px"
	 width="44px" height="44px" viewBox="0 0 44 44" style="enable-background:new 0 0 44 44;" xml:space="preserve">
<g id="_x31_293-behance_x40_2x.png">
	<g>
		<path d="M18.858,19.088c0-1.74-1.31-1.643-1.31-1.643l-3.397,0.004v3.276h3.408C17.559,20.726,18.858,20.827,18.858,19.088z
			 M28.441,20.403c-1.823,0-2.116,2.003-2.116,2.003h4.231C30.557,22.406,30.263,20.403,28.441,20.403z M22,0C9.85,0,0,9.85,0,22
			s9.85,22,22,22s22-9.85,22-22S34.15,0,22,0z M25.786,15.689H30.6v1.404h-4.814V15.689z M18.864,29.002h-7.851V14.993h7.851
			c0,0,3.026-0.046,3.07,3.388c0,0,0.088,2.151-1.842,3.067c0,0,2.368-0.138,2.456,3.616C22.636,28.819,18.864,29.002,18.864,29.002
			z M28.545,26.768c0,0,1.425,0.255,1.969-1.125h2.472c0,0,0.251,3.305-4.315,3.305c-4.567,0-5.111-3.515-5.111-5.518
			s0.963-5.162,4.86-5.162c3.729,0,4.734,2.878,4.566,5.727h-6.787C26.199,23.994,26.325,26.768,28.545,26.768z M17.633,23.182
			h-3.481v3.276l3.485-0.011c0,0,2.007,0.113,2.007-1.627S17.633,23.182,17.633,23.182z"/>
	</g>
</g>
<g>
</g>
<g>
</g>
<g>
</g>
<g>
</g>
<g>
</g>
<g>
</g>
<g>
</g>
<g>
</g>
<g>
</g>
<g>
</g>
<g>
</g>
<g>
</g>
<g>
</g>
<g>
</g>
<g>
</g>
</svg>
