<?xml version="1.0" encoding="iso-8859-1"?>
<!-- Generator: Adobe Illustrator 16.0.4, SVG Export Plug-In . SVG Version: 6.00 Build 0)  -->
<!DOCTYPE svg PUBLIC "-//W3C//DTD SVG 1.1//EN" "http://www.w3.org/Graphics/SVG/1.1/DTD/svg11.dtd">
<svg version="1.1" id="Layer_1" xmlns="http://www.w3.org/2000/svg" xmlns:xlink="http://www.w3.org/1999/xlink" x="0px" y="0px"
	 width="44px" height="44px" viewBox="0 0 44 44" style="enable-background:new 0 0 44 44;" xml:space="preserve">
<g id="_x31_294-deviantart_x40_2x.png">
	<g>
		<path d="M12.001,25.626l6.003-0.024V18.23C12.58,20.116,12.001,25.626,12.001,25.626z M22,0C9.85,0,0,9.85,0,22s9.85,22,22,22
			s22-9.85,22-22S34.15,0,22,0z M22.98,28.002v-8.407c0,0,1.344-0.152,3,0.764v5.23l6.001,0.037c0,0-1.095-8.029-9.991-8.029
			c-0.348,0-0.662,0.032-0.987,0.055v7.938h0.001v2.413H8.005c0,0,0.449-9.81,10-11.987v-3.353c0,0,1.5-0.65,3-0.65v3.617
			c0.333-0.017,0.637-0.059,0.987-0.059c13.63,0,14.021,12.432,14.021,12.432H22.98z"/>
	</g>
</g>
<g>
</g>
<g>
</g>
<g>
</g>
<g>
</g>
<g>
</g>
<g>
</g>
<g>
</g>
<g>
</g>
<g>
</g>
<g>
</g>
<g>
</g>
<g>
</g>
<g>
</g>
<g>
</g>
<g>
</g>
</svg>
