<?xml version="1.0" encoding="iso-8859-1"?>
<!-- Generator: Adobe Illustrator 16.0.4, SVG Export Plug-In . SVG Version: 6.00 Build 0)  -->
<!DOCTYPE svg PUBLIC "-//W3C//DTD SVG 1.1//EN" "http://www.w3.org/Graphics/SVG/1.1/DTD/svg11.dtd">
<svg version="1.1" id="Layer_1" xmlns="http://www.w3.org/2000/svg" xmlns:xlink="http://www.w3.org/1999/xlink" x="0px" y="0px"
	 width="44px" height="44px" viewBox="0 0 44 44" style="enable-background:new 0 0 44 44;" xml:space="preserve">
<g id="_x31_296-meetup_x40_2x.png">
	<g>
		<path d="M22,0C9.85,0,0,9.85,0,22s9.85,22,22,22s22-9.85,22-22S34.15,0,22,0z M31.216,31.421h-2.081l-3.864-12.075l-0.595,3.737
			v4.888l-0.892,2.013h-2.081l-1.487,0.575l-4.459-6.037l0.595,4.6l-1.784,1.15l-2.378,0.287l-0.595-1.15L11,25.959V15.32
			c0,0,1.189-0.862,2.973-0.862l1.486,0.287l4.757,7.764l0.298-3.163l2.676-8.051l1.783-0.287l2.676,0.575l2.676,7.763l0.298,1.725
			L33,30.559L31.216,31.421z"/>
	</g>
</g>
<g>
</g>
<g>
</g>
<g>
</g>
<g>
</g>
<g>
</g>
<g>
</g>
<g>
</g>
<g>
</g>
<g>
</g>
<g>
</g>
<g>
</g>
<g>
</g>
<g>
</g>
<g>
</g>
<g>
</g>
</svg>
