<?xml version="1.0" encoding="iso-8859-1"?>
<!-- Generator: Adobe Illustrator 16.0.4, SVG Export Plug-In . SVG Version: 6.00 Build 0)  -->
<!DOCTYPE svg PUBLIC "-//W3C//DTD SVG 1.1//EN" "http://www.w3.org/Graphics/SVG/1.1/DTD/svg11.dtd">
<svg version="1.1" id="Layer_1" xmlns="http://www.w3.org/2000/svg" xmlns:xlink="http://www.w3.org/1999/xlink" x="0px" y="0px"
	 width="44px" height="44px" viewBox="0 0 44 44" style="enable-background:new 0 0 44 44;" xml:space="preserve">
<g id="_x31_297-android_x40_2x.png">
	<g>
		<path d="M22,0C9.85,0,0,9.85,0,22s9.85,22,22,22s22-9.85,22-22S34.15,0,22,0z M13.001,24.323c0,0.92-0.674,1.665-1.505,1.665
			s-1.505-0.745-1.505-1.665v-6.659c0-0.919,0.674-1.664,1.505-1.664s1.505,0.745,1.505,1.664V24.323z M30.009,28.654
			c0,1.287-1.024,2.33-2.288,2.33H27v3.322c0,0.933-0.672,1.689-1.501,1.689c-0.828,0-1.5-0.757-1.5-1.689v-3.322h-3.998v3.322
			c0,0.933-0.672,1.689-1.5,1.689c-0.829,0-1.501-0.757-1.501-1.689v-3.322h-0.721c-1.264,0-2.288-1.043-2.288-2.33v-11.65h16.018
			V28.654z M13.991,15.993c0-2.19,1.374-4.306,3.424-5.628L16.13,8.938c-0.228-0.253-0.171-0.615,0.125-0.811
			c0.297-0.193,0.723-0.146,0.95,0.107l1.359,1.512c1.05-0.471,2.215-0.749,3.436-0.749s2.386,0.278,3.436,0.749l1.359-1.512
			c0.229-0.254,0.653-0.301,0.95-0.107c0.297,0.195,0.353,0.558,0.125,0.811l-1.285,1.428c2.051,1.322,3.424,3.438,3.424,5.628
			H13.991z M34.009,24.323c0,0.92-0.674,1.665-1.505,1.665s-1.505-0.745-1.505-1.665v-6.659c0-0.919,0.674-1.664,1.505-1.664
			s1.505,0.745,1.505,1.664V24.323z M23.99,11.002c-0.553,0-1,0.448-1,1c0,0.553,0.447,1,1,1c0.552,0,1-0.447,1-1
			C24.99,11.45,24.542,11.002,23.99,11.002z M20.006,11.002c-0.551,0-0.998,0.448-0.998,1c0,0.553,0.447,1,0.998,1
			s0.997-0.447,0.997-1C21.003,11.45,20.557,11.002,20.006,11.002z"/>
	</g>
</g>
<g>
</g>
<g>
</g>
<g>
</g>
<g>
</g>
<g>
</g>
<g>
</g>
<g>
</g>
<g>
</g>
<g>
</g>
<g>
</g>
<g>
</g>
<g>
</g>
<g>
</g>
<g>
</g>
<g>
</g>
</svg>
