<?xml version="1.0" encoding="iso-8859-1"?>
<!-- Generator: Adobe Illustrator 16.0.4, SVG Export Plug-In . SVG Version: 6.00 Build 0)  -->
<!DOCTYPE svg PUBLIC "-//W3C//DTD SVG 1.1//EN" "http://www.w3.org/Graphics/SVG/1.1/DTD/svg11.dtd">
<svg version="1.1" id="Layer_1" xmlns="http://www.w3.org/2000/svg" xmlns:xlink="http://www.w3.org/1999/xlink" x="0px" y="0px"
	 width="44px" height="44px" viewBox="0 0 44 44" style="enable-background:new 0 0 44 44;" xml:space="preserve">
<g id="_x31_299-sinawebo_x40_2x.png">
	<g>
		<path d="M17.672,26.854c0,0-1.383,0.142-1.383,1.557c0,0,0.139,0.85,1.106,0.85s1.244-1.273,1.244-1.273
			S18.501,26.854,17.672,26.854z M19.181,26.258c0,0-0.385,0-0.385,0.591s0.385,0.394,0.385,0.394s0.577,0,0.577-0.59
			C19.758,26.061,19.181,26.258,19.181,26.258z M22,0C9.85,0,0,9.85,0,22s9.85,22,22,22s22-9.85,22-22S34.15,0,22,0z M26.728,16.242
			c0.035,0,0.059,0.011,0.093,0.012c0.019-0.002,0.035-0.012,0.055-0.012c0.076,0,0.147,0.019,0.214,0.045
			c1.212,0.158,1.605,1.033,1.722,1.579c0.1,0.113,0.164,0.262,0.164,0.427c0,0.353-0.273,0.638-0.609,0.638
			c-0.337,0-0.609-0.285-0.609-0.638h-0.13c0,0,0-0.777-0.898-0.777c0.001-0.012,0.003-0.02,0.005-0.03
			c-0.266-0.069-0.467-0.308-0.467-0.606c0-0.3,0.202-0.539,0.469-0.607C26.731,16.261,26.73,16.254,26.728,16.242z M18.64,32.997
			c0,0-8.626,0.217-8.626-6.15s7.52-12.02,9.04-11.595c1.521,0.424,1.521,0.99,1.383,3.679c0,0-0.138,0.99,0.139,0.99
			c0,0,1.797-1.557,3.871-1.557c2.073,0,2.212,1.698,2.212,1.698s0.139,0.849-0.553,1.84c0,0,4.009-0.425,4.424,2.829
			C30.944,27.986,25.69,32.997,18.64,32.997z M30.33,18.931c-0.449,0-0.814-0.38-0.814-0.849c0-0.002,0.001-0.002,0.001-0.004
			c0-0.015-0.009-2.538-2.433-2.543c-0.002,0-0.004,0.002-0.006,0.002c-0.449,0-0.812-0.381-0.812-0.85s0.363-0.849,0.812-0.849
			c0-0.001,0-0.001,0-0.002c3.971,0,4.061,4.041,4.063,4.227c0,0.007,0.003,0.012,0.003,0.019
			C31.145,18.551,30.78,18.931,30.33,18.931z M33.105,18.931c-0.486,0-0.88-0.412-0.88-0.92c0,0,0-5.165-5.079-5.165
			c-0.486,0-0.881-0.412-0.881-0.919c0-0.509,0.395-0.92,0.881-0.92c6.84,0,6.84,7.004,6.84,7.004
			C33.986,18.519,33.592,18.931,33.105,18.931z M20.299,22.043c-2.213,0-7.881,0.85-8.572,5.377c0,4.245,6.774,4.387,6.774,4.387
			c3.042,0,8.572-1.84,8.572-5.377S22.511,22.043,20.299,22.043z M17.984,30.591c-2.845,0-2.845-2.646-2.845-2.646
			c0.388-3.705,3.879-3.838,3.879-3.838c2.327,0,2.845,1.985,2.845,2.911C21.863,27.944,20.828,30.591,17.984,30.591z"/>
	</g>
</g>
<g>
</g>
<g>
</g>
<g>
</g>
<g>
</g>
<g>
</g>
<g>
</g>
<g>
</g>
<g>
</g>
<g>
</g>
<g>
</g>
<g>
</g>
<g>
</g>
<g>
</g>
<g>
</g>
<g>
</g>
</svg>
