<?xml version="1.0" encoding="iso-8859-1"?>
<!-- Generator: Adobe Illustrator 16.0.4, SVG Export Plug-In . SVG Version: 6.00 Build 0)  -->
<!DOCTYPE svg PUBLIC "-//W3C//DTD SVG 1.1//EN" "http://www.w3.org/Graphics/SVG/1.1/DTD/svg11.dtd">
<svg version="1.1" id="Layer_1" xmlns="http://www.w3.org/2000/svg" xmlns:xlink="http://www.w3.org/1999/xlink" x="0px" y="0px"
	 width="44px" height="44px" viewBox="0 0 44 44" style="enable-background:new 0 0 44 44;" xml:space="preserve">
<g id="_x31_300-renren_x40_2x.png">
	<g>
		<path d="M22,0C9.85,0,0,9.85,0,22s9.85,22,22,22s22-9.85,22-22S34.15,0,22,0z M10.177,27.484C8.837,26.041,8.01,24.1,8.01,21.957
			c0-4.024,2.902-7.35,6.69-7.947v4.851C14.7,18.86,14.258,25.373,10.177,27.484z M15.917,30.01c-1.31,0-2.542-0.329-3.629-0.903
			c1.284-0.915,2.597-2.358,3.629-4.672c1.032,2.312,2.343,3.754,3.626,4.669C18.456,29.678,17.227,30.01,15.917,30.01z
			 M22.359,27.476c-0.12-0.125-0.25-0.24-0.359-0.375c-0.108,0.134-0.229,0.255-0.347,0.381c-4.077-2.112-4.52-8.621-4.52-8.621
			v-4.849c1.946,0.307,3.662,1.327,4.866,2.803c1.204-1.476,2.92-2.496,4.866-2.803v4.849C26.866,18.86,26.425,25.355,22.359,27.476
			z M28.083,30.01c-1.309,0-2.537-0.334-3.624-0.907c1.283-0.915,2.593-2.357,3.624-4.668c1.032,2.313,2.345,3.757,3.629,4.672
			C30.625,29.681,29.393,30.01,28.083,30.01z M33.823,27.484C29.742,25.373,29.3,18.86,29.3,18.86V14.01
			c3.788,0.598,6.69,3.923,6.69,7.947C35.99,24.1,35.164,26.041,33.823,27.484z M22,16.814c-1.139,1.395-1.825,3.187-1.825,5.143
			s0.687,3.749,1.825,5.144c1.139-1.395,1.825-3.188,1.825-5.144S23.139,18.209,22,16.814z"/>
	</g>
</g>
<g>
</g>
<g>
</g>
<g>
</g>
<g>
</g>
<g>
</g>
<g>
</g>
<g>
</g>
<g>
</g>
<g>
</g>
<g>
</g>
<g>
</g>
<g>
</g>
<g>
</g>
<g>
</g>
<g>
</g>
</svg>
