<?xml version="1.0" encoding="iso-8859-1"?>
<!-- Generator: Adobe Illustrator 16.0.4, SVG Export Plug-In . SVG Version: 6.00 Build 0)  -->
<!DOCTYPE svg PUBLIC "-//W3C//DTD SVG 1.1//EN" "http://www.w3.org/Graphics/SVG/1.1/DTD/svg11.dtd">
<svg version="1.1" id="Layer_1" xmlns="http://www.w3.org/2000/svg" xmlns:xlink="http://www.w3.org/1999/xlink" x="0px" y="0px"
	 width="35.978px" height="50px" viewBox="0 0 35.978 50" style="enable-background:new 0 0 35.978 50;" xml:space="preserve">
<g id="_x31_101-pointing-finger_x40_2x.png">
	<g>
		<path d="M31.981,16c-0.829,0-1.599,0.253-2.237,0.686C29.199,15.126,27.731,14,25.986,14c-0.829,0-1.599,0.253-2.237,0.686
			C23.204,13.126,21.736,12,19.992,12c-0.732,0-1.409,0.212-1.999,0.555V4c0-2.209-1.789-4-3.997-4C11.79,0,10,1.791,10,4v22.913
			l-2.31-4.457c-1.032-2.072-3.183-3.01-5.222-2.165c-2.039,0.846-3.008,3.186-2.163,5.227l4.3,12.779
			C6.483,45.044,12.652,50,19.992,50c8.829,0,15.986-7.163,15.986-16v-0.001V20C35.978,17.791,34.188,16,31.981,16z"/>
	</g>
</g>
<g>
</g>
<g>
</g>
<g>
</g>
<g>
</g>
<g>
</g>
<g>
</g>
<g>
</g>
<g>
</g>
<g>
</g>
<g>
</g>
<g>
</g>
<g>
</g>
<g>
</g>
<g>
</g>
<g>
</g>
</svg>
