<?xml version="1.0" encoding="iso-8859-1"?>
<!-- Generator: Adobe Illustrator 16.0.4, SVG Export Plug-In . SVG Version: 6.00 Build 0)  -->
<!DOCTYPE svg PUBLIC "-//W3C//DTD SVG 1.1//EN" "http://www.w3.org/Graphics/SVG/1.1/DTD/svg11.dtd">
<svg version="1.1" id="Layer_1" xmlns="http://www.w3.org/2000/svg" xmlns:xlink="http://www.w3.org/1999/xlink" x="0px" y="0px"
	 width="35.978px" height="56px" viewBox="0 0 35.978 56" style="enable-background:new 0 0 35.978 56;" xml:space="preserve">
<g id="_x31_102-one-finger-tap_x40_2x.png">
	<g>
		<path d="M4.978,12c0.552,0,1-0.447,1-1v-1c0-4.418,3.582-8,8-8c4.418,0,8,3.582,8,8v1c0,0.553,0.448,1,1,1s1-0.447,1-1v-1
			c0-5.522-4.477-10-10-10s-10,4.478-10,10v1C3.978,11.553,4.425,12,4.978,12z M31.981,22c-0.829,0-1.599,0.253-2.237,0.686
			C29.199,21.126,27.731,20,25.986,20c-0.829,0-1.599,0.253-2.237,0.686C23.204,19.126,21.736,18,19.992,18
			c-0.732,0-1.409,0.212-1.999,0.555V10c0-2.209-1.789-4-3.997-4C11.79,6,10,7.791,10,10v22.913l-2.31-4.457
			c-1.032-2.072-3.183-3.01-5.222-2.165c-2.039,0.846-3.007,3.186-2.163,5.227l4.3,12.779C6.483,51.044,12.652,56,19.992,56
			c8.829,0,15.986-7.163,15.986-16v-0.001V26C35.978,23.791,34.188,22,31.981,22z"/>
	</g>
</g>
<g>
</g>
<g>
</g>
<g>
</g>
<g>
</g>
<g>
</g>
<g>
</g>
<g>
</g>
<g>
</g>
<g>
</g>
<g>
</g>
<g>
</g>
<g>
</g>
<g>
</g>
<g>
</g>
<g>
</g>
</svg>
