<?xml version="1.0" encoding="iso-8859-1"?>
<!-- Generator: Adobe Illustrator 16.0.4, SVG Export Plug-In . SVG Version: 6.00 Build 0)  -->
<!DOCTYPE svg PUBLIC "-//W3C//DTD SVG 1.1//EN" "http://www.w3.org/Graphics/SVG/1.1/DTD/svg11.dtd">
<svg version="1.1" id="Layer_1" xmlns="http://www.w3.org/2000/svg" xmlns:xlink="http://www.w3.org/1999/xlink" x="0px" y="0px"
	 width="35.978px" height="56px" viewBox="0 0 35.978 56" style="enable-background:new 0 0 35.978 56;" xml:space="preserve">
<g id="_x31_104-three-finger-tap_x40_2x.png">
	<g>
		<path d="M4.978,14c0.552,0,1-0.447,1-1c0-6.075,6.268-11,14-11s14,4.925,14,11c0,0.553,0.448,1,1,1s1-0.447,1-1
			c0-7.18-7.164-13-16-13s-16,5.82-16,13C3.978,13.553,4.425,14,4.978,14z M31.981,22c-0.732,0-1.413,0.206-2.003,0.551V12
			c0-2.209-1.791-4-4-4c-0.83,0-1.6,0.253-2.239,0.686C23.192,7.126,21.724,6,19.978,6c-1.743,0-3.21,1.122-3.758,2.677
			C15.583,8.25,14.819,8,13.997,8C11.79,8,10,9.791,10,12v20.913l-2.31-4.457c-1.032-2.072-3.183-3.01-5.222-2.165
			c-2.039,0.846-3.008,3.186-2.163,5.227l4.3,12.779C6.483,51.044,12.652,56,19.992,56c8.829,0,15.986-7.163,15.986-16v-0.001V26
			C35.978,23.791,34.188,22,31.981,22z"/>
	</g>
</g>
<g>
</g>
<g>
</g>
<g>
</g>
<g>
</g>
<g>
</g>
<g>
</g>
<g>
</g>
<g>
</g>
<g>
</g>
<g>
</g>
<g>
</g>
<g>
</g>
<g>
</g>
<g>
</g>
<g>
</g>
</svg>
