<?xml version="1.0" encoding="iso-8859-1"?>
<!-- Generator: Adobe Illustrator 16.0.4, SVG Export Plug-In . SVG Version: 6.00 Build 0)  -->
<!DOCTYPE svg PUBLIC "-//W3C//DTD SVG 1.1//EN" "http://www.w3.org/Graphics/SVG/1.1/DTD/svg11.dtd">
<svg version="1.1" id="Layer_1" xmlns="http://www.w3.org/2000/svg" xmlns:xlink="http://www.w3.org/1999/xlink" x="0px" y="0px"
	 width="56px" height="56px" viewBox="0 0 56 56" style="enable-background:new 0 0 56 56;" xml:space="preserve">
<g id="_x31_105-finger-drag_x40_2x.png">
	<g>
		<path d="M3.414,13H8c0.552,0,1-0.447,1-1c0-0.552-0.448-1-1-1H3.414l2.293-2.293C5.888,8.526,6,8.276,6,8c0-0.553-0.448-1-1-1
			C4.724,7,4.474,7.112,4.293,7.293l-4,4C0.112,11.474,0,11.724,0,12s0.112,0.526,0.293,0.707l4,4C4.474,16.888,4.724,17,5,17
			c0.552,0,1-0.447,1-1c0-0.276-0.112-0.526-0.293-0.707L3.414,13z M8,6c0.276,0,0.526-0.112,0.707-0.293L11,3.414V8
			c0,0.553,0.448,1,1,1s1-0.447,1-1V3.414l2.293,2.293C15.474,5.888,15.724,6,16,6c0.552,0,1-0.447,1-1
			c0-0.276-0.112-0.526-0.293-0.707l-4-4C12.526,0.112,12.276,0,12,0c-0.276,0-0.526,0.112-0.707,0.293l-4,4
			C7.112,4.474,7,4.724,7,5C7,5.553,7.448,6,8,6z M16,18c-0.276,0-0.526,0.112-0.708,0.293L13,20.586V16c0-0.553-0.448-1-1-1
			s-1,0.447-1,1v4.586l-2.292-2.293C8.526,18.112,8.276,18,8,18c-0.552,0-1,0.448-1,1c0,0.276,0.112,0.526,0.293,0.707l4,4
			C11.474,23.889,11.724,24,12,24c0.276,0,0.526-0.111,0.707-0.293l4-4C16.888,19.526,17,19.276,17,19C17,18.448,16.552,18,16,18z
			 M24,12c0-0.276-0.112-0.526-0.293-0.707l-4-4C19.526,7.112,19.276,7,19,7c-0.552,0-1,0.447-1,1c0,0.276,0.112,0.526,0.293,0.707
			L20.586,11H16c-0.552,0-1,0.448-1,1c0,0.553,0.448,1,1,1h4.586l-2.293,2.293C18.112,15.474,18,15.724,18,16c0,0.553,0.448,1,1,1
			c0.276,0,0.526-0.112,0.707-0.293l4-4C23.888,12.526,24,12.276,24,12z M52.003,22c-0.829,0-1.599,0.253-2.237,0.686
			C49.221,21.126,47.753,20,46.009,20c-0.829,0-1.599,0.253-2.237,0.686C43.226,19.126,41.758,18,40.014,18
			c-0.732,0-1.409,0.212-1.999,0.555V10c0-2.209-1.789-4-3.997-4c-2.207,0-3.997,1.791-3.997,4v22.913l-2.31-4.457
			c-1.032-2.072-3.183-3.01-5.222-2.165c-2.039,0.846-3.008,3.186-2.163,5.227l4.3,12.779C26.506,51.044,32.674,56,40.014,56
			C48.843,56,56,48.837,56,40v-0.001V26C56,23.791,54.211,22,52.003,22z"/>
	</g>
</g>
<g>
</g>
<g>
</g>
<g>
</g>
<g>
</g>
<g>
</g>
<g>
</g>
<g>
</g>
<g>
</g>
<g>
</g>
<g>
</g>
<g>
</g>
<g>
</g>
<g>
</g>
<g>
</g>
<g>
</g>
</svg>
