<?xml version="1.0" encoding="iso-8859-1"?>
<!-- Generator: Adobe Illustrator 16.0.4, SVG Export Plug-In . SVG Version: 6.00 Build 0)  -->
<!DOCTYPE svg PUBLIC "-//W3C//DTD SVG 1.1//EN" "http://www.w3.org/Graphics/SVG/1.1/DTD/svg11.dtd">
<svg version="1.1" id="Layer_1" xmlns="http://www.w3.org/2000/svg" xmlns:xlink="http://www.w3.org/1999/xlink" x="0px" y="0px"
	 width="52px" height="56px" viewBox="0 0 52 56" style="enable-background:new 0 0 52 56;" xml:space="preserve">
<g id="_x31_107-vertical-swipe_x40_2x.png">
	<g>
		<path d="M9,14c-0.276,0-0.526,0.112-0.707,0.293L6,16.586V5c0-0.552-0.447-1-1-1S4,4.448,4,5v11.586l-2.293-2.293
			C1.526,14.112,1.276,14,1,14c-0.553,0-1,0.448-1,1c0,0.276,0.112,0.526,0.293,0.707l4,4C4.474,19.888,4.724,20,5,20
			s0.526-0.111,0.707-0.293l4-4C9.888,15.526,10,15.276,10,15C10,14.448,9.553,14,9,14z M19,6c0.553,0,1-0.447,1-1
			c0-0.276-0.112-0.526-0.293-0.707l-4-4C15.526,0.112,15.276,0,15,0s-0.526,0.112-0.707,0.293l-4,4C10.112,4.474,10,4.724,10,5
			c0,0.553,0.447,1,1,1c0.276,0,0.526-0.112,0.707-0.293L14,3.414V15c0,0.553,0.447,1,1,1s1-0.447,1-1V3.414l2.293,2.293
			C18.474,5.888,18.724,6,19,6z M48.004,22c-0.829,0-1.6,0.253-2.237,0.686C45.221,21.126,43.753,20,42.009,20
			c-0.829,0-1.599,0.253-2.237,0.686C39.227,19.126,37.759,18,36.014,18c-0.731,0-1.408,0.212-1.998,0.555V10
			c0-2.209-1.789-4-3.996-4c-2.208,0-3.997,1.791-3.997,4v22.913l-2.31-4.457c-1.032-2.072-3.183-3.01-5.223-2.165
			c-2.039,0.846-3.007,3.186-2.162,5.227l4.3,12.779C22.506,51.044,28.675,56,36.014,56C44.843,56,52,48.837,52,40V26
			C52,23.791,50.211,22,48.004,22z"/>
	</g>
</g>
<g>
</g>
<g>
</g>
<g>
</g>
<g>
</g>
<g>
</g>
<g>
</g>
<g>
</g>
<g>
</g>
<g>
</g>
<g>
</g>
<g>
</g>
<g>
</g>
<g>
</g>
<g>
</g>
<g>
</g>
</svg>
