<?xml version="1.0" encoding="iso-8859-1"?>
<!-- Generator: Adobe Illustrator 16.0.4, SVG Export Plug-In . SVG Version: 6.00 Build 0)  -->
<!DOCTYPE svg PUBLIC "-//W3C//DTD SVG 1.1//EN" "http://www.w3.org/Graphics/SVG/1.1/DTD/svg11.dtd">
<svg version="1.1" id="Layer_1" xmlns="http://www.w3.org/2000/svg" xmlns:xlink="http://www.w3.org/1999/xlink" x="0px" y="0px"
	 width="55.707px" height="47.988px" viewBox="0 0 55.707 47.988" style="enable-background:new 0 0 55.707 47.988;"
	 xml:space="preserve">
<g id="_x31_108-spread_x40_2x.png">
	<g>
		<path d="M8.986,30.112c-0.267-0.071-0.537-0.027-0.759,0.101L5.42,31.833l2.998-11.191c0.143-0.533-0.174-1.081-0.707-1.225
			c-0.533-0.143-1.082,0.174-1.225,0.707L3.487,31.316l-1.621-2.809c-0.128-0.222-0.341-0.395-0.607-0.466
			c-0.533-0.143-1.082,0.174-1.225,0.707c-0.071,0.268-0.028,0.538,0.101,0.76l2.828,4.898c0.128,0.222,0.34,0.395,0.607,0.466
			c0.267,0.071,0.537,0.028,0.758-0.1l4.899-2.829c0.222-0.128,0.395-0.34,0.466-0.606C9.837,30.803,9.52,30.255,8.986,30.112z
			 M16.423,6.223c0.071-0.267,0.028-0.537-0.1-0.759l-2.829-4.899c-0.128-0.222-0.34-0.395-0.606-0.466
			C12.62,0.028,12.35,0.072,12.129,0.2L7.229,3.028c-0.222,0.128-0.395,0.34-0.466,0.607C6.621,4.168,6.938,4.716,7.471,4.86
			c0.267,0.071,0.537,0.027,0.759-0.101l2.809-1.621L8.039,14.33c-0.143,0.533,0.174,1.081,0.707,1.225
			c0.533,0.143,1.082-0.174,1.225-0.707L12.97,3.656l1.621,2.809c0.128,0.222,0.341,0.395,0.607,0.466
			C15.731,7.073,16.28,6.756,16.423,6.223z M55.159,27.847c-0.001-0.001-0.001-0.001-0.001-0.002l-3.617-13.521
			c-0.571-2.134-2.761-3.4-4.892-2.828c-0.8,0.215-1.478,0.658-1.982,1.241c-0.93-1.365-2.637-2.072-4.321-1.62
			c-0.8,0.215-1.478,0.658-1.981,1.241c-0.93-1.365-2.638-2.072-4.321-1.62c-0.708,0.189-1.308,0.57-1.789,1.057l-2.363-8.829
			c-0.57-2.134-2.761-3.4-4.892-2.828c-2.13,0.571-3.395,2.765-2.823,4.898l7.704,28.78l-9.112-2.702l-0.007,0.02
			c-0.655-0.176-1.357-0.203-2.059-0.015c-2.131,0.571-3.396,2.765-2.824,4.898c0.299,1.118,1.048,1.988,1.994,2.49l-0.004,0.011
			l14.549,7.706L32.43,46.2c3.406,1.756,7.441,2.314,11.433,1.243C52.385,45.156,57.442,36.382,55.159,27.847z"/>
	</g>
</g>
<g>
</g>
<g>
</g>
<g>
</g>
<g>
</g>
<g>
</g>
<g>
</g>
<g>
</g>
<g>
</g>
<g>
</g>
<g>
</g>
<g>
</g>
<g>
</g>
<g>
</g>
<g>
</g>
<g>
</g>
</svg>
