<?xml version="1.0" encoding="iso-8859-1"?>
<!-- Generator: Adobe Illustrator 16.0.4, SVG Export Plug-In . SVG Version: 6.00 Build 0)  -->
<!DOCTYPE svg PUBLIC "-//W3C//DTD SVG 1.1//EN" "http://www.w3.org/Graphics/SVG/1.1/DTD/svg11.dtd">
<svg version="1.1" id="Layer_1" xmlns="http://www.w3.org/2000/svg" xmlns:xlink="http://www.w3.org/1999/xlink" x="0px" y="0px"
	 width="51.998px" height="47.988px" viewBox="0 0 51.998 47.988" style="enable-background:new 0 0 51.998 47.988;"
	 xml:space="preserve">
<g id="_x31_109-pinch_x40_2x.png">
	<g>
		<path d="M51.45,27.847c-0.001-0.001-0.001-0.001-0.001-0.002l-3.617-13.521c-0.571-2.134-2.761-3.4-4.892-2.828
			c-0.8,0.215-1.478,0.658-1.982,1.241c-0.93-1.365-2.637-2.072-4.321-1.62c-0.8,0.215-1.478,0.658-1.981,1.241
			c-0.93-1.365-2.638-2.072-4.321-1.62c-0.708,0.189-1.308,0.57-1.789,1.057l-2.363-8.829c-0.57-2.134-2.761-3.4-4.892-2.828
			c-2.13,0.571-3.395,2.765-2.823,4.898l7.704,28.78l-9.112-2.702l-0.007,0.02c-0.655-0.176-1.357-0.203-2.059-0.015
			c-2.131,0.571-3.396,2.765-2.824,4.898c0.299,1.118,1.048,1.988,1.994,2.49l-0.004,0.011l14.549,7.706l0.013-0.024
			c3.406,1.756,7.441,2.314,11.433,1.243C48.676,45.156,53.733,36.382,51.45,27.847z M6.586,15.088
			c0.128,0.222,0.341,0.395,0.607,0.466s0.537,0.028,0.759-0.101l4.899-2.828c0.222-0.128,0.395-0.34,0.466-0.607
			c0.143-0.533-0.174-1.081-0.707-1.225c-0.267-0.071-0.538-0.027-0.759,0.101l-2.809,1.621l2.999-11.191
			c0.143-0.533-0.174-1.082-0.707-1.225c-0.534-0.143-1.082,0.174-1.226,0.707L7.111,11.998L5.49,9.189
			C5.362,8.967,5.149,8.794,4.883,8.723C4.35,8.581,3.801,8.897,3.658,9.43c-0.072,0.267-0.028,0.537,0.1,0.759L6.586,15.088z
			 M6.766,19.883c-0.128-0.222-0.341-0.394-0.607-0.466c-0.267-0.071-0.537-0.027-0.759,0.101l-4.898,2.828
			c-0.222,0.128-0.396,0.34-0.467,0.607c-0.143,0.533,0.174,1.081,0.707,1.225c0.267,0.071,0.537,0.027,0.759-0.1l2.809-1.622
			L1.31,33.648c-0.143,0.533,0.174,1.082,0.708,1.225c0.533,0.143,1.081-0.174,1.225-0.707L6.24,22.974l1.621,2.809
			c0.129,0.222,0.341,0.395,0.607,0.466c0.533,0.143,1.082-0.174,1.225-0.707c0.072-0.267,0.028-0.537-0.1-0.759L6.766,19.883z"/>
	</g>
</g>
<g>
</g>
<g>
</g>
<g>
</g>
<g>
</g>
<g>
</g>
<g>
</g>
<g>
</g>
<g>
</g>
<g>
</g>
<g>
</g>
<g>
</g>
<g>
</g>
<g>
</g>
<g>
</g>
<g>
</g>
</svg>
