<?xml version="1.0" encoding="iso-8859-1"?>
<!-- Generator: Adobe Illustrator 16.0.4, SVG Export Plug-In . SVG Version: 6.00 Build 0)  -->
<!DOCTYPE svg PUBLIC "-//W3C//DTD SVG 1.1//EN" "http://www.w3.org/Graphics/SVG/1.1/DTD/svg11.dtd">
<svg version="1.1" id="Layer_1" xmlns="http://www.w3.org/2000/svg" xmlns:xlink="http://www.w3.org/1999/xlink" x="0px" y="0px"
	 width="55.979px" height="47.988px" viewBox="0 0 55.979 47.988" style="enable-background:new 0 0 55.979 47.988;"
	 xml:space="preserve">
<g id="_x31_110-rotate_x40_2x.png">
	<g>
		<path d="M14.633,22.017c-0.826,2.325-3.024,4-5.633,4v0.001c-2.043-0.002-4.099-1.593-5.303-4.001H5c0.553,0,1-0.447,1-1
			c0-0.552-0.447-1-1-1H1c-0.553,0-1,0.448-1,1v4c0,0.553,0.447,1,1,1s1-0.447,1-1v-1.942c1.556,2.974,4.223,4.894,7,4.896v0.047
			c3.727,0,6.849-2.552,7.738-6H14.633z M9,14.017L9,14.017c2.043,0.002,4.099,1.592,5.303,4H13c-0.553,0-1,0.448-1,1
			c0,0.553,0.447,1,1,1h4c0.553,0,1-0.447,1-1v-4c0-0.552-0.447-1-1-1s-1,0.448-1,1v1.942c-1.556-2.974-4.223-4.894-7-4.896v-0.047
			c-3.727,0-6.849,2.552-7.737,6h2.104C4.194,15.692,6.392,14.017,9,14.017z M55.431,27.847c-0.001-0.001-0.001-0.001-0.001-0.002
			l-3.617-13.521c-0.571-2.134-2.761-3.4-4.892-2.828c-0.8,0.215-1.478,0.658-1.982,1.241c-0.93-1.365-2.637-2.072-4.321-1.62
			c-0.8,0.215-1.478,0.658-1.981,1.241c-0.93-1.365-2.638-2.072-4.321-1.62c-0.708,0.189-1.308,0.57-1.789,1.057l-2.363-8.829
			c-0.57-2.134-2.761-3.4-4.892-2.828c-2.13,0.571-3.395,2.765-2.823,4.898l7.704,28.78l-9.112-2.702l-0.007,0.02
			c-0.655-0.176-1.357-0.203-2.059-0.015c-2.131,0.571-3.396,2.765-2.824,4.898c0.299,1.118,1.048,1.988,1.994,2.49l-0.004,0.011
			l14.549,7.706l0.013-0.024c3.406,1.756,7.441,2.314,11.433,1.243C52.656,45.156,57.714,36.382,55.431,27.847z"/>
	</g>
</g>
<g>
</g>
<g>
</g>
<g>
</g>
<g>
</g>
<g>
</g>
<g>
</g>
<g>
</g>
<g>
</g>
<g>
</g>
<g>
</g>
<g>
</g>
<g>
</g>
<g>
</g>
<g>
</g>
<g>
</g>
</svg>
