<?xml version="1.0" encoding="iso-8859-1"?>
<!-- Generator: Adobe Illustrator 16.0.4, SVG Export Plug-In . SVG Version: 6.00 Build 0)  -->
<!DOCTYPE svg PUBLIC "-//W3C//DTD SVG 1.1//EN" "http://www.w3.org/Graphics/SVG/1.1/DTD/svg11.dtd">
<svg version="1.1" id="Layer_1" xmlns="http://www.w3.org/2000/svg" xmlns:xlink="http://www.w3.org/1999/xlink" x="0px" y="0px"
	 width="56px" height="52px" viewBox="0 0 56 52" style="enable-background:new 0 0 56 52;" xml:space="preserve">
<g id="_x31_111-flick-left_x40_2x.png">
	<g>
		<path d="M3.429,6.015c6.328-0.296,12.508,0.94,19.149,3.89c0.499,0.222,1.087,0.003,1.31-0.491
			c0.224-0.493-0.002-1.074-0.503-1.296C16.506,5.06,9.968,3.758,3.359,4.056l2.348-2.349C5.888,1.526,6,1.276,6,1
			c0-0.553-0.448-1-1-1C4.724,0,4.474,0.112,4.293,0.293l-4,4C0.112,4.474,0,4.724,0,5s0.112,0.526,0.293,0.707l4,4
			C4.474,9.888,4.724,10,5,10c0.552,0,1-0.447,1-1c0-0.276-0.112-0.526-0.293-0.707L3.429,6.015z M52.003,18
			c-0.829,0-1.599,0.253-2.237,0.686C49.221,17.126,47.753,16,46.009,16c-0.829,0-1.599,0.253-2.237,0.686
			C43.226,15.126,41.758,14,40.014,14c-0.732,0-1.409,0.212-1.999,0.555V6c0-2.209-1.789-4-3.997-4c-2.207,0-3.997,1.791-3.997,4
			v22.913l-2.31-4.457c-1.032-2.072-3.183-3.01-5.222-2.165c-2.039,0.846-3.008,3.186-2.163,5.227l4.3,12.779
			C26.506,47.043,32.674,52,40.014,52C48.843,52,56,44.837,56,36v-0.001V22C56,19.791,54.211,18,52.003,18z"/>
	</g>
</g>
<g>
</g>
<g>
</g>
<g>
</g>
<g>
</g>
<g>
</g>
<g>
</g>
<g>
</g>
<g>
</g>
<g>
</g>
<g>
</g>
<g>
</g>
<g>
</g>
<g>
</g>
<g>
</g>
<g>
</g>
</svg>
