<?xml version="1.0" encoding="iso-8859-1"?>
<!-- Generator: Adobe Illustrator 16.0.4, SVG Export Plug-In . SVG Version: 6.00 Build 0)  -->
<!DOCTYPE svg PUBLIC "-//W3C//DTD SVG 1.1//EN" "http://www.w3.org/Graphics/SVG/1.1/DTD/svg11.dtd">
<svg version="1.1" id="Layer_1" xmlns="http://www.w3.org/2000/svg" xmlns:xlink="http://www.w3.org/1999/xlink" x="0px" y="0px"
	 width="47.946px" height="52px" viewBox="0 0 47.946 52" style="enable-background:new 0 0 47.946 52;" xml:space="preserve">
<g id="_x31_112-flick-right_x40_2x.png">
	<g>
		<path d="M31.981,18c-0.829,0-1.599,0.253-2.237,0.686C29.199,17.126,27.73,16,25.986,16c-0.829,0-1.599,0.253-2.237,0.686
			C23.204,15.126,21.736,14,19.992,14c-0.732,0-1.409,0.212-1.999,0.555V6c0-2.209-1.789-4-3.997-4C11.79,2,10,3.791,10,6v22.913
			l-2.31-4.457c-1.032-2.072-3.183-3.01-5.222-2.165c-2.039,0.846-3.008,3.186-2.163,5.227l4.3,12.779
			C6.483,47.043,12.652,52,19.992,52c8.829,0,15.986-7.163,15.986-16v-0.001V22C35.978,19.791,34.188,18,31.981,18z M47.653,4.293
			l-4-4C43.473,0.112,43.223,0,42.946,0c-0.552,0-1,0.447-1,1c0,0.276,0.112,0.526,0.293,0.707l2.348,2.349
			C37.979,3.758,31.44,5.06,24.561,8.117c-0.501,0.222-0.727,0.803-0.503,1.296c0.223,0.494,0.811,0.713,1.31,0.491
			c6.642-2.949,12.821-4.186,19.149-3.89l-2.278,2.278C42.058,8.474,41.946,8.724,41.946,9c0,0.553,0.448,1,1,1
			c0.276,0,0.526-0.112,0.707-0.293l4-4C47.834,5.526,47.946,5.276,47.946,5S47.834,4.474,47.653,4.293z"/>
	</g>
</g>
<g>
</g>
<g>
</g>
<g>
</g>
<g>
</g>
<g>
</g>
<g>
</g>
<g>
</g>
<g>
</g>
<g>
</g>
<g>
</g>
<g>
</g>
<g>
</g>
<g>
</g>
<g>
</g>
<g>
</g>
</svg>
