<?xml version="1.0" encoding="iso-8859-1"?>
<!-- Generator: Adobe Illustrator 16.0.4, SVG Export Plug-In . SVG Version: 6.00 Build 0)  -->
<!DOCTYPE svg PUBLIC "-//W3C//DTD SVG 1.1//EN" "http://www.w3.org/Graphics/SVG/1.1/DTD/svg11.dtd">
<svg version="1.1" id="Layer_1" xmlns="http://www.w3.org/2000/svg" xmlns:xlink="http://www.w3.org/1999/xlink" x="0px" y="0px"
	 width="34px" height="38px" viewBox="0 0 34 38" style="enable-background:new 0 0 34 38;" xml:space="preserve">
<g id="_x31_113-grab-hand-1_x40_2x.png">
	<g>
		<path d="M30,4c-0.83,0-1.6,0.253-2.239,0.686C27.215,3.126,25.746,2,24,2c-0.83,0-1.6,0.253-2.239,0.686
			C21.215,1.126,19.746,0,18,0s-3.215,1.126-3.761,2.686C13.6,2.253,12.83,2,12,2C9.791,2,8,3.791,8,6v7.348l-0.229-0.631
			c-0.041-0.12-0.078-0.241-0.129-0.355l-0.06-0.165L7.559,12.21C6.9,10.904,5.562,10,4,10c-2.209,0-4,1.791-4,4
			c0,0.489,0.069,0.959,0.198,1.396l2.277,10.545l0.037-0.011C4.265,32.863,10.522,38,18,38c8.836,0,16-7.163,16-16
			c0,0,0-0.001,0-0.002V8C34,5.791,32.209,4,30,4z"/>
	</g>
</g>
<g>
</g>
<g>
</g>
<g>
</g>
<g>
</g>
<g>
</g>
<g>
</g>
<g>
</g>
<g>
</g>
<g>
</g>
<g>
</g>
<g>
</g>
<g>
</g>
<g>
</g>
<g>
</g>
<g>
</g>
</svg>
