<?xml version="1.0" encoding="iso-8859-1"?>
<!-- Generator: Adobe Illustrator 16.0.4, SVG Export Plug-In . SVG Version: 6.00 Build 0)  -->
<!DOCTYPE svg PUBLIC "-//W3C//DTD SVG 1.1//EN" "http://www.w3.org/Graphics/SVG/1.1/DTD/svg11.dtd">
<svg version="1.1" id="Layer_1" xmlns="http://www.w3.org/2000/svg" xmlns:xlink="http://www.w3.org/1999/xlink" x="0px" y="0px"
	 width="32px" height="38px" viewBox="0 0 32 38" style="enable-background:new 0 0 32 38;" xml:space="preserve">
<g id="_x31_114-fist_x40_2x.png">
	<g>
		<path d="M27,12h-1V6c0-2.209-1.791-4-4-4c-0.83,0-1.6,0.253-2.239,0.686C19.215,1.126,17.746,0,16,0s-3.215,1.126-3.761,2.686
			C11.6,2.253,10.83,2,10,2C8.254,2,6.785,3.126,6.239,4.686C5.6,4.253,4.83,4,4,4C1.791,4,0,5.791,0,8v14c0,8.837,7.164,16,16,16
			s16-7.163,16-16v-5C32,14.239,29.761,12,27,12z"/>
	</g>
</g>
<g>
</g>
<g>
</g>
<g>
</g>
<g>
</g>
<g>
</g>
<g>
</g>
<g>
</g>
<g>
</g>
<g>
</g>
<g>
</g>
<g>
</g>
<g>
</g>
<g>
</g>
<g>
</g>
<g>
</g>
</svg>
