<?xml version="1.0" encoding="iso-8859-1"?>
<!-- Generator: Adobe Illustrator 16.0.4, SVG Export Plug-In . SVG Version: 6.00 Build 0)  -->
<!DOCTYPE svg PUBLIC "-//W3C//DTD SVG 1.1//EN" "http://www.w3.org/Graphics/SVG/1.1/DTD/svg11.dtd">
<svg version="1.1" id="Layer_1" xmlns="http://www.w3.org/2000/svg" xmlns:xlink="http://www.w3.org/1999/xlink" x="0px" y="0px"
	 width="34px" height="50px" viewBox="0 0 34 50" style="enable-background:new 0 0 34 50;" xml:space="preserve">
<g id="_x31_115-peace-sign_x40_2x.png">
	<g>
		<path d="M34,20c0-2.209-1.791-4-4-4c-0.831,0-1.601,0.255-2.238,0.689C27.217,15.128,25.748,14,24,14
			c-0.416,0-0.808,0.082-1.185,0.199l2.099-9.378c0.002-0.009,0.004-0.017,0.006-0.025l0.002-0.011l-0.001-0.001
			C24.972,4.53,25,4.269,25,4c0-2.209-1.791-4-4-4c-1.94,0-3.556,1.383-3.921,3.216h-0.001l-4.192,14.596L8.854,6.93L8.838,6.935
			C8.369,5.246,6.837,4,5,4C2.791,4,1,5.791,1,8c0,0.372,0.063,0.727,0.159,1.067L1.146,9.07L5.293,24H5c-2.761,0-5,2.239-5,5v5
			h0.028c0,8.837,7.157,16,15.986,16C24.843,50,32,42.837,32,34v-3.604l1.917-9.583c0.001-0.005,0.002-0.01,0.003-0.015l0.003-0.014
			l-0.001-0.001C33.972,20.53,34,20.269,34,20z"/>
	</g>
</g>
<g>
</g>
<g>
</g>
<g>
</g>
<g>
</g>
<g>
</g>
<g>
</g>
<g>
</g>
<g>
</g>
<g>
</g>
<g>
</g>
<g>
</g>
<g>
</g>
<g>
</g>
<g>
</g>
<g>
</g>
</svg>
