<?xml version="1.0" encoding="iso-8859-1"?>
<!-- Generator: Adobe Illustrator 16.0.4, SVG Export Plug-In . SVG Version: 6.00 Build 0)  -->
<!DOCTYPE svg PUBLIC "-//W3C//DTD SVG 1.1//EN" "http://www.w3.org/Graphics/SVG/1.1/DTD/svg11.dtd">
<svg version="1.1" id="Layer_1" xmlns="http://www.w3.org/2000/svg" xmlns:xlink="http://www.w3.org/1999/xlink" x="0px" y="0px"
	 width="36.009px" height="50px" viewBox="0 0 36.009 50" style="enable-background:new 0 0 36.009 50;" xml:space="preserve">
<g id="_x31_116-slayer-hand_x40_2x.png">
	<g>
		<path d="M32.009,4c-2.209,0-4,1.791-4,4v6.556c-0.59-0.344-1.268-0.556-2-0.556c-0.83,0-1.6,0.253-2.239,0.686
			C23.224,13.126,21.755,12,20.009,12c-0.732,0-1.409,0.212-2,0.555V4c0-2.209-1.791-4-4-4s-4,1.791-4,4v22.913l-2.312-4.457
			c-1.032-2.072-3.185-3.01-5.226-2.165c-2.041,0.846-3.011,3.186-2.165,5.227l4.304,12.779C6.489,45.044,12.663,50,20.009,50
			c8.837,0,16-7.163,16-16V8C36.009,5.791,34.218,4,32.009,4z"/>
	</g>
</g>
<g>
</g>
<g>
</g>
<g>
</g>
<g>
</g>
<g>
</g>
<g>
</g>
<g>
</g>
<g>
</g>
<g>
</g>
<g>
</g>
<g>
</g>
<g>
</g>
<g>
</g>
<g>
</g>
<g>
</g>
</svg>
