<?xml version="1.0" encoding="iso-8859-1"?>
<!-- Generator: Adobe Illustrator 16.0.4, SVG Export Plug-In . SVG Version: 6.00 Build 0)  -->
<!DOCTYPE svg PUBLIC "-//W3C//DTD SVG 1.1//EN" "http://www.w3.org/Graphics/SVG/1.1/DTD/svg11.dtd">
<svg version="1.1" id="Layer_1" xmlns="http://www.w3.org/2000/svg" xmlns:xlink="http://www.w3.org/1999/xlink" x="0px" y="0px"
	 width="35.978px" height="50px" viewBox="0 0 35.978 50" style="enable-background:new 0 0 35.978 50;" xml:space="preserve">
<g id="_x31_117-stop-hand-1_x40_2x.png">
	<g>
		<path d="M31.978,8c-0.733,0-1.409,0.216-2,0.561V8c0-2.209-1.791-4-4-4c-0.729,0-1.401,0.215-1.989,0.556V4h-0.011
			c0-2.209-1.777-4-3.969-4S16.04,1.791,16.04,4h-0.045v0.556C15.409,4.216,14.741,4,14.016,4c-2.205,0-3.993,1.791-3.993,4H9.991
			L10,26.913l-2.311-4.457c-1.031-2.072-3.182-3.01-5.222-2.165c-2.039,0.846-3.007,3.186-2.162,5.227l4.414,13.12
			c0.047,0.153,0.103,0.303,0.153,0.455l0.27,0.801l0.021-0.009C7.505,45.807,13.261,50,20.005,50c8.821,0,15.973-7.163,15.973-16
			V12C35.978,9.791,34.187,8,31.978,8z"/>
	</g>
</g>
<g>
</g>
<g>
</g>
<g>
</g>
<g>
</g>
<g>
</g>
<g>
</g>
<g>
</g>
<g>
</g>
<g>
</g>
<g>
</g>
<g>
</g>
<g>
</g>
<g>
</g>
<g>
</g>
<g>
</g>
</svg>
