<?xml version="1.0" encoding="iso-8859-1"?>
<!-- Generator: Adobe Illustrator 16.0.4, SVG Export Plug-In . SVG Version: 6.00 Build 0)  -->
<!DOCTYPE svg PUBLIC "-//W3C//DTD SVG 1.1//EN" "http://www.w3.org/Graphics/SVG/1.1/DTD/svg11.dtd">
<svg version="1.1" id="Layer_1" xmlns="http://www.w3.org/2000/svg" xmlns:xlink="http://www.w3.org/1999/xlink" x="0px" y="0px"
	 width="39.987px" height="56px" viewBox="0 0 39.987 56" style="enable-background:new 0 0 39.987 56;" xml:space="preserve">
<g id="_x31_118-two-fingers_x40_2x.png">
	<g>
		<path d="M35.987,18c-0.756,0-1.456,0.222-2.06,0.587c0.029-0.193,0.06-0.386,0.06-0.587c0-2.209-1.791-4-4-4
			c-1.169,0-2.211,0.511-2.942,1.31l0.942-11.308c0,0,0-0.001,0-0.002c0-2.209-1.784-4-3.984-4s-3.984,1.791-3.984,4h-0.031
			l-1.899,14.588L16.956,8.466h-0.007C16.686,6.512,15.031,5,13.007,5C10.799,5,9.01,6.791,9.01,9c0,0.061,0.016,0.117,0.018,0.177
			H9.025l1.568,21.542l-2.988-6.263c-0.845-2.041-3.183-3.011-5.222-2.165s-2.805,3.007-2.162,5.227L5.56,44.112l0.008-0.004
			C7.382,50.951,13.594,56,21.001,56c8.221,0,14.984-6.212,15.879-14.2l2.935-18.698c0.102-0.353,0.173-0.717,0.173-1.102
			C39.987,19.791,38.196,18,35.987,18z"/>
	</g>
</g>
<g>
</g>
<g>
</g>
<g>
</g>
<g>
</g>
<g>
</g>
<g>
</g>
<g>
</g>
<g>
</g>
<g>
</g>
<g>
</g>
<g>
</g>
<g>
</g>
<g>
</g>
<g>
</g>
<g>
</g>
</svg>
