<?xml version="1.0" encoding="iso-8859-1"?>
<!-- Generator: Adobe Illustrator 16.0.4, SVG Export Plug-In . SVG Version: 6.00 Build 0)  -->
<!DOCTYPE svg PUBLIC "-//W3C//DTD SVG 1.1//EN" "http://www.w3.org/Graphics/SVG/1.1/DTD/svg11.dtd">
<svg version="1.1" id="Layer_1" xmlns="http://www.w3.org/2000/svg" xmlns:xlink="http://www.w3.org/1999/xlink" x="0px" y="0px"
	 width="45.987px" height="56px" viewBox="0 0 45.987 56" style="enable-background:new 0 0 45.987 56;" xml:space="preserve">
<g id="_x31_119-fingers-spread-left_x40_2x.png">
	<g>
		<path d="M43.604,22.291c-2.039-0.846-4.377,0.124-5.222,2.165l-4.05,7.147l1.646-22.345l-0.026-0.002
			C35.957,9.17,35.978,9.088,35.978,9c0-2.209-1.789-4-3.997-4c-2.014,0-3.662,1.496-3.939,3.435h-0.002l-1.133,10.121L24.915,3.209
			L24.89,3.212C24.524,1.381,22.916,0,20.984,0C18.784,0,17,1.791,17,4l0.785,14.927L14.935,7.161l-0.017,0.003
			c-0.363-1.71-1.812-3.047-3.642-3.163C9.071,3.86,7.17,5.533,7.029,7.738c-0.023,0.374,0.017,0.734,0.09,1.084l-0.01,0.002
			l2.904,14.242l-2.232-5.37l-0.016,0.006C7.225,16.134,5.752,15,4,15c-2.209,0-4,1.791-4,4c0,0.458,0.081,0.895,0.221,1.304H0.219
			l0.008,0.024c0.012,0.033,0.022,0.066,0.035,0.1l8.445,24.285C10.717,51.249,16.796,56,23.986,56
			c6.771,0,12.546-4.22,14.876-10.171l0.003,0.002l6.9-18.313C46.408,25.298,45.643,23.137,43.604,22.291z"/>
	</g>
</g>
<g>
</g>
<g>
</g>
<g>
</g>
<g>
</g>
<g>
</g>
<g>
</g>
<g>
</g>
<g>
</g>
<g>
</g>
<g>
</g>
<g>
</g>
<g>
</g>
<g>
</g>
<g>
</g>
<g>
</g>
</svg>
