<?xml version="1.0" encoding="iso-8859-1"?>
<!-- Generator: Adobe Illustrator 16.0.4, SVG Export Plug-In . SVG Version: 6.00 Build 0)  -->
<!DOCTYPE svg PUBLIC "-//W3C//DTD SVG 1.1//EN" "http://www.w3.org/Graphics/SVG/1.1/DTD/svg11.dtd">
<svg version="1.1" id="Layer_1" xmlns="http://www.w3.org/2000/svg" xmlns:xlink="http://www.w3.org/1999/xlink" x="0px" y="0px"
	 width="45.987px" height="56px" viewBox="0 0 45.987 56" style="enable-background:new 0 0 45.987 56;" xml:space="preserve">
<g id="_x31_120-fingers-spread-right_x40_2x.png">
	<g>
		<path d="M45.987,19c0-2.209-1.791-4-4-4c-1.752,0-3.225,1.134-3.766,2.702l-0.016-0.006l-2.231,5.37l2.903-14.242l-0.01-0.002
			c0.073-0.35,0.113-0.71,0.09-1.084c-0.141-2.205-2.042-3.878-4.247-3.737c-1.83,0.116-3.278,1.453-3.642,3.163l-0.017-0.003
			l-2.851,11.766L28.987,4c0-2.209-1.784-4-3.984-4c-1.932,0-3.54,1.381-3.905,3.212l-0.025-0.003l-1.991,15.347L17.948,8.435
			h-0.002C17.669,6.496,16.021,5,14.007,5c-2.208,0-3.997,1.791-3.997,4c0,0.088,0.021,0.17,0.026,0.257L10.01,9.259l1.646,22.345
			l-4.05-7.147c-0.845-2.041-3.182-3.011-5.222-2.165c-2.039,0.846-2.805,3.007-2.162,5.227l6.9,18.313l0.003-0.002
			C9.455,51.78,15.229,56,22.001,56c7.19,0,13.27-4.751,15.279-11.287l8.445-24.285c0.013-0.033,0.023-0.066,0.035-0.1l0.008-0.024
			h-0.002C45.906,19.895,45.987,19.458,45.987,19z"/>
	</g>
</g>
<g>
</g>
<g>
</g>
<g>
</g>
<g>
</g>
<g>
</g>
<g>
</g>
<g>
</g>
<g>
</g>
<g>
</g>
<g>
</g>
<g>
</g>
<g>
</g>
<g>
</g>
<g>
</g>
<g>
</g>
</svg>
