<?xml version="1.0" encoding="iso-8859-1"?>
<!-- Generator: Adobe Illustrator 16.0.4, SVG Export Plug-In . SVG Version: 6.00 Build 0)  -->
<!DOCTYPE svg PUBLIC "-//W3C//DTD SVG 1.1//EN" "http://www.w3.org/Graphics/SVG/1.1/DTD/svg11.dtd">
<svg version="1.1" id="Layer_1" xmlns="http://www.w3.org/2000/svg" xmlns:xlink="http://www.w3.org/1999/xlink" x="0px" y="0px"
	 width="48px" height="56px" viewBox="0 0 48 56" style="enable-background:new 0 0 48 56;" xml:space="preserve">
<g id="_x31_121-dress-shirt_x40_2x.png">
	<g>
		<path d="M35.987,4.049C35.853,1.806,30.543,0,24,0S12.147,1.806,12.013,4.049C1.222,4.561,0,13.208,0,17v30v1c0,1.104,0.896,2,2,2
			h1h5V17c0-0.552,0.448-1,1-1s1,0.448,1,1v37c0,1.104,0.896,2,2,2h1h22h1c1.104,0,2-0.896,2-2V17c0-0.552,0.448-1,1-1s1,0.448,1,1
			v33h5h1c1.104,0,2-0.896,2-2v-1V17C48,13.207,46.778,4.561,35.987,4.049z M24,2c5.523,0,10,0.896,10,2s-4.477,2-10,2
			S14,5.104,14,4S18.477,2,24,2z M17.225,11.539l-3.357-5.035l-0.014,0.008c-0.077-0.124-0.175-0.235-0.297-0.319l0.022-0.011
			c1.616,0.975,4.348,1.7,7.598,1.97L17.225,11.539z M24,48c-0.552,0-1-0.447-1-1c0-0.552,0.448-1,1-1s1,0.448,1,1
			C25,47.553,24.552,48,24,48z M24,40c-0.552,0-1-0.447-1-1c0-0.552,0.448-1,1-1s1,0.448,1,1C25,39.553,24.552,40,24,40z M24,32
			c-0.552,0-1-0.447-1-1s0.448-1,1-1s1,0.447,1,1S24.552,32,24,32z M24,24c-0.552,0-1-0.447-1-1c0-0.552,0.448-1,1-1s1,0.448,1,1
			C25,23.553,24.552,24,24,24z M24,16c-0.552,0-1-0.447-1-1c0-0.552,0.448-1,1-1s1,0.448,1,1C25,15.553,24.552,16,24,16z
			 M34.115,6.558l-0.009-0.005l-3.327,4.99l-3.956-3.391c3.194-0.267,5.886-0.972,7.511-1.922l0.032,0.013
			C34.262,6.331,34.176,6.435,34.115,6.558z"/>
	</g>
</g>
<g>
</g>
<g>
</g>
<g>
</g>
<g>
</g>
<g>
</g>
<g>
</g>
<g>
</g>
<g>
</g>
<g>
</g>
<g>
</g>
<g>
</g>
<g>
</g>
<g>
</g>
<g>
</g>
<g>
</g>
</svg>
