<?xml version="1.0" encoding="iso-8859-1"?>
<!-- Generator: Adobe Illustrator 16.0.4, SVG Export Plug-In . SVG Version: 6.00 Build 0)  -->
<!DOCTYPE svg PUBLIC "-//W3C//DTD SVG 1.1//EN" "http://www.w3.org/Graphics/SVG/1.1/DTD/svg11.dtd">
<svg version="1.1" id="Layer_1" xmlns="http://www.w3.org/2000/svg" xmlns:xlink="http://www.w3.org/1999/xlink" x="0px" y="0px"
	 width="48px" height="56px" viewBox="0 0 48 56" style="enable-background:new 0 0 48 56;" xml:space="preserve">
<g id="_x31_122-suit_x40_2x.png">
	<g>
		<path d="M36,4.05V3c0-0.421-0.262-0.777-0.63-0.925l0.001-0.004L30.39,0.079c0,0,0,0,0,0l-0.018-0.008L30.37,0.075
			C30.255,0.029,30.131,0,30,0H18c-0.131,0-0.255,0.029-0.37,0.075l-0.001-0.004l-0.017,0.007c0,0.001,0,0.001-0.001,0.001
			l-4.982,1.992l0.001,0.004C12.262,2.223,12,2.579,12,3v1.05C1.221,4.567,0,13.209,0,17v30v1c0,1.104,0.896,2,2,2h1h5V25
			c0-0.552,0.448-1,1-1s1,0.448,1,1v25v3v1c0,1.104,0.896,2,2,2h1h9h1V41.414l0.293,0.293l0.011-0.011
			C23.483,41.879,23.723,42,24,42c0.276,0,0.526-0.112,0.707-0.293L25,41.414V56h1h9h1c1.104,0,2-0.895,2-1.999V25
			c0-0.552,0.448-1,1-1s1,0.448,1,1v25h5h1c1.104,0,2-0.896,2-2v-1V17C48,13.209,46.779,4.567,36,4.05z M36,5.268l0.348,0.385L36,6
			V5.268z M14,3.678L18.193,2h11.615L34,3.678v2.756l-3.905,2.344L24.64,4.231l-0.008,0.011C24.458,4.098,24.243,4,24,4
			s-0.458,0.098-0.631,0.242L23.36,4.231l-5.455,4.546L14,6.434V3.678z M27,9c0,1.657-1.343,3-3,3s-3-1.343-3-3
			c0-0.074,0.017-0.144,0.022-0.217L24,6.302l2.979,2.483C26.985,8.857,27,8.927,27,9z M12,5.706V6l-0.142-0.143L12,5.706z
			 M18.967,30.114L8.237,11.178l3.83-3.83l0.008,0.025c0.003,0.008,0.005,0.016,0.008,0.023l7.168,21.011L18.967,30.114z M24,38.995
			l-3.466-6.116l3.151-18.909C23.792,13.977,23.893,14,24,14c0.108,0,0.208-0.023,0.314-0.03l3.151,18.909L24,38.995z
			 M29.033,30.114l-0.285-1.707l7.169-21.011c0.003-0.008,0.005-0.016,0.008-0.023l0.009-0.025l3.83,3.83L29.033,30.114z"/>
	</g>
</g>
<g>
</g>
<g>
</g>
<g>
</g>
<g>
</g>
<g>
</g>
<g>
</g>
<g>
</g>
<g>
</g>
<g>
</g>
<g>
</g>
<g>
</g>
<g>
</g>
<g>
</g>
<g>
</g>
<g>
</g>
</svg>
