<?xml version="1.0" encoding="iso-8859-1"?>
<!-- Generator: Adobe Illustrator 16.0.4, SVG Export Plug-In . SVG Version: 6.00 Build 0)  -->
<!DOCTYPE svg PUBLIC "-//W3C//DTD SVG 1.1//EN" "http://www.w3.org/Graphics/SVG/1.1/DTD/svg11.dtd">
<svg version="1.1" id="Layer_1" xmlns="http://www.w3.org/2000/svg" xmlns:xlink="http://www.w3.org/1999/xlink" x="0px" y="0px"
	 width="48px" height="56px" viewBox="0 0 48 56" style="enable-background:new 0 0 48 56;" xml:space="preserve">
<g id="_x31_123-jacket_x40_2x.png">
	<g>
		<path d="M35,4h-1V3c0-0.421-0.262-0.777-0.63-0.925l0.001-0.004L28.39,0.079c0,0,0,0,0,0l-0.018-0.008L28.37,0.075
			C28.255,0.029,28.131,0,28,0h-8c-0.131,0-0.255,0.029-0.37,0.075l-0.001-0.004l-0.017,0.007c0,0.001,0,0.001-0.001,0.001
			l-4.982,1.992l0.001,0.004C14.262,2.223,14,2.579,14,3v1h-1C1.267,4,0,13.092,0,17v30v1c0,1.104,0.896,2,2,2h1h5V21
			c0-0.553,0.448-1,1-1s1,0.447,1,1v29v3v1c0,1.104,0.896,2,2,2h1h6c0.552,0,1-0.447,1-1v-1h8v1c0,0.553,0.448,1,1,1h6h1
			c1.104,0,2-0.896,2-2v-1v-3V21c0-0.553,0.448-1,1-1s1,0.447,1,1v29h5h1c1.104,0,2-0.896,2-2v-1V17C48,13.092,46.733,4,35,4z
			 M28,52h-8V9.582l4-3.334l4,3.334V52z M24.832,4.445l-0.015,0.011C24.638,4.188,24.347,4,24,4s-0.638,0.188-0.817,0.456
			l-0.015-0.011l-5.104,4.254L16,6.636V3.678L20.193,2h7.615L32,3.678v2.98L29.949,8.71L24.832,4.445z M37,18h-4
			c-0.552,0-1-0.447-1-1c0-0.552,0.448-1,1-1h4c0.552,0,1,0.448,1,1C38,17.553,37.552,18,37,18z"/>
	</g>
</g>
<g>
</g>
<g>
</g>
<g>
</g>
<g>
</g>
<g>
</g>
<g>
</g>
<g>
</g>
<g>
</g>
<g>
</g>
<g>
</g>
<g>
</g>
<g>
</g>
<g>
</g>
<g>
</g>
<g>
</g>
</svg>
