<?xml version="1.0" encoding="iso-8859-1"?>
<!-- Generator: Adobe Illustrator 16.0.4, SVG Export Plug-In . SVG Version: 6.00 Build 0)  -->
<!DOCTYPE svg PUBLIC "-//W3C//DTD SVG 1.1//EN" "http://www.w3.org/Graphics/SVG/1.1/DTD/svg11.dtd">
<svg version="1.1" id="Layer_1" xmlns="http://www.w3.org/2000/svg" xmlns:xlink="http://www.w3.org/1999/xlink" x="0px" y="0px"
	 width="32px" height="56px" viewBox="0 0 32 56" style="enable-background:new 0 0 32 56;" xml:space="preserve">
<g id="_x31_124-pants_x40_2x.png">
	<g>
		<path d="M30,0h-1H3H2C0.896,0,0,0.896,0,2v1v1h9h2h10h2h9V3V2C32,0.896,31.104,0,30,0z M21.19,6H10.81C9.868,11.119,5.391,15,0,15
			v38v1c0,1.104,0.896,2,2,2h1h8c0.504,0,0.904-0.379,0.973-0.864l0.018,0.002L16,26.27l4.01,28.868l0.018-0.002
			C20.096,55.621,20.496,56,21,56h8h1c1.104,0,2-0.896,2-2v-1V15C26.609,15,22.132,11.119,21.19,6z M8.77,6H0v7
			C4.282,13,7.859,10.007,8.77,6z M32,13V6h-8.769C24.141,10.007,27.718,13,32,13z"/>
	</g>
</g>
<g>
</g>
<g>
</g>
<g>
</g>
<g>
</g>
<g>
</g>
<g>
</g>
<g>
</g>
<g>
</g>
<g>
</g>
<g>
</g>
<g>
</g>
<g>
</g>
<g>
</g>
<g>
</g>
<g>
</g>
</svg>
