<?xml version="1.0" encoding="iso-8859-1"?>
<!-- Generator: Adobe Illustrator 16.0.4, SVG Export Plug-In . SVG Version: 6.00 Build 0)  -->
<!DOCTYPE svg PUBLIC "-//W3C//DTD SVG 1.1//EN" "http://www.w3.org/Graphics/SVG/1.1/DTD/svg11.dtd">
<svg version="1.1" id="Layer_1" xmlns="http://www.w3.org/2000/svg" xmlns:xlink="http://www.w3.org/1999/xlink" x="0px" y="0px"
	 width="48px" height="48px" viewBox="0 0 48 48" style="enable-background:new 0 0 48 48;" xml:space="preserve">
<g id="_x31_125-shorts_x40_2x.png">
	<g>
		<path d="M11.412,7.993H0v9.853C5.445,17.064,9.876,13.156,11.412,7.993z M34.521,7.993H13.479
			C11.865,14.265,6.553,19.041,0,19.861V46c0,1.104,0.896,2,2,2h17c0.462,0,0.833-0.319,0.948-0.744l0.018,0.004L24,26.281
			l4.034,20.979l0.018-0.004C28.167,47.681,28.539,48,29,48h17c1.104,0,2-0.896,2-2V19.861
			C41.447,19.041,36.135,14.265,34.521,7.993z M48,17.846V7.993H36.588C38.124,13.156,42.555,17.064,48,17.846z M46,0H2
			C0.896,0,0,0.896,0,2v4.003h48V2C48,0.896,47.104,0,46,0z"/>
	</g>
</g>
<g>
</g>
<g>
</g>
<g>
</g>
<g>
</g>
<g>
</g>
<g>
</g>
<g>
</g>
<g>
</g>
<g>
</g>
<g>
</g>
<g>
</g>
<g>
</g>
<g>
</g>
<g>
</g>
<g>
</g>
</svg>
