<?xml version="1.0" encoding="iso-8859-1"?>
<!-- Generator: Adobe Illustrator 16.0.4, SVG Export Plug-In . SVG Version: 6.00 Build 0)  -->
<!DOCTYPE svg PUBLIC "-//W3C//DTD SVG 1.1//EN" "http://www.w3.org/Graphics/SVG/1.1/DTD/svg11.dtd">
<svg version="1.1" id="Layer_1" xmlns="http://www.w3.org/2000/svg" xmlns:xlink="http://www.w3.org/1999/xlink" x="0px" y="0px"
	 width="56.006px" height="28.002px" viewBox="0 0 56.006 28.002" style="enable-background:new 0 0 56.006 28.002;"
	 xml:space="preserve">
<g id="_x31_126-bowtie_x40_2x.png">
	<g>
		<path d="M51.833,0.446c-0.202-0.303-0.549-0.479-0.916-0.441c-0.481,0.04-11.305,1.011-17.691,6.432
			c-1.402-1.514-3.225-2.436-5.223-2.436c-2.017,0-3.854,0.94-5.261,2.479C16.375,1.049,5.556,0.076,5.076,0.036
			C4.709-0.001,4.363,0.175,4.162,0.478C3.992,0.732,0,6.806,0,14.018c0,7.211,3.992,13.285,4.162,13.539
			c0.178,0.268,0.474,0.434,0.795,0.444c0.012,0.001,0.07,0.001,0.082,0.001c0.504,0,11.79-0.09,17.808-6.36
			c1.394,1.47,3.19,2.359,5.156,2.359c1.953,0,3.74-0.877,5.129-2.329c6.042,6.242,17.317,6.33,17.821,6.33
			c0.012,0,0.07,0,0.082-0.001c0.322-0.011,0.619-0.177,0.798-0.444c0.17-0.255,4.173-6.335,4.173-13.555S52.003,0.702,51.833,0.446
			z M17.525,18.858c-0.214,0.129-5.3,3.143-10.519,3.143c-0.553,0-1.001-0.447-1.001-1c0-0.552,0.448-1,1.001-1
			c4.655,0,9.442-2.829,9.49-2.857c0.16-0.097,0.337-0.143,0.512-0.143c0.341,0,0.673,0.174,0.859,0.486
			C18.152,17.961,17.999,18.575,17.525,18.858z M17.868,11.515c-0.187,0.313-0.519,0.486-0.859,0.486
			c-0.175,0-0.352-0.046-0.512-0.142c-0.048-0.029-4.835-2.858-9.49-2.858c-0.553,0-1.001-0.447-1.001-1c0-0.552,0.448-1,1.001-1
			c5.219,0,10.305,3.015,10.519,3.143C17.999,10.428,18.152,11.041,17.868,11.515z M48.999,22.001
			c-5.219,0-10.305-3.014-10.519-3.143c-0.474-0.283-0.627-0.897-0.343-1.371c0.187-0.312,0.519-0.486,0.859-0.486
			c0.175,0,0.352,0.046,0.512,0.143c0.048,0.028,4.835,2.857,9.49,2.857c0.553,0,1.001,0.448,1.001,1
			C50,21.554,49.552,22.001,48.999,22.001z M48.999,9.001c-4.655,0-9.442,2.829-9.49,2.858c-0.16,0.096-0.337,0.142-0.512,0.142
			c-0.341,0-0.673-0.173-0.859-0.486c-0.284-0.474-0.131-1.087,0.343-1.371c0.214-0.128,5.3-3.143,10.519-3.143
			c0.553,0,1.001,0.448,1.001,1C50,8.554,49.552,9.001,48.999,9.001z"/>
	</g>
</g>
<g>
</g>
<g>
</g>
<g>
</g>
<g>
</g>
<g>
</g>
<g>
</g>
<g>
</g>
<g>
</g>
<g>
</g>
<g>
</g>
<g>
</g>
<g>
</g>
<g>
</g>
<g>
</g>
<g>
</g>
</svg>
