<?xml version="1.0" encoding="iso-8859-1"?>
<!-- Generator: Adobe Illustrator 16.0.4, SVG Export Plug-In . SVG Version: 6.00 Build 0)  -->
<!DOCTYPE svg PUBLIC "-//W3C//DTD SVG 1.1//EN" "http://www.w3.org/Graphics/SVG/1.1/DTD/svg11.dtd">
<svg version="1.1" id="Layer_1" xmlns="http://www.w3.org/2000/svg" xmlns:xlink="http://www.w3.org/1999/xlink" x="0px" y="0px"
	 width="48px" height="56px" viewBox="0 0 48 56" style="enable-background:new 0 0 48 56;" xml:space="preserve">
<g id="_x31_127-purse_x40_2x.png">
	<g>
		<path d="M20.023,37.771C20.139,36.775,20.975,36,22,36h4c1.025,0,1.861,0.775,1.977,1.771
			c11.666-1.323,15.329-8.383,16.501-12.349C44.292,24.691,44.129,24.16,44,23.9c-0.549-1.101-1.397-1.9-2.549-1.899
			c-0.946,0-2.098,0.541-3.451,1.899c-0.021,0.022-0.05,0.042-0.072,0.063C37.365,10.563,31.36,0,24,0S10.635,10.563,10.072,23.964
			C10.05,23.942,10.022,23.923,10,23.9c-1.354-1.359-2.505-1.899-3.451-1.899c-1.15,0-2,0.799-2.549,1.899
			c-0.129,0.26-0.292,0.791-0.478,1.521C4.694,29.388,8.357,36.447,20.023,37.771z M24,6c4.418,0,8,8.954,8,20
			c0,0.279-0.012,0.55-0.017,0.825C28.925,27.651,25.68,27.99,24,27.99c-1.679,0-4.925-0.339-7.983-1.165
			C16.012,26.55,16,26.279,16,26C16,14.954,19.582,6,24,6z M22,40h4v-2h-4V40z M45.205,28.72c-2.146,4.357-6.87,9.902-17.205,11.055
			V40c0,1.104-0.896,2-2,2h-4c-1.104,0-2-0.896-2-2v-0.226C9.665,38.622,4.941,33.077,2.795,28.72C1.552,34.938,0,45.085,0,47.972
			C0,47.972,0,56,8,56s24,0,32,0s8-8.028,8-8.028C48,45.085,46.448,34.938,45.205,28.72z"/>
	</g>
</g>
<g>
</g>
<g>
</g>
<g>
</g>
<g>
</g>
<g>
</g>
<g>
</g>
<g>
</g>
<g>
</g>
<g>
</g>
<g>
</g>
<g>
</g>
<g>
</g>
<g>
</g>
<g>
</g>
<g>
</g>
</svg>
