<?xml version="1.0" encoding="iso-8859-1"?>
<!-- Generator: Adobe Illustrator 16.0.4, SVG Export Plug-In . SVG Version: 6.00 Build 0)  -->
<!DOCTYPE svg PUBLIC "-//W3C//DTD SVG 1.1//EN" "http://www.w3.org/Graphics/SVG/1.1/DTD/svg11.dtd">
<svg version="1.1" id="Layer_1" xmlns="http://www.w3.org/2000/svg" xmlns:xlink="http://www.w3.org/1999/xlink" x="0px" y="0px"
	 width="36px" height="56px" viewBox="0 0 36 56" style="enable-background:new 0 0 36 56;" xml:space="preserve">
<g id="_x31_128-necklace-1_x40_2x.png">
	<g>
		<path d="M32.154,28.231C34.452,23.909,36,19.39,36,16C36,4.955,25.18,0,18,0S0,4.955,0,16c0,3.39,1.548,7.909,3.846,12.231
			C2.762,28.684,2,29.753,2,31c0,1.366,0.92,2.507,2.169,2.869C4.062,34.228,4,34.605,4,35c0,1.867,1.284,3.422,3.014,3.863
			C7.013,38.909,7,38.953,7,39c0,2.762,2.238,5,5,5c0.886,0,1.715-0.232,2.434-0.637l-2.328,4.189l0.009,0.005
			C12.047,47.692,12,47.839,12,48c0,0.206,0.077,0.386,0.184,0.545l-0.016,0.01l5,7l0.016-0.01C17.362,55.812,17.653,56,18,56
			s0.638-0.188,0.816-0.455l0.016,0.01l5-7l-0.016-0.01C23.923,48.386,24,48.206,24,48c0-0.161-0.047-0.308-0.114-0.442l0.009-0.005
			l-2.328-4.189C22.285,43.768,23.114,44,24,44c2.762,0,5-2.238,5-5c0-0.047-0.013-0.091-0.014-0.137C30.716,38.422,32,36.867,32,35
			c0-0.395-0.062-0.772-0.169-1.131C33.081,33.507,34,32.366,34,31C34,29.753,33.238,28.684,32.154,28.231z M29.99,28.187
			C28.833,28.603,28,29.699,28,31c-1.867,0-3.422,1.284-3.863,3.014C24.091,34.013,24.047,34,24,34
			c-2.687,0-4.861,2.124-4.979,4.783l-0.127-0.23l-0.009,0.005C18.721,38.23,18.391,38,18,38s-0.721,0.23-0.886,0.558l-0.009-0.005
			l-0.127,0.229C16.861,36.124,14.687,34,12,34c-0.047,0-0.091,0.013-0.137,0.014C11.422,32.284,9.867,31,8,31
			c0-1.301-0.833-2.397-1.99-2.813C3.649,23.88,2,19.273,2,16C2,6.06,11.777,2,18,2s16,4.06,16,14
			C34,19.273,32.351,23.88,29.99,28.187z"/>
	</g>
</g>
<g>
</g>
<g>
</g>
<g>
</g>
<g>
</g>
<g>
</g>
<g>
</g>
<g>
</g>
<g>
</g>
<g>
</g>
<g>
</g>
<g>
</g>
<g>
</g>
<g>
</g>
<g>
</g>
<g>
</g>
</svg>
