<?xml version="1.0" encoding="iso-8859-1"?>
<!-- Generator: Adobe Illustrator 16.0.4, SVG Export Plug-In . SVG Version: 6.00 Build 0)  -->
<!DOCTYPE svg PUBLIC "-//W3C//DTD SVG 1.1//EN" "http://www.w3.org/Graphics/SVG/1.1/DTD/svg11.dtd">
<svg version="1.1" id="Layer_1" xmlns="http://www.w3.org/2000/svg" xmlns:xlink="http://www.w3.org/1999/xlink" x="0px" y="0px"
	 width="48px" height="56px" viewBox="0 0 48 56" style="enable-background:new 0 0 48 56;" xml:space="preserve">
<g id="_x31_129-necklace-2_x40_2x.png">
	<g>
		<path d="M48,25c0-2.003-1.186-3.719-2.887-4.517C45.659,19.8,46,18.944,46,18c0-1.938-1.379-3.553-3.208-3.92
			C42.922,13.744,43,13.382,43,13c0-1.555-1.188-2.818-2.703-2.97c0.015-0.12,0.036-0.239,0.036-0.363c0-1.657-1.343-3-3-3
			c-0.124,0-0.242,0.021-0.363,0.036C36.819,5.188,35.555,4,34,4c-0.395,0-0.771,0.081-1.115,0.22C32.539,2.944,31.385,2,30,2
			c-0.395,0-0.771,0.081-1.115,0.22C28.539,0.944,27.385,0,26,0c-0.771,0-1.469,0.3-2,0.779C23.469,0.3,22.771,0,22,0
			c-1.385,0-2.539,0.944-2.885,2.22C18.771,2.081,18.395,2,18,2c-1.385,0-2.539,0.944-2.885,2.22C14.771,4.081,14.396,4,14,4
			c-1.572,0-2.849,1.215-2.976,2.755c-0.223-0.053-0.452-0.088-0.691-0.088c-1.656,0-3,1.343-3,3c0,0.138,0.022,0.269,0.041,0.401
			C6.018,10.356,5,11.559,5,13c0,0.382,0.078,0.744,0.208,1.08C3.379,14.447,2,16.062,2,18c0,0.944,0.341,1.8,0.887,2.483
			C1.186,21.281,0,22.997,0,25c0,2.157,1.373,3.979,3.287,4.68C2.495,30.564,2,31.72,2,33c0,2.762,2.238,5,5,5
			c0.208,0,0.406-0.036,0.607-0.061C6.618,39.009,6,40.428,6,42c0,3.314,2.687,6,6,6c1.632,0,3.106-0.655,4.188-1.712
			C16.067,46.84,16,47.412,16,48c0,4.419,3.582,8,8,8s8-3.581,8-8c0-0.588-0.067-1.16-0.188-1.712C32.894,47.345,34.368,48,36,48
			c3.313,0,6-2.686,6-6c0-1.572-0.618-2.991-1.607-4.061C40.594,37.964,40.792,38,41,38c2.762,0,5-2.238,5-5
			c0-1.28-0.495-2.436-1.287-3.32C46.627,28.979,48,27.157,48,25z M12,41c-0.553,0-1,0.448-1,1c0,0.276-0.224,0.5-0.5,0.5
			S10,42.276,10,42c0-1.104,0.895-1.999,1.999-2H12c0.276,0,0.5,0.224,0.5,0.5S12.276,41,12,41z M24,46c-1.104,0-2,0.896-2,2
			c0,0.553-0.447,1-1,1c-0.552,0-1-0.447-1-1c0-2.208,1.79-3.998,3.998-4c0,0,0.001,0,0.002,0c0.553,0,1,0.448,1,1
			C25,45.553,24.553,46,24,46z M36,41c-0.553,0-1,0.448-1,1c0,0.276-0.224,0.5-0.5,0.5S34,42.276,34,42c0-1.104,0.895-1.999,1.999-2
			H36c0.276,0,0.5,0.224,0.5,0.5S36.276,41,36,41z M38,25c0,1.28,0.495,2.437,1.287,3.32C37.373,29.022,36,30.844,36,33
			c0,1.184,0.428,2.256,1.115,3.112C36.753,36.045,36.382,36,36,36c-3.313,0-6,2.687-6,6c0,0.278,0.045,0.543,0.082,0.811
			C28.614,41.093,26.437,40,24,40s-4.614,1.093-6.082,2.811C17.955,42.543,18,42.278,18,42c0-3.313-2.687-6-6-6
			c-0.382,0-0.753,0.045-1.115,0.112C11.571,35.256,12,34.184,12,33c0-2.156-1.373-3.978-3.287-4.68C9.505,27.437,10,26.28,10,25
			c0-1.492-0.667-2.816-1.703-3.732C9.324,20.544,10,19.353,10,18c0-0.854-0.272-1.642-0.729-2.292C10.29,15.229,11,14.201,11,13
			c0-0.138-0.022-0.271-0.041-0.403c1.273-0.273,2.24-1.355,2.35-2.685C13.531,9.965,13.761,10,14,10
			c1.385,0,2.539-0.943,2.885-2.22C17.229,7.92,17.605,8,18,8c1.385,0,2.539-0.943,2.885-2.22C21.229,5.92,21.605,6,22,6
			c0.771,0,1.469-0.3,2-0.778C24.531,5.7,25.229,6,26,6c0.395,0,0.771-0.08,1.115-0.22C27.461,7.057,28.615,8,30,8
			c0.395,0,0.771-0.08,1.115-0.22C31.461,9.057,32.615,10,34,10c0.124,0,0.243-0.021,0.363-0.036
			c0.141,1.416,1.259,2.533,2.673,2.675C37.021,12.759,37,12.877,37,13c0,1.201,0.71,2.229,1.729,2.708
			C38.272,16.358,38,17.146,38,18c0,1.353,0.676,2.544,1.703,3.268C38.667,22.184,38,23.508,38,25z"/>
	</g>
</g>
<g>
</g>
<g>
</g>
<g>
</g>
<g>
</g>
<g>
</g>
<g>
</g>
<g>
</g>
<g>
</g>
<g>
</g>
<g>
</g>
<g>
</g>
<g>
</g>
<g>
</g>
<g>
</g>
<g>
</g>
</svg>
