<?xml version="1.0" encoding="iso-8859-1"?>
<!-- Generator: Adobe Illustrator 16.0.4, SVG Export Plug-In . SVG Version: 6.00 Build 0)  -->
<!DOCTYPE svg PUBLIC "-//W3C//DTD SVG 1.1//EN" "http://www.w3.org/Graphics/SVG/1.1/DTD/svg11.dtd">
<svg version="1.1" id="Layer_1" xmlns="http://www.w3.org/2000/svg" xmlns:xlink="http://www.w3.org/1999/xlink" x="0px" y="0px"
	 width="35.993px" height="56.003px" viewBox="0 0 35.993 56.003" style="enable-background:new 0 0 35.993 56.003;"
	 xml:space="preserve">
<g id="_x31_130-dress_x40_2x.png">
	<g>
		<path d="M35.985,48.879c-0.192-1.57-0.396-3.05-0.609-4.457c-2.34,3.093-7.408,7.581-17.379,7.581
			c-9.976,0-15.044-4.493-17.383-7.586c-0.211,1.409-0.414,2.89-0.606,4.462c-0.021,0.17,0.001,0.342,0.064,0.5
			c0.104,0.265,2.688,6.343,16.925,6.61v0.014h2v-0.016c14.232-0.298,16.819-6.345,16.925-6.608
			C35.985,49.221,36.007,49.049,35.985,48.879z M1.072,41.571c1.401,2.515,5.835,8.443,16.925,8.443
			c11.075,0,15.512-5.913,16.919-8.434c-2.879-16.676-6.98-20.76-7.646-21.323c-0.322-0.336-3.402-3.676-1.866-6.81
			c2.05-4.178,2.549-12.143,2.539-12.479c-0.011-0.367-0.22-0.7-0.543-0.863c-0.323-0.164-0.708-0.135-1.004,0.078l-8.462,5.589
			L9.526,0.183C9.232-0.03,8.851-0.059,8.529,0.105C8.209,0.268,8.001,0.601,7.99,0.968C7.98,1.305,8.481,9.27,10.517,13.448
			c1.526,3.134-1.533,6.474-1.853,6.81C8.004,20.821,3.932,24.903,1.072,41.571z"/>
	</g>
</g>
<g>
</g>
<g>
</g>
<g>
</g>
<g>
</g>
<g>
</g>
<g>
</g>
<g>
</g>
<g>
</g>
<g>
</g>
<g>
</g>
<g>
</g>
<g>
</g>
<g>
</g>
<g>
</g>
<g>
</g>
</svg>
