<?xml version="1.0" encoding="iso-8859-1"?>
<!-- Generator: Adobe Illustrator 16.0.4, SVG Export Plug-In . SVG Version: 6.00 Build 0)  -->
<!DOCTYPE svg PUBLIC "-//W3C//DTD SVG 1.1//EN" "http://www.w3.org/Graphics/SVG/1.1/DTD/svg11.dtd">
<svg version="1.1" id="Layer_1" xmlns="http://www.w3.org/2000/svg" xmlns:xlink="http://www.w3.org/1999/xlink" x="0px" y="0px"
	 width="52px" height="56px" viewBox="0 0 52 56" style="enable-background:new 0 0 52 56;" xml:space="preserve">
<g id="_x31_131-skirt-1_x40_2x.png">
	<g>
		<path d="M5.238,10.591L0,49c0,1.657,2.687,3,6,3c1.5,0,2.852-0.287,3.902-0.742l2.739-38.163
			C9.326,12.526,6.849,11.691,5.238,10.591z M26.018,8.006c0.005,0,0.01-0.003,0.015-0.003c13.51,0,18.256-1.958,19.923-3.323
			C45.497,1.185,37.643,0,26,0C14.375,0,6.528,1.181,6.046,4.663c1.669,1.37,6.417,3.333,19.921,3.333
			C25.985,7.996,26,8.006,26.018,8.006z M25.967,11.996c0.018,0,0.033,0.01,0.05,0.01c0.005,0,0.01-0.003,0.015-0.003
			c15.148,0,19.28-2.462,20.405-3.79L46.26,6.907c-3.483,2.052-10.248,3.094-20.228,3.094c-0.012,0-0.021-0.006-0.032-0.006
			c-0.012,0-0.021,0.006-0.033,0.006c-9.979,0-16.743-1.045-20.226-3.104L5.564,8.195C6.693,9.529,10.829,11.996,25.967,11.996z
			 M26,13.995c-0.012,0-0.021,0.006-0.033,0.006c-1.386,0-2.705-0.021-3.967-0.062v41.282C23.057,55.703,24.454,56,26,56
			s2.943-0.297,4-0.778V13.94c-1.262,0.04-2.582,0.061-3.967,0.061C26.021,14.001,26.011,13.995,26,13.995z M11.775,53.11
			C12.854,53.656,14.339,54,16,54c1.548,0,2.942-0.3,4-0.782V13.855c-1.959-0.102-3.751-0.257-5.375-0.465L11.775,53.11z
			 M46.764,10.602c-1.621,1.104-4.118,1.94-7.466,2.508l2.737,38.135C43.092,51.713,44.476,52,46,52c3.314,0,6-1.343,6-3
			L46.764,10.602z M32,13.856v39.361C33.058,53.701,34.452,54,36,54c1.629,0,3.091-0.329,4.165-0.856L37.313,13.4
			C35.706,13.604,33.935,13.756,32,13.856z"/>
	</g>
</g>
<g>
</g>
<g>
</g>
<g>
</g>
<g>
</g>
<g>
</g>
<g>
</g>
<g>
</g>
<g>
</g>
<g>
</g>
<g>
</g>
<g>
</g>
<g>
</g>
<g>
</g>
<g>
</g>
<g>
</g>
</svg>
