<?xml version="1.0" encoding="iso-8859-1"?>
<!-- Generator: Adobe Illustrator 16.0.4, SVG Export Plug-In . SVG Version: 6.00 Build 0)  -->
<!DOCTYPE svg PUBLIC "-//W3C//DTD SVG 1.1//EN" "http://www.w3.org/Graphics/SVG/1.1/DTD/svg11.dtd">
<svg version="1.1" id="Layer_1" xmlns="http://www.w3.org/2000/svg" xmlns:xlink="http://www.w3.org/1999/xlink" x="0px" y="0px"
	 width="56.004px" height="52px" viewBox="0 0 56.004 52" style="enable-background:new 0 0 56.004 52;" xml:space="preserve">
<g id="_x31_132-skirt-2_x40_2x.png">
	<g>
		<path d="M46.003,5.73V3c0-1.656-1.343-3-3-3c-4,0-9,1.974-15.035,1.974C22.003,1.974,17.003,0,13.003,0c-1.657,0-3,1.344-3,3
			v2.744c2.383,0.49,11.319,2.23,17.965,2.23C34.678,7.975,43.717,6.202,46.003,5.73z M45.003,14c1.087,0,2.104-0.269,3.021-0.711
			c-0.699-2.225-1.317-4.143-1.781-5.559c-1.332,0.275-4.349,0.866-7.891,1.374C39.248,11.938,41.874,14,45.003,14z M17.651,9.114
			c-3.502-0.5-6.499-1.084-7.876-1.366c-0.436,1.421-1.038,3.345-1.73,5.575C8.947,13.746,9.942,14,11.003,14
			C14.129,14,16.753,11.942,17.651,9.114z M48.632,15.232C47.521,15.723,46.295,16,45.003,16c-4.144,0-7.592-2.816-8.637-6.628
			c-2.784,0.349-5.745,0.61-8.398,0.61c-2.632,0-5.566-0.258-8.33-0.603C18.591,13.188,15.144,16,11.003,16
			c-1.265,0-2.467-0.263-3.559-0.733C4.34,25.34-0.003,39.976,0,45c0.003,6,24.003,7,28.003,7s28.001-1,28.001-7
			C56.004,39.971,51.761,25.307,48.632,15.232z M15.028,20.301l-3.971,20.926c-0.103,0.465-0.515,0.781-0.971,0.781
			c-0.072,0-0.144-0.008-0.217-0.023c-0.536-0.12-0.875-0.652-0.756-1.19l3.971-20.926c0.12-0.539,0.653-0.874,1.188-0.757
			C14.809,19.23,15.147,19.763,15.028,20.301z M20.032,43.107c-0.053,0.514-0.486,0.895-0.989,0.895
			c-0.034,0-0.069-0.002-0.103-0.005c-0.547-0.057-0.944-0.547-0.888-1.094l2.985-26.922c0.058-0.547,0.55-0.955,1.092-0.889
			c0.547,0.056,0.945,0.546,0.889,1.094L20.032,43.107z M28.994,44.999c0,0.552-0.445,0.998-0.995,0.998s-0.995-0.446-0.995-0.998
			V16.084c0-0.551,0.445-0.997,0.995-0.997s0.995,0.446,0.995,0.997V44.999z M37.057,43.997c-0.034,0.003-0.069,0.005-0.103,0.005
			c-0.503,0-0.936-0.381-0.989-0.895l-2.985-26.921c-0.057-0.548,0.341-1.038,0.888-1.094c0.536-0.064,1.035,0.342,1.092,0.889
			l2.985,26.922C38.002,43.45,37.604,43.94,37.057,43.997z M46.135,40.985c-0.075,0.018-0.151,0.025-0.225,0.025
			c-0.453,0-0.862-0.312-0.969-0.773l-4.971-19.929c-0.124-0.537,0.211-1.072,0.747-1.196c0.535-0.121,1.069,0.211,1.193,0.747
			l4.971,19.93C47.005,40.326,46.67,40.861,46.135,40.985z"/>
	</g>
</g>
<g>
</g>
<g>
</g>
<g>
</g>
<g>
</g>
<g>
</g>
<g>
</g>
<g>
</g>
<g>
</g>
<g>
</g>
<g>
</g>
<g>
</g>
<g>
</g>
<g>
</g>
<g>
</g>
<g>
</g>
</svg>
