<?xml version="1.0" encoding="iso-8859-1"?>
<!-- Generator: Adobe Illustrator 16.0.4, SVG Export Plug-In . SVG Version: 6.00 Build 0)  -->
<!DOCTYPE svg PUBLIC "-//W3C//DTD SVG 1.1//EN" "http://www.w3.org/Graphics/SVG/1.1/DTD/svg11.dtd">
<svg version="1.1" id="Layer_1" xmlns="http://www.w3.org/2000/svg" xmlns:xlink="http://www.w3.org/1999/xlink" x="0px" y="0px"
	 width="56px" height="44px" viewBox="0 0 56 44" style="enable-background:new 0 0 56 44;" xml:space="preserve">
<g id="_x31_133-tophat_x40_2x.png">
	<g>
		<path d="M8.006,4.106l2.189,20.431l-0.015,0.006c1.925,1.81,6.638,4.469,17.804,4.471c11.197-0.002,15.907-2.677,17.822-4.487
			l2.188-20.42l-0.021-0.002C47.978,4.069,48,4.035,48,4c0-2.209-8.954-4-20-4S8,1.791,8,4c0,0.035,0.017,0.07,0.022,0.105
			L8.006,4.106z M12.989,31.894h0.005l-0.374-3.492c-0.002-0.001-0.004-0.002-0.007-0.003L12.989,31.894z M43.387,28.385L43,32
			l0.391-3.617C43.389,28.384,43.388,28.384,43.387,28.385z M45.806,24.529L45.648,26l-0.124,1.16l-0.009,0.082l-0.521,4.864L43,32
			l1.982,0.106C44.788,34.818,37.267,37,28,37s-16.788-2.182-16.982-4.894h-0.012l-0.519-4.844
			c-0.011-0.007-0.023-0.014-0.034-0.021l-0.289-2.694C3.973,26.564,0,29.594,0,33c0,6.075,12.536,11,28,11s28-4.925,28-11
			C56,29.586,52.021,26.546,45.806,24.529z"/>
	</g>
</g>
<g>
</g>
<g>
</g>
<g>
</g>
<g>
</g>
<g>
</g>
<g>
</g>
<g>
</g>
<g>
</g>
<g>
</g>
<g>
</g>
<g>
</g>
<g>
</g>
<g>
</g>
<g>
</g>
<g>
</g>
</svg>
