<?xml version="1.0" encoding="iso-8859-1"?>
<!-- Generator: Adobe Illustrator 16.0.4, SVG Export Plug-In . SVG Version: 6.00 Build 0)  -->
<!DOCTYPE svg PUBLIC "-//W3C//DTD SVG 1.1//EN" "http://www.w3.org/Graphics/SVG/1.1/DTD/svg11.dtd">
<svg version="1.1" id="Layer_1" xmlns="http://www.w3.org/2000/svg" xmlns:xlink="http://www.w3.org/1999/xlink" x="0px" y="0px"
	 width="47.984px" height="55.999px" viewBox="0 0 47.984 55.999" style="enable-background:new 0 0 47.984 55.999;"
	 xml:space="preserve">
<g id="_x31_134-scarf_x40_2x.png">
	<g>
		<path d="M22.171,11.565c3.519-3.193,4.414-5.457,4.549-6.443c0.005-0.034,0.01-0.068,0.017-0.102
			c0.178-0.947-0.696-3.246-1.396-4.542c-0.014-0.025-0.015-0.055-0.027-0.081C24.024,0.147,22.572,0,20.915,0
			c-0.059,0-0.118,0-0.177,0.001c-0.029,0-0.056,0.006-0.085,0.006c-2.85,4.998-3.66,9.241-3.881,11.402
			C18.262,11.153,20.228,11.037,22.171,11.565z M12.714,18.809c0.474-0.422,1.293-1.115,2.292-1.867
			c-0.376-1.646-0.436-3.365-0.302-5.029c0.004-0.001,0.011-0.003,0.016-0.005c0.127-1.966,0.744-6.36,3.552-11.721
			C13.115,0.913,9.117,3.844,6.876,8.631c-2.696,5.76-2.271,12.801-0.201,17.331C7.685,24.43,9.802,21.473,12.714,18.809z
			 M1.153,44.274C0.794,45.93,0.646,47.02,0.617,47.25C0.101,50.148,0.004,53.601,0,53.746c-0.016,0.569,0.438,1.043,1.012,1.058
			c0.01,0.001,0.019,0.001,0.028,0.001c0.562,0,1.025-0.444,1.04-1.004c0.001-0.031,0.083-2.853,0.466-5.433
			c0.389-0.027,0.902-0.057,1.524-0.077c-0.372,2.625-0.449,5.326-0.452,5.455c-0.015,0.569,0.438,1.043,1.012,1.058
			c0.009,0.001,0.019,0.001,0.028,0.001c0.562,0,1.024-0.444,1.039-1.004c0.001-0.031,0.087-2.926,0.482-5.528
			c0.479,0.006,0.981,0.021,1.504,0.046c-0.369,2.616-0.444,5.3-0.447,5.428c-0.016,0.569,0.438,1.043,1.012,1.058
			c0.009,0.001,0.019,0.001,0.028,0.001c0.562,0,1.025-0.444,1.04-1.004c0.001-0.031,0.081-2.778,0.45-5.326
			c0.608,0.062,1.225,0.136,1.846,0.235c-0.382,2.675-0.357,5.352-0.355,5.476c0.008,0.564,0.472,1.017,1.04,1.017
			c0.004,0,0.009,0,0.014,0c0.574-0.008,1.034-0.475,1.026-1.044c0-0.028-0.026-2.548,0.316-5.034
			c0.698,0.17,1.381,0.371,2.043,0.608c-0.343,2.545-0.416,5.084-0.419,5.209c-0.016,0.569,0.438,1.042,1.012,1.058
			c0.01,0,0.019,0,0.028,0c0.562,0,1.025-0.443,1.04-1.004c0.001-0.028,0.072-2.485,0.392-4.908l0.158-0.817
			c0.007-0.038,0.239-1.183,0.751-2.995C12.571,43.73,8.255,42.756,1.153,44.274z M47.813,41.512
			c-0.07-0.105-1.604-2.398-3.66-4.421l-0.605-0.617c-0.09-0.092-0.756-0.75-2.094-1.773c-4.864,2.363-8.917,5.086-12.442,10.457
			c1.25,0.93,2.117,1.628,2.487,1.936c1.867,2.04,3.728,4.751,3.747,4.779c0.201,0.294,0.529,0.453,0.863,0.453
			c0.201,0,0.403-0.058,0.582-0.178c0.476-0.319,0.601-0.96,0.278-1.431c-0.071-0.104-1.549-2.26-3.249-4.243
			c0.222-0.29,0.52-0.663,0.92-1.125c1.844,1.844,3.253,3.95,3.269,3.974c0.199,0.302,0.532,0.466,0.871,0.466
			c0.195,0,0.394-0.056,0.569-0.17c0.48-0.312,0.615-0.95,0.3-1.426c-0.069-0.104-1.573-2.354-3.599-4.361
			c0.331-0.335,0.682-0.681,1.075-1.046c1.899,1.869,3.367,4.061,3.382,4.084c0.2,0.302,0.532,0.466,0.871,0.466
			c0.196,0,0.394-0.055,0.569-0.169c0.48-0.312,0.615-0.95,0.3-1.427c-0.068-0.103-1.552-2.323-3.557-4.321
			c0.372-0.309,0.742-0.617,1.154-0.934c1.854,1.85,3.276,3.972,3.291,3.995c0.2,0.302,0.532,0.466,0.871,0.466
			c0.196,0,0.394-0.055,0.569-0.169c0.48-0.312,0.615-0.951,0.3-1.427c-0.065-0.1-1.44-2.166-3.333-4.103
			c0.356-0.244,0.723-0.488,1.104-0.732c1.92,1.879,3.41,4.103,3.425,4.127c0.2,0.301,0.533,0.466,0.872,0.466
			c0.195,0,0.394-0.055,0.569-0.17C47.994,42.626,48.128,41.987,47.813,41.512z M39.588,33.359
			c-2.194-1.492-5.364-3.381-9.716-5.371c-3.282,4.208-5.581,8.937-7.116,12.911c1.788,1.114,3.349,2.169,4.646,3.087
			C30.932,38.668,35.044,35.678,39.588,33.359z M33.939,6.439c-1.779-4.026-6.295-5.427-6.295-5.427s1.341,2.399,0.925,4.568
			c-0.314,2.262-2.259,6.438-10.768,11.942c-1.457,0.941-2.797,2.005-3.779,2.864c-3.833,3.447-6.271,7.499-6.273,7.491
			c-3.264,5.112-5.092,10.457-6.08,14.245c7.021-1.336,11.564-0.259,17.564,2.229c1.526-4.802,4.517-12.267,9.731-18.442
			C34.495,19.36,36.448,11.718,33.939,6.439z"/>
	</g>
</g>
<g>
</g>
<g>
</g>
<g>
</g>
<g>
</g>
<g>
</g>
<g>
</g>
<g>
</g>
<g>
</g>
<g>
</g>
<g>
</g>
<g>
</g>
<g>
</g>
<g>
</g>
<g>
</g>
<g>
</g>
</svg>
