<?xml version="1.0" encoding="iso-8859-1"?>
<!-- Generator: Adobe Illustrator 16.0.4, SVG Export Plug-In . SVG Version: 6.00 Build 0)  -->
<!DOCTYPE svg PUBLIC "-//W3C//DTD SVG 1.1//EN" "http://www.w3.org/Graphics/SVG/1.1/DTD/svg11.dtd">
<svg version="1.1" id="Layer_1" xmlns="http://www.w3.org/2000/svg" xmlns:xlink="http://www.w3.org/1999/xlink" x="0px" y="0px"
	 width="48px" height="56px" viewBox="0 0 48 56" style="enable-background:new 0 0 48 56;" xml:space="preserve">
<g id="_x31_135-sweater_x40_2x.png">
	<g>
		<path d="M0,48c0,1.104,0.896,2,2,2h6v-4H0V48z M35.829,2.042C35.428,0.857,34.319,0,33,0H15c-1.319,0-2.427,0.857-2.829,2.042
			C1.233,2.475,0,11.189,0,15v29h8V15c0-0.553,0.448-1,1-1s1,0.447,1,1v39c0,1.104,0.896,2,2,2h24c1.104,0,2-0.896,2-2V15
			c0-0.553,0.448-1,1-1s1,0.447,1,1v29h8V15C48,11.189,46.767,2.475,35.829,2.042z M17.888,36.555l-1.333,3l-0.01-0.01
			C16.425,39.812,16.231,40,16,40c-0.231,0-0.425-0.188-0.544-0.455l-0.01,0.01l-1.333-3l0.01-0.01C14.051,36.386,14,36.206,14,36
			c0-0.205,0.051-0.386,0.122-0.544l-0.01-0.011l1.333-3l0.01,0.011C15.575,32.188,15.769,32,16,32c0.231,0,0.425,0.188,0.544,0.456
			l0.01-0.011l1.333,3l-0.01,0.011C17.949,35.614,18,35.795,18,36c0,0.206-0.051,0.386-0.122,0.545L17.888,36.555z M17.878,26.545
			l0.01,0.01l-1.333,3l-0.01-0.01C16.425,29.812,16.231,30,16,30c-0.231,0-0.425-0.188-0.544-0.455l-0.01,0.01l-1.333-3l0.01-0.01
			C14.051,26.386,14,26.206,14,26c0-0.205,0.051-0.386,0.122-0.544l-0.01-0.011l1.333-3l0.01,0.011C15.575,22.188,15.769,22,16,22
			c0.231,0,0.425,0.188,0.544,0.456l0.01-0.011l1.333,3l-0.01,0.011C17.949,25.614,18,25.795,18,26
			C18,26.206,17.949,26.386,17.878,26.545z M25.888,34.555l-1.333,3l-0.01-0.01C24.425,37.812,24.231,38,24,38
			c-0.231,0-0.425-0.188-0.544-0.455l-0.01,0.01l-1.333-3l0.01-0.01C22.051,34.386,22,34.206,22,34c0-0.205,0.051-0.386,0.122-0.544
			l-0.01-0.011l1.333-3l0.01,0.011C23.575,30.188,23.769,30,24,30c0.231,0,0.425,0.188,0.544,0.456l0.01-0.011l1.333,3l-0.01,0.011
			C25.949,33.614,26,33.795,26,34c0,0.206-0.051,0.386-0.122,0.545L25.888,34.555z M25.878,24.545l0.01,0.01l-1.333,3l-0.01-0.01
			C24.425,27.812,24.231,28,24,28c-0.231,0-0.425-0.188-0.544-0.455l-0.01,0.01l-1.333-3l0.01-0.01C22.051,24.386,22,24.206,22,24
			c0-0.205,0.051-0.386,0.122-0.544l-0.01-0.011l1.333-3l0.01,0.011C23.575,20.188,23.769,20,24,20c0.231,0,0.425,0.188,0.544,0.456
			l0.01-0.011l1.333,3l-0.01,0.011C25.949,23.614,26,23.795,26,24C26,24.206,25.949,24.386,25.878,24.545z M33.888,32.555l-1.333,3
			l-0.01-0.01C32.425,35.812,32.231,36,32,36c-0.231,0-0.425-0.188-0.544-0.455l-0.01,0.01l-1.333-3l0.01-0.01
			C30.051,32.386,30,32.206,30,32c0-0.205,0.051-0.386,0.122-0.545l-0.01-0.01l1.333-3l0.01,0.011C31.575,28.188,31.769,28,32,28
			c0.231,0,0.425,0.188,0.544,0.456l0.01-0.011l1.333,3l-0.01,0.01C33.949,31.614,34,31.795,34,32c0,0.206-0.051,0.386-0.122,0.545
			L33.888,32.555z M33.878,22.545l0.01,0.01l-1.333,3l-0.01-0.01C32.425,25.812,32.231,26,32,26c-0.231,0-0.425-0.188-0.544-0.455
			l-0.01,0.01l-1.333-3l0.01-0.01C30.051,22.386,30,22.206,30,22c0-0.205,0.051-0.386,0.122-0.544l-0.01-0.011l1.333-3l0.01,0.011
			C31.575,18.188,31.769,18,32,18c0.231,0,0.425,0.188,0.544,0.456l0.01-0.011l1.333,3l-0.01,0.011C33.949,21.614,34,21.795,34,22
			C34,22.206,33.949,22.386,33.878,22.545z M24,8c-5.523,0-10-2.238-10-5c0-0.552,0.448-1,1-1h18c0.552,0,1,0.448,1,1
			C34,5.762,29.523,8,24,8z M40,50h6c1.104,0,2-0.896,2-2v-2h-8V50z"/>
	</g>
</g>
<g>
</g>
<g>
</g>
<g>
</g>
<g>
</g>
<g>
</g>
<g>
</g>
<g>
</g>
<g>
</g>
<g>
</g>
<g>
</g>
<g>
</g>
<g>
</g>
<g>
</g>
<g>
</g>
<g>
</g>
</svg>
