<?xml version="1.0" encoding="iso-8859-1"?>
<!-- Generator: Adobe Illustrator 16.0.4, SVG Export Plug-In . SVG Version: 6.00 Build 0)  -->
<!DOCTYPE svg PUBLIC "-//W3C//DTD SVG 1.1//EN" "http://www.w3.org/Graphics/SVG/1.1/DTD/svg11.dtd">
<svg version="1.1" id="Layer_1" xmlns="http://www.w3.org/2000/svg" xmlns:xlink="http://www.w3.org/1999/xlink" x="0px" y="0px"
	 width="55.988px" height="55.988px" viewBox="0 0 55.988 55.988" style="enable-background:new 0 0 55.988 55.988;"
	 xml:space="preserve">
<g id="_x31_136-gloves_x40_2x.png">
	<g>
		<path d="M32.917,11.868c6.731,3.893,9.046,12.545,5.16,19.287l-1.797,3.119l15.698-9.084V9.015h-0.039
			c0.001-0.849-0.193-1.708-0.646-2.496c-1.376-2.389-4.424-3.207-6.808-1.828c-1.46,0.845-2.323,2.319-2.464,3.883L40.58,6.07
			c-3.344-5.805-10.75-7.794-16.542-4.442c-3.965,2.295-6.144,6.498-6.052,10.783c2.299-1.553,5.035-2.438,7.892-2.438
			C28.34,9.974,30.774,10.629,32.917,11.868z M25.262,49.458l11.091-19.244c3.342-5.797,1.358-13.21-4.429-16.557
			c-5.787-3.348-13.187-1.361-16.528,4.437l-1.44,2.498c-0.141-1.561-1.003-3.033-2.462-3.876c-2.381-1.378-5.427-0.561-6.802,1.825
			c-0.453,0.787-0.646,1.645-0.646,2.492H4.007v16.152l21.462,12.422C25.401,49.556,25.337,49.502,25.262,49.458z M55.446,27.835
			l-1.009-1.752c-0.001-0.002-0.002-0.002-0.003-0.004L34.282,37.741l-2.832,4.913c1.245,1.413,3.349,1.801,5.04,0.822
			l17.479-10.115C55.899,32.244,56.562,29.77,55.446,27.835z M1.55,38.077l-1.009,1.749c-1.113,1.933-0.452,4.403,1.477,5.52
			l17.465,10.101c1.929,1.115,4.396,0.453,5.509-1.479l1.005-1.743L1.551,38.075C1.551,38.076,1.55,38.076,1.55,38.077z"/>
	</g>
</g>
<g>
</g>
<g>
</g>
<g>
</g>
<g>
</g>
<g>
</g>
<g>
</g>
<g>
</g>
<g>
</g>
<g>
</g>
<g>
</g>
<g>
</g>
<g>
</g>
<g>
</g>
<g>
</g>
<g>
</g>
</svg>
