<?xml version="1.0" encoding="iso-8859-1"?>
<!-- Generator: Adobe Illustrator 16.0.4, SVG Export Plug-In . SVG Version: 6.00 Build 0)  -->
<!DOCTYPE svg PUBLIC "-//W3C//DTD SVG 1.1//EN" "http://www.w3.org/Graphics/SVG/1.1/DTD/svg11.dtd">
<svg version="1.1" id="Layer_1" xmlns="http://www.w3.org/2000/svg" xmlns:xlink="http://www.w3.org/1999/xlink" x="0px" y="0px"
	 width="48px" height="56px" viewBox="0 0 48 56" style="enable-background:new 0 0 48 56;" xml:space="preserve">
<g id="_x31_137-tshirt_x40_2x.png">
	<g>
		<path d="M35,0h-1.999H33c-0.327,0-0.604,0.168-0.786,0.41L32.2,0.4L24,11.334L15.8,0.4l-0.014,0.01C15.604,0.168,15.327,0,15,0
			h-0.001H13C1.267,0,0,9.092,0,13v12v1c0,1.104,0.896,2,2,2h1h5V15c0-0.553,0.447-1,1-1s1,0.447,1,1v38v1c0,1.104,0.896,2,2,2h24
			c1.104,0,2-0.896,2-2v-1V27V15c0-0.553,0.447-1,1-1s1,0.447,1,1v12v1h5h1c1.104,0,2-0.896,2-2v-1V13C48,9.092,46.733,0,35,0z"/>
	</g>
</g>
<g>
</g>
<g>
</g>
<g>
</g>
<g>
</g>
<g>
</g>
<g>
</g>
<g>
</g>
<g>
</g>
<g>
</g>
<g>
</g>
<g>
</g>
<g>
</g>
<g>
</g>
<g>
</g>
<g>
</g>
</svg>
