<?xml version="1.0" encoding="iso-8859-1"?>
<!-- Generator: Adobe Illustrator 16.0.4, SVG Export Plug-In . SVG Version: 6.00 Build 0)  -->
<!DOCTYPE svg PUBLIC "-//W3C//DTD SVG 1.1//EN" "http://www.w3.org/Graphics/SVG/1.1/DTD/svg11.dtd">
<svg version="1.1" id="Layer_1" xmlns="http://www.w3.org/2000/svg" xmlns:xlink="http://www.w3.org/1999/xlink" x="0px" y="0px"
	 width="36px" height="56px" viewBox="0 0 36 56" style="enable-background:new 0 0 36 56;" xml:space="preserve">
<g id="_x31_139-sock_x40_2x.png">
	<g>
		<path d="M20,8H0v2h20V8z M20,3V2c0-1.104-0.896-2-2-2h-1H3H2C0.896,0,0,0.896,0,2v1v3h20V3z M2,34c-0.691,0-1.359,0.098-2,0.263
			V36c0,3.576,1.883,6.704,4.705,8.472L4.7,44.48l3.696,2.31C9.398,45.454,10,43.799,10,42C10,37.582,6.418,34,2,34z M31.295,37.528
			l0.005-0.008L20,30.458V12H0v20.201C0.646,32.07,1.315,32,2,32c5.522,0,10,4.478,10,10c0,2.188-0.711,4.206-1.903,5.853
			L20.7,54.48l0.005-0.008C22.242,55.435,24.053,56,26,56c5.522,0,10-4.478,10-10C36,42.424,34.117,39.296,31.295,37.528z"/>
	</g>
</g>
<g>
</g>
<g>
</g>
<g>
</g>
<g>
</g>
<g>
</g>
<g>
</g>
<g>
</g>
<g>
</g>
<g>
</g>
<g>
</g>
<g>
</g>
<g>
</g>
<g>
</g>
<g>
</g>
<g>
</g>
</svg>
