<?xml version="1.0" encoding="iso-8859-1"?>
<!-- Generator: Adobe Illustrator 16.0.4, SVG Export Plug-In . SVG Version: 6.00 Build 0)  -->
<!DOCTYPE svg PUBLIC "-//W3C//DTD SVG 1.1//EN" "http://www.w3.org/Graphics/SVG/1.1/DTD/svg11.dtd">
<svg version="1.1" id="Layer_1" xmlns="http://www.w3.org/2000/svg" xmlns:xlink="http://www.w3.org/1999/xlink" x="0px" y="0px"
	 width="56px" height="28px" viewBox="0 0 56 28" style="enable-background:new 0 0 56 28;" xml:space="preserve">
<g id="_x31_140-underwear_x40_2x.png">
	<g>
		<path d="M54.895,0.553C54.725,0.214,54.379,0,54,0H2C1.621,0,1.275,0.214,1.105,0.553C1.061,0.644,0,2.789,0,4.984
			c0,2.192,1.058,4.366,1.104,4.457C1.271,9.783,1.619,10,2,10c11.822,0,18.285,10.019,20.052,15.316
			c0.015,0.045,0.032,0.089,0.054,0.131C22.236,25.709,23.512,28,28,28s5.764-2.291,5.895-2.553
			c0.021-0.042,0.039-0.086,0.054-0.131C35.715,20.019,42.178,10,54,10c0.379,0,0.725-0.214,0.895-0.553C54.939,9.356,56,7.211,56,5
			S54.939,0.644,54.895,0.553z"/>
	</g>
</g>
<g>
</g>
<g>
</g>
<g>
</g>
<g>
</g>
<g>
</g>
<g>
</g>
<g>
</g>
<g>
</g>
<g>
</g>
<g>
</g>
<g>
</g>
<g>
</g>
<g>
</g>
<g>
</g>
<g>
</g>
</svg>
