<?xml version="1.0" encoding="iso-8859-1"?>
<!-- Generator: Adobe Illustrator 16.0.4, SVG Export Plug-In . SVG Version: 6.00 Build 0)  -->
<!DOCTYPE svg PUBLIC "-//W3C//DTD SVG 1.1//EN" "http://www.w3.org/Graphics/SVG/1.1/DTD/svg11.dtd">
<svg version="1.1" id="Layer_1" xmlns="http://www.w3.org/2000/svg" xmlns:xlink="http://www.w3.org/1999/xlink" x="0px" y="0px"
	 width="56px" height="40px" viewBox="0 0 56 40" style="enable-background:new 0 0 56 40;" xml:space="preserve">
<g id="_x31_141-basketball-court_x40_2x.png">
	<g>
		<path d="M24,20c0,1.861,1.278,3.412,3,3.858v-7.717C25.278,16.588,24,18.139,24,20z M2,32c4.439,0,8.306-2.416,10.381-6H0v6
			C0.331,32.027,1.663,32,2,32z M2,8C1.663,8,0.331,7.973,0,8v6h12.381C10.306,10.417,6.439,8,2,8z M32,20
			c0-1.861-1.278-3.412-3-3.858v7.717C30.722,23.412,32,21.861,32,20z M14,20c0-1.404-0.254-2.747-0.697-4H0v8h13.303
			C13.746,22.747,14,21.405,14,20z M0,2v4c0.332-0.023,1.663,0,2,0c7.732,0,14,6.269,14,14c0,7.732-6.268,14-14,14
			c-0.337,0-1.668,0.023-2,0v4c0,1.104,0.896,2,2,2h25V25.899c-2.835-0.479-5-2.928-5-5.899c0-2.971,2.165-5.421,5-5.899V0H2
			C0.896,0,0,0.896,0,2z M54,8c-4.439,0-8.306,2.417-10.381,6H56V8C55.669,7.973,54.337,8,54,8z M54,0H29v14.101
			c2.835,0.479,5,2.929,5,5.899c0,2.972-2.165,5.421-5,5.899V40h25c1.104,0,2-0.896,2-2v-4c-0.332,0.023-1.663,0-2,0
			c-7.732,0-14-6.268-14-14c0-7.731,6.268-14,14-14c0.337,0,1.668-0.023,2,0V2C56,0.896,55.104,0,54,0z M54,32
			c0.337,0,1.669,0.027,2,0v-6H43.619C45.694,29.584,49.561,32,54,32z M42,20c0,1.405,0.254,2.747,0.697,4H56v-8H42.697
			C42.254,17.253,42,18.596,42,20z"/>
	</g>
</g>
<g>
</g>
<g>
</g>
<g>
</g>
<g>
</g>
<g>
</g>
<g>
</g>
<g>
</g>
<g>
</g>
<g>
</g>
<g>
</g>
<g>
</g>
<g>
</g>
<g>
</g>
<g>
</g>
<g>
</g>
</svg>
