<?xml version="1.0" encoding="iso-8859-1"?>
<!-- Generator: Adobe Illustrator 16.0.4, SVG Export Plug-In . SVG Version: 6.00 Build 0)  -->
<!DOCTYPE svg PUBLIC "-//W3C//DTD SVG 1.1//EN" "http://www.w3.org/Graphics/SVG/1.1/DTD/svg11.dtd">
<svg version="1.1" id="Layer_1" xmlns="http://www.w3.org/2000/svg" xmlns:xlink="http://www.w3.org/1999/xlink" x="0px" y="0px"
	 width="56.019px" height="56px" viewBox="0 0 56.019 56" style="enable-background:new 0 0 56.019 56;" xml:space="preserve">
<g id="_x31_142-basketball-net_x40_2x.png">
	<g>
		<path d="M40.01,16h-24v16h0.887c0.039-0.004,0.076-0.001,0.113,0c0.007,0,0.014,0,0.021,0h21.958c0.007,0,0.014,0,0.021,0
			c0.038-0.001,0.075-0.004,0.113,0h0.887V16z M28.01,0c-15.464,0-28,7.611-28,17v19.855c-0.058,0.415,0.137,0.837,0.531,1.034
			c0.341,0.171,7.115,3.49,18.917,4.688C18.913,40.44,17.936,37.24,16.376,34H16.01h-3c-0.552,0-1-0.447-1-1c0-0.552,0.448-1,1-1h1
			V16c0-1.104,0.896-2,2-2h24c1.104,0,2,0.896,2,2v16h1c0.552,0,1,0.448,1,1c0,0.553-0.448,1-1,1h-3h-0.367
			c-1.559,3.24-2.537,6.439-3.082,8.577c11.801-1.198,18.573-4.517,18.915-4.688c0.392-0.196,0.588-0.614,0.534-1.026V17
			C56.009,7.611,43.474,0,28.01,0z M23.01,39.914l-1.715,1.716c0.109,0.412,0.203,0.788,0.285,1.134
			c1.428,0.107,2.932,0.175,4.489,0.209L23.01,39.914z M34.725,41.63l-1.715-1.716l-3.059,3.059
			c1.558-0.034,3.061-0.102,4.489-0.209C34.523,42.418,34.616,42.042,34.725,41.63z M19.924,34l3.086,3.086L26.096,34H19.924z
			 M24.424,38.5l3.586,3.586l3.586-3.586l-3.586-3.586L24.424,38.5z M35.36,39.437c0.279-0.894,0.608-1.856,0.993-2.865L34.424,38.5
			L35.36,39.437z M29.924,34l3.086,3.086L36.096,34H29.924z M20.66,39.437l0.936-0.937l-1.929-1.928
			C20.051,37.58,20.38,38.543,20.66,39.437z M34.005,44.823c-0.005,0.03,0.005,0.058,0.003,0.087l-0.294,1.472l-0.704,0.704
			L29.424,43.5l0.527-0.527c-0.643,0.015-1.278,0.035-1.943,0.035c-0.664,0-1.297-0.021-1.94-0.035l0.527,0.527l-3.586,3.586
			l-0.704-0.704l-0.294-1.472c-0.002-0.029,0.008-0.057,0.003-0.087c-0.015-0.086-0.147-0.853-0.436-2.06
			c-0.723-0.055-1.432-0.116-2.121-0.187c0.396,1.554,0.57,2.552,0.574,2.575c0.002,0.015,0.011,0.026,0.014,0.04l-0.018,0.004l2,10
			l0.02-0.004C22.141,55.649,22.526,56,23.01,56h10c0.484,0,0.869-0.351,0.961-0.808l0.019,0.004l2-10l-0.018-0.004
			c0.003-0.014,0.012-0.025,0.015-0.04c0.004-0.023,0.178-1.021,0.574-2.575c-0.689,0.07-1.398,0.132-2.121,0.187
			C34.152,43.971,34.02,44.737,34.005,44.823z M26.096,54H23.83l-0.816-4.082l3.583,3.582L26.096,54z M24.424,48.5l3.586-3.586
			l3.586,3.586l-3.586,3.586L24.424,48.5z M32.19,54h-2.266l-0.5-0.5l3.583-3.582L32.19,54z"/>
	</g>
</g>
<g>
</g>
<g>
</g>
<g>
</g>
<g>
</g>
<g>
</g>
<g>
</g>
<g>
</g>
<g>
</g>
<g>
</g>
<g>
</g>
<g>
</g>
<g>
</g>
<g>
</g>
<g>
</g>
<g>
</g>
</svg>
