<?xml version="1.0" encoding="iso-8859-1"?>
<!-- Generator: Adobe Illustrator 16.0.4, SVG Export Plug-In . SVG Version: 6.00 Build 0)  -->
<!DOCTYPE svg PUBLIC "-//W3C//DTD SVG 1.1//EN" "http://www.w3.org/Graphics/SVG/1.1/DTD/svg11.dtd">
<svg version="1.1" id="Layer_1" xmlns="http://www.w3.org/2000/svg" xmlns:xlink="http://www.w3.org/1999/xlink" x="0px" y="0px"
	 width="56px" height="55.994px" viewBox="0 0 56 55.994" style="enable-background:new 0 0 56 55.994;" xml:space="preserve">
<g id="_x31_143-baseball-and-bat_x40_2x.png">
	<g>
		<path d="M20,15.994c0,4.8-3.08,8.871-7.366,10.373c1.153,1.039,2.484,1.882,3.934,2.497l7.98-9.438
			C24.192,18.348,24,17.193,24,15.994c0-4.807,3.088-8.882,7.384-10.379c-2.485-2.254-5.772-3.639-9.391-3.639
			c-3.617,0-6.903,1.383-9.387,3.635C16.907,7.105,20,11.184,20,15.994z M26,15.994c0,0.531,0.046,1.051,0.134,1.557L33.8,8.485
			c-0.272-0.428-0.559-0.847-0.875-1.241C28.957,8.183,26,11.739,26,15.994z M53.51,2.489C51.85,0.83,49.675,0,47.499,0
			c-3.729,0-6.082,2.556-6.082,2.556L15.675,33.005l7.228,7.228C35.392,29.74,53.497,14.528,53.51,14.511
			C56.829,11.191,56.829,5.809,53.51,2.489z M18,15.994c0-4.26-2.963-7.819-6.938-8.753c-1.917,2.396-3.069,5.429-3.069,8.735
			c0,3.319,1.161,6.365,3.092,8.766C15.048,23.8,18,20.246,18,15.994z M0.684,46.046l0.004,0.012C0.291,46.189,0,46.553,0,46.994
			c0,0.276,0.112,0.526,0.293,0.707l8,8C8.474,55.883,8.724,55.994,9,55.994c0.441,0,0.804-0.291,0.937-0.688l0.012,0.004
			l1.488-4.465l-6.288-6.288L0.684,46.046z M6.856,43.437l5.585,5.585c1.633-1.372,4.905-4.121,8.924-7.497l-6.986-6.986
			L6.856,43.437z"/>
	</g>
</g>
<g>
</g>
<g>
</g>
<g>
</g>
<g>
</g>
<g>
</g>
<g>
</g>
<g>
</g>
<g>
</g>
<g>
</g>
<g>
</g>
<g>
</g>
<g>
</g>
<g>
</g>
<g>
</g>
<g>
</g>
</svg>
