<?xml version="1.0" encoding="iso-8859-1"?>
<!-- Generator: Adobe Illustrator 16.0.4, SVG Export Plug-In . SVG Version: 6.00 Build 0)  -->
<!DOCTYPE svg PUBLIC "-//W3C//DTD SVG 1.1//EN" "http://www.w3.org/Graphics/SVG/1.1/DTD/svg11.dtd">
<svg version="1.1" id="Layer_1" xmlns="http://www.w3.org/2000/svg" xmlns:xlink="http://www.w3.org/1999/xlink" x="0px" y="0px"
	 width="56.019px" height="44px" viewBox="0 0 56.019 44" style="enable-background:new 0 0 56.019 44;" xml:space="preserve">
<g id="_x31_144-baseball-helmet_x40_2x.png">
	<g>
		<path d="M54.582,26.182c-1.002-0.704-5.987-3.768-7.575-4.742C46.991,14.112,46.396,0,23.006,0C15.688,0,10.301,1.834,6.54,5.604
			C-0.052,12.214-0.022,23.363,0.003,33.2L0.006,35c0,0.553,0.448,1,1,1c3.707,0,5.957,1.474,8.562,3.18
			C13.02,41.438,16.9,44,24.969,44c3.197,0,5.88-1.491,7.556-4.2c1.741-2.814,1.79-6.519,0.981-9.8h20.501
			c0.944,0,1.705-0.479,1.939-1.22C56.104,28.279,56.139,27.276,54.582,26.182z M24.009,36c-1.104,0-2-0.896-2-2s0.896-2,2-2
			s2,0.896,2,2S25.114,36,24.009,36z"/>
	</g>
</g>
<g>
</g>
<g>
</g>
<g>
</g>
<g>
</g>
<g>
</g>
<g>
</g>
<g>
</g>
<g>
</g>
<g>
</g>
<g>
</g>
<g>
</g>
<g>
</g>
<g>
</g>
<g>
</g>
<g>
</g>
</svg>
