<?xml version="1.0" encoding="iso-8859-1"?>
<!-- Generator: Adobe Illustrator 16.0.4, SVG Export Plug-In . SVG Version: 6.00 Build 0)  -->
<!DOCTYPE svg PUBLIC "-//W3C//DTD SVG 1.1//EN" "http://www.w3.org/Graphics/SVG/1.1/DTD/svg11.dtd">
<svg version="1.1" id="Layer_1" xmlns="http://www.w3.org/2000/svg" xmlns:xlink="http://www.w3.org/1999/xlink" x="0px" y="0px"
	 width="48px" height="56px" viewBox="0 0 48 56" style="enable-background:new 0 0 48 56;" xml:space="preserve">
<g id="_x31_145-baseball-jersey_x40_2x.png">
	<g>
		<path d="M30.619,0H17.376l6.639,5.696L30.619,0z M22.597,15.879c0.404,0.28,0.877,0.42,1.421,0.42c0.568,0,1.042-0.14,1.421-0.42
			c0.379-0.279,0.568-0.688,0.568-1.224c0-0.167-0.025-0.349-0.076-0.545c-0.051-0.197-0.148-0.385-0.293-0.563
			c-0.146-0.179-0.348-0.327-0.606-0.446c-0.259-0.119-0.597-0.179-1.014-0.179c-0.265,0-0.521,0.038-0.768,0.116
			c-0.246,0.077-0.464,0.188-0.653,0.33c-0.189,0.144-0.338,0.322-0.445,0.536c-0.107,0.215-0.161,0.465-0.161,0.751
			C21.991,15.191,22.192,15.6,22.597,15.879z M25.638,18.551c-0.208-0.179-0.449-0.315-0.72-0.411
			c-0.271-0.095-0.565-0.143-0.881-0.143c-0.657,0-1.213,0.17-1.667,0.51c-0.455,0.339-0.682,0.831-0.682,1.474
			c0,0.322,0.063,0.614,0.189,0.876c0.126,0.263,0.294,0.485,0.502,0.67c0.208,0.185,0.458,0.328,0.749,0.429
			c0.291,0.102,0.594,0.152,0.91,0.152c0.328,0,0.628-0.051,0.9-0.152c0.271-0.101,0.512-0.244,0.72-0.429
			c0.208-0.185,0.369-0.407,0.483-0.67c0.114-0.262,0.17-0.548,0.17-0.857c0-0.298-0.06-0.569-0.18-0.813
			C26.011,18.941,25.847,18.729,25.638,18.551z M35,0h-1.32l-9.024,7.784l-0.022-0.027C24.46,7.902,24.244,8,24,8
			c-0.259,0-0.49-0.104-0.667-0.266L23.327,7.74L14.306,0H13C1.267,0,0,9.092,0,13v18v1c0,1.104,0.896,2,2,2h1h7v19v1
			c0,1.104,0.896,2,2,2h1h22h1c1.104,0,2-0.896,2-2v-1V34h7h1c1.104,0,2-0.896,2-2v-1V13C48,9.092,46.733,0,35,0z M10,13.299V32H3H2
			v-1V13c0-2.622,0.542-5.496,2.336-7.653L9.787,13H10V13.299z M24,48c-0.552,0-1-0.447-1-1s0.448-1,1-1s1,0.447,1,1
			S24.552,48,24,48z M24,40c-0.552,0-1-0.447-1-1s0.448-1,1-1s1,0.447,1,1S24.552,40,24,40z M24,32c-0.552,0-1-0.447-1-1
			s0.448-1,1-1s1,0.447,1,1S24.552,32,24,32z M28.575,21.821c-0.284,0.489-0.66,0.894-1.127,1.216
			c-0.467,0.321-0.998,0.562-1.591,0.724s-1.2,0.241-1.819,0.241c-0.645,0-1.267-0.074-1.866-0.224
			c-0.6-0.148-1.137-0.384-1.611-0.706c-0.474-0.321-0.853-0.727-1.137-1.215s-0.426-1.072-0.426-1.752
			c0-0.798,0.218-1.465,0.654-2.001c0.436-0.536,1.051-0.894,1.847-1.072v-0.036c-0.644-0.166-1.131-0.482-1.459-0.947
			c-0.329-0.464-0.493-1.007-0.493-1.626c0-0.56,0.133-1.055,0.398-1.483s0.609-0.786,1.033-1.072c0.423-0.286,0.9-0.5,1.431-0.644
			c0.53-0.143,1.067-0.214,1.61-0.214c0.821,0,1.516,0.119,2.084,0.357c0.569,0.238,1.026,0.527,1.374,0.866
			c0.347,0.34,0.597,0.703,0.748,1.09c0.152,0.388,0.228,0.736,0.228,1.046c0,0.62-0.161,1.161-0.483,1.626
			c-0.322,0.465-0.806,0.799-1.45,1.001v0.036c0.796,0.167,1.408,0.521,1.838,1.063c0.429,0.542,0.644,1.206,0.644,1.992
			C29.001,20.756,28.859,21.333,28.575,21.821z M46,31v1h-1h-7V13.299V13h0.213l5.451-7.653C45.459,7.504,46,10.378,46,13V31z"/>
	</g>
</g>
<g>
</g>
<g>
</g>
<g>
</g>
<g>
</g>
<g>
</g>
<g>
</g>
<g>
</g>
<g>
</g>
<g>
</g>
<g>
</g>
<g>
</g>
<g>
</g>
<g>
</g>
<g>
</g>
<g>
</g>
</svg>
