<?xml version="1.0" encoding="iso-8859-1"?>
<!-- Generator: Adobe Illustrator 16.0.4, SVG Export Plug-In . SVG Version: 6.00 Build 0)  -->
<!DOCTYPE svg PUBLIC "-//W3C//DTD SVG 1.1//EN" "http://www.w3.org/Graphics/SVG/1.1/DTD/svg11.dtd">
<svg version="1.1" id="Layer_1" xmlns="http://www.w3.org/2000/svg" xmlns:xlink="http://www.w3.org/1999/xlink" x="0px" y="0px"
	 width="55.984px" height="56px" viewBox="0 0 55.984 56" style="enable-background:new 0 0 55.984 56;" xml:space="preserve">
<g id="_x31_146-baseball-glove_x40_2x.png">
	<g>
		<path d="M25.984,28c0,4.02-2.173,7.509-5.393,9.427c0.319,0.25,0.653,0.481,0.999,0.696c1.743-0.646,3.882-1.138,6.399-1.138
			c2.51,0,4.643,0.488,6.383,1.132c0.346-0.216,0.68-0.448,1-0.699c-3.212-1.919-5.378-5.404-5.378-9.418
			c0-4.025,2.18-7.518,5.407-9.434c-2.044-1.614-4.619-2.585-7.426-2.585c-2.802,0-5.373,0.968-7.415,2.577
			C23.798,20.472,25.984,23.969,25.984,28z M34.737,2.135c-2.411-0.779-4.68-1.289-6.753-1.6v13.447
			c1.552,0.001,3.035,0.273,4.429,0.742L34.737,2.135z M39.186,19.62l4.951-13.197C41.53,4.864,39.028,3.7,36.647,2.805
			l-2.345,12.696C36.229,16.484,37.9,17.899,39.186,19.62z M31.995,28c0,3.49,1.999,6.494,4.903,7.986
			c1.908-2.125,3.078-4.925,3.078-8.005c0-3.066-1.16-5.856-3.053-7.978C34.006,21.491,31.995,24.5,31.995,28z M23.984,28
			c0-3.507-2.02-6.521-4.947-8.004c-1.897,2.122-3.061,4.914-3.061,7.985c0,3.084,1.174,5.887,3.085,8.013
			C21.977,34.506,23.984,31.498,23.984,28z M53.799,13.729c-0.501-0.464-0.998-0.902-1.494-1.335l-6.386,16.962l-0.006-0.003
			C45.77,29.73,45.411,30,44.984,30c-0.553,0-1-0.447-1-1c0-0.125,0.029-0.243,0.071-0.354l-0.006-0.003l6.632-17.615
			c-1.632-1.329-3.238-2.497-4.813-3.526l-5.355,14.275c0.929,1.872,1.464,3.974,1.464,6.205c0,4.518-2.156,8.516-5.479,11.075
			c2.009,1.061,3.116,2.148,3.204,2.237c0.391,0.392,0.391,1.027,0,1.419c-0.195,0.196-0.451,0.294-0.707,0.294
			c-0.257,0-0.513-0.098-0.708-0.294c-0.035-0.035-3.826-3.721-10.297-3.721s-10.262,3.686-10.299,3.723
			c-0.394,0.389-1.025,0.388-1.414-0.005s-0.389-1.025,0.001-1.416c0.088-0.088,1.188-1.171,3.188-2.229
			c-2.92-2.245-4.939-5.601-5.392-9.444C5.898,20.061,4.239,15.046,3.987,7.594c-2.915,3.237-4.69,7.438-3.722,12.472
			c5.625,24.357,16.879,35.907,31.049,35.907C31.585,55.991,31.853,56,32.12,56C48.788,56,61.194,20.404,53.799,13.729z
			 M25.984,14.14v-2.198c-8.614,1.876-12.149,4.514-15.677,9.437c1.005,1.542,2.234,3.224,3.756,5.107
			C14.742,20.12,19.686,15.04,25.984,14.14z M25.984,6.009V0.281C23.48,0.021,21.304,0,19.537,0c-3.548,0-9.271,2.008-13.608,5.709
			c0.004,2.363,0.054,4.456,0.455,6.593C11.311,8.073,15.803,5.559,25.984,6.009z M25.984,8.065
			C16.29,7.61,12.251,9.854,6.938,14.527c0.477,1.538,1.169,3.155,2.207,4.967c3.453-4.663,7.409-7.666,16.84-9.656V8.065z"/>
	</g>
</g>
<g>
</g>
<g>
</g>
<g>
</g>
<g>
</g>
<g>
</g>
<g>
</g>
<g>
</g>
<g>
</g>
<g>
</g>
<g>
</g>
<g>
</g>
<g>
</g>
<g>
</g>
<g>
</g>
<g>
</g>
</svg>
