<?xml version="1.0" encoding="iso-8859-1"?>
<!-- Generator: Adobe Illustrator 16.0.4, SVG Export Plug-In . SVG Version: 6.00 Build 0)  -->
<!DOCTYPE svg PUBLIC "-//W3C//DTD SVG 1.1//EN" "http://www.w3.org/Graphics/SVG/1.1/DTD/svg11.dtd">
<svg version="1.1" id="Layer_1" xmlns="http://www.w3.org/2000/svg" xmlns:xlink="http://www.w3.org/1999/xlink" x="0px" y="0px"
	 width="55.993px" height="48px" viewBox="0 0 55.993 48" style="enable-background:new 0 0 55.993 48;" xml:space="preserve">
<g id="_x31_147-football-helmet_x40_2x.png">
	<g>
		<path d="M26.993,36c-0.553,0-1,0.448-1,1c0,0.553,0.447,1,1,1s1-0.447,1-1C27.993,36.448,27.546,36,26.993,36z M55.993,35
			c0-0.553-0.447-1-1-1c0,0,0,0-0.001,0H36.184c1.113-6.71,6.036-7,8.799-7c3.128,0,2.99-2.153,2.99-4c0-7.412-5.299-23-23.499-23
			C6.274,0,0.278,13.238,0.405,20.882c0.128,7.643,0.587,11.565-0.32,13.867C-0.495,35.838,1.947,36,5.982,36
			c11.188,0,10.965,10,19.937,10c0.668,0,4.943-0.461,7.692-3.17l17.095,5.128l0.004-0.015C50.802,47.971,50.893,48,50.993,48
			c0.441,0,0.805-0.291,0.937-0.688l0.013,0.004l4-12l-0.013-0.004C55.964,35.213,55.993,35.111,55.993,35z M26.993,40
			c-1.657,0-3-1.343-3-3s1.343-3,3-3s3,1.343,3,3S28.65,40,26.993,40z M34.911,41.132c0.631-1.114,1.038-2.463,1.038-4.132
			c0-0.354,0.023-0.67,0.039-1h11.617l-2.709,8.127L34.911,41.132z M50.352,45.764l-3.538-1.062l2.9-8.702h3.892L50.352,45.764z"/>
	</g>
</g>
<g>
</g>
<g>
</g>
<g>
</g>
<g>
</g>
<g>
</g>
<g>
</g>
<g>
</g>
<g>
</g>
<g>
</g>
<g>
</g>
<g>
</g>
<g>
</g>
<g>
</g>
<g>
</g>
<g>
</g>
</svg>
