<?xml version="1.0" encoding="iso-8859-1"?>
<!-- Generator: Adobe Illustrator 16.0.4, SVG Export Plug-In . SVG Version: 6.00 Build 0)  -->
<!DOCTYPE svg PUBLIC "-//W3C//DTD SVG 1.1//EN" "http://www.w3.org/Graphics/SVG/1.1/DTD/svg11.dtd">
<svg version="1.1" id="Layer_1" xmlns="http://www.w3.org/2000/svg" xmlns:xlink="http://www.w3.org/1999/xlink" x="0px" y="0px"
	 width="48px" height="56px" viewBox="0 0 48 56" style="enable-background:new 0 0 48 56;" xml:space="preserve">
<g id="_x31_148-football-goalposts_x40_2x.png">
	<g>
		<path d="M46,0h-2c-1.104,0-2,0.896-2,2v32H6V2c0-1.104-0.896-2-2-2H2C0.896,0,0,0.896,0,2v32c0,3.313,2.687,6,6,6h17v3h-1
			c-1.104,0-2,0.896-2,2v11h8V45c0-1.104-0.896-2-2-2h-1v-3h17c3.313,0,6-2.687,6-6V2C48,0.896,47.104,0,46,0z"/>
	</g>
</g>
<g>
</g>
<g>
</g>
<g>
</g>
<g>
</g>
<g>
</g>
<g>
</g>
<g>
</g>
<g>
</g>
<g>
</g>
<g>
</g>
<g>
</g>
<g>
</g>
<g>
</g>
<g>
</g>
<g>
</g>
</svg>
