<?xml version="1.0" encoding="iso-8859-1"?>
<!-- Generator: Adobe Illustrator 16.0.4, SVG Export Plug-In . SVG Version: 6.00 Build 0)  -->
<!DOCTYPE svg PUBLIC "-//W3C//DTD SVG 1.1//EN" "http://www.w3.org/Graphics/SVG/1.1/DTD/svg11.dtd">
<svg version="1.1" id="Layer_1" xmlns="http://www.w3.org/2000/svg" xmlns:xlink="http://www.w3.org/1999/xlink" x="0px" y="0px"
	 width="56px" height="40px" viewBox="0 0 56 40" style="enable-background:new 0 0 56 40;" xml:space="preserve">
<g id="_x31_149-football-field_x40_2x.png">
	<g>
		<path d="M54,0h-7v40h7c1.104,0,2-0.896,2-2V2C56,0.896,55.104,0,54,0z M0,2v36c0,1.104,0.896,2,2,2h7V0H2C0.896,0,0,0.896,0,2z
			 M11,40h7V0h-7V40z M15,12h2v2h-2V12z M15,26h2v2h-2V26z M12,12h2v2h-2V12z M12,26h2v2h-2V26z M20,40h7V0h-7V40z M24,12h2v2h-2V12
			z M24,26h2v2h-2V26z M21,12h2v2h-2V12z M21,26h2v2h-2V26z M29,40h7V0h-7V40z M33,12h2v2h-2V12z M33,26h2v2h-2V26z M30,12h2v2h-2
			V12z M30,26h2v2h-2V26z M38,40h7V0h-7V40z M42,12h2v2h-2V12z M42,26h2v2h-2V26z M39,12h2v2h-2V12z M39,26h2v2h-2V26z"/>
	</g>
</g>
<g>
</g>
<g>
</g>
<g>
</g>
<g>
</g>
<g>
</g>
<g>
</g>
<g>
</g>
<g>
</g>
<g>
</g>
<g>
</g>
<g>
</g>
<g>
</g>
<g>
</g>
<g>
</g>
<g>
</g>
</svg>
