<?xml version="1.0" encoding="iso-8859-1"?>
<!-- Generator: Adobe Illustrator 16.0.4, SVG Export Plug-In . SVG Version: 6.00 Build 0)  -->
<!DOCTYPE svg PUBLIC "-//W3C//DTD SVG 1.1//EN" "http://www.w3.org/Graphics/SVG/1.1/DTD/svg11.dtd">
<svg version="1.1" id="Layer_1" xmlns="http://www.w3.org/2000/svg" xmlns:xlink="http://www.w3.org/1999/xlink" x="0px" y="0px"
	 width="52px" height="48px" viewBox="0 0 52 48" style="enable-background:new 0 0 52 48;" xml:space="preserve">
<g id="_x31_150-football-jersey_x40_2x.png">
	<g>
		<path d="M42,28h7h1c1.104,0,2-0.896,2-2v-1v-5H42V28z M0,18h10v-2H0V18z M0,25v1c0,1.104,0.896,2,2,2h1h7v-8H0V25z M24.597,18.879
			c0.404,0.28,0.878,0.42,1.421,0.42c0.569,0,1.043-0.14,1.422-0.42c0.379-0.279,0.568-0.688,0.568-1.224
			c0-0.167-0.025-0.349-0.076-0.545c-0.051-0.197-0.148-0.385-0.294-0.563s-0.348-0.327-0.606-0.446s-0.597-0.179-1.014-0.179
			c-0.265,0-0.521,0.038-0.767,0.116c-0.247,0.077-0.465,0.188-0.654,0.33c-0.189,0.144-0.338,0.322-0.445,0.536
			c-0.107,0.215-0.161,0.465-0.161,0.751C23.99,18.191,24.192,18.6,24.597,18.879z M42,18h10v-2H42V18z M37.002,0
			C37.001,0,37.001,0,37,0h-2c-0.367,0-0.675,0.208-0.849,0.504L34.125,0.5C33.232,2.223,29.724,4,26,4s-7.232-1.777-8.125-3.5
			l-0.026,0.004C17.676,0.208,17.367,0,17,0h-2c-0.001,0-0.001,0-0.002,0C3.267,0.001,0,9.092,0,13v1h10v-1c0-0.553,0.447-1,1-1
			s1,0.447,1,1v1v2v2v2v8v17v1c0,1.104,0.896,2,2,2h1h22h1c1.104,0,2-0.896,2-2v-1V30V20v-2v-2v-2v-1c0-0.553,0.447-1,1-1
			s1,0.447,1,1v1h10v-1C52,9.092,48.733,0.001,37.002,0z M30.575,24.821c-0.284,0.489-0.66,0.894-1.128,1.216
			c-0.467,0.321-0.998,0.562-1.592,0.724c-0.594,0.16-1.199,0.241-1.818,0.241c-0.645,0-1.267-0.075-1.866-0.224
			c-0.601-0.148-1.137-0.384-1.61-0.706c-0.474-0.321-0.854-0.727-1.137-1.215c-0.285-0.488-0.427-1.072-0.427-1.752
			c0-0.798,0.218-1.465,0.653-2.001c0.437-0.536,1.052-0.894,1.848-1.072v-0.036c-0.645-0.167-1.131-0.482-1.459-0.947
			s-0.492-1.006-0.492-1.626c0-0.56,0.132-1.055,0.397-1.483s0.609-0.786,1.032-1.072c0.424-0.286,0.9-0.5,1.431-0.644
			c0.531-0.143,1.067-0.214,1.61-0.214c0.821,0,1.517,0.119,2.085,0.357s1.026,0.527,1.373,0.866
			c0.348,0.34,0.598,0.703,0.749,1.091c0.151,0.387,0.228,0.735,0.228,1.045c0,0.619-0.161,1.162-0.483,1.626
			c-0.322,0.465-0.806,0.799-1.449,1.001v0.036c0.795,0.167,1.408,0.521,1.838,1.063c0.429,0.542,0.644,1.206,0.644,1.992
			C31.001,23.755,30.859,24.333,30.575,24.821z M27.638,21.551c-0.208-0.179-0.448-0.315-0.72-0.411
			c-0.271-0.095-0.565-0.143-0.881-0.143c-0.657,0-1.213,0.17-1.667,0.51c-0.455,0.339-0.683,0.83-0.683,1.474
			c0,0.322,0.063,0.614,0.189,0.876c0.126,0.263,0.294,0.485,0.502,0.67c0.209,0.186,0.458,0.328,0.749,0.429
			c0.29,0.102,0.593,0.152,0.909,0.152c0.328,0,0.628-0.051,0.9-0.152c0.271-0.101,0.511-0.243,0.72-0.429
			c0.208-0.185,0.369-0.407,0.483-0.67c0.113-0.262,0.17-0.548,0.17-0.857c0-0.298-0.06-0.569-0.18-0.813
			S27.847,21.729,27.638,21.551z"/>
	</g>
</g>
<g>
</g>
<g>
</g>
<g>
</g>
<g>
</g>
<g>
</g>
<g>
</g>
<g>
</g>
<g>
</g>
<g>
</g>
<g>
</g>
<g>
</g>
<g>
</g>
<g>
</g>
<g>
</g>
<g>
</g>
</svg>
