<?xml version="1.0" encoding="iso-8859-1"?>
<!-- Generator: Adobe Illustrator 16.0.4, SVG Export Plug-In . SVG Version: 6.00 Build 0)  -->
<!DOCTYPE svg PUBLIC "-//W3C//DTD SVG 1.1//EN" "http://www.w3.org/Graphics/SVG/1.1/DTD/svg11.dtd">
<svg version="1.1" id="Layer_1" xmlns="http://www.w3.org/2000/svg" xmlns:xlink="http://www.w3.org/1999/xlink" x="0px" y="0px"
	 width="56px" height="56px" viewBox="0 0 56 56" style="enable-background:new 0 0 56 56;" xml:space="preserve">
<g id="_x31_151-scoreboard_x40_2x.png">
	<g>
		<path d="M54,8h-5.921C44.645,3.288,36.955,0,28,0S11.355,3.288,7.921,8H2c-1.104,0-2,0.896-2,2v20h56V10C56,8.896,55.104,8,54,8z
			 M18,26H6v-8h12V26z M18,16H6v-2h12V16z M32,26h-8v-8h8V26z M34,16H22v-2h12V16z M50,26H38v-8h12V26z M50,16H38v-2h12V16z M30,20
			h-4v4h4V20z M48,20h-8v4h8V20z M16,20H8v4h8V20z M0,42c0,1.104,0.896,2,2,2h4v12h2V44h40v12h2V44h4c1.104,0,2-0.896,2-2V32H0V42z
			 M38,36h12v2H38V36z M22,36h12v2H22V36z M6,36h12v2H6V36z"/>
	</g>
</g>
<g>
</g>
<g>
</g>
<g>
</g>
<g>
</g>
<g>
</g>
<g>
</g>
<g>
</g>
<g>
</g>
<g>
</g>
<g>
</g>
<g>
</g>
<g>
</g>
<g>
</g>
<g>
</g>
<g>
</g>
</svg>
