<?xml version="1.0" encoding="iso-8859-1"?>
<!-- Generator: Adobe Illustrator 16.0.4, SVG Export Plug-In . SVG Version: 6.00 Build 0)  -->
<!DOCTYPE svg PUBLIC "-//W3C//DTD SVG 1.1//EN" "http://www.w3.org/Graphics/SVG/1.1/DTD/svg11.dtd">
<svg version="1.1" id="Layer_1" xmlns="http://www.w3.org/2000/svg" xmlns:xlink="http://www.w3.org/1999/xlink" x="0px" y="0px"
	 width="48.896px" height="56px" viewBox="0 0 48.896 56" style="enable-background:new 0 0 48.896 56;" xml:space="preserve">
<g id="_x31_152-bowling-pin-and-ball_x40_2x.png">
	<g>
		<path d="M13.849,18c0-1.646,0.151-2.914,0.367-4H5.568c0.216,1.086,0.368,2.354,0.368,4H13.849z M14.718,12
			c0.53-1.796,1.107-3.335,1.107-6c0,0,0-6-5.932-6C3.957,0,3.957,6,3.957,6c0,2.665,0.578,4.204,1.109,6H14.718z M30.896,20
			c-5.151,0-9.785,2.176-13.066,5.645c0.242,0.436,0.491,0.868,0.751,1.311c1.551,2.637,3.31,5.624,3.242,11.206
			c-0.055,4.567-1.64,9.374-3.18,12.999C21.858,54.154,26.157,56,30.896,56c9.941,0,18-8.059,18-18S40.837,20,30.896,20z M31.896,36
			c-1.104,0-2-0.896-2-2s0.896-2,2-2s2,0.896,2,2S33.001,36,31.896,36z M35.896,30c-1.104,0-2-0.896-2-2s0.896-2,2-2s2,0.896,2,2
			S37.001,30,35.896,30z M39.896,36c-1.104,0-2-0.896-2-2s0.896-2,2-2s2,0.896,2,2S41.001,36,39.896,36z M13.948,20H5.836
			c-0.759,7.945-5.946,8.892-5.834,18.137C0.103,46.466,5.792,56,5.792,56h4.101h4.101c0,0,5.689-9.534,5.79-17.863
			C19.895,28.892,14.707,27.945,13.948,20z"/>
	</g>
</g>
<g>
</g>
<g>
</g>
<g>
</g>
<g>
</g>
<g>
</g>
<g>
</g>
<g>
</g>
<g>
</g>
<g>
</g>
<g>
</g>
<g>
</g>
<g>
</g>
<g>
</g>
<g>
</g>
<g>
</g>
</svg>
