<?xml version="1.0" encoding="iso-8859-1"?>
<!-- Generator: Adobe Illustrator 16.0.4, SVG Export Plug-In . SVG Version: 6.00 Build 0)  -->
<!DOCTYPE svg PUBLIC "-//W3C//DTD SVG 1.1//EN" "http://www.w3.org/Graphics/SVG/1.1/DTD/svg11.dtd">
<svg version="1.1" id="Layer_1" xmlns="http://www.w3.org/2000/svg" xmlns:xlink="http://www.w3.org/1999/xlink" x="0px" y="0px"
	 width="55.833px" height="56px" viewBox="0 0 55.833 56" style="enable-background:new 0 0 55.833 56;" xml:space="preserve">
<g id="_x31_153-bowling-pins_x40_2x.png">
	<g>
		<path d="M35.182,18c0.105,0.787,0.184,1.649,0.184,2.715c0,0.455-0.023,0.872-0.049,1.285h7.219
			c-0.025-0.413-0.048-0.83-0.048-1.285c0-1.065,0.078-1.928,0.183-2.715H35.182z M32.76,12c0.53-1.796,1.107-3.335,1.107-6
			c0,0,0-6-5.933-6c-5.936,0-5.936,6-5.936,6c0,2.665,0.578,4.204,1.109,6H32.76z M31.891,18c0-1.646,0.151-2.914,0.367-4h-8.647
			c0.216,1.086,0.368,2.354,0.368,4H31.891z M52.664,14.929c0,0,0-4.929-4.748-4.929c-0.639,0-1.187,0.095-1.665,0.249
			c-0.087,2.025-0.502,3.417-0.908,4.763c-0.422,1.404-0.819,2.748-0.887,4.988h7.285C52.176,18.466,52.664,17.184,52.664,14.929z
			 M21.039,16c0.169-0.672,0.356-1.28,0.533-1.893c-0.169-0.773-0.376-1.464-0.59-2.165c-0.495-1.622-1.007-3.3-1.007-5.942
			c0-0.348,0.03-0.717,0.082-1.094C19.301,4.365,18.289,4,16.927,4c-5.343,0-5.343,5.571-5.343,5.571
			c0,2.885,0.706,4.35,1.229,6.429H21.039z M43.039,16c0.522-2.079,1.227-3.544,1.227-6.429c0,0,0-5.571-5.339-5.571
			c-1.353,0-2.361,0.358-3.115,0.893C35.864,5.274,35.895,5.647,35.895,6c0,2.643-0.511,4.319-1.005,5.941
			c-0.217,0.714-0.427,1.417-0.598,2.208c0.174,0.599,0.356,1.194,0.521,1.851H43.039z M44.537,22
			c0.082,0.512,0.145,1.075,0.18,1.709c0.163,0.852,0.393,1.602,0.67,2.291h5.741c-0.026-0.388-0.046-0.784-0.046-1.214
			c0-1.114,0.088-2.003,0.213-2.786H44.537z M8.933,29.025C9.133,28.68,9.328,28.34,9.517,28H4.434
			c-1.063,5.135-4.515,6.392-4.433,13.327C0.082,48.168,4.634,56,4.634,56h3.282h3.036c-1.44-2.693-4.928-9.887-5.007-16.517
			C5.882,34.274,7.503,31.485,8.933,29.025z M31.991,20h-8.112c-0.759,7.945-5.946,8.892-5.834,18.137
			C18.145,46.466,23.834,56,23.834,56h4.101h4.101c0,0,5.689-9.534,5.79-17.863C37.937,28.892,32.75,27.945,31.991,20z M42.771,24
			h-7.688c-0.003,0.018-0.007,0.032-0.011,0.049c0.445,1.019,0.981,1.938,1.551,2.906c1.552,2.637,3.31,5.624,3.243,11.206
			c-0.08,6.608-3.36,13.736-5.076,17.022C35.064,55.703,35.235,56,35.235,56h3.691h3.691c0,0,5.121-8.854,5.211-16.587
			C47.923,31.415,43.877,30.105,42.771,24z M51.399,28h-5.042c0.189,0.34,0.384,0.68,0.584,1.025c1.43,2.46,3.05,5.249,2.988,10.458
			c-0.08,6.63-3.567,13.823-5.007,16.517h2.995h3.282c0,0,4.552-7.832,4.633-14.673C55.914,34.392,52.462,33.135,51.399,28z
			 M11.417,20c-0.067-2.239-0.465-3.583-0.888-4.987c-0.405-1.343-0.82-2.73-0.909-4.749C9.131,10.102,8.573,10,7.917,10
			c-4.75,0-4.75,4.929-4.75,4.929c0,2.255,0.489,3.537,0.924,5.071H11.417z M19.25,26.955c0.564-0.958,1.096-1.868,1.538-2.874
			c-0.005-0.028-0.013-0.053-0.018-0.081h-7.687c-1.107,6.105-5.152,7.415-5.059,15.413C8.115,47.146,13.235,56,13.235,56h3.691
			h3.691c0,0,0.174-0.303,0.456-0.836c-1.719-3.295-4.986-10.409-5.066-17.003C15.94,32.579,17.699,29.592,19.25,26.955z M13.182,18
			c0.105,0.787,0.184,1.649,0.184,2.715c0,0.455-0.023,0.872-0.049,1.285h7.219c-0.025-0.413-0.048-0.83-0.048-1.285
			c0-1.065,0.078-1.928,0.183-2.715H13.182z M10.486,26c0.247-0.614,0.454-1.279,0.612-2.017c0.031-0.753,0.104-1.397,0.197-1.983
			H4.537c0.125,0.783,0.213,1.672,0.213,2.786c0,0.43-0.021,0.826-0.046,1.214H10.486z"/>
	</g>
</g>
<g>
</g>
<g>
</g>
<g>
</g>
<g>
</g>
<g>
</g>
<g>
</g>
<g>
</g>
<g>
</g>
<g>
</g>
<g>
</g>
<g>
</g>
<g>
</g>
<g>
</g>
<g>
</g>
<g>
</g>
</svg>
