<?xml version="1.0" encoding="iso-8859-1"?>
<!-- Generator: Adobe Illustrator 16.0.4, SVG Export Plug-In . SVG Version: 6.00 Build 0)  -->
<!DOCTYPE svg PUBLIC "-//W3C//DTD SVG 1.1//EN" "http://www.w3.org/Graphics/SVG/1.1/DTD/svg11.dtd">
<svg version="1.1" id="Layer_1" xmlns="http://www.w3.org/2000/svg" xmlns:xlink="http://www.w3.org/1999/xlink" x="0px" y="0px"
	 width="24px" height="56px" viewBox="0 0 24 56" style="enable-background:new 0 0 24 56;" xml:space="preserve">
<g id="_x31_154-tennis-observation_seat_x40_2x.png">
	<g>
		<path d="M23.95,54.75l0.018-0.004L16.231,18H19c0.552,0,1-0.447,1-1c0-0.552-0.448-1-1-1h0h-2.719l1.689-6.758l-0.018-0.004
			C17.972,9.16,18,9.085,18,9c0-0.553-0.448-1-1-1h0H2V1c0-0.553-0.448-1-1-1S0,0.447,0,1v16c0,0.553,0.448,1,1,1h1v37
			c0,0.553,0.448,1,1,1s1-0.447,1-1v-7h16.506l1.527,7.255l0.017-0.005C22.164,55.678,22.537,56,23,56c0.552,0,1-0.447,1-1
			C24,54.911,23.971,54.832,23.95,54.75z M16.295,28H4V18h10.19L16.295,28z M3,16L3,16L3,16H2v-6h13.719l-1.5,6H3z M4,46V30h12.716
			l3.368,16H4z"/>
	</g>
</g>
<g>
</g>
<g>
</g>
<g>
</g>
<g>
</g>
<g>
</g>
<g>
</g>
<g>
</g>
<g>
</g>
<g>
</g>
<g>
</g>
<g>
</g>
<g>
</g>
<g>
</g>
<g>
</g>
<g>
</g>
</svg>
