<?xml version="1.0" encoding="iso-8859-1"?>
<!-- Generator: Adobe Illustrator 16.0.4, SVG Export Plug-In . SVG Version: 6.00 Build 0)  -->
<!DOCTYPE svg PUBLIC "-//W3C//DTD SVG 1.1//EN" "http://www.w3.org/Graphics/SVG/1.1/DTD/svg11.dtd">
<svg version="1.1" id="Layer_1" xmlns="http://www.w3.org/2000/svg" xmlns:xlink="http://www.w3.org/1999/xlink" x="0px" y="0px"
	 width="56px" height="56px" viewBox="0 0 56 56" style="enable-background:new 0 0 56 56;" xml:space="preserve">
<g id="_x31_155-tennis-racquet_x40_2x.png">
	<g>
		<path d="M52.646,3.354C46.868-2.423,35.627-0.55,27.539,7.539c-2.651,2.651-4.621,5.643-5.886,8.668
			c-2.801,5.98-3.662,11.432-4.175,15.445c-0.413,3.229-3.414,6.092-4.598,7.226c0,0.001-0.001,0.001-0.002,0.002L0.88,50.877
			C0.336,51.42,0,52.17,0,53c0,1.657,1.343,3,3,3c0.829,0,1.579-0.336,2.122-0.879l12-12c0.067-0.066,0.12-0.145,0.18-0.217
			c1.235-1.285,3.958-4.005,7.032-4.397c4.059-0.52,9.587-1.354,15.648-4.233c2.961-1.269,5.883-3.215,8.48-5.812
			C56.55,20.373,58.423,9.131,52.646,3.354z M53.965,10.621L53,11.585L49.414,8l2.492-2.491
			C53.049,6.943,53.735,8.688,53.965,10.621z M29.414,18L33,14.414L36.586,18L33,21.585L29.414,18z M31.586,23L28,26.585L24.414,23
			L28,19.414L31.586,23z M34.414,13L38,9.414L41.586,13L38,16.585L34.414,13z M38,19.414L41.586,23L38,26.585L34.414,23L38,19.414z
			 M39.414,18L43,14.414L46.586,18L43,21.585L39.414,18z M44.414,13L48,9.414L51.586,13L48,16.585L44.414,13z M45.379,2.035
			c1.934,0.23,3.678,0.916,5.113,2.059L48,6.585L44.414,3L45.379,2.035z M46.586,8L43,11.585L39.414,8L43,4.414L46.586,8z
			 M40.834,2.248L41.586,3L38,6.585L35.534,4.12C37.303,3.224,39.093,2.587,40.834,2.248z M33.722,5.136L36.586,8L33,11.585
			L29.665,8.25C30.96,7.046,32.322,6.004,33.722,5.136z M28.251,9.665L31.586,13L28,16.585l-2.863-2.863
			C26.005,12.322,27.047,10.959,28.251,9.665z M24.12,15.534L26.586,18L23,21.585l-0.751-0.752
			C22.588,19.092,23.225,17.302,24.12,15.534z M23,24.414L26.586,28l-2.492,2.492c-1.144-1.436-1.829-3.18-2.059-5.113L23,24.414z
			 M24.09,36.442c-2.548,0.326-4.747,1.824-6.41,3.282c-0.3-0.622-0.783-1.138-1.409-1.433c1.454-1.662,2.946-3.856,3.271-6.397
			c0.2-1.562,0.423-3.27,0.769-5.099c0.46,2.242,1.451,4.258,3.043,5.85c1.587,1.588,3.595,2.577,5.828,3.039
			C27.355,36.024,25.651,36.243,24.09,36.442z M30.621,33.964c-1.933-0.229-3.678-0.915-5.113-2.059L28,29.414L31.586,33
			L30.621,33.964z M29.414,28L33,24.414L36.586,28L33,31.585L29.414,28z M35.166,33.751L34.414,33L38,29.414l2.466,2.466
			C38.698,32.775,36.907,33.412,35.166,33.751z M42.278,30.863L39.414,28L43,24.414l3.335,3.335
			C45.04,28.953,43.678,29.995,42.278,30.863z M47.749,26.334L44.414,23L48,19.414l2.863,2.863
			C49.996,23.677,48.953,25.04,47.749,26.334z M51.88,20.465L49.414,18L53,14.414l0.752,0.752
			C53.412,16.907,52.776,18.698,51.88,20.465z"/>
	</g>
</g>
<g>
</g>
<g>
</g>
<g>
</g>
<g>
</g>
<g>
</g>
<g>
</g>
<g>
</g>
<g>
</g>
<g>
</g>
<g>
</g>
<g>
</g>
<g>
</g>
<g>
</g>
<g>
</g>
<g>
</g>
</svg>
