<?xml version="1.0" encoding="iso-8859-1"?>
<!-- Generator: Adobe Illustrator 16.0.4, SVG Export Plug-In . SVG Version: 6.00 Build 0)  -->
<!DOCTYPE svg PUBLIC "-//W3C//DTD SVG 1.1//EN" "http://www.w3.org/Graphics/SVG/1.1/DTD/svg11.dtd">
<svg version="1.1" id="Layer_1" xmlns="http://www.w3.org/2000/svg" xmlns:xlink="http://www.w3.org/1999/xlink" x="0px" y="0px"
	 width="56px" height="48px" viewBox="0 0 56 48" style="enable-background:new 0 0 56 48;" xml:space="preserve">
<g id="_x31_157-tennis-court_x40_2x.png">
	<g>
		<path d="M40,38H29v1h-2v-1H16h-2H0v4c0,1.104,0.896,2,2,2h25v-1h2v1h25c1.104,0,2-0.896,2-2v-4H42H40z M29,42h-2v-2h2V42z M27,47
			c0,0.553,0.447,1,1,1s1-0.447,1-1v-3h-2V47z M14,25v-2V12H0v24h14V25z M54,4H29v1h-2V4H2C0.896,4,0,4.896,0,6v4h14h2h11V9h2v1h11
			h2h14V6C56,4.896,55.104,4,54,4z M29,8h-2V6h2V8z M42,23v2v11h14V12H42V23z M29,1c0-0.552-0.447-1-1-1s-1,0.448-1,1v3h2V1z M16,12
			v11h11v-2h2v2h11V12H29v2h-2v-2H16z M29,20h-2v-2h2V20z M29,15v2h-2v-2H29z M16,36h11v-2h2v2h11V25H29v2h-2v-2H16V36z M27,28h2v2
			h-2V28z M27,31h2v2h-2V31z"/>
	</g>
</g>
<g>
</g>
<g>
</g>
<g>
</g>
<g>
</g>
<g>
</g>
<g>
</g>
<g>
</g>
<g>
</g>
<g>
</g>
<g>
</g>
<g>
</g>
<g>
</g>
<g>
</g>
<g>
</g>
<g>
</g>
</svg>
