<?xml version="1.0" encoding="iso-8859-1"?>
<!-- Generator: Adobe Illustrator 16.0.4, SVG Export Plug-In . SVG Version: 6.00 Build 0)  -->
<!DOCTYPE svg PUBLIC "-//W3C//DTD SVG 1.1//EN" "http://www.w3.org/Graphics/SVG/1.1/DTD/svg11.dtd">
<svg version="1.1" id="Layer_1" xmlns="http://www.w3.org/2000/svg" xmlns:xlink="http://www.w3.org/1999/xlink" x="0px" y="0px"
	 width="56px" height="44px" viewBox="0 0 56 44" style="enable-background:new 0 0 56 44;" xml:space="preserve">
<g id="_x31_158-hockey-stick-and-puck_x40_2x.png">
	<g>
		<path d="M14,16c4.191,0,7.834-1.706,9.69-4.214C22.604,9.612,18.684,8,14,8s-8.604,1.612-9.69,3.786C6.166,14.294,9.809,16,14,16z
			 M53,0c-0.829,0-1.579,0.336-2.122,0.88L13.938,37.819L3.625,36.062v0.005C3.423,36.024,3.215,36,3,36c-1.657,0-3,1.344-3,3v2
			c0,1.657,1.343,3,3,3h12c0.828,0,1.578-0.336,2.121-0.879l38-38C55.664,4.578,56,3.828,56,3C56,1.343,54.657,0,53,0z M14,24
			c5.522,0,10-2.238,10-5v-4.581C21.851,16.576,18.176,18,14,18s-7.851-1.424-10-3.581V19C4,21.762,8.478,24,14,24z M22,15.991
			v0.018c-0.005-0.003-0.01-0.005-0.015-0.008C21.99,15.997,21.995,15.994,22,15.991z M6,15.991c0.005,0.003,0.01,0.006,0.015,0.01
			C6.01,16.004,6.005,16.006,6,16.009V15.991z"/>
	</g>
</g>
<g>
</g>
<g>
</g>
<g>
</g>
<g>
</g>
<g>
</g>
<g>
</g>
<g>
</g>
<g>
</g>
<g>
</g>
<g>
</g>
<g>
</g>
<g>
</g>
<g>
</g>
<g>
</g>
<g>
</g>
</svg>
