<?xml version="1.0" encoding="iso-8859-1"?>
<!-- Generator: Adobe Illustrator 16.0.4, SVG Export Plug-In . SVG Version: 6.00 Build 0)  -->
<!DOCTYPE svg PUBLIC "-//W3C//DTD SVG 1.1//EN" "http://www.w3.org/Graphics/SVG/1.1/DTD/svg11.dtd">
<svg version="1.1" id="Layer_1" xmlns="http://www.w3.org/2000/svg" xmlns:xlink="http://www.w3.org/1999/xlink" x="0px" y="0px"
	 width="52px" height="56px" viewBox="0 0 52 56" style="enable-background:new 0 0 52 56;" xml:space="preserve">
<g id="_x31_159-badminton-birdie_x40_2x.png">
	<g>
		<path d="M16,46c0,5.522,4.478,10,10,10s10-4.478,10-10v-4H16V46z M16,40h20v-2H16V40z M52,1c0-0.553-0.447-1-1-1
			c-0.206,0-0.393,0.066-0.55,0.175l-0.005-0.007L40.149,7.656l-6.441-7.362C33.526,0.112,33.276,0,33,0
			c-0.301,0-0.562,0.139-0.744,0.349l-0.009-0.007L26,7.481l-6.247-7.14l-0.009,0.007C19.562,0.139,19.301,0,19,0
			s-0.562,0.139-0.744,0.349l-0.009-0.007L12.77,7.646L1.524,0.148l-0.01,0.015C1.362,0.069,1.192,0,1,0C0.447,0,0,0.447,0,1
			c0,0.162,0.052,0.307,0.122,0.439L0.105,1.447L15.463,36h21.074L51.895,1.447l-0.009-0.004C51.953,1.308,52,1.161,52,1z M21,32
			c-0.409,0-0.76-0.247-0.914-0.6h-0.002l-0.002-0.007c-0.003-0.006-0.004-0.013-0.007-0.019l-4.991-15.974l0.002-0.001
			C15.032,15.277,15,15.143,15,15c0-0.552,0.447-1,1-1c0.409,0,0.76,0.248,0.914,0.601l0.002-0.001l0.002,0.007
			c0.003,0.006,0.004,0.014,0.007,0.02L21.916,30.6l-0.002,0.001C21.968,30.723,22,30.857,22,31C22,31.553,21.553,32,21,32z M27,31
			c0,0.553-0.447,1-1,1s-1-0.447-1-1V15c0-0.552,0.447-1,1-1s1,0.448,1,1V31z M36.916,15.401l-4.991,15.973
			c-0.003,0.007-0.004,0.014-0.007,0.021L31.916,31.4h-0.002C31.76,31.753,31.409,32,31,32c-0.553,0-1-0.447-1-1
			c0-0.143,0.032-0.277,0.086-0.399L30.084,30.6l4.991-15.974c0.003-0.007,0.004-0.014,0.007-0.02l0.002-0.007l0.002,0.001
			C35.24,14.248,35.591,14,36,14c0.553,0,1,0.448,1,1c0,0.143-0.032,0.277-0.086,0.4L36.916,15.401z"/>
	</g>
</g>
<g>
</g>
<g>
</g>
<g>
</g>
<g>
</g>
<g>
</g>
<g>
</g>
<g>
</g>
<g>
</g>
<g>
</g>
<g>
</g>
<g>
</g>
<g>
</g>
<g>
</g>
<g>
</g>
<g>
</g>
</svg>
