<?xml version="1.0" encoding="iso-8859-1"?>
<!-- Generator: Adobe Illustrator 16.0.4, SVG Export Plug-In . SVG Version: 6.00 Build 0)  -->
<!DOCTYPE svg PUBLIC "-//W3C//DTD SVG 1.1//EN" "http://www.w3.org/Graphics/SVG/1.1/DTD/svg11.dtd">
<svg version="1.1" id="Layer_1" xmlns="http://www.w3.org/2000/svg" xmlns:xlink="http://www.w3.org/1999/xlink" x="0px" y="0px"
	 width="56px" height="48px" viewBox="0 0 56 48" style="enable-background:new 0 0 56 48;" xml:space="preserve">
<g id="_x31_160-whistle_x40_2x.png">
	<g>
		<path d="M23,24c-3.313,0-6,2.687-6,6s2.687,6,6,6s6-2.687,6-6S26.313,24,23,24z M56,5c0-0.161-0.047-0.308-0.114-0.442
			l0.009-0.005l-2-4l-0.009,0.005C53.721,0.23,53.391,0,53,0c-0.116,0-0.225,0.029-0.328,0.066l-0.003-0.01L48.6,1.536l3.59,6.962
			l3.431-2.713l-0.011-0.013C55.842,5.59,56,5.318,56,5z M46.707,2.225L16.575,13.182l0.004,0.011
			c-3.658,1.404-6.743,3.964-8.805,7.237C6.953,19.555,5.795,19,4.5,19C2.015,19,0,21.015,0,23.5S2.015,28,4.5,28
			c0.215,0,0.42-0.034,0.627-0.063C5.05,28.615,5,29.301,5,30c0,9.941,8.059,18,18,18s18-8.059,18-18
			c0-3.772-1.165-7.27-3.148-10.163L50.593,9.761L46.707,2.225z M5.519,25.779C5.207,25.919,4.863,26,4.5,26
			C3.119,26,2,24.881,2,23.5S3.119,21,4.5,21c0.971,0,1.803,0.559,2.217,1.367C6.208,23.45,5.805,24.591,5.519,25.779z M23,38
			c-4.418,0-8-3.582-8-8s3.582-8,8-8s8,3.582,8,8S27.418,38,23,38z"/>
	</g>
</g>
<g>
</g>
<g>
</g>
<g>
</g>
<g>
</g>
<g>
</g>
<g>
</g>
<g>
</g>
<g>
</g>
<g>
</g>
<g>
</g>
<g>
</g>
<g>
</g>
<g>
</g>
<g>
</g>
<g>
</g>
</svg>
