<?xml version="1.0" encoding="iso-8859-1"?>
<!-- Generator: Adobe Illustrator 16.0.4, SVG Export Plug-In . SVG Version: 6.00 Build 0)  -->
<!DOCTYPE svg PUBLIC "-//W3C//DTD SVG 1.1//EN" "http://www.w3.org/Graphics/SVG/1.1/DTD/svg11.dtd">
<svg version="1.1" id="Layer_1" xmlns="http://www.w3.org/2000/svg" xmlns:xlink="http://www.w3.org/1999/xlink" x="0px" y="0px"
	 width="40px" height="56px" viewBox="0 0 40 56" style="enable-background:new 0 0 40 56;" xml:space="preserve">
<g id="_x31_161-christian-cross_x40_2x.png">
	<g>
		<path d="M39,14H24V1c0-0.553-0.448-1-1-1h0H17h0c-0.552,0-1,0.447-1,1v13H1c-0.552,0-1,0.448-1,1v6c0,0.553,0.448,1,1,1h15v33
			c0,0.553,0.448,1,1,1h6c0.552,0,1-0.447,1-1V22h15c0.552,0,1-0.447,1-1v-6C40,14.448,39.552,14,39,14z"/>
	</g>
</g>
<g>
</g>
<g>
</g>
<g>
</g>
<g>
</g>
<g>
</g>
<g>
</g>
<g>
</g>
<g>
</g>
<g>
</g>
<g>
</g>
<g>
</g>
<g>
</g>
<g>
</g>
<g>
</g>
<g>
</g>
</svg>
