<?xml version="1.0" encoding="iso-8859-1"?>
<!-- Generator: Adobe Illustrator 16.0.4, SVG Export Plug-In . SVG Version: 6.00 Build 0)  -->
<!DOCTYPE svg PUBLIC "-//W3C//DTD SVG 1.1//EN" "http://www.w3.org/Graphics/SVG/1.1/DTD/svg11.dtd">
<svg version="1.1" id="Layer_1" xmlns="http://www.w3.org/2000/svg" xmlns:xlink="http://www.w3.org/1999/xlink" x="0px" y="0px"
	 width="52px" height="56px" viewBox="0 0 52 56" style="enable-background:new 0 0 52 56;" xml:space="preserve">
<g id="_x31_162-judaic-star_x40_2x.png">
	<g>
		<path d="M51.859,42.488L43.235,28l8.624-14.488l-0.015-0.009C51.935,13.354,52,13.188,52,13c0-0.552-0.448-1-1-1H33.711
			L26.859,0.488l-0.015,0.009C26.67,0.205,26.365,0,26,0s-0.67,0.205-0.845,0.497l-0.015-0.009L18.289,12H1c-0.552,0-1,0.448-1,1
			c0,0.188,0.065,0.354,0.155,0.503l-0.015,0.009L8.765,28L0.141,42.488l0.015,0.009C0.065,42.647,0,42.812,0,43
			c0,0.553,0.448,1,1,1h17.289l6.852,11.512l0.015-0.009C25.33,55.795,25.635,56,26,56s0.67-0.205,0.845-0.497l0.015,0.009
			L33.711,44H51c0.552,0,1-0.447,1-1c0-0.188-0.065-0.353-0.155-0.503L51.859,42.488z M49.241,14l-7.17,12.045L34.902,14H49.241z
			 M26,2.955L31.384,12H20.616L26,2.955z M2.759,14h14.339L9.929,26.045L2.759,14z M2.759,42l7.17-12.045L17.098,42H2.759z
			 M26,53.045L20.616,44h10.768L26,53.045z M32.574,42H19.426l-8.333-14l8.333-14h13.148l8.333,14L32.574,42z M34.902,42
			l7.169-12.045L49.241,42H34.902z"/>
	</g>
</g>
<g>
</g>
<g>
</g>
<g>
</g>
<g>
</g>
<g>
</g>
<g>
</g>
<g>
</g>
<g>
</g>
<g>
</g>
<g>
</g>
<g>
</g>
<g>
</g>
<g>
</g>
<g>
</g>
<g>
</g>
</svg>
