<?xml version="1.0" encoding="iso-8859-1"?>
<!-- Generator: Adobe Illustrator 16.0.4, SVG Export Plug-In . SVG Version: 6.00 Build 0)  -->
<!DOCTYPE svg PUBLIC "-//W3C//DTD SVG 1.1//EN" "http://www.w3.org/Graphics/SVG/1.1/DTD/svg11.dtd">
<svg version="1.1" id="Layer_1" xmlns="http://www.w3.org/2000/svg" xmlns:xlink="http://www.w3.org/1999/xlink" x="0px" y="0px"
	 width="51.998px" height="56px" viewBox="0 0 51.998 56" style="enable-background:new 0 0 51.998 56;" xml:space="preserve">
<g id="_x31_163-islamic-moon-and-star_x40_2x.png">
	<g>
		<path d="M12.017,28c0-13.255,10.76-24,24.033-24c3.163,0,6.176,0.626,8.942,1.735C40.28,2.152,34.418,0,28.039,0
			C12.553,0,0,12.536,0,28s12.553,28,28.039,28c6.379,0,12.242-2.152,16.954-5.735C42.226,51.374,39.213,52,36.05,52
			C22.776,52,12.017,41.255,12.017,28z M51.998,29c0-0.427-0.27-0.785-0.646-0.929l0.002-0.006l-7.356-2.802V17c0-0.552-0.448-1-1-1
			c-0.333,0-0.614,0.174-0.796,0.425l-0.014-0.01l-4.621,6.398l-7.212-2.748l-0.009,0.024c-0.109-0.045-0.22-0.09-0.347-0.09
			c-0.552,0-1,0.447-1,1c0,0.219,0.084,0.41,0.204,0.575l-0.014,0.011L33.82,28l-4.633,6.415l0.014,0.01
			c-0.119,0.165-0.204,0.356-0.204,0.575c0,0.553,0.448,1,1,1c0.098,0,0.179-0.042,0.266-0.069l0.009,0.031l7.707-2.202l4.208,6.826
			l0.014-0.011C42.384,40.826,42.665,41,42.998,41c0.552,0,1-0.447,1-1v-7.96l7.275-2.078l-0.005-0.017
			C51.686,29.826,51.998,29.457,51.998,29z"/>
	</g>
</g>
<g>
</g>
<g>
</g>
<g>
</g>
<g>
</g>
<g>
</g>
<g>
</g>
<g>
</g>
<g>
</g>
<g>
</g>
<g>
</g>
<g>
</g>
<g>
</g>
<g>
</g>
<g>
</g>
<g>
</g>
</svg>
