<?xml version="1.0" encoding="iso-8859-1"?>
<!-- Generator: Adobe Illustrator 16.0.4, SVG Export Plug-In . SVG Version: 6.00 Build 0)  -->
<!DOCTYPE svg PUBLIC "-//W3C//DTD SVG 1.1//EN" "http://www.w3.org/Graphics/SVG/1.1/DTD/svg11.dtd">
<svg version="1.1" id="Layer_1" xmlns="http://www.w3.org/2000/svg" xmlns:xlink="http://www.w3.org/1999/xlink" x="0px" y="0px"
	 width="56.004px" height="51.99px" viewBox="0 0 56.004 51.99" style="enable-background:new 0 0 56.004 51.99;"
	 xml:space="preserve">
<g id="_x31_164-shinto-torii-arch_x40_2x.png">
	<g>
		<path d="M55.847,0.462c-0.253-0.396-0.745-0.561-1.186-0.402c-0.108,0.04-11.017,3.933-26.66,3.933
			C12.383,3.992,1.45,0.1,1.341,0.06C0.897-0.1,0.406,0.068,0.156,0.462c-0.251,0.395-0.195,0.911,0.137,1.242
			C3.049,4.456,4.02,8.192,4.03,8.229C4.142,8.672,4.542,8.984,5,8.984c0.69,0,2.155,2.08,3.072,4.364
			C8.224,13.727,8.592,13.976,9,13.976h5.006c0,0.005-0.002,0.01-0.002,0.015c0,1.104,1.343,2,3,2s3-0.896,3-2
			c0-0.005-0.002-0.01-0.002-0.015h5.002v4.015h-5c0-1.104-1.343-2-3-2s-3,0.896-3,2h-3.586l-0.707-0.707
			C9.53,17.103,9.28,16.99,9.004,16.99c-0.552,0-1,0.447-1,1v5c0,0.553,0.448,1,1,1h5v26c0,1.104,0.896,2,2,2h2c1.104,0,2-0.896,2-2
			v-26h16v26c0,1.104,0.896,2,2,2h2c1.104,0,2-0.896,2-2v-26h5c0.552,0,1-0.447,1-1v-5c0-0.553-0.448-1-1-1
			c-0.276,0-0.526,0.112-0.707,0.293L45.59,17.99h-3.586c0-1.104-1.343-2-3-2s-3,0.896-3,2h-5v-4.015h5.002
			c0,0.005-0.002,0.01-0.002,0.015c0,1.104,1.343,2,3,2s3-0.896,3-2c0-0.005-0.002-0.01-0.002-0.015h5.001
			c0.408,0,0.776-0.249,0.929-0.627c0.917-2.284,2.382-4.364,3.071-4.364c0.458,0,0.858-0.312,0.97-0.755
			c0.01-0.037,0.98-3.773,3.737-6.525C56.042,1.373,56.099,0.856,55.847,0.462z M29.004,17.99h-2v-4.015h2V17.99z"/>
	</g>
</g>
<g>
</g>
<g>
</g>
<g>
</g>
<g>
</g>
<g>
</g>
<g>
</g>
<g>
</g>
<g>
</g>
<g>
</g>
<g>
</g>
<g>
</g>
<g>
</g>
<g>
</g>
<g>
</g>
<g>
</g>
</svg>
