<?xml version="1.0" encoding="iso-8859-1"?>
<!-- Generator: Adobe Illustrator 16.0.4, SVG Export Plug-In . SVG Version: 6.00 Build 0)  -->
<!DOCTYPE svg PUBLIC "-//W3C//DTD SVG 1.1//EN" "http://www.w3.org/Graphics/SVG/1.1/DTD/svg11.dtd">
<svg version="1.1" id="Layer_1" xmlns="http://www.w3.org/2000/svg" xmlns:xlink="http://www.w3.org/1999/xlink" x="0px" y="0px"
	 width="56px" height="56px" viewBox="0 0 56 56" style="enable-background:new 0 0 56 56;" xml:space="preserve">
<g id="_x31_165-taoism-yin-yang_x40_2x.png">
	<g>
		<path d="M29.491,0.075C28.999,0.025,28.501,0,28,0C12.536,0,0,12.536,0,28c0,15.014,11.826,27.231,26.665,27.933
			c0.437,0.04,0.877,0.066,1.324,0.067c0.003,0,0.007,0,0.011,0c15.464,0,28-12.536,28-28C56,13.039,44.257,0.855,29.491,0.075z
			 M28,10c2.209,0,4,1.791,4,4s-1.791,4-4,4s-4-1.791-4-4S25.791,10,28,10z M28,54c-0.004,0-0.009-0.001-0.013-0.001
			c-0.43,0-0.849-0.043-1.273-0.063C20.356,53.294,15,47.971,15,41.5C15,34.597,21.097,29,28,29c8.008,0,15-6.492,15-14.5
			c0-4.027-1.77-7.669-4.547-10.296C47.604,8.229,54,17.362,54,28C54,42.359,42.359,54,28,54z M28,38c-2.209,0-4,1.791-4,4
			s1.791,4,4,4s4-1.791,4-4S30.209,38,28,38z"/>
	</g>
</g>
<g>
</g>
<g>
</g>
<g>
</g>
<g>
</g>
<g>
</g>
<g>
</g>
<g>
</g>
<g>
</g>
<g>
</g>
<g>
</g>
<g>
</g>
<g>
</g>
<g>
</g>
<g>
</g>
<g>
</g>
</svg>
