<?xml version="1.0" encoding="iso-8859-1"?>
<!-- Generator: Adobe Illustrator 16.0.4, SVG Export Plug-In . SVG Version: 6.00 Build 0)  -->
<!DOCTYPE svg PUBLIC "-//W3C//DTD SVG 1.1//EN" "http://www.w3.org/Graphics/SVG/1.1/DTD/svg11.dtd">
<svg version="1.1" id="Layer_1" xmlns="http://www.w3.org/2000/svg" xmlns:xlink="http://www.w3.org/1999/xlink" x="0px" y="0px"
	 width="56px" height="56px" viewBox="0 0 56 56" style="enable-background:new 0 0 56 56;" xml:space="preserve">
<g id="_x31_166-hindu-om-symbol_x40_2x.png">
	<g>
		<path d="M34.293,9.707C34.474,9.889,34.724,10,35,10s0.526-0.111,0.707-0.293l4-4C39.888,5.526,40,5.276,40,5
			s-0.112-0.526-0.293-0.707l-4-4C35.526,0.112,35.276,0,35,0s-0.526,0.112-0.707,0.293l-4,4C30.112,4.474,30,4.724,30,5
			s0.112,0.526,0.293,0.707L34.293,9.707z M44,18c-11,0-9,13-17,13c-1,0-2-0.5-3-1c4-1,4-4,4-10c0-4-3-9-9-9S6,16,6,16l4,7
			c4-3,9-4,9-4s3,0,3,4c0,3-4,4-4,4s-3,0-4,0s-1,1-1,1s2,5,3,6s1,2,3,2c5,0,5,6,5,6s0,6-7,6C4,48,0,31,0,31c0,16,8,25,18,25
			s13-8,13-13s-2-7-2-7s1,0,4,0c7,0,5-10,12-10c2,0,5,3,5,7c0,7-2,10-8,10s-8-5-8-5s0,13,10,13c11,0,12-13,12-17S54,18,44,18z
			 M36.947,17.991c8.292,0,14.403-6.005,14.659-6.261c0.39-0.389,0.39-1.018,0-1.406L47.62,6.345
			c-0.364-0.363-0.946-0.39-1.343-0.061c-0.058,0.047-5.769,4.743-11.323,4.743c-5.321,0-9.065-6.398-9.103-6.463
			c-0.226-0.392-0.688-0.584-1.121-0.467c-0.437,0.116-0.74,0.511-0.74,0.961C23.99,5.188,24.138,17.991,36.947,17.991z"/>
	</g>
</g>
<g>
</g>
<g>
</g>
<g>
</g>
<g>
</g>
<g>
</g>
<g>
</g>
<g>
</g>
<g>
</g>
<g>
</g>
<g>
</g>
<g>
</g>
<g>
</g>
<g>
</g>
<g>
</g>
<g>
</g>
</svg>
