<?xml version="1.0" encoding="iso-8859-1"?>
<!-- Generator: Adobe Illustrator 16.0.4, SVG Export Plug-In . SVG Version: 6.00 Build 0)  -->
<!DOCTYPE svg PUBLIC "-//W3C//DTD SVG 1.1//EN" "http://www.w3.org/Graphics/SVG/1.1/DTD/svg11.dtd">
<svg version="1.1" id="Layer_1" xmlns="http://www.w3.org/2000/svg" xmlns:xlink="http://www.w3.org/1999/xlink" x="0px" y="0px"
	 width="56px" height="56px" viewBox="0 0 56 56" style="enable-background:new 0 0 56 56;" xml:space="preserve">
<g id="_x31_167-buddhist-wheel_x40_2x.png">
	<g>
		<path d="M54,26c-0.738,0-1.376,0.404-1.723,1h-2.555c-0.347-0.596-0.984-1-1.723-1c-0.034,0-0.066,0.009-0.101,0.01
			c-0.398-4.033-2.003-7.707-4.437-10.675c0.028-0.026,0.065-0.035,0.094-0.062c0.518-0.519,0.659-1.243,0.49-1.905l1.848-1.848
			c0.661,0.169,1.387,0.027,1.904-0.49c0.781-0.781,0.781-2.047,0-2.828s-2.047-0.781-2.828,0c-0.518,0.518-0.659,1.243-0.49,1.904
			l-1.848,1.848c-0.662-0.168-1.387-0.027-1.905,0.49c-0.027,0.028-0.036,0.065-0.062,0.095c-2.968-2.435-6.643-4.039-10.676-4.438
			C29.991,8.066,30,8.034,30,8c0-0.738-0.404-1.376-1-1.723V3.723C29.596,3.376,30,2.738,30,2c0-1.104-0.896-2-2-2s-2,0.896-2,2
			c0,0.738,0.404,1.376,1,1.723v2.555C26.404,6.624,26,7.262,26,8c0,0.034,0.009,0.066,0.01,0.101
			c-4.033,0.398-7.708,2.003-10.676,4.438c-0.025-0.029-0.034-0.066-0.062-0.095c-0.519-0.518-1.243-0.658-1.905-0.49l-1.848-1.848
			c0.169-0.661,0.027-1.387-0.49-1.904c-0.781-0.781-2.047-0.781-2.828,0s-0.781,2.047,0,2.828c0.518,0.518,1.243,0.659,1.904,0.49
			l1.848,1.848c-0.168,0.662-0.027,1.388,0.49,1.905c0.028,0.027,0.065,0.036,0.095,0.062C10.104,18.303,8.5,21.977,8.101,26.01
			C8.066,26.009,8.034,26,8,26c-0.738,0-1.376,0.404-1.723,1H3.723C3.376,26.404,2.738,26,2,26c-1.104,0-2,0.896-2,2s0.896,2,2,2
			c0.738,0,1.376-0.404,1.723-1h2.555C6.624,29.596,7.262,30,8,30c0.034,0,0.066-0.008,0.101-0.01
			c0.399,4.033,2.003,7.707,4.438,10.676c-0.029,0.025-0.066,0.034-0.095,0.062c-0.518,0.518-0.659,1.242-0.49,1.904l-1.848,1.848
			c-0.661-0.169-1.387-0.027-1.904,0.49c-0.781,0.781-0.781,2.047,0,2.828s2.047,0.781,2.828,0c0.518-0.518,0.659-1.243,0.49-1.904
			l1.848-1.848c0.662,0.169,1.387,0.027,1.905-0.49c0.027-0.027,0.036-0.065,0.062-0.094c2.969,2.434,6.643,4.038,10.676,4.437
			C26.009,47.934,26,47.966,26,48c0,0.738,0.404,1.376,1,1.723v2.555c-0.596,0.347-1,0.984-1,1.723c0,1.104,0.896,2,2,2s2-0.896,2-2
			c0-0.738-0.404-1.376-1-1.723v-2.555c0.596-0.347,1-0.984,1-1.723c0-0.034-0.009-0.066-0.01-0.101
			c4.033-0.398,7.708-2.003,10.676-4.437c0.025,0.028,0.034,0.066,0.062,0.094c0.519,0.518,1.243,0.659,1.905,0.49l1.848,1.848
			c-0.169,0.661-0.027,1.387,0.49,1.904c0.781,0.781,2.047,0.781,2.828,0s0.781-2.047,0-2.828c-0.518-0.518-1.243-0.659-1.904-0.49
			l-1.848-1.848c0.169-0.662,0.027-1.387-0.49-1.904c-0.028-0.028-0.065-0.037-0.094-0.062c2.434-2.969,4.037-6.643,4.437-10.676
			C47.934,29.992,47.966,30,48,30c0.738,0,1.376-0.404,1.723-1h2.555c0.347,0.596,0.984,1,1.723,1c1.104,0,2-0.896,2-2
			S55.104,26,54,26z M17.434,18.848l0.177,0.177c-0.169,0.661-0.027,1.387,0.49,1.904s1.243,0.659,1.904,0.491l3.116,3.115
			c-0.514,0.721-0.877,1.556-1.03,2.465h-4.368c-0.347-0.596-0.984-1-1.723-1s-1.376,0.404-1.723,1h-0.229
			C14.269,23.889,15.511,21.064,17.434,18.848z M17.61,36.976l-0.177,0.177c-1.923-2.217-3.164-5.04-3.385-8.152h0.229
			c0.347,0.596,0.984,1,1.723,1s1.376-0.404,1.723-1h4.368c0.153,0.91,0.517,1.745,1.03,2.465l-3.116,3.116
			c-0.661-0.169-1.387-0.027-1.904,0.49S17.441,36.314,17.61,36.976z M27,38.277c-0.596,0.347-1,0.984-1,1.723s0.404,1.376,1,1.723
			v0.227c-3.111-0.221-5.935-1.461-8.152-3.383l0.177-0.176c0.661,0.168,1.387,0.027,1.904-0.491
			c0.519-0.518,0.659-1.243,0.49-1.904l3.12-3.119c0.72,0.51,1.554,0.87,2.461,1.023V38.277z M27,14.277
			c-0.596,0.347-1,0.984-1,1.723s0.404,1.376,1,1.723v4.378c-0.907,0.153-1.741,0.515-2.461,1.024l-3.12-3.12
			c0.169-0.661,0.028-1.387-0.49-1.904c-0.518-0.518-1.243-0.659-1.904-0.49l-0.177-0.177c2.218-1.922,5.041-3.162,8.152-3.383
			V14.277z M29,17.723c0.596-0.347,1-0.984,1-1.723s-0.404-1.376-1-1.723v-0.227c3.111,0.221,5.935,1.461,8.152,3.383l-0.177,0.177
			c-0.661-0.169-1.387-0.027-1.904,0.49s-0.659,1.243-0.49,1.904l-3.12,3.12c-0.72-0.51-1.554-0.871-2.461-1.024V17.723z M29,41.949
			v-0.227c0.596-0.347,1-0.984,1-1.723s-0.404-1.376-1-1.723v-4.378c0.907-0.153,1.741-0.514,2.461-1.023l3.12,3.119
			c-0.169,0.661-0.027,1.387,0.49,1.904c0.518,0.519,1.243,0.659,1.904,0.491l0.177,0.176C34.935,40.488,32.111,41.729,29,41.949z
			 M38.566,37.152l-0.177-0.177c0.169-0.661,0.027-1.387-0.49-1.904s-1.243-0.659-1.904-0.49l-3.116-3.116
			c0.514-0.72,0.877-1.555,1.03-2.465h4.368c0.347,0.596,0.984,1,1.723,1s1.376-0.404,1.723-1h0.229
			C41.731,32.112,40.489,34.936,38.566,37.152z M41.723,27c-0.347-0.596-0.984-1-1.723-1s-1.376,0.404-1.723,1h-4.368
			c-0.153-0.909-0.517-1.744-1.03-2.465l3.116-3.115c0.661,0.168,1.387,0.026,1.904-0.491s0.659-1.243,0.49-1.904l0.177-0.177
			c1.923,2.217,3.165,5.041,3.386,8.152H41.723z"/>
	</g>
</g>
<g>
</g>
<g>
</g>
<g>
</g>
<g>
</g>
<g>
</g>
<g>
</g>
<g>
</g>
<g>
</g>
<g>
</g>
<g>
</g>
<g>
</g>
<g>
</g>
<g>
</g>
<g>
</g>
<g>
</g>
</svg>
