<?xml version="1.0" encoding="iso-8859-1"?>
<!-- Generator: Adobe Illustrator 16.0.4, SVG Export Plug-In . SVG Version: 6.00 Build 0)  -->
<!DOCTYPE svg PUBLIC "-//W3C//DTD SVG 1.1//EN" "http://www.w3.org/Graphics/SVG/1.1/DTD/svg11.dtd">
<svg version="1.1" id="Layer_1" xmlns="http://www.w3.org/2000/svg" xmlns:xlink="http://www.w3.org/1999/xlink" x="0px" y="0px"
	 width="48px" height="56px" viewBox="0 0 48 56" style="enable-background:new 0 0 48 56;" xml:space="preserve">
<g id="_x31_168-sikh-symbol_x40_2x.png">
	<g>
		<path d="M38,11c0,0,6,4,6,10c0,9.69-4.724,13.763-18.662,23.104c-0.115-0.014-0.219-0.041-0.338-0.051v-2.639l5.707-5.707
			c0.025-0.025,0.038-0.062,0.061-0.09c0.025-0.031,0.045-0.063,0.065-0.097c0.046-0.073,0.083-0.147,0.108-0.231
			c0.015-0.047,0.021-0.093,0.028-0.141C30.978,35.098,31,35.053,31,35c0-0.03-0.015-0.056-0.017-0.085
			c-0.005-0.055-0.02-0.105-0.033-0.16c-0.019-0.074-0.039-0.145-0.074-0.211c-0.01-0.02-0.01-0.042-0.021-0.062
			c-0.006-0.011-0.151-0.265-0.368-0.715C36.084,31.589,40,26.706,40,21c0-5.676-3.871-10.545-9.421-12.741
			c0.188-0.508,0.312-0.807,0.329-0.85C30.965,7.283,31,7.146,31,7c0-0.13-0.029-0.252-0.074-0.366
			c-0.001-0.002,0-0.005-0.001-0.007c-0.038-0.093-0.098-0.171-0.159-0.247c-0.021-0.025-0.03-0.056-0.053-0.078
			c-0.003-0.003-0.004-0.007-0.006-0.009l-6-6C24.526,0.112,24.276,0,24,0s-0.526,0.112-0.707,0.293l-6,6
			c-0.002,0.002-0.003,0.006-0.006,0.009c-0.022,0.022-0.032,0.053-0.052,0.077c-0.062,0.077-0.122,0.155-0.16,0.248
			c-0.001,0.002,0,0.004-0.001,0.006C17.029,6.746,17,6.869,17,7c0,0.146,0.035,0.283,0.092,0.409
			c0.019,0.044,0.143,0.346,0.332,0.856C11.874,10.462,8,15.324,8,21c0,5.706,3.916,10.589,9.514,12.768
			c-0.217,0.45-0.362,0.704-0.368,0.715c-0.012,0.02-0.012,0.042-0.021,0.062c-0.035,0.066-0.056,0.137-0.074,0.211
			c-0.014,0.055-0.028,0.105-0.032,0.16C17.015,34.944,17,34.97,17,35c0,0.053,0.022,0.098,0.03,0.148
			c0.007,0.048,0.014,0.094,0.028,0.141c0.025,0.084,0.062,0.158,0.108,0.231c0.021,0.033,0.04,0.065,0.065,0.097
			c0.022,0.028,0.035,0.064,0.061,0.09L23,41.414v2.639c-0.119,0.01-0.222,0.037-0.338,0.051C8.724,34.763,4,30.69,4,21
			c0-6,6-10,6-10S0,14,0,25s11,18,11,23c0,0,2.902-4.644,6.938-4.644c0.014,0,0.028,0.003,0.043,0.003l2.073,1.429
			c-1.978,0.821-3.282,2.146-4.049,3.213C16.004,48.001,16.002,48,16,48c-1.104,0-2,0.896-2,2s0.896,2,2,2s2-0.896,2-2
			c0-0.357-0.102-0.688-0.267-0.979c0.871-1.151,2.514-2.662,5.267-2.965v4.128c-1.162,0.413-2,1.512-2,2.816c0,1.657,1.343,3,3,3
			s3-1.343,3-3c0-1.305-0.838-2.403-2-2.816v-4.128c2.754,0.302,4.396,1.812,5.268,2.964C30.102,49.311,30,49.642,30,50
			c0,1.104,0.896,2,2,2s2-0.896,2-2s-0.896-2-2-2c-0.001,0-0.003,0.001-0.004,0.001c-0.768-1.067-2.072-2.393-4.05-3.213
			l2.072-1.429c0.015,0,0.029-0.003,0.043-0.003C34.098,43.356,37,48,37,48c0-5,11-12,11-23S38,11,38,11z M29.937,10.152
			C34.696,12.067,38,16.195,38,21c0,4.879-3.402,9.064-8.279,10.939c-0.798-2.161-1.722-5.599-1.722-9.943
			C27.999,17.26,29.09,12.86,29.937,10.152z M18.279,31.939C13.402,30.064,10,25.879,10,21c0-4.805,3.305-8.933,8.063-10.848
			c0.847,2.708,1.938,7.107,1.938,11.844C20.001,26.341,19.077,29.778,18.279,31.939z"/>
	</g>
</g>
<g>
</g>
<g>
</g>
<g>
</g>
<g>
</g>
<g>
</g>
<g>
</g>
<g>
</g>
<g>
</g>
<g>
</g>
<g>
</g>
<g>
</g>
<g>
</g>
<g>
</g>
<g>
</g>
<g>
</g>
</svg>
