<?xml version="1.0" encoding="iso-8859-1"?>
<!-- Generator: Adobe Illustrator 16.0.4, SVG Export Plug-In . SVG Version: 6.00 Build 0)  -->
<!DOCTYPE svg PUBLIC "-//W3C//DTD SVG 1.1//EN" "http://www.w3.org/Graphics/SVG/1.1/DTD/svg11.dtd">
<svg version="1.1" id="Layer_1" xmlns="http://www.w3.org/2000/svg" xmlns:xlink="http://www.w3.org/1999/xlink" x="0px" y="0px"
	 width="56px" height="56px" viewBox="0 0 56 56" style="enable-background:new 0 0 56 56;" xml:space="preserve">
<g id="_x31_169-bah&#xE1;_x27_&#xED;-star_x40_2x.png">
	<g>
		<path d="M56,24c0-0.529-0.414-0.951-0.935-0.986l0.001-0.012l-13.658-0.91l5.528-14.74L46.93,7.349C46.971,7.239,47,7.124,47,7
			c0-0.552-0.447-1-1-1c-0.218,0-0.416,0.071-0.578,0.189l-0.003-0.003l-12.805,9.146L28.97,0.758l-0.018,0.004
			C28.843,0.328,28.468,0,28,0s-0.843,0.328-0.952,0.762L27.03,0.758l-3.645,14.575L10.581,6.187L10.57,6.201
			C10.407,6.084,10.217,6,10,6C9.447,6,9,6.448,9,7c0,0.125,0.046,0.233,0.09,0.342l-0.026,0.01l5.528,14.74l-13.658,0.91
			l0.001,0.012C0.414,23.049,0,23.471,0,24c0,0.4,0.239,0.741,0.58,0.9l-0.003,0.006l13.765,6.424L4.263,42.324l0.015,0.014
			C4.11,42.512,4,42.738,4,43c0,0.553,0.447,1,1,1c0.096,0,0.183-0.029,0.271-0.055l0.004,0.017L18,40.326V55c0,0.553,0.447,1,1,1
			c0.353,0,0.647-0.193,0.826-0.469l0.015,0.01L28,42.85l8.159,12.691l0.015-0.01C36.353,55.807,36.647,56,37,56
			c0.553,0,1-0.447,1-1V40.326l12.726,3.636l0.004-0.017C50.817,43.971,50.904,44,51,44c0.553,0,1-0.447,1-1
			c0-0.262-0.11-0.488-0.277-0.662l0.015-0.014L41.658,31.33l13.765-6.424L55.42,24.9C55.761,24.741,56,24.4,56,24z"/>
	</g>
</g>
<g>
</g>
<g>
</g>
<g>
</g>
<g>
</g>
<g>
</g>
<g>
</g>
<g>
</g>
<g>
</g>
<g>
</g>
<g>
</g>
<g>
</g>
<g>
</g>
<g>
</g>
<g>
</g>
<g>
</g>
</svg>
