<?xml version="1.0" encoding="iso-8859-1"?>
<!-- Generator: Adobe Illustrator 16.0.4, SVG Export Plug-In . SVG Version: 6.00 Build 0)  -->
<!DOCTYPE svg PUBLIC "-//W3C//DTD SVG 1.1//EN" "http://www.w3.org/Graphics/SVG/1.1/DTD/svg11.dtd">
<svg version="1.1" id="Layer_1" xmlns="http://www.w3.org/2000/svg" xmlns:xlink="http://www.w3.org/1999/xlink" x="0px" y="0px"
	 width="55.981px" height="36.013px" viewBox="0 0 55.981 36.013" style="enable-background:new 0 0 55.981 36.013;"
	 xml:space="preserve">
<g id="_x31_174-choose-font_x40_2x.png">
	<g>
		<path d="M55.816,33.088c-1.275,0.213-1.813,0.201-2.167-0.077c-0.198-0.155-0.305-0.357-0.391-0.617
			c-0.094-0.283-0.182-0.602-0.198-0.946c-0.017-0.368-0.059-0.736-0.059-1.104V15.197c0-2.058-0.701-3.749-2.182-5.025
			c-1.469-1.267-3.799-1.909-6.975-1.909s-5.654,0.744-7.39,2.212c-1.747,1.476-2.696,3.465-2.833,6.394l-0.005,0.017h2.412
			l0.013,0.01c0.13-2.247,0.889-3.82,2.254-4.917c1.378-1.106,3.219-1.607,5.472-1.607c1.28,0,2.377,0.163,3.26,0.426
			c0.871,0.26,1.588,0.634,2.133,1.083c0.539,0.446,0.94,0.969,1.192,1.538c0.254,0.572,0.383,1.207,0.383,1.878
			c0,0.894-0.049,1.649-0.147,2.24c-0.093,0.553-0.323,1.01-0.686,1.357c-0.372,0.358-0.938,0.645-1.686,0.852
			c-0.77,0.215-1.849,0.374-3.209,0.474l-2.98,0.254c-1.048,0.103-2.152,0.274-3.283,0.51c-1.148,0.242-2.21,0.653-3.155,1.222
			c-0.954,0.574-1.753,1.367-2.378,2.36c-0.627,0.997-0.946,2.295-0.946,3.854c0,2.568,0.796,4.5,2.365,5.743
			c1.553,1.229,3.76,1.852,6.563,1.852c1.262,0,2.439-0.157,3.501-0.466c1.062-0.31,2.026-0.746,2.867-1.298
			c0.838-0.548,1.726-1.187,2.314-1.897c0.381-0.461,0.145-0.946,1.138-1.448v0.453c0,0.554-0.121,1.072-0.034,1.539
			c0.09,0.49,0.183,0.924,0.438,1.288c0.259,0.373,0.601,0.674,1.097,0.896c0.484,0.216,1.117,0.326,1.922,0.326
			c0.557,0,0.97-0.071,1.494-0.212l0.05-0.049v-2.106L55.816,33.088z M51.016,25.229c0,0.317-0.256,0.957-0.438,1.902
			c-0.178,0.927-0.681,1.902-1.332,2.899c-0.652,0.995-1.651,1.89-2.892,2.66c-1.232,0.765-2.958,1.153-5.088,1.153
			c-2.055,0-3.695-0.451-4.855-1.341c-1.142-0.876-1.726-2.25-1.726-4.085c0-1.163,0.223-2.116,0.667-2.832
			c0.445-0.719,1.035-1.297,1.753-1.714c0.731-0.423,1.562-0.729,2.472-0.909c0.945-0.185,1.889-0.328,2.801-0.426l3.228-0.305
			c1.176-0.101,2.429-0.255,3.399-0.46c0.751-0.158,1.017-0.432,2.01-0.816V25.229z M17.443,0h-2.758L0.139,35.125L0,35.764h2.535
			l4.592-11.923h17.671l4.542,11.923h2.532L17.506,0.453L17.443,0z M8.032,21.854l8.079-19.296l7.788,19.296H8.032z"/>
	</g>
</g>
<g>
</g>
<g>
</g>
<g>
</g>
<g>
</g>
<g>
</g>
<g>
</g>
<g>
</g>
<g>
</g>
<g>
</g>
<g>
</g>
<g>
</g>
<g>
</g>
<g>
</g>
<g>
</g>
<g>
</g>
</svg>
