<?xml version="1.0" encoding="iso-8859-1"?>
<!-- Generator: Adobe Illustrator 16.0.4, SVG Export Plug-In . SVG Version: 6.00 Build 0)  -->
<!DOCTYPE svg PUBLIC "-//W3C//DTD SVG 1.1//EN" "http://www.w3.org/Graphics/SVG/1.1/DTD/svg11.dtd">
<svg version="1.1" id="Layer_1" xmlns="http://www.w3.org/2000/svg" xmlns:xlink="http://www.w3.org/1999/xlink" x="0px" y="0px"
	 width="56px" height="38px" viewBox="0 0 56 38" style="enable-background:new 0 0 56 38;" xml:space="preserve">
<g id="_x31_176-bulleted-list_x40_2x.png">
	<g>
		<path d="M11,4h44c0.553,0,1-0.447,1-1c0-0.552-0.447-1-1-1H11c-0.553,0-1,0.448-1,1C10,3.553,10.447,4,11,4z M3,32
			c-1.657,0-3,1.344-3,3c0,1.657,1.343,3,3,3s3-1.343,3-3C6,33.344,4.657,32,3,32z M3,16c-1.657,0-3,1.343-3,3s1.343,3,3,3
			s3-1.343,3-3S4.657,16,3,16z M3,0C1.343,0,0,1.343,0,3s1.343,3,3,3s3-1.343,3-3S4.657,0,3,0z M55,18H11c-0.553,0-1,0.447-1,1
			s0.447,1,1,1h44c0.553,0,1-0.447,1-1S55.553,18,55,18z M55,34H11c-0.553,0-1,0.447-1,1s0.447,1,1,1h44c0.553,0,1-0.447,1-1
			S55.553,34,55,34z"/>
	</g>
</g>
<g>
</g>
<g>
</g>
<g>
</g>
<g>
</g>
<g>
</g>
<g>
</g>
<g>
</g>
<g>
</g>
<g>
</g>
<g>
</g>
<g>
</g>
<g>
</g>
<g>
</g>
<g>
</g>
<g>
</g>
</svg>
