<?xml version="1.0" encoding="iso-8859-1"?>
<!-- Generator: Adobe Illustrator 16.0.4, SVG Export Plug-In . SVG Version: 6.00 Build 0)  -->
<!DOCTYPE svg PUBLIC "-//W3C//DTD SVG 1.1//EN" "http://www.w3.org/Graphics/SVG/1.1/DTD/svg11.dtd">
<svg version="1.1" id="Layer_1" xmlns="http://www.w3.org/2000/svg" xmlns:xlink="http://www.w3.org/1999/xlink" x="0px" y="0px"
	 width="56px" height="32px" viewBox="0 0 56 32" style="enable-background:new 0 0 56 32;" xml:space="preserve">
<g id="_x31_180-align-justify_x40_2x.png">
	<g>
		<path d="M55,30H1c-0.553,0-1,0.447-1,1s0.447,1,1,1h54c0.553,0,1-0.447,1-1S55.553,30,55,30z M1,2h54c0.553,0,1-0.447,1-1
			s-0.447-1-1-1H1C0.447,0,0,0.447,0,1S0.447,2,1,2z M55,20H1c-0.553,0-1,0.447-1,1s0.447,1,1,1h54c0.553,0,1-0.447,1-1
			S55.553,20,55,20z M55,10H1c-0.553,0-1,0.447-1,1s0.447,1,1,1h54c0.553,0,1-0.447,1-1S55.553,10,55,10z"/>
	</g>
</g>
<g>
</g>
<g>
</g>
<g>
</g>
<g>
</g>
<g>
</g>
<g>
</g>
<g>
</g>
<g>
</g>
<g>
</g>
<g>
</g>
<g>
</g>
<g>
</g>
<g>
</g>
<g>
</g>
<g>
</g>
</svg>
