<?xml version="1.0" encoding="iso-8859-1"?>
<!-- Generator: Adobe Illustrator 16.0.4, SVG Export Plug-In . SVG Version: 6.00 Build 0)  -->
<!DOCTYPE svg PUBLIC "-//W3C//DTD SVG 1.1//EN" "http://www.w3.org/Graphics/SVG/1.1/DTD/svg11.dtd">
<svg version="1.1" id="Layer_1" xmlns="http://www.w3.org/2000/svg" xmlns:xlink="http://www.w3.org/1999/xlink" x="0px" y="0px"
	 width="55.979px" height="56.009px" viewBox="0 0 55.979 56.009" style="enable-background:new 0 0 55.979 56.009;"
	 xml:space="preserve">
<g id="_x31_181-dog_x40_2x.png">
	<g>
		<path d="M38.989,52.009c-3.042,0-4.749-1.253-6.121-2.261c-1.339-0.983-2.397-1.76-4.879-1.76s-3.54,0.776-4.879,1.76
			c-1.372,1.008-3.08,2.261-6.121,2.261h-1c-0.326,0-0.655-0.026-0.984-0.068c1.677,2.399,5.751,4.068,13.02,4.068
			c7.269,0,11.343-1.669,13.02-4.068c-0.346,0.045-0.698,0.068-1.056,0.068H38.989z M14.996,1.521
			c-3.17-1.574-7.012-2.289-9.607-0.336C0.705,4.709-0.405,9.292,0.119,12.58c0.329,2.063,1.297,3.6,2.527,4.009
			c0.874,0.291,1.667,0.428,2.394,0.428c0.942,0,1.796-0.233,2.578-0.662l0.373-5.62C8.006,8.06,9.028,3.658,14.996,1.521z
			 M37.989,2.753c-2.5-0.503-6.25-0.754-10-0.754s-7.5,0.251-10,0.754c-5,1.005-8,3.6-8,8.039l-2,30.153
			c0,4.439,3.582,9.044,8,9.044h1c4.967,0,5.006-3.963,10.89-4.015c-1.196-0.506-9.813-4.31-9.813-8.924
			c0-3.857,4.459-6.984,9.959-6.984s9.959,3.127,9.959,6.984c0,4.621-8.643,8.429-9.82,8.927c5.815,0.081,5.876,4.012,10.824,4.012
			h1c4.418,0,8-4.855,8-9.296l-2-29.398C45.989,6.854,42.989,3.758,37.989,2.753z M20.987,23.986c-1.65,0-2.988-1.341-2.988-2.993
			c0-1.653,1.337-2.994,2.988-2.994s2.988,1.341,2.988,2.994C23.975,22.646,22.638,23.986,20.987,23.986z M34.97,23.986
			c-1.65,0-2.988-1.341-2.988-2.993c0-1.653,1.338-2.994,2.988-2.994c1.65,0,2.988,1.341,2.988,2.994
			C37.958,22.646,36.62,23.986,34.97,23.986z M50.59,1.185c-2.608-1.963-6.475-1.233-9.652,0.356
			c4.435,1.691,7.024,5.174,7.051,9.694l0.347,5.104c0.789,0.438,1.65,0.678,2.604,0.678c0.727,0,1.52-0.137,2.394-0.428
			c1.23-0.409,2.198-1.945,2.527-4.009C56.383,9.292,55.274,4.709,50.59,1.185z"/>
	</g>
</g>
<g>
</g>
<g>
</g>
<g>
</g>
<g>
</g>
<g>
</g>
<g>
</g>
<g>
</g>
<g>
</g>
<g>
</g>
<g>
</g>
<g>
</g>
<g>
</g>
<g>
</g>
<g>
</g>
<g>
</g>
</svg>
