<?xml version="1.0" encoding="iso-8859-1"?>
<!-- Generator: Adobe Illustrator 16.0.4, SVG Export Plug-In . SVG Version: 6.00 Build 0)  -->
<!DOCTYPE svg PUBLIC "-//W3C//DTD SVG 1.1//EN" "http://www.w3.org/Graphics/SVG/1.1/DTD/svg11.dtd">
<svg version="1.1" id="Layer_1" xmlns="http://www.w3.org/2000/svg" xmlns:xlink="http://www.w3.org/1999/xlink" x="0px" y="0px"
	 width="56px" height="52.001px" viewBox="0 0 56 52.001" style="enable-background:new 0 0 56 52.001;" xml:space="preserve">
<g id="_x31_182-cat_x40_2x.png">
	<g>
		<path d="M53.124,30.493l-0.002-0.017C53.614,30.414,54,30.01,54,29.501c0-0.552-0.448-1-1-1c-0.043,0-0.08,0.02-0.122,0.024
			l-0.002-0.017l-0.906,0.085c-0.017,0.68-0.046,1.355-0.118,2.019L53.124,30.493z M18.914,3.666
			C12.233,0.252,7.613-0.613,4.324,0.395C2.931,0.82,2.389,1.501,2.179,1.997c-0.716,1.692,0.979,9.327,2.299,14.98
			C7.354,10.855,12.534,6.05,18.914,3.666z M56,25.001c0-0.552-0.448-1-1-1c-0.039,0-0.071,0.018-0.108,0.021l-0.002-0.015
			l-3.194,0.354c0.1,0.655,0.175,1.316,0.221,1.987l3.194-0.354l-0.001-0.016C55.607,25.923,56,25.515,56,25.001z M51.522,16.978
			c1.321-5.653,3.016-13.288,2.299-14.98c-0.21-0.496-0.752-1.177-2.145-1.603c-3.289-1.008-7.91-0.143-14.59,3.271
			C43.466,6.05,48.647,10.855,51.522,16.978z M37.109,27.979c-0.038,0.004-0.07,0.021-0.109,0.021c-0.552,0-1-0.447-1-1
			c0-0.514,0.393-0.921,0.892-0.978l-0.002-0.017l14.806-1.645C49.938,12.839,40.015,4.001,28,4.001S6.062,12.839,4.305,24.362
			l14.806,1.645l-0.001,0.017C19.607,26.08,20,26.487,20,27.001c0,0.553-0.448,1-1,1c-0.039,0-0.071-0.018-0.109-0.021l-0.001,0.016
			L4.083,26.35C4.046,26.898,4,27.443,4,28.001c0,0.2,0.025,0.395,0.03,0.593l15.094,1.415l-0.002,0.017
			C19.614,30.089,20,30.492,20,31.001c0,0.553-0.448,1-1,1c-0.043,0-0.08-0.02-0.122-0.024l-0.002,0.017L4.148,30.612
			C5.45,42.638,15.628,52.001,28,52.001s22.55-9.363,23.852-21.389l-14.728,1.381l-0.002-0.017
			c-0.042,0.005-0.079,0.024-0.122,0.024c-0.552,0-1-0.447-1-1c0-0.509,0.386-0.912,0.878-0.976l-0.002-0.017l15.094-1.415
			c0.005-0.198,0.03-0.393,0.03-0.593c0-0.558-0.046-1.103-0.083-1.651L37.11,27.995L37.109,27.979z M18,19.001c0-1.656,1.343-3,3-3
			s3,1.344,3,3c0,1.657-1.343,3-3,3S18,20.658,18,19.001z M41.011,35.803c0.108-0.542,0.632-0.895,1.176-0.785
			c0.541,0.108,0.892,0.636,0.783,1.178c-0.401,2.008-2.375,5.806-6.974,5.806c-4.686,0-6.918-1.926-7.992-3.759
			c-1.074,1.831-3.316,3.759-8.018,3.759c-4.608,0-6.586-3.798-6.987-5.806c-0.108-0.542,0.243-1.069,0.785-1.178
			c0.544-0.109,1.07,0.243,1.178,0.785C14.997,35.971,15.884,40,19.986,40c5.878,0,6.826-3.413,6.978-4.63
			C25.779,34.556,24,33.004,24,31.001c0-2,0-4,4-4s4,2,4,4c0,2.006-1.782,3.558-2.967,4.371C29.184,36.589,30.131,40,35.996,40
			C40.09,40,40.976,35.971,41.011,35.803z M35,22.001c-1.657,0-3-1.343-3-3c0-1.656,1.343-3,3-3s3,1.344,3,3
			C38,20.658,36.657,22.001,35,22.001z M1.11,24.008l-0.001,0.015C1.071,24.019,1.039,24.001,1,24.001c-0.552,0-1,0.448-1,1
			c0,0.514,0.393,0.922,0.891,0.979L0.89,25.995l3.194,0.354c0.046-0.671,0.122-1.332,0.221-1.987L1.11,24.008z M3.124,28.509
			l-0.002,0.017C3.08,28.521,3.043,28.501,3,28.501c-0.552,0-1,0.448-1,1c0,0.509,0.386,0.913,0.878,0.976l-0.002,0.017l1.272,0.119
			c-0.072-0.663-0.102-1.339-0.118-2.019L3.124,28.509z"/>
	</g>
</g>
<g>
</g>
<g>
</g>
<g>
</g>
<g>
</g>
<g>
</g>
<g>
</g>
<g>
</g>
<g>
</g>
<g>
</g>
<g>
</g>
<g>
</g>
<g>
</g>
<g>
</g>
<g>
</g>
<g>
</g>
</svg>
