<?xml version="1.0" encoding="iso-8859-1"?>
<!-- Generator: Adobe Illustrator 16.0.4, SVG Export Plug-In . SVG Version: 6.00 Build 0)  -->
<!DOCTYPE svg PUBLIC "-//W3C//DTD SVG 1.1//EN" "http://www.w3.org/Graphics/SVG/1.1/DTD/svg11.dtd">
<svg version="1.1" id="Layer_1" xmlns="http://www.w3.org/2000/svg" xmlns:xlink="http://www.w3.org/1999/xlink" x="0px" y="0px"
	 width="56px" height="56px" viewBox="0 0 56 56" style="enable-background:new 0 0 56 56;" xml:space="preserve">
<g id="_x31_183-pig_x40_2x.png">
	<g>
		<path d="M28,28c-5.523,0-10,4.478-10,10s4.477,10,10,10s10-4.478,10-10S33.523,28,28,28z M26,40c0,1.104-0.896,2-2,2s-2-0.896-2-2
			v-4c0-1.104,0.896-2,2-2s2,0.896,2,2V40z M34,40c0,1.104-0.896,2-2,2s-2-0.896-2-2v-4c0-1.104,0.896-2,2-2s2,0.896,2,2V40z
			 M14.855,5.283C12.284,1.9,7.499,0,1,0H0v1.002c0,7.014,1.262,11.95,3.815,14.935C6.436,11.441,10.253,7.735,14.855,5.283z M28,4
			C13.641,4,2,15.641,2,30s11.641,26,26,26s26-11.641,26-26S42.359,4,28,4z M35,18c1.657,0,3,1.343,3,3s-1.343,3-3,3s-3-1.343-3-3
			S33.343,18,35,18z M21,18c1.657,0,3,1.343,3,3s-1.343,3-3,3s-3-1.343-3-3S19.343,18,21,18z M28,50c-6.627,0-12-5.372-12-12
			c0-6.627,5.373-12,12-12s12,5.373,12,12C40,44.628,34.627,50,28,50z M55,0c-6.499,0-11.284,1.9-13.855,5.283
			c4.602,2.452,8.419,6.158,11.04,10.653C54.738,12.953,56,8.016,56,1.002V0H55z"/>
	</g>
</g>
<g>
</g>
<g>
</g>
<g>
</g>
<g>
</g>
<g>
</g>
<g>
</g>
<g>
</g>
<g>
</g>
<g>
</g>
<g>
</g>
<g>
</g>
<g>
</g>
<g>
</g>
<g>
</g>
<g>
</g>
</svg>
