<?xml version="1.0" encoding="iso-8859-1"?>
<!-- Generator: Adobe Illustrator 16.0.4, SVG Export Plug-In . SVG Version: 6.00 Build 0)  -->
<!DOCTYPE svg PUBLIC "-//W3C//DTD SVG 1.1//EN" "http://www.w3.org/Graphics/SVG/1.1/DTD/svg11.dtd">
<svg version="1.1" id="Layer_1" xmlns="http://www.w3.org/2000/svg" xmlns:xlink="http://www.w3.org/1999/xlink" x="0px" y="0px"
	 width="56px" height="56px" viewBox="0 0 56 56" style="enable-background:new 0 0 56 56;" xml:space="preserve">
<g id="_x31_184-cow_x40_2x.png">
	<g>
		<path d="M5.051,17.153c2.066-4.276,5.062-8.01,8.641-10.5c0.149-0.812,0.295-1.538,0.44-2.224C11.435,1.583,6.931,0,1,0H0v1.002
			C0,9.069,1.663,14.398,5.051,17.153z M28,38c-9.436,0-17.535,3.215-21.082,7.81C10.066,52.004,16.287,56,28,56
			c11.714,0,17.934-3.996,21.082-10.19C45.535,41.215,37.436,38,28,38z M24,48c0,1.104-0.896,2-2,2s-2-0.896-2-2v-4
			c0-1.104,0.896-2,2-2s2,0.896,2,2V48z M36,48c0,1.104-0.896,2-2,2s-2-0.896-2-2v-4c0-1.104,0.896-2,2-2s2,0.896,2,2V48z
			 M45.107,11.888c0.446,0.512,0.868,1.058,1.281,1.615c0.001-0.001,0.002-0.002,0.003-0.004
			C45.978,12.941,45.553,12.4,45.107,11.888z M4.575,38.126C8.517,35.478,11,31.704,11,27.5c0-3.41-1.634-6.538-4.352-9.015
			C4.989,22.058,4,26.044,4,29.999C4,32.841,4.167,35.567,4.575,38.126z M44,20.5c0,5.123,3.352,9.46,7.981,10.947
			c0.01-0.48,0.019-0.961,0.019-1.448c0-5.934-2.229-11.929-5.612-16.496C44.896,15.442,44,17.864,44,20.5z M55,0
			c-5.931,0-10.435,1.583-13.131,4.43c0.145,0.686,0.291,1.412,0.439,2.225c3.579,2.489,6.574,6.223,8.641,10.499
			C54.337,14.399,56,9.069,56,1.002V0H55z M42,20.5c0-3.274,1.167-6.275,3.106-8.613c-1.407-1.615-2.964-2.993-4.617-4.04
			c-0.366-2.087-0.887-4.727-1.427-6.349c-0.333-0.999-0.896-1.497-1.755-1.497c-1.43,0-3.682,1.377-7.071,4.129
			C29.484,4.045,28.738,3.998,28,3.998s-1.484,0.047-2.236,0.132c-3.389-2.751-5.642-4.129-7.071-4.129
			C17.833,0,17.271,0.499,16.938,1.498C16.397,3.12,15.876,5.76,15.51,7.847c-3.606,2.283-6.768,6.131-8.862,10.639
			c0.287-0.619,0.6-1.221,0.926-1.812C10.944,19.572,13,23.353,13,27.5c0,5.131-3.124,9.714-8.021,12.74
			c0.282,1.247,0.627,2.449,1.062,3.587C10.281,39.164,18.524,36,28,36s17.719,3.164,21.959,7.827
			c1.176-3.069,1.745-6.571,1.948-10.326C46.198,31.927,42,26.71,42,20.5z M21,24c-1.657,0-3-1.343-3-3s1.343-3,3-3s3,1.343,3,3
			S22.657,24,21,24z M35,24c-1.657,0-3-1.343-3-3s1.343-3,3-3s3,1.343,3,3S36.657,24,35,24z"/>
	</g>
</g>
<g>
</g>
<g>
</g>
<g>
</g>
<g>
</g>
<g>
</g>
<g>
</g>
<g>
</g>
<g>
</g>
<g>
</g>
<g>
</g>
<g>
</g>
<g>
</g>
<g>
</g>
<g>
</g>
<g>
</g>
</svg>
