<?xml version="1.0" encoding="iso-8859-1"?>
<!-- Generator: Adobe Illustrator 16.0.4, SVG Export Plug-In . SVG Version: 6.00 Build 0)  -->
<!DOCTYPE svg PUBLIC "-//W3C//DTD SVG 1.1//EN" "http://www.w3.org/Graphics/SVG/1.1/DTD/svg11.dtd">
<svg version="1.1" id="Layer_1" xmlns="http://www.w3.org/2000/svg" xmlns:xlink="http://www.w3.org/1999/xlink" x="0px" y="0px"
	 width="39.989px" height="56.01px" viewBox="0 0 39.989 56.01" style="enable-background:new 0 0 39.989 56.01;"
	 xml:space="preserve">
<g id="_x31_185-horse_x40_2x.png">
	<g>
		<path d="M27.915,8.902c-0.094-0.74-0.271-1.466-0.496-2.154c4.331,0.851,9.156,2.68,10.473,6.629
			c0.26,0.781,0.52,1.734,0.775,2.813c1.787-3.445,1.762-8.486-0.069-15.249L38.343,0l-0.941,0.25
			C32.7,1.496,29.271,3.557,27.219,6.174C26.33,3.798,24.995,2.01,24.995,2.01l-1.5,1.5c-1-2-2.5-3.5-2.5-3.5c-1,1-2,5-2,5
			c-1-3-3-5-3-5c-1.396,2.326-2.354,4.645-2.984,6.467c-2.02-2.763-5.54-4.933-10.423-6.227L1.646,0L1.392,0.941
			C-0.44,7.704-0.464,12.745,1.322,16.19c0.255-1.08,0.515-2.032,0.775-2.813c1.354-4.062,6.422-5.883,10.844-6.7
			c-0.296,0.873-0.515,1.618-0.667,2.183c-3.608,0.78-7.322,2.275-8.28,5.15c-1.933,5.799-3.86,21.843-3.988,28.33
			c3.957-3.777,11.417-6.33,19.988-6.33s16.031,2.553,19.988,6.33c-0.127-6.487-2.055-22.531-3.988-28.33
			C35.054,11.188,31.459,9.694,27.915,8.902z M12.995,24.01c-1.657,0-3-1.343-3-3c0-1.656,1.343-3,3-3s3,1.344,3,3
			C15.995,22.667,14.651,24.01,12.995,24.01z M26.995,24.01c-1.657,0-3-1.343-3-3c0-1.656,1.343-3,3-3s3,1.344,3,3
			C29.995,22.667,28.651,24.01,26.995,24.01z M19.995,38.01c-9.055,0-16.748,2.871-19.697,6.887
			c1.603,5.488,9.835,11.113,19.697,11.113s18.094-5.625,19.697-11.113C36.743,40.881,29.049,38.01,19.995,38.01z M15.995,48.01
			c0,1.104-0.896,2-2,2s-2-0.896-2-2v-4c0-1.104,0.896-2,2-2s2,0.896,2,2V48.01z M27.995,48.01c0,1.104-0.896,2-2,2s-2-0.896-2-2v-4
			c0-1.104,0.896-2,2-2s2,0.896,2,2V48.01z"/>
	</g>
</g>
<g>
</g>
<g>
</g>
<g>
</g>
<g>
</g>
<g>
</g>
<g>
</g>
<g>
</g>
<g>
</g>
<g>
</g>
<g>
</g>
<g>
</g>
<g>
</g>
<g>
</g>
<g>
</g>
<g>
</g>
</svg>
