<?xml version="1.0" encoding="iso-8859-1"?>
<!-- Generator: Adobe Illustrator 16.0.4, SVG Export Plug-In . SVG Version: 6.00 Build 0)  -->
<!DOCTYPE svg PUBLIC "-//W3C//DTD SVG 1.1//EN" "http://www.w3.org/Graphics/SVG/1.1/DTD/svg11.dtd">
<svg version="1.1" id="Layer_1" xmlns="http://www.w3.org/2000/svg" xmlns:xlink="http://www.w3.org/1999/xlink" x="0px" y="0px"
	 width="44px" height="55.998px" viewBox="0 0 44 55.998" style="enable-background:new 0 0 44 55.998;" xml:space="preserve">
<g id="_x31_186-chicken_x40_2x.png">
	<g>
		<path d="M29.705,37.748c-5.138-3.75-7.707-3.75-7.707-3.75s-2.568,0-7.706,3.75s-1.284,8.25,7.706,18.25
			C30.99,45.998,34.843,41.498,29.705,37.748z M33.262,8.438c0.11-0.133,0.178-0.217,0.178-0.217
			c1.167-1.996,0.502-4.532-1.487-5.665c-1.565-0.893-3.475-0.635-4.79,0.483C26.121,1.229,24.211,0,22,0
			c-2.201,0-4.105,1.219-5.149,3.017c-1.311-1.126-3.216-1.386-4.778-0.49C10.09,3.663,9.427,6.208,10.59,8.209
			c0,0,0.02,0.024,0.048,0.061C2.469,12.131,0,20.136,0,25.998c0,11.456,6.421,20.561,14.354,24.231
			c-2.97-3.838-4.554-7.323-4.327-9.659c0.201-2.082,1.835-3.5,3.046-4.385c5.453-3.985,8.394-4.188,8.928-4.188
			s3.475,0.202,8.928,4.188c1.211,0.885,2.845,2.303,3.046,4.385c0.227,2.337-1.358,5.821-4.327,9.659
			C37.579,46.559,44,37.454,44,25.998C44,20.213,41.096,12.356,33.262,8.438z M15,23.998c-1.657,0-3-1.343-3-3s1.343-3,3-3
			s3,1.343,3,3S16.657,23.998,15,23.998z M29,23.998c-1.657,0-3-1.343-3-3s1.343-3,3-3s3,1.343,3,3S30.657,23.998,29,23.998z"/>
	</g>
</g>
<g>
</g>
<g>
</g>
<g>
</g>
<g>
</g>
<g>
</g>
<g>
</g>
<g>
</g>
<g>
</g>
<g>
</g>
<g>
</g>
<g>
</g>
<g>
</g>
<g>
</g>
<g>
</g>
<g>
</g>
</svg>
