<?xml version="1.0" encoding="iso-8859-1"?>
<!-- Generator: Adobe Illustrator 16.0.4, SVG Export Plug-In . SVG Version: 6.00 Build 0)  -->
<!DOCTYPE svg PUBLIC "-//W3C//DTD SVG 1.1//EN" "http://www.w3.org/Graphics/SVG/1.1/DTD/svg11.dtd">
<svg version="1.1" id="Layer_1" xmlns="http://www.w3.org/2000/svg" xmlns:xlink="http://www.w3.org/1999/xlink" x="0px" y="0px"
	 width="56px" height="44.006px" viewBox="0 0 56 44.006" style="enable-background:new 0 0 56 44.006;" xml:space="preserve">
<g id="_x31_188-fish_x40_2x.png">
	<g>
		<path d="M50,10c0,1.104,0.896,2,2,2s2-0.896,2-2s-0.896-2-2-2S50,8.896,50,10z M49,6c1.657,0,3-1.343,3-3c0-1.656-1.343-3-3-3
			s-3,1.344-3,3C46,4.657,47.343,6,49,6z M45.358,15.143C42.679,17.875,41,21.724,41,26c0,4.281,1.683,8.135,4.368,10.867
			C51.755,33.587,56,28.565,56,26S51.75,18.419,45.358,15.143z M48,28c-1.104,0-2-0.896-2-2s0.896-2,2-2s2,0.896,2,2
			S49.104,28,48,28z M43.456,14.249c-0.675-0.289-1.361-0.563-2.072-0.806c-4.265-5.035-9.178-7.439-22.398-7.439
			c-0.401,0-0.764,0.241-0.917,0.611s-0.069,0.796,0.215,1.079c0.039,0.039,3.283,3.346,3.132,6.994
			c-4.373,2.051-7.822,4.95-9.741,7.519C8.969,19.418,6.595,18,4.607,18C3.222,18,0,18.779,0,26s3.222,8,4.607,8
			c1.987,0,4.361-1.417,7.065-4.205c1.968,2.637,5.545,5.624,10.084,7.683c-2.3,3.795-1.777,4.923-1.539,5.427
			c0.195,0.411,0.712,1.102,1.983,1.102c4.09,0,7.445-1.305,10.231-4.032C32.623,39.979,32.809,40,33,40
			c3.772,0,7.323-0.894,10.465-2.238C40.705,34.707,39,30.568,39,26C39,21.437,40.701,17.303,43.456,14.249z"/>
	</g>
</g>
<g>
</g>
<g>
</g>
<g>
</g>
<g>
</g>
<g>
</g>
<g>
</g>
<g>
</g>
<g>
</g>
<g>
</g>
<g>
</g>
<g>
</g>
<g>
</g>
<g>
</g>
<g>
</g>
<g>
</g>
</svg>
