<?xml version="1.0" encoding="iso-8859-1"?>
<!-- Generator: Adobe Illustrator 16.0.4, SVG Export Plug-In . SVG Version: 6.00 Build 0)  -->
<!DOCTYPE svg PUBLIC "-//W3C//DTD SVG 1.1//EN" "http://www.w3.org/Graphics/SVG/1.1/DTD/svg11.dtd">
<svg version="1.1" id="Layer_1" xmlns="http://www.w3.org/2000/svg" xmlns:xlink="http://www.w3.org/1999/xlink" x="0px" y="0px"
	 width="56.033px" height="56px" viewBox="0 0 56.033 56" style="enable-background:new 0 0 56.033 56;" xml:space="preserve">
<g id="_x31_190-worm_x40_2x.png">
	<g>
		<path d="M25.894,30.661c0.581-0.162,2.518-0.647,4.88-0.647c1.652,0,3.194,0.236,4.586,0.697
			c-0.055-0.156-0.098-0.308-0.157-0.467c-1.002-2.67-1.332-4.759-1.153-6.446c-2.082-1.58-5.415-3.691-9.242-4.524
			c-1.094,3.396-1.063,7.303,0.115,11.621C25.228,30.804,25.54,30.719,25.894,30.661z M5.003,46C2.24,46,0,48.238,0,51
			s2.24,5,5.003,5c2.913,0,7.729-0.22,12.718-1.329c-0.409-2.81-1.396-6.776-3.777-9.436C11.229,45.728,8.202,46,5.003,46z
			 M3.334,53.488C2.535,52.949,2.01,52.036,2.01,51c0-0.346,0.07-0.673,0.178-0.981C3.208,50.109,4.01,50.957,4.01,52
			C4.01,52.595,3.745,53.122,3.334,53.488z M38.332,7.235c-0.877,0.354-1.808,0.736-2.842,1.196
			c-4.832,2.146-8.154,5.193-9.945,8.968c3.675,0.861,6.864,2.727,9.059,4.312c0.88-1.888,2.654-3.121,4.95-4.142
			c1.21-0.538,2.312-0.979,3.377-1.407c0.371-0.148,0.726-0.296,1.081-0.444C41.967,13.764,39.24,10.646,38.332,7.235z
			 M54.568,1.465C53.591,0.488,52.311,0,51.03,0s-2.561,0.488-3.538,1.465c-2.847,2.846-4.36,3.782-7.285,5.004
			c0.763,3.352,3.852,6.601,5.798,8.366c2.685-1.28,5.191-2.929,8.563-6.299C56.521,6.583,56.521,3.417,54.568,1.465z M52.01,4
			c-1.044,0-1.891-0.802-1.982-1.822C50.337,2.07,50.664,2,51.01,2c1.036,0,1.949,0.525,2.488,1.324C53.132,3.736,52.604,4,52.01,4z
			 M34.79,32.597c-1.35-0.448-2.737-0.598-3.987-0.598c-2.5,0-4.45,0.598-4.45,0.598c-3.004,0.432-2.109,1.992-2.109,1.992
			s0.444,2.747-1.055,3.984c-1.5,1.236-1.669,3.259,0.168,4.117s2.653,1.424,4.051,3.852c0.964,1.675,2.164,2.444,3.468,2.444
			c0.585,0,1.191-0.155,1.806-0.452c5.381-5.113,5.273-10.957,5.273-10.957S38.84,33.939,34.79,32.597z M25.58,47.502
			c-1.216-2.146-1.732-2.392-3.111-3.046c-0.66-0.313-1.204-0.748-1.615-1.265c-1.359,0.617-2.938,1.151-4.701,1.58
			c2.164,2.899,3.118,6.641,3.533,9.414c3.074-0.832,6.122-2.04,8.758-3.773C27.462,49.916,26.451,49.038,25.58,47.502z"/>
	</g>
</g>
<g>
</g>
<g>
</g>
<g>
</g>
<g>
</g>
<g>
</g>
<g>
</g>
<g>
</g>
<g>
</g>
<g>
</g>
<g>
</g>
<g>
</g>
<g>
</g>
<g>
</g>
<g>
</g>
<g>
</g>
</svg>
