<?xml version="1.0" encoding="iso-8859-1"?>
<!-- Generator: Adobe Illustrator 16.0.4, SVG Export Plug-In . SVG Version: 6.00 Build 0)  -->
<!DOCTYPE svg PUBLIC "-//W3C//DTD SVG 1.1//EN" "http://www.w3.org/Graphics/SVG/1.1/DTD/svg11.dtd">
<svg version="1.1" id="Layer_1" xmlns="http://www.w3.org/2000/svg" xmlns:xlink="http://www.w3.org/1999/xlink" x="0px" y="0px"
	 width="40px" height="56px" viewBox="0 0 40 56" style="enable-background:new 0 0 40 56;" xml:space="preserve">
<g id="_x31_192-file-type-music_x40_2x.png">
	<g>
		<path d="M26,0v14h14L26,0z M24,15V0H2C0.896,0,0,0.896,0,2v52c0,1.104,0.896,2,2,2h36c1.104,0,2-0.896,2-2V16H25
			C24.448,16,24,15.553,24,15z M26.808,24.039C26.872,24.025,26.932,24,27,24c0.552,0,1,0.448,1,1v15h-0.245
			c-0.551,1.163-2.016,2-3.755,2c-2.209,0-4-1.343-4-3c0-1.656,1.791-3,4-3c0.732,0,1.41,0.158,2,0.416V26.22l-8,1.601V42h-0.245
			c-0.551,1.163-2.016,2-3.755,2c-2.209,0-4-1.343-4-3c0-1.656,1.791-3,4-3c0.732,0,1.41,0.158,2,0.416V27
			c0-0.484,0.351-0.869,0.808-0.961l-0.004-0.02l10-2L26.808,24.039z"/>
	</g>
</g>
<g>
</g>
<g>
</g>
<g>
</g>
<g>
</g>
<g>
</g>
<g>
</g>
<g>
</g>
<g>
</g>
<g>
</g>
<g>
</g>
<g>
</g>
<g>
</g>
<g>
</g>
<g>
</g>
<g>
</g>
</svg>
