<?xml version="1.0" encoding="iso-8859-1"?>
<!-- Generator: Adobe Illustrator 16.0.4, SVG Export Plug-In . SVG Version: 6.00 Build 0)  -->
<!DOCTYPE svg PUBLIC "-//W3C//DTD SVG 1.1//EN" "http://www.w3.org/Graphics/SVG/1.1/DTD/svg11.dtd">
<svg version="1.1" id="Layer_1" xmlns="http://www.w3.org/2000/svg" xmlns:xlink="http://www.w3.org/1999/xlink" x="0px" y="0px"
	 width="40px" height="56px" viewBox="0 0 40 56" style="enable-background:new 0 0 40 56;" xml:space="preserve">
<g id="_x31_194-file-type-sound-recording_x40_2x.png">
	<g>
		<path d="M26,0v14h14L26,0z M24,15V0H2C0.896,0,0,0.896,0,2v52c0,1.104,0.896,2,2,2h36c1.104,0,2-0.896,2-2V16H25
			C24.448,16,24,15.553,24,15z M16,26c0-2.209,1.791-4,4-4s4,1.791,4,4v4h-8V26z M16,32h8v2c0,2.209-1.791,4-4,4s-4-1.791-4-4V32z
			 M26,32h2v2c0,4.079-3.055,7.438-7,7.931V44h2c0.552,0,1,0.447,1,1s-0.448,1-1,1h-6c-0.552,0-1-0.447-1-1s0.448-1,1-1h2v-2.069
			c-3.945-0.493-7-3.852-7-7.931v-2h2v2c0,3.313,2.687,6,6,6s6-2.687,6-6V32z"/>
	</g>
</g>
<g>
</g>
<g>
</g>
<g>
</g>
<g>
</g>
<g>
</g>
<g>
</g>
<g>
</g>
<g>
</g>
<g>
</g>
<g>
</g>
<g>
</g>
<g>
</g>
<g>
</g>
<g>
</g>
<g>
</g>
</svg>
