<?xml version="1.0" encoding="iso-8859-1"?>
<!-- Generator: Adobe Illustrator 16.0.4, SVG Export Plug-In . SVG Version: 6.00 Build 0)  -->
<!DOCTYPE svg PUBLIC "-//W3C//DTD SVG 1.1//EN" "http://www.w3.org/Graphics/SVG/1.1/DTD/svg11.dtd">
<svg version="1.1" id="Layer_1" xmlns="http://www.w3.org/2000/svg" xmlns:xlink="http://www.w3.org/1999/xlink" x="0px" y="0px"
	 width="40px" height="56px" viewBox="0 0 40 56" style="enable-background:new 0 0 40 56;" xml:space="preserve">
<g id="_x31_195-file-type-html_x40_2x.png">
	<g>
		<path d="M24,15V0H2C0.896,0,0,0.896,0,2v52c0,1.104,0.896,2,2,2h36c1.104,0,2-0.896,2-2V16H25C24.448,16,24,15.553,24,15z
			 M16.515,31.857L12.944,34l3.571,2.143l-0.009,0.015C16.796,36.332,17,36.637,17,37c0,0.553-0.448,1-1,1
			c-0.188,0-0.355-0.066-0.506-0.157l-0.009,0.015l-5-3l0.009-0.015C10.204,34.668,10,34.363,10,34s0.204-0.668,0.494-0.843
			l-0.009-0.015l5-3l0.009,0.015C15.645,30.066,15.812,30,16,30c0.552,0,1,0.447,1,1c0,0.363-0.204,0.668-0.494,0.843L16.515,31.857
			z M21.929,29.371l-2,10l-0.003-0.001C19.778,39.738,19.421,40,19,40c-0.552,0-1-0.447-1-1c0-0.131,0.029-0.255,0.075-0.37
			l-0.003-0.001l2-10l0.003,0.001C20.222,28.262,20.579,28,21,28c0.552,0,1,0.447,1,1c0,0.132-0.029,0.256-0.075,0.37L21.929,29.371
			z M30,34c0,0.363-0.204,0.668-0.494,0.843l0.009,0.015l-5,3l-0.009-0.015C24.355,37.934,24.188,38,24,38c-0.552,0-1-0.447-1-1
			c0-0.363,0.204-0.668,0.494-0.843l-0.009-0.015L27.056,34l-3.571-2.143l0.009-0.015C23.204,31.668,23,31.363,23,31
			c0-0.553,0.448-1,1-1c0.189,0,0.355,0.066,0.506,0.157l0.009-0.015l5,3l-0.009,0.015C29.796,33.332,30,33.637,30,34z M26,0v14h14
			L26,0z"/>
	</g>
</g>
<g>
</g>
<g>
</g>
<g>
</g>
<g>
</g>
<g>
</g>
<g>
</g>
<g>
</g>
<g>
</g>
<g>
</g>
<g>
</g>
<g>
</g>
<g>
</g>
<g>
</g>
<g>
</g>
<g>
</g>
</svg>
