<?xml version="1.0" encoding="iso-8859-1"?>
<!-- Generator: Adobe Illustrator 16.0.4, SVG Export Plug-In . SVG Version: 6.00 Build 0)  -->
<!DOCTYPE svg PUBLIC "-//W3C//DTD SVG 1.1//EN" "http://www.w3.org/Graphics/SVG/1.1/DTD/svg11.dtd">
<svg version="1.1" id="Layer_1" xmlns="http://www.w3.org/2000/svg" xmlns:xlink="http://www.w3.org/1999/xlink" x="0px" y="0px"
	 width="40px" height="56px" viewBox="0 0 40 56" style="enable-background:new 0 0 40 56;" xml:space="preserve">
<g id="_x31_196-file-type-code_x40_2x.png">
	<g>
		<path d="M26,0v14h14L26,0z M24,15V0H2C0.896,0,0,0.896,0,2v52c0,1.104,0.896,2,2,2h36c1.104,0,2-0.896,2-2V16H25
			C24.447,16,24,15.553,24,15z M18,28h-1c0,0-1,0-1,1s0,1,0,3s-1.5,2-1.5,2s1.5,0,1.5,2s0,3,0,3s0,1,1,1s1,0,1,0v2h-2c0,0-2,0-2-2
			s0-1,0-3s-2-2-2-2v-2c0,0,2,0,2-2s0-3,0-3s0-2,2-2s2,0,2,0V28z M26,28c0,0,0,1,0,3s2,2,2,2v2c0,0-2,0-2,2s0,1,0,3s-2,2-2,2h-2v-2
			c0,0,0,0,1,0s1-1,1-1s0-1,0-3s1.5-2,1.5-2S24,34,24,32s0-2,0-3s-1-1-1-1h-1v-2c0,0,0,0,2,0S26,28,26,28z"/>
	</g>
</g>
<g>
</g>
<g>
</g>
<g>
</g>
<g>
</g>
<g>
</g>
<g>
</g>
<g>
</g>
<g>
</g>
<g>
</g>
<g>
</g>
<g>
</g>
<g>
</g>
<g>
</g>
<g>
</g>
<g>
</g>
</svg>
