<?xml version="1.0" encoding="iso-8859-1"?>
<!-- Generator: Adobe Illustrator 16.0.4, SVG Export Plug-In . SVG Version: 6.00 Build 0)  -->
<!DOCTYPE svg PUBLIC "-//W3C//DTD SVG 1.1//EN" "http://www.w3.org/Graphics/SVG/1.1/DTD/svg11.dtd">
<svg version="1.1" id="Layer_1" xmlns="http://www.w3.org/2000/svg" xmlns:xlink="http://www.w3.org/1999/xlink" x="0px" y="0px"
	 width="40px" height="56px" viewBox="0 0 40 56" style="enable-background:new 0 0 40 56;" xml:space="preserve">
<g id="_x31_197-file-type-zip_x40_2x.png">
	<g>
		<path d="M26,0v14h14L26,0z M18.012,42.892C18.044,43.455,18.517,44,19,44h2c0.483,0,0.956-0.545,0.988-1.108
			C21.927,41.864,20.968,40,20,40S18.074,41.864,18.012,42.892z M24,15V0h-4v2h2v2h-2v2h2v2h-2v2h2v2h-2v2h2v2h-2v2h2v2h-2v2h2v2h-2
			v2h2v2h-2v2h2v2h-2v2c0,0,1.458-0.008,2,2c0,0,2,6,2,8c0,1-1,2-2,2h-4c-1,0-2-1-2-2c0-2,2-8,2-8c0.518-1.992,1.986-2,1.998-2H18
			v-2h2v-2h-2v-2h2v-2h-2v-2h2v-2h-2v-2h2v-2h-2v-2h2v-2h-2v-2h2v-2h-2V8h2V6h-2V4h2V2h-2V0H2C0.896,0,0,0.896,0,2v52
			c0,1.104,0.896,2,2,2h36c1.104,0,2-0.896,2-2V16H25C24.447,16,24,15.553,24,15z"/>
	</g>
</g>
<g>
</g>
<g>
</g>
<g>
</g>
<g>
</g>
<g>
</g>
<g>
</g>
<g>
</g>
<g>
</g>
<g>
</g>
<g>
</g>
<g>
</g>
<g>
</g>
<g>
</g>
<g>
</g>
<g>
</g>
</svg>
