<?xml version="1.0" encoding="iso-8859-1"?>
<!-- Generator: Adobe Illustrator 16.0.4, SVG Export Plug-In . SVG Version: 6.00 Build 0)  -->
<!DOCTYPE svg PUBLIC "-//W3C//DTD SVG 1.1//EN" "http://www.w3.org/Graphics/SVG/1.1/DTD/svg11.dtd">
<svg version="1.1" id="Layer_1" xmlns="http://www.w3.org/2000/svg" xmlns:xlink="http://www.w3.org/1999/xlink" x="0px" y="0px"
	 width="40px" height="56px" viewBox="0 0 40 56" style="enable-background:new 0 0 40 56;" xml:space="preserve">
<g id="_x31_200-file-type-settings_x40_2x.png">
	<g>
		<path d="M24,15V0H2C0.896,0,0,0.896,0,2v52c0,1.104,0.896,2,2,2h36c1.104,0,2-0.896,2-2V16H25C24.448,16,24,15.553,24,15z
			 M28.52,25.48c0.781,0.78,0.781,2.047,0,2.828l-0.888,0.889c0.529,0.849,0.904,1.798,1.13,2.803h1.287c1.104,0,2,0.896,2,2
			s-0.896,2-2,2h-1.292c-0.232,0.996-0.63,1.929-1.161,2.768l0.924,0.924c0.781,0.781,0.781,2.048,0,2.828
			c-0.78,0.781-2.047,0.781-2.828,0l-0.95-0.949c-0.832,0.521-1.759,0.896-2.741,1.127v1.352c0,1.104-0.896,2-2,2s-2-0.896-2-2
			v-1.328c-0.99-0.226-1.919-0.615-2.756-1.137l-0.936,0.936c-0.781,0.781-2.048,0.781-2.828,0c-0.781-0.78-0.781-2.047,0-2.828
			l0.926-0.926C11.874,37.93,11.494,36.993,11.26,36H9.951c-1.104,0-2-0.896-2-2s0.896-2,2-2h1.267
			c0.224-1.01,0.617-1.955,1.147-2.807l-0.885-0.885c-0.781-0.781-0.781-2.048,0-2.828c0.78-0.781,2.047-0.781,2.828,0l0.891,0.89
			c0.848-0.539,1.795-0.927,2.801-1.164v-1.255c0-1.104,0.896-2,2-2s2,0.896,2,2V25.2c1.011,0.233,1.965,0.616,2.815,1.156
			l0.876-0.876C26.473,24.699,27.739,24.699,28.52,25.48z M26,0v14h14L26,0z M20,28.951c-2.762,0-5,2.238-5,5s2.238,5,5,5
			s5-2.238,5-5S22.762,28.951,20,28.951z"/>
	</g>
</g>
<g>
</g>
<g>
</g>
<g>
</g>
<g>
</g>
<g>
</g>
<g>
</g>
<g>
</g>
<g>
</g>
<g>
</g>
<g>
</g>
<g>
</g>
<g>
</g>
<g>
</g>
<g>
</g>
<g>
</g>
</svg>
