<?xml version="1.0" encoding="iso-8859-1"?>
<!-- Generator: Adobe Illustrator 16.0.4, SVG Export Plug-In . SVG Version: 6.00 Build 0)  -->
<!DOCTYPE svg PUBLIC "-//W3C//DTD SVG 1.1//EN" "http://www.w3.org/Graphics/SVG/1.1/DTD/svg11.dtd">
<svg version="1.1" id="Layer_1" xmlns="http://www.w3.org/2000/svg" xmlns:xlink="http://www.w3.org/1999/xlink" x="0px" y="0px"
	 width="40px" height="56px" viewBox="0 0 40 56" style="enable-background:new 0 0 40 56;" xml:space="preserve">
<g id="_x31_201-file-type-film_x40_2x.png">
	<g>
		<path d="M28,40h-2v2h2V40z M28,35h-2v3h2V35z M24,26h-8v7h8V26z M28,26h-2v2h2V26z M28,30h-2v3h2V30z M26,0v14h14L26,0z M14,40h-2
			v2h2V40z M24,15V0H2C0.896,0,0,0.896,0,2v52c0,1.104,0.896,2,2,2h36c1.104,0,2-0.896,2-2V16H25C24.448,16,24,15.553,24,15z M30,25
			v18c0,0.553-0.448,1-1,1H11c-0.552,0-1-0.447-1-1V25c0-0.553,0.448-1,1-1h18C29.552,24,30,24.447,30,25z M14,35h-2v3h2V35z M24,35
			h-8v7h8V35z M14,30h-2v3h2V30z M14,26h-2v2h2V26z"/>
	</g>
</g>
<g>
</g>
<g>
</g>
<g>
</g>
<g>
</g>
<g>
</g>
<g>
</g>
<g>
</g>
<g>
</g>
<g>
</g>
<g>
</g>
<g>
</g>
<g>
</g>
<g>
</g>
<g>
</g>
<g>
</g>
</svg>
