<?xml version="1.0" encoding="iso-8859-1"?>
<!-- Generator: Adobe Illustrator 16.0.4, SVG Export Plug-In . SVG Version: 6.00 Build 0)  -->
<!DOCTYPE svg PUBLIC "-//W3C//DTD SVG 1.1//EN" "http://www.w3.org/Graphics/SVG/1.1/DTD/svg11.dtd">
<svg version="1.1" id="Layer_1" xmlns="http://www.w3.org/2000/svg" xmlns:xlink="http://www.w3.org/1999/xlink" x="0px" y="0px"
	 width="40px" height="56px" viewBox="0 0 40 56" style="enable-background:new 0 0 40 56;" xml:space="preserve">
<g id="_x31_205-file-type-pie-chart_x40_2x.png">
	<g>
		<path d="M26,0v14h14L26,0z M24,15V0H2C0.896,0,0,0.896,0,2v52c0,1.104,0.896,2,2,2h36c1.104,0,2-0.896,2-2V16H25
			C24.448,16,24,15.553,24,15z M10,33c0-4.971,4.029-9,9-9c0.338,0,0.671,0.022,1,0.059V34h-9.941C10.022,33.672,10,33.339,10,33z
			 M30,35c0,4.971-4.029,9-9,9c-4.632,0-8.443-3.5-8.941-8H22v-9.941C26.5,26.557,30,30.368,30,35z"/>
	</g>
</g>
<g>
</g>
<g>
</g>
<g>
</g>
<g>
</g>
<g>
</g>
<g>
</g>
<g>
</g>
<g>
</g>
<g>
</g>
<g>
</g>
<g>
</g>
<g>
</g>
<g>
</g>
<g>
</g>
<g>
</g>
</svg>
