<?xml version="1.0" encoding="iso-8859-1"?>
<!-- Generator: Adobe Illustrator 16.0.4, SVG Export Plug-In . SVG Version: 6.00 Build 0)  -->
<!DOCTYPE svg PUBLIC "-//W3C//DTD SVG 1.1//EN" "http://www.w3.org/Graphics/SVG/1.1/DTD/svg11.dtd">
<svg version="1.1" id="Layer_1" xmlns="http://www.w3.org/2000/svg" xmlns:xlink="http://www.w3.org/1999/xlink" x="0px" y="0px"
	 width="40px" height="56px" viewBox="0 0 40 56" style="enable-background:new 0 0 40 56;" xml:space="preserve">
<g id="_x31_208-file-type-pencil_x40_2x.png">
	<g>
		<path d="M26,0v14h14L26,0z M24,15V0H2C0.896,0,0,0.896,0,2v52c0,1.104,0.896,2,2,2h36c1.104,0,2-0.896,2-2V16H25
			C24.447,16,24,15.553,24,15z M15.121,43.121C13.949,44.293,10,44,10,44s-0.293-3.949,0.879-5.121l0.293-0.293l4.242,4.242
			L15.121,43.121z M16.828,41.414l-4.242-4.242l10.586-10.586l4.242,4.242L16.828,41.414z M30,27c0,0.828-0.336,1.578-0.879,2.121
			l-0.293,0.293l-4.242-4.242l0.292-0.292C25.421,24.336,26.171,24,27,24C28.657,24,30,25.343,30,27z"/>
	</g>
</g>
<g>
</g>
<g>
</g>
<g>
</g>
<g>
</g>
<g>
</g>
<g>
</g>
<g>
</g>
<g>
</g>
<g>
</g>
<g>
</g>
<g>
</g>
<g>
</g>
<g>
</g>
<g>
</g>
<g>
</g>
</svg>
