<?xml version="1.0" encoding="iso-8859-1"?>
<!-- Generator: Adobe Illustrator 16.0.4, SVG Export Plug-In . SVG Version: 6.00 Build 0)  -->
<!DOCTYPE svg PUBLIC "-//W3C//DTD SVG 1.1//EN" "http://www.w3.org/Graphics/SVG/1.1/DTD/svg11.dtd">
<svg version="1.1" id="Layer_1" xmlns="http://www.w3.org/2000/svg" xmlns:xlink="http://www.w3.org/1999/xlink" x="0px" y="0px"
	 width="40px" height="56px" viewBox="0 0 40 56" style="enable-background:new 0 0 40 56;" xml:space="preserve">
<g id="_x31_209-file-type-vector_x40_2x.png">
	<g>
		<path d="M26,0v14h14L26,0z M24,15V0H2C0.896,0,0,0.896,0,2v52c0,1.104,0.896,2,2,2h36c1.104,0,2-0.896,2-2V16H25
			C24.447,16,24,15.553,24,15z M27,35c0,0.161-0.047,0.308-0.114,0.442l0.009,0.005L25,39.236V40h1c0.553,0,1,0.447,1,1
			s-0.447,1-1,1h-1v1c0,0.553-0.447,1-1,1s-1-0.447-1-1v-1h-6v1c0,0.553-0.447,1-1,1s-1-0.447-1-1v-1h-1c-0.553,0-1-0.447-1-1
			s0.447-1,1-1h1v-0.764l-1.895-3.789l0.009-0.005C13.047,35.308,13,35.161,13,35c0-0.188,0.066-0.355,0.157-0.506l-0.015-0.009
			l6-10l0.015,0.009C19.332,24.204,19.637,24,20,24s0.668,0.204,0.843,0.494l0.015-0.009l6,10l-0.015,0.009
			C26.934,34.645,27,34.812,27,35z M21,35c0,0.553-0.447,1-1,1s-1-0.447-1-1v-6.39l-3.86,6.434l1.755,3.509l-0.009,0.005
			C16.953,38.692,17,38.839,17,39v1h6v-1c0-0.161,0.047-0.308,0.114-0.442l-0.009-0.005l1.755-3.509L21,28.61V35z"/>
	</g>
</g>
<g>
</g>
<g>
</g>
<g>
</g>
<g>
</g>
<g>
</g>
<g>
</g>
<g>
</g>
<g>
</g>
<g>
</g>
<g>
</g>
<g>
</g>
<g>
</g>
<g>
</g>
<g>
</g>
<g>
</g>
</svg>
