<?xml version="1.0" encoding="iso-8859-1"?>
<!-- Generator: Adobe Illustrator 16.0.4, SVG Export Plug-In . SVG Version: 6.00 Build 0)  -->
<!DOCTYPE svg PUBLIC "-//W3C//DTD SVG 1.1//EN" "http://www.w3.org/Graphics/SVG/1.1/DTD/svg11.dtd">
<svg version="1.1" id="Layer_1" xmlns="http://www.w3.org/2000/svg" xmlns:xlink="http://www.w3.org/1999/xlink" x="0px" y="0px"
	 width="40px" height="56px" viewBox="0 0 40 56" style="enable-background:new 0 0 40 56;" xml:space="preserve">
<g id="_x31_210-file-type-secure_x40_2x.png">
	<g>
		<path d="M20,36c-1.104,0-2,0.896-2,2s0.896,2,2,2s2-0.896,2-2S21.104,36,20,36z M26,0v14h14L26,0z M20,26c-2.209,0-4,1.791-4,4v2
			h8v-2C24,27.791,22.209,26,20,26z M24,15V0H2C0.896,0,0,0.896,0,2v52c0,1.104,0.896,2,2,2h36c1.104,0,2-0.896,2-2V16H25
			C24.448,16,24,15.553,24,15z M28,34v8c0,1.104-0.896,2-2,2H14c-1.104,0-2-0.896-2-2v-8c0-1.104,0.896-2,2-2v-2
			c0-3.313,2.687-6,6-6s6,2.687,6,6v2C27.104,32,28,32.896,28,34z"/>
	</g>
</g>
<g>
</g>
<g>
</g>
<g>
</g>
<g>
</g>
<g>
</g>
<g>
</g>
<g>
</g>
<g>
</g>
<g>
</g>
<g>
</g>
<g>
</g>
<g>
</g>
<g>
</g>
<g>
</g>
<g>
</g>
</svg>
