<?xml version="1.0" encoding="iso-8859-1"?>
<!-- Generator: Adobe Illustrator 16.0.4, SVG Export Plug-In . SVG Version: 6.00 Build 0)  -->
<!DOCTYPE svg PUBLIC "-//W3C//DTD SVG 1.1//EN" "http://www.w3.org/Graphics/SVG/1.1/DTD/svg11.dtd">
<svg version="1.1" id="Layer_1" xmlns="http://www.w3.org/2000/svg" xmlns:xlink="http://www.w3.org/1999/xlink" x="0px" y="0px"
	 width="48px" height="56px" viewBox="0 0 48 56" style="enable-background:new 0 0 48 56;" xml:space="preserve">
<g id="_x31_213-document-checked_x40_2x.png">
	<g>
		<path d="M37,34c-6.075,0-11,4.925-11,11s4.925,11,11,11s11-4.925,11-11S43.075,34,37,34z M36.629,48.786l-0.016-0.016
			C36.442,48.906,36.235,49,36,49s-0.442-0.094-0.613-0.229l-0.016,0.016l-4.157-4.157l1.415-1.414L36,46.586l5.871-5.871
			l1.415,1.414L36.629,48.786z M24,0.586V14h13.414L24,0.586z M37,32c0.337,0,0.669,0.025,1,0.051V16H23c-0.552,0-1-0.447-1-1V0H2
			C0.896,0,0,0.896,0,2v44c0,1.104,0.896,2,2,2h22.362C24.134,47.035,24,46.034,24,45C24,37.82,29.82,32,37,32z"/>
	</g>
</g>
<g>
</g>
<g>
</g>
<g>
</g>
<g>
</g>
<g>
</g>
<g>
</g>
<g>
</g>
<g>
</g>
<g>
</g>
<g>
</g>
<g>
</g>
<g>
</g>
<g>
</g>
<g>
</g>
<g>
</g>
</svg>
