<?xml version="1.0" encoding="iso-8859-1"?>
<!-- Generator: Adobe Illustrator 16.0.4, SVG Export Plug-In . SVG Version: 6.00 Build 0)  -->
<!DOCTYPE svg PUBLIC "-//W3C//DTD SVG 1.1//EN" "http://www.w3.org/Graphics/SVG/1.1/DTD/svg11.dtd">
<svg version="1.1" id="Layer_1" xmlns="http://www.w3.org/2000/svg" xmlns:xlink="http://www.w3.org/1999/xlink" x="0px" y="0px"
	 width="56px" height="44px" viewBox="0 0 56 44" style="enable-background:new 0 0 56 44;" xml:space="preserve">
<g id="_x31_217-folder-minus_x40_2x.png">
	<g>
		<path d="M46,8c0-2.209-1.791-4-4-4h-3c0,0-16.047,0-18,0c-4,0-5-4-10-4c-0.492,0-7,0-7,0C1.791,0,0,1.791,0,4v6h46V8z M45,20
			c0.338,0,0.669,0.025,1,0.051V12H0v22c0,2.21,1.791,4,4,4h29c-0.643-1.539-1-3.228-1-5C32,25.82,37.82,20,45,20z M45,22
			c-6.075,0-11,4.925-11,11s4.925,11,11,11s11-4.925,11-11S51.075,22,45,22z M50,34H40v-2h10V34z"/>
	</g>
</g>
<g>
</g>
<g>
</g>
<g>
</g>
<g>
</g>
<g>
</g>
<g>
</g>
<g>
</g>
<g>
</g>
<g>
</g>
<g>
</g>
<g>
</g>
<g>
</g>
<g>
</g>
<g>
</g>
<g>
</g>
</svg>
