<?xml version="1.0" encoding="iso-8859-1"?>
<!-- Generator: Adobe Illustrator 16.0.4, SVG Export Plug-In . SVG Version: 6.00 Build 0)  -->
<!DOCTYPE svg PUBLIC "-//W3C//DTD SVG 1.1//EN" "http://www.w3.org/Graphics/SVG/1.1/DTD/svg11.dtd">
<svg version="1.1" id="Layer_1" xmlns="http://www.w3.org/2000/svg" xmlns:xlink="http://www.w3.org/1999/xlink" x="0px" y="0px"
	 width="56px" height="52px" viewBox="0 0 56 52" style="enable-background:new 0 0 56 52;" xml:space="preserve">
<g id="_x31_222-basket-minus_x40_2x.png">
	<g>
		<path d="M30.2,1.6l12,16l0.014-0.01C42.396,17.833,42.673,18,43,18c0.552,0,1-0.447,1-1c0-0.225-0.088-0.423-0.214-0.59L43.8,16.4
			l-12-16L31,1l0.786-0.59C31.604,0.168,31.327,0,31,0c-0.552,0-1,0.447-1,1c0,0.226,0.088,0.423,0.214,0.59L30.2,1.6z
			 M40.608,18.794L40.6,18.8L35.5,12h-15l-5.1,6.8l-0.008-0.006C14.845,19.521,13.982,20,13.001,20h29.998
			C42.018,20,41.155,19.521,40.608,18.794z M45.392,15.206C45.769,15.708,46,16.324,46,17c0,1.656-1.342,2.999-2.999,3H52l2-6h1
			c0.552,0,1-0.447,1-1s-0.448-1-1-1h-3h-9l2.4,3.2L45.392,15.206z M10,17c0-0.676,0.231-1.292,0.608-1.794L10.6,15.2L13,12H4H1
			c-0.552,0-1,0.447-1,1s0.448,1,1,1h1l2,6h8.999C11.343,19.999,10,18.656,10,17z M45,30c-6.075,0-11,4.925-11,11s4.925,11,11,11
			s11-4.925,11-11S51.075,30,45,30z M50,42H40v-2h10V42z M12.214,16.41C12.088,16.577,12,16.775,12,17c0,0.553,0.448,1,1,1
			c0.327,0,0.604-0.167,0.786-0.41L13.8,17.6l12-16l-0.014-0.01C25.912,1.423,26,1.226,26,1c0-0.553-0.448-1-1-1
			c-0.327,0-0.604,0.168-0.786,0.41L24.2,0.4l-12,16L12.214,16.41z M35,27v5.696c1.101-1.323,2.461-2.419,4-3.222V27
			c0-0.553,0.448-1,1-1s1,0.447,1,1v1.634C42.261,28.226,43.604,28,45,28c1.823,0,3.557,0.379,5.131,1.056
			c0.268-2.726,0.512-5.354,0.667-7.056H5.202c0.398,4.347,1.375,14.819,1.837,17.191C7.67,42.427,9.298,44,12.016,44h20.346
			C32.134,43.035,32,42.034,32,41c0-1.772,0.357-3.461,1-5.001V27c0-0.553,0.448-1,1-1S35,26.447,35,27z M17,37c0,0.553-0.448,1-1,1
			s-1-0.447-1-1V27c0-0.553,0.448-1,1-1s1,0.447,1,1V37z M23,37c0,0.553-0.448,1-1,1s-1-0.447-1-1V27c0-0.553,0.448-1,1-1
			s1,0.447,1,1V37z M29,37c0,0.553-0.448,1-1,1s-1-0.447-1-1V27c0-0.553,0.448-1,1-1s1,0.447,1,1V37z"/>
	</g>
</g>
<g>
</g>
<g>
</g>
<g>
</g>
<g>
</g>
<g>
</g>
<g>
</g>
<g>
</g>
<g>
</g>
<g>
</g>
<g>
</g>
<g>
</g>
<g>
</g>
<g>
</g>
<g>
</g>
<g>
</g>
</svg>
