<?xml version="1.0" encoding="iso-8859-1"?>
<!-- Generator: Adobe Illustrator 16.0.4, SVG Export Plug-In . SVG Version: 6.00 Build 0)  -->
<!DOCTYPE svg PUBLIC "-//W3C//DTD SVG 1.1//EN" "http://www.w3.org/Graphics/SVG/1.1/DTD/svg11.dtd">
<svg version="1.1" id="Layer_1" xmlns="http://www.w3.org/2000/svg" xmlns:xlink="http://www.w3.org/1999/xlink" x="0px" y="0px"
	 width="56px" height="52px" viewBox="0 0 56 52" style="enable-background:new 0 0 56 52;" xml:space="preserve">
<g id="_x31_226-chat-plus_x40_2x.png">
	<g>
		<path d="M45,28c3.229,0,6.177,1.185,8.45,3.133C55.072,28.349,56,25.263,56,22C56,9.85,43.464,0,28,0S0,9.85,0,22
			c0,7.502,4.787,14.119,12.084,18.09C11.612,42.93,10.019,46.383,6,50c0,0,10.487-0.005,16.273-6.464
			C24.122,43.838,26.037,44,28,44c1.462,0,2.887-0.114,4.289-0.284C32.103,42.839,32,41.932,32,41C32,33.82,37.82,28,45,28z M45,30
			c-6.075,0-11,4.925-11,11s4.925,11,11,11s11-4.925,11-11S51.075,30,45,30z M50,42h-4v4h-2v-4h-4v-2h4v-4h2v4h4V42z"/>
	</g>
</g>
<g>
</g>
<g>
</g>
<g>
</g>
<g>
</g>
<g>
</g>
<g>
</g>
<g>
</g>
<g>
</g>
<g>
</g>
<g>
</g>
<g>
</g>
<g>
</g>
<g>
</g>
<g>
</g>
<g>
</g>
</svg>
