<?xml version="1.0" encoding="iso-8859-1"?>
<!-- Generator: Adobe Illustrator 16.0.4, SVG Export Plug-In . SVG Version: 6.00 Build 0)  -->
<!DOCTYPE svg PUBLIC "-//W3C//DTD SVG 1.1//EN" "http://www.w3.org/Graphics/SVG/1.1/DTD/svg11.dtd">
<svg version="1.1" id="Layer_1" xmlns="http://www.w3.org/2000/svg" xmlns:xlink="http://www.w3.org/1999/xlink" x="0px" y="0px"
	 width="48.009px" height="56.036px" viewBox="0 0 48.009 56.036" style="enable-background:new 0 0 48.009 56.036;"
	 xml:space="preserve">
<g id="_x31_233-user-checked_x40_2x.png">
	<g>
		<path d="M30.088,34.045C29.351,33.413,29,32.532,29,30.385c0-4.363,3.574-7.18,3.607-7.206l0.188-0.144l0.104-0.211
			c1.198-2.451,0.612-4.518,0.213-5.448c2.605-5.775-0.548-10.553-1.217-11.466C30.199,1.03,26.582,0,23.832,0
			c-3.261,0-6.157,1.43-6.203,1.456c-3.017,1.207-5.074,3.133-6.114,5.724c-1.68,4.184-0.156,8.779,0.396,10.19
			c-1.354,3.269,0.207,5.501,0.276,5.599l0.21,0.215C12.434,23.21,16,25.968,16,30.385c0,4.28-2.346,4.687-5.316,5.677l-0.389,0.128
			C6.953,37.289,0,39.576,0,47.011v0.999h24.364c-0.224-0.956-0.355-1.948-0.355-2.974C24.009,40.403,26.44,36.348,30.088,34.045z
			 M37.009,34.036c-6.075,0-11,4.925-11,11s4.925,11,11,11s11-4.925,11-11S43.084,34.036,37.009,34.036z M36.638,48.822
			l-0.016-0.016c-0.171,0.136-0.378,0.229-0.613,0.229s-0.442-0.094-0.613-0.229l-0.016,0.016l-4.157-4.157l1.415-1.414l3.371,3.371
			l5.871-5.871l1.415,1.414L36.638,48.822z"/>
	</g>
</g>
<g>
</g>
<g>
</g>
<g>
</g>
<g>
</g>
<g>
</g>
<g>
</g>
<g>
</g>
<g>
</g>
<g>
</g>
<g>
</g>
<g>
</g>
<g>
</g>
<g>
</g>
<g>
</g>
<g>
</g>
</svg>
