<?xml version="1.0" encoding="iso-8859-1"?>
<!-- Generator: Adobe Illustrator 16.0.4, SVG Export Plug-In . SVG Version: 6.00 Build 0)  -->
<!DOCTYPE svg PUBLIC "-//W3C//DTD SVG 1.1//EN" "http://www.w3.org/Graphics/SVG/1.1/DTD/svg11.dtd">
<svg version="1.1" id="Layer_1" xmlns="http://www.w3.org/2000/svg" xmlns:xlink="http://www.w3.org/1999/xlink" x="0px" y="0px"
	 width="56.009px" height="56.036px" viewBox="0 0 56.009 56.036" style="enable-background:new 0 0 56.009 56.036;"
	 xml:space="preserve">
<g id="_x31_237-group-minus_x40_2x.png">
	<g>
		<path d="M35.238,17.084c0.439,1.445,0.696,3.702-0.562,6.274l-0.31,0.635l-0.562,0.43c-0.006,0.006-1.363,1.127-2.193,2.928
			c0.051,0.332,0.1,0.666,0.1,1.025c0,1.298-0.252,2.199-0.688,2.872c0.111,1.194,0.513,1.444,1.881,2.234
			c0.537,0.31,1.119,0.647,1.741,1.062c0.396,0.264,0.995,0.552,1.658,0.855c2.194-1.983,5.063-3.225,8.227-3.34
			c-0.968-0.686-1.391-1.449-1.391-3.685c0-3.683,3.002-6.068,3.029-6.09l0.188-0.146l0.104-0.213
			c1.024-2.11,0.562-3.904,0.21-4.759c2.197-4.984-0.459-9.11-1.07-9.958c-1.483-4.271-4.637-5.174-7.037-5.174
			c-2.824,0-5.336,1.247-5.364,1.266c-0.037,0.016-0.069,0.033-0.105,0.048c0.206,0.416,0.406,0.838,0.576,1.296
			C34.706,6.173,37.518,11.124,35.238,17.084z M45.009,34.036c-6.075,0-11,4.925-11,11s4.925,11,11,11s11-4.925,11-11
			S51.084,34.036,45.009,34.036z M50.009,46.036h-10v-2h10V46.036z M34.878,36.899c-0.498-0.239-0.956-0.477-1.323-0.722
			c-0.583-0.389-1.129-0.704-1.632-0.995C29.916,34.023,29,33.869,29,30.385c0-4.363,3.574-7.18,3.607-7.206l0.188-0.144
			l0.104-0.211c1.198-2.451,0.612-4.518,0.213-5.448c2.605-5.775-0.548-10.553-1.217-11.466C30.199,1.03,26.582,0,23.832,0
			c-3.261,0-6.157,1.43-6.203,1.456c-3.017,1.207-5.074,3.133-6.114,5.724c-1.68,4.184-0.156,8.779,0.396,10.19
			c-1.354,3.269,0.207,5.501,0.276,5.599l0.21,0.215C12.434,23.21,16,25.968,16,30.385c0,4.28-2.346,4.687-5.316,5.677l-0.389,0.128
			C6.953,37.289,0,39.576,0,47.011v0.999h32.364c-0.225-0.956-0.355-1.948-0.355-2.974C32.009,41.955,33.087,39.128,34.878,36.899z"
			/>
	</g>
</g>
<g>
</g>
<g>
</g>
<g>
</g>
<g>
</g>
<g>
</g>
<g>
</g>
<g>
</g>
<g>
</g>
<g>
</g>
<g>
</g>
<g>
</g>
<g>
</g>
<g>
</g>
<g>
</g>
<g>
</g>
</svg>
