<?xml version="1.0" encoding="iso-8859-1"?>
<!-- Generator: Adobe Illustrator 16.0.4, SVG Export Plug-In . SVG Version: 6.00 Build 0)  -->
<!DOCTYPE svg PUBLIC "-//W3C//DTD SVG 1.1//EN" "http://www.w3.org/Graphics/SVG/1.1/DTD/svg11.dtd">
<svg version="1.1" id="Layer_1" xmlns="http://www.w3.org/2000/svg" xmlns:xlink="http://www.w3.org/1999/xlink" x="0px" y="0px"
	 width="56px" height="56px" viewBox="0 0 56 56" style="enable-background:new 0 0 56 56;" xml:space="preserve">
<g id="_x31_245-rewind_x40_2x.png">
	<g>
		<path d="M28,0C12.536,0,0,12.536,0,28s12.536,28,28,28s28-12.536,28-28S43.464,0,28,0z M42,39c0,0.553-0.448,1-1,1
			c-0.239,0-0.449-0.096-0.621-0.235l-0.009,0.012L28,31.272V39c0,0.553-0.448,1-1,1c-0.239,0-0.449-0.096-0.621-0.235l-0.009,0.012
			l-16-11l0.009-0.012C10.153,28.582,10,28.313,10,28s0.153-0.581,0.378-0.765l-0.009-0.011l16-11l0.009,0.011
			C26.55,16.096,26.761,16,27,16c0.552,0,1,0.447,1,1v7.729l12.37-8.504l0.009,0.011C40.55,16.096,40.761,16,41,16
			c0.552,0,1,0.447,1,1V39z"/>
	</g>
</g>
<g>
</g>
<g>
</g>
<g>
</g>
<g>
</g>
<g>
</g>
<g>
</g>
<g>
</g>
<g>
</g>
<g>
</g>
<g>
</g>
<g>
</g>
<g>
</g>
<g>
</g>
<g>
</g>
<g>
</g>
</svg>
