<?xml version="1.0" encoding="iso-8859-1"?>
<!-- Generator: Adobe Illustrator 16.0.4, SVG Export Plug-In . SVG Version: 6.00 Build 0)  -->
<!DOCTYPE svg PUBLIC "-//W3C//DTD SVG 1.1//EN" "http://www.w3.org/Graphics/SVG/1.1/DTD/svg11.dtd">
<svg version="1.1" id="Layer_1" xmlns="http://www.w3.org/2000/svg" xmlns:xlink="http://www.w3.org/1999/xlink" x="0px" y="0px"
	 width="56px" height="56px" viewBox="0 0 56 56" style="enable-background:new 0 0 56 56;" xml:space="preserve">
<g id="_x31_246-fast-forward_x40_2x.png">
	<g>
		<path d="M28,0C12.536,0,0,12.536,0,28s12.536,28,28,28s28-12.536,28-28S43.464,0,28,0z M45.621,28.765l0.01,0.012l-16,11
			l-0.01-0.012C29.449,39.904,29.239,40,29,40c-0.552,0-1-0.447-1-1v-7.728l-12.369,8.504l-0.01-0.012
			C15.449,39.904,15.239,40,15,40c-0.552,0-1-0.447-1-1V17c0-0.553,0.447-1,1-1c0.239,0,0.449,0.096,0.621,0.235l0.01-0.011
			L28,24.729V17c0-0.553,0.447-1,1-1c0.239,0,0.449,0.096,0.621,0.235l0.01-0.011l16,11l-0.01,0.011C45.847,27.419,46,27.687,46,28
			S45.847,28.582,45.621,28.765z"/>
	</g>
</g>
<g>
</g>
<g>
</g>
<g>
</g>
<g>
</g>
<g>
</g>
<g>
</g>
<g>
</g>
<g>
</g>
<g>
</g>
<g>
</g>
<g>
</g>
<g>
</g>
<g>
</g>
<g>
</g>
<g>
</g>
</svg>
