<?xml version="1.0" encoding="iso-8859-1"?>
<!-- Generator: Adobe Illustrator 16.0.4, SVG Export Plug-In . SVG Version: 6.00 Build 0)  -->
<!DOCTYPE svg PUBLIC "-//W3C//DTD SVG 1.1//EN" "http://www.w3.org/Graphics/SVG/1.1/DTD/svg11.dtd">
<svg version="1.1" id="Layer_1" xmlns="http://www.w3.org/2000/svg" xmlns:xlink="http://www.w3.org/1999/xlink" x="0px" y="0px"
	 width="56px" height="56px" viewBox="0 0 56 56" style="enable-background:new 0 0 56 56;" xml:space="preserve">
<g id="_x31_249-slowmo_x40_2x.png">
	<g>
		<path d="M28,0C12.536,0,0,12.536,0,28s12.536,28,28,28s28-12.536,28-28S43.464,0,28,0z M24,39c0,0.553-0.447,1-1,1h-6
			c-0.553,0-1-0.447-1-1V17c0-0.553,0.447-1,1-1h0.001h5.998H23c0.553,0,1,0.447,1,1V39z M43.621,28.765l0.01,0.012l-16,11
			l-0.01-0.012C27.449,39.904,27.239,40,27,40c-0.552,0-1-0.447-1-1V17c0-0.553,0.447-1,1-1c0.239,0,0.449,0.096,0.621,0.235
			l0.01-0.011l16,11l-0.01,0.011C43.847,27.419,44,27.687,44,28S43.847,28.582,43.621,28.765z"/>
	</g>
</g>
<g>
</g>
<g>
</g>
<g>
</g>
<g>
</g>
<g>
</g>
<g>
</g>
<g>
</g>
<g>
</g>
<g>
</g>
<g>
</g>
<g>
</g>
<g>
</g>
<g>
</g>
<g>
</g>
<g>
</g>
</svg>
