<?xml version="1.0" encoding="iso-8859-1"?>
<!-- Generator: Adobe Illustrator 16.0.4, SVG Export Plug-In . SVG Version: 6.00 Build 0)  -->
<!DOCTYPE svg PUBLIC "-//W3C//DTD SVG 1.1//EN" "http://www.w3.org/Graphics/SVG/1.1/DTD/svg11.dtd">
<svg version="1.1" id="Layer_1" xmlns="http://www.w3.org/2000/svg" xmlns:xlink="http://www.w3.org/1999/xlink" x="0px" y="0px"
	 width="56px" height="56px" viewBox="0 0 56 56" style="enable-background:new 0 0 56 56;" xml:space="preserve">
<g id="_x31_250-eject_x40_2x.png">
	<g>
		<path d="M28,0C12.536,0,0,12.536,0,28s12.536,28,28,28s28-12.536,28-28S43.464,0,28,0z M40,37c0,0.553-0.447,1-1,1H17
			c-0.553,0-1-0.447-1-1c0,0,0,0,0-0.001v-5.998V31c0-0.553,0.447-1,1-1h22c0.553,0,1,0.447,1,1V37z M39,28H17c-0.553,0-1-0.447-1-1
			c0-0.238,0.096-0.449,0.235-0.621l-0.012-0.01l0.065-0.071c0.003-0.002,0.005-0.005,0.007-0.007l10.928-11.922l0.012,0.01
			C27.419,14.153,27.687,14,28,14s0.582,0.153,0.765,0.379l0.012-0.01l10.929,11.923c0.002,0.001,0.003,0.003,0.005,0.005
			l0.066,0.072l-0.012,0.01C39.904,26.551,40,26.762,40,27C40,27.553,39.553,28,39,28z"/>
	</g>
</g>
<g>
</g>
<g>
</g>
<g>
</g>
<g>
</g>
<g>
</g>
<g>
</g>
<g>
</g>
<g>
</g>
<g>
</g>
<g>
</g>
<g>
</g>
<g>
</g>
<g>
</g>
<g>
</g>
<g>
</g>
</svg>
