<?xml version="1.0" encoding="iso-8859-1"?>
<!-- Generator: Adobe Illustrator 16.0.4, SVG Export Plug-In . SVG Version: 6.00 Build 0)  -->
<!DOCTYPE svg PUBLIC "-//W3C//DTD SVG 1.1//EN" "http://www.w3.org/Graphics/SVG/1.1/DTD/svg11.dtd">
<svg version="1.1" id="Layer_1" xmlns="http://www.w3.org/2000/svg" xmlns:xlink="http://www.w3.org/1999/xlink" x="0px" y="0px"
	 width="56px" height="56px" viewBox="0 0 56 56" style="enable-background:new 0 0 56 56;" xml:space="preserve">
<g id="_x31_251-amazon_x40_2x.png">
	<g>
		<path d="M28,0C12.536,0,0,12.536,0,28s12.536,28,28,28s28-12.536,28-28S43.464,0,28,0z M27.032,15.213
			c-1.625,0-2.731,1.028-3.013,2.421c-0.075,0.354-0.458,0.62-0.832,0.578l-3.905-0.425c-0.209-0.022-0.406-0.134-0.53-0.297
			c-0.124-0.163-0.172-0.377-0.129-0.572c0.939-4.424,4.581-5.785,8.409-5.912c6.39,0,9.947,2.066,9.947,5.641v9.919
			c0,0.744-0.168,2.054,0.065,2.351l1.112,1.447c0.213,0.281,0.171,0.712-0.091,0.952l-3.134,2.865
			c-0.147,0.134-0.352,0.207-0.555,0.201c-0.203-0.01-0.402-0.099-0.538-0.243l-2.408-2.562c-1.674,1.785-3.883,2.821-6.416,2.945
			c-4.253,0.211-7.369-1.927-7.295-6.414c0.08-4.872,3.876-7.414,7.955-7.712l4.824-0.348v-2.07
			C30.5,16.4,29.452,15.213,27.032,15.213z M41.789,40.004c-2.505,2.244-6.887,4.648-12.682,4.958
			c-0.411,0.022-0.818,0.033-1.224,0.033c0,0,0,0,0,0c-6.647,0-12.586-2.832-17.65-8.419c-0.258-0.286-0.301-0.68-0.105-0.938
			c0.113-0.153,0.265-0.233,0.447-0.233c0.167,0,0.342,0.064,0.591,0.216c0.372,0.229,0.71,0.458,0.917,0.597l0.157,0.104
			c4.873,3.146,10.413,4.808,16.024,4.808c0.001,0,0.001,0,0.001,0c4.511,0,8.283-0.716,12.399-2.775
			c0.293-0.146,0.599-0.227,0.862-0.227c0.305,0,0.554,0.108,0.703,0.305C42.533,38.83,42.343,39.506,41.789,40.004z M43.962,42.595
			c-0.003,0.005-0.504,0.514-0.958,0.514c-0.174,0-0.328-0.075-0.427-0.206c-0.153-0.203-0.15-0.486,0.007-0.95
			c0.456-1.33,0.625-2.129,0.905-3.54c0.092-0.471,0.18-1.035,0.03-1.233c-0.025-0.031-0.096-0.125-0.432-0.159
			c-0.27-0.029-0.556-0.041-0.854-0.041c-0.652,0-1.377,0.057-2.147,0.115l-0.275,0.021c-0.113,0.01-0.216,0.014-0.309,0.014
			c-0.188,0-0.686,0-0.839-0.378c-0.162-0.399,0.26-0.777,0.44-0.939c1.054-0.942,2.798-1.278,4.075-1.278
			c0.574,0,1.975,0.072,2.562,0.73C46.55,36.17,45.37,41.035,43.962,42.595z M23.916,27.232c-0.06,1.914,1.51,3.709,3.926,3.013
			c1.226-0.352,2.709-2.172,2.709-4.31v-2.753l-2.457,0.089C26.216,23.342,23.991,24.814,23.916,27.232z"/>
	</g>
</g>
<g>
</g>
<g>
</g>
<g>
</g>
<g>
</g>
<g>
</g>
<g>
</g>
<g>
</g>
<g>
</g>
<g>
</g>
<g>
</g>
<g>
</g>
<g>
</g>
<g>
</g>
<g>
</g>
<g>
</g>
</svg>
