<?xml version="1.0" encoding="iso-8859-1"?>
<!-- Generator: Adobe Illustrator 16.0.4, SVG Export Plug-In . SVG Version: 6.00 Build 0)  -->
<!DOCTYPE svg PUBLIC "-//W3C//DTD SVG 1.1//EN" "http://www.w3.org/Graphics/SVG/1.1/DTD/svg11.dtd">
<svg version="1.1" id="Layer_1" xmlns="http://www.w3.org/2000/svg" xmlns:xlink="http://www.w3.org/1999/xlink" x="0px" y="0px"
	 width="56px" height="56px" viewBox="0 0 56 56" style="enable-background:new 0 0 56 56;" xml:space="preserve">
<g id="_x31_252-apple_x40_2x.png">
	<g>
		<path d="M28,0C12.536,0,0,12.536,0,28s12.536,28,28,28s28-12.536,28-28S43.464,0,28,0z M29.896,11.606
			c1.264-1.448,3.397-2.523,5.16-2.593c0.226,2.006-0.601,4.02-1.823,5.468c-1.225,1.447-3.23,2.574-5.197,2.425
			C27.771,14.938,28.761,12.891,29.896,11.606z M38.789,38.076c-1.331,1.939-2.704,3.876-4.878,3.915
			c-2.14,0.04-2.833-1.196-5.279-1.196c-2.444,0-3.334,1.116-5.357,1.196c-2.098,0.079-3.571-2.061-4.913-3.992
			c-2.743-3.952-4.839-11.795-2.023-16.666c1.395-2.419,3.894-3.95,6.606-3.99c2.061-0.037,4.008,1.386,5.266,1.386
			c1.263,0,3.629-1.711,6.113-1.46c1.042,0.043,3.963,0.418,5.84,3.153c-0.149,0.097-3.489,2.03-3.447,6.062
			c0.043,4.814,4.236,6.416,4.285,6.438C40.963,33.032,40.328,35.832,38.789,38.076z"/>
	</g>
</g>
<g>
</g>
<g>
</g>
<g>
</g>
<g>
</g>
<g>
</g>
<g>
</g>
<g>
</g>
<g>
</g>
<g>
</g>
<g>
</g>
<g>
</g>
<g>
</g>
<g>
</g>
<g>
</g>
<g>
</g>
</svg>
