<?xml version="1.0" encoding="iso-8859-1"?>
<!-- Generator: Adobe Illustrator 16.0.4, SVG Export Plug-In . SVG Version: 6.00 Build 0)  -->
<!DOCTYPE svg PUBLIC "-//W3C//DTD SVG 1.1//EN" "http://www.w3.org/Graphics/SVG/1.1/DTD/svg11.dtd">
<svg version="1.1" id="Layer_1" xmlns="http://www.w3.org/2000/svg" xmlns:xlink="http://www.w3.org/1999/xlink" x="0px" y="0px"
	 width="56px" height="56px" viewBox="0 0 56 56" style="enable-background:new 0 0 56 56;" xml:space="preserve">
<g id="_x31_253-audioscrobbler_x40_2x.png">
	<g>
		<path d="M28,0C12.536,0,0,12.536,0,28s12.536,28,28,28s28-12.536,28-28S43.464,0,28,0z M39.757,39.989
			c0,0-5.935,0.541-8.706-6.961c-1.629-2.917-2.041-13.033-10.313-13.033c-4.583,0-7.686,3.331-7.686,8.005s3.103,8.006,7.686,8.006
			c2.924,0,5.489-1.088,6.968-3.418l2.104,3.002c-2.15,2.682-5.408,4.399-9.071,4.399c-6.494,0-11.757-5.368-11.757-11.989
			s5.264-11.989,11.757-11.989c5.344,0,9.957,3.993,11.277,8.617c1.394,3.362,1.818,10.018,6.833,11.368
			c-0.011,0.063,4.119,1.117,4.119-3.06c0-3.07-3.21-3.526-3.21-3.526s-6.358-1.053-6.358-6.741c0-3.7,2.575-6.658,6.013-6.658
			c2.501,0,5.204,1.26,6.193,4.341l-3.569,1.759c-0.489-1.099-1.018-2.157-2.278-2.157c-1.719,0-2.306,1.047-2.306,2.8
			c0,2.542,2.349,2.841,2.349,2.841s2.505,0.635,4.203,1.63c0.906,0.636,1.656,1.47,2.181,2.437c0.66,1.382,0.835,3.276,0.835,3.276
			C47.02,36.832,43.768,39.989,39.757,39.989z"/>
	</g>
</g>
<g>
</g>
<g>
</g>
<g>
</g>
<g>
</g>
<g>
</g>
<g>
</g>
<g>
</g>
<g>
</g>
<g>
</g>
<g>
</g>
<g>
</g>
<g>
</g>
<g>
</g>
<g>
</g>
<g>
</g>
</svg>
