<?xml version="1.0" encoding="iso-8859-1"?>
<!-- Generator: Adobe Illustrator 16.0.4, SVG Export Plug-In . SVG Version: 6.00 Build 0)  -->
<!DOCTYPE svg PUBLIC "-//W3C//DTD SVG 1.1//EN" "http://www.w3.org/Graphics/SVG/1.1/DTD/svg11.dtd">
<svg version="1.1" id="Layer_1" xmlns="http://www.w3.org/2000/svg" xmlns:xlink="http://www.w3.org/1999/xlink" x="0px" y="0px"
	 width="56px" height="56px" viewBox="0 0 56 56" style="enable-background:new 0 0 56 56;" xml:space="preserve">
<g id="_x31_254-basecamp_x40_2x.png">
	<g>
		<path d="M44.227,35.14c-0.012-0.048-0.014-0.098-0.031-0.146c-0.401-1.928-2.432-9.125-11.132-14.494
			c-2.532,0-7.596,7.5-8.862,7.5c-1.266,0-3.798-3.75-5.064-3.75c0,0-7.427,6.25-7.427,11.25c0,2.644,7.293,4.786,16.289,4.786
			s16.289-2.143,16.289-4.786c0,0,0-0.001,0-0.002C44.288,35.495,44.271,35.365,44.227,35.14z M28,0C12.536,0,0,12.536,0,28
			s12.536,28,28,28s28-12.536,28-28S43.464,0,28,0z M28,43c-10.488,0-18.991-3.357-18.991-7.5c0-0.365,0.089-0.723,0.217-1.075
			C10.209,29.958,14.808,13,28,13s17.791,16.958,18.773,21.425c0.128,0.353,0.217,0.71,0.217,1.075C46.991,39.643,38.488,43,28,43z"
			/>
	</g>
</g>
<g>
</g>
<g>
</g>
<g>
</g>
<g>
</g>
<g>
</g>
<g>
</g>
<g>
</g>
<g>
</g>
<g>
</g>
<g>
</g>
<g>
</g>
<g>
</g>
<g>
</g>
<g>
</g>
<g>
</g>
</svg>
