<?xml version="1.0" encoding="iso-8859-1"?>
<!-- Generator: Adobe Illustrator 16.0.4, SVG Export Plug-In . SVG Version: 6.00 Build 0)  -->
<!DOCTYPE svg PUBLIC "-//W3C//DTD SVG 1.1//EN" "http://www.w3.org/Graphics/SVG/1.1/DTD/svg11.dtd">
<svg version="1.1" id="Layer_1" xmlns="http://www.w3.org/2000/svg" xmlns:xlink="http://www.w3.org/1999/xlink" x="0px" y="0px"
	 width="56px" height="56px" viewBox="0 0 56 56" style="enable-background:new 0 0 56 56;" xml:space="preserve">
<g id="_x31_255-blogger_x40_2x.png">
	<g>
		<path d="M33.734,32H22.35c-1.069,0-1.935,0.94-1.935,2c0,1.045,0.866,2,1.935,2h11.384c1.062,0,1.926-0.955,1.926-2
			C35.66,32.94,34.797,32,33.734,32z M22.35,24h5.603c1.068,0,1.934-0.947,1.934-2.005S29.021,20,27.953,20H22.35
			c-1.069,0-1.935,0.938-1.935,1.995S21.281,24,22.35,24z M28,0C12.536,0,0,12.536,0,28s12.536,28,28,28s28-12.536,28-28
			S43.464,0,28,0z M43.936,33.908C43.906,39.456,39.391,44,33.831,44H22.221C16.663,44,12,39.456,12,33.908V22.113
			C12,16.554,16.663,12,22.221,12h7.066c2.608,0.311,6.406,2.546,7.806,5.518c0.384,0.834,0.587,0.962,0.906,3.434
			c0.172,1.271,0.259,2.213,0.828,2.735c0.799,0.727,3.771,0.237,4.359,0.696l0.449,0.354l0.27,0.556L44,25.738L43.936,33.908z"/>
	</g>
</g>
<g>
</g>
<g>
</g>
<g>
</g>
<g>
</g>
<g>
</g>
<g>
</g>
<g>
</g>
<g>
</g>
<g>
</g>
<g>
</g>
<g>
</g>
<g>
</g>
<g>
</g>
<g>
</g>
<g>
</g>
</svg>
