<?xml version="1.0" encoding="iso-8859-1"?>
<!-- Generator: Adobe Illustrator 16.0.4, SVG Export Plug-In . SVG Version: 6.00 Build 0)  -->
<!DOCTYPE svg PUBLIC "-//W3C//DTD SVG 1.1//EN" "http://www.w3.org/Graphics/SVG/1.1/DTD/svg11.dtd">
<svg version="1.1" id="Layer_1" xmlns="http://www.w3.org/2000/svg" xmlns:xlink="http://www.w3.org/1999/xlink" x="0px" y="0px"
	 width="56px" height="56px" viewBox="0 0 56 56" style="enable-background:new 0 0 56 56;" xml:space="preserve">
<g id="_x31_256-blogger_x40_2x.png">
	<g>
		<path d="M14.777,30.5h1.26v-5h-1.26V30.5z M31.148,25.5h-1.26v5h1.26V25.5z M28,0C12.536,0,0,12.536,0,28s12.536,28,28,28
			s28-12.536,28-28S43.464,0,28,0z M19.971,33H11V22h5.006v-4h3.965V33z M24.977,33h-3.902V22h3.902V33z M24.977,20.5h-3.902V18
			h3.902V20.5z M34.988,33v5h-1.321h-2.519h-5.162v-3.75h5.162V33h-5.162V22h9.002V33z M45,33v5h-1.259h-2.519h-5.225v-3.75h5.225
			V33h-5.225V22H45V33z M41.223,25.5h-1.26v5h1.26V25.5z"/>
	</g>
</g>
<g>
</g>
<g>
</g>
<g>
</g>
<g>
</g>
<g>
</g>
<g>
</g>
<g>
</g>
<g>
</g>
<g>
</g>
<g>
</g>
<g>
</g>
<g>
</g>
<g>
</g>
<g>
</g>
<g>
</g>
</svg>
