<?xml version="1.0" encoding="iso-8859-1"?>
<!-- Generator: Adobe Illustrator 16.0.4, SVG Export Plug-In . SVG Version: 6.00 Build 0)  -->
<!DOCTYPE svg PUBLIC "-//W3C//DTD SVG 1.1//EN" "http://www.w3.org/Graphics/SVG/1.1/DTD/svg11.dtd">
<svg version="1.1" id="Layer_1" xmlns="http://www.w3.org/2000/svg" xmlns:xlink="http://www.w3.org/1999/xlink" x="0px" y="0px"
	 width="56px" height="56px" viewBox="0 0 56 56" style="enable-background:new 0 0 56 56;" xml:space="preserve">
<g id="_x31_257-dribbble_x40_2x.png">
	<g>
		<path d="M26.953,21.898c-3.137-5.519-6.515-10.155-7.013-10.833c-5.248,2.5-9.159,7.358-10.354,13.19
			C10.427,24.264,18.171,24.267,26.953,21.898z M33.294,26.257c0.14,0.324,0.275,0.646,0.408,0.968
			c6.251-0.812,12.47,0.423,13.09,0.552c-0.06-4.433-1.661-8.496-4.292-11.681c-0.394,0.536-3.526,4.583-10.465,7.445
			C32.477,24.435,32.899,25.343,33.294,26.257z M40.402,13.932c-3.331-2.929-7.703-4.701-12.479-4.682
			c-1.517,0.006-2.99,0.193-4.402,0.539c0.522,0.693,3.955,5.324,7.058,10.966C37.252,18.225,40.066,14.414,40.402,13.932z
			 M29.314,28.188c0.245-0.08,0.492-0.155,0.74-0.227c-0.477-1.064-0.994-2.131-1.537-3.181c-9.375,2.845-18.482,2.764-19.306,2.75
			c-0.005,0.19-0.008,0.382-0.007,0.574c0.02,4.823,1.867,9.22,4.883,12.537C14.511,39.911,19.635,31.357,29.314,28.188z M28,0
			C12.536,0,0,12.536,0,28s12.536,28,28,28s28-12.536,28-28S43.464,0,28,0z M28.09,49.986C15.956,50.035,6.045,40.211,5.996,28.088
			C5.946,15.966,15.777,6.062,27.91,6.015c12.134-0.049,22.045,9.774,22.094,21.897C50.054,40.035,40.223,49.938,28.09,49.986z
			 M31.221,31.104C20.635,34.837,16.859,42.198,16.523,42.89c3.197,2.471,7.208,3.937,11.553,3.918
			c2.604-0.01,5.083-0.552,7.336-1.521c-0.286-1.646-1.4-7.384-4.067-14.225C31.304,31.076,31.262,31.089,31.221,31.104z
			 M34.859,30.18c2.485,6.739,3.509,12.233,3.706,13.375c4.204-2.866,7.188-7.391,8.004-12.619
			C45.926,30.735,40.745,29.214,34.859,30.18z"/>
	</g>
</g>
<g>
</g>
<g>
</g>
<g>
</g>
<g>
</g>
<g>
</g>
<g>
</g>
<g>
</g>
<g>
</g>
<g>
</g>
<g>
</g>
<g>
</g>
<g>
</g>
<g>
</g>
<g>
</g>
<g>
</g>
</svg>
