<?xml version="1.0" encoding="iso-8859-1"?>
<!-- Generator: Adobe Illustrator 16.0.4, SVG Export Plug-In . SVG Version: 6.00 Build 0)  -->
<!DOCTYPE svg PUBLIC "-//W3C//DTD SVG 1.1//EN" "http://www.w3.org/Graphics/SVG/1.1/DTD/svg11.dtd">
<svg version="1.1" id="Layer_1" xmlns="http://www.w3.org/2000/svg" xmlns:xlink="http://www.w3.org/1999/xlink" x="0px" y="0px"
	 width="56px" height="56px" viewBox="0 0 56 56" style="enable-background:new 0 0 56 56;" xml:space="preserve">
<g id="_x31_258-dropbox_x40_2x.png">
	<g>
		<path d="M28,0C12.536,0,0,12.536,0,28s12.536,28,28,28s28-12.536,28-28S43.464,0,28,0z M38.669,39.193l-10.674,6.811
			l-10.759-6.811v-2.029l3.558,1.987l7.158-5.37l7.368,5.37l3.349-1.987V39.193z M38.418,24.646l-0.003,0.002l7.58,6.097
			l-10.64,6.398l-7.403-5.393l-7.183,5.398l-10.757-6.397l7.46-5.971l10.485,6.427l10.457-6.56l-0.002-0.002l0.002-0.002
			l-10.463-6.426L17.491,24.77l-7.49-5.725l10.766-7.044l7.186,6.218l7.589-6.222l10.458,6.715l-7.584,5.933L38.418,24.646z"/>
	</g>
</g>
<g>
</g>
<g>
</g>
<g>
</g>
<g>
</g>
<g>
</g>
<g>
</g>
<g>
</g>
<g>
</g>
<g>
</g>
<g>
</g>
<g>
</g>
<g>
</g>
<g>
</g>
<g>
</g>
<g>
</g>
</svg>
