<?xml version="1.0" encoding="iso-8859-1"?>
<!-- Generator: Adobe Illustrator 16.0.4, SVG Export Plug-In . SVG Version: 6.00 Build 0)  -->
<!DOCTYPE svg PUBLIC "-//W3C//DTD SVG 1.1//EN" "http://www.w3.org/Graphics/SVG/1.1/DTD/svg11.dtd">
<svg version="1.1" id="Layer_1" xmlns="http://www.w3.org/2000/svg" xmlns:xlink="http://www.w3.org/1999/xlink" x="0px" y="0px"
	 width="56px" height="56px" viewBox="0 0 56 56" style="enable-background:new 0 0 56 56;" xml:space="preserve">
<g id="_x31_259-evernote_x40_2x.png">
	<g>
		<path d="M28,0C12.536,0,0,12.536,0,28s12.536,28,28,28s28-12.536,28-28S43.464,0,28,0z M11.629,16.929l6.975-6.872
			c0.014-0.013,0.027-0.02,0.041-0.021l-0.123,0.229c-0.257,0.51-0.404,1.119-0.404,1.816v0.011c0,0.85,0.044,3.906,0.044,3.907
			c0,0.203-0.166,0.369-0.371,0.369H14.2c-0.002,0-0.002,0-0.002,0c-0.882,0-1.618,0.149-2.226,0.422
			c-0.028,0.013-0.226,0.109-0.369,0.181C11.607,16.954,11.615,16.94,11.629,16.929z M42.913,31.9
			c-0.5,5.388-1.327,8.596-1.669,9.647c-1.727,5.325-3.202,5.462-7.385,5.462c-5.336,0-6.97-0.788-6.97-5.029
			c0-4.672,2.212-4.77,5.972-4.667c0.538,0.013-0.031,0.536-0.031,1.44c0,0.909,0.353,1.268-0.133,1.268
			c-1.087,0-2.554-0.154-2.554,1.319c0,1.823,0.88,1.765,3.19,1.765c2.849,0,3.395-0.354,3.395-2.933
			c0-4.238-1.207-4.889-2.869-5.078c-1.839-0.215-3.649-0.488-4.521-0.796c-2.21-0.779-2.052-3.687-2.052-4.508
			c0-0.124-0.175-0.118-0.175,0c0,1.164-0.084,2.771-0.686,4.583c-0.188,0.522-0.324,0.878-0.326,0.881
			c-0.693,1.444-1.856,0.949-3.71,0.714c-1.856-0.235-5.818-1.056-7.552-1.794c-0.779-0.359-1.043-0.698-1.438-1.513
			c-1.022-2.095-2.098-8.98-2.23-9.966c-0.16-1.274-0.167-1.933-0.167-1.933c-0.002-0.806,0.081-1.595,0.561-2.234
			c0.241-0.321,0.559-0.594,1.006-0.796s1.032-0.329,1.798-0.329h3.59c0.782-0.002,1.414-0.632,1.414-1.406
			c0-0.005-0.011-0.782-0.021-1.652c-0.011-0.866-0.022-1.842-0.022-2.256c0.002-0.732,0.188-1.256,0.477-1.665
			c0.43-0.612,1.202-1.01,1.9-1.203c0.878-0.245,4.299-0.458,6.514,0.427c0.831,0.333,1.573,1.294,1.728,2.346
			c1.288-0.039,3.421-0.056,5.235,0.156c2.255,0.265,4.05,0.594,4.935,0.911c0.82,0.294,1.729,1.042,2.014,2.559
			C42.615,18.214,43.229,28.494,42.913,31.9z M35.463,24.793c-1.54-0.053-1.975,1.231-2.105,2.278
			c0.464-0.074,0.961-0.106,1.478-0.089c0.97,0.034,1.859,0.237,2.579,0.556C37.408,26.453,37.169,24.852,35.463,24.793z"/>
	</g>
</g>
<g>
</g>
<g>
</g>
<g>
</g>
<g>
</g>
<g>
</g>
<g>
</g>
<g>
</g>
<g>
</g>
<g>
</g>
<g>
</g>
<g>
</g>
<g>
</g>
<g>
</g>
<g>
</g>
<g>
</g>
</svg>
