<?xml version="1.0" encoding="iso-8859-1"?>
<!-- Generator: Adobe Illustrator 16.0.4, SVG Export Plug-In . SVG Version: 6.00 Build 0)  -->
<!DOCTYPE svg PUBLIC "-//W3C//DTD SVG 1.1//EN" "http://www.w3.org/Graphics/SVG/1.1/DTD/svg11.dtd">
<svg version="1.1" id="Layer_1" xmlns="http://www.w3.org/2000/svg" xmlns:xlink="http://www.w3.org/1999/xlink" x="0px" y="0px"
	 width="56px" height="56px" viewBox="0 0 56 56" style="enable-background:new 0 0 56 56;" xml:space="preserve">
<g id="_x31_262-fancy_x40_2x.png">
	<g>
		<path d="M38.002,22c-3.312,0-5.998,2.687-5.998,6c0,3.314,2.685,6,5.998,6S44,31.314,44,28C44,24.687,41.315,22,38.002,22z M28,0
			C12.536,0,0,12.536,0,28s12.536,28,28,28s28-12.536,28-28S43.464,0,28,0z M17.997,36C13.581,36,10,32.419,10,28
			c0-4.418,3.581-8,7.997-8s7.997,3.582,7.997,8C25.994,32.419,22.414,36,17.997,36z M38.003,36c-4.417,0-7.997-3.581-7.997-8
			c0-4.418,3.58-8,7.997-8C42.42,20,46,23.582,46,28C46,32.419,42.42,36,38.003,36z"/>
	</g>
</g>
<g>
</g>
<g>
</g>
<g>
</g>
<g>
</g>
<g>
</g>
<g>
</g>
<g>
</g>
<g>
</g>
<g>
</g>
<g>
</g>
<g>
</g>
<g>
</g>
<g>
</g>
<g>
</g>
<g>
</g>
</svg>
