<?xml version="1.0" encoding="iso-8859-1"?>
<!-- Generator: Adobe Illustrator 16.0.4, SVG Export Plug-In . SVG Version: 6.00 Build 0)  -->
<!DOCTYPE svg PUBLIC "-//W3C//DTD SVG 1.1//EN" "http://www.w3.org/Graphics/SVG/1.1/DTD/svg11.dtd">
<svg version="1.1" id="Layer_1" xmlns="http://www.w3.org/2000/svg" xmlns:xlink="http://www.w3.org/1999/xlink" x="0px" y="0px"
	 width="56px" height="56px" viewBox="0 0 56 56" style="enable-background:new 0 0 56 56;" xml:space="preserve">
<g id="_x31_263-foursquare_x40_2x.png">
	<g>
		<path d="M28,0C12.536,0,0,12.536,0,28s12.536,28,28,28s28-12.536,28-28S43.464,0,28,0z M43.536,14.614
			c0.351-0.002,0.678,0.137,0.928,0.386l3.114,3.134c0.512,0.516,0.512,1.349-0.001,1.862L28.639,39.03
			c-0.25,0.249-0.584,0.389-0.937,0.388l-0.001-0.001c-0.003,0-0.006,0-0.009,0c-0.051,0.001-0.101-0.002-0.15-0.009
			c-0.292-0.032-0.566-0.164-0.778-0.377L16.207,28.402c-0.514-0.515-0.512-1.348,0.001-1.862l3.119-3.13
			c0.245-0.246,0.583-0.385,0.928-0.385c0.347-0.002,0.683,0.14,0.927,0.387l6.522,6.565l14.902-14.979
			C42.855,14.751,43.185,14.612,43.536,14.614z M46.479,31.312L31.238,46.625c-1.823,1.831-4.804,1.831-6.626,0L9.369,31.312
			c-1.822-1.83-1.822-4.827,0-6.657L24.611,9.34c1.823-1.83,4.804-1.83,6.626,0l6.884,6.917l-10.336,10.39l-4.866-4.897
			c-0.677-0.684-1.619-1.078-2.582-1.078c-0.966,0.002-1.905,0.392-2.583,1.069l-3.123,3.135c-0.691,0.692-1.073,1.615-1.073,2.598
			c0,0.98,0.381,1.902,1.072,2.596l10.553,10.625c0.478,0.481,1.082,0.82,1.736,0.977l0.149,0.101l0.712,0.001
			c0.976,0,1.892-0.379,2.585-1.068l16.04-16.122l0.073,0.073C48.302,26.485,48.302,29.481,46.479,31.312z"/>
	</g>
</g>
<g>
</g>
<g>
</g>
<g>
</g>
<g>
</g>
<g>
</g>
<g>
</g>
<g>
</g>
<g>
</g>
<g>
</g>
<g>
</g>
<g>
</g>
<g>
</g>
<g>
</g>
<g>
</g>
<g>
</g>
</svg>
