<?xml version="1.0" encoding="iso-8859-1"?>
<!-- Generator: Adobe Illustrator 16.0.4, SVG Export Plug-In . SVG Version: 6.00 Build 0)  -->
<!DOCTYPE svg PUBLIC "-//W3C//DTD SVG 1.1//EN" "http://www.w3.org/Graphics/SVG/1.1/DTD/svg11.dtd">
<svg version="1.1" id="Layer_1" xmlns="http://www.w3.org/2000/svg" xmlns:xlink="http://www.w3.org/1999/xlink" x="0px" y="0px"
	 width="56px" height="56px" viewBox="0 0 56 56" style="enable-background:new 0 0 56 56;" xml:space="preserve">
<g id="_x31_264-github_x40_2x.png">
	<g>
		<path d="M28,0C12.536,0,0,12.536,0,28c0,15.465,12.536,28,28,28s28-12.535,28-28C56,12.536,43.464,0,28,0z M32.714,39.671
			c0.934,0.807,1.765,2.402,1.765,4.84c0,3.494-0.032,6.313-0.032,7.171c0,0.51,0.254,1.076,0.902,1.248
			C33.017,53.616,30.555,54,28,54c-2.557,0-5.021-0.384-7.355-1.072c0.65-0.172,0.91-0.738,0.91-1.246
			c0-0.621-0.022-2.265-0.035-4.446c-7.234,1.58-8.76-3.503-8.76-3.503c-1.183-3.02-2.887-3.823-2.887-3.823
			c-2.361-1.622,0.179-1.589,0.179-1.589c2.609,0.185,3.983,2.693,3.983,2.693c2.32,3.994,6.086,2.841,7.568,2.172
			c0.236-1.689,0.908-2.841,1.651-3.494c-5.774-0.66-11.845-2.902-11.845-12.918c0-2.854,1.013-5.187,2.677-7.014
			c-0.268-0.661-1.16-3.318,0.255-6.917c0,0,2.184-0.703,7.151,2.679c2.074-0.579,4.299-0.869,6.51-0.879
			c2.208,0.01,4.434,0.3,6.511,0.879c4.965-3.382,7.144-2.679,7.144-2.679c1.419,3.599,0.526,6.256,0.259,6.917
			c1.667,1.827,2.673,4.16,2.673,7.014C44.588,36.814,38.508,39.023,32.714,39.671z M27.998,2.002
			C13.682,2.002,2.07,13.636,2,28.013C2,28.009,2,28.004,2,28C2,13.641,13.641,2,28,2s26,11.641,26,26
			c0,0.007-0.001,0.014-0.001,0.02C53.933,13.64,42.32,2.002,27.998,2.002z"/>
	</g>
</g>
<g>
</g>
<g>
</g>
<g>
</g>
<g>
</g>
<g>
</g>
<g>
</g>
<g>
</g>
<g>
</g>
<g>
</g>
<g>
</g>
<g>
</g>
<g>
</g>
<g>
</g>
<g>
</g>
<g>
</g>
</svg>
