<?xml version="1.0" encoding="iso-8859-1"?>
<!-- Generator: Adobe Illustrator 16.0.4, SVG Export Plug-In . SVG Version: 6.00 Build 0)  -->
<!DOCTYPE svg PUBLIC "-//W3C//DTD SVG 1.1//EN" "http://www.w3.org/Graphics/SVG/1.1/DTD/svg11.dtd">
<svg version="1.1" id="Layer_1" xmlns="http://www.w3.org/2000/svg" xmlns:xlink="http://www.w3.org/1999/xlink" x="0px" y="0px"
	 width="56px" height="56px" viewBox="0 0 56 56" style="enable-background:new 0 0 56 56;" xml:space="preserve">
<g id="_x31_265-google_x40_2x.png">
	<g>
		<path d="M28.433,31.962c-3.68-0.041-6.976,2.317-6.976,5.15c0,2.89,2.43,5.296,6.11,5.296c5.174,0,6.977-2.259,6.977-5.148
			c0-0.349-0.041-0.69-0.117-1.021c-0.404-1.636-1.61-2.446-3.608-3.882C30.092,32.114,29.292,31.971,28.433,31.962z M28,0
			C12.536,0,0,12.536,0,28s12.536,28,28,28s28-12.536,28-28S43.464,0,28,0z M35.908,19.334c0,2.092-1.122,3.891-2.708,5.171
			c-1.546,1.249-1.84,1.771-1.84,2.833c0,0.906,1.601,2.392,2.467,3.025c2.533,1.851,3.182,3.623,3.182,6.492
			c0,3.577-3.352,7.135-9.422,7.135c-5.324,0-9.589-2.238-9.589-5.814c0-3.633,4.098-7.135,9.422-7.135
			c0.58,0,1.111-0.017,1.662-0.017c-0.729-0.732-1.305-1.63-1.305-2.736c0-0.656,0.203-1.288,0.487-1.85
			c-0.289,0.021-0.584,0.028-0.889,0.028c-4.373,0-7.303-3.214-7.303-7.196c0-3.896,4.045-7.26,8.343-7.26h9.587l-2.146,1.602h-3.04
			C34.833,14.414,35.908,16.842,35.908,19.334z M27.217,13.413c-2.47-0.076-4.126,2.488-3.7,5.839s2.774,6.129,5.244,6.205
			c2.469,0.076,4.125-2.578,3.7-5.929C32.035,16.178,29.687,13.489,27.217,13.413z"/>
	</g>
</g>
<g>
</g>
<g>
</g>
<g>
</g>
<g>
</g>
<g>
</g>
<g>
</g>
<g>
</g>
<g>
</g>
<g>
</g>
<g>
</g>
<g>
</g>
<g>
</g>
<g>
</g>
<g>
</g>
<g>
</g>
</svg>
