<?xml version="1.0" encoding="iso-8859-1"?>
<!-- Generator: Adobe Illustrator 16.0.4, SVG Export Plug-In . SVG Version: 6.00 Build 0)  -->
<!DOCTYPE svg PUBLIC "-//W3C//DTD SVG 1.1//EN" "http://www.w3.org/Graphics/SVG/1.1/DTD/svg11.dtd">
<svg version="1.1" id="Layer_1" xmlns="http://www.w3.org/2000/svg" xmlns:xlink="http://www.w3.org/1999/xlink" x="0px" y="0px"
	 width="56px" height="56px" viewBox="0 0 56 56" style="enable-background:new 0 0 56 56;" xml:space="preserve">
<g id="_x31_266-googleplus_x40_2x.png">
	<g>
		<path d="M28,0C12.536,0,0,12.536,0,28s12.536,28,28,28s28-12.536,28-28S43.464,0,28,0z M21.586,43.99
			c-5.323,0-9.588-2.238-9.588-5.814c0-3.633,4.098-7.135,9.422-7.135c0.579,0,1.11-0.017,1.661-0.017
			c-0.729-0.732-1.305-1.63-1.305-2.736c0-0.656,0.203-1.288,0.486-1.85c-0.289,0.021-0.584,0.028-0.888,0.028
			c-4.373,0-7.304-3.214-7.304-7.196c0-3.896,4.046-7.26,8.344-7.26h9.587l-2.146,1.602h-3.039c2.016,0.802,3.09,3.229,3.09,5.722
			c0,2.092-1.122,3.891-2.708,5.171c-1.546,1.249-1.84,1.771-1.84,2.833c0,0.906,1.601,2.392,2.467,3.025
			c2.533,1.851,3.183,3.623,3.183,6.492C31.009,40.433,27.656,43.99,21.586,43.99z M46,19.991h-6.009v6.014h-1.993v-6.014h-6.003
			v-1.993h6.003v-5.997h1.993v5.997H46V19.991z M26.462,19.528c-0.427-3.351-2.775-6.039-5.245-6.115
			c-2.469-0.076-4.126,2.488-3.699,5.839c0.426,3.351,2.774,6.129,5.244,6.205C25.23,25.533,26.887,22.879,26.462,19.528z
			 M24.818,32.356c-0.727-0.242-1.526-0.386-2.386-0.395c-3.679-0.041-6.976,2.317-6.976,5.15c0,2.89,2.43,5.296,6.11,5.296
			c5.173,0,6.977-2.259,6.977-5.148c0-0.349-0.041-0.69-0.118-1.021C28.022,34.603,26.816,33.792,24.818,32.356z"/>
	</g>
</g>
<g>
</g>
<g>
</g>
<g>
</g>
<g>
</g>
<g>
</g>
<g>
</g>
<g>
</g>
<g>
</g>
<g>
</g>
<g>
</g>
<g>
</g>
<g>
</g>
<g>
</g>
<g>
</g>
<g>
</g>
</svg>
