<?xml version="1.0" encoding="iso-8859-1"?>
<!-- Generator: Adobe Illustrator 16.0.4, SVG Export Plug-In . SVG Version: 6.00 Build 0)  -->
<!DOCTYPE svg PUBLIC "-//W3C//DTD SVG 1.1//EN" "http://www.w3.org/Graphics/SVG/1.1/DTD/svg11.dtd">
<svg version="1.1" id="Layer_1" xmlns="http://www.w3.org/2000/svg" xmlns:xlink="http://www.w3.org/1999/xlink" x="0px" y="0px"
	 width="56px" height="56px" viewBox="0 0 56 56" style="enable-background:new 0 0 56 56;" xml:space="preserve">
<g id="_x31_267-icloud_x40_2x.png">
	<g>
		<path d="M28,0C12.536,0,0,12.536,0,28s12.536,28,28,28s28-12.536,28-28S43.464,0,28,0z M39.004,38
			c-0.291,0-0.571-0.04-0.853-0.075V38H18.059C13.607,38,10,34.434,10,30.035c0-3.577,2.385-6.603,5.668-7.609
			c0.088-2.895,2.476-5.219,5.425-5.219c0.645,0,1.253,0.131,1.827,0.333c1.725-2.153,4.388-3.54,7.383-3.54
			c5.201,0,9.418,4.169,9.418,9.311c0,0.258-0.018,0.512-0.039,0.764C43.223,24.42,46,27.371,46,31.003
			C46,34.867,42.867,38,39.004,38z"/>
	</g>
</g>
<g>
</g>
<g>
</g>
<g>
</g>
<g>
</g>
<g>
</g>
<g>
</g>
<g>
</g>
<g>
</g>
<g>
</g>
<g>
</g>
<g>
</g>
<g>
</g>
<g>
</g>
<g>
</g>
<g>
</g>
</svg>
