<?xml version="1.0" encoding="iso-8859-1"?>
<!-- Generator: Adobe Illustrator 16.0.4, SVG Export Plug-In . SVG Version: 6.00 Build 0)  -->
<!DOCTYPE svg PUBLIC "-//W3C//DTD SVG 1.1//EN" "http://www.w3.org/Graphics/SVG/1.1/DTD/svg11.dtd">
<svg version="1.1" id="Layer_1" xmlns="http://www.w3.org/2000/svg" xmlns:xlink="http://www.w3.org/1999/xlink" x="0px" y="0px"
	 width="56px" height="56px" viewBox="0 0 56 56" style="enable-background:new 0 0 56 56;" xml:space="preserve">
<g id="_x31_268-instagram_x40_2x.png">
	<g>
		<path d="M27.998,34.152c3.399,0,6.154-2.756,6.154-6.154s-2.755-6.153-6.154-6.153c-3.398,0-6.154,2.755-6.154,6.153
			S24.6,34.152,27.998,34.152z M37.844,27.998c0,5.439-4.407,9.847-9.846,9.847c-5.438,0-9.846-4.407-9.846-9.847
			c0-0.851,0.12-1.674,0.323-2.462h-2.786v13.54c0,0.678,0.552,1.229,1.232,1.229h22.153c0.681,0,1.231-0.552,1.231-1.229v-13.54
			h-2.785C37.725,26.324,37.844,27.147,37.844,27.998z M28,0C12.536,0,0,12.536,0,28s12.536,28,28,28s28-12.536,28-28S43.464,0,28,0
			z M43.999,40.306c0,2.04-1.653,3.693-3.692,3.693H15.689c-2.038,0-3.691-1.653-3.691-3.693V15.69c0-2.039,1.653-3.691,3.691-3.691
			h24.617c2.039,0,3.692,1.652,3.692,3.691V40.306z M39.075,15.69h-3.691c-0.681,0-1.231,0.552-1.231,1.23v3.693
			c0,0.679,0.551,1.23,1.231,1.23h3.691c0.681,0,1.231-0.552,1.231-1.23v-3.693C40.307,16.242,39.756,15.69,39.075,15.69z"/>
	</g>
</g>
<g>
</g>
<g>
</g>
<g>
</g>
<g>
</g>
<g>
</g>
<g>
</g>
<g>
</g>
<g>
</g>
<g>
</g>
<g>
</g>
<g>
</g>
<g>
</g>
<g>
</g>
<g>
</g>
<g>
</g>
</svg>
