<?xml version="1.0" encoding="iso-8859-1"?>
<!-- Generator: Adobe Illustrator 16.0.4, SVG Export Plug-In . SVG Version: 6.00 Build 0)  -->
<!DOCTYPE svg PUBLIC "-//W3C//DTD SVG 1.1//EN" "http://www.w3.org/Graphics/SVG/1.1/DTD/svg11.dtd">
<svg version="1.1" id="Layer_1" xmlns="http://www.w3.org/2000/svg" xmlns:xlink="http://www.w3.org/1999/xlink" x="0px" y="0px"
	 width="56px" height="56px" viewBox="0 0 56 56" style="enable-background:new 0 0 56 56;" xml:space="preserve">
<g id="_x31_269-itunes_x40_2x.png">
	<g>
		<path d="M28,0C12.536,0,0,12.536,0,28s12.536,28,28,28s28-12.536,28-28S43.464,0,28,0z M39.979,13.578v21.828
			c0,1.964-1.682,3.556-3.758,3.556h-2.453c-2.076,0-3.758-1.529-3.758-3.493c0-1.963,1.682-3.492,3.758-3.492h2.547
			c0,0,1.671,0,1.671-1.581c0-1.58,0-8.521,0-9.706c0-0.996-0.884-0.99-1.696-0.84c-0.813,0.151-9.852,2.151-11.141,2.42
			c-0.987,0.205-1.122,0.672-1.122,1.186c0,0.513,0,14.987,0,14.987c0,1.964-1.683,3.556-3.758,3.556h-2.526
			c-2.076,0-3.758-1.561-3.758-3.524s1.682-3.493,3.758-3.493h2.589c0,0,1.67,0,1.67-1.58s0-15.55,0-16.267s0-1.581,1.67-1.976
			c1.671-0.395,12.488-2.711,14.576-3.106C40.334,11.657,39.979,13.578,39.979,13.578z"/>
	</g>
</g>
<g>
</g>
<g>
</g>
<g>
</g>
<g>
</g>
<g>
</g>
<g>
</g>
<g>
</g>
<g>
</g>
<g>
</g>
<g>
</g>
<g>
</g>
<g>
</g>
<g>
</g>
<g>
</g>
<g>
</g>
</svg>
