<?xml version="1.0" encoding="iso-8859-1"?>
<!-- Generator: Adobe Illustrator 16.0.4, SVG Export Plug-In . SVG Version: 6.00 Build 0)  -->
<!DOCTYPE svg PUBLIC "-//W3C//DTD SVG 1.1//EN" "http://www.w3.org/Graphics/SVG/1.1/DTD/svg11.dtd">
<svg version="1.1" id="Layer_1" xmlns="http://www.w3.org/2000/svg" xmlns:xlink="http://www.w3.org/1999/xlink" x="0px" y="0px"
	 width="56px" height="56px" viewBox="0 0 56 56" style="enable-background:new 0 0 56 56;" xml:space="preserve">
<g id="_x31_270-linkedin_x40_2x.png">
	<g>
		<path d="M18.667,36h4V24h-4V36z M20.667,18.667c-1.104,0-2,0.896-2,2s0.896,2,2,2s2-0.896,2-2S21.771,18.667,20.667,18.667z
			 M33.333,24c-3.255,0-4,2-4,2v-2h-4v12h4v-6.666c0,0-0.058-2.22,2.181-2.22c1.378,0,1.819,0.735,1.819,2.22V36h4v-6.666
			C37.333,25.941,35.839,24,33.333,24z M28,0C12.536,0,0,12.536,0,28s12.536,28,28,28s28-12.536,28-28S43.464,0,28,0z M44,40
			c0,2.209-1.791,4-4,4H16c-2.209,0-4-1.791-4-4V16c0-2.209,1.791-4,4-4h24c2.209,0,4,1.791,4,4V40z"/>
	</g>
</g>
<g>
</g>
<g>
</g>
<g>
</g>
<g>
</g>
<g>
</g>
<g>
</g>
<g>
</g>
<g>
</g>
<g>
</g>
<g>
</g>
<g>
</g>
<g>
</g>
<g>
</g>
<g>
</g>
<g>
</g>
</svg>
