<?xml version="1.0" encoding="iso-8859-1"?>
<!-- Generator: Adobe Illustrator 16.0.4, SVG Export Plug-In . SVG Version: 6.00 Build 0)  -->
<!DOCTYPE svg PUBLIC "-//W3C//DTD SVG 1.1//EN" "http://www.w3.org/Graphics/SVG/1.1/DTD/svg11.dtd">
<svg version="1.1" id="Layer_1" xmlns="http://www.w3.org/2000/svg" xmlns:xlink="http://www.w3.org/1999/xlink" x="0px" y="0px"
	 width="56px" height="56px" viewBox="0 0 56 56" style="enable-background:new 0 0 56 56;" xml:space="preserve">
<g id="_x31_271-paypal_x40_2x.png">
	<g>
		<path d="M26.391,25.827c2.112,0,7.745-0.691,7.745-4.843c0-4.152-3.521-3.806-4.929-3.806h-1.056c0,0-1.76,0-2.112,1.384
			l-1.056,5.189C24.983,23.752,24.278,25.827,26.391,25.827z M28,0C12.536,0,0,12.536,0,28s12.536,28,28,28s28-12.536,28-28
			S43.464,0,28,0z M14.069,38.627l5.633-24.908c0,0,0.352-1.729,2.112-1.729h10.562c0,0,10.914-0.346,9.506,8.995
			c-1.408,9.34-12.322,10.032-14.787,10.032h-2.112c0,0-2.113-0.347-2.465,2.075l-1.056,5.535c0,0-0.352,1.384-2.112,1.384
			s-4.225,0-4.225,0S13.717,40.011,14.069,38.627z M45.882,24.984c-1.408,9.34-12.322,10.032-14.787,10.032h-2.113
			c0,0-2.112-0.346-2.464,2.075l-1.056,5.535c0,0-0.352,1.384-2.112,1.384s-4.225,0-4.225,0s-1.408,0-1.056-1.384l0.139-0.615
			c0.876,0,2.122,0,3.142,0c1.76,0,2.112-1.385,2.112-1.385l1.056-5.535c0.352-2.421,2.465-2.075,2.465-2.075h2.112
			c2.464,0,13.378-0.692,14.787-10.032c0.344-2.281-0.054-3.977-0.841-5.248C44.981,19.006,46.455,21.186,45.882,24.984z"/>
	</g>
</g>
<g>
</g>
<g>
</g>
<g>
</g>
<g>
</g>
<g>
</g>
<g>
</g>
<g>
</g>
<g>
</g>
<g>
</g>
<g>
</g>
<g>
</g>
<g>
</g>
<g>
</g>
<g>
</g>
<g>
</g>
</svg>
