<?xml version="1.0" encoding="iso-8859-1"?>
<!-- Generator: Adobe Illustrator 16.0.4, SVG Export Plug-In . SVG Version: 6.00 Build 0)  -->
<!DOCTYPE svg PUBLIC "-//W3C//DTD SVG 1.1//EN" "http://www.w3.org/Graphics/SVG/1.1/DTD/svg11.dtd">
<svg version="1.1" id="Layer_1" xmlns="http://www.w3.org/2000/svg" xmlns:xlink="http://www.w3.org/1999/xlink" x="0px" y="0px"
	 width="56px" height="56px" viewBox="0 0 56 56" style="enable-background:new 0 0 56 56;" xml:space="preserve">
<g id="_x31_272-pinterest_x40_2x.png">
	<g>
		<path d="M28,0C12.536,0,0,12.536,0,28s12.536,28,28,28s28-12.536,28-28S43.464,0,28,0z M30.791,36.02
			c-2.244,0-4.354-1.207-5.075-2.577c0,0-1.207,4.765-1.461,5.685c-0.9,3.248-3.546,6.5-3.751,6.767
			c-0.144,0.186-0.46,0.127-0.494-0.118c-0.057-0.414-0.732-4.514,0.062-7.858c0.399-1.68,2.672-11.269,2.672-11.269
			s-0.663-1.32-0.663-3.272c0-3.064,1.785-5.353,4.007-5.353c1.889,0,2.802,1.412,2.802,3.104c0,1.891-1.21,4.718-1.834,7.338
			c-0.521,2.194,1.105,3.983,3.279,3.983c3.936,0,6.587-5.032,6.587-10.995c0-4.531-3.065-7.925-8.645-7.925
			c-6.301,0-10.229,4.679-10.229,9.904c0,1.802,0.535,3.073,1.372,4.056c0.384,0.452,0.438,0.634,0.299,1.152
			c-0.102,0.382-0.329,1.297-0.425,1.66c-0.138,0.524-0.564,0.711-1.04,0.518C15.353,29.64,14,26.476,14,22.919
			C14,17.045,18.977,10,28.848,10c7.933,0,13.153,5.713,13.153,11.848C42.001,29.959,37.47,36.02,30.791,36.02z"/>
	</g>
</g>
<g>
</g>
<g>
</g>
<g>
</g>
<g>
</g>
<g>
</g>
<g>
</g>
<g>
</g>
<g>
</g>
<g>
</g>
<g>
</g>
<g>
</g>
<g>
</g>
<g>
</g>
<g>
</g>
<g>
</g>
</svg>
