<?xml version="1.0" encoding="iso-8859-1"?>
<!-- Generator: Adobe Illustrator 16.0.4, SVG Export Plug-In . SVG Version: 6.00 Build 0)  -->
<!DOCTYPE svg PUBLIC "-//W3C//DTD SVG 1.1//EN" "http://www.w3.org/Graphics/SVG/1.1/DTD/svg11.dtd">
<svg version="1.1" id="Layer_1" xmlns="http://www.w3.org/2000/svg" xmlns:xlink="http://www.w3.org/1999/xlink" x="0px" y="0px"
	 width="56px" height="56px" viewBox="0 0 56 56" style="enable-background:new 0 0 56 56;" xml:space="preserve">
<g id="_x31_273-quora_x40_2x.png">
	<g>
		<path d="M28.079,15.479c0,0-7.549-0.192-7.549,11.71c0,11.901,4.493,11.901,7.189,12.285c0,0,1.134,0.194,2.533-0.317
			c-1.704-3.365-4.102-2.574-4.102-2.574l-0.387-2.711c0.496-0.33,5.076-1.351,7.85,2.335c1.059-1.803,1.834-4.572,1.834-8.826
			C35.448,14.711,28.079,15.479,28.079,15.479z M28,0C12.536,0,0,12.536,0,28s12.536,28,28,28s28-12.536,28-28S43.464,0,28,0z
			 M42.99,27.599c0,0-0.222,8.986-6.847,13.663c1.981,3.194,3.932,2.291,3.932,2.291l0.387,3.098
			c-3.884,0.973-6.816,0.036-8.577-3.357c-1.249,0.367-2.63,0.615-4.175,0.697c-15.281-0.593-14.722-16.194-14.722-16.194
			c0.559-15.207,13.045-16.813,15.095-16.787C43.698,11.206,42.99,27.599,42.99,27.599z"/>
	</g>
</g>
<g>
</g>
<g>
</g>
<g>
</g>
<g>
</g>
<g>
</g>
<g>
</g>
<g>
</g>
<g>
</g>
<g>
</g>
<g>
</g>
<g>
</g>
<g>
</g>
<g>
</g>
<g>
</g>
<g>
</g>
</svg>
