<?xml version="1.0" encoding="iso-8859-1"?>
<!-- Generator: Adobe Illustrator 16.0.4, SVG Export Plug-In . SVG Version: 6.00 Build 0)  -->
<!DOCTYPE svg PUBLIC "-//W3C//DTD SVG 1.1//EN" "http://www.w3.org/Graphics/SVG/1.1/DTD/svg11.dtd">
<svg version="1.1" id="Layer_1" xmlns="http://www.w3.org/2000/svg" xmlns:xlink="http://www.w3.org/1999/xlink" x="0px" y="0px"
	 width="56px" height="56px" viewBox="0 0 56 56" style="enable-background:new 0 0 56 56;" xml:space="preserve">
<g id="_x31_274-rdio_x40_2x.png">
	<g>
		<path d="M28,0C12.536,0,0,12.536,0,28s12.536,28,28,28s28-12.536,28-28S43.464,0,28,0z M42.675,27.101
			c0.017,0.297,0.032,0.594,0.032,0.895C42.707,36.834,35.386,44,26.355,44s-16.352-7.166-16.352-16.005
			c0-8.84,7.321-16.006,16.352-16.006c1.617,0,3.176,0.238,4.651,0.667l-0.005,11.279c-1.695-0.906-3.906-1.214-6.147-0.65
			c-4.035,1.014-6.575,4.394-5.674,7.548c0.901,3.154,4.902,4.89,8.937,3.875c3.466-0.871,5.822-3.488,5.849-6.208H34l0-14.649
			c0.422,0.219,0.83,0.462,1.229,0.716l-0.006-0.017c0,0,7.484,5.122,13.773,5.122C48.996,19.672,48.976,25.803,42.675,27.101z"/>
	</g>
</g>
<g>
</g>
<g>
</g>
<g>
</g>
<g>
</g>
<g>
</g>
<g>
</g>
<g>
</g>
<g>
</g>
<g>
</g>
<g>
</g>
<g>
</g>
<g>
</g>
<g>
</g>
<g>
</g>
<g>
</g>
</svg>
