<?xml version="1.0" encoding="iso-8859-1"?>
<!-- Generator: Adobe Illustrator 16.0.4, SVG Export Plug-In . SVG Version: 6.00 Build 0)  -->
<!DOCTYPE svg PUBLIC "-//W3C//DTD SVG 1.1//EN" "http://www.w3.org/Graphics/SVG/1.1/DTD/svg11.dtd">
<svg version="1.1" id="Layer_1" xmlns="http://www.w3.org/2000/svg" xmlns:xlink="http://www.w3.org/1999/xlink" x="0px" y="0px"
	 width="56px" height="56px" viewBox="0 0 56 56" style="enable-background:new 0 0 56 56;" xml:space="preserve">
<g id="_x31_275-reddit_x40_2x.png">
	<g>
		<path d="M43.009,22.737c-0.774,0-1.472,0.302-2.004,0.783c1.664,1.354,2.919,2.967,3.63,4.749
			c0.826-0.535,1.375-1.463,1.375-2.523C46.01,24.085,44.667,22.737,43.009,22.737z M41.107,17.222c1.437,0,2.602-1.168,2.602-2.607
			c0-1.44-1.165-2.608-2.602-2.608c-1.437,0-2.602,1.168-2.602,2.608C38.506,16.054,39.671,17.222,41.107,17.222z M15.093,23.602
			c-0.542-0.533-1.283-0.864-2.102-0.864c-1.658,0-3.001,1.348-3.001,3.009c0,1.129,0.626,2.1,1.543,2.615
			C12.223,26.579,13.451,24.962,15.093,23.602z M28,0C12.536,0,0,12.536,0,28s12.536,28,28,28s28-12.536,28-28S43.464,0,28,0z
			 M45.187,30.241c0.075,0.468,0.124,0.94,0.124,1.423C45.31,38.477,37.605,44,28.1,44s-17.21-5.523-17.21-12.336
			c0-0.448,0.038-0.89,0.103-1.325c-1.767-0.773-3.004-2.536-3.004-4.593c0-2.77,2.24-5.014,5.002-5.014
			c1.488,0,2.809,0.663,3.726,1.696c2.824-1.79,6.469-2.92,10.481-3.071c-0.007-0.674,0.054-6.049,3.804-7.552
			c0,0,2.775-1.034,5.984,0.792C37.734,11.064,39.291,10,41.107,10c2.542,0,4.603,2.066,4.603,4.614s-2.061,4.613-4.603,4.613
			s-4.603-2.065-4.603-4.613c0-0.006,0.001-0.011,0.001-0.016c-0.681-0.39-3.112-1.643-4.904-0.787
			c-2.073,0.989-2.295,4.12-2.396,5.553c3.871,0.178,7.39,1.268,10.147,2.979c0.914-0.985,2.208-1.611,3.656-1.611
			c2.763,0,5.002,2.244,5.002,5.014C48.011,27.729,46.854,29.428,45.187,30.241z M28.1,21.434c-8.399,0-15.208,4.58-15.208,10.23
			c0,5.649,6.809,10.229,15.208,10.229s15.208-4.58,15.208-10.229C43.309,26.014,36.5,21.434,28.1,21.434z M19.295,29.558
			c0-1.329,1.075-2.407,2.401-2.407s2.401,1.078,2.401,2.407s-1.075,2.407-2.401,2.407S19.295,30.887,19.295,29.558z M35.095,37.334
			l0.009,0.014c0,0-3.102,2.239-7.104,2.239s-7.096-2.231-7.096-2.231l0.01-0.016c-0.304-0.172-0.519-0.486-0.519-0.861
			c0-0.555,0.448-1.004,1.001-1.004c0.226,0,0.423,0.089,0.591,0.216l0.009-0.015c0,0,3.455,1.905,6.003,1.905
			c3.799,0,6.003-1.905,6.003-1.905l0.009,0.015c0.167-0.127,0.365-0.216,0.591-0.216c0.553,0,1.001,0.449,1.001,1.004
			C35.604,36.85,35.394,37.16,35.095,37.334z M34.304,31.965c-1.326,0-2.401-1.078-2.401-2.407s1.075-2.407,2.401-2.407
			s2.401,1.078,2.401,2.407S35.63,31.965,34.304,31.965z"/>
	</g>
</g>
<g>
</g>
<g>
</g>
<g>
</g>
<g>
</g>
<g>
</g>
<g>
</g>
<g>
</g>
<g>
</g>
<g>
</g>
<g>
</g>
<g>
</g>
<g>
</g>
<g>
</g>
<g>
</g>
<g>
</g>
</svg>
