<?xml version="1.0" encoding="iso-8859-1"?>
<!-- Generator: Adobe Illustrator 16.0.4, SVG Export Plug-In . SVG Version: 6.00 Build 0)  -->
<!DOCTYPE svg PUBLIC "-//W3C//DTD SVG 1.1//EN" "http://www.w3.org/Graphics/SVG/1.1/DTD/svg11.dtd">
<svg version="1.1" id="Layer_1" xmlns="http://www.w3.org/2000/svg" xmlns:xlink="http://www.w3.org/1999/xlink" x="0px" y="0px"
	 width="56px" height="56px" viewBox="0 0 56 56" style="enable-background:new 0 0 56 56;" xml:space="preserve">
<g id="_x31_276-share_x40_2x.png">
	<g>
		<path d="M28,0C12.536,0,0,12.536,0,28s12.536,28,28,28s28-12.536,28-28S43.464,0,28,0z M21.507,27.909
			c0,0.292-0.03,0.575-0.073,0.855l10.973,5.472c1.019-0.906,2.369-1.464,3.855-1.464c3.17,0,5.739,2.514,5.739,5.614
			s-2.569,5.614-5.739,5.614s-5.74-2.514-5.74-5.614c0-0.102,0.011-0.201,0.016-0.302l-11.361-5.666
			c-0.954,0.691-2.13,1.104-3.408,1.104c-3.17,0-5.74-2.514-5.74-5.614s2.57-5.614,5.74-5.614c1.42,0,2.717,0.507,3.719,1.343
			l11.062-5.517c-0.015-0.168-0.026-0.336-0.026-0.508c0-3.101,2.57-5.614,5.74-5.614s5.739,2.514,5.739,5.614
			c0,3.102-2.569,5.614-5.739,5.614c-1.412,0-2.704-0.501-3.704-1.328l-11.076,5.523C21.496,27.584,21.507,27.745,21.507,27.909z"/>
	</g>
</g>
<g>
</g>
<g>
</g>
<g>
</g>
<g>
</g>
<g>
</g>
<g>
</g>
<g>
</g>
<g>
</g>
<g>
</g>
<g>
</g>
<g>
</g>
<g>
</g>
<g>
</g>
<g>
</g>
<g>
</g>
</svg>
