<?xml version="1.0" encoding="iso-8859-1"?>
<!-- Generator: Adobe Illustrator 16.0.4, SVG Export Plug-In . SVG Version: 6.00 Build 0)  -->
<!DOCTYPE svg PUBLIC "-//W3C//DTD SVG 1.1//EN" "http://www.w3.org/Graphics/SVG/1.1/DTD/svg11.dtd">
<svg version="1.1" id="Layer_1" xmlns="http://www.w3.org/2000/svg" xmlns:xlink="http://www.w3.org/1999/xlink" x="0px" y="0px"
	 width="56px" height="56px" viewBox="0 0 56 56" style="enable-background:new 0 0 56 56;" xml:space="preserve">
<g id="_x31_277-skype_x40_2x.png">
	<g>
		<path d="M31.372,26.479l-3.73-0.844c-1.416-0.327-3.05-0.763-3.05-2.124s1.144-2.314,3.213-2.314c4.166,0,3.785,2.913,5.854,2.913
			c1.09,0,2.043-0.653,2.043-1.77c0-2.613-4.111-4.574-7.597-4.574c-3.784,0-7.814,1.634-7.814,5.99
			c0,2.097,0.735,4.329,4.792,5.363l5.037,1.28c1.524,0.381,1.906,1.252,1.906,2.042c0,1.307-1.28,2.586-3.594,2.586
			c-4.521,0-3.894-3.539-6.317-3.539c-1.089,0-1.879,0.763-1.879,1.852c0,2.124,2.532,4.955,8.196,4.955
			c5.391,0,8.059-2.641,8.059-6.181C36.49,29.827,35.456,27.404,31.372,26.479z M28,0C12.536,0,0,12.536,0,28s12.536,28,28,28
			s28-12.536,28-28S43.464,0,28,0z M36.308,46c-2.005,0-3.868-0.609-5.414-1.652c-0.941,0.165-1.904,0.268-2.894,0.268
			c-9.177,0-16.615-7.438-16.615-16.615c0-0.988,0.103-1.952,0.268-2.894C10.609,23.561,10,21.698,10,19.692
			C10,14.34,14.34,10,19.692,10c2.005,0,3.868,0.609,5.414,1.653c0.941-0.166,1.905-0.269,2.894-0.269
			c9.177,0,16.615,7.439,16.615,16.615c0,0.989-0.103,1.952-0.268,2.894C45.391,32.439,46,34.303,46,36.308
			C46,41.661,41.66,46,36.308,46z"/>
	</g>
</g>
<g>
</g>
<g>
</g>
<g>
</g>
<g>
</g>
<g>
</g>
<g>
</g>
<g>
</g>
<g>
</g>
<g>
</g>
<g>
</g>
<g>
</g>
<g>
</g>
<g>
</g>
<g>
</g>
<g>
</g>
</svg>
