<?xml version="1.0" encoding="iso-8859-1"?>
<!-- Generator: Adobe Illustrator 16.0.4, SVG Export Plug-In . SVG Version: 6.00 Build 0)  -->
<!DOCTYPE svg PUBLIC "-//W3C//DTD SVG 1.1//EN" "http://www.w3.org/Graphics/SVG/1.1/DTD/svg11.dtd">
<svg version="1.1" id="Layer_1" xmlns="http://www.w3.org/2000/svg" xmlns:xlink="http://www.w3.org/1999/xlink" x="0px" y="0px"
	 width="56px" height="56px" viewBox="0 0 56 56" style="enable-background:new 0 0 56 56;" xml:space="preserve">
<g id="_x31_278-spotify_x40_2x.png">
	<g>
		<path d="M28,0C12.536,0,0,12.536,0,28s12.536,28,28,28s28-12.536,28-28S43.464,0,28,0z M39.9,39.442
			c-0.298,0.509-0.833,0.791-1.383,0.791c-0.275,0.001-0.555-0.07-0.809-0.22c-3.695-2.167-7.61-3.334-11.97-3.569
			c-4.232-0.228-8.23,0.505-10.868,1.076c-0.864,0.188-1.717-0.362-1.904-1.227s0.362-1.717,1.227-1.903
			c6.889-1.492,15.971-2.514,25.136,2.86C40.092,37.698,40.348,38.68,39.9,39.442z M43.11,32.365
			c-0.367,0.633-1.031,0.986-1.714,0.986c-0.336,0-0.678-0.086-0.989-0.267c-4.226-2.448-8.933-3.882-13.989-4.262
			c-4.073-0.307-8.355,0.116-12.06,1.189c-1.05,0.304-2.146-0.3-2.451-1.35c-0.304-1.05,0.301-2.146,1.35-2.451
			c2.934-0.85,7.649-1.771,13.458-1.335c5.655,0.426,10.93,2.035,15.676,4.784C43.336,30.209,43.658,31.42,43.11,32.365z
			 M46.717,24.134c-0.439,0.777-1.248,1.214-2.081,1.214c-0.397,0-0.8-0.1-1.171-0.31c-5.733-3.237-12.181-4.182-16.579-4.404
			c-4.93-0.249-10.065,0.268-13.739,1.38c-1.262,0.382-2.594-0.331-2.976-1.592c-0.383-1.262,0.33-2.594,1.592-2.977
			c7.316-2.216,22.422-3.129,34.049,3.438C46.96,21.531,47.364,22.986,46.717,24.134z"/>
	</g>
</g>
<g>
</g>
<g>
</g>
<g>
</g>
<g>
</g>
<g>
</g>
<g>
</g>
<g>
</g>
<g>
</g>
<g>
</g>
<g>
</g>
<g>
</g>
<g>
</g>
<g>
</g>
<g>
</g>
<g>
</g>
</svg>
