<?xml version="1.0" encoding="iso-8859-1"?>
<!-- Generator: Adobe Illustrator 16.0.4, SVG Export Plug-In . SVG Version: 6.00 Build 0)  -->
<!DOCTYPE svg PUBLIC "-//W3C//DTD SVG 1.1//EN" "http://www.w3.org/Graphics/SVG/1.1/DTD/svg11.dtd">
<svg version="1.1" id="Layer_1" xmlns="http://www.w3.org/2000/svg" xmlns:xlink="http://www.w3.org/1999/xlink" x="0px" y="0px"
	 width="56px" height="56px" viewBox="0 0 56 56" style="enable-background:new 0 0 56 56;" xml:space="preserve">
<g id="_x31_279-steam_x40_2x.png">
	<g>
		<path d="M31.797,31.514c0.027-0.017,0.058-0.028,0.086-0.044C31.608,31.441,31.52,31.467,31.797,31.514z M12.267,21.129
			c-1.641-0.11-3.062,1.11-3.175,2.727c-0.112,1.617,1.127,3.018,2.769,3.128c0.565,0.038,1.423-0.286,1.662-0.391
			c-0.788-0.08-3.054-0.589-2.933-2.326c0.075-1.082,1.026-1.899,2.125-1.825c0.471,0.032,1.36,0.448,2.227,0.91
			C14.638,22.149,13.59,21.219,12.267,21.129z M13.62,26.551c-0.005,0.004-0.065,0.027-0.098,0.042
			C13.805,26.621,13.901,26.596,13.62,26.551z M42.587,20.753c-2.007,0-3.637,1.605-3.637,3.581s1.63,3.575,3.637,3.575
			c2.006,0,3.636-1.6,3.636-3.575S44.593,20.753,42.587,20.753z M42.599,26.496c-1.221,0-2.212-0.976-2.212-2.179
			c0-1.202,0.991-2.178,2.212-2.178c1.222,0,2.212,0.976,2.212,2.178C44.811,25.521,43.82,26.496,42.599,26.496z M28,0
			C12.536,0,0,12.536,0,28s12.536,28,28,28s28-12.536,28-28S43.464,0,28,0z M42.587,29.67l-5.195,4.74
			c-0.2,2.015-1.93,3.598-4.026,3.598c-1.937,0-3.559-1.349-3.955-3.141l-15.304-7.385c-0.606,0.357-1.312,0.562-2.067,0.562
			c-2.23,0-4.049-1.792-4.049-3.988s1.818-3.993,4.049-3.993c1.933,0,3.555,1.347,3.955,3.135l15.304,7.396
			c0.606-0.356,1.312-0.562,2.067-0.562c0.141,0,0.281,0.008,0.419,0.022l3.379-5.77c0.027-2.927,2.445-5.292,5.424-5.292
			c2.994,0,5.423,2.393,5.423,5.342C48.01,27.281,45.58,29.67,42.587,29.67z M33.559,31.089c-0.608-0.044-1.182,0.104-1.676,0.381
			c0.775,0.08,3.063,0.597,2.934,2.342c-0.081,1.081-1.036,1.894-2.135,1.814c-0.471-0.034-1.358-0.454-2.222-0.921
			c0.298,1.204,1.341,2.14,2.663,2.235c1.641,0.119,3.068-1.095,3.189-2.711C36.433,32.613,35.2,31.207,33.559,31.089z"/>
	</g>
</g>
<g>
</g>
<g>
</g>
<g>
</g>
<g>
</g>
<g>
</g>
<g>
</g>
<g>
</g>
<g>
</g>
<g>
</g>
<g>
</g>
<g>
</g>
<g>
</g>
<g>
</g>
<g>
</g>
<g>
</g>
</svg>
