<?xml version="1.0" encoding="iso-8859-1"?>
<!-- Generator: Adobe Illustrator 16.0.4, SVG Export Plug-In . SVG Version: 6.00 Build 0)  -->
<!DOCTYPE svg PUBLIC "-//W3C//DTD SVG 1.1//EN" "http://www.w3.org/Graphics/SVG/1.1/DTD/svg11.dtd">
<svg version="1.1" id="Layer_1" xmlns="http://www.w3.org/2000/svg" xmlns:xlink="http://www.w3.org/1999/xlink" x="0px" y="0px"
	 width="56px" height="56px" viewBox="0 0 56 56" style="enable-background:new 0 0 56 56;" xml:space="preserve">
<g id="_x31_280-stumbleupon_x40_2x.png">
	<g>
		<path d="M28,0C12.536,0,0,12.536,0,28s12.536,28,28,28s28-12.536,28-28S43.464,0,28,0z M27.992,18.302
			c-1.052,0-1.999,0.868-1.999,1.94l-0.009,11.695c-0.062,4.473-3.54,8.081-7.945,8.081c-4.445,0-8.049-3.671-8.049-8.198
			c0-0.06,0-4.836,0-4.836h6.003v4.769c0,1.072,0.916,1.94,1.968,1.94c1.053,0,2.03-0.868,2.03-1.94V19.911
			c0.155-4.389,3.654-7.9,8.001-7.9c4.363,0,7.871,3.538,8.001,7.949v2.592l-3.636,1.115l-2.366-1.168v-2.257
			C29.991,19.17,29.045,18.302,27.992,18.302z M45.995,31.82c0,4.527-3.604,8.198-8.049,8.198c-4.421,0-7.916-3.632-7.955-8.126
			v-5.048l2.366,1.168l3.636-1.115v5.09c0,1.072,0.947,2.003,1.999,2.003c1.053,0,1.999-0.931,1.999-2.003v-5.003h6.004
			C45.995,26.984,45.995,31.761,45.995,31.82z"/>
	</g>
</g>
<g>
</g>
<g>
</g>
<g>
</g>
<g>
</g>
<g>
</g>
<g>
</g>
<g>
</g>
<g>
</g>
<g>
</g>
<g>
</g>
<g>
</g>
<g>
</g>
<g>
</g>
<g>
</g>
<g>
</g>
</svg>
