<?xml version="1.0" encoding="iso-8859-1"?>
<!-- Generator: Adobe Illustrator 16.0.4, SVG Export Plug-In . SVG Version: 6.00 Build 0)  -->
<!DOCTYPE svg PUBLIC "-//W3C//DTD SVG 1.1//EN" "http://www.w3.org/Graphics/SVG/1.1/DTD/svg11.dtd">
<svg version="1.1" id="Layer_1" xmlns="http://www.w3.org/2000/svg" xmlns:xlink="http://www.w3.org/1999/xlink" x="0px" y="0px"
	 width="56px" height="56px" viewBox="0 0 56 56" style="enable-background:new 0 0 56 56;" xml:space="preserve">
<g id="_x31_281-tumblr_x40_2x.png">
	<g>
		<path d="M28,0C12.536,0,0,12.536,0,28s12.536,28,28,28s28-12.536,28-28S43.464,0,28,0z M30.577,44.01
			c-6.816,0.119-9.399-4.969-9.399-8.55V24.999h-3.166v-4.136c4.746-1.751,5.888-6.132,6.156-8.628
			c0.019-0.171,0.15-0.239,0.225-0.239s4.584,0,4.584,0v8.155h6.261v4.848h-6.284v9.966c0.021,1.356,0.507,3.226,3.012,3.156
			c0.83-0.021,1.943-0.27,2.524-0.553l1.505,4.566C35.431,42.983,32.876,43.969,30.577,44.01z"/>
	</g>
</g>
<g>
</g>
<g>
</g>
<g>
</g>
<g>
</g>
<g>
</g>
<g>
</g>
<g>
</g>
<g>
</g>
<g>
</g>
<g>
</g>
<g>
</g>
<g>
</g>
<g>
</g>
<g>
</g>
<g>
</g>
</svg>
