<?xml version="1.0" encoding="iso-8859-1"?>
<!-- Generator: Adobe Illustrator 16.0.4, SVG Export Plug-In . SVG Version: 6.00 Build 0)  -->
<!DOCTYPE svg PUBLIC "-//W3C//DTD SVG 1.1//EN" "http://www.w3.org/Graphics/SVG/1.1/DTD/svg11.dtd">
<svg version="1.1" id="Layer_1" xmlns="http://www.w3.org/2000/svg" xmlns:xlink="http://www.w3.org/1999/xlink" x="0px" y="0px"
	 width="56px" height="56px" viewBox="0 0 56 56" style="enable-background:new 0 0 56 56;" xml:space="preserve">
<g id="_x31_282-twitter_x40_2x.png">
	<g>
		<path d="M28,0C12.536,0,0,12.536,0,28s12.536,28,28,28s28-12.536,28-28S43.464,0,28,0z M41.726,21.475
			c0.012,0.281,0.017,0.564,0.017,0.85c0,8.676-6.603,18.679-18.678,18.679c-3.708,0-7.161-1.087-10.065-2.949
			c0.513,0.062,1.033,0.093,1.564,0.093c3.076,0,5.902-1.051,8.149-2.811c-2.873-0.054-5.306-1.952-6.142-4.561
			c0.401,0.076,0.794,0.119,1.217,0.119c0.599,0,1.143-0.081,1.693-0.23c-3.002-0.604-5.337-3.257-5.337-6.438
			c0-0.027,0-0.055,0-0.082c1.143,0.491,1.969,0.787,3.045,0.821c-1.762-1.178-2.849-3.187-2.849-5.465
			c0-1.203,0.323-2.332,0.889-3.3c3.237,3.971,8.075,6.585,13.532,6.859c-0.112-0.481-0.17-0.982-0.17-1.497
			c0-3.626,2.939-6.565,6.565-6.565c1.887,0,3.594,0.798,4.792,2.074c1.497-0.295,2.9-0.841,4.169-1.594
			c-0.49,1.533-1.531,2.819-2.887,3.633c1.328-0.159,2.594-0.512,3.771-1.034C44.121,19.393,43.009,20.549,41.726,21.475z"/>
	</g>
</g>
<g>
</g>
<g>
</g>
<g>
</g>
<g>
</g>
<g>
</g>
<g>
</g>
<g>
</g>
<g>
</g>
<g>
</g>
<g>
</g>
<g>
</g>
<g>
</g>
<g>
</g>
<g>
</g>
<g>
</g>
</svg>
