<?xml version="1.0" encoding="iso-8859-1"?>
<!-- Generator: Adobe Illustrator 16.0.4, SVG Export Plug-In . SVG Version: 6.00 Build 0)  -->
<!DOCTYPE svg PUBLIC "-//W3C//DTD SVG 1.1//EN" "http://www.w3.org/Graphics/SVG/1.1/DTD/svg11.dtd">
<svg version="1.1" id="Layer_1" xmlns="http://www.w3.org/2000/svg" xmlns:xlink="http://www.w3.org/1999/xlink" x="0px" y="0px"
	 width="56px" height="56px" viewBox="0 0 56 56" style="enable-background:new 0 0 56 56;" xml:space="preserve">
<g id="_x31_283-vimeo_x40_2x.png">
	<g>
		<path d="M28,0C12.536,0,0,12.536,0,28s12.536,28,28,28s28-12.536,28-28S43.464,0,28,0z M36.479,34.021
			c-4.357,5.312-8.042,7.967-11.058,7.967c-1.867,0-3.447-1.62-4.739-4.861c-0.862-2.971-1.724-5.941-2.585-8.912
			c-0.958-3.241-1.987-4.861-3.088-4.861c-0.24,0-1.077,0.473-2.513,1.418l-1.508-1.823c1.58-1.305,3.135-2.609,4.667-3.916
			c2.106-1.71,3.686-2.609,4.739-2.7c2.489-0.225,4.021,1.373,4.596,4.794c0.622,3.691,1.053,5.986,1.292,6.887
			c0.718,3.062,1.508,4.591,2.37,4.591c0.67,0,1.675-0.989,3.016-2.971c1.339-1.98,2.058-3.487,2.154-4.523
			c0.191-1.71-0.527-2.565-2.154-2.565c-0.767,0-1.556,0.158-2.37,0.473c1.58-4.816,4.596-7.157,9.047-7.022
			c3.303,0.091,4.858,2.093,4.667,6.009C42.87,24.929,40.691,28.935,36.479,34.021z"/>
	</g>
</g>
<g>
</g>
<g>
</g>
<g>
</g>
<g>
</g>
<g>
</g>
<g>
</g>
<g>
</g>
<g>
</g>
<g>
</g>
<g>
</g>
<g>
</g>
<g>
</g>
<g>
</g>
<g>
</g>
<g>
</g>
</svg>
