<?xml version="1.0" encoding="iso-8859-1"?>
<!-- Generator: Adobe Illustrator 16.0.4, SVG Export Plug-In . SVG Version: 6.00 Build 0)  -->
<!DOCTYPE svg PUBLIC "-//W3C//DTD SVG 1.1//EN" "http://www.w3.org/Graphics/SVG/1.1/DTD/svg11.dtd">
<svg version="1.1" id="Layer_1" xmlns="http://www.w3.org/2000/svg" xmlns:xlink="http://www.w3.org/1999/xlink" x="0px" y="0px"
	 width="56px" height="56px" viewBox="0 0 56 56" style="enable-background:new 0 0 56 56;" xml:space="preserve">
<g id="_x31_285-wordpress_x40_2x.png">
	<g>
		<path d="M28.332,29.651l-5.666,16.461c1.692,0.497,3.48,0.769,5.334,0.769c2.199,0,4.307-0.379,6.27-1.07
			c-0.05-0.08-0.097-0.166-0.135-0.26L28.332,29.651z M9.119,28c0,7.473,4.343,13.932,10.642,16.991l-9.006-24.676
			C9.707,22.664,9.119,25.262,9.119,28z M40.746,27.047c0-2.334-0.838-3.949-1.557-5.207c-0.957-1.556-1.854-2.872-1.854-4.428
			c0-1.735,1.316-3.352,3.17-3.352c0.084,0,0.163,0.011,0.245,0.016C37.391,10.998,32.915,9.119,28,9.119
			c-6.597,0-12.399,3.385-15.775,8.51c0.443,0.014,0.861,0.023,1.215,0.023c1.974,0,5.032-0.24,5.032-0.24
			c1.018-0.06,1.138,1.436,0.121,1.556c0,0-1.023,0.12-2.161,0.18l6.875,20.451l4.132-12.392l-2.941-8.06
			c-1.018-0.06-1.98-0.18-1.98-0.18c-1.018-0.06-0.898-1.615,0.12-1.556c0,0,3.118,0.24,4.973,0.24c1.974,0,5.033-0.24,5.033-0.24
			c1.018-0.06,1.138,1.436,0.12,1.556c0,0-1.024,0.12-2.161,0.18l6.823,20.296l1.884-6.292
			C40.124,30.538,40.746,28.663,40.746,27.047z M28,0C12.536,0,0,12.536,0,28s12.536,28,28,28s28-12.536,28-28S43.464,0,28,0z
			 M28,50C15.85,50,6,40.15,6,28S15.85,6,28,6s22,9.85,22,22S40.15,50,28,50z M44.568,18.941c0.081,0.602,0.127,1.246,0.127,1.941
			c0,1.916-0.359,4.069-1.436,6.763l-5.767,16.674C43.105,41.046,46.88,34.965,46.88,28C46.88,24.717,46.042,21.631,44.568,18.941z"
			/>
	</g>
</g>
<g>
</g>
<g>
</g>
<g>
</g>
<g>
</g>
<g>
</g>
<g>
</g>
<g>
</g>
<g>
</g>
<g>
</g>
<g>
</g>
<g>
</g>
<g>
</g>
<g>
</g>
<g>
</g>
<g>
</g>
</svg>
