<?xml version="1.0" encoding="iso-8859-1"?>
<!-- Generator: Adobe Illustrator 16.0.4, SVG Export Plug-In . SVG Version: 6.00 Build 0)  -->
<!DOCTYPE svg PUBLIC "-//W3C//DTD SVG 1.1//EN" "http://www.w3.org/Graphics/SVG/1.1/DTD/svg11.dtd">
<svg version="1.1" id="Layer_1" xmlns="http://www.w3.org/2000/svg" xmlns:xlink="http://www.w3.org/1999/xlink" x="0px" y="0px"
	 width="56px" height="56px" viewBox="0 0 56 56" style="enable-background:new 0 0 56 56;" xml:space="preserve">
<g id="_x31_286-yahoo_x40_2x.png">
	<g>
		<path d="M28,0C12.536,0,0,12.536,0,28s12.536,28,28,28s28-12.536,28-28S43.464,0,28,0z M26.909,42c0,0-0.981-0.178-1.77-0.178
			c-0.711,0-1.844,0.178-1.844,0.178l0.229-11.929C21.876,27.225,17.026,18.553,14,14c1.524,0.347,2.164,0.326,3.692,0
			c1.927,3.41,4.885,8.18,7.384,12.312C27.54,22.268,31.411,15.952,32.46,14c1.191,0.312,2.391,0.302,3.721,0l-0.002,0.002
			c0.001,0,0.002-0.001,0.003-0.002c-1.396,1.883-6.477,10.679-9.555,16.07L26.909,42z M36.488,41.88
			c-1.108,0-2.004-0.573-2.004-1.69c0-0.947,0.578-1.829,1.738-1.829c1.11,0,1.94,0.661,1.94,1.718
			C38.163,41.395,37.289,41.88,36.488,41.88z M41.777,17.123c-0.62,2.726-3.044,12.355-4.064,18.784l0.002,0.003
			c-0.409-0.164-0.831-0.306-1.375-0.212l-0.004,0.001c0,0,0,0,0-0.001c-0.001,0.001-0.002,0.001-0.003,0.001l0.004-0.004
			c0.898-6.33,1.445-12.981,1.971-19.614c0-1.322,0.877-1.84,1.762-1.84c0.155,0,0.384,0.032,0.384,0.032v0.002l0.002-0.002
			C41.381,14.428,42,14.992,42,15.965C42,16.287,41.867,16.74,41.777,17.123z"/>
	</g>
</g>
<g>
</g>
<g>
</g>
<g>
</g>
<g>
</g>
<g>
</g>
<g>
</g>
<g>
</g>
<g>
</g>
<g>
</g>
<g>
</g>
<g>
</g>
<g>
</g>
<g>
</g>
<g>
</g>
<g>
</g>
</svg>
