<?xml version="1.0" encoding="iso-8859-1"?>
<!-- Generator: Adobe Illustrator 16.0.4, SVG Export Plug-In . SVG Version: 6.00 Build 0)  -->
<!DOCTYPE svg PUBLIC "-//W3C//DTD SVG 1.1//EN" "http://www.w3.org/Graphics/SVG/1.1/DTD/svg11.dtd">
<svg version="1.1" id="Layer_1" xmlns="http://www.w3.org/2000/svg" xmlns:xlink="http://www.w3.org/1999/xlink" x="0px" y="0px"
	 width="56px" height="56px" viewBox="0 0 56 56" style="enable-background:new 0 0 56 56;" xml:space="preserve">
<g id="_x31_287-youtube_x40_2x.png">
	<g>
		<path d="M27.134,20.697c0.466,0,0.844-0.321,0.844-0.716v-3.34c0-0.396-0.378-0.716-0.844-0.716c-0.467,0-0.845,0.32-0.845,0.716
			v3.34C26.289,20.376,26.667,20.697,27.134,20.697z M25.586,38.205c0,0-0.562,0.692-1.125,0.692s-0.562-0.416-0.562-0.416v-7.721
			H22.21v8.275c0,0,0.141,1.107,1.267,1.107c1.125,0,2.109-0.97,2.109-0.97v0.832h1.688v-9.245h-1.688V38.205z M37.966,30.761
			c-2.673,0-2.673,2.354-2.673,2.354v5.09c0,0,0.422,1.938,2.673,1.938c2.25,0,2.532-1.938,2.532-1.938v-1.524h-1.829v0.97
			c0,0,0,0.97-0.844,0.97c-0.845,0-0.845-0.97-0.845-0.97v-1.765h3.518v-2.771C40.498,33.115,40.639,30.761,37.966,30.761z
			 M38.669,34.5H36.98v-1.246c0,0,0-0.97,0.845-0.97c0.844,0,0.844,0.97,0.844,0.97V34.5z M15.739,29.799h2.11v10.207h1.969V29.799
			h2.11v-1.801h-6.189V29.799z M28,0C12.536,0,0,12.536,0,28s12.536,28,28,28s28-12.536,28-28S43.464,0,28,0z M31.213,14.447h1.688
			v5.834c0,0,0,0.415,0.562,0.415s1.125-0.692,1.125-0.692v-5.557h1.688v7.357h-1.688v-0.832c0,0-0.984,0.97-2.109,0.97
			c-1.126,0-1.267-1.107-1.267-1.107V14.447z M24.602,16.521c0-1.124,1.008-2.036,2.251-2.036h0.562
			c1.243,0,2.251,0.912,2.251,2.036v3.309c0,1.124-1.008,2.036-2.251,2.036h-0.562c-1.243,0-2.251-0.912-2.251-2.036V16.521z
			 M19.818,11.993l1.407,3.439l1.406-3.439h1.829l-2.251,5.518v4.294h-1.97v-4.294l-2.391-5.518H19.818z M43,39.006
			c0,2.763-2.238,5.002-5,5.002H18c-2.762,0-5-2.239-5-5.002V29.004c0-2.762,2.238-5.001,5-5.001h20c2.762,0,5,2.239,5,5.001V39.006
			z M32.339,30.761c-0.855,0-1.546,0.638-1.829,0.944v-3.707h-1.829v12.008h1.829v-0.783c0.306,0.402,0.881,0.921,1.829,0.921
			c1.547,0,1.547-2.216,1.547-2.216s0-3.704,0-4.951C33.886,31.73,33.464,30.761,32.339,30.761z M32.197,37.65
			c0,0,0,0.97-0.844,0.97c-0.4,0-0.667-0.189-0.844-0.387v-5.511c0.193-0.216,0.479-0.438,0.844-0.438
			c0.703,0,0.844,0.97,0.844,0.97V37.65z"/>
	</g>
</g>
<g>
</g>
<g>
</g>
<g>
</g>
<g>
</g>
<g>
</g>
<g>
</g>
<g>
</g>
<g>
</g>
<g>
</g>
<g>
</g>
<g>
</g>
<g>
</g>
<g>
</g>
<g>
</g>
<g>
</g>
</svg>
