<?xml version="1.0" encoding="iso-8859-1"?>
<!-- Generator: Adobe Illustrator 16.0.4, SVG Export Plug-In . SVG Version: 6.00 Build 0)  -->
<!DOCTYPE svg PUBLIC "-//W3C//DTD SVG 1.1//EN" "http://www.w3.org/Graphics/SVG/1.1/DTD/svg11.dtd">
<svg version="1.1" id="Layer_1" xmlns="http://www.w3.org/2000/svg" xmlns:xlink="http://www.w3.org/1999/xlink" x="0px" y="0px"
	 width="56px" height="56px" viewBox="0 0 56 56" style="enable-background:new 0 0 56 56;" xml:space="preserve">
<g id="_x31_288-500px_x40_2x.png">
	<g>
		<path d="M38.679,27.912c-1.38,0-3.713,2.223-3.713,2.535c0,0.313,2.333,2.536,3.713,2.536c1.62,0,2.498-1.136,2.498-2.536
			S40.299,27.912,38.679,27.912z M27.606,27.912c-1.62,0-2.498,1.135-2.498,2.535s0.878,2.536,2.498,2.536
			c1.38,0,3.714-2.223,3.714-2.536C31.32,30.135,28.986,27.912,27.606,27.912z M28,0C12.536,0,0,12.536,0,28s12.536,28,28,28
			s28-12.536,28-28S43.464,0,28,0z M38.645,35.998c-1.895,0-4.277-1.824-5.502-3.575c-1.224,1.751-3.607,3.575-5.502,3.575
			c-2.275,0-4.209-1.181-4.99-3.337c-0.669,1.606-2.115,3.294-5.238,3.294c-5.468,0-5.4-4.963-5.4-4.963h3.038
			c0,1.275,1.147,2.41,2.362,2.41c1.216,0,2.701-1.063,2.701-2.907c0-1.843-1.013-3.119-2.565-3.119s-2.363,1.347-2.363,1.347h-2.7
			l1.485-8.721h8.371v2.623H16.13l-0.54,3.545c1.35-1.347,3.173-1.134,3.173-1.134c2.209,0,3.387,1.539,3.966,2.918
			c0.83-2.034,2.714-3.058,4.912-3.058c1.895,0,4.278,1.824,5.502,3.576c1.225-1.752,3.607-3.576,5.502-3.576
			c2.965,0,5.367,1.851,5.367,5.551C44.012,34.012,41.609,35.998,38.645,35.998z"/>
	</g>
</g>
<g>
</g>
<g>
</g>
<g>
</g>
<g>
</g>
<g>
</g>
<g>
</g>
<g>
</g>
<g>
</g>
<g>
</g>
<g>
</g>
<g>
</g>
<g>
</g>
<g>
</g>
<g>
</g>
<g>
</g>
</svg>
