<?xml version="1.0" encoding="iso-8859-1"?>
<!-- Generator: Adobe Illustrator 16.0.4, SVG Export Plug-In . SVG Version: 6.00 Build 0)  -->
<!DOCTYPE svg PUBLIC "-//W3C//DTD SVG 1.1//EN" "http://www.w3.org/Graphics/SVG/1.1/DTD/svg11.dtd">
<svg version="1.1" id="Layer_1" xmlns="http://www.w3.org/2000/svg" xmlns:xlink="http://www.w3.org/1999/xlink" x="0px" y="0px"
	 width="56px" height="56px" viewBox="0 0 56 56" style="enable-background:new 0 0 56 56;" xml:space="preserve">
<g id="_x31_289-appstore_x40_2x.png">
	<g>
		<path d="M28,0C12.536,0,0,12.536,0,28s12.536,28,28,28s28-12.536,28-28S43.464,0,28,0z M23.768,18.43
			c0.276-0.479,0.888-0.642,1.366-0.366l1.732,1c0.479,0.275,0.642,0.887,0.366,1.364l-0.839,1.46l-3.473-1.982L23.768,18.43z
			 M12,26.99h5.432l-2.006,3.456H12V26.99z M17.732,36.968l-4.69,3.874l1.227-5.872l0.098-0.17l3.473,1.982L17.732,36.968z
			 M15.034,33.638l7.229-12.564l3.463,1.977l-2.245,3.909h0.003l-4.981,8.658L15.034,33.638z M22.899,30.446l2.007-3.456h6.359
			l2.019,3.456H22.899z M26.018,15.499c-0.275-0.478-0.112-1.089,0.366-1.365l1.732-0.999c0.479-0.276,1.09-0.112,1.366,0.365
			l8.374,14.477L34.385,30L26.018,15.499z M35.064,31.156l3.463-2.019l0.758,1.309h-0.012l0.591,1.022l-3.455,2.015L35.064,31.156z
			 M41.375,41.001c0,0,0.094-1.749-1.938-2.717c-2.008-0.957-2.396-2.613-2.344-3.616l-0.014-0.023l0.014-0.008
			c0-0.002,0-0.004,0-0.006l3.422-1.998c0.004,0,0.008,0.002,0.012,0.002l0.008-0.004l0.005,0.008c0.812,0.03,1.96,1.645,1.96,4.521
			C42.5,40.438,41.375,41.001,41.375,41.001z M44,30.446h-3.313l-2.018-3.456H44V30.446z"/>
	</g>
</g>
<g>
</g>
<g>
</g>
<g>
</g>
<g>
</g>
<g>
</g>
<g>
</g>
<g>
</g>
<g>
</g>
<g>
</g>
<g>
</g>
<g>
</g>
<g>
</g>
<g>
</g>
<g>
</g>
<g>
</g>
</svg>
