<?xml version="1.0" encoding="iso-8859-1"?>
<!-- Generator: Adobe Illustrator 16.0.4, SVG Export Plug-In . SVG Version: 6.00 Build 0)  -->
<!DOCTYPE svg PUBLIC "-//W3C//DTD SVG 1.1//EN" "http://www.w3.org/Graphics/SVG/1.1/DTD/svg11.dtd">
<svg version="1.1" id="Layer_1" xmlns="http://www.w3.org/2000/svg" xmlns:xlink="http://www.w3.org/1999/xlink" x="0px" y="0px"
	 width="56px" height="56px" viewBox="0 0 56 56" style="enable-background:new 0 0 56 56;" xml:space="preserve">
<g id="_x31_291-bing_x40_2x.png">
	<g>
		<path d="M28,0C12.536,0,0,12.536,0,28s12.536,28,28,28s28-12.536,28-28S43.464,0,28,0z M28,42c-8.833,0-15.993-4.701-15.993-10.5
			h-0.001V14h4.983v9.897C19.858,22.106,23.729,21,28,21c8.833,0,15.993,4.701,15.993,10.5S36.833,42,28,42z M27.997,25.013
			c-6.079,0-11.006,2.904-11.006,6.487s4.928,6.487,11.006,6.487c6.078,0,11.006-2.904,11.006-6.487S34.075,25.013,27.997,25.013z"
			/>
	</g>
</g>
<g>
</g>
<g>
</g>
<g>
</g>
<g>
</g>
<g>
</g>
<g>
</g>
<g>
</g>
<g>
</g>
<g>
</g>
<g>
</g>
<g>
</g>
<g>
</g>
<g>
</g>
<g>
</g>
<g>
</g>
</svg>
