<?xml version="1.0" encoding="iso-8859-1"?>
<!-- Generator: Adobe Illustrator 16.0.4, SVG Export Plug-In . SVG Version: 6.00 Build 0)  -->
<!DOCTYPE svg PUBLIC "-//W3C//DTD SVG 1.1//EN" "http://www.w3.org/Graphics/SVG/1.1/DTD/svg11.dtd">
<svg version="1.1" id="Layer_1" xmlns="http://www.w3.org/2000/svg" xmlns:xlink="http://www.w3.org/1999/xlink" x="0px" y="0px"
	 width="56px" height="56px" viewBox="0 0 56 56" style="enable-background:new 0 0 56 56;" xml:space="preserve">
<g id="_x31_293-behance_x40_2x.png">
	<g>
		<path d="M23.408,23.847c0-2.481-1.907-2.343-1.907-2.343l-4.944,0.007v4.671h4.959C21.517,26.182,23.408,26.327,23.408,23.847z
			 M28,0C12.536,0,0,12.536,0,28s12.536,28,28,28s28-12.536,28-28S43.464,0,28,0z M33.49,19.001h7.006v2.001H33.49V19.001z
			 M23.417,37.986H11.991V18.007h11.426c0,0,4.404-0.065,4.468,4.831c0,0,0.128,3.069-2.681,4.375c0,0,3.447-0.196,3.574,5.158
			C28.906,37.725,23.417,37.986,23.417,37.986z M37.506,34.799c0,0,2.073,0.363,2.866-1.604h3.597c0,0,0.366,4.714-6.28,4.714
			s-7.438-5.014-7.438-7.869s1.402-7.362,7.073-7.362c5.426,0,6.89,4.104,6.646,8.167h-9.877
			C34.092,30.844,34.274,34.799,37.506,34.799z M37.354,25.724c-2.652,0-3.079,2.855-3.079,2.855h6.158
			C40.433,28.579,40.006,25.724,37.354,25.724z M21.624,29.686h-5.066v4.672l5.071-0.015c0,0,2.921,0.16,2.921-2.321
			S21.624,29.686,21.624,29.686z"/>
	</g>
</g>
<g>
</g>
<g>
</g>
<g>
</g>
<g>
</g>
<g>
</g>
<g>
</g>
<g>
</g>
<g>
</g>
<g>
</g>
<g>
</g>
<g>
</g>
<g>
</g>
<g>
</g>
<g>
</g>
<g>
</g>
</svg>
