<?xml version="1.0" encoding="iso-8859-1"?>
<!-- Generator: Adobe Illustrator 16.0.4, SVG Export Plug-In . SVG Version: 6.00 Build 0)  -->
<!DOCTYPE svg PUBLIC "-//W3C//DTD SVG 1.1//EN" "http://www.w3.org/Graphics/SVG/1.1/DTD/svg11.dtd">
<svg version="1.1" id="Layer_1" xmlns="http://www.w3.org/2000/svg" xmlns:xlink="http://www.w3.org/1999/xlink" x="0px" y="0px"
	 width="56px" height="56px" viewBox="0 0 56 56" style="enable-background:new 0 0 56 56;" xml:space="preserve">
<g id="_x31_294-deviantart_x40_2x.png">
	<g>
		<path d="M15.126,33.026l7.718-0.031v-9.231C15.857,26.115,15.126,33.026,15.126,33.026z M28,0C12.536,0,0,12.536,0,28
			s12.536,28,28,28s28-12.536,28-28S43.464,0,28,0z M29.24,35.997V25.485c0,0,1.728-0.191,3.857,0.954v6.54l7.715,0.047
			c0,0-1.408-10.04-12.843-10.04c-0.439,0-0.858,0.019-1.269,0.045v9.948h0.002v3.018H9.989c0,0,0.558-12.296,12.855-15.01v-4.171
			c0,0,1.928-0.812,3.856-0.812v4.485c0.415-0.02,0.833-0.036,1.269-0.036c17.522,0,18.024,15.544,18.024,15.544H29.24z"/>
	</g>
</g>
<g>
</g>
<g>
</g>
<g>
</g>
<g>
</g>
<g>
</g>
<g>
</g>
<g>
</g>
<g>
</g>
<g>
</g>
<g>
</g>
<g>
</g>
<g>
</g>
<g>
</g>
<g>
</g>
<g>
</g>
</svg>
