<?xml version="1.0" encoding="iso-8859-1"?>
<!-- Generator: Adobe Illustrator 16.0.4, SVG Export Plug-In . SVG Version: 6.00 Build 0)  -->
<!DOCTYPE svg PUBLIC "-//W3C//DTD SVG 1.1//EN" "http://www.w3.org/Graphics/SVG/1.1/DTD/svg11.dtd">
<svg version="1.1" id="Layer_1" xmlns="http://www.w3.org/2000/svg" xmlns:xlink="http://www.w3.org/1999/xlink" x="0px" y="0px"
	 width="56px" height="56px" viewBox="0 0 56 56" style="enable-background:new 0 0 56 56;" xml:space="preserve">
<g id="_x31_295-rss_x40_2x.png">
	<g>
		<path d="M28,0C12.536,0,0,12.536,0,28s12.536,28,28,28s28-12.536,28-28S43.464,0,28,0z M19.012,39.984
			c-1.655,0-2.997-1.342-2.997-2.996c0-1.655,1.342-2.997,2.997-2.997c1.655,0,2.997,1.342,2.997,2.997
			C22.009,38.643,20.667,39.984,19.012,39.984z M30,39.984C30,32.261,23.739,26,16.016,26v-3.995c9.93,0,17.98,8.05,17.98,17.979H30
			z M39.989,39.984c0-13.24-10.733-23.973-23.973-23.973v-3.996c15.447,0,27.969,12.522,27.969,27.969H39.989z"/>
	</g>
</g>
<g>
</g>
<g>
</g>
<g>
</g>
<g>
</g>
<g>
</g>
<g>
</g>
<g>
</g>
<g>
</g>
<g>
</g>
<g>
</g>
<g>
</g>
<g>
</g>
<g>
</g>
<g>
</g>
<g>
</g>
</svg>
