<?xml version="1.0" encoding="iso-8859-1"?>
<!-- Generator: Adobe Illustrator 16.0.4, SVG Export Plug-In . SVG Version: 6.00 Build 0)  -->
<!DOCTYPE svg PUBLIC "-//W3C//DTD SVG 1.1//EN" "http://www.w3.org/Graphics/SVG/1.1/DTD/svg11.dtd">
<svg version="1.1" id="Layer_1" xmlns="http://www.w3.org/2000/svg" xmlns:xlink="http://www.w3.org/1999/xlink" x="0px" y="0px"
	 width="56px" height="56px" viewBox="0 0 56 56" style="enable-background:new 0 0 56 56;" xml:space="preserve">
<g id="_x31_296-meetup_x40_2x.png">
	<g>
		<path d="M28,0C12.536,0,0,12.536,0,28s12.536,28,28,28s28-12.536,28-28S43.464,0,28,0z M39.729,39.99h-2.648l-4.919-15.368
			l-0.757,4.757V35.6l-1.135,2.562h-2.649l-1.892,0.731l-5.676-7.685l0.757,5.855l-2.27,1.464l-3.027,0.365l-0.757-1.464L14,33.038
			V19.499c0,0,1.514-1.099,3.784-1.099l1.892,0.366l6.054,9.88l0.379-4.024l3.405-10.246l2.271-0.366l3.405,0.732l3.405,9.88
			l0.378,2.195L42,38.893L39.729,39.99z"/>
	</g>
</g>
<g>
</g>
<g>
</g>
<g>
</g>
<g>
</g>
<g>
</g>
<g>
</g>
<g>
</g>
<g>
</g>
<g>
</g>
<g>
</g>
<g>
</g>
<g>
</g>
<g>
</g>
<g>
</g>
<g>
</g>
</svg>
