<?xml version="1.0" encoding="iso-8859-1"?>
<!-- Generator: Adobe Illustrator 16.0.4, SVG Export Plug-In . SVG Version: 6.00 Build 0)  -->
<!DOCTYPE svg PUBLIC "-//W3C//DTD SVG 1.1//EN" "http://www.w3.org/Graphics/SVG/1.1/DTD/svg11.dtd">
<svg version="1.1" id="Layer_1" xmlns="http://www.w3.org/2000/svg" xmlns:xlink="http://www.w3.org/1999/xlink" x="0px" y="0px"
	 width="56px" height="56px" viewBox="0 0 56 56" style="enable-background:new 0 0 56 56;" xml:space="preserve">
<g id="_x31_297-android_x40_2x.png">
	<g>
		<path d="M31.505,14.004c-0.824,0-1.491,0.667-1.491,1.491c0,0.823,0.667,1.491,1.491,1.491c0.823,0,1.491-0.668,1.491-1.491
			C32.996,14.671,32.328,14.004,31.505,14.004z M28,0C12.536,0,0,12.536,0,28s12.536,28,28,28s28-12.536,28-28S43.464,0,28,0z
			 M15.989,31.825c0,1.196-0.893,2.165-1.994,2.165S12,33.021,12,31.825v-8.661c0-1.195,0.894-2.165,1.995-2.165
			s1.994,0.97,1.994,2.165V31.825z M37.994,36.165c0,1.564-1.278,2.833-2.855,2.833h-1.134v4.76c0,1.244-0.899,2.254-2.009,2.254
			s-2.009-1.01-2.009-2.254v-4.76h-3.975v4.76c0,1.244-0.899,2.254-2.009,2.254s-2.009-1.01-2.009-2.254v-4.76h-1.134
			c-1.577,0-2.855-1.269-2.855-2.833V21.999h19.988V36.165z M18.006,19.997c0-2.783,1.68-5.471,4.193-7.171l-1.298-1.675
			c-0.245-0.315-0.185-0.768,0.134-1.01c0.319-0.242,0.775-0.183,1.02,0.134l1.407,1.814c1.373-0.677,2.918-1.076,4.538-1.076
			s3.165,0.399,4.538,1.076l1.407-1.814c0.244-0.316,0.7-0.376,1.02-0.134c0.318,0.242,0.379,0.694,0.134,1.01l-1.298,1.675
			c2.514,1.7,4.193,4.388,4.193,7.171H18.006z M44,31.825c0,1.196-0.893,2.165-1.995,2.165c-1.102,0-1.994-0.969-1.994-2.165v-8.661
			c0-1.195,0.893-2.165,1.994-2.165c1.103,0,1.995,0.97,1.995,2.165V31.825z M24.509,14.004c-0.833,0-1.508,0.667-1.508,1.491
			c0,0.823,0.675,1.491,1.508,1.491c0.832,0,1.507-0.668,1.507-1.491C26.016,14.671,25.341,14.004,24.509,14.004z"/>
	</g>
</g>
<g>
</g>
<g>
</g>
<g>
</g>
<g>
</g>
<g>
</g>
<g>
</g>
<g>
</g>
<g>
</g>
<g>
</g>
<g>
</g>
<g>
</g>
<g>
</g>
<g>
</g>
<g>
</g>
<g>
</g>
</svg>
