<?xml version="1.0" encoding="iso-8859-1"?>
<!-- Generator: Adobe Illustrator 16.0.4, SVG Export Plug-In . SVG Version: 6.00 Build 0)  -->
<!DOCTYPE svg PUBLIC "-//W3C//DTD SVG 1.1//EN" "http://www.w3.org/Graphics/SVG/1.1/DTD/svg11.dtd">
<svg version="1.1" id="Layer_1" xmlns="http://www.w3.org/2000/svg" xmlns:xlink="http://www.w3.org/1999/xlink" x="0px" y="0px"
	 width="56px" height="56px" viewBox="0 0 56 56" style="enable-background:new 0 0 56 56;" xml:space="preserve">
<g id="_x31_299-sinawebo_x40_2x.png">
	<g>
		<path d="M22.219,34.178c0,0-1.847,0.181-1.847,1.981c0,0,0.185,1.08,1.478,1.08c1.292,0,1.661-1.621,1.661-1.621
			S23.326,34.178,22.219,34.178z M28,0C12.536,0,0,12.536,0,28s12.536,28,28,28s28-12.536,28-28S43.464,0,28,0z M34.314,20.672
			c0.047,0,0.078,0.013,0.124,0.015c0.025-0.003,0.047-0.015,0.073-0.015c0.102,0,0.196,0.023,0.285,0.057
			c1.619,0.202,2.145,1.315,2.301,2.011c0.133,0.145,0.218,0.333,0.218,0.544c0,0.447-0.364,0.81-0.813,0.81
			c-0.45,0-0.814-0.362-0.814-0.81h-0.173c0,0,0-0.991-1.2-0.991c0.002-0.015,0.004-0.024,0.006-0.038
			c-0.354-0.088-0.623-0.392-0.623-0.772s0.27-0.686,0.626-0.772C34.319,20.695,34.318,20.687,34.314,20.672z M23.511,41.996
			c0,0-11.521,0.276-11.521-7.828c0-8.104,10.044-15.297,12.075-14.757s2.031,1.261,1.847,4.682c0,0-0.185,1.261,0.185,1.261
			c0,0,2.4-1.98,5.171-1.98c2.77,0,2.954,2.16,2.954,2.16s0.185,1.081-0.738,2.342c0,0,5.355-0.54,5.909,3.602
			S32.93,41.996,23.511,41.996z M39.127,24.093c-0.602,0-1.088-0.483-1.088-1.08c0-0.001,0-0.002,0-0.004
			c0-0.037-0.02-3.229-3.246-3.237c-0.004,0-0.007,0.002-0.01,0.002c-0.6,0-1.086-0.483-1.086-1.08s0.486-1.08,1.086-1.08
			c0-0.001,0-0.002,0-0.003c5.303,0,5.424,5.145,5.427,5.38c0,0.008,0.005,0.015,0.005,0.022
			C40.215,23.609,39.728,24.093,39.127,24.093z M42.834,24.093c-0.649,0-1.176-0.523-1.176-1.17c0,0,0-6.573-6.784-6.573
			c-0.649,0-1.177-0.524-1.177-1.171s0.527-1.17,1.177-1.17c9.136,0,9.136,8.914,9.136,8.914
			C44.01,23.569,43.483,24.093,42.834,24.093z M25.728,28.055c-2.955,0-10.526,1.081-11.449,6.844c0,5.402,9.048,5.582,9.048,5.582
			c4.063,0,11.449-2.341,11.449-6.843S28.682,28.055,25.728,28.055z M22.636,38.934c-3.799,0-3.799-3.368-3.799-3.368
			c0.518-4.716,5.181-4.884,5.181-4.884c3.108,0,3.799,2.525,3.799,3.705C27.816,35.565,26.436,38.934,22.636,38.934z M24.233,33.42
			c0,0-0.514,0-0.514,0.751c0,0.752,0.514,0.502,0.514,0.502s0.771,0,0.771-0.752S24.233,33.42,24.233,33.42z"/>
	</g>
</g>
<g>
</g>
<g>
</g>
<g>
</g>
<g>
</g>
<g>
</g>
<g>
</g>
<g>
</g>
<g>
</g>
<g>
</g>
<g>
</g>
<g>
</g>
<g>
</g>
<g>
</g>
<g>
</g>
<g>
</g>
</svg>
