<?xml version="1.0" encoding="iso-8859-1"?>
<!-- Generator: Adobe Illustrator 16.0.4, SVG Export Plug-In . SVG Version: 6.00 Build 0)  -->
<!DOCTYPE svg PUBLIC "-//W3C//DTD SVG 1.1//EN" "http://www.w3.org/Graphics/SVG/1.1/DTD/svg11.dtd">
<svg version="1.1" id="Layer_1" xmlns="http://www.w3.org/2000/svg" xmlns:xlink="http://www.w3.org/1999/xlink" x="0px" y="0px"
	 width="56px" height="56px" viewBox="0 0 56 56" style="enable-background:new 0 0 56 56;" xml:space="preserve">
<g id="_x31_300-renren_x40_2x.png">
	<g>
		<path d="M28,0C12.536,0,0,12.536,0,28s12.536,28,28,28s28-12.536,28-28S43.464,0,28,0z M12.784,34.837
			c-1.725-1.804-2.789-4.231-2.789-6.91c0-5.032,3.735-9.19,8.611-9.938v6.065C18.606,24.055,18.037,32.198,12.784,34.837z
			 M20.172,37.995c-1.686,0-3.271-0.412-4.671-1.13c1.652-1.144,3.342-2.947,4.671-5.841c1.328,2.89,3.015,4.694,4.666,5.838
			C23.438,37.58,21.856,37.995,20.172,37.995z M28.462,34.827c-0.154-0.157-0.32-0.301-0.462-0.47
			c-0.14,0.167-0.296,0.319-0.446,0.477c-5.247-2.642-5.816-10.779-5.816-10.779v-6.062c2.505,0.384,4.713,1.659,6.263,3.504
			c1.55-1.845,3.758-3.12,6.263-3.504v6.062C34.263,24.055,33.695,32.176,28.462,34.827z M35.828,37.995
			c-1.684,0-3.265-0.418-4.663-1.135c1.65-1.145,3.336-2.947,4.663-5.836c1.329,2.894,3.019,4.697,4.671,5.841
			C39.1,37.583,37.514,37.995,35.828,37.995z M43.216,34.837c-5.253-2.639-5.822-10.782-5.822-10.782v-6.065
			c4.876,0.747,8.611,4.905,8.611,9.938C46.005,30.605,44.94,33.033,43.216,34.837z M28,21.496
			c-1.466,1.744-2.349,3.984-2.349,6.431s0.883,4.687,2.349,6.431c1.466-1.744,2.349-3.984,2.349-6.431S29.466,23.24,28,21.496z"/>
	</g>
</g>
<g>
</g>
<g>
</g>
<g>
</g>
<g>
</g>
<g>
</g>
<g>
</g>
<g>
</g>
<g>
</g>
<g>
</g>
<g>
</g>
<g>
</g>
<g>
</g>
<g>
</g>
<g>
</g>
<g>
</g>
</svg>
